<?xml version="1.0" encoding="utf-8" standalone="no"?>
<!DOCTYPE svg PUBLIC "-//W3C//DTD SVG 1.1//EN"
  "http://www.w3.org/Graphics/SVG/1.1/DTD/svg11.dtd">
<!-- Created with matplotlib (https://matplotlib.org/) -->
<svg height="312.30825pt" version="1.1" viewBox="0 0 425.074687 312.30825" width="425.074687pt" xmlns="http://www.w3.org/2000/svg" xmlns:xlink="http://www.w3.org/1999/xlink">
 <metadata>
  <rdf:RDF xmlns:cc="http://creativecommons.org/ns#" xmlns:dc="http://purl.org/dc/elements/1.1/" xmlns:rdf="http://www.w3.org/1999/02/22-rdf-syntax-ns#">
   <cc:Work>
    <dc:type rdf:resource="http://purl.org/dc/dcmitype/StillImage"/>
    <dc:date>2023-10-16T01:55:17.267427</dc:date>
    <dc:format>image/svg+xml</dc:format>
    <dc:creator>
     <cc:Agent>
      <dc:title>Matplotlib v3.3.4, https://matplotlib.org/</dc:title>
     </cc:Agent>
    </dc:creator>
   </cc:Work>
  </rdf:RDF>
 </metadata>
 <defs>
  <style type="text/css">*{stroke-linecap:butt;stroke-linejoin:round;}</style>
 </defs>
 <g id="figure_1">
  <g id="patch_1">
   <path d="M 0 312.30825 
L 425.074687 312.30825 
L 425.074687 0 
L 0 0 
z
" style="fill:#ffffff;"/>
  </g>
  <g id="axes_1">
   <g id="patch_2">
    <path d="M 48.029688 288.430125 
L 405.149688 288.430125 
L 405.149688 22.318125 
L 48.029688 22.318125 
z
" style="fill:#ffffff;"/>
   </g>
   <g id="matplotlib.axis_1">
    <g id="xtick_1">
     <g id="line2d_1">
      <defs>
       <path d="M 0 0 
L 0 3.5 
" id="m82b8ad8935" style="stroke:#000000;stroke-width:0.8;"/>
      </defs>
      <g>
       <use style="stroke:#000000;stroke-width:0.8;" x="48.029687" xlink:href="#m82b8ad8935" y="288.430125"/>
      </g>
     </g>
     <g id="text_1">
      <!-- −1500 -->
      <g transform="translate(31.114844 303.028562)scale(0.1 -0.1)">
       <defs>
        <path d="M 10.59375 35.5 
L 73.1875 35.5 
L 73.1875 27.203125 
L 10.59375 27.203125 
z
" id="DejaVuSans-8722"/>
        <path d="M 12.40625 8.296875 
L 28.515625 8.296875 
L 28.515625 63.921875 
L 10.984375 60.40625 
L 10.984375 69.390625 
L 28.421875 72.90625 
L 38.28125 72.90625 
L 38.28125 8.296875 
L 54.390625 8.296875 
L 54.390625 0 
L 12.40625 0 
z
" id="DejaVuSans-49"/>
        <path d="M 10.796875 72.90625 
L 49.515625 72.90625 
L 49.515625 64.59375 
L 19.828125 64.59375 
L 19.828125 46.734375 
Q 21.96875 47.46875 24.109375 47.828125 
Q 26.265625 48.1875 28.421875 48.1875 
Q 40.625 48.1875 47.75 41.5 
Q 54.890625 34.8125 54.890625 23.390625 
Q 54.890625 11.625 47.5625 5.09375 
Q 40.234375 -1.421875 26.90625 -1.421875 
Q 22.3125 -1.421875 17.546875 -0.640625 
Q 12.796875 0.140625 7.71875 1.703125 
L 7.71875 11.625 
Q 12.109375 9.234375 16.796875 8.0625 
Q 21.484375 6.890625 26.703125 6.890625 
Q 35.15625 6.890625 40.078125 11.328125 
Q 45.015625 15.765625 45.015625 23.390625 
Q 45.015625 31 40.078125 35.4375 
Q 35.15625 39.890625 26.703125 39.890625 
Q 22.75 39.890625 18.8125 39.015625 
Q 14.890625 38.140625 10.796875 36.28125 
z
" id="DejaVuSans-53"/>
        <path d="M 31.78125 66.40625 
Q 24.171875 66.40625 20.328125 58.90625 
Q 16.5 51.421875 16.5 36.375 
Q 16.5 21.390625 20.328125 13.890625 
Q 24.171875 6.390625 31.78125 6.390625 
Q 39.453125 6.390625 43.28125 13.890625 
Q 47.125 21.390625 47.125 36.375 
Q 47.125 51.421875 43.28125 58.90625 
Q 39.453125 66.40625 31.78125 66.40625 
z
M 31.78125 74.21875 
Q 44.046875 74.21875 50.515625 64.515625 
Q 56.984375 54.828125 56.984375 36.375 
Q 56.984375 17.96875 50.515625 8.265625 
Q 44.046875 -1.421875 31.78125 -1.421875 
Q 19.53125 -1.421875 13.0625 8.265625 
Q 6.59375 17.96875 6.59375 36.375 
Q 6.59375 54.828125 13.0625 64.515625 
Q 19.53125 74.21875 31.78125 74.21875 
z
" id="DejaVuSans-48"/>
       </defs>
       <use xlink:href="#DejaVuSans-8722"/>
       <use x="83.789062" xlink:href="#DejaVuSans-49"/>
       <use x="147.412109" xlink:href="#DejaVuSans-53"/>
       <use x="211.035156" xlink:href="#DejaVuSans-48"/>
       <use x="274.658203" xlink:href="#DejaVuSans-48"/>
      </g>
     </g>
    </g>
    <g id="xtick_2">
     <g id="line2d_2">
      <g>
       <use style="stroke:#000000;stroke-width:0.8;" x="107.549688" xlink:href="#m82b8ad8935" y="288.430125"/>
      </g>
     </g>
     <g id="text_2">
      <!-- −1000 -->
      <g transform="translate(90.634844 303.028562)scale(0.1 -0.1)">
       <use xlink:href="#DejaVuSans-8722"/>
       <use x="83.789062" xlink:href="#DejaVuSans-49"/>
       <use x="147.412109" xlink:href="#DejaVuSans-48"/>
       <use x="211.035156" xlink:href="#DejaVuSans-48"/>
       <use x="274.658203" xlink:href="#DejaVuSans-48"/>
      </g>
     </g>
    </g>
    <g id="xtick_3">
     <g id="line2d_3">
      <g>
       <use style="stroke:#000000;stroke-width:0.8;" x="167.069687" xlink:href="#m82b8ad8935" y="288.430125"/>
      </g>
     </g>
     <g id="text_3">
      <!-- −500 -->
      <g transform="translate(153.336094 303.028562)scale(0.1 -0.1)">
       <use xlink:href="#DejaVuSans-8722"/>
       <use x="83.789062" xlink:href="#DejaVuSans-53"/>
       <use x="147.412109" xlink:href="#DejaVuSans-48"/>
       <use x="211.035156" xlink:href="#DejaVuSans-48"/>
      </g>
     </g>
    </g>
    <g id="xtick_4">
     <g id="line2d_4">
      <g>
       <use style="stroke:#000000;stroke-width:0.8;" x="226.589687" xlink:href="#m82b8ad8935" y="288.430125"/>
      </g>
     </g>
     <g id="text_4">
      <!-- 0 -->
      <g transform="translate(223.408437 303.028562)scale(0.1 -0.1)">
       <use xlink:href="#DejaVuSans-48"/>
      </g>
     </g>
    </g>
    <g id="xtick_5">
     <g id="line2d_5">
      <g>
       <use style="stroke:#000000;stroke-width:0.8;" x="286.109688" xlink:href="#m82b8ad8935" y="288.430125"/>
      </g>
     </g>
     <g id="text_5">
      <!-- 500 -->
      <g transform="translate(276.565938 303.028562)scale(0.1 -0.1)">
       <use xlink:href="#DejaVuSans-53"/>
       <use x="63.623047" xlink:href="#DejaVuSans-48"/>
       <use x="127.246094" xlink:href="#DejaVuSans-48"/>
      </g>
     </g>
    </g>
    <g id="xtick_6">
     <g id="line2d_6">
      <g>
       <use style="stroke:#000000;stroke-width:0.8;" x="345.629687" xlink:href="#m82b8ad8935" y="288.430125"/>
      </g>
     </g>
     <g id="text_6">
      <!-- 1000 -->
      <g transform="translate(332.904687 303.028562)scale(0.1 -0.1)">
       <use xlink:href="#DejaVuSans-49"/>
       <use x="63.623047" xlink:href="#DejaVuSans-48"/>
       <use x="127.246094" xlink:href="#DejaVuSans-48"/>
       <use x="190.869141" xlink:href="#DejaVuSans-48"/>
      </g>
     </g>
    </g>
    <g id="xtick_7">
     <g id="line2d_7">
      <g>
       <use style="stroke:#000000;stroke-width:0.8;" x="405.149688" xlink:href="#m82b8ad8935" y="288.430125"/>
      </g>
     </g>
     <g id="text_7">
      <!-- 1500 -->
      <g transform="translate(392.424688 303.028562)scale(0.1 -0.1)">
       <use xlink:href="#DejaVuSans-49"/>
       <use x="63.623047" xlink:href="#DejaVuSans-53"/>
       <use x="127.246094" xlink:href="#DejaVuSans-48"/>
       <use x="190.869141" xlink:href="#DejaVuSans-48"/>
      </g>
     </g>
    </g>
   </g>
   <g id="matplotlib.axis_2">
    <g id="ytick_1">
     <g id="line2d_8">
      <defs>
       <path d="M 0 0 
L -3.5 0 
" id="m1d3f4f9452" style="stroke:#000000;stroke-width:0.8;"/>
      </defs>
      <g>
       <use style="stroke:#000000;stroke-width:0.8;" x="48.029688" xlink:href="#m1d3f4f9452" y="288.430125"/>
      </g>
     </g>
     <g id="text_8">
      <!-- −1500 -->
      <g transform="translate(7.2 292.229344)scale(0.1 -0.1)">
       <use xlink:href="#DejaVuSans-8722"/>
       <use x="83.789062" xlink:href="#DejaVuSans-49"/>
       <use x="147.412109" xlink:href="#DejaVuSans-53"/>
       <use x="211.035156" xlink:href="#DejaVuSans-48"/>
       <use x="274.658203" xlink:href="#DejaVuSans-48"/>
      </g>
     </g>
    </g>
    <g id="ytick_2">
     <g id="line2d_9">
      <g>
       <use style="stroke:#000000;stroke-width:0.8;" x="48.029688" xlink:href="#m1d3f4f9452" y="244.078125"/>
      </g>
     </g>
     <g id="text_9">
      <!-- −1000 -->
      <g transform="translate(7.2 247.877344)scale(0.1 -0.1)">
       <use xlink:href="#DejaVuSans-8722"/>
       <use x="83.789062" xlink:href="#DejaVuSans-49"/>
       <use x="147.412109" xlink:href="#DejaVuSans-48"/>
       <use x="211.035156" xlink:href="#DejaVuSans-48"/>
       <use x="274.658203" xlink:href="#DejaVuSans-48"/>
      </g>
     </g>
    </g>
    <g id="ytick_3">
     <g id="line2d_10">
      <g>
       <use style="stroke:#000000;stroke-width:0.8;" x="48.029688" xlink:href="#m1d3f4f9452" y="199.726125"/>
      </g>
     </g>
     <g id="text_10">
      <!-- −500 -->
      <g transform="translate(13.5625 203.525344)scale(0.1 -0.1)">
       <use xlink:href="#DejaVuSans-8722"/>
       <use x="83.789062" xlink:href="#DejaVuSans-53"/>
       <use x="147.412109" xlink:href="#DejaVuSans-48"/>
       <use x="211.035156" xlink:href="#DejaVuSans-48"/>
      </g>
     </g>
    </g>
    <g id="ytick_4">
     <g id="line2d_11">
      <g>
       <use style="stroke:#000000;stroke-width:0.8;" x="48.029688" xlink:href="#m1d3f4f9452" y="155.374125"/>
      </g>
     </g>
     <g id="text_11">
      <!-- 0 -->
      <g transform="translate(34.667187 159.173344)scale(0.1 -0.1)">
       <use xlink:href="#DejaVuSans-48"/>
      </g>
     </g>
    </g>
    <g id="ytick_5">
     <g id="line2d_12">
      <g>
       <use style="stroke:#000000;stroke-width:0.8;" x="48.029688" xlink:href="#m1d3f4f9452" y="111.022125"/>
      </g>
     </g>
     <g id="text_12">
      <!-- 500 -->
      <g transform="translate(21.942187 114.821344)scale(0.1 -0.1)">
       <use xlink:href="#DejaVuSans-53"/>
       <use x="63.623047" xlink:href="#DejaVuSans-48"/>
       <use x="127.246094" xlink:href="#DejaVuSans-48"/>
      </g>
     </g>
    </g>
    <g id="ytick_6">
     <g id="line2d_13">
      <g>
       <use style="stroke:#000000;stroke-width:0.8;" x="48.029688" xlink:href="#m1d3f4f9452" y="66.670125"/>
      </g>
     </g>
     <g id="text_13">
      <!-- 1000 -->
      <g transform="translate(15.579687 70.469344)scale(0.1 -0.1)">
       <use xlink:href="#DejaVuSans-49"/>
       <use x="63.623047" xlink:href="#DejaVuSans-48"/>
       <use x="127.246094" xlink:href="#DejaVuSans-48"/>
       <use x="190.869141" xlink:href="#DejaVuSans-48"/>
      </g>
     </g>
    </g>
    <g id="ytick_7">
     <g id="line2d_14">
      <g>
       <use style="stroke:#000000;stroke-width:0.8;" x="48.029688" xlink:href="#m1d3f4f9452" y="22.318125"/>
      </g>
     </g>
     <g id="text_14">
      <!-- 1500 -->
      <g transform="translate(15.579687 26.117344)scale(0.1 -0.1)">
       <use xlink:href="#DejaVuSans-49"/>
       <use x="63.623047" xlink:href="#DejaVuSans-53"/>
       <use x="127.246094" xlink:href="#DejaVuSans-48"/>
       <use x="190.869141" xlink:href="#DejaVuSans-48"/>
      </g>
     </g>
    </g>
   </g>
   <g id="line2d_15">
    <path clip-path="url(#p95fa5c99cf)" d="M 226.589687 155.374125 
L 227.542007 155.817645 
L 228.732407 156.172461 
L 229.684728 156.527277 
L 230.934647 156.882093 
L 231.886967 157.236909 
L 233.077368 157.591725 
L 234.029687 157.946541 
L 235.220088 158.744877 
L 235.934327 159.099693 
L 236.708088 159.454509 
L 237.184247 160.164141 
L 237.898487 160.607661 
L 238.612728 161.317293 
L 239.326967 161.672109 
L 240.041207 162.026925 
L 240.755448 162.736557 
L 241.469687 163.180077 
L 242.183927 163.889709 
L 242.898167 164.244525 
" style="fill:none;stroke:#1f77b4;stroke-linecap:square;stroke-width:1.5;"/>
   </g>
   <g id="line2d_16">
    <path clip-path="url(#p95fa5c99cf)" d="M 226.589687 155.374125 
L 225.875448 158.700525 
L 225.161207 161.672109 
L 224.566007 164.954157 
L 223.851767 167.925741 
L 223.613687 171.252141 
L 223.316088 174.534189 
L 223.316088 177.860589 
L 223.316088 182.295789 
L 223.316088 186.553581 
L 224.089847 190.589613 
L 224.804088 194.980461 
L 225.756407 199.060845 
L 226.232567 202.387245 
L 226.708728 206.068461 
L 227.184888 209.350509 
L 227.899127 213.430893 
L 228.613368 217.866093 
L 229.089528 222.256941 
L 229.803767 226.692141 
" style="fill:none;stroke:#ff7f0e;stroke-linecap:square;stroke-width:1.5;"/>
   </g>
   <g id="line2d_17">
    <path clip-path="url(#p95fa5c99cf)" d="M 226.589687 155.374125 
L 224.149367 155.728941 
L 222.006647 156.083757 
L 219.863927 156.083757 
L 216.947448 156.438573 
L 212.662007 156.793389 
L 208.078968 157.148205 
L 203.317367 156.793389 
L 198.496248 156.083757 
L 193.675128 155.728941 
L 188.437367 154.974957 
L 182.604408 153.511341 
L 177.842807 152.003373 
L 173.497848 150.184941 
L 166.534008 149.430957 
L 157.665527 149.430957 
L 150.939768 149.430957 
L 146.178168 149.076141 
L 141.595127 148.721325 
L 136.535928 148.366509 
" style="fill:none;stroke:#2ca02c;stroke-linecap:square;stroke-width:1.5;"/>
   </g>
   <g id="line2d_18">
    <path clip-path="url(#p95fa5c99cf)" d="M 226.589687 155.374125 
L 223.613687 155.019309 
L 221.173367 155.019309 
L 219.506808 155.773293 
L 217.840248 156.482925 
L 216.114168 157.236909 
L 214.209528 157.990893 
L 212.542968 158.345709 
L 210.638328 159.099693 
L 208.733688 159.454509 
L 207.007608 160.164141 
L 204.626807 160.164141 
L 201.948408 160.164141 
L 199.091447 160.164141 
L 195.282168 159.454509 
L 191.651447 159.099693 
L 188.020727 159.099693 
L 183.973367 159.099693 
L 180.164087 159.099693 
L 172.188407 157.990893 
" style="fill:none;stroke:#d62728;stroke-linecap:square;stroke-width:1.5;"/>
   </g>
   <g id="line2d_19">
    <path clip-path="url(#p95fa5c99cf)" d="M 226.589687 155.374125 
L 222.720888 155.728941 
L 219.387767 155.728941 
L 217.006968 155.728941 
L 214.328567 155.728941 
L 211.471608 155.374125 
L 208.555127 154.974957 
L 205.460087 154.974957 
L 202.365048 155.728941 
L 198.496248 157.148205 
L 194.389367 158.656173 
L 189.865848 159.010989 
L 185.044727 158.301357 
L 179.985527 157.946541 
L 175.462007 157.946541 
L 171.831288 158.301357 
L 167.069687 158.301357 
L 161.772407 158.301357 
L 156.475127 158.301357 
L 150.225527 156.793389 
" style="fill:none;stroke:#9467bd;stroke-linecap:square;stroke-width:1.5;"/>
   </g>
   <g id="line2d_20">
    <path clip-path="url(#p95fa5c99cf)" d="M 226.589687 155.374125 
L 220.161528 155.728941 
L 214.090487 155.374125 
L 208.614647 154.664493 
L 203.079287 154.664493 
L 197.901048 153.910509 
L 193.139447 153.910509 
L 189.508727 155.019309 
L 185.163768 155.728941 
L 180.640247 156.083757 
L 176.116727 156.083757 
L 172.009848 155.728941 
L 167.902967 155.374125 
L 163.855607 155.019309 
L 159.510648 155.019309 
L 153.737208 155.019309 
L 148.023287 155.019309 
L 142.487928 154.664493 
L 136.952567 153.910509 
L 131.655287 152.801709 
" style="fill:none;stroke:#8c564b;stroke-linecap:square;stroke-width:1.5;"/>
   </g>
   <g id="line2d_21">
    <path clip-path="url(#p95fa5c99cf)" d="M 226.589687 155.374125 
L 230.934647 155.374125 
L 234.982008 155.374125 
L 237.898487 155.374125 
L 240.755448 155.374125 
L 243.374327 155.374125 
L 243.374327 155.374125 
L 243.374327 155.374125 
L 243.374327 155.374125 
L 243.374327 155.374125 
L 243.374327 155.374125 
L 243.374327 155.374125 
L 243.374327 155.374125 
L 243.374327 155.374125 
L 243.374327 155.374125 
L 243.374327 155.374125 
L 243.374327 155.374125 
L 243.374327 155.374125 
L 243.374327 155.374125 
L 243.374327 155.374125 
" style="fill:none;stroke:#e377c2;stroke-linecap:square;stroke-width:1.5;"/>
   </g>
   <g id="line2d_22">
    <path clip-path="url(#p95fa5c99cf)" d="M 226.589687 155.374125 
L 233.077368 155.374125 
L 239.803127 154.974957 
L 246.290807 154.575789 
L 252.659447 153.156525 
L 259.028087 152.003373 
L 265.277688 150.584109 
L 271.586807 149.430957 
L 277.836408 148.366509 
L 284.086007 147.213357 
L 289.383287 147.213357 
L 294.442487 147.213357 
L 299.680248 147.213357 
L 302.834808 148.366509 
L 303.787127 149.785773 
L 304.977528 151.648557 
L 305.929847 153.156525 
L 306.882167 155.374125 
L 306.882167 158.656173 
L 306.882167 161.982573 
" style="fill:none;stroke:#7f7f7f;stroke-linecap:square;stroke-width:1.5;"/>
   </g>
   <g id="line2d_23">
    <path clip-path="url(#p95fa5c99cf)" d="M 226.589687 155.374125 
L 231.410808 155.019309 
L 236.172407 154.664493 
L 240.993527 154.309677 
L 245.814648 153.555693 
L 250.576247 152.801709 
L 255.159288 152.092077 
L 259.980408 151.338093 
L 264.742007 150.584109 
L 269.086968 150.229293 
L 270.515447 152.801709 
L 271.943927 155.374125 
L 273.491447 157.946541 
L 274.979447 160.518957 
L 276.407927 163.135725 
L 277.836408 165.708141 
L 288.371447 168.857133 
L 289.740408 169.389357 
L 264.503927 163.889709 
L 276.288887 168.679725 
" style="fill:none;stroke:#bcbd22;stroke-linecap:square;stroke-width:1.5;"/>
   </g>
   <g id="line2d_24">
    <path clip-path="url(#p95fa5c99cf)" d="M 226.589687 155.374125 
L 229.922808 155.728941 
L 233.255927 156.128109 
L 236.767607 156.128109 
L 240.219767 156.482925 
L 243.612407 156.482925 
L 247.064568 156.837741 
L 250.457207 157.236909 
L 254.028407 157.236909 
L 256.587767 158.301357 
L 258.611447 159.454509 
L 260.635128 160.918125 
L 262.777848 162.026925 
L 264.622968 164.244525 
L 266.408568 166.062957 
L 268.194167 167.925741 
L 268.194167 170.498157 
L 268.194167 173.070573 
L 266.527607 175.465581 
L 265.099128 178.037997 
" style="fill:none;stroke:#17becf;stroke-linecap:square;stroke-width:1.5;"/>
   </g>
   <g id="line2d_25">
    <path clip-path="url(#p95fa5c99cf)" d="M 226.589687 155.374125 
L 226.351608 159.809325 
L 226.232567 163.889709 
L 226.232567 168.280557 
L 226.232567 172.316589 
L 226.232567 175.288173 
L 226.470647 177.860589 
L 226.708728 180.832173 
L 227.184888 183.049773 
L 227.661047 185.267373 
L 228.137207 187.440621 
L 228.851448 189.658221 
L 230.279927 191.476653 
L 231.708407 192.984621 
L 233.196407 194.448237 
L 234.862967 195.911853 
L 236.291448 197.774637 
L 237.779448 199.238253 
L 239.446008 200.701869 
L 240.874487 202.209837 
" style="fill:none;stroke:#1f77b4;stroke-linecap:square;stroke-width:1.5;"/>
   </g>
   <g id="line2d_26">
    <path clip-path="url(#p95fa5c99cf)" d="M 226.589687 155.374125 
L 226.589687 155.374125 
L 226.589687 155.374125 
L 226.589687 155.374125 
L 226.589687 155.374125 
L 226.589687 155.374125 
L 226.589687 155.374125 
L 226.589687 155.374125 
L 226.589687 155.374125 
L 226.589687 155.374125 
L 226.589687 155.374125 
L 226.589687 155.374125 
L 226.589687 155.374125 
L 226.589687 155.374125 
L 226.589687 155.374125 
L 226.589687 155.374125 
L 226.589687 155.374125 
L 226.589687 155.374125 
L 226.589687 155.374125 
L 226.589687 155.374125 
" style="fill:none;stroke:#ff7f0e;stroke-linecap:square;stroke-width:1.5;"/>
   </g>
   <g id="line2d_27">
    <path clip-path="url(#p95fa5c99cf)" d="M 226.589687 155.374125 
L 230.160888 155.374125 
L 233.791607 155.374125 
L 237.362808 155.196717 
L 240.993527 154.664493 
L 245.338487 155.950701 
L 249.862008 157.059501 
L 254.385527 158.168301 
L 258.730487 158.877933 
L 263.313527 159.631917 
L 268.075128 161.095533 
L 273.134327 162.559149 
L 278.193528 164.022765 
L 283.193207 165.175917 
L 288.311928 165.530733 
L 293.073528 165.885549 
L 297.120887 166.816941 
L 301.465847 167.570925 
L 306.525047 167.925741 
L 311.286647 168.280557 
" style="fill:none;stroke:#2ca02c;stroke-linecap:square;stroke-width:1.5;"/>
   </g>
   <g id="line2d_28">
    <path clip-path="url(#p95fa5c99cf)" d="M 226.589687 155.374125 
L 228.494327 156.882093 
L 230.458487 158.390061 
L 232.601207 159.454509 
L 235.517687 159.809325 
L 238.374648 160.607661 
L 241.588728 161.317293 
L 245.219448 162.026925 
L 248.850167 162.780909 
L 252.302327 163.889709 
L 256.111607 164.599341 
L 260.218487 164.954157 
L 264.325367 165.397677 
L 268.372727 165.752493 
L 272.420088 166.107309 
L 276.526968 166.462125 
L 280.395767 166.816941 
L 284.443128 167.171757 
L 288.311928 167.970093 
L 292.418808 168.502317 
" style="fill:none;stroke:#d62728;stroke-linecap:square;stroke-width:1.5;"/>
   </g>
   <g id="line2d_29">
    <path clip-path="url(#p95fa5c99cf)" d="M 226.589687 155.374125 
L 227.780088 155.019309 
L 229.208567 154.664493 
L 231.113207 154.664493 
L 233.315448 155.019309 
L 235.220088 155.374125 
L 237.422327 155.728941 
L 239.088887 156.128109 
L 240.517368 156.482925 
L 241.945847 156.882093 
L 243.136247 157.236909 
L 244.564728 157.591725 
L 245.278967 158.301357 
L 245.755127 159.277101 
L 246.469368 160.164141 
L 247.243127 161.095533 
L 247.957368 162.026925 
L 248.433527 162.913965 
L 249.147767 163.667949 
L 249.623927 164.776749 
" style="fill:none;stroke:#9467bd;stroke-linecap:square;stroke-width:1.5;"/>
   </g>
   <g id="line2d_30">
    <path clip-path="url(#p95fa5c99cf)" d="M 226.589687 155.374125 
L 228.494327 155.374125 
L 230.458487 155.374125 
L 231.648888 155.728941 
L 232.660728 155.728941 
L 233.851127 156.083757 
L 235.517687 156.083757 
L 237.065207 156.261165 
L 238.850808 156.482925 
L 239.803127 157.236909 
L 240.993527 157.946541 
L 242.183927 158.301357 
L 243.195767 158.656173 
L 244.386167 159.055341 
L 245.338487 160.164141 
L 247.005047 161.272941 
L 250.635767 161.272941 
L 252.064247 162.026925 
L 253.492728 162.381741 
L 255.159288 162.736557 
" style="fill:none;stroke:#8c564b;stroke-linecap:square;stroke-width:1.5;"/>
   </g>
   <g id="line2d_31">
    <path clip-path="url(#p95fa5c99cf)" d="M 226.589687 155.374125 
L 226.827767 156.837741 
L 227.363448 158.301357 
L 227.958647 159.587565 
L 228.553847 160.518957 
L 229.268088 161.450349 
L 229.863287 162.337389 
L 230.577528 163.845357 
L 231.291767 165.663789 
L 232.006008 167.127405 
L 232.779767 168.635373 
L 233.494008 171.562605 
L 234.446327 174.489837 
L 235.160567 177.461421 
L 235.636728 180.433005 
L 235.398647 184.069869 
L 235.160567 187.440621 
L 234.922487 190.722669 
L 234.446327 194.403885 
L 234.208247 197.730285 
" style="fill:none;stroke:#e377c2;stroke-linecap:square;stroke-width:1.5;"/>
   </g>
   <g id="line2d_32">
    <path clip-path="url(#p95fa5c99cf)" d="M 226.589687 155.374125 
L 225.161207 157.015149 
L 223.732728 158.523117 
L 222.304248 159.986733 
L 220.816248 163.313133 
L 219.387767 166.994349 
L 218.435448 169.211949 
L 217.245047 171.385197 
L 216.768888 173.602797 
L 216.768888 176.175213 
L 216.768888 178.791981 
L 217.245047 181.364397 
L 218.435448 184.690797 
L 219.625847 187.618029 
L 220.816248 190.944429 
L 221.828088 194.980461 
L 222.542327 200.125293 
L 223.494647 204.915309 
L 224.208888 210.104493 
L 225.399287 214.495341 
" style="fill:none;stroke:#7f7f7f;stroke-linecap:square;stroke-width:1.5;"/>
   </g>
   <g id="line2d_33">
    <path clip-path="url(#p95fa5c99cf)" d="M 226.589687 155.374125 
L 228.970487 155.374125 
L 231.351287 155.374125 
L 233.553528 155.374125 
L 235.934327 155.374125 
L 238.374648 155.374125 
L 240.517368 155.374125 
L 242.898167 155.019309 
L 245.278967 155.019309 
L 247.481207 155.019309 
L 249.862008 155.019309 
L 252.242807 155.019309 
L 254.445047 155.019309 
L 256.825848 155.019309 
L 258.968568 155.019309 
L 261.408887 154.664493 
L 263.313527 154.309677 
L 265.456248 153.866157 
L 267.420408 153.866157 
L 268.372727 155.374125 
" style="fill:none;stroke:#bcbd22;stroke-linecap:square;stroke-width:1.5;"/>
   </g>
   <g id="line2d_34">
    <path clip-path="url(#p95fa5c99cf)" d="M 226.589687 155.374125 
L 227.899127 155.374125 
L 229.327607 155.374125 
L 230.756088 155.374125 
L 232.244088 155.374125 
L 233.672567 155.374125 
L 235.101047 155.374125 
L 236.529528 155.374125 
L 237.958008 155.374125 
L 239.446008 155.374125 
L 240.874487 155.374125 
L 241.588728 154.664493 
L 242.302967 153.156525 
L 243.017207 152.092077 
L 243.731448 150.938925 
L 244.445687 149.874477 
L 245.159927 148.366509 
L 245.159927 146.902893 
L 245.457527 145.439277 
L 245.457527 143.931309 
" style="fill:none;stroke:#17becf;stroke-linecap:square;stroke-width:1.5;"/>
   </g>
   <g id="line2d_35">
    <path clip-path="url(#p95fa5c99cf)" d="M 226.589687 155.374125 
L 232.303607 155.374125 
L 238.017527 155.374125 
L 243.731448 155.374125 
L 249.028728 155.374125 
L 254.087928 154.974957 
L 259.087607 154.620141 
L 264.146808 154.265325 
L 269.444088 153.511341 
L 274.681848 152.757357 
L 279.979128 152.047725 
L 285.276408 151.338093 
L 290.573688 150.584109 
L 295.632887 150.184941 
L 300.632567 149.475309 
L 305.453688 150.007533 
L 310.274808 150.761517 
L 315.036407 151.692909 
L 320.095607 152.801709 
L 325.392887 153.511341 
" style="fill:none;stroke:#1f77b4;stroke-linecap:square;stroke-width:1.5;"/>
   </g>
   <g id="line2d_36">
    <path clip-path="url(#p95fa5c99cf)" d="M 226.589687 155.374125 
L 231.470327 155.374125 
L 236.291448 155.728941 
L 241.588728 155.374125 
L 247.064568 154.664493 
L 252.361848 153.910509 
L 257.897207 153.156525 
L 263.373047 152.446893 
L 268.432248 151.692909 
L 272.777207 150.584109 
L 277.300727 149.519661 
L 281.645688 148.366509 
L 286.466808 147.656877 
L 291.466487 146.548077 
L 296.287607 145.794093 
L 300.870648 145.794093 
L 304.203768 147.302061 
L 307.596407 149.120493 
L 310.929528 150.938925 
L 312.655607 153.910509 
" style="fill:none;stroke:#ff7f0e;stroke-linecap:square;stroke-width:1.5;"/>
   </g>
   <g id="line2d_37">
    <path clip-path="url(#p95fa5c99cf)" d="M 226.589687 155.374125 
L 232.363127 154.620141 
L 237.898487 153.910509 
L 243.433847 153.156525 
L 249.207288 152.402541 
L 254.683127 151.692909 
L 260.099447 150.584109 
L 265.515767 149.475309 
L 270.872568 148.366509 
L 276.407927 147.257709 
L 281.467128 146.548077 
L 285.752567 148.011693 
L 290.097528 149.475309 
L 294.442487 150.938925 
L 298.727927 152.402541 
L 302.834808 153.910509 
L 306.406007 155.374125 
L 310.036727 156.837741 
L 313.369847 158.345709 
L 317.000567 159.764973 
" style="fill:none;stroke:#2ca02c;stroke-linecap:square;stroke-width:1.5;"/>
   </g>
   <g id="line2d_38">
    <path clip-path="url(#p95fa5c99cf)" d="M 226.589687 155.374125 
L 225.637368 155.773293 
L 224.923127 156.128109 
L 224.089847 156.482925 
L 223.256567 156.482925 
L 222.423287 156.882093 
L 221.947127 157.236909 
L 221.709047 157.591725 
L 221.232888 157.990893 
L 220.994808 157.990893 
L 220.756728 158.345709 
L 220.518647 158.700525 
L 220.221047 159.099693 
L 219.744888 159.454509 
L 219.744888 159.809325 
L 219.982968 160.918125 
L 220.518647 161.672109 
L 220.756728 162.780909 
L 221.232888 163.490541 
L 221.470968 164.599341 
" style="fill:none;stroke:#d62728;stroke-linecap:square;stroke-width:1.5;"/>
   </g>
   <g id="line2d_39">
    <path clip-path="url(#p95fa5c99cf)" d="M 226.589687 155.374125 
L 226.113528 158.345709 
L 225.637368 161.272941 
L 225.161207 163.845357 
L 224.327927 166.462125 
L 224.327927 169.744173 
L 224.327927 173.425389 
L 224.327927 176.751789 
L 224.327927 179.324205 
L 224.327927 181.896621 
L 224.327927 184.469037 
L 224.327927 187.085805 
L 224.327927 189.658221 
L 224.804088 192.230637 
L 225.280248 194.803053 
L 225.994487 197.020653 
L 227.184888 198.839085 
L 228.137207 200.701869 
L 229.327607 202.165485 
L 230.518008 204.205677 
" style="fill:none;stroke:#9467bd;stroke-linecap:square;stroke-width:1.5;"/>
   </g>
   <g id="line2d_40">
    <path clip-path="url(#p95fa5c99cf)" d="M 226.589687 155.374125 
L 226.351608 158.301357 
L 226.113528 161.583405 
L 225.875448 164.554989 
L 225.399287 167.526573 
L 225.161207 170.808621 
L 224.863608 173.780205 
L 224.982647 176.751789 
L 225.518327 179.679021 
L 225.994487 182.606253 
L 226.470647 185.533485 
L 227.184888 187.751085 
L 228.137207 189.968685 
L 228.851448 191.831469 
L 229.565687 194.049069 
L 230.756088 195.911853 
L 231.708407 197.730285 
L 232.898808 199.548717 
L 234.327287 201.056685 
L 235.815288 202.875117 
" style="fill:none;stroke:#8c564b;stroke-linecap:square;stroke-width:1.5;"/>
   </g>
   <g id="line2d_41">
    <path clip-path="url(#p95fa5c99cf)" d="M 226.589687 155.374125 
L 226.113528 159.055341 
L 225.875448 162.780909 
L 225.875448 165.353325 
L 225.875448 167.925741 
L 225.875448 170.498157 
L 225.875448 173.070573 
L 225.875448 175.997805 
L 226.351608 177.860589 
L 227.065847 179.324205 
L 228.018168 181.186989 
L 228.970487 182.650605 
L 229.922808 184.513389 
L 230.637047 185.977005 
L 232.125047 187.795437 
L 233.791607 189.303405 
L 235.458168 191.121837 
L 237.184247 192.984621 
L 238.850808 194.448237 
L 240.279288 196.311021 
" style="fill:none;stroke:#e377c2;stroke-linecap:square;stroke-width:1.5;"/>
   </g>
   <g id="line2d_42">
    <path clip-path="url(#p95fa5c99cf)" d="M 226.589687 155.374125 
L 225.518327 154.620141 
L 224.446967 153.910509 
L 223.256567 153.200877 
L 222.185207 152.757357 
L 220.994808 152.047725 
L 219.923448 151.338093 
L 218.792567 150.584109 
L 217.602168 150.184941 
L 216.411767 149.475309 
L 215.459448 148.765677 
L 214.269047 147.967341 
L 213.019127 147.612525 
L 212.542968 146.902893 
L 212.542968 146.902893 
L 212.542968 146.902893 
L 212.542968 146.902893 
L 212.542968 146.902893 
L 212.542968 146.902893 
L 212.542968 146.902893 
" style="fill:none;stroke:#7f7f7f;stroke-linecap:square;stroke-width:1.5;"/>
   </g>
   <g id="line2d_43">
    <path clip-path="url(#p95fa5c99cf)" d="M 226.589687 155.374125 
L 226.113528 158.700525 
L 225.875448 162.204333 
L 225.875448 165.708141 
L 225.875448 169.211949 
L 225.399287 172.139181 
L 225.161207 175.110765 
L 224.923127 177.683181 
L 224.923127 179.900781 
L 224.923127 182.074029 
L 225.161207 184.291629 
L 225.637368 186.509229 
L 225.875448 188.726829 
L 227.303927 191.299245 
L 229.446647 194.625645 
L 231.351287 196.089261 
L 233.017847 197.198061 
L 234.505847 198.306861 
L 236.648567 200.169645 
L 239.088887 202.342893 
" style="fill:none;stroke:#bcbd22;stroke-linecap:square;stroke-width:1.5;"/>
   </g>
   <g id="line2d_44">
    <path clip-path="url(#p95fa5c99cf)" d="M 226.589687 155.374125 
L 228.077687 155.019309 
L 229.506168 155.019309 
L 231.410808 155.773293 
L 233.613047 156.527277 
L 235.517687 156.527277 
L 237.422327 156.527277 
L 238.612728 156.527277 
L 238.612728 156.527277 
L 238.612728 156.527277 
L 238.612728 156.527277 
L 238.612728 156.527277 
L 238.612728 156.527277 
L 238.612728 156.527277 
L 238.612728 156.527277 
L 238.612728 156.527277 
L 238.612728 156.527277 
L 238.612728 156.527277 
L 238.612728 156.527277 
L 238.612728 156.527277 
" style="fill:none;stroke:#17becf;stroke-linecap:square;stroke-width:1.5;"/>
   </g>
   <g id="line2d_45">
    <path clip-path="url(#p95fa5c99cf)" d="M 226.589687 155.374125 
L 230.696567 155.374125 
L 234.684407 155.374125 
L 238.731767 155.728941 
L 242.600568 156.083757 
L 246.647927 156.482925 
L 251.230967 155.728941 
L 255.814008 155.019309 
L 259.861367 154.265325 
L 263.730167 153.333933 
L 268.491767 152.269485 
L 273.074808 151.116333 
L 275.693688 149.697069 
L 278.848248 148.898733 
L 282.419447 148.543917 
L 286.288248 148.189101 
L 289.859447 147.080301 
L 293.252088 147.834285 
L 296.823287 148.189101 
L 299.263607 149.297901 
" style="fill:none;stroke:#1f77b4;stroke-linecap:square;stroke-width:1.5;"/>
   </g>
   <g id="patch_3">
    <path d="M 48.029688 288.430125 
L 48.029688 22.318125 
" style="fill:none;stroke:#000000;stroke-linecap:square;stroke-linejoin:miter;stroke-width:0.8;"/>
   </g>
   <g id="patch_4">
    <path d="M 405.149688 288.430125 
L 405.149688 22.318125 
" style="fill:none;stroke:#000000;stroke-linecap:square;stroke-linejoin:miter;stroke-width:0.8;"/>
   </g>
   <g id="patch_5">
    <path d="M 48.029687 288.430125 
L 405.149688 288.430125 
" style="fill:none;stroke:#000000;stroke-linecap:square;stroke-linejoin:miter;stroke-width:0.8;"/>
   </g>
   <g id="patch_6">
    <path d="M 48.029687 22.318125 
L 405.149688 22.318125 
" style="fill:none;stroke:#000000;stroke-linecap:square;stroke-linejoin:miter;stroke-width:0.8;"/>
   </g>
   <g id="text_15">
    <!-- deathCircle_4 -->
    <g transform="translate(185.59375 16.318125)scale(0.12 -0.12)">
     <defs>
      <path d="M 45.40625 46.390625 
L 45.40625 75.984375 
L 54.390625 75.984375 
L 54.390625 0 
L 45.40625 0 
L 45.40625 8.203125 
Q 42.578125 3.328125 38.25 0.953125 
Q 33.9375 -1.421875 27.875 -1.421875 
Q 17.96875 -1.421875 11.734375 6.484375 
Q 5.515625 14.40625 5.515625 27.296875 
Q 5.515625 40.1875 11.734375 48.09375 
Q 17.96875 56 27.875 56 
Q 33.9375 56 38.25 53.625 
Q 42.578125 51.265625 45.40625 46.390625 
z
M 14.796875 27.296875 
Q 14.796875 17.390625 18.875 11.75 
Q 22.953125 6.109375 30.078125 6.109375 
Q 37.203125 6.109375 41.296875 11.75 
Q 45.40625 17.390625 45.40625 27.296875 
Q 45.40625 37.203125 41.296875 42.84375 
Q 37.203125 48.484375 30.078125 48.484375 
Q 22.953125 48.484375 18.875 42.84375 
Q 14.796875 37.203125 14.796875 27.296875 
z
" id="DejaVuSans-100"/>
      <path d="M 56.203125 29.59375 
L 56.203125 25.203125 
L 14.890625 25.203125 
Q 15.484375 15.921875 20.484375 11.0625 
Q 25.484375 6.203125 34.421875 6.203125 
Q 39.59375 6.203125 44.453125 7.46875 
Q 49.3125 8.734375 54.109375 11.28125 
L 54.109375 2.78125 
Q 49.265625 0.734375 44.1875 -0.34375 
Q 39.109375 -1.421875 33.890625 -1.421875 
Q 20.796875 -1.421875 13.15625 6.1875 
Q 5.515625 13.8125 5.515625 26.8125 
Q 5.515625 40.234375 12.765625 48.109375 
Q 20.015625 56 32.328125 56 
Q 43.359375 56 49.78125 48.890625 
Q 56.203125 41.796875 56.203125 29.59375 
z
M 47.21875 32.234375 
Q 47.125 39.59375 43.09375 43.984375 
Q 39.0625 48.390625 32.421875 48.390625 
Q 24.90625 48.390625 20.390625 44.140625 
Q 15.875 39.890625 15.1875 32.171875 
z
" id="DejaVuSans-101"/>
      <path d="M 34.28125 27.484375 
Q 23.390625 27.484375 19.1875 25 
Q 14.984375 22.515625 14.984375 16.5 
Q 14.984375 11.71875 18.140625 8.90625 
Q 21.296875 6.109375 26.703125 6.109375 
Q 34.1875 6.109375 38.703125 11.40625 
Q 43.21875 16.703125 43.21875 25.484375 
L 43.21875 27.484375 
z
M 52.203125 31.203125 
L 52.203125 0 
L 43.21875 0 
L 43.21875 8.296875 
Q 40.140625 3.328125 35.546875 0.953125 
Q 30.953125 -1.421875 24.3125 -1.421875 
Q 15.921875 -1.421875 10.953125 3.296875 
Q 6 8.015625 6 15.921875 
Q 6 25.140625 12.171875 29.828125 
Q 18.359375 34.515625 30.609375 34.515625 
L 43.21875 34.515625 
L 43.21875 35.40625 
Q 43.21875 41.609375 39.140625 45 
Q 35.0625 48.390625 27.6875 48.390625 
Q 23 48.390625 18.546875 47.265625 
Q 14.109375 46.140625 10.015625 43.890625 
L 10.015625 52.203125 
Q 14.9375 54.109375 19.578125 55.046875 
Q 24.21875 56 28.609375 56 
Q 40.484375 56 46.34375 49.84375 
Q 52.203125 43.703125 52.203125 31.203125 
z
" id="DejaVuSans-97"/>
      <path d="M 18.3125 70.21875 
L 18.3125 54.6875 
L 36.8125 54.6875 
L 36.8125 47.703125 
L 18.3125 47.703125 
L 18.3125 18.015625 
Q 18.3125 11.328125 20.140625 9.421875 
Q 21.96875 7.515625 27.59375 7.515625 
L 36.8125 7.515625 
L 36.8125 0 
L 27.59375 0 
Q 17.1875 0 13.234375 3.875 
Q 9.28125 7.765625 9.28125 18.015625 
L 9.28125 47.703125 
L 2.6875 47.703125 
L 2.6875 54.6875 
L 9.28125 54.6875 
L 9.28125 70.21875 
z
" id="DejaVuSans-116"/>
      <path d="M 54.890625 33.015625 
L 54.890625 0 
L 45.90625 0 
L 45.90625 32.71875 
Q 45.90625 40.484375 42.875 44.328125 
Q 39.84375 48.1875 33.796875 48.1875 
Q 26.515625 48.1875 22.3125 43.546875 
Q 18.109375 38.921875 18.109375 30.90625 
L 18.109375 0 
L 9.078125 0 
L 9.078125 75.984375 
L 18.109375 75.984375 
L 18.109375 46.1875 
Q 21.34375 51.125 25.703125 53.5625 
Q 30.078125 56 35.796875 56 
Q 45.21875 56 50.046875 50.171875 
Q 54.890625 44.34375 54.890625 33.015625 
z
" id="DejaVuSans-104"/>
      <path d="M 64.40625 67.28125 
L 64.40625 56.890625 
Q 59.421875 61.53125 53.78125 63.8125 
Q 48.140625 66.109375 41.796875 66.109375 
Q 29.296875 66.109375 22.65625 58.46875 
Q 16.015625 50.828125 16.015625 36.375 
Q 16.015625 21.96875 22.65625 14.328125 
Q 29.296875 6.6875 41.796875 6.6875 
Q 48.140625 6.6875 53.78125 8.984375 
Q 59.421875 11.28125 64.40625 15.921875 
L 64.40625 5.609375 
Q 59.234375 2.09375 53.4375 0.328125 
Q 47.65625 -1.421875 41.21875 -1.421875 
Q 24.65625 -1.421875 15.125 8.703125 
Q 5.609375 18.84375 5.609375 36.375 
Q 5.609375 53.953125 15.125 64.078125 
Q 24.65625 74.21875 41.21875 74.21875 
Q 47.75 74.21875 53.53125 72.484375 
Q 59.328125 70.75 64.40625 67.28125 
z
" id="DejaVuSans-67"/>
      <path d="M 9.421875 54.6875 
L 18.40625 54.6875 
L 18.40625 0 
L 9.421875 0 
z
M 9.421875 75.984375 
L 18.40625 75.984375 
L 18.40625 64.59375 
L 9.421875 64.59375 
z
" id="DejaVuSans-105"/>
      <path d="M 41.109375 46.296875 
Q 39.59375 47.171875 37.8125 47.578125 
Q 36.03125 48 33.890625 48 
Q 26.265625 48 22.1875 43.046875 
Q 18.109375 38.09375 18.109375 28.8125 
L 18.109375 0 
L 9.078125 0 
L 9.078125 54.6875 
L 18.109375 54.6875 
L 18.109375 46.1875 
Q 20.953125 51.171875 25.484375 53.578125 
Q 30.03125 56 36.53125 56 
Q 37.453125 56 38.578125 55.875 
Q 39.703125 55.765625 41.0625 55.515625 
z
" id="DejaVuSans-114"/>
      <path d="M 48.78125 52.59375 
L 48.78125 44.1875 
Q 44.96875 46.296875 41.140625 47.34375 
Q 37.3125 48.390625 33.40625 48.390625 
Q 24.65625 48.390625 19.8125 42.84375 
Q 14.984375 37.3125 14.984375 27.296875 
Q 14.984375 17.28125 19.8125 11.734375 
Q 24.65625 6.203125 33.40625 6.203125 
Q 37.3125 6.203125 41.140625 7.25 
Q 44.96875 8.296875 48.78125 10.40625 
L 48.78125 2.09375 
Q 45.015625 0.34375 40.984375 -0.53125 
Q 36.96875 -1.421875 32.421875 -1.421875 
Q 20.0625 -1.421875 12.78125 6.34375 
Q 5.515625 14.109375 5.515625 27.296875 
Q 5.515625 40.671875 12.859375 48.328125 
Q 20.21875 56 33.015625 56 
Q 37.15625 56 41.109375 55.140625 
Q 45.0625 54.296875 48.78125 52.59375 
z
" id="DejaVuSans-99"/>
      <path d="M 9.421875 75.984375 
L 18.40625 75.984375 
L 18.40625 0 
L 9.421875 0 
z
" id="DejaVuSans-108"/>
      <path d="M 50.984375 -16.609375 
L 50.984375 -23.578125 
L -0.984375 -23.578125 
L -0.984375 -16.609375 
z
" id="DejaVuSans-95"/>
      <path d="M 37.796875 64.3125 
L 12.890625 25.390625 
L 37.796875 25.390625 
z
M 35.203125 72.90625 
L 47.609375 72.90625 
L 47.609375 25.390625 
L 58.015625 25.390625 
L 58.015625 17.1875 
L 47.609375 17.1875 
L 47.609375 0 
L 37.796875 0 
L 37.796875 17.1875 
L 4.890625 17.1875 
L 4.890625 26.703125 
z
" id="DejaVuSans-52"/>
     </defs>
     <use xlink:href="#DejaVuSans-100"/>
     <use x="63.476562" xlink:href="#DejaVuSans-101"/>
     <use x="125" xlink:href="#DejaVuSans-97"/>
     <use x="186.279297" xlink:href="#DejaVuSans-116"/>
     <use x="225.488281" xlink:href="#DejaVuSans-104"/>
     <use x="288.867188" xlink:href="#DejaVuSans-67"/>
     <use x="358.691406" xlink:href="#DejaVuSans-105"/>
     <use x="386.474609" xlink:href="#DejaVuSans-114"/>
     <use x="425.337891" xlink:href="#DejaVuSans-99"/>
     <use x="480.318359" xlink:href="#DejaVuSans-108"/>
     <use x="508.101562" xlink:href="#DejaVuSans-101"/>
     <use x="569.625" xlink:href="#DejaVuSans-95"/>
     <use x="619.625" xlink:href="#DejaVuSans-52"/>
    </g>
   </g>
  </g>
 </g>
 <defs>
  <clipPath id="p95fa5c99cf">
   <rect height="266.112" width="357.12" x="48.029688" y="22.318125"/>
  </clipPath>
 </defs>
</svg>
