<?xml version="1.0" encoding="utf-8" standalone="no"?>
<!DOCTYPE svg PUBLIC "-//W3C//DTD SVG 1.1//EN"
  "http://www.w3.org/Graphics/SVG/1.1/DTD/svg11.dtd">
<!-- Created with matplotlib (https://matplotlib.org/) -->
<svg height="312.30825pt" version="1.1" viewBox="0 0 425.074687 312.30825" width="425.074687pt" xmlns="http://www.w3.org/2000/svg" xmlns:xlink="http://www.w3.org/1999/xlink">
 <metadata>
  <rdf:RDF xmlns:cc="http://creativecommons.org/ns#" xmlns:dc="http://purl.org/dc/elements/1.1/" xmlns:rdf="http://www.w3.org/1999/02/22-rdf-syntax-ns#">
   <cc:Work>
    <dc:type rdf:resource="http://purl.org/dc/dcmitype/StillImage"/>
    <dc:date>2023-10-16T01:55:09.845138</dc:date>
    <dc:format>image/svg+xml</dc:format>
    <dc:creator>
     <cc:Agent>
      <dc:title>Matplotlib v3.3.4, https://matplotlib.org/</dc:title>
     </cc:Agent>
    </dc:creator>
   </cc:Work>
  </rdf:RDF>
 </metadata>
 <defs>
  <style type="text/css">*{stroke-linecap:butt;stroke-linejoin:round;}</style>
 </defs>
 <g id="figure_1">
  <g id="patch_1">
   <path d="M 0 312.30825 
L 425.074687 312.30825 
L 425.074687 0 
L 0 0 
z
" style="fill:#ffffff;"/>
  </g>
  <g id="axes_1">
   <g id="patch_2">
    <path d="M 48.029688 288.430125 
L 405.149688 288.430125 
L 405.149688 22.318125 
L 48.029688 22.318125 
z
" style="fill:#ffffff;"/>
   </g>
   <g id="matplotlib.axis_1">
    <g id="xtick_1">
     <g id="line2d_1">
      <defs>
       <path d="M 0 0 
L 0 3.5 
" id="m2e59675998" style="stroke:#000000;stroke-width:0.8;"/>
      </defs>
      <g>
       <use style="stroke:#000000;stroke-width:0.8;" x="48.029687" xlink:href="#m2e59675998" y="288.430125"/>
      </g>
     </g>
     <g id="text_1">
      <!-- −1500 -->
      <g transform="translate(31.114844 303.028562)scale(0.1 -0.1)">
       <defs>
        <path d="M 10.59375 35.5 
L 73.1875 35.5 
L 73.1875 27.203125 
L 10.59375 27.203125 
z
" id="DejaVuSans-8722"/>
        <path d="M 12.40625 8.296875 
L 28.515625 8.296875 
L 28.515625 63.921875 
L 10.984375 60.40625 
L 10.984375 69.390625 
L 28.421875 72.90625 
L 38.28125 72.90625 
L 38.28125 8.296875 
L 54.390625 8.296875 
L 54.390625 0 
L 12.40625 0 
z
" id="DejaVuSans-49"/>
        <path d="M 10.796875 72.90625 
L 49.515625 72.90625 
L 49.515625 64.59375 
L 19.828125 64.59375 
L 19.828125 46.734375 
Q 21.96875 47.46875 24.109375 47.828125 
Q 26.265625 48.1875 28.421875 48.1875 
Q 40.625 48.1875 47.75 41.5 
Q 54.890625 34.8125 54.890625 23.390625 
Q 54.890625 11.625 47.5625 5.09375 
Q 40.234375 -1.421875 26.90625 -1.421875 
Q 22.3125 -1.421875 17.546875 -0.640625 
Q 12.796875 0.140625 7.71875 1.703125 
L 7.71875 11.625 
Q 12.109375 9.234375 16.796875 8.0625 
Q 21.484375 6.890625 26.703125 6.890625 
Q 35.15625 6.890625 40.078125 11.328125 
Q 45.015625 15.765625 45.015625 23.390625 
Q 45.015625 31 40.078125 35.4375 
Q 35.15625 39.890625 26.703125 39.890625 
Q 22.75 39.890625 18.8125 39.015625 
Q 14.890625 38.140625 10.796875 36.28125 
z
" id="DejaVuSans-53"/>
        <path d="M 31.78125 66.40625 
Q 24.171875 66.40625 20.328125 58.90625 
Q 16.5 51.421875 16.5 36.375 
Q 16.5 21.390625 20.328125 13.890625 
Q 24.171875 6.390625 31.78125 6.390625 
Q 39.453125 6.390625 43.28125 13.890625 
Q 47.125 21.390625 47.125 36.375 
Q 47.125 51.421875 43.28125 58.90625 
Q 39.453125 66.40625 31.78125 66.40625 
z
M 31.78125 74.21875 
Q 44.046875 74.21875 50.515625 64.515625 
Q 56.984375 54.828125 56.984375 36.375 
Q 56.984375 17.96875 50.515625 8.265625 
Q 44.046875 -1.421875 31.78125 -1.421875 
Q 19.53125 -1.421875 13.0625 8.265625 
Q 6.59375 17.96875 6.59375 36.375 
Q 6.59375 54.828125 13.0625 64.515625 
Q 19.53125 74.21875 31.78125 74.21875 
z
" id="DejaVuSans-48"/>
       </defs>
       <use xlink:href="#DejaVuSans-8722"/>
       <use x="83.789062" xlink:href="#DejaVuSans-49"/>
       <use x="147.412109" xlink:href="#DejaVuSans-53"/>
       <use x="211.035156" xlink:href="#DejaVuSans-48"/>
       <use x="274.658203" xlink:href="#DejaVuSans-48"/>
      </g>
     </g>
    </g>
    <g id="xtick_2">
     <g id="line2d_2">
      <g>
       <use style="stroke:#000000;stroke-width:0.8;" x="107.549688" xlink:href="#m2e59675998" y="288.430125"/>
      </g>
     </g>
     <g id="text_2">
      <!-- −1000 -->
      <g transform="translate(90.634844 303.028562)scale(0.1 -0.1)">
       <use xlink:href="#DejaVuSans-8722"/>
       <use x="83.789062" xlink:href="#DejaVuSans-49"/>
       <use x="147.412109" xlink:href="#DejaVuSans-48"/>
       <use x="211.035156" xlink:href="#DejaVuSans-48"/>
       <use x="274.658203" xlink:href="#DejaVuSans-48"/>
      </g>
     </g>
    </g>
    <g id="xtick_3">
     <g id="line2d_3">
      <g>
       <use style="stroke:#000000;stroke-width:0.8;" x="167.069687" xlink:href="#m2e59675998" y="288.430125"/>
      </g>
     </g>
     <g id="text_3">
      <!-- −500 -->
      <g transform="translate(153.336094 303.028562)scale(0.1 -0.1)">
       <use xlink:href="#DejaVuSans-8722"/>
       <use x="83.789062" xlink:href="#DejaVuSans-53"/>
       <use x="147.412109" xlink:href="#DejaVuSans-48"/>
       <use x="211.035156" xlink:href="#DejaVuSans-48"/>
      </g>
     </g>
    </g>
    <g id="xtick_4">
     <g id="line2d_4">
      <g>
       <use style="stroke:#000000;stroke-width:0.8;" x="226.589687" xlink:href="#m2e59675998" y="288.430125"/>
      </g>
     </g>
     <g id="text_4">
      <!-- 0 -->
      <g transform="translate(223.408437 303.028562)scale(0.1 -0.1)">
       <use xlink:href="#DejaVuSans-48"/>
      </g>
     </g>
    </g>
    <g id="xtick_5">
     <g id="line2d_5">
      <g>
       <use style="stroke:#000000;stroke-width:0.8;" x="286.109688" xlink:href="#m2e59675998" y="288.430125"/>
      </g>
     </g>
     <g id="text_5">
      <!-- 500 -->
      <g transform="translate(276.565938 303.028562)scale(0.1 -0.1)">
       <use xlink:href="#DejaVuSans-53"/>
       <use x="63.623047" xlink:href="#DejaVuSans-48"/>
       <use x="127.246094" xlink:href="#DejaVuSans-48"/>
      </g>
     </g>
    </g>
    <g id="xtick_6">
     <g id="line2d_6">
      <g>
       <use style="stroke:#000000;stroke-width:0.8;" x="345.629687" xlink:href="#m2e59675998" y="288.430125"/>
      </g>
     </g>
     <g id="text_6">
      <!-- 1000 -->
      <g transform="translate(332.904687 303.028562)scale(0.1 -0.1)">
       <use xlink:href="#DejaVuSans-49"/>
       <use x="63.623047" xlink:href="#DejaVuSans-48"/>
       <use x="127.246094" xlink:href="#DejaVuSans-48"/>
       <use x="190.869141" xlink:href="#DejaVuSans-48"/>
      </g>
     </g>
    </g>
    <g id="xtick_7">
     <g id="line2d_7">
      <g>
       <use style="stroke:#000000;stroke-width:0.8;" x="405.149688" xlink:href="#m2e59675998" y="288.430125"/>
      </g>
     </g>
     <g id="text_7">
      <!-- 1500 -->
      <g transform="translate(392.424688 303.028562)scale(0.1 -0.1)">
       <use xlink:href="#DejaVuSans-49"/>
       <use x="63.623047" xlink:href="#DejaVuSans-53"/>
       <use x="127.246094" xlink:href="#DejaVuSans-48"/>
       <use x="190.869141" xlink:href="#DejaVuSans-48"/>
      </g>
     </g>
    </g>
   </g>
   <g id="matplotlib.axis_2">
    <g id="ytick_1">
     <g id="line2d_8">
      <defs>
       <path d="M 0 0 
L -3.5 0 
" id="mb5e746fbaf" style="stroke:#000000;stroke-width:0.8;"/>
      </defs>
      <g>
       <use style="stroke:#000000;stroke-width:0.8;" x="48.029688" xlink:href="#mb5e746fbaf" y="288.430125"/>
      </g>
     </g>
     <g id="text_8">
      <!-- −1500 -->
      <g transform="translate(7.2 292.229344)scale(0.1 -0.1)">
       <use xlink:href="#DejaVuSans-8722"/>
       <use x="83.789062" xlink:href="#DejaVuSans-49"/>
       <use x="147.412109" xlink:href="#DejaVuSans-53"/>
       <use x="211.035156" xlink:href="#DejaVuSans-48"/>
       <use x="274.658203" xlink:href="#DejaVuSans-48"/>
      </g>
     </g>
    </g>
    <g id="ytick_2">
     <g id="line2d_9">
      <g>
       <use style="stroke:#000000;stroke-width:0.8;" x="48.029688" xlink:href="#mb5e746fbaf" y="244.078125"/>
      </g>
     </g>
     <g id="text_9">
      <!-- −1000 -->
      <g transform="translate(7.2 247.877344)scale(0.1 -0.1)">
       <use xlink:href="#DejaVuSans-8722"/>
       <use x="83.789062" xlink:href="#DejaVuSans-49"/>
       <use x="147.412109" xlink:href="#DejaVuSans-48"/>
       <use x="211.035156" xlink:href="#DejaVuSans-48"/>
       <use x="274.658203" xlink:href="#DejaVuSans-48"/>
      </g>
     </g>
    </g>
    <g id="ytick_3">
     <g id="line2d_10">
      <g>
       <use style="stroke:#000000;stroke-width:0.8;" x="48.029688" xlink:href="#mb5e746fbaf" y="199.726125"/>
      </g>
     </g>
     <g id="text_10">
      <!-- −500 -->
      <g transform="translate(13.5625 203.525344)scale(0.1 -0.1)">
       <use xlink:href="#DejaVuSans-8722"/>
       <use x="83.789062" xlink:href="#DejaVuSans-53"/>
       <use x="147.412109" xlink:href="#DejaVuSans-48"/>
       <use x="211.035156" xlink:href="#DejaVuSans-48"/>
      </g>
     </g>
    </g>
    <g id="ytick_4">
     <g id="line2d_11">
      <g>
       <use style="stroke:#000000;stroke-width:0.8;" x="48.029688" xlink:href="#mb5e746fbaf" y="155.374125"/>
      </g>
     </g>
     <g id="text_11">
      <!-- 0 -->
      <g transform="translate(34.667187 159.173344)scale(0.1 -0.1)">
       <use xlink:href="#DejaVuSans-48"/>
      </g>
     </g>
    </g>
    <g id="ytick_5">
     <g id="line2d_12">
      <g>
       <use style="stroke:#000000;stroke-width:0.8;" x="48.029688" xlink:href="#mb5e746fbaf" y="111.022125"/>
      </g>
     </g>
     <g id="text_12">
      <!-- 500 -->
      <g transform="translate(21.942187 114.821344)scale(0.1 -0.1)">
       <use xlink:href="#DejaVuSans-53"/>
       <use x="63.623047" xlink:href="#DejaVuSans-48"/>
       <use x="127.246094" xlink:href="#DejaVuSans-48"/>
      </g>
     </g>
    </g>
    <g id="ytick_6">
     <g id="line2d_13">
      <g>
       <use style="stroke:#000000;stroke-width:0.8;" x="48.029688" xlink:href="#mb5e746fbaf" y="66.670125"/>
      </g>
     </g>
     <g id="text_13">
      <!-- 1000 -->
      <g transform="translate(15.579687 70.469344)scale(0.1 -0.1)">
       <use xlink:href="#DejaVuSans-49"/>
       <use x="63.623047" xlink:href="#DejaVuSans-48"/>
       <use x="127.246094" xlink:href="#DejaVuSans-48"/>
       <use x="190.869141" xlink:href="#DejaVuSans-48"/>
      </g>
     </g>
    </g>
    <g id="ytick_7">
     <g id="line2d_14">
      <g>
       <use style="stroke:#000000;stroke-width:0.8;" x="48.029688" xlink:href="#mb5e746fbaf" y="22.318125"/>
      </g>
     </g>
     <g id="text_14">
      <!-- 1500 -->
      <g transform="translate(15.579687 26.117344)scale(0.1 -0.1)">
       <use xlink:href="#DejaVuSans-49"/>
       <use x="63.623047" xlink:href="#DejaVuSans-53"/>
       <use x="127.246094" xlink:href="#DejaVuSans-48"/>
       <use x="190.869141" xlink:href="#DejaVuSans-48"/>
      </g>
     </g>
    </g>
   </g>
   <g id="line2d_15">
    <path clip-path="url(#pd36ea547e4)" d="M 226.589687 155.374125 
L 226.708728 156.083757 
L 227.303927 155.728941 
L 228.613368 154.841901 
L 230.041847 155.019309 
L 231.589368 154.841901 
L 229.803767 151.737261 
L 231.827448 153.023469 
L 231.470327 148.455213 
L 233.851127 151.737261 
L 235.398647 151.205037 
L 235.398647 151.205037 
L 235.636728 151.027629 
L 235.874808 150.850221 
L 236.112887 150.672813 
L 236.112887 150.273645 
L 234.327287 151.559853 
L 234.565368 151.559853 
L 234.803448 151.559853 
L 235.041528 151.559853 
" style="fill:none;stroke:#1f77b4;stroke-linecap:square;stroke-width:1.5;"/>
   </g>
   <g id="line2d_16">
    <path clip-path="url(#pd36ea547e4)" d="M 226.589687 155.374125 
L 230.160888 153.023469 
L 234.684407 152.491245 
L 239.922168 152.092077 
L 244.624247 151.382445 
L 249.385848 152.136429 
L 254.564087 154.620141 
L 256.706807 155.196717 
L 258.135288 155.728941 
L 259.801848 157.547373 
L 262.182647 160.075437 
L 262.658807 163.313133 
L 262.896887 166.949997 
L 262.420727 169.877229 
L 261.944568 173.114925 
L 261.230327 175.288173 
L 261.230327 179.634669 
L 260.516088 183.271533 
L 258.849528 185.755245 
L 257.182968 188.327661 
" style="fill:none;stroke:#ff7f0e;stroke-linecap:square;stroke-width:1.5;"/>
   </g>
   <g id="line2d_17">
    <path clip-path="url(#pd36ea547e4)" d="M 226.589687 155.374125 
L 227.303927 155.374125 
L 228.434808 155.374125 
L 229.149047 155.551533 
L 229.863287 155.551533 
L 230.577528 155.551533 
L 231.291767 155.551533 
L 231.767927 155.551533 
L 232.244088 155.196717 
L 232.720247 154.841901 
L 232.244088 154.487085 
L 230.339448 154.487085 
L 228.434808 154.487085 
L 228.196728 154.487085 
L 228.434808 154.487085 
L 228.434808 154.487085 
L 228.672888 154.487085 
L 228.672888 154.487085 
L 228.910967 154.487085 
L 229.149047 154.841901 
" style="fill:none;stroke:#2ca02c;stroke-linecap:square;stroke-width:1.5;"/>
   </g>
   <g id="line2d_18">
    <path clip-path="url(#pd36ea547e4)" d="M 226.589687 155.374125 
L 226.589687 155.374125 
L 226.589687 155.374125 
L 226.589687 155.374125 
L 226.589687 155.374125 
L 226.589687 155.374125 
L 226.589687 155.374125 
L 226.589687 155.374125 
L 226.589687 155.374125 
L 226.589687 155.374125 
L 226.589687 155.374125 
L 226.589687 155.374125 
L 226.589687 155.374125 
L 226.589687 155.374125 
L 226.589687 155.374125 
L 226.589687 155.374125 
L 226.589687 155.374125 
L 226.589687 155.374125 
L 226.589687 155.374125 
L 226.589687 155.374125 
" style="fill:none;stroke:#d62728;stroke-linecap:square;stroke-width:1.5;"/>
   </g>
   <g id="line2d_19">
    <path clip-path="url(#pd36ea547e4)" d="M 226.589687 155.374125 
L 230.041847 155.773293 
L 233.851127 156.527277 
L 237.660407 156.882093 
L 242.183927 157.591725 
L 246.231288 157.946541 
L 249.088247 157.946541 
L 254.266487 158.656173 
L 258.075767 158.301357 
L 261.825528 158.656173 
L 265.396727 160.873773 
L 268.967927 162.293037 
L 269.920248 164.466285 
L 272.062968 164.821101 
L 273.967607 167.349165 
L 275.872248 169.921581 
L 278.253047 173.114925 
L 280.395767 176.042157 
L 280.633848 178.969389 
L 282.062327 181.807917 
" style="fill:none;stroke:#9467bd;stroke-linecap:square;stroke-width:1.5;"/>
   </g>
   <g id="line2d_20">
    <path clip-path="url(#pd36ea547e4)" d="M 226.589687 155.374125 
L 228.256248 158.123949 
L 229.208567 159.764973 
L 230.160888 161.539053 
L 229.922808 164.466285 
L 229.446647 166.595181 
L 229.208567 168.812781 
L 231.232247 174.933357 
L 230.279927 177.505773 
L 229.089528 179.989485 
L 226.946808 181.852269 
L 223.851767 182.916717 
L 221.768567 187.263213 
L 220.816248 190.545261 
L 220.221047 194.492589 
L 219.625847 198.839085 
L 220.102007 202.431597 
L 220.340088 206.778093 
L 220.578168 211.124589 
L 221.054327 215.116269 
" style="fill:none;stroke:#8c564b;stroke-linecap:square;stroke-width:1.5;"/>
   </g>
   <g id="line2d_21">
    <path clip-path="url(#pd36ea547e4)" d="M 226.589687 155.374125 
L 226.827767 154.974957 
L 227.184888 153.688749 
L 227.422967 152.801709 
L 227.422967 152.047725 
L 227.303927 151.515501 
L 227.303927 150.983277 
L 227.303927 151.338093 
L 227.303927 152.402541 
L 227.303927 153.200877 
L 227.303927 153.555693 
L 227.303927 152.757357 
L 227.303927 152.402541 
L 227.303927 152.047725 
L 227.303927 151.338093 
L 227.303927 150.983277 
L 227.303927 150.273645 
L 227.065847 149.918829 
L 227.065847 149.918829 
L 227.065847 149.918829 
" style="fill:none;stroke:#e377c2;stroke-linecap:square;stroke-width:1.5;"/>
   </g>
   <g id="line2d_22">
    <path clip-path="url(#pd36ea547e4)" d="M 226.589687 155.374125 
L 226.351608 155.728941 
L 224.566007 156.083757 
L 222.899448 156.660333 
L 220.994808 156.660333 
L 219.328248 156.660333 
L 219.566327 157.015149 
L 219.804407 157.015149 
L 220.042487 157.369965 
L 220.280567 157.369965 
L 220.518647 157.724781 
L 220.756728 158.079597 
L 220.994808 158.079597 
L 221.232888 158.434413 
L 221.470968 158.434413 
L 221.709047 158.434413 
L 220.637687 157.724781 
L 219.566327 157.015149 
L 218.375927 156.660333 
L 217.304567 155.906349 
" style="fill:none;stroke:#7f7f7f;stroke-linecap:square;stroke-width:1.5;"/>
   </g>
   <g id="line2d_23">
    <path clip-path="url(#pd36ea547e4)" d="M 226.589687 155.374125 
L 226.351608 155.374125 
L 224.923127 155.374125 
L 223.256567 155.152365 
L 222.066168 154.797549 
L 220.875767 154.797549 
L 219.923448 154.797549 
L 219.209207 154.797549 
L 218.733047 154.797549 
L 218.018808 154.797549 
L 217.542647 154.797549 
L 216.947448 154.797549 
L 216.352248 154.797549 
L 215.757047 154.797549 
L 215.042808 154.797549 
L 214.566647 154.797549 
L 213.852407 154.797549 
L 213.376248 154.797549 
L 212.662007 154.797549 
L 212.185847 154.797549 
" style="fill:none;stroke:#bcbd22;stroke-linecap:square;stroke-width:1.5;"/>
   </g>
   <g id="line2d_24">
    <path clip-path="url(#pd36ea547e4)" d="M 226.589687 155.374125 
L 226.589687 156.793389 
L 226.589687 157.857837 
L 226.589687 159.365805 
L 226.589687 160.430253 
L 226.589687 161.849517 
L 226.589687 162.913965 
L 226.827767 164.421933 
L 227.303927 165.486381 
L 227.780088 166.905645 
L 228.018168 168.014445 
L 227.542007 168.768429 
L 227.780088 170.187693 
L 228.018168 171.961773 
L 228.672888 173.469741 
L 229.387127 174.711597 
L 230.339448 174.889005 
L 231.648888 175.598637 
L 233.315448 176.308269 
L 234.982008 177.461421 
" style="fill:none;stroke:#17becf;stroke-linecap:square;stroke-width:1.5;"/>
   </g>
   <g id="line2d_25">
    <path clip-path="url(#pd36ea547e4)" d="M 226.589687 155.374125 
L 228.018168 155.728941 
L 229.446647 156.083757 
L 231.113207 156.438573 
L 232.541687 156.438573 
L 234.446327 156.793389 
L 236.112887 156.793389 
L 238.017527 156.793389 
L 239.684088 157.148205 
L 241.350648 157.148205 
L 243.255288 157.148205 
L 244.921847 157.503021 
L 246.826487 157.503021 
L 248.493047 157.503021 
L 250.159607 157.503021 
L 251.826167 157.503021 
L 253.433207 157.503021 
L 255.099767 157.503021 
L 256.766327 157.503021 
L 258.432887 157.503021 
" style="fill:none;stroke:#1f77b4;stroke-linecap:square;stroke-width:1.5;"/>
   </g>
   <g id="line2d_26">
    <path clip-path="url(#pd36ea547e4)" d="M 226.589687 155.374125 
L 227.542007 155.817645 
L 228.256248 156.172461 
L 228.256248 157.236909 
L 228.018168 158.301357 
L 228.018168 159.010989 
L 228.018168 158.656173 
L 228.018168 158.301357 
L 228.256248 158.301357 
L 228.256248 157.946541 
L 227.780088 157.591725 
L 227.065847 157.236909 
L 226.351608 156.882093 
L 225.875448 156.882093 
L 225.161207 157.236909 
L 224.685047 157.236909 
L 225.399287 156.172461 
L 226.113528 155.374125 
L 226.113528 155.374125 
L 226.113528 155.374125 
" style="fill:none;stroke:#ff7f0e;stroke-linecap:square;stroke-width:1.5;"/>
   </g>
   <g id="line2d_27">
    <path clip-path="url(#pd36ea547e4)" d="M 226.589687 155.374125 
L 226.351608 152.136429 
L 226.113528 148.499565 
L 226.113528 145.217517 
L 225.875448 141.580653 
L 225.399287 138.342957 
L 223.970808 135.460077 
L 222.542327 132.532845 
L 221.113847 130.049133 
L 219.209207 126.767085 
L 217.066487 123.485037 
L 214.447608 120.602157 
L 211.352567 118.428909 
L 207.781367 116.654829 
L 202.781688 115.191213 
L 198.079608 113.727597 
L 192.901367 113.017965 
L 187.663608 112.663149 
L 181.235447 112.308333 
L 174.331128 111.953517 
" style="fill:none;stroke:#2ca02c;stroke-linecap:square;stroke-width:1.5;"/>
   </g>
   <g id="line2d_28">
    <path clip-path="url(#pd36ea547e4)" d="M 226.589687 155.374125 
L 226.589687 157.503021 
L 226.589687 159.720621 
L 226.351608 161.494701 
L 226.113528 163.712301 
L 225.875448 165.841197 
L 223.970808 169.123245 
L 222.066168 172.405293 
L 220.637687 175.243821 
L 219.447287 177.816237 
L 218.494968 179.945133 
L 218.494968 183.227181 
L 218.494968 186.509229 
L 218.494968 189.392109 
L 218.494968 192.629805 
L 218.494968 195.557037 
L 218.494968 198.839085 
L 218.494968 201.677613 
L 218.494968 204.959661 
L 218.494968 207.886893 
" style="fill:none;stroke:#d62728;stroke-linecap:square;stroke-width:1.5;"/>
   </g>
   <g id="line2d_29">
    <path clip-path="url(#pd36ea547e4)" d="M 226.589687 155.374125 
L 225.875448 157.547373 
L 225.161207 159.720621 
L 224.446967 161.494701 
L 223.732728 163.712301 
L 223.018487 165.841197 
L 222.304248 167.703981 
L 221.590007 169.832877 
L 221.113847 172.050477 
L 220.399608 173.824557 
L 219.685367 176.042157 
L 218.971127 178.171053 
L 218.733047 181.453101 
L 218.494968 184.690797 
L 218.256888 187.928493 
L 218.018808 190.855725 
L 218.256888 194.137773 
L 218.733047 196.976301 
L 218.971127 199.903533 
L 219.447287 203.185581 
" style="fill:none;stroke:#9467bd;stroke-linecap:square;stroke-width:1.5;"/>
   </g>
   <g id="line2d_30">
    <path clip-path="url(#pd36ea547e4)" d="M 226.589687 155.374125 
L 225.280248 155.196717 
L 224.089847 154.841901 
L 222.899448 154.309677 
L 221.709047 154.132269 
L 220.637687 153.733101 
L 219.447287 153.733101 
L 218.256888 153.733101 
L 216.828407 153.333933 
L 215.697528 152.979117 
L 214.507127 152.624301 
L 213.138168 152.979117 
L 211.709688 152.979117 
L 210.519287 153.333933 
L 209.090807 153.333933 
L 207.900408 153.333933 
L 206.710007 153.333933 
L 205.519608 152.979117 
L 204.329207 152.979117 
L 202.900727 152.979117 
" style="fill:none;stroke:#8c564b;stroke-linecap:square;stroke-width:1.5;"/>
   </g>
   <g id="line2d_31">
    <path clip-path="url(#pd36ea547e4)" d="M 226.589687 155.374125 
L 225.637368 155.374125 
L 224.685047 154.974957 
L 223.970808 154.620141 
L 223.018487 154.220973 
L 222.066168 153.511341 
L 220.875767 153.156525 
L 219.982968 153.156525 
L 218.792567 153.511341 
L 217.661687 153.866157 
L 216.471287 153.866157 
L 215.161847 153.866157 
L 213.971448 153.866157 
L 212.900087 153.688749 
L 211.590647 153.688749 
L 210.638328 153.866157 
L 209.447927 153.866157 
L 208.257528 154.220973 
L 207.305207 154.220973 
L 206.114807 154.220973 
" style="fill:none;stroke:#e377c2;stroke-linecap:square;stroke-width:1.5;"/>
   </g>
   <g id="line2d_32">
    <path clip-path="url(#pd36ea547e4)" d="M 226.589687 155.374125 
L 225.637368 155.374125 
L 224.685047 155.019309 
L 224.030327 154.664493 
L 223.078007 154.309677 
L 221.470968 154.664493 
L 219.566327 155.728941 
L 217.899767 156.083757 
L 217.185528 155.728941 
L 216.233207 155.374125 
L 215.518968 154.664493 
L 214.090487 155.019309 
L 212.900087 155.374125 
L 211.709688 155.728941 
L 210.519287 156.083757 
L 209.566968 155.728941 
L 208.376567 155.374125 
L 207.424248 154.664493 
L 206.471927 153.954861 
L 205.281528 153.600045 
" style="fill:none;stroke:#7f7f7f;stroke-linecap:square;stroke-width:1.5;"/>
   </g>
   <g id="line2d_33">
    <path clip-path="url(#pd36ea547e4)" d="M 226.589687 155.374125 
L 228.494327 155.019309 
L 230.637047 154.664493 
L 232.779767 153.910509 
L 234.684407 153.555693 
L 236.827127 153.200877 
L 238.969847 152.491245 
L 240.874487 152.136429 
L 242.541047 151.382445 
L 244.207607 150.672813 
L 245.636088 150.317997 
L 247.302648 149.608365 
L 248.969207 148.854381 
L 250.635767 148.499565 
L 252.064247 148.144749 
L 253.433207 147.435117 
L 254.861687 147.035949 
L 256.528248 147.035949 
L 258.194808 147.435117 
L 259.801848 148.144749 
" style="fill:none;stroke:#bcbd22;stroke-linecap:square;stroke-width:1.5;"/>
   </g>
   <g id="line2d_34">
    <path clip-path="url(#pd36ea547e4)" d="M 226.589687 155.374125 
L 224.923127 155.019309 
L 223.494647 154.664493 
L 221.828088 153.910509 
L 220.161528 153.156525 
L 218.494968 152.092077 
L 216.590328 151.382445 
L 214.685688 150.317997 
L 212.781047 150.317997 
L 210.638328 150.317997 
L 208.555127 150.317997 
L 206.650487 149.608365 
L 205.043448 149.164845 
L 203.138807 148.810029 
L 201.234168 148.455213 
L 199.567608 148.100397 
L 197.901048 147.745581 
L 195.758328 147.745581 
L 193.853688 147.745581 
L 191.949048 147.745581 
" style="fill:none;stroke:#17becf;stroke-linecap:square;stroke-width:1.5;"/>
   </g>
   <g id="line2d_35">
    <path clip-path="url(#pd36ea547e4)" d="M 226.589687 155.374125 
L 226.589687 155.728941 
L 226.827767 155.728941 
L 227.065847 156.083757 
L 227.303927 156.083757 
L 227.542007 156.083757 
L 227.780088 156.438573 
L 228.018168 156.438573 
L 228.256248 156.438573 
L 228.494327 156.793389 
L 228.732407 156.793389 
L 228.732407 157.148205 
L 228.970487 157.148205 
L 229.208567 157.148205 
L 229.446647 157.503021 
L 229.684728 157.503021 
L 229.922808 157.503021 
L 230.160888 157.857837 
L 230.398967 157.857837 
L 230.637047 158.257005 
" style="fill:none;stroke:#1f77b4;stroke-linecap:square;stroke-width:1.5;"/>
   </g>
   <g id="patch_3">
    <path d="M 48.029688 288.430125 
L 48.029688 22.318125 
" style="fill:none;stroke:#000000;stroke-linecap:square;stroke-linejoin:miter;stroke-width:0.8;"/>
   </g>
   <g id="patch_4">
    <path d="M 405.149688 288.430125 
L 405.149688 22.318125 
" style="fill:none;stroke:#000000;stroke-linecap:square;stroke-linejoin:miter;stroke-width:0.8;"/>
   </g>
   <g id="patch_5">
    <path d="M 48.029687 288.430125 
L 405.149688 288.430125 
" style="fill:none;stroke:#000000;stroke-linecap:square;stroke-linejoin:miter;stroke-width:0.8;"/>
   </g>
   <g id="patch_6">
    <path d="M 48.029687 22.318125 
L 405.149688 22.318125 
" style="fill:none;stroke:#000000;stroke-linecap:square;stroke-linejoin:miter;stroke-width:0.8;"/>
   </g>
   <g id="text_15">
    <!-- deathCircle_2 -->
    <g transform="translate(185.59375 16.318125)scale(0.12 -0.12)">
     <defs>
      <path d="M 45.40625 46.390625 
L 45.40625 75.984375 
L 54.390625 75.984375 
L 54.390625 0 
L 45.40625 0 
L 45.40625 8.203125 
Q 42.578125 3.328125 38.25 0.953125 
Q 33.9375 -1.421875 27.875 -1.421875 
Q 17.96875 -1.421875 11.734375 6.484375 
Q 5.515625 14.40625 5.515625 27.296875 
Q 5.515625 40.1875 11.734375 48.09375 
Q 17.96875 56 27.875 56 
Q 33.9375 56 38.25 53.625 
Q 42.578125 51.265625 45.40625 46.390625 
z
M 14.796875 27.296875 
Q 14.796875 17.390625 18.875 11.75 
Q 22.953125 6.109375 30.078125 6.109375 
Q 37.203125 6.109375 41.296875 11.75 
Q 45.40625 17.390625 45.40625 27.296875 
Q 45.40625 37.203125 41.296875 42.84375 
Q 37.203125 48.484375 30.078125 48.484375 
Q 22.953125 48.484375 18.875 42.84375 
Q 14.796875 37.203125 14.796875 27.296875 
z
" id="DejaVuSans-100"/>
      <path d="M 56.203125 29.59375 
L 56.203125 25.203125 
L 14.890625 25.203125 
Q 15.484375 15.921875 20.484375 11.0625 
Q 25.484375 6.203125 34.421875 6.203125 
Q 39.59375 6.203125 44.453125 7.46875 
Q 49.3125 8.734375 54.109375 11.28125 
L 54.109375 2.78125 
Q 49.265625 0.734375 44.1875 -0.34375 
Q 39.109375 -1.421875 33.890625 -1.421875 
Q 20.796875 -1.421875 13.15625 6.1875 
Q 5.515625 13.8125 5.515625 26.8125 
Q 5.515625 40.234375 12.765625 48.109375 
Q 20.015625 56 32.328125 56 
Q 43.359375 56 49.78125 48.890625 
Q 56.203125 41.796875 56.203125 29.59375 
z
M 47.21875 32.234375 
Q 47.125 39.59375 43.09375 43.984375 
Q 39.0625 48.390625 32.421875 48.390625 
Q 24.90625 48.390625 20.390625 44.140625 
Q 15.875 39.890625 15.1875 32.171875 
z
" id="DejaVuSans-101"/>
      <path d="M 34.28125 27.484375 
Q 23.390625 27.484375 19.1875 25 
Q 14.984375 22.515625 14.984375 16.5 
Q 14.984375 11.71875 18.140625 8.90625 
Q 21.296875 6.109375 26.703125 6.109375 
Q 34.1875 6.109375 38.703125 11.40625 
Q 43.21875 16.703125 43.21875 25.484375 
L 43.21875 27.484375 
z
M 52.203125 31.203125 
L 52.203125 0 
L 43.21875 0 
L 43.21875 8.296875 
Q 40.140625 3.328125 35.546875 0.953125 
Q 30.953125 -1.421875 24.3125 -1.421875 
Q 15.921875 -1.421875 10.953125 3.296875 
Q 6 8.015625 6 15.921875 
Q 6 25.140625 12.171875 29.828125 
Q 18.359375 34.515625 30.609375 34.515625 
L 43.21875 34.515625 
L 43.21875 35.40625 
Q 43.21875 41.609375 39.140625 45 
Q 35.0625 48.390625 27.6875 48.390625 
Q 23 48.390625 18.546875 47.265625 
Q 14.109375 46.140625 10.015625 43.890625 
L 10.015625 52.203125 
Q 14.9375 54.109375 19.578125 55.046875 
Q 24.21875 56 28.609375 56 
Q 40.484375 56 46.34375 49.84375 
Q 52.203125 43.703125 52.203125 31.203125 
z
" id="DejaVuSans-97"/>
      <path d="M 18.3125 70.21875 
L 18.3125 54.6875 
L 36.8125 54.6875 
L 36.8125 47.703125 
L 18.3125 47.703125 
L 18.3125 18.015625 
Q 18.3125 11.328125 20.140625 9.421875 
Q 21.96875 7.515625 27.59375 7.515625 
L 36.8125 7.515625 
L 36.8125 0 
L 27.59375 0 
Q 17.1875 0 13.234375 3.875 
Q 9.28125 7.765625 9.28125 18.015625 
L 9.28125 47.703125 
L 2.6875 47.703125 
L 2.6875 54.6875 
L 9.28125 54.6875 
L 9.28125 70.21875 
z
" id="DejaVuSans-116"/>
      <path d="M 54.890625 33.015625 
L 54.890625 0 
L 45.90625 0 
L 45.90625 32.71875 
Q 45.90625 40.484375 42.875 44.328125 
Q 39.84375 48.1875 33.796875 48.1875 
Q 26.515625 48.1875 22.3125 43.546875 
Q 18.109375 38.921875 18.109375 30.90625 
L 18.109375 0 
L 9.078125 0 
L 9.078125 75.984375 
L 18.109375 75.984375 
L 18.109375 46.1875 
Q 21.34375 51.125 25.703125 53.5625 
Q 30.078125 56 35.796875 56 
Q 45.21875 56 50.046875 50.171875 
Q 54.890625 44.34375 54.890625 33.015625 
z
" id="DejaVuSans-104"/>
      <path d="M 64.40625 67.28125 
L 64.40625 56.890625 
Q 59.421875 61.53125 53.78125 63.8125 
Q 48.140625 66.109375 41.796875 66.109375 
Q 29.296875 66.109375 22.65625 58.46875 
Q 16.015625 50.828125 16.015625 36.375 
Q 16.015625 21.96875 22.65625 14.328125 
Q 29.296875 6.6875 41.796875 6.6875 
Q 48.140625 6.6875 53.78125 8.984375 
Q 59.421875 11.28125 64.40625 15.921875 
L 64.40625 5.609375 
Q 59.234375 2.09375 53.4375 0.328125 
Q 47.65625 -1.421875 41.21875 -1.421875 
Q 24.65625 -1.421875 15.125 8.703125 
Q 5.609375 18.84375 5.609375 36.375 
Q 5.609375 53.953125 15.125 64.078125 
Q 24.65625 74.21875 41.21875 74.21875 
Q 47.75 74.21875 53.53125 72.484375 
Q 59.328125 70.75 64.40625 67.28125 
z
" id="DejaVuSans-67"/>
      <path d="M 9.421875 54.6875 
L 18.40625 54.6875 
L 18.40625 0 
L 9.421875 0 
z
M 9.421875 75.984375 
L 18.40625 75.984375 
L 18.40625 64.59375 
L 9.421875 64.59375 
z
" id="DejaVuSans-105"/>
      <path d="M 41.109375 46.296875 
Q 39.59375 47.171875 37.8125 47.578125 
Q 36.03125 48 33.890625 48 
Q 26.265625 48 22.1875 43.046875 
Q 18.109375 38.09375 18.109375 28.8125 
L 18.109375 0 
L 9.078125 0 
L 9.078125 54.6875 
L 18.109375 54.6875 
L 18.109375 46.1875 
Q 20.953125 51.171875 25.484375 53.578125 
Q 30.03125 56 36.53125 56 
Q 37.453125 56 38.578125 55.875 
Q 39.703125 55.765625 41.0625 55.515625 
z
" id="DejaVuSans-114"/>
      <path d="M 48.78125 52.59375 
L 48.78125 44.1875 
Q 44.96875 46.296875 41.140625 47.34375 
Q 37.3125 48.390625 33.40625 48.390625 
Q 24.65625 48.390625 19.8125 42.84375 
Q 14.984375 37.3125 14.984375 27.296875 
Q 14.984375 17.28125 19.8125 11.734375 
Q 24.65625 6.203125 33.40625 6.203125 
Q 37.3125 6.203125 41.140625 7.25 
Q 44.96875 8.296875 48.78125 10.40625 
L 48.78125 2.09375 
Q 45.015625 0.34375 40.984375 -0.53125 
Q 36.96875 -1.421875 32.421875 -1.421875 
Q 20.0625 -1.421875 12.78125 6.34375 
Q 5.515625 14.109375 5.515625 27.296875 
Q 5.515625 40.671875 12.859375 48.328125 
Q 20.21875 56 33.015625 56 
Q 37.15625 56 41.109375 55.140625 
Q 45.0625 54.296875 48.78125 52.59375 
z
" id="DejaVuSans-99"/>
      <path d="M 9.421875 75.984375 
L 18.40625 75.984375 
L 18.40625 0 
L 9.421875 0 
z
" id="DejaVuSans-108"/>
      <path d="M 50.984375 -16.609375 
L 50.984375 -23.578125 
L -0.984375 -23.578125 
L -0.984375 -16.609375 
z
" id="DejaVuSans-95"/>
      <path d="M 19.1875 8.296875 
L 53.609375 8.296875 
L 53.609375 0 
L 7.328125 0 
L 7.328125 8.296875 
Q 12.9375 14.109375 22.625 23.890625 
Q 32.328125 33.6875 34.8125 36.53125 
Q 39.546875 41.84375 41.421875 45.53125 
Q 43.3125 49.21875 43.3125 52.78125 
Q 43.3125 58.59375 39.234375 62.25 
Q 35.15625 65.921875 28.609375 65.921875 
Q 23.96875 65.921875 18.8125 64.3125 
Q 13.671875 62.703125 7.8125 59.421875 
L 7.8125 69.390625 
Q 13.765625 71.78125 18.9375 73 
Q 24.125 74.21875 28.421875 74.21875 
Q 39.75 74.21875 46.484375 68.546875 
Q 53.21875 62.890625 53.21875 53.421875 
Q 53.21875 48.921875 51.53125 44.890625 
Q 49.859375 40.875 45.40625 35.40625 
Q 44.1875 33.984375 37.640625 27.21875 
Q 31.109375 20.453125 19.1875 8.296875 
z
" id="DejaVuSans-50"/>
     </defs>
     <use xlink:href="#DejaVuSans-100"/>
     <use x="63.476562" xlink:href="#DejaVuSans-101"/>
     <use x="125" xlink:href="#DejaVuSans-97"/>
     <use x="186.279297" xlink:href="#DejaVuSans-116"/>
     <use x="225.488281" xlink:href="#DejaVuSans-104"/>
     <use x="288.867188" xlink:href="#DejaVuSans-67"/>
     <use x="358.691406" xlink:href="#DejaVuSans-105"/>
     <use x="386.474609" xlink:href="#DejaVuSans-114"/>
     <use x="425.337891" xlink:href="#DejaVuSans-99"/>
     <use x="480.318359" xlink:href="#DejaVuSans-108"/>
     <use x="508.101562" xlink:href="#DejaVuSans-101"/>
     <use x="569.625" xlink:href="#DejaVuSans-95"/>
     <use x="619.625" xlink:href="#DejaVuSans-50"/>
    </g>
   </g>
  </g>
 </g>
 <defs>
  <clipPath id="pd36ea547e4">
   <rect height="266.112" width="357.12" x="48.029688" y="22.318125"/>
  </clipPath>
 </defs>
</svg>
