<?xml version="1.0" encoding="utf-8" standalone="no"?>
<!DOCTYPE svg PUBLIC "-//W3C//DTD SVG 1.1//EN"
  "http://www.w3.org/Graphics/SVG/1.1/DTD/svg11.dtd">
<!-- Created with matplotlib (https://matplotlib.org/) -->
<svg height="311.9745pt" version="1.1" viewBox="0 0 425.074687 311.9745" width="425.074687pt" xmlns="http://www.w3.org/2000/svg" xmlns:xlink="http://www.w3.org/1999/xlink">
 <metadata>
  <rdf:RDF xmlns:cc="http://creativecommons.org/ns#" xmlns:dc="http://purl.org/dc/elements/1.1/" xmlns:rdf="http://www.w3.org/1999/02/22-rdf-syntax-ns#">
   <cc:Work>
    <dc:type rdf:resource="http://purl.org/dc/dcmitype/StillImage"/>
    <dc:date>2023-10-16T01:55:29.631878</dc:date>
    <dc:format>image/svg+xml</dc:format>
    <dc:creator>
     <cc:Agent>
      <dc:title>Matplotlib v3.3.4, https://matplotlib.org/</dc:title>
     </cc:Agent>
    </dc:creator>
   </cc:Work>
  </rdf:RDF>
 </metadata>
 <defs>
  <style type="text/css">*{stroke-linecap:butt;stroke-linejoin:round;}</style>
 </defs>
 <g id="figure_1">
  <g id="patch_1">
   <path d="M 0 311.9745 
L 425.074687 311.9745 
L 425.074687 0 
L 0 0 
z
" style="fill:#ffffff;"/>
  </g>
  <g id="axes_1">
   <g id="patch_2">
    <path d="M 48.029688 288.096375 
L 405.149688 288.096375 
L 405.149688 21.984375 
L 48.029688 21.984375 
z
" style="fill:#ffffff;"/>
   </g>
   <g id="matplotlib.axis_1">
    <g id="xtick_1">
     <g id="line2d_1">
      <defs>
       <path d="M 0 0 
L 0 3.5 
" id="m644d03f71d" style="stroke:#000000;stroke-width:0.8;"/>
      </defs>
      <g>
       <use style="stroke:#000000;stroke-width:0.8;" x="48.029687" xlink:href="#m644d03f71d" y="288.096375"/>
      </g>
     </g>
     <g id="text_1">
      <!-- −1500 -->
      <g transform="translate(31.114844 302.694812)scale(0.1 -0.1)">
       <defs>
        <path d="M 10.59375 35.5 
L 73.1875 35.5 
L 73.1875 27.203125 
L 10.59375 27.203125 
z
" id="DejaVuSans-8722"/>
        <path d="M 12.40625 8.296875 
L 28.515625 8.296875 
L 28.515625 63.921875 
L 10.984375 60.40625 
L 10.984375 69.390625 
L 28.421875 72.90625 
L 38.28125 72.90625 
L 38.28125 8.296875 
L 54.390625 8.296875 
L 54.390625 0 
L 12.40625 0 
z
" id="DejaVuSans-49"/>
        <path d="M 10.796875 72.90625 
L 49.515625 72.90625 
L 49.515625 64.59375 
L 19.828125 64.59375 
L 19.828125 46.734375 
Q 21.96875 47.46875 24.109375 47.828125 
Q 26.265625 48.1875 28.421875 48.1875 
Q 40.625 48.1875 47.75 41.5 
Q 54.890625 34.8125 54.890625 23.390625 
Q 54.890625 11.625 47.5625 5.09375 
Q 40.234375 -1.421875 26.90625 -1.421875 
Q 22.3125 -1.421875 17.546875 -0.640625 
Q 12.796875 0.140625 7.71875 1.703125 
L 7.71875 11.625 
Q 12.109375 9.234375 16.796875 8.0625 
Q 21.484375 6.890625 26.703125 6.890625 
Q 35.15625 6.890625 40.078125 11.328125 
Q 45.015625 15.765625 45.015625 23.390625 
Q 45.015625 31 40.078125 35.4375 
Q 35.15625 39.890625 26.703125 39.890625 
Q 22.75 39.890625 18.8125 39.015625 
Q 14.890625 38.140625 10.796875 36.28125 
z
" id="DejaVuSans-53"/>
        <path d="M 31.78125 66.40625 
Q 24.171875 66.40625 20.328125 58.90625 
Q 16.5 51.421875 16.5 36.375 
Q 16.5 21.390625 20.328125 13.890625 
Q 24.171875 6.390625 31.78125 6.390625 
Q 39.453125 6.390625 43.28125 13.890625 
Q 47.125 21.390625 47.125 36.375 
Q 47.125 51.421875 43.28125 58.90625 
Q 39.453125 66.40625 31.78125 66.40625 
z
M 31.78125 74.21875 
Q 44.046875 74.21875 50.515625 64.515625 
Q 56.984375 54.828125 56.984375 36.375 
Q 56.984375 17.96875 50.515625 8.265625 
Q 44.046875 -1.421875 31.78125 -1.421875 
Q 19.53125 -1.421875 13.0625 8.265625 
Q 6.59375 17.96875 6.59375 36.375 
Q 6.59375 54.828125 13.0625 64.515625 
Q 19.53125 74.21875 31.78125 74.21875 
z
" id="DejaVuSans-48"/>
       </defs>
       <use xlink:href="#DejaVuSans-8722"/>
       <use x="83.789062" xlink:href="#DejaVuSans-49"/>
       <use x="147.412109" xlink:href="#DejaVuSans-53"/>
       <use x="211.035156" xlink:href="#DejaVuSans-48"/>
       <use x="274.658203" xlink:href="#DejaVuSans-48"/>
      </g>
     </g>
    </g>
    <g id="xtick_2">
     <g id="line2d_2">
      <g>
       <use style="stroke:#000000;stroke-width:0.8;" x="107.549688" xlink:href="#m644d03f71d" y="288.096375"/>
      </g>
     </g>
     <g id="text_2">
      <!-- −1000 -->
      <g transform="translate(90.634844 302.694812)scale(0.1 -0.1)">
       <use xlink:href="#DejaVuSans-8722"/>
       <use x="83.789062" xlink:href="#DejaVuSans-49"/>
       <use x="147.412109" xlink:href="#DejaVuSans-48"/>
       <use x="211.035156" xlink:href="#DejaVuSans-48"/>
       <use x="274.658203" xlink:href="#DejaVuSans-48"/>
      </g>
     </g>
    </g>
    <g id="xtick_3">
     <g id="line2d_3">
      <g>
       <use style="stroke:#000000;stroke-width:0.8;" x="167.069687" xlink:href="#m644d03f71d" y="288.096375"/>
      </g>
     </g>
     <g id="text_3">
      <!-- −500 -->
      <g transform="translate(153.336094 302.694812)scale(0.1 -0.1)">
       <use xlink:href="#DejaVuSans-8722"/>
       <use x="83.789062" xlink:href="#DejaVuSans-53"/>
       <use x="147.412109" xlink:href="#DejaVuSans-48"/>
       <use x="211.035156" xlink:href="#DejaVuSans-48"/>
      </g>
     </g>
    </g>
    <g id="xtick_4">
     <g id="line2d_4">
      <g>
       <use style="stroke:#000000;stroke-width:0.8;" x="226.589687" xlink:href="#m644d03f71d" y="288.096375"/>
      </g>
     </g>
     <g id="text_4">
      <!-- 0 -->
      <g transform="translate(223.408437 302.694812)scale(0.1 -0.1)">
       <use xlink:href="#DejaVuSans-48"/>
      </g>
     </g>
    </g>
    <g id="xtick_5">
     <g id="line2d_5">
      <g>
       <use style="stroke:#000000;stroke-width:0.8;" x="286.109688" xlink:href="#m644d03f71d" y="288.096375"/>
      </g>
     </g>
     <g id="text_5">
      <!-- 500 -->
      <g transform="translate(276.565938 302.694812)scale(0.1 -0.1)">
       <use xlink:href="#DejaVuSans-53"/>
       <use x="63.623047" xlink:href="#DejaVuSans-48"/>
       <use x="127.246094" xlink:href="#DejaVuSans-48"/>
      </g>
     </g>
    </g>
    <g id="xtick_6">
     <g id="line2d_6">
      <g>
       <use style="stroke:#000000;stroke-width:0.8;" x="345.629687" xlink:href="#m644d03f71d" y="288.096375"/>
      </g>
     </g>
     <g id="text_6">
      <!-- 1000 -->
      <g transform="translate(332.904687 302.694812)scale(0.1 -0.1)">
       <use xlink:href="#DejaVuSans-49"/>
       <use x="63.623047" xlink:href="#DejaVuSans-48"/>
       <use x="127.246094" xlink:href="#DejaVuSans-48"/>
       <use x="190.869141" xlink:href="#DejaVuSans-48"/>
      </g>
     </g>
    </g>
    <g id="xtick_7">
     <g id="line2d_7">
      <g>
       <use style="stroke:#000000;stroke-width:0.8;" x="405.149688" xlink:href="#m644d03f71d" y="288.096375"/>
      </g>
     </g>
     <g id="text_7">
      <!-- 1500 -->
      <g transform="translate(392.424688 302.694812)scale(0.1 -0.1)">
       <use xlink:href="#DejaVuSans-49"/>
       <use x="63.623047" xlink:href="#DejaVuSans-53"/>
       <use x="127.246094" xlink:href="#DejaVuSans-48"/>
       <use x="190.869141" xlink:href="#DejaVuSans-48"/>
      </g>
     </g>
    </g>
   </g>
   <g id="matplotlib.axis_2">
    <g id="ytick_1">
     <g id="line2d_8">
      <defs>
       <path d="M 0 0 
L -3.5 0 
" id="m6dce7a6ae0" style="stroke:#000000;stroke-width:0.8;"/>
      </defs>
      <g>
       <use style="stroke:#000000;stroke-width:0.8;" x="48.029688" xlink:href="#m6dce7a6ae0" y="288.096375"/>
      </g>
     </g>
     <g id="text_8">
      <!-- −1500 -->
      <g transform="translate(7.2 291.895594)scale(0.1 -0.1)">
       <use xlink:href="#DejaVuSans-8722"/>
       <use x="83.789062" xlink:href="#DejaVuSans-49"/>
       <use x="147.412109" xlink:href="#DejaVuSans-53"/>
       <use x="211.035156" xlink:href="#DejaVuSans-48"/>
       <use x="274.658203" xlink:href="#DejaVuSans-48"/>
      </g>
     </g>
    </g>
    <g id="ytick_2">
     <g id="line2d_9">
      <g>
       <use style="stroke:#000000;stroke-width:0.8;" x="48.029688" xlink:href="#m6dce7a6ae0" y="243.744375"/>
      </g>
     </g>
     <g id="text_9">
      <!-- −1000 -->
      <g transform="translate(7.2 247.543594)scale(0.1 -0.1)">
       <use xlink:href="#DejaVuSans-8722"/>
       <use x="83.789062" xlink:href="#DejaVuSans-49"/>
       <use x="147.412109" xlink:href="#DejaVuSans-48"/>
       <use x="211.035156" xlink:href="#DejaVuSans-48"/>
       <use x="274.658203" xlink:href="#DejaVuSans-48"/>
      </g>
     </g>
    </g>
    <g id="ytick_3">
     <g id="line2d_10">
      <g>
       <use style="stroke:#000000;stroke-width:0.8;" x="48.029688" xlink:href="#m6dce7a6ae0" y="199.392375"/>
      </g>
     </g>
     <g id="text_10">
      <!-- −500 -->
      <g transform="translate(13.5625 203.191594)scale(0.1 -0.1)">
       <use xlink:href="#DejaVuSans-8722"/>
       <use x="83.789062" xlink:href="#DejaVuSans-53"/>
       <use x="147.412109" xlink:href="#DejaVuSans-48"/>
       <use x="211.035156" xlink:href="#DejaVuSans-48"/>
      </g>
     </g>
    </g>
    <g id="ytick_4">
     <g id="line2d_11">
      <g>
       <use style="stroke:#000000;stroke-width:0.8;" x="48.029688" xlink:href="#m6dce7a6ae0" y="155.040375"/>
      </g>
     </g>
     <g id="text_11">
      <!-- 0 -->
      <g transform="translate(34.667187 158.839594)scale(0.1 -0.1)">
       <use xlink:href="#DejaVuSans-48"/>
      </g>
     </g>
    </g>
    <g id="ytick_5">
     <g id="line2d_12">
      <g>
       <use style="stroke:#000000;stroke-width:0.8;" x="48.029688" xlink:href="#m6dce7a6ae0" y="110.688375"/>
      </g>
     </g>
     <g id="text_12">
      <!-- 500 -->
      <g transform="translate(21.942187 114.487594)scale(0.1 -0.1)">
       <use xlink:href="#DejaVuSans-53"/>
       <use x="63.623047" xlink:href="#DejaVuSans-48"/>
       <use x="127.246094" xlink:href="#DejaVuSans-48"/>
      </g>
     </g>
    </g>
    <g id="ytick_6">
     <g id="line2d_13">
      <g>
       <use style="stroke:#000000;stroke-width:0.8;" x="48.029688" xlink:href="#m6dce7a6ae0" y="66.336375"/>
      </g>
     </g>
     <g id="text_13">
      <!-- 1000 -->
      <g transform="translate(15.579687 70.135594)scale(0.1 -0.1)">
       <use xlink:href="#DejaVuSans-49"/>
       <use x="63.623047" xlink:href="#DejaVuSans-48"/>
       <use x="127.246094" xlink:href="#DejaVuSans-48"/>
       <use x="190.869141" xlink:href="#DejaVuSans-48"/>
      </g>
     </g>
    </g>
    <g id="ytick_7">
     <g id="line2d_14">
      <g>
       <use style="stroke:#000000;stroke-width:0.8;" x="48.029688" xlink:href="#m6dce7a6ae0" y="21.984375"/>
      </g>
     </g>
     <g id="text_14">
      <!-- 1500 -->
      <g transform="translate(15.579687 25.783594)scale(0.1 -0.1)">
       <use xlink:href="#DejaVuSans-49"/>
       <use x="63.623047" xlink:href="#DejaVuSans-53"/>
       <use x="127.246094" xlink:href="#DejaVuSans-48"/>
       <use x="190.869141" xlink:href="#DejaVuSans-48"/>
      </g>
     </g>
    </g>
   </g>
   <g id="line2d_15">
    <path clip-path="url(#p9dfe15e5c3)" d="M 226.589687 155.040375 
L 235.160567 155.040375 
L 243.790967 155.040375 
L 252.421368 155.040375 
L 260.992248 155.040375 
L 269.622647 155.084727 
L 278.431607 155.084727 
L 287.478647 154.685559 
L 296.763767 154.330743 
L 304.263287 155.794359 
L 311.762808 156.858807 
L 319.619447 157.657143 
L 327.833207 158.189367 
L 335.570808 157.080567 
L 340.332407 157.435383 
L 344.617847 158.544183 
L 349.855608 157.834551 
L 354.736247 157.080567 
L 358.426488 158.189367 
L 361.997687 157.080567 
" style="fill:none;stroke:#1f77b4;stroke-linecap:square;stroke-width:1.5;"/>
   </g>
   <g id="line2d_16">
    <path clip-path="url(#p9dfe15e5c3)" d="M 226.589687 155.040375 
L 222.423287 155.040375 
L 218.018808 155.040375 
L 213.376248 154.641207 
L 207.840888 153.000183 
L 203.376888 153.000183 
L 198.793847 153.399351 
L 193.972727 153.754167 
L 188.854007 153.754167 
L 184.449527 153.754167 
L 180.521208 153.399351 
L 176.295288 153.399351 
L 171.890807 153.399351 
L 167.248247 153.399351 
L 162.665208 153.754167 
L 158.260728 153.754167 
L 153.975288 153.754167 
L 149.808887 153.399351 
L 145.642488 153.399351 
L 141.892728 153.000183 
" style="fill:none;stroke:#ff7f0e;stroke-linecap:square;stroke-width:1.5;"/>
   </g>
   <g id="line2d_17">
    <path clip-path="url(#p9dfe15e5c3)" d="M 226.589687 155.040375 
L 222.899448 155.217783 
L 218.971127 155.217783 
L 214.983287 155.040375 
L 210.757367 154.641207 
L 206.829048 154.286391 
L 202.841207 153.931575 
L 198.853367 153.532407 
L 194.686968 153.177591 
L 190.282488 153.177591 
L 185.878007 153.177591 
L 181.652087 153.177591 
L 177.247608 153.177591 
L 172.843128 152.467959 
L 168.438648 151.713975 
L 164.034167 150.605175 
L 159.808247 150.250359 
L 155.879928 149.540727 
L 151.892088 149.141559 
L 147.666168 148.786743 
" style="fill:none;stroke:#2ca02c;stroke-linecap:square;stroke-width:1.5;"/>
   </g>
   <g id="line2d_18">
    <path clip-path="url(#p9dfe15e5c3)" d="M 226.589687 155.040375 
L 227.422967 156.149175 
L 231.113207 156.149175 
L 235.160567 156.326583 
L 239.565047 155.971767 
L 244.148088 154.108983 
L 248.790648 153.754167 
L 253.671288 154.463799 
L 258.670968 154.641207 
L 263.849207 154.818615 
L 269.206007 155.217783 
L 274.324727 155.040375 
L 279.145848 155.040375 
L 284.205047 155.040375 
L 289.085688 155.040375 
L 293.728248 155.040375 
L 298.370808 155.040375 
L 303.013367 155.040375 
L 307.596407 155.395191 
L 312.060407 155.750007 
" style="fill:none;stroke:#d62728;stroke-linecap:square;stroke-width:1.5;"/>
   </g>
   <g id="line2d_19">
    <path clip-path="url(#p9dfe15e5c3)" d="M 226.589687 155.040375 
L 223.316088 155.572599 
L 219.982968 155.927415 
L 216.709367 156.681399 
L 213.376248 157.790199 
L 209.864567 158.854647 
L 206.531448 159.608631 
L 203.019768 159.608631 
L 199.686647 159.608631 
L 196.591608 160.007799 
L 193.972727 160.362615 
L 191.294328 161.072247 
L 188.437367 161.427063 
L 185.818488 161.781879 
L 182.902007 162.136695 
L 180.283128 162.136695 
L 176.295288 162.136695 
L 172.366967 162.136695 
L 168.795768 161.781879 
L 165.760247 161.781879 
" style="fill:none;stroke:#9467bd;stroke-linecap:square;stroke-width:1.5;"/>
   </g>
   <g id="line2d_20">
    <path clip-path="url(#p9dfe15e5c3)" d="M 226.589687 155.040375 
L 223.256567 155.040375 
L 219.923448 155.040375 
L 216.649847 155.395191 
L 213.316727 155.750007 
L 210.281207 155.750007 
L 206.948087 155.750007 
L 203.853048 155.395191 
L 200.519927 155.040375 
L 197.424888 154.685559 
L 194.389367 154.330743 
L 191.294328 153.975927 
L 188.199287 153.621111 
L 185.342328 153.621111 
L 182.425848 153.621111 
L 179.568888 153.221943 
L 176.295288 152.822775 
L 173.200247 152.113143 
L 170.105208 151.758327 
L 167.248247 151.048695 
" style="fill:none;stroke:#8c564b;stroke-linecap:square;stroke-width:1.5;"/>
   </g>
   <g id="line2d_21">
    <path clip-path="url(#p9dfe15e5c3)" d="M 226.589687 155.040375 
L 226.589687 155.395191 
L 226.589687 155.750007 
L 226.589687 156.104823 
L 226.589687 156.503991 
L 226.589687 156.858807 
L 226.589687 157.257975 
L 226.589687 157.612791 
L 226.827767 158.677239 
L 225.934967 159.608631 
L 225.280248 161.781879 
L 224.625528 163.289847 
L 223.911287 163.999479 
L 223.732728 165.108279 
L 223.494647 166.571895 
L 223.256567 168.390327 
L 223.256567 169.853943 
L 223.256567 171.317559 
L 222.839927 172.071543 
L 221.947127 172.781175 
" style="fill:none;stroke:#e377c2;stroke-linecap:square;stroke-width:1.5;"/>
   </g>
   <g id="line2d_22">
    <path clip-path="url(#p9dfe15e5c3)" d="M 226.589687 155.040375 
L 227.422967 155.838711 
L 228.137207 156.193527 
L 228.970487 156.548343 
L 230.696567 157.257975 
L 232.660728 157.612791 
L 234.922487 157.967607 
L 236.827127 158.765943 
L 238.374648 159.475575 
L 239.922168 160.185207 
L 241.707767 160.540023 
L 243.493368 160.894839 
L 245.040887 161.515767 
L 246.826487 162.047991 
L 248.552568 162.580215 
L 250.100088 162.935031 
L 252.064247 163.289847 
L 254.087928 163.822071 
L 256.052087 164.265591 
L 258.016248 164.797815 
" style="fill:none;stroke:#7f7f7f;stroke-linecap:square;stroke-width:1.5;"/>
   </g>
   <g id="line2d_23">
    <path clip-path="url(#p9dfe15e5c3)" d="M 226.589687 155.040375 
L 228.315767 155.395191 
L 230.041847 155.750007 
L 231.827448 156.104823 
L 233.613047 156.104823 
L 235.398647 156.459639 
L 237.184247 156.858807 
L 238.910327 157.257975 
L 240.874487 157.257975 
L 242.898167 157.612791 
L 244.683767 157.612791 
L 246.588407 157.612791 
L 248.612088 157.967607 
L 250.635767 157.967607 
L 252.361848 158.322423 
L 254.087928 158.677239 
L 256.111607 159.032055 
L 257.897207 159.431223 
L 259.682807 159.786039 
L 261.408887 159.786039 
" style="fill:none;stroke:#bcbd22;stroke-linecap:square;stroke-width:1.5;"/>
   </g>
   <g id="line2d_24">
    <path clip-path="url(#p9dfe15e5c3)" d="M 226.589687 155.040375 
L 228.375287 155.040375 
L 230.398967 155.040375 
L 232.303607 155.040375 
L 234.089207 155.040375 
L 235.874808 154.685559 
L 237.660407 154.685559 
L 239.386487 154.685559 
L 241.172088 154.286391 
L 242.481527 154.286391 
L 243.671927 153.931575 
L 244.921847 153.399351 
L 246.231288 152.822775 
L 248.552568 152.467959 
L 251.230967 152.467959 
L 253.849848 152.467959 
L 256.052087 152.467959 
L 257.182968 151.403511 
L 258.254327 152.467959 
L 260.039927 152.467959 
" style="fill:none;stroke:#17becf;stroke-linecap:square;stroke-width:1.5;"/>
   </g>
   <g id="line2d_25">
    <path clip-path="url(#p9dfe15e5c3)" d="M 226.589687 155.040375 
L 227.899127 156.503991 
L 229.684728 157.257975 
L 231.886967 157.612791 
L 234.089207 158.011959 
L 235.398647 159.076407 
L 236.708088 159.830391 
L 238.017527 160.540023 
L 239.386487 160.540023 
L 240.695927 160.540023 
L 242.005368 160.540023 
L 243.374327 160.540023 
L 244.921847 160.939191 
L 246.647927 161.294007 
L 248.612088 161.648823 
L 250.397687 162.003639 
L 252.599928 162.358455 
L 254.564087 162.358455 
L 255.694967 163.112439 
L 257.421047 163.467255 
" style="fill:none;stroke:#1f77b4;stroke-linecap:square;stroke-width:1.5;"/>
   </g>
   <g id="line2d_26">
    <path clip-path="url(#p9dfe15e5c3)" d="M 226.589687 155.040375 
L 229.446647 156.858807 
L 231.232247 156.858807 
L 232.720247 157.257975 
L 234.267767 157.967607 
L 235.636728 157.967607 
L 236.946168 157.213623 
L 238.315127 156.681399 
L 239.386487 156.149175 
L 240.695927 155.794359 
L 242.243448 155.794359 
L 243.790967 156.149175 
L 245.576568 156.503991 
L 247.124088 156.858807 
L 248.671607 157.213623 
L 249.981047 157.967607 
L 251.052407 158.721591 
L 252.183288 159.786039 
L 253.314167 160.894839 
L 254.147447 161.648823 
" style="fill:none;stroke:#ff7f0e;stroke-linecap:square;stroke-width:1.5;"/>
   </g>
   <g id="line2d_27">
    <path clip-path="url(#p9dfe15e5c3)" d="M 226.589687 155.040375 
L 227.780088 155.794359 
L 228.851448 156.725751 
L 229.922808 157.435383 
L 231.113207 158.322423 
L 232.303607 159.298167 
L 233.374967 160.185207 
L 234.446327 160.894839 
L 235.398647 161.693175 
L 236.827127 162.580215 
L 238.136567 163.289847 
L 239.446008 163.999479 
L 240.755448 164.797815 
L 242.064887 165.507447 
L 243.374327 166.217079 
L 244.683767 166.926711 
L 245.993207 167.725047 
L 247.183607 168.434679 
L 248.493047 169.499127 
L 249.564407 170.297463 
" style="fill:none;stroke:#2ca02c;stroke-linecap:square;stroke-width:1.5;"/>
   </g>
   <g id="line2d_28">
    <path clip-path="url(#p9dfe15e5c3)" d="M 226.589687 155.040375 
L 227.542007 155.750007 
L 228.613368 156.858807 
L 229.684728 157.612791 
L 230.637047 158.322423 
L 231.470327 159.386871 
L 232.184567 160.540023 
L 232.660728 161.959287 
L 233.017847 163.112439 
L 233.374967 164.354295 
L 233.672567 165.684855 
L 234.089207 166.749303 
L 234.327287 168.212919 
L 234.684407 169.321719 
L 235.101047 170.563575 
L 235.339127 171.894135 
L 235.696247 173.135991 
L 236.112887 174.289143 
L 236.410487 175.530999 
L 236.648567 176.861559 
" style="fill:none;stroke:#d62728;stroke-linecap:square;stroke-width:1.5;"/>
   </g>
   <g id="line2d_29">
    <path clip-path="url(#p9dfe15e5c3)" d="M 226.589687 155.040375 
L 226.946808 156.459639 
L 227.125368 157.612791 
L 227.542007 158.677239 
L 227.899127 160.185207 
L 228.256248 161.249655 
L 228.553847 162.757623 
L 228.851448 163.822071 
L 229.208567 165.108279 
L 229.684728 166.394487 
L 229.863287 167.458935 
L 230.220407 168.789495 
L 230.637047 170.031351 
L 230.875127 171.361911 
L 231.172728 172.426359 
L 231.648888 173.712567 
L 232.006008 174.998775 
L 232.184567 176.240631 
L 232.601207 177.571191 
L 232.958327 178.635639 
" style="fill:none;stroke:#9467bd;stroke-linecap:square;stroke-width:1.5;"/>
   </g>
   <g id="line2d_30">
    <path clip-path="url(#p9dfe15e5c3)" d="M 226.589687 155.040375 
L 229.684728 155.040375 
L 232.779767 155.040375 
L 235.874808 155.040375 
L 238.731767 155.794359 
L 241.350648 156.903159 
L 243.969527 157.612791 
L 246.707448 158.721591 
L 249.326327 159.830391 
L 251.945207 160.540023 
L 254.564087 161.648823 
L 254.802167 163.467255 
L 254.802167 165.684855 
L 254.147447 167.503287 
L 252.838008 168.966903 
L 251.469047 170.829687 
L 250.159607 172.648119 
L 248.374008 173.756919 
L 246.231288 173.756919 
L 243.790967 173.402103 
" style="fill:none;stroke:#8c564b;stroke-linecap:square;stroke-width:1.5;"/>
   </g>
   <g id="line2d_31">
    <path clip-path="url(#p9dfe15e5c3)" d="M 226.589687 155.040375 
L 223.970808 153.931575 
L 221.351927 152.822775 
L 218.673528 151.713975 
L 215.995127 150.649527 
L 213.376248 149.540727 
L 210.043127 148.786743 
L 206.352888 148.077111 
L 202.781688 147.323127 
L 199.091447 146.613495 
L 195.520248 145.859511 
L 191.770488 145.149879 
L 188.258807 144.395895 
L 184.449527 143.641911 
L 180.759287 142.932279 
L 177.188087 142.222647 
L 173.497848 141.468663 
L 169.926648 140.714679 
L 165.522167 142.222647 
L 163.796087 142.577463 
" style="fill:none;stroke:#e377c2;stroke-linecap:square;stroke-width:1.5;"/>
   </g>
   <g id="line2d_32">
    <path clip-path="url(#p9dfe15e5c3)" d="M 226.589687 155.040375 
L 222.661367 155.040375 
L 218.852088 155.040375 
L 214.923767 154.862967 
L 211.174007 154.862967 
L 207.424248 154.685559 
L 203.495927 154.685559 
L 199.686647 154.685559 
L 195.996408 154.508151 
L 191.949048 154.508151 
L 188.258807 154.153335 
L 184.449527 154.153335 
L 180.521208 154.153335 
L 176.771447 154.153335 
L 172.783608 154.153335 
L 169.033848 154.153335 
L 165.284087 154.153335 
L 161.355768 154.153335 
L 157.546488 154.153335 
L 153.856247 154.153335 
" style="fill:none;stroke:#7f7f7f;stroke-linecap:square;stroke-width:1.5;"/>
   </g>
   <g id="line2d_33">
    <path clip-path="url(#p9dfe15e5c3)" d="M 226.589687 155.040375 
L 222.601847 155.040375 
L 218.614007 155.040375 
L 214.685688 155.040375 
L 210.638328 154.862967 
L 206.948087 154.685559 
L 202.960248 154.685559 
L 198.972408 154.508151 
L 195.044087 154.508151 
L 191.234807 154.330743 
L 187.306488 154.153335 
L 183.378167 154.153335 
L 179.330807 154.153335 
L 175.640568 153.754167 
L 171.771768 153.754167 
L 167.902967 153.754167 
L 164.034167 153.754167 
L 160.046328 153.754167 
L 156.177527 153.754167 
L 152.368247 153.754167 
" style="fill:none;stroke:#bcbd22;stroke-linecap:square;stroke-width:1.5;"/>
   </g>
   <g id="line2d_34">
    <path clip-path="url(#p9dfe15e5c3)" d="M 226.589687 155.040375 
L 225.042168 155.217783 
L 223.494647 155.217783 
L 222.185207 155.395191 
L 220.637687 155.395191 
L 219.209207 155.572599 
L 217.721207 155.572599 
L 216.233207 155.750007 
L 214.804727 155.750007 
L 213.316727 155.927415 
L 211.888248 155.927415 
L 210.400248 156.104823 
L 208.912248 156.104823 
L 207.483767 156.282231 
L 205.936248 156.282231 
L 204.626807 156.503991 
L 203.079287 156.503991 
L 201.353207 155.528247 
L 198.793847 153.000183 
L 197.960567 154.064631 
" style="fill:none;stroke:#17becf;stroke-linecap:square;stroke-width:1.5;"/>
   </g>
   <g id="line2d_35">
    <path clip-path="url(#p9dfe15e5c3)" d="M 226.589687 155.040375 
L 225.161207 154.685559 
L 223.851767 154.286391 
L 222.542327 153.887223 
L 221.232888 153.354999 
L 219.863927 153.000183 
L 218.375927 152.645367 
L 217.066487 152.290551 
L 215.757047 151.758327 
L 214.566647 151.137399 
L 213.257207 150.782583 
L 211.828727 150.427767 
L 210.519287 149.895543 
L 209.150328 151.536567 
L 207.959927 152.645367 
L 206.412408 151.935735 
L 204.983927 151.181751 
L 203.436408 150.605175 
L 202.007927 149.895543 
L 200.579447 149.185911 
" style="fill:none;stroke:#1f77b4;stroke-linecap:square;stroke-width:1.5;"/>
   </g>
   <g id="line2d_36">
    <path clip-path="url(#p9dfe15e5c3)" d="M 226.589687 155.040375 
L 225.756407 155.040375 
L 224.685047 155.040375 
L 223.732728 155.395191 
L 222.661367 155.395191 
L 221.828088 155.794359 
L 220.875767 155.794359 
L 219.804407 156.149175 
L 218.911608 156.149175 
L 217.780728 156.149175 
L 217.185528 156.548343 
L 216.709367 156.548343 
L 215.995127 156.548343 
L 215.638007 156.548343 
L 214.923767 156.548343 
L 214.447608 156.548343 
L 213.852407 156.903159 
L 213.376248 156.903159 
L 212.781047 156.903159 
L 212.304888 156.903159 
" style="fill:none;stroke:#ff7f0e;stroke-linecap:square;stroke-width:1.5;"/>
   </g>
   <g id="line2d_37">
    <path clip-path="url(#p9dfe15e5c3)" d="M 226.589687 155.040375 
L 224.804088 155.040375 
L 223.256567 155.040375 
L 221.709047 155.040375 
L 220.161528 155.040375 
L 218.852088 155.040375 
L 217.721207 155.395191 
L 216.649847 155.395191 
L 215.757047 155.750007 
L 214.447608 156.149175 
L 212.900087 156.149175 
L 211.352567 156.503991 
L 209.805048 156.503991 
L 208.257528 156.903159 
L 206.471927 156.903159 
L 204.924408 156.903159 
L 203.614968 156.149175 
L 202.067447 155.750007 
L 200.519927 155.395191 
L 198.972408 155.395191 
" style="fill:none;stroke:#2ca02c;stroke-linecap:square;stroke-width:1.5;"/>
   </g>
   <g id="line2d_38">
    <path clip-path="url(#p9dfe15e5c3)" d="M 226.589687 155.040375 
L 226.589687 155.040375 
L 226.589687 155.040375 
L 226.589687 155.040375 
L 226.589687 155.040375 
L 226.589687 155.040375 
L 226.589687 155.040375 
L 226.589687 155.040375 
L 226.589687 155.040375 
L 226.589687 155.040375 
L 226.589687 155.040375 
L 226.589687 155.040375 
L 226.589687 155.040375 
L 226.589687 155.040375 
L 226.589687 155.040375 
L 226.589687 155.040375 
L 226.589687 155.040375 
L 226.589687 155.040375 
L 226.589687 155.040375 
L 226.589687 155.040375 
" style="fill:none;stroke:#d62728;stroke-linecap:square;stroke-width:1.5;"/>
   </g>
   <g id="line2d_39">
    <path clip-path="url(#p9dfe15e5c3)" d="M 226.589687 155.040375 
L 226.589687 155.040375 
L 226.589687 155.040375 
L 226.589687 155.040375 
L 226.589687 155.040375 
L 226.589687 155.040375 
L 226.589687 155.040375 
L 226.589687 155.040375 
L 226.589687 155.040375 
L 226.589687 155.040375 
L 226.589687 155.040375 
L 226.589687 155.040375 
L 226.589687 155.040375 
L 226.589687 155.040375 
L 226.589687 155.040375 
L 226.589687 155.040375 
L 226.589687 155.040375 
L 226.589687 155.040375 
L 226.589687 155.040375 
L 226.589687 155.040375 
" style="fill:none;stroke:#9467bd;stroke-linecap:square;stroke-width:1.5;"/>
   </g>
   <g id="line2d_40">
    <path clip-path="url(#p9dfe15e5c3)" d="M 226.589687 155.040375 
L 220.875767 154.685559 
L 215.161847 154.685559 
L 209.328888 154.330743 
L 203.614968 153.975927 
L 197.901048 153.621111 
L 192.425207 153.621111 
L 186.711287 153.266295 
L 180.878328 152.911479 
L 175.164408 152.512311 
L 169.450488 152.512311 
L 163.974648 152.113143 
L 158.260728 151.758327 
L 152.427768 151.758327 
L 146.713847 151.403511 
L 140.999928 151.048695 
L 135.286007 150.693879 
L 129.810168 150.693879 
L 129.334007 150.339063 
L 129.334007 150.339063 
" style="fill:none;stroke:#8c564b;stroke-linecap:square;stroke-width:1.5;"/>
   </g>
   <g id="line2d_41">
    <path clip-path="url(#p9dfe15e5c3)" d="M 226.589687 155.040375 
L 222.185207 155.750007 
L 218.018808 156.149175 
L 213.792888 155.750007 
L 209.388407 155.395191 
L 205.222007 155.040375 
L 200.817527 153.931575 
L 196.829688 153.221943 
L 192.841848 152.822775 
L 189.032567 152.467959 
L 184.985208 152.113143 
L 181.175928 151.758327 
L 177.247608 151.403511 
L 173.200247 151.226103 
L 169.510008 150.826935 
L 165.700727 150.826935 
L 162.010488 150.826935 
L 158.201208 150.826935 
L 154.510967 150.826935 
L 150.582648 150.826935 
" style="fill:none;stroke:#e377c2;stroke-linecap:square;stroke-width:1.5;"/>
   </g>
   <g id="line2d_42">
    <path clip-path="url(#p9dfe15e5c3)" d="M 226.589687 155.040375 
L 222.899448 155.040375 
L 219.209207 155.040375 
L 215.399927 155.040375 
L 212.304888 154.641207 
L 212.304888 154.641207 
L 212.304888 154.641207 
L 212.304888 154.641207 
L 212.304888 154.641207 
L 212.304888 154.641207 
L 212.304888 154.641207 
L 212.304888 154.641207 
L 212.304888 154.641207 
L 212.304888 154.641207 
L 212.304888 154.641207 
L 212.304888 154.641207 
L 212.304888 154.641207 
L 212.304888 154.641207 
L 212.304888 154.641207 
L 212.304888 154.641207 
" style="fill:none;stroke:#7f7f7f;stroke-linecap:square;stroke-width:1.5;"/>
   </g>
   <g id="line2d_43">
    <path clip-path="url(#p9dfe15e5c3)" d="M 226.589687 155.040375 
L 225.042168 155.040375 
L 223.732728 155.395191 
L 222.185207 155.395191 
L 220.816248 155.395191 
L 219.268728 155.750007 
L 217.959287 155.750007 
L 216.411767 155.750007 
L 215.102328 156.104823 
L 213.554808 156.104823 
L 212.245367 156.503991 
L 210.697847 156.503991 
L 209.388407 156.503991 
L 207.959927 156.681399 
L 206.650487 156.681399 
L 205.460087 156.681399 
L 204.150647 156.681399 
L 202.841207 156.681399 
L 201.234168 157.213623 
L 199.686647 157.568439 
" style="fill:none;stroke:#bcbd22;stroke-linecap:square;stroke-width:1.5;"/>
   </g>
   <g id="line2d_44">
    <path clip-path="url(#p9dfe15e5c3)" d="M 226.589687 155.040375 
L 225.042168 155.794359 
L 223.316088 156.149175 
L 221.768567 156.858807 
L 220.459127 156.858807 
L 218.911608 156.858807 
L 217.364087 157.213623 
L 215.816567 157.213623 
L 214.507127 157.568439 
L 212.959608 157.568439 
L 211.412087 157.568439 
L 209.864567 157.568439 
L 208.555127 156.858807 
L 207.007608 156.503991 
L 205.460087 156.149175 
L 203.912567 155.794359 
L 202.365048 155.794359 
L 200.817527 156.149175 
L 199.270007 156.503991 
L 197.722487 156.503991 
" style="fill:none;stroke:#17becf;stroke-linecap:square;stroke-width:1.5;"/>
   </g>
   <g id="line2d_45">
    <path clip-path="url(#p9dfe15e5c3)" d="M 226.589687 155.040375 
L 225.042168 154.685559 
L 223.494647 154.330743 
L 221.947127 153.931575 
L 220.637687 153.532407 
L 219.506808 153.532407 
L 218.435448 153.532407 
L 217.304567 153.532407 
L 215.757047 153.177591 
L 214.209528 153.177591 
L 212.662007 153.177591 
L 210.697847 152.822775 
L 208.971767 152.467959 
L 207.186168 152.113143 
L 205.876727 152.113143 
L 204.329207 152.290551 
L 202.662647 152.467959 
L 201.115127 152.290551 
L 199.567608 152.467959 
L 197.901048 152.290551 
" style="fill:none;stroke:#1f77b4;stroke-linecap:square;stroke-width:1.5;"/>
   </g>
   <g id="line2d_46">
    <path clip-path="url(#p9dfe15e5c3)" d="M 226.589687 155.040375 
L 224.208888 155.794359 
L 221.709047 156.503991 
L 218.852088 156.503991 
L 215.340407 155.395191 
L 211.828727 153.931575 
L 207.840888 152.822775 
L 203.257847 152.467959 
L 198.615287 151.758327 
L 195.520248 151.758327 
L 192.425207 151.758327 
L 189.330168 151.403511 
L 185.997048 151.758327 
L 182.902007 151.758327 
L 179.806967 151.758327 
L 175.878647 152.113143 
L 171.474167 152.467959 
L 167.486328 152.467959 
L 163.974648 152.467959 
L 160.403447 152.467959 
" style="fill:none;stroke:#ff7f0e;stroke-linecap:square;stroke-width:1.5;"/>
   </g>
   <g id="line2d_47">
    <path clip-path="url(#p9dfe15e5c3)" d="M 226.589687 155.040375 
L 225.042168 155.040375 
L 223.494647 155.040375 
L 221.768567 155.040375 
L 220.221047 154.685559 
L 218.673528 154.685559 
L 217.126007 154.685559 
L 215.578487 154.286391 
L 214.030968 154.286391 
L 212.483448 154.286391 
L 210.935927 154.286391 
L 209.388407 153.931575 
L 207.602807 153.931575 
L 206.055287 153.931575 
L 204.507767 153.931575 
L 203.198328 153.931575 
L 201.888888 153.931575 
L 200.579447 153.931575 
L 199.031927 154.286391 
L 197.722487 154.286391 
" style="fill:none;stroke:#2ca02c;stroke-linecap:square;stroke-width:1.5;"/>
   </g>
   <g id="line2d_48">
    <path clip-path="url(#p9dfe15e5c3)" d="M 226.589687 155.040375 
L 225.280248 155.040375 
L 223.970808 155.040375 
L 222.839927 154.685559 
L 221.530487 154.685559 
L 220.221047 154.685559 
L 218.911608 154.330743 
L 217.780728 154.330743 
L 216.471287 154.330743 
L 215.161847 153.975927 
L 214.030968 153.975927 
L 212.721528 153.576759 
L 211.412087 153.576759 
L 210.043127 153.576759 
L 208.971767 153.221943 
L 207.662328 153.221943 
L 206.293367 152.867127 
L 204.983927 152.867127 
L 203.912567 152.867127 
L 202.603127 152.512311 
" style="fill:none;stroke:#d62728;stroke-linecap:square;stroke-width:1.5;"/>
   </g>
   <g id="line2d_49">
    <path clip-path="url(#p9dfe15e5c3)" d="M 226.589687 155.040375 
L 223.018487 155.040375 
L 219.685367 155.040375 
L 216.411767 155.040375 
L 213.078647 155.040375 
L 209.805048 154.596855 
L 206.233847 153.887223 
L 202.960248 153.177591 
L 199.627128 152.113143 
L 195.877367 151.669623 
L 192.127608 151.669623 
L 188.377848 151.669623 
L 184.866167 151.669623 
L 181.354488 152.113143 
L 177.604727 152.290551 
L 173.854967 152.290551 
L 169.867128 152.290551 
L 166.117368 152.290551 
L 162.308087 152.290551 
L 158.498807 152.290551 
" style="fill:none;stroke:#9467bd;stroke-linecap:square;stroke-width:1.5;"/>
   </g>
   <g id="line2d_50">
    <path clip-path="url(#p9dfe15e5c3)" d="M 226.589687 155.040375 
L 228.375287 154.286391 
L 230.339448 153.532407 
L 231.648888 152.467959 
L 232.779767 151.359159 
L 233.851127 149.895543 
L 234.327287 149.540727 
L 234.327287 149.540727 
L 234.327287 149.540727 
L 234.327287 149.540727 
L 234.327287 149.540727 
L 234.327287 149.540727 
L 234.327287 149.540727 
L 234.327287 149.540727 
L 234.327287 149.540727 
L 234.327287 149.540727 
L 234.327287 149.540727 
L 234.327287 149.540727 
L 234.327287 149.540727 
L 234.327287 149.540727 
" style="fill:none;stroke:#8c564b;stroke-linecap:square;stroke-width:1.5;"/>
   </g>
   <g id="line2d_51">
    <path clip-path="url(#p9dfe15e5c3)" d="M 226.589687 155.040375 
L 225.042168 155.040375 
L 223.494647 154.862967 
L 221.828088 155.040375 
L 220.161528 155.040375 
L 218.375927 155.395191 
L 216.590328 155.395191 
L 215.042808 155.794359 
L 213.733367 155.794359 
L 212.423927 155.794359 
L 210.876407 155.794359 
L 209.090807 155.395191 
L 207.305207 155.040375 
L 205.876727 155.794359 
L 204.924408 157.257975 
L 203.912567 158.721591 
L 203.912567 159.120759 
L 203.912567 159.120759 
L 203.912567 159.475575 
L 203.912567 159.475575 
" style="fill:none;stroke:#e377c2;stroke-linecap:square;stroke-width:1.5;"/>
   </g>
   <g id="line2d_52">
    <path clip-path="url(#p9dfe15e5c3)" d="M 226.589687 155.040375 
L 230.101368 155.040375 
L 233.672567 154.641207 
L 237.184247 154.641207 
L 241.350648 154.641207 
L 245.993207 154.641207 
L 250.635767 154.641207 
L 255.218807 155.040375 
L 259.861367 155.040375 
L 264.503927 155.040375 
L 269.146487 155.040375 
L 273.789047 155.395191 
L 278.431607 155.395191 
L 283.074167 155.395191 
L 287.895287 155.395191 
L 292.656887 155.350839 
L 297.537528 155.173431 
L 302.358647 155.040375 
L 306.406007 155.572599 
L 310.393847 155.927415 
" style="fill:none;stroke:#7f7f7f;stroke-linecap:square;stroke-width:1.5;"/>
   </g>
   <g id="line2d_53">
    <path clip-path="url(#p9dfe15e5c3)" d="M 226.589687 155.040375 
L 223.018487 155.040375 
L 219.328248 154.685559 
L 215.518968 154.685559 
L 211.828727 154.330743 
L 208.257528 154.330743 
L 204.507767 154.330743 
L 200.758007 153.931575 
L 197.008248 153.931575 
L 193.496567 153.576759 
L 189.746807 153.576759 
L 185.997048 153.177591 
L 182.247287 153.177591 
L 178.497527 153.177591 
L 174.985848 152.822775 
L 171.236087 152.822775 
L 167.486328 152.467959 
L 163.736568 152.467959 
L 160.165368 152.113143 
L 156.415608 152.113143 
" style="fill:none;stroke:#bcbd22;stroke-linecap:square;stroke-width:1.5;"/>
   </g>
   <g id="line2d_54">
    <path clip-path="url(#p9dfe15e5c3)" d="M 226.589687 155.040375 
L 231.767927 153.975927 
L 237.303288 154.330743 
L 243.255288 155.040375 
L 250.754807 154.685559 
L 256.885367 154.685559 
L 264.861047 154.685559 
L 270.336887 154.685559 
L 276.110327 154.685559 
L 282.300408 155.040375 
L 289.561847 155.794359 
L 296.585208 154.685559 
L 302.120567 156.903159 
L 308.310647 156.903159 
L 315.988727 156.903159 
L 321.524088 157.967607 
L 327.476088 158.721591 
L 335.868407 159.120759 
L 341.165687 159.120759 
L 345.808247 157.612791 
" style="fill:none;stroke:#17becf;stroke-linecap:square;stroke-width:1.5;"/>
   </g>
   <g id="line2d_55">
    <path clip-path="url(#p9dfe15e5c3)" d="M 226.589687 155.040375 
L 233.374967 154.685559 
L 238.850808 154.685559 
L 243.969527 154.685559 
L 250.159607 154.685559 
L 257.182968 154.685559 
L 265.337207 155.040375 
L 272.658167 156.104823 
L 279.443447 156.503991 
L 286.466808 156.503991 
L 292.894968 155.750007 
L 299.323127 157.213623 
L 305.870327 158.677239 
L 312.774648 160.185207 
L 318.488567 161.249655 
L 326.464247 162.358455 
L 332.178167 163.467255 
L 337.654007 164.176887 
L 342.772727 164.531703 
L 347.177208 162.713271 
" style="fill:none;stroke:#1f77b4;stroke-linecap:square;stroke-width:1.5;"/>
   </g>
   <g id="line2d_56">
    <path clip-path="url(#p9dfe15e5c3)" d="M 226.589687 155.040375 
L 226.470647 155.217783 
L 226.470647 155.217783 
L 226.470647 155.395191 
L 226.470647 155.395191 
L 226.470647 155.395191 
L 226.470647 155.572599 
L 226.470647 155.572599 
L 226.470647 155.572599 
L 226.470647 155.750007 
L 226.470647 155.750007 
L 226.232567 155.750007 
L 226.232567 155.750007 
L 226.232567 155.750007 
L 226.232567 155.750007 
L 226.232567 155.750007 
L 226.113528 155.750007 
L 226.113528 155.750007 
L 226.113528 155.750007 
L 226.113528 155.750007 
" style="fill:none;stroke:#ff7f0e;stroke-linecap:square;stroke-width:1.5;"/>
   </g>
   <g id="line2d_57">
    <path clip-path="url(#p9dfe15e5c3)" d="M 226.589687 155.040375 
L 226.351608 155.040375 
L 226.351608 155.040375 
L 226.351608 155.040375 
L 226.351608 155.040375 
L 226.351608 155.040375 
L 226.113528 155.040375 
L 226.113528 155.040375 
L 226.113528 155.040375 
L 226.113528 155.040375 
L 226.113528 155.040375 
L 225.875448 155.040375 
L 225.875448 155.040375 
L 225.637368 155.040375 
L 225.637368 155.040375 
L 225.399287 155.040375 
L 225.399287 155.040375 
L 225.399287 155.040375 
L 225.399287 155.040375 
L 225.399287 155.040375 
" style="fill:none;stroke:#2ca02c;stroke-linecap:square;stroke-width:1.5;"/>
   </g>
   <g id="line2d_58">
    <path clip-path="url(#p9dfe15e5c3)" d="M 226.589687 155.040375 
L 220.340088 156.104823 
L 214.269047 156.282231 
L 208.317048 156.282231 
L 202.960248 156.637047 
L 197.722487 157.036215 
L 192.365688 156.637047 
L 186.889848 155.927415 
L 181.652087 155.217783 
L 175.878647 155.217783 
L 170.105208 155.217783 
L 164.153208 154.508151 
L 158.201208 153.354999 
L 152.249208 151.935735 
L 147.606648 151.137399 
L 143.202168 150.427767 
L 138.559607 150.072951 
L 133.917047 149.363319 
L 129.334007 148.609335 
L 125.346168 148.609335 
" style="fill:none;stroke:#d62728;stroke-linecap:square;stroke-width:1.5;"/>
   </g>
   <g id="patch_3">
    <path d="M 48.029688 288.096375 
L 48.029688 21.984375 
" style="fill:none;stroke:#000000;stroke-linecap:square;stroke-linejoin:miter;stroke-width:0.8;"/>
   </g>
   <g id="patch_4">
    <path d="M 405.149688 288.096375 
L 405.149688 21.984375 
" style="fill:none;stroke:#000000;stroke-linecap:square;stroke-linejoin:miter;stroke-width:0.8;"/>
   </g>
   <g id="patch_5">
    <path d="M 48.029687 288.096375 
L 405.149688 288.096375 
" style="fill:none;stroke:#000000;stroke-linecap:square;stroke-linejoin:miter;stroke-width:0.8;"/>
   </g>
   <g id="patch_6">
    <path d="M 48.029687 21.984375 
L 405.149688 21.984375 
" style="fill:none;stroke:#000000;stroke-linecap:square;stroke-linejoin:miter;stroke-width:0.8;"/>
   </g>
   <g id="text_15">
    <!-- gates_7 -->
    <g transform="translate(203.116562 15.984375)scale(0.12 -0.12)">
     <defs>
      <path d="M 45.40625 27.984375 
Q 45.40625 37.75 41.375 43.109375 
Q 37.359375 48.484375 30.078125 48.484375 
Q 22.859375 48.484375 18.828125 43.109375 
Q 14.796875 37.75 14.796875 27.984375 
Q 14.796875 18.265625 18.828125 12.890625 
Q 22.859375 7.515625 30.078125 7.515625 
Q 37.359375 7.515625 41.375 12.890625 
Q 45.40625 18.265625 45.40625 27.984375 
z
M 54.390625 6.78125 
Q 54.390625 -7.171875 48.1875 -13.984375 
Q 42 -20.796875 29.203125 -20.796875 
Q 24.46875 -20.796875 20.265625 -20.09375 
Q 16.0625 -19.390625 12.109375 -17.921875 
L 12.109375 -9.1875 
Q 16.0625 -11.328125 19.921875 -12.34375 
Q 23.78125 -13.375 27.78125 -13.375 
Q 36.625 -13.375 41.015625 -8.765625 
Q 45.40625 -4.15625 45.40625 5.171875 
L 45.40625 9.625 
Q 42.625 4.78125 38.28125 2.390625 
Q 33.9375 0 27.875 0 
Q 17.828125 0 11.671875 7.65625 
Q 5.515625 15.328125 5.515625 27.984375 
Q 5.515625 40.671875 11.671875 48.328125 
Q 17.828125 56 27.875 56 
Q 33.9375 56 38.28125 53.609375 
Q 42.625 51.21875 45.40625 46.390625 
L 45.40625 54.6875 
L 54.390625 54.6875 
z
" id="DejaVuSans-103"/>
      <path d="M 34.28125 27.484375 
Q 23.390625 27.484375 19.1875 25 
Q 14.984375 22.515625 14.984375 16.5 
Q 14.984375 11.71875 18.140625 8.90625 
Q 21.296875 6.109375 26.703125 6.109375 
Q 34.1875 6.109375 38.703125 11.40625 
Q 43.21875 16.703125 43.21875 25.484375 
L 43.21875 27.484375 
z
M 52.203125 31.203125 
L 52.203125 0 
L 43.21875 0 
L 43.21875 8.296875 
Q 40.140625 3.328125 35.546875 0.953125 
Q 30.953125 -1.421875 24.3125 -1.421875 
Q 15.921875 -1.421875 10.953125 3.296875 
Q 6 8.015625 6 15.921875 
Q 6 25.140625 12.171875 29.828125 
Q 18.359375 34.515625 30.609375 34.515625 
L 43.21875 34.515625 
L 43.21875 35.40625 
Q 43.21875 41.609375 39.140625 45 
Q 35.0625 48.390625 27.6875 48.390625 
Q 23 48.390625 18.546875 47.265625 
Q 14.109375 46.140625 10.015625 43.890625 
L 10.015625 52.203125 
Q 14.9375 54.109375 19.578125 55.046875 
Q 24.21875 56 28.609375 56 
Q 40.484375 56 46.34375 49.84375 
Q 52.203125 43.703125 52.203125 31.203125 
z
" id="DejaVuSans-97"/>
      <path d="M 18.3125 70.21875 
L 18.3125 54.6875 
L 36.8125 54.6875 
L 36.8125 47.703125 
L 18.3125 47.703125 
L 18.3125 18.015625 
Q 18.3125 11.328125 20.140625 9.421875 
Q 21.96875 7.515625 27.59375 7.515625 
L 36.8125 7.515625 
L 36.8125 0 
L 27.59375 0 
Q 17.1875 0 13.234375 3.875 
Q 9.28125 7.765625 9.28125 18.015625 
L 9.28125 47.703125 
L 2.6875 47.703125 
L 2.6875 54.6875 
L 9.28125 54.6875 
L 9.28125 70.21875 
z
" id="DejaVuSans-116"/>
      <path d="M 56.203125 29.59375 
L 56.203125 25.203125 
L 14.890625 25.203125 
Q 15.484375 15.921875 20.484375 11.0625 
Q 25.484375 6.203125 34.421875 6.203125 
Q 39.59375 6.203125 44.453125 7.46875 
Q 49.3125 8.734375 54.109375 11.28125 
L 54.109375 2.78125 
Q 49.265625 0.734375 44.1875 -0.34375 
Q 39.109375 -1.421875 33.890625 -1.421875 
Q 20.796875 -1.421875 13.15625 6.1875 
Q 5.515625 13.8125 5.515625 26.8125 
Q 5.515625 40.234375 12.765625 48.109375 
Q 20.015625 56 32.328125 56 
Q 43.359375 56 49.78125 48.890625 
Q 56.203125 41.796875 56.203125 29.59375 
z
M 47.21875 32.234375 
Q 47.125 39.59375 43.09375 43.984375 
Q 39.0625 48.390625 32.421875 48.390625 
Q 24.90625 48.390625 20.390625 44.140625 
Q 15.875 39.890625 15.1875 32.171875 
z
" id="DejaVuSans-101"/>
      <path d="M 44.28125 53.078125 
L 44.28125 44.578125 
Q 40.484375 46.53125 36.375 47.5 
Q 32.28125 48.484375 27.875 48.484375 
Q 21.1875 48.484375 17.84375 46.4375 
Q 14.5 44.390625 14.5 40.28125 
Q 14.5 37.15625 16.890625 35.375 
Q 19.28125 33.59375 26.515625 31.984375 
L 29.59375 31.296875 
Q 39.15625 29.25 43.1875 25.515625 
Q 47.21875 21.78125 47.21875 15.09375 
Q 47.21875 7.46875 41.1875 3.015625 
Q 35.15625 -1.421875 24.609375 -1.421875 
Q 20.21875 -1.421875 15.453125 -0.5625 
Q 10.6875 0.296875 5.421875 2 
L 5.421875 11.28125 
Q 10.40625 8.6875 15.234375 7.390625 
Q 20.0625 6.109375 24.8125 6.109375 
Q 31.15625 6.109375 34.5625 8.28125 
Q 37.984375 10.453125 37.984375 14.40625 
Q 37.984375 18.0625 35.515625 20.015625 
Q 33.0625 21.96875 24.703125 23.78125 
L 21.578125 24.515625 
Q 13.234375 26.265625 9.515625 29.90625 
Q 5.8125 33.546875 5.8125 39.890625 
Q 5.8125 47.609375 11.28125 51.796875 
Q 16.75 56 26.8125 56 
Q 31.78125 56 36.171875 55.265625 
Q 40.578125 54.546875 44.28125 53.078125 
z
" id="DejaVuSans-115"/>
      <path d="M 50.984375 -16.609375 
L 50.984375 -23.578125 
L -0.984375 -23.578125 
L -0.984375 -16.609375 
z
" id="DejaVuSans-95"/>
      <path d="M 8.203125 72.90625 
L 55.078125 72.90625 
L 55.078125 68.703125 
L 28.609375 0 
L 18.3125 0 
L 43.21875 64.59375 
L 8.203125 64.59375 
z
" id="DejaVuSans-55"/>
     </defs>
     <use xlink:href="#DejaVuSans-103"/>
     <use x="63.476562" xlink:href="#DejaVuSans-97"/>
     <use x="124.755859" xlink:href="#DejaVuSans-116"/>
     <use x="163.964844" xlink:href="#DejaVuSans-101"/>
     <use x="225.488281" xlink:href="#DejaVuSans-115"/>
     <use x="277.587891" xlink:href="#DejaVuSans-95"/>
     <use x="327.587891" xlink:href="#DejaVuSans-55"/>
    </g>
   </g>
  </g>
 </g>
 <defs>
  <clipPath id="p9dfe15e5c3">
   <rect height="266.112" width="357.12" x="48.029688" y="21.984375"/>
  </clipPath>
 </defs>
</svg>
