<?xml version="1.0" encoding="utf-8" standalone="no"?>
<!DOCTYPE svg PUBLIC "-//W3C//DTD SVG 1.1//EN"
  "http://www.w3.org/Graphics/SVG/1.1/DTD/svg11.dtd">
<!-- Created with matplotlib (https://matplotlib.org/) -->
<svg height="312.096375pt" version="1.1" viewBox="0 0 425.074687 312.096375" width="425.074687pt" xmlns="http://www.w3.org/2000/svg" xmlns:xlink="http://www.w3.org/1999/xlink">
 <metadata>
  <rdf:RDF xmlns:cc="http://creativecommons.org/ns#" xmlns:dc="http://purl.org/dc/elements/1.1/" xmlns:rdf="http://www.w3.org/1999/02/22-rdf-syntax-ns#">
   <cc:Work>
    <dc:type rdf:resource="http://purl.org/dc/dcmitype/StillImage"/>
    <dc:date>2023-10-16T01:55:29.172717</dc:date>
    <dc:format>image/svg+xml</dc:format>
    <dc:creator>
     <cc:Agent>
      <dc:title>Matplotlib v3.3.4, https://matplotlib.org/</dc:title>
     </cc:Agent>
    </dc:creator>
   </cc:Work>
  </rdf:RDF>
 </metadata>
 <defs>
  <style type="text/css">*{stroke-linecap:butt;stroke-linejoin:round;}</style>
 </defs>
 <g id="figure_1">
  <g id="patch_1">
   <path d="M 0 312.096375 
L 425.074687 312.096375 
L 425.074687 0 
L 0 0 
z
" style="fill:#ffffff;"/>
  </g>
  <g id="axes_1">
   <g id="patch_2">
    <path d="M 48.029688 288.21825 
L 405.149688 288.21825 
L 405.149688 22.10625 
L 48.029688 22.10625 
z
" style="fill:#ffffff;"/>
   </g>
   <g id="matplotlib.axis_1">
    <g id="xtick_1">
     <g id="line2d_1">
      <defs>
       <path d="M 0 0 
L 0 3.5 
" id="m830ab2c74b" style="stroke:#000000;stroke-width:0.8;"/>
      </defs>
      <g>
       <use style="stroke:#000000;stroke-width:0.8;" x="48.029687" xlink:href="#m830ab2c74b" y="288.21825"/>
      </g>
     </g>
     <g id="text_1">
      <!-- −1500 -->
      <g transform="translate(31.114844 302.816687)scale(0.1 -0.1)">
       <defs>
        <path d="M 10.59375 35.5 
L 73.1875 35.5 
L 73.1875 27.203125 
L 10.59375 27.203125 
z
" id="DejaVuSans-8722"/>
        <path d="M 12.40625 8.296875 
L 28.515625 8.296875 
L 28.515625 63.921875 
L 10.984375 60.40625 
L 10.984375 69.390625 
L 28.421875 72.90625 
L 38.28125 72.90625 
L 38.28125 8.296875 
L 54.390625 8.296875 
L 54.390625 0 
L 12.40625 0 
z
" id="DejaVuSans-49"/>
        <path d="M 10.796875 72.90625 
L 49.515625 72.90625 
L 49.515625 64.59375 
L 19.828125 64.59375 
L 19.828125 46.734375 
Q 21.96875 47.46875 24.109375 47.828125 
Q 26.265625 48.1875 28.421875 48.1875 
Q 40.625 48.1875 47.75 41.5 
Q 54.890625 34.8125 54.890625 23.390625 
Q 54.890625 11.625 47.5625 5.09375 
Q 40.234375 -1.421875 26.90625 -1.421875 
Q 22.3125 -1.421875 17.546875 -0.640625 
Q 12.796875 0.140625 7.71875 1.703125 
L 7.71875 11.625 
Q 12.109375 9.234375 16.796875 8.0625 
Q 21.484375 6.890625 26.703125 6.890625 
Q 35.15625 6.890625 40.078125 11.328125 
Q 45.015625 15.765625 45.015625 23.390625 
Q 45.015625 31 40.078125 35.4375 
Q 35.15625 39.890625 26.703125 39.890625 
Q 22.75 39.890625 18.8125 39.015625 
Q 14.890625 38.140625 10.796875 36.28125 
z
" id="DejaVuSans-53"/>
        <path d="M 31.78125 66.40625 
Q 24.171875 66.40625 20.328125 58.90625 
Q 16.5 51.421875 16.5 36.375 
Q 16.5 21.390625 20.328125 13.890625 
Q 24.171875 6.390625 31.78125 6.390625 
Q 39.453125 6.390625 43.28125 13.890625 
Q 47.125 21.390625 47.125 36.375 
Q 47.125 51.421875 43.28125 58.90625 
Q 39.453125 66.40625 31.78125 66.40625 
z
M 31.78125 74.21875 
Q 44.046875 74.21875 50.515625 64.515625 
Q 56.984375 54.828125 56.984375 36.375 
Q 56.984375 17.96875 50.515625 8.265625 
Q 44.046875 -1.421875 31.78125 -1.421875 
Q 19.53125 -1.421875 13.0625 8.265625 
Q 6.59375 17.96875 6.59375 36.375 
Q 6.59375 54.828125 13.0625 64.515625 
Q 19.53125 74.21875 31.78125 74.21875 
z
" id="DejaVuSans-48"/>
       </defs>
       <use xlink:href="#DejaVuSans-8722"/>
       <use x="83.789062" xlink:href="#DejaVuSans-49"/>
       <use x="147.412109" xlink:href="#DejaVuSans-53"/>
       <use x="211.035156" xlink:href="#DejaVuSans-48"/>
       <use x="274.658203" xlink:href="#DejaVuSans-48"/>
      </g>
     </g>
    </g>
    <g id="xtick_2">
     <g id="line2d_2">
      <g>
       <use style="stroke:#000000;stroke-width:0.8;" x="107.549688" xlink:href="#m830ab2c74b" y="288.21825"/>
      </g>
     </g>
     <g id="text_2">
      <!-- −1000 -->
      <g transform="translate(90.634844 302.816687)scale(0.1 -0.1)">
       <use xlink:href="#DejaVuSans-8722"/>
       <use x="83.789062" xlink:href="#DejaVuSans-49"/>
       <use x="147.412109" xlink:href="#DejaVuSans-48"/>
       <use x="211.035156" xlink:href="#DejaVuSans-48"/>
       <use x="274.658203" xlink:href="#DejaVuSans-48"/>
      </g>
     </g>
    </g>
    <g id="xtick_3">
     <g id="line2d_3">
      <g>
       <use style="stroke:#000000;stroke-width:0.8;" x="167.069687" xlink:href="#m830ab2c74b" y="288.21825"/>
      </g>
     </g>
     <g id="text_3">
      <!-- −500 -->
      <g transform="translate(153.336094 302.816687)scale(0.1 -0.1)">
       <use xlink:href="#DejaVuSans-8722"/>
       <use x="83.789062" xlink:href="#DejaVuSans-53"/>
       <use x="147.412109" xlink:href="#DejaVuSans-48"/>
       <use x="211.035156" xlink:href="#DejaVuSans-48"/>
      </g>
     </g>
    </g>
    <g id="xtick_4">
     <g id="line2d_4">
      <g>
       <use style="stroke:#000000;stroke-width:0.8;" x="226.589687" xlink:href="#m830ab2c74b" y="288.21825"/>
      </g>
     </g>
     <g id="text_4">
      <!-- 0 -->
      <g transform="translate(223.408437 302.816687)scale(0.1 -0.1)">
       <use xlink:href="#DejaVuSans-48"/>
      </g>
     </g>
    </g>
    <g id="xtick_5">
     <g id="line2d_5">
      <g>
       <use style="stroke:#000000;stroke-width:0.8;" x="286.109688" xlink:href="#m830ab2c74b" y="288.21825"/>
      </g>
     </g>
     <g id="text_5">
      <!-- 500 -->
      <g transform="translate(276.565938 302.816687)scale(0.1 -0.1)">
       <use xlink:href="#DejaVuSans-53"/>
       <use x="63.623047" xlink:href="#DejaVuSans-48"/>
       <use x="127.246094" xlink:href="#DejaVuSans-48"/>
      </g>
     </g>
    </g>
    <g id="xtick_6">
     <g id="line2d_6">
      <g>
       <use style="stroke:#000000;stroke-width:0.8;" x="345.629687" xlink:href="#m830ab2c74b" y="288.21825"/>
      </g>
     </g>
     <g id="text_6">
      <!-- 1000 -->
      <g transform="translate(332.904687 302.816687)scale(0.1 -0.1)">
       <use xlink:href="#DejaVuSans-49"/>
       <use x="63.623047" xlink:href="#DejaVuSans-48"/>
       <use x="127.246094" xlink:href="#DejaVuSans-48"/>
       <use x="190.869141" xlink:href="#DejaVuSans-48"/>
      </g>
     </g>
    </g>
    <g id="xtick_7">
     <g id="line2d_7">
      <g>
       <use style="stroke:#000000;stroke-width:0.8;" x="405.149688" xlink:href="#m830ab2c74b" y="288.21825"/>
      </g>
     </g>
     <g id="text_7">
      <!-- 1500 -->
      <g transform="translate(392.424688 302.816687)scale(0.1 -0.1)">
       <use xlink:href="#DejaVuSans-49"/>
       <use x="63.623047" xlink:href="#DejaVuSans-53"/>
       <use x="127.246094" xlink:href="#DejaVuSans-48"/>
       <use x="190.869141" xlink:href="#DejaVuSans-48"/>
      </g>
     </g>
    </g>
   </g>
   <g id="matplotlib.axis_2">
    <g id="ytick_1">
     <g id="line2d_8">
      <defs>
       <path d="M 0 0 
L -3.5 0 
" id="m7eb3ee7b67" style="stroke:#000000;stroke-width:0.8;"/>
      </defs>
      <g>
       <use style="stroke:#000000;stroke-width:0.8;" x="48.029688" xlink:href="#m7eb3ee7b67" y="288.21825"/>
      </g>
     </g>
     <g id="text_8">
      <!-- −1500 -->
      <g transform="translate(7.2 292.017469)scale(0.1 -0.1)">
       <use xlink:href="#DejaVuSans-8722"/>
       <use x="83.789062" xlink:href="#DejaVuSans-49"/>
       <use x="147.412109" xlink:href="#DejaVuSans-53"/>
       <use x="211.035156" xlink:href="#DejaVuSans-48"/>
       <use x="274.658203" xlink:href="#DejaVuSans-48"/>
      </g>
     </g>
    </g>
    <g id="ytick_2">
     <g id="line2d_9">
      <g>
       <use style="stroke:#000000;stroke-width:0.8;" x="48.029688" xlink:href="#m7eb3ee7b67" y="243.86625"/>
      </g>
     </g>
     <g id="text_9">
      <!-- −1000 -->
      <g transform="translate(7.2 247.665469)scale(0.1 -0.1)">
       <use xlink:href="#DejaVuSans-8722"/>
       <use x="83.789062" xlink:href="#DejaVuSans-49"/>
       <use x="147.412109" xlink:href="#DejaVuSans-48"/>
       <use x="211.035156" xlink:href="#DejaVuSans-48"/>
       <use x="274.658203" xlink:href="#DejaVuSans-48"/>
      </g>
     </g>
    </g>
    <g id="ytick_3">
     <g id="line2d_10">
      <g>
       <use style="stroke:#000000;stroke-width:0.8;" x="48.029688" xlink:href="#m7eb3ee7b67" y="199.51425"/>
      </g>
     </g>
     <g id="text_10">
      <!-- −500 -->
      <g transform="translate(13.5625 203.313469)scale(0.1 -0.1)">
       <use xlink:href="#DejaVuSans-8722"/>
       <use x="83.789062" xlink:href="#DejaVuSans-53"/>
       <use x="147.412109" xlink:href="#DejaVuSans-48"/>
       <use x="211.035156" xlink:href="#DejaVuSans-48"/>
      </g>
     </g>
    </g>
    <g id="ytick_4">
     <g id="line2d_11">
      <g>
       <use style="stroke:#000000;stroke-width:0.8;" x="48.029688" xlink:href="#m7eb3ee7b67" y="155.16225"/>
      </g>
     </g>
     <g id="text_11">
      <!-- 0 -->
      <g transform="translate(34.667187 158.961469)scale(0.1 -0.1)">
       <use xlink:href="#DejaVuSans-48"/>
      </g>
     </g>
    </g>
    <g id="ytick_5">
     <g id="line2d_12">
      <g>
       <use style="stroke:#000000;stroke-width:0.8;" x="48.029688" xlink:href="#m7eb3ee7b67" y="110.81025"/>
      </g>
     </g>
     <g id="text_12">
      <!-- 500 -->
      <g transform="translate(21.942187 114.609469)scale(0.1 -0.1)">
       <use xlink:href="#DejaVuSans-53"/>
       <use x="63.623047" xlink:href="#DejaVuSans-48"/>
       <use x="127.246094" xlink:href="#DejaVuSans-48"/>
      </g>
     </g>
    </g>
    <g id="ytick_6">
     <g id="line2d_13">
      <g>
       <use style="stroke:#000000;stroke-width:0.8;" x="48.029688" xlink:href="#m7eb3ee7b67" y="66.45825"/>
      </g>
     </g>
     <g id="text_13">
      <!-- 1000 -->
      <g transform="translate(15.579687 70.257469)scale(0.1 -0.1)">
       <use xlink:href="#DejaVuSans-49"/>
       <use x="63.623047" xlink:href="#DejaVuSans-48"/>
       <use x="127.246094" xlink:href="#DejaVuSans-48"/>
       <use x="190.869141" xlink:href="#DejaVuSans-48"/>
      </g>
     </g>
    </g>
    <g id="ytick_7">
     <g id="line2d_14">
      <g>
       <use style="stroke:#000000;stroke-width:0.8;" x="48.029688" xlink:href="#m7eb3ee7b67" y="22.10625"/>
      </g>
     </g>
     <g id="text_14">
      <!-- 1500 -->
      <g transform="translate(15.579687 25.905469)scale(0.1 -0.1)">
       <use xlink:href="#DejaVuSans-49"/>
       <use x="63.623047" xlink:href="#DejaVuSans-53"/>
       <use x="127.246094" xlink:href="#DejaVuSans-48"/>
       <use x="190.869141" xlink:href="#DejaVuSans-48"/>
      </g>
     </g>
    </g>
   </g>
   <g id="line2d_15">
    <path clip-path="url(#pf87846cc12)" d="M 226.589687 155.16225 
L 234.684407 155.517066 
L 243.195767 155.871882 
L 252.242807 156.226698 
L 260.992248 157.025034 
L 269.741688 157.025034 
L 278.312568 156.625866 
L 286.883447 156.226698 
L 295.394808 156.226698 
L 303.965688 156.625866 
L 312.298487 157.025034 
L 320.809847 157.025034 
L 329.618808 156.625866 
L 338.189687 155.871882 
L 346.046327 155.871882 
L 353.962488 155.871882 
L 361.819127 155.871882 
L 367.949687 155.16225 
L 373.008888 154.009098 
L 376.282488 154.009098 
" style="fill:none;stroke:#1f77b4;stroke-linecap:square;stroke-width:1.5;"/>
   </g>
   <g id="line2d_16">
    <path clip-path="url(#pf87846cc12)" d="M 226.589687 155.16225 
L 227.303927 155.16225 
L 227.303927 155.16225 
L 227.303927 154.807434 
L 227.303927 154.807434 
L 227.303927 154.452618 
L 227.303927 154.452618 
L 227.303927 154.05345 
L 227.303927 154.05345 
L 227.303927 153.654282 
L 227.303927 153.654282 
L 227.303927 153.299466 
L 227.303927 153.299466 
L 227.065847 152.94465 
L 226.827767 152.190666 
L 226.292088 151.436682 
L 225.815927 150.50529 
L 225.339767 149.39649 
L 224.982647 148.50945 
L 224.506487 147.711114 
" style="fill:none;stroke:#ff7f0e;stroke-linecap:square;stroke-width:1.5;"/>
   </g>
   <g id="line2d_17">
    <path clip-path="url(#pf87846cc12)" d="M 226.589687 155.16225 
L 226.768248 156.670218 
L 227.006327 158.133834 
L 227.422967 159.641802 
L 227.661047 161.14977 
L 228.077687 162.613386 
L 228.315767 164.077002 
L 228.732407 165.58497 
L 228.970487 167.092938 
L 229.208567 168.556554 
L 229.625207 170.02017 
L 229.863287 171.528138 
L 230.279927 173.036106 
L 230.518008 174.277962 
L 230.637047 175.431114 
L 230.756088 176.539914 
L 230.875127 177.648714 
L 230.934647 178.979274 
L 231.053687 179.910666 
L 231.172728 181.729098 
" style="fill:none;stroke:#2ca02c;stroke-linecap:square;stroke-width:1.5;"/>
   </g>
   <g id="line2d_18">
    <path clip-path="url(#pf87846cc12)" d="M 226.589687 155.16225 
L 226.827767 157.025034 
L 226.827767 158.887818 
L 226.827767 161.105418 
L 227.006327 162.968202 
L 227.006327 164.830986 
L 227.244407 166.69377 
L 227.244407 167.80257 
L 227.482487 168.91137 
L 227.482487 170.02017 
L 227.661047 171.173322 
L 227.899127 171.882954 
L 227.899127 173.390922 
L 228.137207 174.499722 
L 228.137207 175.608522 
L 228.315767 176.717322 
L 228.315767 177.826122 
L 229.208567 179.688906 
L 230.101368 181.950858 
L 231.172728 183.99105 
" style="fill:none;stroke:#d62728;stroke-linecap:square;stroke-width:1.5;"/>
   </g>
   <g id="line2d_19">
    <path clip-path="url(#pf87846cc12)" d="M 226.589687 155.16225 
L 227.661047 157.37985 
L 228.791927 159.242634 
L 228.791927 161.105418 
L 228.791927 162.968202 
L 228.791927 164.431818 
L 228.970487 165.58497 
L 228.970487 167.048586 
L 229.208567 168.157386 
L 229.446647 169.310538 
L 229.684728 170.774154 
L 229.684728 171.882954 
L 229.863287 172.991754 
L 230.339448 174.499722 
L 230.994168 175.963338 
L 231.172728 177.648714 
L 231.410808 179.289738 
L 231.529847 181.152522 
L 231.767927 182.66049 
L 232.184567 184.745034 
" style="fill:none;stroke:#9467bd;stroke-linecap:square;stroke-width:1.5;"/>
   </g>
   <g id="line2d_20">
    <path clip-path="url(#pf87846cc12)" d="M 226.589687 155.16225 
L 226.411127 154.009098 
L 226.173047 152.50113 
L 225.934967 151.436682 
L 225.756407 150.28353 
L 225.518327 148.819914 
L 225.756407 147.711114 
L 226.173047 146.203146 
L 226.589687 144.695178 
L 227.065847 143.231562 
L 227.482487 142.122762 
L 228.137207 140.614794 
L 228.553847 139.151178 
L 228.553847 138.042378 
L 228.553847 136.53441 
L 228.553847 135.469962 
L 228.553847 133.961994 
L 229.030008 132.808842 
L 230.339448 131.345226 
L 231.648888 130.591242 
" style="fill:none;stroke:#8c564b;stroke-linecap:square;stroke-width:1.5;"/>
   </g>
   <g id="line2d_21">
    <path clip-path="url(#pf87846cc12)" d="M 226.589687 155.16225 
L 227.899127 154.408266 
L 229.208567 153.698634 
L 230.994168 153.343818 
L 232.720247 152.545482 
L 234.267767 152.190666 
L 235.993847 151.481034 
L 237.362808 150.682698 
L 238.434168 149.61825 
L 239.565047 148.465098 
L 240.636407 147.356298 
L 241.707767 146.247498 
L 241.707767 145.138698 
L 241.707767 144.029898 
L 241.410168 142.876746 
L 241.172088 141.590538 
L 240.934008 140.30433 
L 240.814967 139.018122 
L 240.636407 137.687562 
L 240.398327 136.401354 
" style="fill:none;stroke:#e377c2;stroke-linecap:square;stroke-width:1.5;"/>
   </g>
   <g id="line2d_22">
    <path clip-path="url(#pf87846cc12)" d="M 226.589687 155.16225 
L 226.351608 153.83169 
L 226.113528 152.589834 
L 225.994487 151.259274 
L 225.756407 149.928714 
L 225.518327 148.642506 
L 225.458808 147.17889 
L 225.280248 146.025738 
L 225.042168 144.73953 
L 224.923127 143.453322 
L 224.685047 142.122762 
L 224.446967 140.836554 
L 224.387448 139.550346 
L 224.149367 138.219786 
L 223.911287 136.933578 
L 223.673207 135.42561 
L 223.494647 133.562826 
L 223.256567 132.09921 
L 223.018487 130.635594 
L 222.601847 129.127626 
" style="fill:none;stroke:#7f7f7f;stroke-linecap:square;stroke-width:1.5;"/>
   </g>
   <g id="line2d_23">
    <path clip-path="url(#pf87846cc12)" d="M 226.589687 155.16225 
L 225.280248 155.517066 
L 223.792248 155.871882 
L 222.423287 156.625866 
L 220.935287 156.980682 
L 219.149687 157.734666 
L 217.364087 158.48865 
L 215.638007 158.843466 
L 214.090487 159.59745 
L 212.126328 159.952266 
L 210.162168 159.952266 
L 207.959927 159.952266 
L 205.995767 159.952266 
L 203.793527 160.351434 
L 201.829367 160.351434 
L 199.627128 160.351434 
L 197.662968 160.351434 
L 195.698807 160.351434 
L 193.734647 160.351434 
L 191.770488 160.351434 
" style="fill:none;stroke:#bcbd22;stroke-linecap:square;stroke-width:1.5;"/>
   </g>
   <g id="line2d_24">
    <path clip-path="url(#pf87846cc12)" d="M 226.589687 155.16225 
L 224.625528 155.16225 
L 222.899448 155.16225 
L 221.590007 155.16225 
L 220.280567 155.16225 
L 218.971127 155.16225 
L 217.661687 155.16225 
L 216.114168 155.517066 
L 213.257207 156.27105 
L 210.400248 157.025034 
L 207.543287 157.779018 
L 204.924408 158.133834 
L 203.138807 158.133834 
L 201.412727 157.779018 
L 199.686647 157.37985 
L 194.270328 156.803274 
L 193.615608 157.202442 
L 191.651447 157.202442 
L 189.865848 157.202442 
L 188.139768 157.202442 
" style="fill:none;stroke:#17becf;stroke-linecap:square;stroke-width:1.5;"/>
   </g>
   <g id="line2d_25">
    <path clip-path="url(#pf87846cc12)" d="M 226.589687 155.16225 
L 224.804088 155.16225 
L 222.839927 155.16225 
L 221.113847 155.16225 
L 219.328248 155.517066 
L 217.364087 155.517066 
L 215.638007 155.517066 
L 213.614328 155.517066 
L 211.888248 155.871882 
L 210.162168 155.871882 
L 208.138487 155.871882 
L 206.412408 155.871882 
L 204.448248 156.226698 
L 202.662647 156.226698 
L 200.936567 156.226698 
L 198.972408 156.226698 
L 196.770168 156.04929 
L 194.806007 155.871882 
L 192.603768 155.517066 
L 190.639608 155.16225 
" style="fill:none;stroke:#1f77b4;stroke-linecap:square;stroke-width:1.5;"/>
   </g>
   <g id="line2d_26">
    <path clip-path="url(#pf87846cc12)" d="M 226.589687 155.16225 
L 225.696888 156.315402 
L 225.042168 157.025034 
L 224.208888 158.178186 
L 223.494647 159.242634 
L 222.185207 159.641802 
L 221.113847 160.395786 
L 220.042487 160.750602 
L 218.256888 161.460234 
L 217.185528 162.613386 
L 216.054647 163.323018 
L 214.745207 164.298762 
L 213.435767 165.052746 
L 212.126328 165.762378 
L 210.816888 166.516362 
L 209.566968 167.225994 
L 208.019448 167.669514 
L 206.531448 168.02433 
L 205.222007 168.379146 
L 203.674487 168.733962 
" style="fill:none;stroke:#ff7f0e;stroke-linecap:square;stroke-width:1.5;"/>
   </g>
   <g id="line2d_27">
    <path clip-path="url(#pf87846cc12)" d="M 226.589687 155.16225 
L 225.101687 155.561418 
L 223.554168 155.561418 
L 222.244728 155.960586 
L 220.697207 155.960586 
L 219.149687 155.960586 
L 217.364087 155.561418 
L 215.816567 155.561418 
L 214.269047 155.16225 
L 212.781047 155.16225 
L 211.293048 155.16225 
L 209.924087 155.16225 
L 208.614647 155.16225 
L 207.126647 155.16225 
L 205.757688 155.16225 
L 204.448248 155.16225 
L 202.960248 155.16225 
L 201.591287 155.561418 
L 200.281847 155.561418 
L 198.793847 155.561418 
" style="fill:none;stroke:#2ca02c;stroke-linecap:square;stroke-width:1.5;"/>
   </g>
   <g id="line2d_28">
    <path clip-path="url(#pf87846cc12)" d="M 226.589687 155.16225 
L 226.351608 155.16225 
L 223.316088 155.871882 
L 221.530487 156.27105 
L 219.804407 156.670218 
L 218.018808 157.202442 
L 216.292728 157.557258 
L 214.507127 157.912074 
L 212.542968 158.71041 
L 210.578807 159.420042 
L 208.614647 160.174026 
L 206.650487 160.92801 
L 204.626807 161.282826 
L 202.662647 161.282826 
L 200.460408 161.282826 
L 198.496248 161.637642 
L 196.532087 161.637642 
L 194.567927 161.637642 
L 192.365688 161.637642 
L 190.163447 161.637642 
" style="fill:none;stroke:#d62728;stroke-linecap:square;stroke-width:1.5;"/>
   </g>
   <g id="line2d_29">
    <path clip-path="url(#pf87846cc12)" d="M 226.589687 155.16225 
L 224.685047 155.206602 
L 222.661367 155.38401 
L 220.816248 155.38401 
L 218.792567 155.38401 
L 216.828407 155.561418 
L 214.864248 155.783178 
L 212.900087 155.783178 
L 210.935927 156.137994 
L 209.150328 156.137994 
L 207.186168 156.137994 
L 204.983927 156.49281 
L 203.019768 156.49281 
L 200.817527 156.49281 
L 198.674807 156.49281 
L 196.472567 156.49281 
L 194.270328 156.49281 
L 192.306168 156.49281 
L 190.103927 156.49281 
L 188.139768 156.49281 
" style="fill:none;stroke:#9467bd;stroke-linecap:square;stroke-width:1.5;"/>
   </g>
   <g id="line2d_30">
    <path clip-path="url(#pf87846cc12)" d="M 226.589687 155.16225 
L 224.625528 155.16225 
L 222.423287 155.16225 
L 220.459127 155.16225 
L 218.256888 155.16225 
L 216.530808 155.517066 
L 214.745207 155.517066 
L 213.019127 155.517066 
L 210.995448 155.517066 
L 209.269367 155.871882 
L 207.067127 155.871882 
L 205.102968 155.871882 
L 203.138807 155.871882 
L 201.174647 155.871882 
L 198.972408 155.871882 
L 196.770168 155.517066 
L 194.389367 154.807434 
L 192.187128 154.452618 
L 190.401527 154.807434 
L 188.854007 155.16225 
" style="fill:none;stroke:#8c564b;stroke-linecap:square;stroke-width:1.5;"/>
   </g>
   <g id="line2d_31">
    <path clip-path="url(#pf87846cc12)" d="M 226.589687 155.16225 
L 226.470647 156.847626 
L 226.470647 158.355594 
L 226.351608 160.174026 
L 226.351608 161.681994 
L 226.292088 163.14561 
L 226.173047 164.830986 
L 226.173047 166.294602 
L 226.173047 167.80257 
L 226.292088 169.310538 
L 226.411127 170.419338 
L 226.589687 171.882954 
L 226.708728 173.390922 
L 226.708728 174.499722 
L 226.708728 175.963338 
L 226.589687 177.471306 
L 226.589687 178.979274 
L 226.708728 180.088074 
L 226.827767 180.797706 
L 226.946808 181.906506 
" style="fill:none;stroke:#e377c2;stroke-linecap:square;stroke-width:1.5;"/>
   </g>
   <g id="line2d_32">
    <path clip-path="url(#pf87846cc12)" d="M 226.589687 155.16225 
L 225.280248 155.16225 
L 223.970808 154.763082 
L 222.661367 154.763082 
L 221.351927 154.408266 
L 220.042487 154.009098 
L 219.566327 154.009098 
L 219.387767 153.654282 
L 219.149687 153.654282 
L 218.971127 153.299466 
L 218.733047 152.900298 
L 218.494968 152.900298 
L 218.256888 152.545482 
L 218.078328 152.545482 
L 217.840248 152.146314 
L 217.661687 151.791498 
L 217.423608 151.791498 
L 217.423608 151.436682 
L 217.423608 151.436682 
L 217.423608 151.436682 
" style="fill:none;stroke:#7f7f7f;stroke-linecap:square;stroke-width:1.5;"/>
   </g>
   <g id="line2d_33">
    <path clip-path="url(#pf87846cc12)" d="M 226.589687 155.16225 
L 225.637368 158.089482 
L 225.042168 161.105418 
L 224.327927 164.03265 
L 223.732728 167.048586 
L 222.899448 169.621002 
L 222.185207 172.592586 
L 221.470968 175.56417 
L 221.351927 177.78177 
L 221.351927 180.398538 
L 221.351927 182.66049 
L 221.351927 184.87809 
L 220.875767 187.09569 
L 218.733047 188.603658 
L 216.471287 190.067274 
L 214.328567 191.575242 
L 210.757367 192.684042 
L 205.519608 193.393674 
L 201.829367 193.792842 
L 198.972408 193.792842 
" style="fill:none;stroke:#bcbd22;stroke-linecap:square;stroke-width:1.5;"/>
   </g>
   <g id="line2d_34">
    <path clip-path="url(#pf87846cc12)" d="M 226.589687 155.16225 
L 223.732728 155.16225 
L 220.637687 155.16225 
L 217.780728 155.561418 
L 214.804727 155.561418 
L 211.947767 155.561418 
L 208.852727 155.916234 
L 205.757688 155.916234 
L 202.900727 156.27105 
L 199.805688 156.27105 
L 196.948727 156.27105 
L 194.567927 158.48865 
L 192.306168 160.573194 
L 189.746807 162.435978 
L 187.366007 164.298762 
L 184.866167 166.161546 
L 182.247287 168.02433 
L 179.747447 169.842762 
L 176.890488 170.24193 
L 174.033527 170.596746 
" style="fill:none;stroke:#17becf;stroke-linecap:square;stroke-width:1.5;"/>
   </g>
   <g id="patch_3">
    <path d="M 48.029688 288.21825 
L 48.029688 22.10625 
" style="fill:none;stroke:#000000;stroke-linecap:square;stroke-linejoin:miter;stroke-width:0.8;"/>
   </g>
   <g id="patch_4">
    <path d="M 405.149688 288.21825 
L 405.149688 22.10625 
" style="fill:none;stroke:#000000;stroke-linecap:square;stroke-linejoin:miter;stroke-width:0.8;"/>
   </g>
   <g id="patch_5">
    <path d="M 48.029687 288.21825 
L 405.149688 288.21825 
" style="fill:none;stroke:#000000;stroke-linecap:square;stroke-linejoin:miter;stroke-width:0.8;"/>
   </g>
   <g id="patch_6">
    <path d="M 48.029687 22.10625 
L 405.149688 22.10625 
" style="fill:none;stroke:#000000;stroke-linecap:square;stroke-linejoin:miter;stroke-width:0.8;"/>
   </g>
   <g id="text_15">
    <!-- gates_6 -->
    <g transform="translate(203.116562 16.10625)scale(0.12 -0.12)">
     <defs>
      <path d="M 45.40625 27.984375 
Q 45.40625 37.75 41.375 43.109375 
Q 37.359375 48.484375 30.078125 48.484375 
Q 22.859375 48.484375 18.828125 43.109375 
Q 14.796875 37.75 14.796875 27.984375 
Q 14.796875 18.265625 18.828125 12.890625 
Q 22.859375 7.515625 30.078125 7.515625 
Q 37.359375 7.515625 41.375 12.890625 
Q 45.40625 18.265625 45.40625 27.984375 
z
M 54.390625 6.78125 
Q 54.390625 -7.171875 48.1875 -13.984375 
Q 42 -20.796875 29.203125 -20.796875 
Q 24.46875 -20.796875 20.265625 -20.09375 
Q 16.0625 -19.390625 12.109375 -17.921875 
L 12.109375 -9.1875 
Q 16.0625 -11.328125 19.921875 -12.34375 
Q 23.78125 -13.375 27.78125 -13.375 
Q 36.625 -13.375 41.015625 -8.765625 
Q 45.40625 -4.15625 45.40625 5.171875 
L 45.40625 9.625 
Q 42.625 4.78125 38.28125 2.390625 
Q 33.9375 0 27.875 0 
Q 17.828125 0 11.671875 7.65625 
Q 5.515625 15.328125 5.515625 27.984375 
Q 5.515625 40.671875 11.671875 48.328125 
Q 17.828125 56 27.875 56 
Q 33.9375 56 38.28125 53.609375 
Q 42.625 51.21875 45.40625 46.390625 
L 45.40625 54.6875 
L 54.390625 54.6875 
z
" id="DejaVuSans-103"/>
      <path d="M 34.28125 27.484375 
Q 23.390625 27.484375 19.1875 25 
Q 14.984375 22.515625 14.984375 16.5 
Q 14.984375 11.71875 18.140625 8.90625 
Q 21.296875 6.109375 26.703125 6.109375 
Q 34.1875 6.109375 38.703125 11.40625 
Q 43.21875 16.703125 43.21875 25.484375 
L 43.21875 27.484375 
z
M 52.203125 31.203125 
L 52.203125 0 
L 43.21875 0 
L 43.21875 8.296875 
Q 40.140625 3.328125 35.546875 0.953125 
Q 30.953125 -1.421875 24.3125 -1.421875 
Q 15.921875 -1.421875 10.953125 3.296875 
Q 6 8.015625 6 15.921875 
Q 6 25.140625 12.171875 29.828125 
Q 18.359375 34.515625 30.609375 34.515625 
L 43.21875 34.515625 
L 43.21875 35.40625 
Q 43.21875 41.609375 39.140625 45 
Q 35.0625 48.390625 27.6875 48.390625 
Q 23 48.390625 18.546875 47.265625 
Q 14.109375 46.140625 10.015625 43.890625 
L 10.015625 52.203125 
Q 14.9375 54.109375 19.578125 55.046875 
Q 24.21875 56 28.609375 56 
Q 40.484375 56 46.34375 49.84375 
Q 52.203125 43.703125 52.203125 31.203125 
z
" id="DejaVuSans-97"/>
      <path d="M 18.3125 70.21875 
L 18.3125 54.6875 
L 36.8125 54.6875 
L 36.8125 47.703125 
L 18.3125 47.703125 
L 18.3125 18.015625 
Q 18.3125 11.328125 20.140625 9.421875 
Q 21.96875 7.515625 27.59375 7.515625 
L 36.8125 7.515625 
L 36.8125 0 
L 27.59375 0 
Q 17.1875 0 13.234375 3.875 
Q 9.28125 7.765625 9.28125 18.015625 
L 9.28125 47.703125 
L 2.6875 47.703125 
L 2.6875 54.6875 
L 9.28125 54.6875 
L 9.28125 70.21875 
z
" id="DejaVuSans-116"/>
      <path d="M 56.203125 29.59375 
L 56.203125 25.203125 
L 14.890625 25.203125 
Q 15.484375 15.921875 20.484375 11.0625 
Q 25.484375 6.203125 34.421875 6.203125 
Q 39.59375 6.203125 44.453125 7.46875 
Q 49.3125 8.734375 54.109375 11.28125 
L 54.109375 2.78125 
Q 49.265625 0.734375 44.1875 -0.34375 
Q 39.109375 -1.421875 33.890625 -1.421875 
Q 20.796875 -1.421875 13.15625 6.1875 
Q 5.515625 13.8125 5.515625 26.8125 
Q 5.515625 40.234375 12.765625 48.109375 
Q 20.015625 56 32.328125 56 
Q 43.359375 56 49.78125 48.890625 
Q 56.203125 41.796875 56.203125 29.59375 
z
M 47.21875 32.234375 
Q 47.125 39.59375 43.09375 43.984375 
Q 39.0625 48.390625 32.421875 48.390625 
Q 24.90625 48.390625 20.390625 44.140625 
Q 15.875 39.890625 15.1875 32.171875 
z
" id="DejaVuSans-101"/>
      <path d="M 44.28125 53.078125 
L 44.28125 44.578125 
Q 40.484375 46.53125 36.375 47.5 
Q 32.28125 48.484375 27.875 48.484375 
Q 21.1875 48.484375 17.84375 46.4375 
Q 14.5 44.390625 14.5 40.28125 
Q 14.5 37.15625 16.890625 35.375 
Q 19.28125 33.59375 26.515625 31.984375 
L 29.59375 31.296875 
Q 39.15625 29.25 43.1875 25.515625 
Q 47.21875 21.78125 47.21875 15.09375 
Q 47.21875 7.46875 41.1875 3.015625 
Q 35.15625 -1.421875 24.609375 -1.421875 
Q 20.21875 -1.421875 15.453125 -0.5625 
Q 10.6875 0.296875 5.421875 2 
L 5.421875 11.28125 
Q 10.40625 8.6875 15.234375 7.390625 
Q 20.0625 6.109375 24.8125 6.109375 
Q 31.15625 6.109375 34.5625 8.28125 
Q 37.984375 10.453125 37.984375 14.40625 
Q 37.984375 18.0625 35.515625 20.015625 
Q 33.0625 21.96875 24.703125 23.78125 
L 21.578125 24.515625 
Q 13.234375 26.265625 9.515625 29.90625 
Q 5.8125 33.546875 5.8125 39.890625 
Q 5.8125 47.609375 11.28125 51.796875 
Q 16.75 56 26.8125 56 
Q 31.78125 56 36.171875 55.265625 
Q 40.578125 54.546875 44.28125 53.078125 
z
" id="DejaVuSans-115"/>
      <path d="M 50.984375 -16.609375 
L 50.984375 -23.578125 
L -0.984375 -23.578125 
L -0.984375 -16.609375 
z
" id="DejaVuSans-95"/>
      <path d="M 33.015625 40.375 
Q 26.375 40.375 22.484375 35.828125 
Q 18.609375 31.296875 18.609375 23.390625 
Q 18.609375 15.53125 22.484375 10.953125 
Q 26.375 6.390625 33.015625 6.390625 
Q 39.65625 6.390625 43.53125 10.953125 
Q 47.40625 15.53125 47.40625 23.390625 
Q 47.40625 31.296875 43.53125 35.828125 
Q 39.65625 40.375 33.015625 40.375 
z
M 52.59375 71.296875 
L 52.59375 62.3125 
Q 48.875 64.0625 45.09375 64.984375 
Q 41.3125 65.921875 37.59375 65.921875 
Q 27.828125 65.921875 22.671875 59.328125 
Q 17.53125 52.734375 16.796875 39.40625 
Q 19.671875 43.65625 24.015625 45.921875 
Q 28.375 48.1875 33.59375 48.1875 
Q 44.578125 48.1875 50.953125 41.515625 
Q 57.328125 34.859375 57.328125 23.390625 
Q 57.328125 12.15625 50.6875 5.359375 
Q 44.046875 -1.421875 33.015625 -1.421875 
Q 20.359375 -1.421875 13.671875 8.265625 
Q 6.984375 17.96875 6.984375 36.375 
Q 6.984375 53.65625 15.1875 63.9375 
Q 23.390625 74.21875 37.203125 74.21875 
Q 40.921875 74.21875 44.703125 73.484375 
Q 48.484375 72.75 52.59375 71.296875 
z
" id="DejaVuSans-54"/>
     </defs>
     <use xlink:href="#DejaVuSans-103"/>
     <use x="63.476562" xlink:href="#DejaVuSans-97"/>
     <use x="124.755859" xlink:href="#DejaVuSans-116"/>
     <use x="163.964844" xlink:href="#DejaVuSans-101"/>
     <use x="225.488281" xlink:href="#DejaVuSans-115"/>
     <use x="277.587891" xlink:href="#DejaVuSans-95"/>
     <use x="327.587891" xlink:href="#DejaVuSans-54"/>
    </g>
   </g>
  </g>
 </g>
 <defs>
  <clipPath id="pf87846cc12">
   <rect height="266.112" width="357.12" x="48.029688" y="22.10625"/>
  </clipPath>
 </defs>
</svg>
