<?xml version="1.0" encoding="utf-8" standalone="no"?>
<!DOCTYPE svg PUBLIC "-//W3C//DTD SVG 1.1//EN"
  "http://www.w3.org/Graphics/SVG/1.1/DTD/svg11.dtd">
<!-- Created with matplotlib (https://matplotlib.org/) -->
<svg height="311.9745pt" version="1.1" viewBox="0 0 425.074687 311.9745" width="425.074687pt" xmlns="http://www.w3.org/2000/svg" xmlns:xlink="http://www.w3.org/1999/xlink">
 <metadata>
  <rdf:RDF xmlns:cc="http://creativecommons.org/ns#" xmlns:dc="http://purl.org/dc/elements/1.1/" xmlns:rdf="http://www.w3.org/1999/02/22-rdf-syntax-ns#">
   <cc:Work>
    <dc:type rdf:resource="http://purl.org/dc/dcmitype/StillImage"/>
    <dc:date>2023-10-16T01:55:28.801557</dc:date>
    <dc:format>image/svg+xml</dc:format>
    <dc:creator>
     <cc:Agent>
      <dc:title>Matplotlib v3.3.4, https://matplotlib.org/</dc:title>
     </cc:Agent>
    </dc:creator>
   </cc:Work>
  </rdf:RDF>
 </metadata>
 <defs>
  <style type="text/css">*{stroke-linecap:butt;stroke-linejoin:round;}</style>
 </defs>
 <g id="figure_1">
  <g id="patch_1">
   <path d="M 0 311.9745 
L 425.074687 311.9745 
L 425.074687 0 
L 0 0 
z
" style="fill:#ffffff;"/>
  </g>
  <g id="axes_1">
   <g id="patch_2">
    <path d="M 48.029688 288.096375 
L 405.149688 288.096375 
L 405.149688 21.984375 
L 48.029688 21.984375 
z
" style="fill:#ffffff;"/>
   </g>
   <g id="matplotlib.axis_1">
    <g id="xtick_1">
     <g id="line2d_1">
      <defs>
       <path d="M 0 0 
L 0 3.5 
" id="m4fe256f744" style="stroke:#000000;stroke-width:0.8;"/>
      </defs>
      <g>
       <use style="stroke:#000000;stroke-width:0.8;" x="48.029687" xlink:href="#m4fe256f744" y="288.096375"/>
      </g>
     </g>
     <g id="text_1">
      <!-- −1500 -->
      <g transform="translate(31.114844 302.694812)scale(0.1 -0.1)">
       <defs>
        <path d="M 10.59375 35.5 
L 73.1875 35.5 
L 73.1875 27.203125 
L 10.59375 27.203125 
z
" id="DejaVuSans-8722"/>
        <path d="M 12.40625 8.296875 
L 28.515625 8.296875 
L 28.515625 63.921875 
L 10.984375 60.40625 
L 10.984375 69.390625 
L 28.421875 72.90625 
L 38.28125 72.90625 
L 38.28125 8.296875 
L 54.390625 8.296875 
L 54.390625 0 
L 12.40625 0 
z
" id="DejaVuSans-49"/>
        <path d="M 10.796875 72.90625 
L 49.515625 72.90625 
L 49.515625 64.59375 
L 19.828125 64.59375 
L 19.828125 46.734375 
Q 21.96875 47.46875 24.109375 47.828125 
Q 26.265625 48.1875 28.421875 48.1875 
Q 40.625 48.1875 47.75 41.5 
Q 54.890625 34.8125 54.890625 23.390625 
Q 54.890625 11.625 47.5625 5.09375 
Q 40.234375 -1.421875 26.90625 -1.421875 
Q 22.3125 -1.421875 17.546875 -0.640625 
Q 12.796875 0.140625 7.71875 1.703125 
L 7.71875 11.625 
Q 12.109375 9.234375 16.796875 8.0625 
Q 21.484375 6.890625 26.703125 6.890625 
Q 35.15625 6.890625 40.078125 11.328125 
Q 45.015625 15.765625 45.015625 23.390625 
Q 45.015625 31 40.078125 35.4375 
Q 35.15625 39.890625 26.703125 39.890625 
Q 22.75 39.890625 18.8125 39.015625 
Q 14.890625 38.140625 10.796875 36.28125 
z
" id="DejaVuSans-53"/>
        <path d="M 31.78125 66.40625 
Q 24.171875 66.40625 20.328125 58.90625 
Q 16.5 51.421875 16.5 36.375 
Q 16.5 21.390625 20.328125 13.890625 
Q 24.171875 6.390625 31.78125 6.390625 
Q 39.453125 6.390625 43.28125 13.890625 
Q 47.125 21.390625 47.125 36.375 
Q 47.125 51.421875 43.28125 58.90625 
Q 39.453125 66.40625 31.78125 66.40625 
z
M 31.78125 74.21875 
Q 44.046875 74.21875 50.515625 64.515625 
Q 56.984375 54.828125 56.984375 36.375 
Q 56.984375 17.96875 50.515625 8.265625 
Q 44.046875 -1.421875 31.78125 -1.421875 
Q 19.53125 -1.421875 13.0625 8.265625 
Q 6.59375 17.96875 6.59375 36.375 
Q 6.59375 54.828125 13.0625 64.515625 
Q 19.53125 74.21875 31.78125 74.21875 
z
" id="DejaVuSans-48"/>
       </defs>
       <use xlink:href="#DejaVuSans-8722"/>
       <use x="83.789062" xlink:href="#DejaVuSans-49"/>
       <use x="147.412109" xlink:href="#DejaVuSans-53"/>
       <use x="211.035156" xlink:href="#DejaVuSans-48"/>
       <use x="274.658203" xlink:href="#DejaVuSans-48"/>
      </g>
     </g>
    </g>
    <g id="xtick_2">
     <g id="line2d_2">
      <g>
       <use style="stroke:#000000;stroke-width:0.8;" x="107.549688" xlink:href="#m4fe256f744" y="288.096375"/>
      </g>
     </g>
     <g id="text_2">
      <!-- −1000 -->
      <g transform="translate(90.634844 302.694812)scale(0.1 -0.1)">
       <use xlink:href="#DejaVuSans-8722"/>
       <use x="83.789062" xlink:href="#DejaVuSans-49"/>
       <use x="147.412109" xlink:href="#DejaVuSans-48"/>
       <use x="211.035156" xlink:href="#DejaVuSans-48"/>
       <use x="274.658203" xlink:href="#DejaVuSans-48"/>
      </g>
     </g>
    </g>
    <g id="xtick_3">
     <g id="line2d_3">
      <g>
       <use style="stroke:#000000;stroke-width:0.8;" x="167.069687" xlink:href="#m4fe256f744" y="288.096375"/>
      </g>
     </g>
     <g id="text_3">
      <!-- −500 -->
      <g transform="translate(153.336094 302.694812)scale(0.1 -0.1)">
       <use xlink:href="#DejaVuSans-8722"/>
       <use x="83.789062" xlink:href="#DejaVuSans-53"/>
       <use x="147.412109" xlink:href="#DejaVuSans-48"/>
       <use x="211.035156" xlink:href="#DejaVuSans-48"/>
      </g>
     </g>
    </g>
    <g id="xtick_4">
     <g id="line2d_4">
      <g>
       <use style="stroke:#000000;stroke-width:0.8;" x="226.589687" xlink:href="#m4fe256f744" y="288.096375"/>
      </g>
     </g>
     <g id="text_4">
      <!-- 0 -->
      <g transform="translate(223.408437 302.694812)scale(0.1 -0.1)">
       <use xlink:href="#DejaVuSans-48"/>
      </g>
     </g>
    </g>
    <g id="xtick_5">
     <g id="line2d_5">
      <g>
       <use style="stroke:#000000;stroke-width:0.8;" x="286.109688" xlink:href="#m4fe256f744" y="288.096375"/>
      </g>
     </g>
     <g id="text_5">
      <!-- 500 -->
      <g transform="translate(276.565938 302.694812)scale(0.1 -0.1)">
       <use xlink:href="#DejaVuSans-53"/>
       <use x="63.623047" xlink:href="#DejaVuSans-48"/>
       <use x="127.246094" xlink:href="#DejaVuSans-48"/>
      </g>
     </g>
    </g>
    <g id="xtick_6">
     <g id="line2d_6">
      <g>
       <use style="stroke:#000000;stroke-width:0.8;" x="345.629687" xlink:href="#m4fe256f744" y="288.096375"/>
      </g>
     </g>
     <g id="text_6">
      <!-- 1000 -->
      <g transform="translate(332.904687 302.694812)scale(0.1 -0.1)">
       <use xlink:href="#DejaVuSans-49"/>
       <use x="63.623047" xlink:href="#DejaVuSans-48"/>
       <use x="127.246094" xlink:href="#DejaVuSans-48"/>
       <use x="190.869141" xlink:href="#DejaVuSans-48"/>
      </g>
     </g>
    </g>
    <g id="xtick_7">
     <g id="line2d_7">
      <g>
       <use style="stroke:#000000;stroke-width:0.8;" x="405.149688" xlink:href="#m4fe256f744" y="288.096375"/>
      </g>
     </g>
     <g id="text_7">
      <!-- 1500 -->
      <g transform="translate(392.424688 302.694812)scale(0.1 -0.1)">
       <use xlink:href="#DejaVuSans-49"/>
       <use x="63.623047" xlink:href="#DejaVuSans-53"/>
       <use x="127.246094" xlink:href="#DejaVuSans-48"/>
       <use x="190.869141" xlink:href="#DejaVuSans-48"/>
      </g>
     </g>
    </g>
   </g>
   <g id="matplotlib.axis_2">
    <g id="ytick_1">
     <g id="line2d_8">
      <defs>
       <path d="M 0 0 
L -3.5 0 
" id="mb18cadbccb" style="stroke:#000000;stroke-width:0.8;"/>
      </defs>
      <g>
       <use style="stroke:#000000;stroke-width:0.8;" x="48.029688" xlink:href="#mb18cadbccb" y="288.096375"/>
      </g>
     </g>
     <g id="text_8">
      <!-- −1500 -->
      <g transform="translate(7.2 291.895594)scale(0.1 -0.1)">
       <use xlink:href="#DejaVuSans-8722"/>
       <use x="83.789062" xlink:href="#DejaVuSans-49"/>
       <use x="147.412109" xlink:href="#DejaVuSans-53"/>
       <use x="211.035156" xlink:href="#DejaVuSans-48"/>
       <use x="274.658203" xlink:href="#DejaVuSans-48"/>
      </g>
     </g>
    </g>
    <g id="ytick_2">
     <g id="line2d_9">
      <g>
       <use style="stroke:#000000;stroke-width:0.8;" x="48.029688" xlink:href="#mb18cadbccb" y="243.744375"/>
      </g>
     </g>
     <g id="text_9">
      <!-- −1000 -->
      <g transform="translate(7.2 247.543594)scale(0.1 -0.1)">
       <use xlink:href="#DejaVuSans-8722"/>
       <use x="83.789062" xlink:href="#DejaVuSans-49"/>
       <use x="147.412109" xlink:href="#DejaVuSans-48"/>
       <use x="211.035156" xlink:href="#DejaVuSans-48"/>
       <use x="274.658203" xlink:href="#DejaVuSans-48"/>
      </g>
     </g>
    </g>
    <g id="ytick_3">
     <g id="line2d_10">
      <g>
       <use style="stroke:#000000;stroke-width:0.8;" x="48.029688" xlink:href="#mb18cadbccb" y="199.392375"/>
      </g>
     </g>
     <g id="text_10">
      <!-- −500 -->
      <g transform="translate(13.5625 203.191594)scale(0.1 -0.1)">
       <use xlink:href="#DejaVuSans-8722"/>
       <use x="83.789062" xlink:href="#DejaVuSans-53"/>
       <use x="147.412109" xlink:href="#DejaVuSans-48"/>
       <use x="211.035156" xlink:href="#DejaVuSans-48"/>
      </g>
     </g>
    </g>
    <g id="ytick_4">
     <g id="line2d_11">
      <g>
       <use style="stroke:#000000;stroke-width:0.8;" x="48.029688" xlink:href="#mb18cadbccb" y="155.040375"/>
      </g>
     </g>
     <g id="text_11">
      <!-- 0 -->
      <g transform="translate(34.667187 158.839594)scale(0.1 -0.1)">
       <use xlink:href="#DejaVuSans-48"/>
      </g>
     </g>
    </g>
    <g id="ytick_5">
     <g id="line2d_12">
      <g>
       <use style="stroke:#000000;stroke-width:0.8;" x="48.029688" xlink:href="#mb18cadbccb" y="110.688375"/>
      </g>
     </g>
     <g id="text_12">
      <!-- 500 -->
      <g transform="translate(21.942187 114.487594)scale(0.1 -0.1)">
       <use xlink:href="#DejaVuSans-53"/>
       <use x="63.623047" xlink:href="#DejaVuSans-48"/>
       <use x="127.246094" xlink:href="#DejaVuSans-48"/>
      </g>
     </g>
    </g>
    <g id="ytick_6">
     <g id="line2d_13">
      <g>
       <use style="stroke:#000000;stroke-width:0.8;" x="48.029688" xlink:href="#mb18cadbccb" y="66.336375"/>
      </g>
     </g>
     <g id="text_13">
      <!-- 1000 -->
      <g transform="translate(15.579687 70.135594)scale(0.1 -0.1)">
       <use xlink:href="#DejaVuSans-49"/>
       <use x="63.623047" xlink:href="#DejaVuSans-48"/>
       <use x="127.246094" xlink:href="#DejaVuSans-48"/>
       <use x="190.869141" xlink:href="#DejaVuSans-48"/>
      </g>
     </g>
    </g>
    <g id="ytick_7">
     <g id="line2d_14">
      <g>
       <use style="stroke:#000000;stroke-width:0.8;" x="48.029688" xlink:href="#mb18cadbccb" y="21.984375"/>
      </g>
     </g>
     <g id="text_14">
      <!-- 1500 -->
      <g transform="translate(15.579687 25.783594)scale(0.1 -0.1)">
       <use xlink:href="#DejaVuSans-49"/>
       <use x="63.623047" xlink:href="#DejaVuSans-53"/>
       <use x="127.246094" xlink:href="#DejaVuSans-48"/>
       <use x="190.869141" xlink:href="#DejaVuSans-48"/>
      </g>
     </g>
    </g>
   </g>
   <g id="line2d_15">
    <path clip-path="url(#p1c2c4aa7f3)" d="M 226.589687 155.040375 
L 234.386808 153.709815 
L 242.005368 152.201847 
L 249.802487 150.959991 
L 255.694967 147.944055 
L 261.111288 144.617655 
L 266.765688 142.000887 
L 272.420088 141.291255 
L 278.074487 140.492919 
L 283.788408 139.783287 
L 287.776248 140.492919 
L 292.002167 140.892087 
L 296.287607 141.646071 
L 300.513528 142.000887 
L 304.739447 142.355703 
L 308.548727 143.154039 
L 311.108088 145.016823 
L 313.667447 146.835255 
L 316.286327 148.698039 
L 318.905207 150.560823 
" style="fill:none;stroke:#1f77b4;stroke-linecap:square;stroke-width:1.5;"/>
   </g>
   <g id="line2d_16">
    <path clip-path="url(#p1c2c4aa7f3)" d="M 226.589687 155.040375 
L 227.958647 158.721591 
L 229.387127 162.447159 
L 228.434808 165.817911 
L 226.351608 168.789495 
L 222.304248 172.869879 
L 218.316407 176.595447 
L 214.328567 180.276663 
L 211.471608 184.756215 
L 209.328888 189.590583 
L 207.186168 194.424951 
L 206.055287 200.368119 
L 206.055287 205.912119 
L 206.055287 212.653623 
L 206.055287 219.483831 
L 206.531448 225.426999 
L 206.769528 231.591927 
L 207.424248 238.289079 
L 208.376567 244.941879 
L 208.614647 251.284215 
" style="fill:none;stroke:#ff7f0e;stroke-linecap:square;stroke-width:1.5;"/>
   </g>
   <g id="line2d_17">
    <path clip-path="url(#p1c2c4aa7f3)" d="M 226.589687 155.040375 
L 219.447287 155.439543 
L 212.423927 155.616951 
L 205.817207 156.326583 
L 198.972408 157.479735 
L 192.425207 158.189367 
L 186.711287 159.298167 
L 182.009208 160.052151 
L 177.783288 160.806135 
L 173.974007 162.668919 
L 169.986167 164.886519 
L 165.522167 167.858103 
L 162.189048 170.075703 
L 158.855928 173.801271 
L 158.201208 174.555255 
L 154.213368 178.990455 
L 150.166008 183.470007 
L 148.023287 187.550391 
L 146.654328 190.921143 
L 145.225847 194.602359 
" style="fill:none;stroke:#2ca02c;stroke-linecap:square;stroke-width:1.5;"/>
   </g>
   <g id="line2d_18">
    <path clip-path="url(#p1c2c4aa7f3)" d="M 226.589687 155.040375 
L 225.637368 158.588535 
L 224.685047 162.092343 
L 225.637368 165.640503 
L 227.720567 168.612087 
L 230.101368 171.982839 
L 232.720247 174.910071 
L 236.470008 177.172023 
L 240.219767 179.389623 
L 244.029047 181.607223 
L 247.064568 182.716023 
L 250.040568 183.115191 
L 252.599928 183.470007 
L 255.337848 183.869175 
L 257.956727 184.046583 
L 260.635128 184.401399 
L 263.313527 184.800567 
L 264.980087 186.264183 
L 266.646647 187.772151 
L 268.313207 188.880951 
" style="fill:none;stroke:#d62728;stroke-linecap:square;stroke-width:1.5;"/>
   </g>
   <g id="line2d_19">
    <path clip-path="url(#p1c2c4aa7f3)" d="M 226.589687 155.040375 
L 227.303927 155.794359 
L 227.542007 155.794359 
L 227.542007 155.794359 
L 227.780088 155.794359 
L 227.780088 155.794359 
L 228.018168 155.794359 
L 228.256248 155.794359 
L 228.256248 155.794359 
L 228.494327 156.149175 
L 228.672888 156.149175 
L 228.672888 156.149175 
L 228.910967 156.149175 
L 229.149047 156.149175 
L 229.149047 156.149175 
L 229.387127 156.149175 
L 229.387127 156.149175 
L 229.625207 156.903159 
L 229.625207 157.302327 
L 229.625207 157.657143 
" style="fill:none;stroke:#9467bd;stroke-linecap:square;stroke-width:1.5;"/>
   </g>
   <g id="line2d_20">
    <path clip-path="url(#p1c2c4aa7f3)" d="M 226.589687 155.040375 
L 226.589687 155.794359 
L 226.827767 156.149175 
L 226.827767 156.548343 
L 226.827767 157.302327 
L 226.827767 157.657143 
L 226.827767 158.011959 
L 227.065847 158.411127 
L 226.351608 160.451319 
L 225.637368 162.314103 
L 224.982647 164.176887 
L 223.554168 166.749303 
L 222.125687 169.366071 
L 222.482808 171.938487 
L 219.625847 174.910071 
L 217.066487 177.926007 
L 214.447608 181.074999 
L 211.888248 184.046583 
L 209.031287 187.195575 
L 204.983927 190.521975 
" style="fill:none;stroke:#8c564b;stroke-linecap:square;stroke-width:1.5;"/>
   </g>
   <g id="line2d_21">
    <path clip-path="url(#p1c2c4aa7f3)" d="M 226.589687 155.040375 
L 231.053687 154.685559 
L 235.339127 154.286391 
L 239.803127 153.931575 
L 241.231607 153.576759 
L 242.422008 153.576759 
L 243.076728 153.177591 
L 242.838648 153.177591 
L 242.600568 153.177591 
L 242.183927 152.822775 
L 241.945847 152.822775 
L 241.707767 152.822775 
L 241.469687 152.822775 
L 241.469687 152.423607 
L 241.469687 152.423607 
L 241.231607 152.423607 
L 241.231607 152.068791 
L 240.993527 151.713975 
L 240.993527 151.359159 
L 240.636407 150.605175 
" style="fill:none;stroke:#e377c2;stroke-linecap:square;stroke-width:1.5;"/>
   </g>
   <g id="line2d_22">
    <path clip-path="url(#p1c2c4aa7f3)" d="M 226.589687 155.040375 
L 226.232567 154.330743 
L 225.994487 153.399351 
L 225.756407 152.645367 
L 225.399287 151.713975 
L 225.161207 150.605175 
L 225.161207 149.141559 
L 224.923127 147.988407 
L 224.685047 146.524791 
L 225.161207 144.662007 
L 228.375287 142.045239 
L 231.410808 139.073655 
L 234.624887 136.501239 
L 238.850808 134.638455 
L 243.314808 133.130487 
L 247.778807 131.312055 
L 252.302327 129.804087 
L 256.528248 127.941303 
L 260.278008 126.433335 
L 264.325367 124.570551 
" style="fill:none;stroke:#7f7f7f;stroke-linecap:square;stroke-width:1.5;"/>
   </g>
   <g id="line2d_23">
    <path clip-path="url(#p1c2c4aa7f3)" d="M 226.589687 155.040375 
L 224.923127 155.040375 
L 223.256567 155.040375 
L 221.590007 155.040375 
L 219.923448 155.040375 
L 218.078328 155.040375 
L 216.411767 154.685559 
L 214.566647 154.685559 
L 214.328567 154.330743 
L 214.328567 154.330743 
L 211.947767 154.330743 
L 207.245688 153.975927 
L 204.864888 154.330743 
L 202.543608 154.330743 
L 200.638968 154.330743 
L 198.972408 154.330743 
L 197.543927 153.975927 
L 195.877367 153.975927 
L 194.270328 153.576759 
L 192.603768 153.177591 
" style="fill:none;stroke:#bcbd22;stroke-linecap:square;stroke-width:1.5;"/>
   </g>
   <g id="line2d_24">
    <path clip-path="url(#p1c2c4aa7f3)" d="M 226.589687 155.040375 
L 224.685047 154.330743 
L 222.780407 153.576759 
L 220.399608 153.177591 
L 218.078328 152.822775 
L 216.173687 152.467959 
L 214.566647 152.113143 
L 212.662007 151.713975 
L 210.757367 151.314807 
L 209.090807 150.605175 
L 206.948087 150.605175 
L 205.222007 150.028599 
L 203.436408 149.318967 
L 201.769847 148.520631 
L 200.162807 148.520631 
L 198.734328 148.520631 
L 197.067768 148.343223 
L 195.639287 148.343223 
L 194.032247 147.234423 
L 192.365688 145.948215 
" style="fill:none;stroke:#17becf;stroke-linecap:square;stroke-width:1.5;"/>
   </g>
   <g id="line2d_25">
    <path clip-path="url(#p1c2c4aa7f3)" d="M 226.589687 155.040375 
L 224.744567 153.931575 
L 222.839927 153.177591 
L 220.935287 152.068791 
L 218.614007 152.068791 
L 216.471287 152.068791 
L 214.328567 152.068791 
L 212.245367 152.068791 
L 210.340727 152.423607 
L 208.436087 152.423607 
L 206.590968 152.778423 
L 204.686328 153.177591 
L 203.257847 153.532407 
L 201.591287 153.931575 
L 199.984248 154.286391 
L 197.841527 153.931575 
L 195.698807 153.532407 
L 193.615608 153.177591 
L 191.710967 152.778423 
L 189.806328 153.177591 
" style="fill:none;stroke:#1f77b4;stroke-linecap:square;stroke-width:1.5;"/>
   </g>
   <g id="line2d_26">
    <path clip-path="url(#p1c2c4aa7f3)" d="M 226.589687 155.040375 
L 224.923127 155.439543 
L 223.256567 155.439543 
L 221.351927 155.794359 
L 219.268728 156.548343 
L 217.364087 156.903159 
L 215.459448 157.302327 
L 213.614328 157.657143 
L 211.709688 158.011959 
L 209.805048 158.411127 
L 208.198007 158.411127 
L 206.293367 158.765943 
L 204.388727 159.120759 
L 202.543608 159.697335 
L 200.638968 160.052151 
L 198.734328 160.628727 
L 196.889207 161.027895 
L 194.984567 161.737527 
L 193.079927 162.092343 
L 191.413367 162.668919 
" style="fill:none;stroke:#ff7f0e;stroke-linecap:square;stroke-width:1.5;"/>
   </g>
   <g id="line2d_27">
    <path clip-path="url(#p1c2c4aa7f3)" d="M 226.589687 155.040375 
L 225.875448 156.149175 
L 225.399287 157.257975 
L 224.923127 158.366775 
L 224.208888 159.830391 
L 223.732728 160.983543 
L 222.839927 162.092343 
L 221.649528 162.846327 
L 220.221047 163.555959 
L 219.030647 164.354295 
L 217.899767 165.063927 
L 216.471287 165.773559 
L 215.518968 166.571895 
L 214.328567 167.281527 
L 213.376248 168.035511 
L 212.423927 168.789495 
L 211.233528 169.499127 
L 210.340727 170.297463 
L 209.388407 170.829687 
L 208.198007 171.938487 
" style="fill:none;stroke:#2ca02c;stroke-linecap:square;stroke-width:1.5;"/>
   </g>
   <g id="line2d_28">
    <path clip-path="url(#p1c2c4aa7f3)" d="M 226.589687 155.040375 
L 225.637368 155.750007 
L 224.506487 156.548343 
L 223.316088 157.257975 
L 222.363767 157.967607 
L 220.935287 158.411127 
L 219.744888 159.120759 
L 218.375927 159.830391 
L 217.185528 160.628727 
L 215.757047 160.983543 
L 214.566647 161.693175 
L 213.376248 162.047991 
L 212.245367 162.846327 
L 211.054968 163.201143 
L 209.388407 163.910775 
L 207.959927 164.354295 
L 206.531448 165.063927 
L 205.162487 165.418743 
L 203.734007 165.773559 
L 202.305527 164.531703 
" style="fill:none;stroke:#d62728;stroke-linecap:square;stroke-width:1.5;"/>
   </g>
   <g id="line2d_29">
    <path clip-path="url(#p1c2c4aa7f3)" d="M 226.589687 155.040375 
L 225.875448 154.596855 
L 225.161207 154.419447 
L 224.506487 154.242039 
L 223.792248 154.064631 
L 223.792248 154.064631 
L 223.792248 154.064631 
L 223.792248 154.064631 
L 223.792248 154.064631 
L 223.792248 154.064631 
L 223.792248 154.064631 
L 224.030327 154.064631 
L 224.030327 154.064631 
L 224.030327 154.064631 
L 224.030327 154.064631 
L 224.030327 154.419447 
L 224.030327 154.419447 
L 224.268407 154.419447 
L 224.268407 154.419447 
L 224.268407 154.419447 
" style="fill:none;stroke:#9467bd;stroke-linecap:square;stroke-width:1.5;"/>
   </g>
   <g id="line2d_30">
    <path clip-path="url(#p1c2c4aa7f3)" d="M 226.589687 155.040375 
L 226.589687 155.040375 
L 226.589687 155.040375 
L 226.827767 155.040375 
L 226.827767 155.040375 
L 226.827767 155.439543 
L 226.827767 155.439543 
L 226.827767 155.439543 
L 226.827767 155.439543 
L 227.006327 155.439543 
L 227.006327 155.439543 
L 227.006327 155.439543 
L 227.006327 155.439543 
L 227.006327 155.439543 
L 227.006327 155.439543 
L 227.482487 156.193527 
L 227.958647 156.548343 
L 228.315767 157.257975 
L 228.791927 158.056311 
L 229.268088 158.765943 
" style="fill:none;stroke:#8c564b;stroke-linecap:square;stroke-width:1.5;"/>
   </g>
   <g id="line2d_31">
    <path clip-path="url(#p1c2c4aa7f3)" d="M 226.589687 155.040375 
L 227.065847 155.395191 
L 227.065847 157.257975 
L 227.303927 158.898999 
L 227.542007 160.584375 
L 227.542007 162.447159 
L 227.780088 163.910775 
L 228.018168 165.596151 
L 228.256248 167.237175 
L 227.661047 168.745143 
L 226.232567 170.253111 
L 224.804088 171.761079 
L 223.613687 173.180343 
L 222.185207 174.688311 
L 220.816248 176.196279 
L 219.863927 177.305079 
L 218.673528 178.413879 
L 217.780728 179.567031 
L 216.828407 180.631479 
L 215.638007 181.784631 
" style="fill:none;stroke:#e377c2;stroke-linecap:square;stroke-width:1.5;"/>
   </g>
   <g id="line2d_32">
    <path clip-path="url(#p1c2c4aa7f3)" d="M 226.589687 155.040375 
L 223.792248 155.040375 
L 220.935287 155.040375 
L 217.840248 155.040375 
L 214.090487 155.395191 
L 210.340727 155.794359 
L 207.245688 155.040375 
L 204.448248 153.931575 
L 201.591287 152.822775 
L 199.746168 152.822775 
L 197.841527 152.822775 
L 197.127287 152.423607 
L 196.770168 152.423607 
L 196.532087 152.246199 
L 196.294007 152.246199 
L 195.936888 152.068791 
L 195.579768 151.891383 
L 195.341688 151.891383 
L 194.984567 151.492215 
L 194.746488 151.492215 
" style="fill:none;stroke:#7f7f7f;stroke-linecap:square;stroke-width:1.5;"/>
   </g>
   <g id="line2d_33">
    <path clip-path="url(#p1c2c4aa7f3)" d="M 226.589687 155.040375 
L 226.232567 154.862967 
L 225.994487 154.685559 
L 225.756407 154.463799 
L 225.399287 154.463799 
L 225.161207 154.463799 
L 224.804088 154.108983 
L 224.446967 154.108983 
L 224.089847 154.108983 
L 223.792248 153.754167 
L 223.435127 153.754167 
L 223.197047 153.754167 
L 221.768567 152.601015 
L 220.399608 151.359159 
L 218.971127 150.206007 
L 217.542647 148.698039 
L 216.590328 146.480439 
L 215.399927 144.617655 
L 214.447608 142.400055 
L 213.257207 140.537271 
" style="fill:none;stroke:#bcbd22;stroke-linecap:square;stroke-width:1.5;"/>
   </g>
   <g id="line2d_34">
    <path clip-path="url(#p1c2c4aa7f3)" d="M 226.589687 155.040375 
L 225.458808 152.822775 
L 224.506487 150.605175 
L 223.316088 148.742391 
L 220.518647 146.879607 
L 217.661687 145.016823 
L 214.804727 143.154039 
L 212.007287 141.291255 
L 208.971767 139.428471 
L 205.638647 138.364023 
L 202.067447 137.565687 
L 198.853367 136.501239 
L 196.234488 134.638455 
L 194.448888 132.775671 
L 192.901367 130.691127 
L 191.353848 128.828343 
L 189.865848 126.788151 
L 189.151608 123.639159 
L 188.556408 120.667575 
L 187.842168 117.695991 
" style="fill:none;stroke:#17becf;stroke-linecap:square;stroke-width:1.5;"/>
   </g>
   <g id="line2d_35">
    <path clip-path="url(#p1c2c4aa7f3)" d="M 226.589687 155.040375 
L 226.589687 155.040375 
L 226.589687 155.040375 
L 226.589687 155.040375 
L 226.589687 155.040375 
L 226.589687 155.040375 
L 226.589687 155.040375 
L 226.589687 155.040375 
L 226.589687 155.040375 
L 226.589687 155.040375 
L 226.589687 155.040375 
L 226.589687 155.040375 
L 226.589687 155.040375 
L 226.589687 155.040375 
L 226.589687 155.040375 
L 226.589687 155.040375 
L 226.589687 155.040375 
L 226.589687 155.040375 
L 226.589687 155.040375 
L 226.589687 155.040375 
" style="fill:none;stroke:#1f77b4;stroke-linecap:square;stroke-width:1.5;"/>
   </g>
   <g id="line2d_36">
    <path clip-path="url(#p1c2c4aa7f3)" d="M 226.589687 155.040375 
L 224.566007 154.685559 
L 222.601847 154.286391 
L 219.030647 153.931575 
L 215.518968 153.931575 
L 212.007287 153.931575 
L 209.150328 154.286391 
L 206.293367 154.286391 
L 203.495927 154.286391 
L 202.305527 154.685559 
L 201.829367 154.685559 
L 201.234168 154.685559 
L 200.758007 154.685559 
L 200.222328 154.685559 
L 199.865207 154.685559 
L 199.389048 154.685559 
L 198.793847 154.685559 
L 198.317688 154.685559 
L 197.722487 154.685559 
L 197.246328 154.685559 
" style="fill:none;stroke:#ff7f0e;stroke-linecap:square;stroke-width:1.5;"/>
   </g>
   <g id="line2d_37">
    <path clip-path="url(#p1c2c4aa7f3)" d="M 226.589687 155.040375 
L 225.994487 155.040375 
L 225.518327 155.040375 
L 224.923127 155.040375 
L 224.685047 155.040375 
L 224.446967 154.641207 
L 224.446967 154.641207 
L 224.208888 154.286391 
L 223.970808 153.931575 
L 223.970808 153.931575 
L 223.494647 153.000183 
L 222.780407 152.068791 
L 222.304248 151.314807 
L 221.590007 150.383415 
L 221.113847 149.629431 
L 220.697207 148.520631 
L 219.982968 147.766647 
L 218.792567 146.657847 
L 217.899767 145.549047 
L 216.947448 144.839415 
" style="fill:none;stroke:#2ca02c;stroke-linecap:square;stroke-width:1.5;"/>
   </g>
   <g id="line2d_38">
    <path clip-path="url(#p1c2c4aa7f3)" d="M 226.589687 155.040375 
L 225.399287 153.931575 
L 223.732728 151.713975 
L 221.828088 149.452023 
L 220.161528 147.234423 
L 218.316407 145.016823 
L 216.709367 142.799223 
L 214.804727 140.581623 
L 212.185847 138.718839 
L 208.614647 136.856055 
L 205.341048 134.638455 
L 201.829367 132.908727 
L 198.377207 130.868535 
L 195.103608 129.050103 
L 191.889527 126.610743 
L 189.092087 123.639159 
L 186.294647 121.066743 
L 183.437687 118.449975 
L 181.294967 116.942007 
L 180.342647 116.587191 
" style="fill:none;stroke:#d62728;stroke-linecap:square;stroke-width:1.5;"/>
   </g>
   <g id="line2d_39">
    <path clip-path="url(#p1c2c4aa7f3)" d="M 226.589687 155.040375 
L 226.589687 152.601015 
L 226.589687 150.161655 
L 226.589687 147.234423 
L 226.113528 143.508855 
L 225.875448 139.783287 
L 225.399287 136.057719 
L 225.161207 132.332151 
L 225.161207 128.606583 
L 225.161207 124.526199 
L 225.161207 120.800631 
L 225.161207 117.075063 
L 225.637368 114.147831 
L 225.875448 111.531063 
L 226.351608 108.559479 
L 226.946808 104.479095 
L 227.303927 100.398711 
L 227.661047 96.318327 
L 227.422967 92.947575 
L 227.303927 89.399415 
" style="fill:none;stroke:#9467bd;stroke-linecap:square;stroke-width:1.5;"/>
   </g>
   <g id="line2d_40">
    <path clip-path="url(#p1c2c4aa7f3)" d="M 226.589687 155.040375 
L 225.399287 152.423607 
L 224.208888 150.206007 
L 222.304248 147.234423 
L 219.506808 143.508855 
L 216.649847 139.783287 
L 214.090487 137.565687 
L 211.709688 135.348087 
L 209.090807 131.977335 
L 207.840888 128.650935 
L 207.126647 125.324535 
L 206.412408 122.308599 
L 205.698168 119.159607 
L 204.983927 115.833207 
L 207.007608 113.615607 
L 210.340727 111.353655 
L 213.554808 109.535223 
L 217.126007 107.273271 
L 220.459127 105.055671 
L 224.208888 104.656503 
" style="fill:none;stroke:#8c564b;stroke-linecap:square;stroke-width:1.5;"/>
   </g>
   <g id="line2d_41">
    <path clip-path="url(#p1c2c4aa7f3)" d="M 226.589687 155.040375 
L 230.637047 155.040375 
L 234.386808 155.395191 
L 238.374648 155.794359 
L 242.422008 155.794359 
L 243.850487 156.858807 
L 244.802808 158.011959 
L 245.695607 159.519927 
L 246.886008 160.584375 
L 247.838327 161.737527 
L 248.254967 162.092343 
L 248.731127 162.846327 
L 249.207288 163.201143 
L 250.159607 163.600311 
L 251.588088 163.600311 
L 253.016568 163.600311 
L 254.445047 163.600311 
L 256.349688 163.600311 
L 258.432887 163.201143 
L 260.516088 162.447159 
" style="fill:none;stroke:#e377c2;stroke-linecap:square;stroke-width:1.5;"/>
   </g>
   <g id="line2d_42">
    <path clip-path="url(#p1c2c4aa7f3)" d="M 226.589687 155.040375 
L 228.970487 154.286391 
L 231.113207 153.931575 
L 233.255927 153.177591 
L 235.339127 152.822775 
L 237.660407 152.068791 
L 238.850808 150.206007 
L 240.041207 148.343223 
L 241.231607 146.125623 
L 241.469687 143.863671 
L 241.231607 141.646071 
L 238.374648 140.005047 
L 235.696247 138.319671 
L 233.017847 136.279479 
L 230.398967 134.594103 
L 227.661047 132.553911 
L 224.863608 130.868535 
L 222.244728 129.227511 
L 219.566327 127.187319 
L 216.828407 125.501943 
" style="fill:none;stroke:#7f7f7f;stroke-linecap:square;stroke-width:1.5;"/>
   </g>
   <g id="line2d_43">
    <path clip-path="url(#p1c2c4aa7f3)" d="M 226.589687 155.040375 
L 220.935287 155.040375 
L 215.399927 155.439543 
L 209.983608 155.971767 
L 204.686328 156.548343 
L 199.389048 156.725751 
L 193.972727 156.725751 
L 188.794488 157.479735 
L 183.556727 159.697335 
L 178.140408 161.737527 
L 173.676407 162.846327 
L 169.688568 163.245495 
L 165.700727 164.709111 
L 161.534328 167.325879 
L 157.546488 169.898295 
L 153.558648 172.160247 
L 149.749368 175.486647 
L 146.178168 178.458231 
L 142.666488 181.784631 
L 138.678648 184.046583 
" style="fill:none;stroke:#bcbd22;stroke-linecap:square;stroke-width:1.5;"/>
   </g>
   <g id="line2d_44">
    <path clip-path="url(#p1c2c4aa7f3)" d="M 226.589687 155.040375 
L 222.363767 157.257975 
L 217.899767 158.721591 
L 213.614328 159.120759 
L 209.209847 159.475575 
L 204.924408 159.874743 
L 201.591287 158.721591 
L 198.317688 157.257975 
L 195.044087 155.750007 
L 193.139447 153.931575 
L 191.949048 151.669623 
L 190.758647 149.806839 
L 189.806328 148.343223 
L 189.806328 147.944055 
L 189.568247 147.944055 
L 189.568247 147.589239 
L 189.330168 147.234423 
L 189.330168 146.835255 
L 189.151608 146.480439 
L 189.151608 146.480439 
" style="fill:none;stroke:#17becf;stroke-linecap:square;stroke-width:1.5;"/>
   </g>
   <g id="line2d_45">
    <path clip-path="url(#p1c2c4aa7f3)" d="M 226.589687 155.040375 
L 224.685047 155.040375 
L 222.780407 155.040375 
L 220.935287 155.040375 
L 219.030647 154.286391 
L 217.185528 153.576759 
L 215.518968 153.177591 
L 213.614328 152.423607 
L 211.709688 151.713975 
L 209.805048 151.314807 
L 207.959927 150.560823 
L 206.114807 149.851191 
L 204.210168 149.097207 
L 202.543608 148.698039 
L 200.638968 147.988407 
L 198.734328 147.234423 
L 196.889207 146.480439 
L 195.222647 146.125623 
L 193.377527 145.371639 
L 191.472888 144.617655 
" style="fill:none;stroke:#1f77b4;stroke-linecap:square;stroke-width:1.5;"/>
   </g>
   <g id="line2d_46">
    <path clip-path="url(#p1c2c4aa7f3)" d="M 226.589687 155.040375 
L 224.685047 154.685559 
L 223.018487 153.887223 
L 221.173367 153.177591 
L 219.328248 152.822775 
L 217.661687 152.024439 
L 215.757047 151.314807 
L 213.852407 150.959991 
L 211.947767 150.560823 
L 209.864567 150.161655 
L 207.959927 149.452023 
L 206.114807 149.097207 
L 204.210168 148.698039 
L 202.067447 148.343223 
L 200.162807 148.343223 
L 198.258168 148.343223 
L 196.413048 148.698039 
L 194.567927 148.698039 
L 192.663287 149.097207 
L 190.758647 149.097207 
" style="fill:none;stroke:#ff7f0e;stroke-linecap:square;stroke-width:1.5;"/>
   </g>
   <g id="line2d_47">
    <path clip-path="url(#p1c2c4aa7f3)" d="M 226.589687 155.040375 
L 224.446967 155.040375 
L 222.601847 155.395191 
L 220.816248 155.750007 
L 219.090168 156.104823 
L 217.185528 156.503991 
L 215.399927 157.257975 
L 213.495287 157.612791 
L 211.650168 158.145015 
L 209.507448 158.943351 
L 207.602807 159.298167 
L 205.757688 160.007799 
L 203.853048 160.628727 
L 202.424567 161.693175 
L 200.936567 162.846327 
L 199.389048 163.555959 
L 197.722487 164.709111 
L 196.055927 165.063927 
L 194.210807 165.418743 
L 192.306168 165.773559 
" style="fill:none;stroke:#2ca02c;stroke-linecap:square;stroke-width:1.5;"/>
   </g>
   <g id="line2d_48">
    <path clip-path="url(#p1c2c4aa7f3)" d="M 226.589687 155.040375 
L 226.113528 156.104823 
L 225.875448 157.257975 
L 225.399287 158.411127 
L 225.161207 159.475575 
L 224.744567 160.628727 
L 224.506487 161.693175 
L 224.030327 162.846327 
L 223.792248 163.910775 
L 223.792248 165.418743 
L 224.030327 167.281527 
L 224.030327 169.144311 
L 224.268407 171.007095 
L 224.506487 172.515063 
L 224.506487 174.023031 
L 224.506487 175.442295 
L 224.744567 176.950263 
L 224.744567 178.458231 
L 224.982647 179.522679 
L 225.161207 180.675831 
" style="fill:none;stroke:#d62728;stroke-linecap:square;stroke-width:1.5;"/>
   </g>
   <g id="line2d_49">
    <path clip-path="url(#p1c2c4aa7f3)" d="M 226.589687 155.040375 
L 226.589687 156.104823 
L 226.827767 157.612791 
L 227.065847 158.765943 
L 227.303927 159.830391 
L 227.542007 160.983543 
L 228.256248 162.491511 
L 228.970487 163.555959 
L 229.625207 164.709111 
L 230.339448 166.128375 
L 231.053687 167.281527 
L 231.767927 168.434679 
L 232.482168 169.853943 
L 233.196407 171.007095 
L 233.672567 172.071543 
L 234.148728 173.224695 
L 234.624887 174.732663 
L 235.339127 175.797111 
L 235.815288 176.950263 
L 235.815288 178.458231 
" style="fill:none;stroke:#9467bd;stroke-linecap:square;stroke-width:1.5;"/>
   </g>
   <g id="line2d_50">
    <path clip-path="url(#p1c2c4aa7f3)" d="M 226.589687 155.040375 
L 226.589687 156.459639 
L 226.351608 158.145015 
L 225.875448 159.298167 
L 225.399287 160.584375 
L 224.923127 161.515767 
L 224.446967 162.801975 
L 223.970808 163.955127 
L 223.494647 165.019575 
L 223.018487 166.172727 
L 222.661367 167.059767 
L 222.185207 168.212919 
L 221.709047 168.922551 
L 221.292407 170.075703 
L 220.816248 170.785335 
L 220.340088 171.539319 
L 219.863927 172.648119 
L 219.387767 173.002935 
L 218.911608 173.801271 
L 218.435448 174.510903 
" style="fill:none;stroke:#8c564b;stroke-linecap:square;stroke-width:1.5;"/>
   </g>
   <g id="line2d_51">
    <path clip-path="url(#p1c2c4aa7f3)" d="M 226.589687 155.040375 
L 222.720888 155.794359 
L 217.780728 155.971767 
L 212.900087 156.326583 
L 208.198007 156.725751 
L 203.019768 157.435383 
L 197.603447 157.834551 
L 192.425207 158.588535 
L 187.723128 160.052151 
L 182.961527 161.560119 
L 178.021367 163.023735 
L 174.033527 164.886519 
L 169.986167 166.394487 
L 165.879288 168.612087 
L 161.891447 172.337655 
L 157.725048 175.664055 
L 154.451448 178.635639 
L 151.415928 181.607223 
L 148.797048 184.578807 
L 146.654328 187.949559 
" style="fill:none;stroke:#e377c2;stroke-linecap:square;stroke-width:1.5;"/>
   </g>
   <g id="line2d_52">
    <path clip-path="url(#p1c2c4aa7f3)" d="M 226.589687 155.040375 
L 227.780088 160.273911 
L 228.970487 165.418743 
L 230.101368 170.652279 
L 232.958327 174.732663 
L 236.946168 178.458231 
L 240.755448 182.538615 
L 244.743288 185.909367 
L 249.445368 188.836599 
L 254.147447 191.852535 
L 259.147128 194.424951 
L 262.182647 198.904503 
L 265.277688 203.384055 
L 268.313207 207.464439 
L 271.408248 211.899639 
L 269.979767 215.625207 
L 267.598968 219.350775 
L 265.277688 223.076343 
L 262.182647 226.402743 
L 258.432887 229.374327 
" style="fill:none;stroke:#7f7f7f;stroke-linecap:square;stroke-width:1.5;"/>
   </g>
   <g id="line2d_53">
    <path clip-path="url(#p1c2c4aa7f3)" d="M 226.589687 155.040375 
L 222.601847 158.322423 
L 218.852088 161.338359 
L 215.757047 163.555959 
L 213.614328 165.063927 
L 211.769207 166.128375 
L 204.210168 173.579511 
L 198.793847 180.099255 
L 197.008248 184.357047 
L 195.222647 188.614839 
L 193.734647 192.872631 
L 193.734647 197.396535 
L 193.972727 201.831735 
L 194.448888 206.666103 
L 195.103608 211.145655 
L 196.055927 215.580855 
L 196.294007 220.814391 
L 196.532087 225.959223 
L 197.008248 231.192759 
L 197.722487 236.426295 
" style="fill:none;stroke:#bcbd22;stroke-linecap:square;stroke-width:1.5;"/>
   </g>
   <g id="line2d_54">
    <path clip-path="url(#p1c2c4aa7f3)" d="M 226.589687 155.040375 
L 222.839927 154.508151 
L 218.911608 154.153335 
L 214.447608 154.153335 
L 209.745528 154.508151 
L 204.805367 154.508151 
L 200.519927 154.508151 
L 196.294007 154.508151 
L 192.187128 155.616951 
L 188.139768 157.479735 
L 184.509048 159.342519 
L 182.604408 161.959287 
L 180.759287 164.531703 
L 178.854647 167.148471 
L 177.188087 169.366071 
L 175.283447 171.982839 
L 173.438328 174.555255 
L 171.533687 176.817207 
L 169.629048 179.389623 
L 167.783928 182.006391 
" style="fill:none;stroke:#17becf;stroke-linecap:square;stroke-width:1.5;"/>
   </g>
   <g id="line2d_55">
    <path clip-path="url(#p1c2c4aa7f3)" d="M 226.589687 155.040375 
L 221.649528 156.903159 
L 216.947448 158.765943 
L 212.483448 160.628727 
L 208.674168 162.846327 
L 204.924408 164.709111 
L 200.877048 166.971063 
L 197.603447 169.188663 
L 194.984567 171.406263 
L 192.425207 173.978679 
L 189.806328 176.595447 
L 187.485048 179.212215 
L 186.056567 181.784631 
L 184.866167 184.800567 
L 183.437687 187.372983 
L 183.199608 190.388919 
L 182.723447 193.316151 
L 182.544888 196.332087 
L 182.544888 199.259319 
L 182.723447 202.275255 
" style="fill:none;stroke:#1f77b4;stroke-linecap:square;stroke-width:1.5;"/>
   </g>
   <g id="line2d_56">
    <path clip-path="url(#p1c2c4aa7f3)" d="M 226.589687 155.040375 
L 233.851127 155.040375 
L 240.934008 154.641207 
L 248.016887 153.532407 
L 255.099767 152.778423 
L 262.420727 151.669623 
L 269.682167 150.560823 
L 277.241207 149.452023 
L 284.562167 148.343223 
L 291.645047 148.343223 
L 298.966007 148.698039 
L 306.048887 149.052855 
L 313.131768 149.052855 
L 320.155127 150.560823 
L 327.238007 152.068791 
L 334.558967 153.177591 
L 342.534648 153.532407 
L 350.331767 153.532407 
L 358.128888 153.532407 
L 365.926007 153.177591 
" style="fill:none;stroke:#ff7f0e;stroke-linecap:square;stroke-width:1.5;"/>
   </g>
   <g id="line2d_57">
    <path clip-path="url(#p1c2c4aa7f3)" d="M 226.589687 155.040375 
L 220.459127 155.040375 
L 214.566647 155.040375 
L 208.436087 155.395191 
L 202.305527 155.395191 
L 196.651128 156.149175 
L 190.996727 157.257975 
L 185.580408 158.011959 
L 179.926007 159.120759 
L 174.271608 160.229559 
L 169.807608 162.092343 
L 165.998328 164.709111 
L 162.486648 166.926711 
L 158.677368 169.543479 
L 154.927608 172.115895 
L 151.237368 176.018871 
L 147.487607 181.607223 
L 144.928247 186.618999 
L 143.975928 190.566327 
L 141.833208 196.065975 
" style="fill:none;stroke:#2ca02c;stroke-linecap:square;stroke-width:1.5;"/>
   </g>
   <g id="line2d_58">
    <path clip-path="url(#p1c2c4aa7f3)" d="M 226.589687 155.040375 
L 220.935287 153.532407 
L 215.280888 152.024439 
L 209.864567 150.161655 
L 204.448248 148.298871 
L 198.972408 146.524791 
L 193.794168 144.662007 
L 188.377848 142.799223 
L 184.628087 139.783287 
L 180.818807 136.856055 
L 177.069048 133.840119 
L 173.319288 130.912887 
L 169.033848 128.251767 
L 164.807928 125.679351 
L 160.820087 123.106935 
L 157.010807 120.090999 
L 153.499127 116.720247 
L 149.927928 113.793015 
L 146.416247 110.422263 
L 143.261687 106.696695 
" style="fill:none;stroke:#d62728;stroke-linecap:square;stroke-width:1.5;"/>
   </g>
   <g id="line2d_59">
    <path clip-path="url(#p1c2c4aa7f3)" d="M 226.589687 155.040375 
L 230.637047 154.862967 
L 234.565368 154.286391 
L 238.434168 154.108983 
L 244.326648 151.891383 
L 250.219127 149.629431 
L 256.349688 147.411831 
L 262.242167 145.194231 
L 268.134647 144.085431 
L 274.265207 143.109687 
L 280.157688 142.400055 
L 286.050167 141.468663 
L 291.585528 141.690423 
L 296.763767 142.045239 
L 301.942007 142.799223 
L 306.941688 143.331447 
L 311.167607 144.440247 
L 315.393528 145.549047 
L 319.619447 146.258679 
L 324.797687 146.879607 
" style="fill:none;stroke:#9467bd;stroke-linecap:square;stroke-width:1.5;"/>
   </g>
   <g id="line2d_60">
    <path clip-path="url(#p1c2c4aa7f3)" d="M 226.589687 155.040375 
L 224.685047 154.641207 
L 222.839927 154.641207 
L 220.935287 154.286391 
L 219.030647 154.286391 
L 216.233207 154.286391 
L 212.900087 154.641207 
L 209.864567 154.862967 
L 207.245688 155.217783 
L 204.983927 155.971767 
L 202.900727 156.326583 
L 200.877048 157.080567 
L 198.079608 158.189367 
L 195.460727 159.652983 
L 192.603768 160.806135 
L 189.449207 161.515767 
L 186.413688 162.668919 
L 184.151927 163.777719 
L 181.652087 164.886519 
L 179.092727 165.995319 
" style="fill:none;stroke:#8c564b;stroke-linecap:square;stroke-width:1.5;"/>
   </g>
   <g id="line2d_61">
    <path clip-path="url(#p1c2c4aa7f3)" d="M 226.589687 155.040375 
L 226.589687 156.149175 
L 226.589687 157.657143 
L 226.589687 158.765943 
L 226.589687 159.874743 
L 226.589687 161.382711 
L 226.351608 162.846327 
L 226.351608 164.309943 
L 226.113528 166.571895 
L 226.113528 168.434679 
L 225.637368 170.253111 
L 224.982647 171.761079 
L 224.268407 173.623863 
L 223.554168 175.131831 
L 222.839927 176.595447 
L 222.006647 177.704247 
L 221.054327 178.990455 
L 220.340088 180.143607 
L 219.447287 181.429815 
L 218.494968 182.716023 
" style="fill:none;stroke:#e377c2;stroke-linecap:square;stroke-width:1.5;"/>
   </g>
   <g id="line2d_62">
    <path clip-path="url(#p1c2c4aa7f3)" d="M 226.589687 155.040375 
L 225.637368 156.503991 
L 224.923127 157.612791 
L 223.970808 158.721591 
L 223.256567 160.229559 
L 222.363767 161.338359 
L 221.649528 162.447159 
L 220.697207 163.910775 
L 219.982968 165.063927 
L 219.744888 166.527543 
L 219.506808 168.035511 
L 219.030647 169.499127 
L 218.792567 171.007095 
L 218.316407 172.470711 
L 218.078328 173.978679 
L 217.602168 175.841463 
L 217.364087 177.305079 
L 216.887927 179.167863 
L 216.471287 180.675831 
L 215.757047 181.385463 
" style="fill:none;stroke:#7f7f7f;stroke-linecap:square;stroke-width:1.5;"/>
   </g>
   <g id="line2d_63">
    <path clip-path="url(#p1c2c4aa7f3)" d="M 226.589687 155.040375 
L 225.875448 155.750007 
L 224.923127 156.503991 
L 224.208888 157.612791 
L 223.970808 159.120759 
L 223.732728 160.584375 
L 223.256567 161.693175 
L 223.018487 163.201143 
L 222.542327 164.664759 
L 222.304248 166.172727 
L 221.649528 167.636343 
L 221.173367 169.144311 
L 220.459127 170.607927 
L 219.744888 172.115895 
L 219.268728 173.579511 
L 218.554487 175.087479 
L 217.959287 176.418039 
L 217.364087 177.305079 
L 216.649847 178.458231 
L 215.935608 179.345271 
" style="fill:none;stroke:#bcbd22;stroke-linecap:square;stroke-width:1.5;"/>
   </g>
   <g id="line2d_64">
    <path clip-path="url(#p1c2c4aa7f3)" d="M 226.589687 155.040375 
L 220.697207 157.657143 
L 213.495287 159.165111 
L 204.507767 159.519927 
L 195.341688 159.519927 
L 186.354167 159.874743 
L 180.461687 160.273911 
L 174.212087 160.983543 
L 167.486328 162.491511 
L 161.117687 164.709111 
L 154.987127 166.971063 
L 149.808887 170.297463 
L 144.630648 172.914231 
L 139.214327 174.777015 
L 133.798007 175.885815 
L 128.619768 176.595447 
L 122.965367 175.486647 
L 117.549048 173.623863 
L 112.132728 172.160247 
L 106.656888 170.297463 
" style="fill:none;stroke:#17becf;stroke-linecap:square;stroke-width:1.5;"/>
   </g>
   <g id="line2d_65">
    <path clip-path="url(#p1c2c4aa7f3)" d="M 226.589687 155.040375 
L 223.554168 152.068791 
L 223.554168 147.633591 
L 223.554168 143.154039 
L 225.875448 139.428471 
L 228.732407 136.456887 
L 232.006008 133.884471 
L 236.470008 132.775671 
L 240.993527 131.666871 
L 245.457527 130.912887 
L 249.921527 130.513719 
L 254.623607 130.158903 
L 260.099447 130.513719 
L 265.515767 130.912887 
L 270.455927 132.775671 
L 275.158007 134.993271 
L 279.622007 136.856055 
L 283.669368 137.210871 
L 287.419128 137.964855 
L 291.645047 137.964855 
" style="fill:none;stroke:#1f77b4;stroke-linecap:square;stroke-width:1.5;"/>
   </g>
   <g id="line2d_66">
    <path clip-path="url(#p1c2c4aa7f3)" d="M 226.589687 155.040375 
L 221.828088 155.040375 
L 217.126007 155.040375 
L 212.304888 154.862967 
L 207.364727 154.862967 
L 202.484087 154.641207 
L 197.722487 154.641207 
L 193.318007 154.463799 
L 189.508727 153.754167 
L 185.580408 153.399351 
L 181.771128 152.601015 
L 177.961848 151.536567 
L 174.688247 149.318967 
L 171.414648 147.456183 
L 167.843447 145.149879 
L 164.331768 142.577463 
L 160.582008 139.650231 
L 157.010807 136.989111 
L 153.677687 134.771511 
L 150.642167 132.908727 
" style="fill:none;stroke:#ff7f0e;stroke-linecap:square;stroke-width:1.5;"/>
   </g>
   <g id="line2d_67">
    <path clip-path="url(#p1c2c4aa7f3)" d="M 226.589687 155.040375 
L 227.065847 156.903159 
L 227.780088 158.366775 
L 228.196728 159.874743 
L 228.672888 161.382711 
L 229.863287 162.447159 
L 231.053687 163.068087 
L 232.363127 163.600311 
L 233.553528 164.176887 
L 234.803448 164.709111 
L 236.112887 165.463095 
L 237.779448 166.571895 
L 239.386487 167.325879 
L 240.814967 168.612087 
L 242.362487 169.720887 
L 243.910008 171.051447 
L 245.338487 172.160247 
L 246.945527 173.623863 
L 248.374008 174.732663 
L 249.802487 175.841463 
" style="fill:none;stroke:#2ca02c;stroke-linecap:square;stroke-width:1.5;"/>
   </g>
   <g id="line2d_68">
    <path clip-path="url(#p1c2c4aa7f3)" d="M 226.589687 155.040375 
L 227.958647 156.149175 
L 229.387127 157.257975 
L 230.577528 158.366775 
L 232.006008 159.120759 
L 233.196407 160.229559 
L 234.327287 161.338359 
L 235.517687 162.447159 
L 236.708088 163.555959 
L 237.660407 165.063927 
L 238.612728 166.527543 
L 239.743607 167.636343 
L 240.695927 169.144311 
L 241.648247 170.652279 
L 243.076728 171.761079 
L 244.743288 172.470711 
L 246.350327 173.224695 
L 248.016887 173.978679 
L 249.802487 174.333495 
L 251.230967 175.087479 
" style="fill:none;stroke:#d62728;stroke-linecap:square;stroke-width:1.5;"/>
   </g>
   <g id="line2d_69">
    <path clip-path="url(#p1c2c4aa7f3)" d="M 226.589687 155.040375 
L 228.137207 155.395191 
L 229.684728 156.149175 
L 231.232247 156.503991 
L 232.601207 157.435383 
L 234.029687 158.765943 
L 235.458168 159.874743 
L 236.886647 160.983543 
L 238.017527 162.269751 
L 239.088887 163.378551 
L 240.398327 164.354295 
L 241.469687 165.418743 
L 242.660088 166.394487 
L 243.671927 167.458935 
L 244.981368 168.434679 
L 246.052728 169.499127 
L 247.481207 170.474871 
L 248.909687 170.829687 
L 250.992887 170.829687 
L 253.373687 170.829687 
" style="fill:none;stroke:#9467bd;stroke-linecap:square;stroke-width:1.5;"/>
   </g>
   <g id="line2d_70">
    <path clip-path="url(#p1c2c4aa7f3)" d="M 226.589687 155.040375 
L 225.934967 156.193527 
L 225.220728 157.257975 
L 224.506487 158.411127 
L 223.911287 159.120759 
L 223.197047 160.273911 
L 222.244728 160.983543 
L 221.351927 161.693175 
L 220.399608 162.491511 
L 219.447287 162.846327 
L 218.256888 163.555959 
L 217.304567 164.354295 
L 216.114168 164.709111 
L 214.923767 165.418743 
L 213.792888 165.862263 
L 212.602487 166.217079 
L 211.412087 166.926711 
L 210.221688 167.281527 
L 209.328888 167.636343 
L 208.138487 168.789495 
" style="fill:none;stroke:#8c564b;stroke-linecap:square;stroke-width:1.5;"/>
   </g>
   <g id="line2d_71">
    <path clip-path="url(#p1c2c4aa7f3)" d="M 226.589687 155.040375 
L 225.637368 155.838711 
L 224.685047 156.548343 
L 223.732728 157.701495 
L 222.780407 158.411127 
L 221.411448 158.765943 
L 220.221047 159.165111 
L 218.792567 159.564279 
L 217.602168 159.919095 
L 216.233207 160.628727 
L 215.042808 160.983543 
L 213.614328 162.136695 
L 212.185847 162.846327 
L 210.995448 163.644663 
L 209.626487 164.354295 
L 208.436087 164.709111 
L 207.245688 165.152631 
L 205.817207 165.507447 
L 204.864888 165.862263 
L 203.734007 166.571895 
" style="fill:none;stroke:#e377c2;stroke-linecap:square;stroke-width:1.5;"/>
   </g>
   <g id="line2d_72">
    <path clip-path="url(#p1c2c4aa7f3)" d="M 226.589687 155.040375 
L 220.637687 155.040375 
L 214.804727 154.862967 
L 208.852727 154.862967 
L 203.019768 154.862967 
L 196.829688 155.217783 
L 190.758647 155.572599 
L 184.806647 156.326583 
L 179.211768 157.435383 
L 173.735928 158.544183 
L 168.379128 159.652983 
L 162.665208 160.806135 
L 157.308407 161.870583 
L 151.594488 163.023735 
L 145.940088 163.733367 
L 140.285687 164.886519 
L 134.393208 165.596151 
L 128.738808 164.132535 
L 122.846328 163.023735 
L 117.191928 161.515767 
" style="fill:none;stroke:#7f7f7f;stroke-linecap:square;stroke-width:1.5;"/>
   </g>
   <g id="line2d_73">
    <path clip-path="url(#p1c2c4aa7f3)" d="M 226.589687 155.040375 
L 222.423287 152.955831 
L 218.256888 150.915639 
L 214.269047 148.875447 
L 210.102647 146.835255 
L 206.114807 144.617655 
L 203.793527 142.045239 
L 201.650807 139.029303 
L 199.508087 136.057719 
L 197.365367 133.485303 
L 195.996408 130.868535 
L 194.806007 128.650935 
L 193.377527 126.433335 
L 193.615608 124.171383 
L 195.401207 121.598967 
L 197.186807 118.982199 
L 198.912888 117.873399 
L 200.698487 116.365431 
L 202.365048 114.901815 
L 203.972087 113.393847 
" style="fill:none;stroke:#bcbd22;stroke-linecap:square;stroke-width:1.5;"/>
   </g>
   <g id="line2d_74">
    <path clip-path="url(#p1c2c4aa7f3)" d="M 226.589687 155.040375 
L 228.256248 153.576759 
L 229.446647 152.068791 
L 229.446647 152.068791 
L 229.446647 152.068791 
L 229.446647 152.068791 
L 229.446647 152.068791 
L 229.446647 152.068791 
L 229.446647 152.068791 
L 229.446647 152.068791 
L 229.446647 152.068791 
L 229.446647 152.068791 
L 229.446647 152.068791 
L 229.446647 152.068791 
L 229.446647 152.068791 
L 229.446647 152.068791 
L 229.446647 152.068791 
L 229.446647 152.068791 
L 229.446647 152.068791 
L 229.446647 152.068791 
" style="fill:none;stroke:#17becf;stroke-linecap:square;stroke-width:1.5;"/>
   </g>
   <g id="line2d_75">
    <path clip-path="url(#p1c2c4aa7f3)" d="M 226.589687 155.040375 
L 220.935287 158.366775 
L 215.280888 161.737527 
L 209.388407 165.063927 
L 203.019768 167.680695 
L 197.246328 172.115895 
L 192.544247 175.841463 
L 190.163447 178.458231 
L 187.604087 181.074999 
L 187.127927 184.002231 
L 186.889848 186.618999 
L 186.889848 189.590583 
L 186.889848 194.070135 
L 186.889848 200.767287 
L 187.604087 204.847671 
L 188.734967 208.573239 
L 190.401527 211.899639 
L 193.258488 214.516407 
L 196.353527 217.088823 
L 199.150968 219.705591 
" style="fill:none;stroke:#1f77b4;stroke-linecap:square;stroke-width:1.5;"/>
   </g>
   <g id="line2d_76">
    <path clip-path="url(#p1c2c4aa7f3)" d="M 226.589687 155.040375 
L 228.256248 159.475575 
L 230.160888 164.354295 
L 231.589368 168.434679 
L 234.148728 172.160247 
L 237.005687 176.240631 
L 239.565047 179.966199 
L 241.231607 184.046583 
L 242.898167 188.126967 
L 244.802808 191.852535 
L 245.933687 196.642551 
L 247.124088 201.521271 
L 248.552568 206.311287 
L 248.314487 210.391671 
L 247.362167 213.762423 
L 246.409847 217.842807 
L 245.457527 222.677175 
L 243.850487 226.757559 
L 241.707767 230.083959 
L 239.326967 233.099895 
" style="fill:none;stroke:#ff7f0e;stroke-linecap:square;stroke-width:1.5;"/>
   </g>
   <g id="line2d_77">
    <path clip-path="url(#p1c2c4aa7f3)" d="M 226.589687 155.040375 
L 225.637368 156.104823 
L 224.685047 156.903159 
L 224.030327 157.967607 
L 223.316088 159.120759 
L 222.601847 160.229559 
L 221.887608 161.338359 
L 221.173367 162.491511 
L 220.697207 163.555959 
L 220.459127 164.354295 
L 220.459127 165.418743 
L 220.221047 166.571895 
L 219.982968 167.281527 
L 219.506808 168.434679 
L 218.792567 169.144311 
L 217.840248 170.297463 
L 217.126007 171.007095 
L 216.471287 172.115895 
L 215.757047 173.224695 
L 215.042808 173.978679 
" style="fill:none;stroke:#2ca02c;stroke-linecap:square;stroke-width:1.5;"/>
   </g>
   <g id="line2d_78">
    <path clip-path="url(#p1c2c4aa7f3)" d="M 226.589687 155.040375 
L 226.113528 155.794359 
L 225.399287 156.903159 
L 224.923127 157.612791 
L 224.268407 158.765943 
L 223.792248 159.874743 
L 223.554168 160.983543 
L 223.078007 161.737527 
L 222.601847 162.846327 
L 222.363767 163.999479 
L 221.649528 164.709111 
L 220.935287 165.862263 
L 219.982968 166.571895 
L 219.268728 167.680695 
L 218.554487 168.434679 
L 218.078328 169.543479 
L 217.364087 170.297463 
L 216.947448 171.406263 
L 216.471287 172.515063 
L 215.995127 173.623863 
" style="fill:none;stroke:#d62728;stroke-linecap:square;stroke-width:1.5;"/>
   </g>
   <g id="line2d_79">
    <path clip-path="url(#p1c2c4aa7f3)" d="M 226.589687 155.040375 
L 226.113528 156.149175 
L 225.875448 157.257975 
L 225.994487 158.011959 
L 226.232567 158.765943 
L 226.589687 159.519927 
L 226.708728 160.229559 
L 226.946808 160.983543 
L 226.946808 161.914935 
L 226.470647 163.378551 
L 225.994487 164.531703 
L 225.518327 165.995319 
L 225.042168 167.503287 
L 224.566007 168.612087 
L 224.089847 170.075703 
L 223.613687 171.184503 
L 223.137528 172.692471 
L 222.958967 173.446455 
L 222.482808 174.555255 
L 222.006647 175.309239 
" style="fill:none;stroke:#9467bd;stroke-linecap:square;stroke-width:1.5;"/>
   </g>
   <g id="line2d_80">
    <path clip-path="url(#p1c2c4aa7f3)" d="M 226.589687 155.040375 
L 226.113528 155.750007 
L 225.875448 156.903159 
L 225.399287 157.612791 
L 224.923127 158.765943 
L 224.685047 159.475575 
L 224.446967 160.584375 
L 224.446967 161.693175 
L 224.446967 162.447159 
L 224.566007 163.555959 
L 224.685047 164.709111 
L 224.685047 165.817911 
L 224.804088 166.926711 
L 224.804088 167.680695 
L 224.804088 168.789495 
L 225.042168 169.499127 
L 225.280248 170.652279 
L 225.756407 171.361911 
L 225.994487 172.515063 
L 226.232567 173.224695 
" style="fill:none;stroke:#8c564b;stroke-linecap:square;stroke-width:1.5;"/>
   </g>
   <g id="line2d_81">
    <path clip-path="url(#p1c2c4aa7f3)" d="M 226.589687 155.040375 
L 226.827767 156.149175 
L 227.065847 156.903159 
L 227.303927 158.011959 
L 227.542007 159.120759 
L 227.780088 160.052151 
L 227.958647 160.983543 
L 228.196728 161.914935 
L 228.434808 162.846327 
L 228.672888 163.600311 
L 228.791927 164.487351 
L 229.030008 165.463095 
L 229.268088 166.350135 
L 229.506168 167.325879 
L 229.744248 168.212919 
L 229.982327 168.966903 
L 230.220407 170.075703 
L 230.458487 170.829687 
L 230.577528 171.938487 
L 230.815607 172.692471 
" style="fill:none;stroke:#e377c2;stroke-linecap:square;stroke-width:1.5;"/>
   </g>
   <g id="line2d_82">
    <path clip-path="url(#p1c2c4aa7f3)" d="M 226.589687 155.040375 
L 226.589687 156.193527 
L 226.827767 157.257975 
L 227.065847 158.411127 
L 227.065847 159.475575 
L 227.303927 160.628727 
L 227.542007 161.338359 
L 227.542007 162.491511 
L 227.780088 163.600311 
L 228.018168 164.709111 
L 228.018168 165.817911 
L 228.256248 166.926711 
L 228.494327 168.079863 
L 228.494327 169.144311 
L 228.732407 169.942647 
L 228.732407 171.007095 
L 228.732407 172.160247 
L 228.970487 173.269047 
L 228.970487 174.023031 
L 228.970487 175.087479 
" style="fill:none;stroke:#7f7f7f;stroke-linecap:square;stroke-width:1.5;"/>
   </g>
   <g id="line2d_83">
    <path clip-path="url(#p1c2c4aa7f3)" d="M 226.589687 155.040375 
L 226.589687 156.149175 
L 226.589687 156.903159 
L 226.827767 158.011959 
L 226.827767 159.120759 
L 227.065847 159.830391 
L 226.946808 160.983543 
L 226.946808 161.914935 
L 226.946808 162.846327 
L 226.946808 163.955127 
L 226.827767 164.886519 
L 226.946808 165.817911 
L 226.946808 166.704951 
L 226.946808 167.858103 
L 226.827767 168.789495 
L 226.827767 169.720887 
L 226.827767 170.829687 
L 226.887287 171.761079 
L 226.768248 172.692471 
L 226.768248 173.579511 
" style="fill:none;stroke:#bcbd22;stroke-linecap:square;stroke-width:1.5;"/>
   </g>
   <g id="patch_3">
    <path d="M 48.029688 288.096375 
L 48.029688 21.984375 
" style="fill:none;stroke:#000000;stroke-linecap:square;stroke-linejoin:miter;stroke-width:0.8;"/>
   </g>
   <g id="patch_4">
    <path d="M 405.149688 288.096375 
L 405.149688 21.984375 
" style="fill:none;stroke:#000000;stroke-linecap:square;stroke-linejoin:miter;stroke-width:0.8;"/>
   </g>
   <g id="patch_5">
    <path d="M 48.029687 288.096375 
L 405.149688 288.096375 
" style="fill:none;stroke:#000000;stroke-linecap:square;stroke-linejoin:miter;stroke-width:0.8;"/>
   </g>
   <g id="patch_6">
    <path d="M 48.029687 21.984375 
L 405.149688 21.984375 
" style="fill:none;stroke:#000000;stroke-linecap:square;stroke-linejoin:miter;stroke-width:0.8;"/>
   </g>
   <g id="text_15">
    <!-- gates_5 -->
    <g transform="translate(203.116562 15.984375)scale(0.12 -0.12)">
     <defs>
      <path d="M 45.40625 27.984375 
Q 45.40625 37.75 41.375 43.109375 
Q 37.359375 48.484375 30.078125 48.484375 
Q 22.859375 48.484375 18.828125 43.109375 
Q 14.796875 37.75 14.796875 27.984375 
Q 14.796875 18.265625 18.828125 12.890625 
Q 22.859375 7.515625 30.078125 7.515625 
Q 37.359375 7.515625 41.375 12.890625 
Q 45.40625 18.265625 45.40625 27.984375 
z
M 54.390625 6.78125 
Q 54.390625 -7.171875 48.1875 -13.984375 
Q 42 -20.796875 29.203125 -20.796875 
Q 24.46875 -20.796875 20.265625 -20.09375 
Q 16.0625 -19.390625 12.109375 -17.921875 
L 12.109375 -9.1875 
Q 16.0625 -11.328125 19.921875 -12.34375 
Q 23.78125 -13.375 27.78125 -13.375 
Q 36.625 -13.375 41.015625 -8.765625 
Q 45.40625 -4.15625 45.40625 5.171875 
L 45.40625 9.625 
Q 42.625 4.78125 38.28125 2.390625 
Q 33.9375 0 27.875 0 
Q 17.828125 0 11.671875 7.65625 
Q 5.515625 15.328125 5.515625 27.984375 
Q 5.515625 40.671875 11.671875 48.328125 
Q 17.828125 56 27.875 56 
Q 33.9375 56 38.28125 53.609375 
Q 42.625 51.21875 45.40625 46.390625 
L 45.40625 54.6875 
L 54.390625 54.6875 
z
" id="DejaVuSans-103"/>
      <path d="M 34.28125 27.484375 
Q 23.390625 27.484375 19.1875 25 
Q 14.984375 22.515625 14.984375 16.5 
Q 14.984375 11.71875 18.140625 8.90625 
Q 21.296875 6.109375 26.703125 6.109375 
Q 34.1875 6.109375 38.703125 11.40625 
Q 43.21875 16.703125 43.21875 25.484375 
L 43.21875 27.484375 
z
M 52.203125 31.203125 
L 52.203125 0 
L 43.21875 0 
L 43.21875 8.296875 
Q 40.140625 3.328125 35.546875 0.953125 
Q 30.953125 -1.421875 24.3125 -1.421875 
Q 15.921875 -1.421875 10.953125 3.296875 
Q 6 8.015625 6 15.921875 
Q 6 25.140625 12.171875 29.828125 
Q 18.359375 34.515625 30.609375 34.515625 
L 43.21875 34.515625 
L 43.21875 35.40625 
Q 43.21875 41.609375 39.140625 45 
Q 35.0625 48.390625 27.6875 48.390625 
Q 23 48.390625 18.546875 47.265625 
Q 14.109375 46.140625 10.015625 43.890625 
L 10.015625 52.203125 
Q 14.9375 54.109375 19.578125 55.046875 
Q 24.21875 56 28.609375 56 
Q 40.484375 56 46.34375 49.84375 
Q 52.203125 43.703125 52.203125 31.203125 
z
" id="DejaVuSans-97"/>
      <path d="M 18.3125 70.21875 
L 18.3125 54.6875 
L 36.8125 54.6875 
L 36.8125 47.703125 
L 18.3125 47.703125 
L 18.3125 18.015625 
Q 18.3125 11.328125 20.140625 9.421875 
Q 21.96875 7.515625 27.59375 7.515625 
L 36.8125 7.515625 
L 36.8125 0 
L 27.59375 0 
Q 17.1875 0 13.234375 3.875 
Q 9.28125 7.765625 9.28125 18.015625 
L 9.28125 47.703125 
L 2.6875 47.703125 
L 2.6875 54.6875 
L 9.28125 54.6875 
L 9.28125 70.21875 
z
" id="DejaVuSans-116"/>
      <path d="M 56.203125 29.59375 
L 56.203125 25.203125 
L 14.890625 25.203125 
Q 15.484375 15.921875 20.484375 11.0625 
Q 25.484375 6.203125 34.421875 6.203125 
Q 39.59375 6.203125 44.453125 7.46875 
Q 49.3125 8.734375 54.109375 11.28125 
L 54.109375 2.78125 
Q 49.265625 0.734375 44.1875 -0.34375 
Q 39.109375 -1.421875 33.890625 -1.421875 
Q 20.796875 -1.421875 13.15625 6.1875 
Q 5.515625 13.8125 5.515625 26.8125 
Q 5.515625 40.234375 12.765625 48.109375 
Q 20.015625 56 32.328125 56 
Q 43.359375 56 49.78125 48.890625 
Q 56.203125 41.796875 56.203125 29.59375 
z
M 47.21875 32.234375 
Q 47.125 39.59375 43.09375 43.984375 
Q 39.0625 48.390625 32.421875 48.390625 
Q 24.90625 48.390625 20.390625 44.140625 
Q 15.875 39.890625 15.1875 32.171875 
z
" id="DejaVuSans-101"/>
      <path d="M 44.28125 53.078125 
L 44.28125 44.578125 
Q 40.484375 46.53125 36.375 47.5 
Q 32.28125 48.484375 27.875 48.484375 
Q 21.1875 48.484375 17.84375 46.4375 
Q 14.5 44.390625 14.5 40.28125 
Q 14.5 37.15625 16.890625 35.375 
Q 19.28125 33.59375 26.515625 31.984375 
L 29.59375 31.296875 
Q 39.15625 29.25 43.1875 25.515625 
Q 47.21875 21.78125 47.21875 15.09375 
Q 47.21875 7.46875 41.1875 3.015625 
Q 35.15625 -1.421875 24.609375 -1.421875 
Q 20.21875 -1.421875 15.453125 -0.5625 
Q 10.6875 0.296875 5.421875 2 
L 5.421875 11.28125 
Q 10.40625 8.6875 15.234375 7.390625 
Q 20.0625 6.109375 24.8125 6.109375 
Q 31.15625 6.109375 34.5625 8.28125 
Q 37.984375 10.453125 37.984375 14.40625 
Q 37.984375 18.0625 35.515625 20.015625 
Q 33.0625 21.96875 24.703125 23.78125 
L 21.578125 24.515625 
Q 13.234375 26.265625 9.515625 29.90625 
Q 5.8125 33.546875 5.8125 39.890625 
Q 5.8125 47.609375 11.28125 51.796875 
Q 16.75 56 26.8125 56 
Q 31.78125 56 36.171875 55.265625 
Q 40.578125 54.546875 44.28125 53.078125 
z
" id="DejaVuSans-115"/>
      <path d="M 50.984375 -16.609375 
L 50.984375 -23.578125 
L -0.984375 -23.578125 
L -0.984375 -16.609375 
z
" id="DejaVuSans-95"/>
     </defs>
     <use xlink:href="#DejaVuSans-103"/>
     <use x="63.476562" xlink:href="#DejaVuSans-97"/>
     <use x="124.755859" xlink:href="#DejaVuSans-116"/>
     <use x="163.964844" xlink:href="#DejaVuSans-101"/>
     <use x="225.488281" xlink:href="#DejaVuSans-115"/>
     <use x="277.587891" xlink:href="#DejaVuSans-95"/>
     <use x="327.587891" xlink:href="#DejaVuSans-53"/>
    </g>
   </g>
  </g>
 </g>
 <defs>
  <clipPath id="p1c2c4aa7f3">
   <rect height="266.112" width="357.12" x="48.029688" y="21.984375"/>
  </clipPath>
 </defs>
</svg>
