<?xml version="1.0" encoding="utf-8" standalone="no"?>
<!DOCTYPE svg PUBLIC "-//W3C//DTD SVG 1.1//EN"
  "http://www.w3.org/Graphics/SVG/1.1/DTD/svg11.dtd">
<!-- Created with matplotlib (https://matplotlib.org/) -->
<svg height="312.30825pt" version="1.1" viewBox="0 0 425.074687 312.30825" width="425.074687pt" xmlns="http://www.w3.org/2000/svg" xmlns:xlink="http://www.w3.org/1999/xlink">
 <metadata>
  <rdf:RDF xmlns:cc="http://creativecommons.org/ns#" xmlns:dc="http://purl.org/dc/elements/1.1/" xmlns:rdf="http://www.w3.org/1999/02/22-rdf-syntax-ns#">
   <cc:Work>
    <dc:type rdf:resource="http://purl.org/dc/dcmitype/StillImage"/>
    <dc:date>2023-10-16T01:55:56.224715</dc:date>
    <dc:format>image/svg+xml</dc:format>
    <dc:creator>
     <cc:Agent>
      <dc:title>Matplotlib v3.3.4, https://matplotlib.org/</dc:title>
     </cc:Agent>
    </dc:creator>
   </cc:Work>
  </rdf:RDF>
 </metadata>
 <defs>
  <style type="text/css">*{stroke-linecap:butt;stroke-linejoin:round;}</style>
 </defs>
 <g id="figure_1">
  <g id="patch_1">
   <path d="M 0 312.30825 
L 425.074687 312.30825 
L 425.074687 0 
L 0 0 
z
" style="fill:#ffffff;"/>
  </g>
  <g id="axes_1">
   <g id="patch_2">
    <path d="M 48.029688 288.430125 
L 405.149688 288.430125 
L 405.149688 22.318125 
L 48.029688 22.318125 
z
" style="fill:#ffffff;"/>
   </g>
   <g id="matplotlib.axis_1">
    <g id="xtick_1">
     <g id="line2d_1">
      <defs>
       <path d="M 0 0 
L 0 3.5 
" id="med9bb56dcc" style="stroke:#000000;stroke-width:0.8;"/>
      </defs>
      <g>
       <use style="stroke:#000000;stroke-width:0.8;" x="48.029687" xlink:href="#med9bb56dcc" y="288.430125"/>
      </g>
     </g>
     <g id="text_1">
      <!-- −1500 -->
      <g transform="translate(31.114844 303.028562)scale(0.1 -0.1)">
       <defs>
        <path d="M 10.59375 35.5 
L 73.1875 35.5 
L 73.1875 27.203125 
L 10.59375 27.203125 
z
" id="DejaVuSans-8722"/>
        <path d="M 12.40625 8.296875 
L 28.515625 8.296875 
L 28.515625 63.921875 
L 10.984375 60.40625 
L 10.984375 69.390625 
L 28.421875 72.90625 
L 38.28125 72.90625 
L 38.28125 8.296875 
L 54.390625 8.296875 
L 54.390625 0 
L 12.40625 0 
z
" id="DejaVuSans-49"/>
        <path d="M 10.796875 72.90625 
L 49.515625 72.90625 
L 49.515625 64.59375 
L 19.828125 64.59375 
L 19.828125 46.734375 
Q 21.96875 47.46875 24.109375 47.828125 
Q 26.265625 48.1875 28.421875 48.1875 
Q 40.625 48.1875 47.75 41.5 
Q 54.890625 34.8125 54.890625 23.390625 
Q 54.890625 11.625 47.5625 5.09375 
Q 40.234375 -1.421875 26.90625 -1.421875 
Q 22.3125 -1.421875 17.546875 -0.640625 
Q 12.796875 0.140625 7.71875 1.703125 
L 7.71875 11.625 
Q 12.109375 9.234375 16.796875 8.0625 
Q 21.484375 6.890625 26.703125 6.890625 
Q 35.15625 6.890625 40.078125 11.328125 
Q 45.015625 15.765625 45.015625 23.390625 
Q 45.015625 31 40.078125 35.4375 
Q 35.15625 39.890625 26.703125 39.890625 
Q 22.75 39.890625 18.8125 39.015625 
Q 14.890625 38.140625 10.796875 36.28125 
z
" id="DejaVuSans-53"/>
        <path d="M 31.78125 66.40625 
Q 24.171875 66.40625 20.328125 58.90625 
Q 16.5 51.421875 16.5 36.375 
Q 16.5 21.390625 20.328125 13.890625 
Q 24.171875 6.390625 31.78125 6.390625 
Q 39.453125 6.390625 43.28125 13.890625 
Q 47.125 21.390625 47.125 36.375 
Q 47.125 51.421875 43.28125 58.90625 
Q 39.453125 66.40625 31.78125 66.40625 
z
M 31.78125 74.21875 
Q 44.046875 74.21875 50.515625 64.515625 
Q 56.984375 54.828125 56.984375 36.375 
Q 56.984375 17.96875 50.515625 8.265625 
Q 44.046875 -1.421875 31.78125 -1.421875 
Q 19.53125 -1.421875 13.0625 8.265625 
Q 6.59375 17.96875 6.59375 36.375 
Q 6.59375 54.828125 13.0625 64.515625 
Q 19.53125 74.21875 31.78125 74.21875 
z
" id="DejaVuSans-48"/>
       </defs>
       <use xlink:href="#DejaVuSans-8722"/>
       <use x="83.789062" xlink:href="#DejaVuSans-49"/>
       <use x="147.412109" xlink:href="#DejaVuSans-53"/>
       <use x="211.035156" xlink:href="#DejaVuSans-48"/>
       <use x="274.658203" xlink:href="#DejaVuSans-48"/>
      </g>
     </g>
    </g>
    <g id="xtick_2">
     <g id="line2d_2">
      <g>
       <use style="stroke:#000000;stroke-width:0.8;" x="107.549688" xlink:href="#med9bb56dcc" y="288.430125"/>
      </g>
     </g>
     <g id="text_2">
      <!-- −1000 -->
      <g transform="translate(90.634844 303.028562)scale(0.1 -0.1)">
       <use xlink:href="#DejaVuSans-8722"/>
       <use x="83.789062" xlink:href="#DejaVuSans-49"/>
       <use x="147.412109" xlink:href="#DejaVuSans-48"/>
       <use x="211.035156" xlink:href="#DejaVuSans-48"/>
       <use x="274.658203" xlink:href="#DejaVuSans-48"/>
      </g>
     </g>
    </g>
    <g id="xtick_3">
     <g id="line2d_3">
      <g>
       <use style="stroke:#000000;stroke-width:0.8;" x="167.069687" xlink:href="#med9bb56dcc" y="288.430125"/>
      </g>
     </g>
     <g id="text_3">
      <!-- −500 -->
      <g transform="translate(153.336094 303.028562)scale(0.1 -0.1)">
       <use xlink:href="#DejaVuSans-8722"/>
       <use x="83.789062" xlink:href="#DejaVuSans-53"/>
       <use x="147.412109" xlink:href="#DejaVuSans-48"/>
       <use x="211.035156" xlink:href="#DejaVuSans-48"/>
      </g>
     </g>
    </g>
    <g id="xtick_4">
     <g id="line2d_4">
      <g>
       <use style="stroke:#000000;stroke-width:0.8;" x="226.589687" xlink:href="#med9bb56dcc" y="288.430125"/>
      </g>
     </g>
     <g id="text_4">
      <!-- 0 -->
      <g transform="translate(223.408437 303.028562)scale(0.1 -0.1)">
       <use xlink:href="#DejaVuSans-48"/>
      </g>
     </g>
    </g>
    <g id="xtick_5">
     <g id="line2d_5">
      <g>
       <use style="stroke:#000000;stroke-width:0.8;" x="286.109688" xlink:href="#med9bb56dcc" y="288.430125"/>
      </g>
     </g>
     <g id="text_5">
      <!-- 500 -->
      <g transform="translate(276.565938 303.028562)scale(0.1 -0.1)">
       <use xlink:href="#DejaVuSans-53"/>
       <use x="63.623047" xlink:href="#DejaVuSans-48"/>
       <use x="127.246094" xlink:href="#DejaVuSans-48"/>
      </g>
     </g>
    </g>
    <g id="xtick_6">
     <g id="line2d_6">
      <g>
       <use style="stroke:#000000;stroke-width:0.8;" x="345.629687" xlink:href="#med9bb56dcc" y="288.430125"/>
      </g>
     </g>
     <g id="text_6">
      <!-- 1000 -->
      <g transform="translate(332.904687 303.028562)scale(0.1 -0.1)">
       <use xlink:href="#DejaVuSans-49"/>
       <use x="63.623047" xlink:href="#DejaVuSans-48"/>
       <use x="127.246094" xlink:href="#DejaVuSans-48"/>
       <use x="190.869141" xlink:href="#DejaVuSans-48"/>
      </g>
     </g>
    </g>
    <g id="xtick_7">
     <g id="line2d_7">
      <g>
       <use style="stroke:#000000;stroke-width:0.8;" x="405.149688" xlink:href="#med9bb56dcc" y="288.430125"/>
      </g>
     </g>
     <g id="text_7">
      <!-- 1500 -->
      <g transform="translate(392.424688 303.028562)scale(0.1 -0.1)">
       <use xlink:href="#DejaVuSans-49"/>
       <use x="63.623047" xlink:href="#DejaVuSans-53"/>
       <use x="127.246094" xlink:href="#DejaVuSans-48"/>
       <use x="190.869141" xlink:href="#DejaVuSans-48"/>
      </g>
     </g>
    </g>
   </g>
   <g id="matplotlib.axis_2">
    <g id="ytick_1">
     <g id="line2d_8">
      <defs>
       <path d="M 0 0 
L -3.5 0 
" id="m47cb85312c" style="stroke:#000000;stroke-width:0.8;"/>
      </defs>
      <g>
       <use style="stroke:#000000;stroke-width:0.8;" x="48.029688" xlink:href="#m47cb85312c" y="288.430125"/>
      </g>
     </g>
     <g id="text_8">
      <!-- −1500 -->
      <g transform="translate(7.2 292.229344)scale(0.1 -0.1)">
       <use xlink:href="#DejaVuSans-8722"/>
       <use x="83.789062" xlink:href="#DejaVuSans-49"/>
       <use x="147.412109" xlink:href="#DejaVuSans-53"/>
       <use x="211.035156" xlink:href="#DejaVuSans-48"/>
       <use x="274.658203" xlink:href="#DejaVuSans-48"/>
      </g>
     </g>
    </g>
    <g id="ytick_2">
     <g id="line2d_9">
      <g>
       <use style="stroke:#000000;stroke-width:0.8;" x="48.029688" xlink:href="#m47cb85312c" y="244.078125"/>
      </g>
     </g>
     <g id="text_9">
      <!-- −1000 -->
      <g transform="translate(7.2 247.877344)scale(0.1 -0.1)">
       <use xlink:href="#DejaVuSans-8722"/>
       <use x="83.789062" xlink:href="#DejaVuSans-49"/>
       <use x="147.412109" xlink:href="#DejaVuSans-48"/>
       <use x="211.035156" xlink:href="#DejaVuSans-48"/>
       <use x="274.658203" xlink:href="#DejaVuSans-48"/>
      </g>
     </g>
    </g>
    <g id="ytick_3">
     <g id="line2d_10">
      <g>
       <use style="stroke:#000000;stroke-width:0.8;" x="48.029688" xlink:href="#m47cb85312c" y="199.726125"/>
      </g>
     </g>
     <g id="text_10">
      <!-- −500 -->
      <g transform="translate(13.5625 203.525344)scale(0.1 -0.1)">
       <use xlink:href="#DejaVuSans-8722"/>
       <use x="83.789062" xlink:href="#DejaVuSans-53"/>
       <use x="147.412109" xlink:href="#DejaVuSans-48"/>
       <use x="211.035156" xlink:href="#DejaVuSans-48"/>
      </g>
     </g>
    </g>
    <g id="ytick_4">
     <g id="line2d_11">
      <g>
       <use style="stroke:#000000;stroke-width:0.8;" x="48.029688" xlink:href="#m47cb85312c" y="155.374125"/>
      </g>
     </g>
     <g id="text_11">
      <!-- 0 -->
      <g transform="translate(34.667187 159.173344)scale(0.1 -0.1)">
       <use xlink:href="#DejaVuSans-48"/>
      </g>
     </g>
    </g>
    <g id="ytick_5">
     <g id="line2d_12">
      <g>
       <use style="stroke:#000000;stroke-width:0.8;" x="48.029688" xlink:href="#m47cb85312c" y="111.022125"/>
      </g>
     </g>
     <g id="text_12">
      <!-- 500 -->
      <g transform="translate(21.942187 114.821344)scale(0.1 -0.1)">
       <use xlink:href="#DejaVuSans-53"/>
       <use x="63.623047" xlink:href="#DejaVuSans-48"/>
       <use x="127.246094" xlink:href="#DejaVuSans-48"/>
      </g>
     </g>
    </g>
    <g id="ytick_6">
     <g id="line2d_13">
      <g>
       <use style="stroke:#000000;stroke-width:0.8;" x="48.029688" xlink:href="#m47cb85312c" y="66.670125"/>
      </g>
     </g>
     <g id="text_13">
      <!-- 1000 -->
      <g transform="translate(15.579687 70.469344)scale(0.1 -0.1)">
       <use xlink:href="#DejaVuSans-49"/>
       <use x="63.623047" xlink:href="#DejaVuSans-48"/>
       <use x="127.246094" xlink:href="#DejaVuSans-48"/>
       <use x="190.869141" xlink:href="#DejaVuSans-48"/>
      </g>
     </g>
    </g>
    <g id="ytick_7">
     <g id="line2d_14">
      <g>
       <use style="stroke:#000000;stroke-width:0.8;" x="48.029688" xlink:href="#m47cb85312c" y="22.318125"/>
      </g>
     </g>
     <g id="text_14">
      <!-- 1500 -->
      <g transform="translate(15.579687 26.117344)scale(0.1 -0.1)">
       <use xlink:href="#DejaVuSans-49"/>
       <use x="63.623047" xlink:href="#DejaVuSans-53"/>
       <use x="127.246094" xlink:href="#DejaVuSans-48"/>
       <use x="190.869141" xlink:href="#DejaVuSans-48"/>
      </g>
     </g>
    </g>
   </g>
   <g id="line2d_15">
    <path clip-path="url(#p876a571488)" d="M 226.589687 155.374125 
L 227.363448 156.793389 
L 228.077687 158.212653 
L 228.791927 159.631917 
L 229.506168 161.051181 
L 230.934647 162.115629 
L 232.422647 162.869613 
L 233.851127 163.224429 
L 235.279607 163.623597 
L 236.708088 164.333229 
L 238.374648 164.688045 
L 240.041207 165.042861 
L 241.707767 165.220269 
L 243.374327 165.575085 
L 245.100407 165.752493 
L 246.766967 165.929901 
L 248.195448 166.284717 
L 249.683447 166.284717 
L 251.350008 166.284717 
L 252.778487 166.639533 
" style="fill:none;stroke:#1f77b4;stroke-linecap:square;stroke-width:1.5;"/>
   </g>
   <g id="line2d_16">
    <path clip-path="url(#p876a571488)" d="M 226.589687 155.374125 
L 228.256248 155.728941 
L 229.684728 155.728941 
L 231.113207 155.728941 
L 232.541687 156.083757 
L 234.267767 156.083757 
L 235.696247 156.083757 
L 237.124728 156.438573 
L 238.791288 156.438573 
L 240.279288 156.438573 
L 241.707767 156.438573 
L 242.898167 156.438573 
L 244.088568 156.438573 
L 245.517047 156.438573 
L 246.707448 156.438573 
L 247.897847 156.438573 
L 249.326327 156.438573 
L 250.516728 156.438573 
L 251.766648 156.438573 
L 253.195127 156.438573 
" style="fill:none;stroke:#ff7f0e;stroke-linecap:square;stroke-width:1.5;"/>
   </g>
   <g id="line2d_17">
    <path clip-path="url(#p876a571488)" d="M 226.589687 155.374125 
L 226.589687 157.946541 
L 226.827767 160.430253 
L 227.065847 162.913965 
L 227.303927 165.397677 
L 226.589687 168.324909 
L 225.875448 171.163437 
L 225.161207 174.001965 
L 224.208888 176.929197 
L 223.494647 179.767725 
L 223.256567 183.759405 
L 223.018487 187.307565 
L 223.256567 191.210541 
L 223.970808 195.202221 
L 224.446967 199.460013 
L 225.161207 203.451693 
L 225.875448 207.354669 
L 226.351608 211.701165 
L 226.589687 215.604141 
L 226.827767 219.595821 
" style="fill:none;stroke:#2ca02c;stroke-linecap:square;stroke-width:1.5;"/>
   </g>
   <g id="line2d_18">
    <path clip-path="url(#p876a571488)" d="M 226.589687 155.374125 
L 226.708728 158.301357 
L 226.946808 161.139885 
L 227.184888 163.978413 
L 227.422967 166.905645 
L 226.708728 168.679725 
L 225.994487 170.808621 
L 225.280248 172.582701 
L 224.327927 174.356781 
L 223.554168 176.574381 
L 222.125687 179.412909 
L 220.697207 182.251437 
L 219.982968 185.888301 
L 219.506808 189.436461 
L 219.744888 193.428141 
L 220.697207 197.685933 
L 221.649528 201.677613 
L 222.601847 205.935405 
L 222.839927 209.927085 
L 223.078007 214.184877 
" style="fill:none;stroke:#d62728;stroke-linecap:square;stroke-width:1.5;"/>
   </g>
   <g id="line2d_19">
    <path clip-path="url(#p876a571488)" d="M 226.589687 155.374125 
L 227.542007 155.728941 
L 228.494327 155.906349 
L 229.208567 156.438573 
L 230.160888 156.793389 
L 231.351287 157.325613 
L 232.303607 158.035245 
L 233.494008 158.434413 
L 234.684407 159.144045 
L 235.279607 159.498861 
L 235.517687 159.853677 
L 236.112887 160.563309 
L 236.589047 161.272941 
L 237.065207 161.982573 
L 237.303288 162.692205 
L 237.303288 162.692205 
L 237.303288 162.692205 
L 237.303288 162.692205 
L 237.303288 162.692205 
L 237.184247 162.692205 
" style="fill:none;stroke:#9467bd;stroke-linecap:square;stroke-width:1.5;"/>
   </g>
   <g id="line2d_20">
    <path clip-path="url(#p876a571488)" d="M 226.589687 155.374125 
L 226.589687 155.374125 
L 226.589687 155.374125 
L 226.589687 155.374125 
L 226.589687 155.374125 
L 226.589687 155.374125 
L 226.589687 155.374125 
L 226.589687 155.374125 
L 226.589687 155.374125 
L 226.589687 155.374125 
L 226.589687 155.374125 
L 226.589687 155.374125 
L 226.589687 155.374125 
L 226.589687 155.374125 
L 226.589687 155.374125 
L 226.589687 155.374125 
L 226.589687 155.374125 
L 226.589687 155.374125 
L 226.589687 155.374125 
L 226.589687 155.374125 
" style="fill:none;stroke:#8c564b;stroke-linecap:square;stroke-width:1.5;"/>
   </g>
   <g id="line2d_21">
    <path clip-path="url(#p876a571488)" d="M 226.589687 155.374125 
L 226.589687 155.374125 
L 226.589687 155.374125 
L 226.589687 155.374125 
L 226.589687 155.374125 
L 226.589687 155.374125 
L 226.589687 155.374125 
L 226.589687 155.374125 
L 226.589687 155.374125 
L 226.589687 155.374125 
L 226.589687 155.374125 
L 226.589687 155.374125 
L 226.589687 155.374125 
L 226.589687 155.374125 
L 226.589687 155.374125 
L 226.589687 155.374125 
L 226.589687 155.374125 
L 226.589687 155.374125 
L 226.589687 155.374125 
L 226.589687 155.374125 
" style="fill:none;stroke:#e377c2;stroke-linecap:square;stroke-width:1.5;"/>
   </g>
   <g id="line2d_22">
    <path clip-path="url(#p876a571488)" d="M 226.589687 155.374125 
L 226.589687 155.374125 
L 226.589687 155.374125 
L 226.589687 155.374125 
L 226.589687 155.374125 
L 226.589687 155.374125 
L 226.589687 155.374125 
L 226.589687 155.374125 
L 226.589687 155.374125 
L 226.589687 155.374125 
L 226.589687 155.374125 
L 226.589687 155.374125 
L 226.589687 155.374125 
L 226.589687 155.374125 
L 226.589687 155.374125 
L 226.589687 155.374125 
L 226.589687 155.374125 
L 226.589687 155.374125 
L 226.589687 155.374125 
L 226.589687 155.374125 
" style="fill:none;stroke:#7f7f7f;stroke-linecap:square;stroke-width:1.5;"/>
   </g>
   <g id="line2d_23">
    <path clip-path="url(#p876a571488)" d="M 226.589687 155.374125 
L 226.589687 155.374125 
L 226.589687 155.374125 
L 226.589687 155.374125 
L 226.589687 155.374125 
L 226.589687 155.374125 
L 226.589687 155.374125 
L 226.589687 155.374125 
L 226.589687 155.374125 
L 226.589687 155.374125 
L 226.589687 155.374125 
L 226.589687 155.374125 
L 226.589687 155.374125 
L 226.589687 155.374125 
L 226.589687 155.374125 
L 226.589687 155.374125 
L 226.589687 155.374125 
L 226.589687 155.374125 
L 226.589687 155.374125 
L 226.589687 155.374125 
" style="fill:none;stroke:#bcbd22;stroke-linecap:square;stroke-width:1.5;"/>
   </g>
   <g id="line2d_24">
    <path clip-path="url(#p876a571488)" d="M 226.589687 155.374125 
L 226.589687 155.374125 
L 226.589687 155.374125 
L 226.589687 155.374125 
L 226.589687 155.374125 
L 226.589687 155.374125 
L 226.589687 155.374125 
L 226.589687 155.374125 
L 226.589687 155.374125 
L 226.589687 155.374125 
L 226.589687 155.374125 
L 226.589687 155.374125 
L 226.589687 155.374125 
L 226.589687 155.374125 
L 226.589687 155.374125 
L 226.589687 155.374125 
L 226.589687 155.374125 
L 226.589687 155.374125 
L 226.589687 155.374125 
L 226.589687 155.374125 
" style="fill:none;stroke:#17becf;stroke-linecap:square;stroke-width:1.5;"/>
   </g>
   <g id="line2d_25">
    <path clip-path="url(#p876a571488)" d="M 226.589687 155.374125 
L 226.589687 155.374125 
L 226.589687 155.374125 
L 226.589687 155.374125 
L 226.589687 155.374125 
L 226.589687 155.374125 
L 226.589687 155.374125 
L 226.589687 155.374125 
L 226.589687 155.374125 
L 226.589687 155.374125 
L 226.589687 155.374125 
L 226.589687 155.374125 
L 226.589687 155.374125 
L 226.589687 155.374125 
L 226.589687 155.374125 
L 226.589687 155.374125 
L 226.589687 155.374125 
L 226.589687 155.374125 
L 226.589687 155.374125 
L 226.589687 155.374125 
" style="fill:none;stroke:#1f77b4;stroke-linecap:square;stroke-width:1.5;"/>
   </g>
   <g id="line2d_26">
    <path clip-path="url(#p876a571488)" d="M 226.589687 155.374125 
L 226.589687 155.374125 
L 226.589687 155.374125 
L 226.589687 155.374125 
L 226.589687 155.374125 
L 226.589687 155.374125 
L 226.589687 155.374125 
L 226.589687 155.374125 
L 226.589687 155.374125 
L 226.589687 155.374125 
L 226.589687 155.374125 
L 226.589687 155.374125 
L 226.589687 155.374125 
L 226.589687 155.374125 
L 226.589687 155.374125 
L 226.589687 155.374125 
L 226.589687 155.374125 
L 226.589687 155.374125 
L 226.589687 155.374125 
L 226.589687 155.374125 
" style="fill:none;stroke:#ff7f0e;stroke-linecap:square;stroke-width:1.5;"/>
   </g>
   <g id="line2d_27">
    <path clip-path="url(#p876a571488)" d="M 226.589687 155.374125 
L 226.589687 155.374125 
L 226.589687 155.374125 
L 226.589687 155.374125 
L 226.589687 155.374125 
L 226.589687 155.374125 
L 226.589687 155.374125 
L 226.589687 155.374125 
L 226.589687 155.374125 
L 226.589687 155.374125 
L 226.589687 155.374125 
L 226.589687 155.374125 
L 226.589687 155.374125 
L 226.589687 155.374125 
L 226.589687 155.374125 
L 226.589687 155.374125 
L 226.589687 155.374125 
L 226.589687 155.374125 
L 226.589687 155.374125 
L 226.589687 155.374125 
" style="fill:none;stroke:#2ca02c;stroke-linecap:square;stroke-width:1.5;"/>
   </g>
   <g id="line2d_28">
    <path clip-path="url(#p876a571488)" d="M 226.589687 155.374125 
L 227.065847 156.083757 
L 227.661047 156.438573 
L 228.256248 156.793389 
L 228.851448 157.503021 
L 229.446647 157.857837 
L 230.041847 158.212653 
L 230.518008 158.567469 
L 231.232247 159.277101 
L 231.827448 159.631917 
L 232.065528 159.631917 
L 232.065528 159.631917 
L 232.065528 159.631917 
L 232.065528 159.277101 
L 232.065528 159.277101 
L 232.065528 158.922285 
L 232.065528 158.922285 
L 232.065528 158.922285 
L 232.065528 158.567469 
L 232.065528 158.567469 
" style="fill:none;stroke:#d62728;stroke-linecap:square;stroke-width:1.5;"/>
   </g>
   <g id="line2d_29">
    <path clip-path="url(#p876a571488)" d="M 226.589687 155.374125 
L 226.113528 157.503021 
L 225.875448 159.277101 
L 225.399287 161.272941 
L 225.161207 163.268781 
L 224.923127 165.220269 
L 224.685047 166.994349 
L 224.685047 169.123245 
L 224.923127 171.340845 
L 225.161207 173.114925 
L 225.161207 175.243821 
L 225.399287 177.372717 
L 225.637368 179.235501 
L 226.113528 181.009581 
L 226.589687 182.783661 
L 227.065847 184.202925 
L 227.542007 185.977005 
L 227.542007 187.839789 
L 227.542007 189.968685 
L 227.542007 191.742765 
" style="fill:none;stroke:#9467bd;stroke-linecap:square;stroke-width:1.5;"/>
   </g>
   <g id="line2d_30">
    <path clip-path="url(#p876a571488)" d="M 226.589687 155.374125 
L 226.589687 155.374125 
L 226.589687 155.374125 
L 226.589687 155.374125 
L 226.589687 155.374125 
L 226.589687 155.374125 
L 226.589687 155.374125 
L 226.589687 155.374125 
L 226.589687 155.374125 
L 226.589687 155.374125 
L 226.589687 155.374125 
L 226.589687 155.374125 
L 226.589687 155.374125 
L 226.589687 155.374125 
L 226.589687 155.374125 
L 226.589687 155.374125 
L 226.589687 155.374125 
L 226.589687 155.374125 
L 226.589687 155.374125 
L 226.589687 155.374125 
" style="fill:none;stroke:#8c564b;stroke-linecap:square;stroke-width:1.5;"/>
   </g>
   <g id="line2d_31">
    <path clip-path="url(#p876a571488)" d="M 226.589687 155.374125 
L 226.589687 155.374125 
L 226.589687 155.374125 
L 226.589687 155.374125 
L 226.589687 155.374125 
L 226.589687 155.374125 
L 226.589687 155.374125 
L 226.589687 155.374125 
L 226.589687 155.374125 
L 226.589687 155.374125 
L 226.589687 155.374125 
L 226.589687 155.374125 
L 226.589687 155.374125 
L 226.589687 155.374125 
L 226.589687 155.374125 
L 226.589687 155.374125 
L 226.589687 155.374125 
L 226.589687 155.374125 
L 226.589687 155.374125 
L 226.589687 155.374125 
" style="fill:none;stroke:#e377c2;stroke-linecap:square;stroke-width:1.5;"/>
   </g>
   <g id="line2d_32">
    <path clip-path="url(#p876a571488)" d="M 226.589687 155.374125 
L 231.886967 155.374125 
L 237.124728 155.374125 
L 242.422008 155.374125 
L 248.135927 155.374125 
L 253.909368 155.374125 
L 259.920887 155.728941 
L 265.932408 155.728941 
L 271.884408 155.728941 
L 277.419767 155.728941 
L 282.955128 155.374125 
L 288.430968 155.374125 
L 294.204408 155.728941 
L 299.918327 156.438573 
L 304.501368 156.793389 
L 308.370167 156.793389 
L 312.179447 157.148205 
L 316.702967 157.148205 
L 321.524088 157.503021 
L 326.583287 158.212653 
" style="fill:none;stroke:#7f7f7f;stroke-linecap:square;stroke-width:1.5;"/>
   </g>
   <g id="line2d_33">
    <path clip-path="url(#p876a571488)" d="M 226.589687 155.374125 
L 226.351608 154.265325 
L 226.113528 153.156525 
L 225.875448 151.914669 
L 225.875448 150.672813 
L 225.637368 149.430957 
L 225.637368 148.366509 
L 226.351608 148.011693 
L 227.303927 147.302061 
L 228.018168 146.592429 
L 228.256248 145.128813 
L 228.732407 143.665197 
L 228.732407 142.245933 
L 228.494327 141.536301 
L 227.780088 140.117037 
L 227.065847 139.052589 
L 226.589687 137.633325 
L 225.875448 136.125357 
L 225.161207 134.706093 
L 224.923127 133.641645 
" style="fill:none;stroke:#bcbd22;stroke-linecap:square;stroke-width:1.5;"/>
   </g>
   <g id="line2d_34">
    <path clip-path="url(#p876a571488)" d="M 226.589687 155.374125 
L 226.351608 154.309677 
L 226.351608 152.890413 
L 226.113528 151.825965 
L 226.113528 150.717165 
L 225.875448 149.608365 
L 225.875448 148.543917 
L 225.637368 147.124653 
L 225.399287 146.060205 
L 225.399287 144.995757 
L 225.399287 143.931309 
L 225.399287 142.467693 
L 225.399287 141.358893 
L 225.399287 139.939629 
L 225.399287 138.875181 
L 225.399287 137.455917 
L 225.637368 136.391469 
L 225.637368 135.327021 
L 225.637368 133.863405 
L 225.637368 132.754605 
" style="fill:none;stroke:#17becf;stroke-linecap:square;stroke-width:1.5;"/>
   </g>
   <g id="line2d_35">
    <path clip-path="url(#p876a571488)" d="M 226.589687 155.374125 
L 226.351608 156.261165 
L 226.232567 156.970797 
L 226.113528 157.680429 
L 226.113528 158.390061 
L 226.113528 159.498861 
L 226.113528 160.563309 
L 226.113528 161.627757 
L 226.113528 162.692205 
L 226.113528 163.756653 
L 226.113528 165.175917 
L 226.113528 166.284717 
L 226.113528 167.393517 
L 226.113528 168.457965 
L 226.113528 169.522413 
L 226.113528 170.586861 
L 226.113528 171.651309 
L 226.113528 172.715757 
L 226.113528 174.179373 
L 226.113528 175.243821 
" style="fill:none;stroke:#1f77b4;stroke-linecap:square;stroke-width:1.5;"/>
   </g>
   <g id="line2d_36">
    <path clip-path="url(#p876a571488)" d="M 226.589687 155.374125 
L 224.923127 155.728941 
L 223.256567 155.728941 
L 221.768567 155.728941 
L 220.102007 155.728941 
L 218.435448 155.728941 
L 216.947448 155.728941 
L 215.280888 155.728941 
L 213.614328 156.083757 
L 212.185847 156.083757 
L 210.519287 156.083757 
L 208.852727 156.083757 
L 207.424248 156.083757 
L 205.757688 156.083757 
L 204.269688 156.083757 
L 202.603127 156.083757 
L 200.936567 156.438573 
L 199.448567 156.438573 
L 197.782007 156.438573 
L 196.115447 156.438573 
" style="fill:none;stroke:#ff7f0e;stroke-linecap:square;stroke-width:1.5;"/>
   </g>
   <g id="line2d_37">
    <path clip-path="url(#p876a571488)" d="M 226.589687 155.374125 
L 224.923127 155.374125 
L 223.256567 155.374125 
L 221.828088 155.374125 
L 220.399608 155.374125 
L 219.149687 155.019309 
L 217.721207 154.664493 
L 216.530808 154.309677 
L 215.340407 153.954861 
L 213.852407 153.600045 
L 212.662007 153.200877 
L 211.471608 152.846061 
L 210.043127 152.491245 
L 209.090807 151.781613 
L 208.138487 150.717165 
L 207.424248 149.297901 
L 206.471927 148.233453 
L 206.233847 147.169005 
L 205.995767 146.415021 
L 205.757688 145.350573 
" style="fill:none;stroke:#2ca02c;stroke-linecap:square;stroke-width:1.5;"/>
   </g>
   <g id="line2d_38">
    <path clip-path="url(#p876a571488)" d="M 226.589687 155.374125 
L 224.923127 155.374125 
L 223.256567 155.374125 
L 221.530487 155.374125 
L 220.102007 155.374125 
L 218.435448 155.374125 
L 216.709367 155.374125 
L 215.280888 155.374125 
L 213.614328 155.374125 
L 211.947767 155.374125 
L 210.519287 155.374125 
L 208.852727 155.374125 
L 207.186168 155.374125 
L 205.757688 155.374125 
L 204.031608 155.374125 
L 202.365048 155.374125 
L 200.936567 155.374125 
L 199.210487 155.374125 
L 197.543927 155.374125 
L 196.115447 155.374125 
" style="fill:none;stroke:#d62728;stroke-linecap:square;stroke-width:1.5;"/>
   </g>
   <g id="line2d_39">
    <path clip-path="url(#p876a571488)" d="M 226.589687 155.374125 
L 224.923127 155.374125 
L 223.494647 155.374125 
L 221.828088 155.374125 
L 220.161528 155.374125 
L 218.435448 155.019309 
L 216.768888 154.664493 
L 214.804727 154.309677 
L 213.138168 153.954861 
L 211.709688 153.200877 
L 210.757367 152.491245 
L 209.805048 151.426797 
L 208.852727 150.672813 
L 207.900408 149.608365 
L 206.710007 148.898733 
L 205.757688 147.834285 
L 204.805367 147.124653 
L 203.853048 146.060205 
L 203.614968 144.951405 
L 203.376888 143.886957 
" style="fill:none;stroke:#9467bd;stroke-linecap:square;stroke-width:1.5;"/>
   </g>
   <g id="line2d_40">
    <path clip-path="url(#p876a571488)" d="M 226.589687 155.374125 
L 227.065847 151.781613 
L 227.542007 147.169005 
L 228.018168 142.822509 
L 228.494327 138.121197 
L 228.970487 133.508589 
L 229.446647 128.807277 
L 230.160888 124.194669 
L 229.922808 119.848173 
L 229.446647 115.945197 
L 228.970487 111.598701 
L 228.256248 107.695725 
L 227.780088 103.704045 
L 227.542007 99.801069 
L 227.542007 95.898093 
L 228.732407 92.616045 
L 230.637047 89.422701 
L 232.065528 85.963245 
L 233.077368 83.302125 
L 233.553528 79.576557 
" style="fill:none;stroke:#8c564b;stroke-linecap:square;stroke-width:1.5;"/>
   </g>
   <g id="line2d_41">
    <path clip-path="url(#p876a571488)" d="M 226.589687 155.374125 
L 228.256248 155.374125 
L 230.220407 155.374125 
L 232.125047 155.152365 
L 234.029687 154.974957 
L 235.934327 154.797549 
L 237.838967 154.797549 
L 239.743607 154.797549 
L 241.648247 154.442733 
L 243.612407 154.442733 
L 245.517047 154.442733 
L 247.481207 154.442733 
L 249.385848 154.442733 
L 251.528568 154.442733 
L 253.433207 154.442733 
L 255.575928 154.442733 
L 257.480568 154.087917 
L 259.385207 154.087917 
L 261.587447 154.087917 
L 263.254008 153.733101 
" style="fill:none;stroke:#e377c2;stroke-linecap:square;stroke-width:1.5;"/>
   </g>
   <g id="line2d_42">
    <path clip-path="url(#p876a571488)" d="M 226.589687 155.374125 
L 228.256248 155.019309 
L 229.684728 155.019309 
L 231.113207 155.019309 
L 232.303607 154.664493 
L 233.017847 154.664493 
L 233.732088 154.309677 
L 234.565368 154.309677 
L 235.517687 153.954861 
L 236.708088 153.954861 
L 238.136567 153.954861 
L 239.386487 153.954861 
L 240.576887 153.954861 
L 241.767288 153.600045 
L 242.957687 153.245229 
L 244.207607 152.535597 
L 245.159927 152.180781 
L 246.350327 151.825965 
L 247.540728 151.471149 
L 248.016887 151.116333 
" style="fill:none;stroke:#7f7f7f;stroke-linecap:square;stroke-width:1.5;"/>
   </g>
   <g id="line2d_43">
    <path clip-path="url(#p876a571488)" d="M 226.589687 155.374125 
L 228.256248 155.374125 
L 230.220407 155.374125 
L 232.125047 155.374125 
L 234.029687 155.019309 
L 235.934327 155.019309 
L 237.600887 155.019309 
L 239.505527 154.664493 
L 241.410168 154.664493 
L 243.374327 154.664493 
L 245.159927 154.309677 
L 247.124088 154.309677 
L 248.909687 154.309677 
L 250.814327 153.954861 
L 252.599928 153.954861 
L 254.504568 153.954861 
L 256.409207 153.600045 
L 258.075767 153.600045 
L 259.504248 153.600045 
L 261.230327 153.600045 
" style="fill:none;stroke:#bcbd22;stroke-linecap:square;stroke-width:1.5;"/>
   </g>
   <g id="line2d_44">
    <path clip-path="url(#p876a571488)" d="M 226.589687 155.374125 
L 228.315767 155.374125 
L 229.982327 155.374125 
L 231.410808 155.019309 
L 232.363127 155.019309 
L 233.553528 154.664493 
L 234.505847 154.265325 
L 235.696247 154.265325 
L 236.648567 153.910509 
L 237.838967 153.910509 
L 238.791288 153.555693 
L 239.743607 153.200877 
L 241.231607 153.200877 
L 242.422008 153.200877 
L 243.850487 153.200877 
L 245.040887 152.846061 
L 246.290807 152.491245 
L 247.481207 152.136429 
L 248.671607 151.781613 
L 249.385848 151.781613 
" style="fill:none;stroke:#17becf;stroke-linecap:square;stroke-width:1.5;"/>
   </g>
   <g id="line2d_45">
    <path clip-path="url(#p876a571488)" d="M 226.589687 155.374125 
L 226.589687 155.374125 
L 226.589687 155.374125 
L 226.589687 155.374125 
L 226.589687 155.374125 
L 226.589687 155.374125 
L 226.589687 155.374125 
L 226.589687 155.374125 
L 226.589687 155.374125 
L 226.589687 155.374125 
L 226.589687 155.374125 
L 226.589687 155.374125 
L 226.589687 155.374125 
L 226.589687 155.374125 
L 226.589687 155.374125 
L 226.589687 155.374125 
L 226.589687 155.374125 
L 226.589687 155.374125 
L 226.589687 155.374125 
L 226.589687 155.374125 
" style="fill:none;stroke:#1f77b4;stroke-linecap:square;stroke-width:1.5;"/>
   </g>
   <g id="line2d_46">
    <path clip-path="url(#p876a571488)" d="M 226.589687 155.374125 
L 226.589687 155.374125 
L 226.589687 155.374125 
L 226.589687 155.374125 
L 226.589687 155.374125 
L 226.589687 155.374125 
L 226.589687 155.374125 
L 226.589687 155.374125 
L 226.589687 155.374125 
L 226.589687 155.374125 
L 226.589687 155.374125 
L 226.589687 155.374125 
L 226.589687 155.374125 
L 226.589687 155.374125 
L 226.589687 155.374125 
L 226.589687 155.374125 
L 226.589687 155.374125 
L 226.589687 155.374125 
L 226.589687 155.374125 
L 226.589687 155.374125 
" style="fill:none;stroke:#ff7f0e;stroke-linecap:square;stroke-width:1.5;"/>
   </g>
   <g id="line2d_47">
    <path clip-path="url(#p876a571488)" d="M 226.589687 155.374125 
L 225.399287 155.728941 
L 224.446967 155.728941 
L 223.435127 156.083757 
L 222.244728 156.083757 
L 221.292407 156.083757 
L 220.340088 156.482925 
L 219.387767 156.482925 
L 218.137847 156.482925 
L 217.185528 156.837741 
L 216.233207 156.837741 
L 215.280888 156.837741 
L 214.090487 157.192557 
L 213.138168 157.192557 
L 212.185847 157.192557 
L 211.233528 157.547373 
L 210.043127 157.547373 
L 208.852727 157.547373 
L 207.662328 157.547373 
L 206.710007 157.769133 
" style="fill:none;stroke:#2ca02c;stroke-linecap:square;stroke-width:1.5;"/>
   </g>
   <g id="line2d_48">
    <path clip-path="url(#p876a571488)" d="M 226.589687 155.374125 
L 225.399287 155.374125 
L 224.446967 155.374125 
L 222.958967 155.728941 
L 221.530487 155.728941 
L 220.102007 156.083757 
L 218.673528 156.083757 
L 217.245047 156.438573 
L 215.578487 156.438573 
L 213.673847 156.438573 
L 212.007287 156.438573 
L 210.043127 156.438573 
L 208.376567 156.438573 
L 206.471927 156.261165 
L 204.983927 156.261165 
L 203.317367 155.906349 
L 201.650807 155.551533 
L 200.222328 155.551533 
L 198.555768 155.196717 
L 196.889207 154.797549 
" style="fill:none;stroke:#d62728;stroke-linecap:square;stroke-width:1.5;"/>
   </g>
   <g id="line2d_49">
    <path clip-path="url(#p876a571488)" d="M 226.589687 155.374125 
L 226.589687 155.374125 
L 226.589687 155.374125 
L 226.589687 155.374125 
L 226.589687 155.374125 
L 226.589687 155.374125 
L 226.589687 155.374125 
L 226.589687 155.374125 
L 226.827767 155.374125 
L 226.827767 155.374125 
L 226.827767 155.374125 
L 226.827767 155.374125 
L 226.827767 155.374125 
L 226.827767 155.374125 
L 226.827767 155.374125 
L 226.827767 155.374125 
L 227.065847 155.374125 
L 227.065847 155.374125 
L 227.065847 155.374125 
L 227.065847 155.374125 
" style="fill:none;stroke:#9467bd;stroke-linecap:square;stroke-width:1.5;"/>
   </g>
   <g id="line2d_50">
    <path clip-path="url(#p876a571488)" d="M 226.589687 155.374125 
L 226.589687 155.374125 
L 226.589687 155.374125 
L 226.589687 155.374125 
L 226.827767 155.728941 
L 227.065847 155.728941 
L 227.065847 155.728941 
L 227.303927 155.728941 
L 227.303927 155.728941 
L 226.827767 155.728941 
L 226.589687 155.728941 
L 226.351608 155.728941 
L 225.875448 155.728941 
L 225.637368 155.728941 
L 225.637368 155.374125 
L 225.637368 155.374125 
L 225.637368 155.374125 
L 225.637368 155.374125 
L 225.637368 155.374125 
L 225.637368 155.374125 
" style="fill:none;stroke:#8c564b;stroke-linecap:square;stroke-width:1.5;"/>
   </g>
   <g id="line2d_51">
    <path clip-path="url(#p876a571488)" d="M 226.589687 155.374125 
L 226.351608 156.793389 
L 226.351608 158.212653 
L 226.113528 159.631917 
L 226.113528 161.095533 
L 225.934967 162.514797 
L 225.815927 163.978413 
L 225.696888 165.397677 
L 225.696888 166.816941 
L 225.577847 167.881389 
L 225.458808 169.345005 
L 225.458808 170.764269 
L 224.982647 172.183533 
L 224.387448 174.001965 
L 223.792248 175.421229 
L 223.197047 176.840493 
L 222.958967 178.304109 
L 222.839927 180.078189 
L 222.839927 181.541805 
L 222.601847 182.961069 
" style="fill:none;stroke:#e377c2;stroke-linecap:square;stroke-width:1.5;"/>
   </g>
   <g id="line2d_52">
    <path clip-path="url(#p876a571488)" d="M 226.589687 155.374125 
L 226.113528 156.793389 
L 225.815927 157.902189 
L 225.815927 159.321453 
L 225.815927 160.385901 
L 226.589687 161.849517 
L 227.542007 163.268781 
L 228.732407 164.333229 
L 230.160888 165.042861 
L 231.648888 165.796845 
L 233.315448 166.506477 
L 234.743927 167.216109 
L 236.172407 167.925741 
L 237.838967 168.635373 
L 239.505527 168.990189 
L 241.172088 169.389357 
L 242.838648 169.744173 
L 244.564728 170.098989 
L 246.231288 170.098989 
L 248.195448 170.098989 
" style="fill:none;stroke:#7f7f7f;stroke-linecap:square;stroke-width:1.5;"/>
   </g>
   <g id="line2d_53">
    <path clip-path="url(#p876a571488)" d="M 226.589687 155.374125 
L 226.351608 156.837741 
L 226.113528 158.257005 
L 225.875448 159.676269 
L 225.637368 161.139885 
L 225.399287 162.559149 
L 225.161207 163.978413 
L 224.923127 165.442029 
L 224.685047 166.861293 
L 224.446967 168.280557 
L 224.149367 169.744173 
L 223.673207 171.163437 
L 223.435127 172.582701 
L 223.197047 174.046317 
L 222.720888 175.465581 
L 222.482808 176.884845 
L 222.244728 178.348461 
L 221.768567 179.767725 
L 221.530487 181.186989 
L 221.292407 182.650605 
" style="fill:none;stroke:#bcbd22;stroke-linecap:square;stroke-width:1.5;"/>
   </g>
   <g id="line2d_54">
    <path clip-path="url(#p876a571488)" d="M 226.589687 155.374125 
L 226.589687 156.793389 
L 226.589687 158.257005 
L 226.589687 159.676269 
L 226.708728 160.740717 
L 227.422967 162.559149 
L 228.137207 164.333229 
L 229.089528 165.752493 
L 230.458487 166.506477 
L 232.125047 167.216109 
L 233.851127 168.280557 
L 235.636728 169.167597 
L 237.303288 170.098989 
L 238.969847 170.986029 
L 240.755448 171.695661 
L 242.541047 172.227885 
L 244.207607 172.227885 
L 246.350327 172.582701 
L 248.552568 172.937517 
L 250.754807 172.937517 
" style="fill:none;stroke:#17becf;stroke-linecap:square;stroke-width:1.5;"/>
   </g>
   <g id="line2d_55">
    <path clip-path="url(#p876a571488)" d="M 226.589687 155.374125 
L 226.470647 156.793389 
L 226.470647 158.212653 
L 226.470647 159.277101 
L 226.470647 160.696365 
L 226.470647 161.760813 
L 226.470647 163.268781 
L 226.470647 164.333229 
L 226.470647 165.752493 
L 226.470647 166.816941 
L 226.470647 168.236205 
L 226.470647 169.300653 
L 226.470647 170.719917 
L 226.470647 171.873069 
L 226.470647 173.292333 
L 226.470647 174.356781 
L 226.470647 175.776045 
L 226.470647 176.840493 
L 226.470647 178.259757 
L 226.351608 179.324205 
" style="fill:none;stroke:#1f77b4;stroke-linecap:square;stroke-width:1.5;"/>
   </g>
   <g id="line2d_56">
    <path clip-path="url(#p876a571488)" d="M 226.589687 155.374125 
L 226.351608 156.438573 
L 226.113528 157.857837 
L 225.875448 158.922285 
L 225.637368 160.341549 
L 225.399287 161.405997 
L 225.161207 162.869613 
L 225.161207 164.333229 
L 224.923127 165.397677 
L 224.685047 166.816941 
L 224.446967 167.881389 
L 224.208888 169.300653 
L 223.970808 170.365101 
L 223.732728 171.473901 
L 223.494647 172.937517 
L 223.256567 174.001965 
L 223.018487 175.421229 
L 222.780407 176.485677 
L 222.542327 177.904941 
L 222.304248 178.969389 
" style="fill:none;stroke:#ff7f0e;stroke-linecap:square;stroke-width:1.5;"/>
   </g>
   <g id="line2d_57">
    <path clip-path="url(#p876a571488)" d="M 226.589687 155.374125 
L 228.494327 155.374125 
L 230.398967 155.374125 
L 232.363127 155.374125 
L 234.505847 155.374125 
L 236.410487 155.374125 
L 238.374648 155.374125 
L 240.517368 155.374125 
L 242.422008 155.374125 
L 244.326648 155.374125 
L 246.231288 155.374125 
L 248.374008 155.374125 
L 250.338167 155.374125 
L 252.242807 155.374125 
L 254.445047 155.374125 
L 256.349688 155.374125 
L 258.254327 155.374125 
L 260.397047 155.374125 
L 262.301688 155.374125 
L 264.206327 155.374125 
" style="fill:none;stroke:#2ca02c;stroke-linecap:square;stroke-width:1.5;"/>
   </g>
   <g id="line2d_58">
    <path clip-path="url(#p876a571488)" d="M 226.589687 155.374125 
L 228.732407 155.374125 
L 230.637047 155.374125 
L 232.601207 155.374125 
L 234.743927 155.374125 
L 236.648567 155.374125 
L 238.553207 155.374125 
L 240.695927 155.374125 
L 242.600568 155.019309 
L 244.802808 155.019309 
L 246.707448 155.019309 
L 248.850167 154.664493 
L 251.052407 154.664493 
L 253.195127 154.664493 
L 255.099767 154.309677 
L 257.242487 154.309677 
L 259.385207 154.309677 
L 261.587447 153.954861 
L 263.492088 153.954861 
L 265.634807 153.555693 
" style="fill:none;stroke:#d62728;stroke-linecap:square;stroke-width:1.5;"/>
   </g>
   <g id="line2d_59">
    <path clip-path="url(#p876a571488)" d="M 226.589687 155.374125 
L 226.589687 155.374125 
L 226.589687 155.374125 
L 226.589687 155.374125 
L 226.589687 155.374125 
L 226.589687 155.374125 
L 226.589687 155.374125 
L 226.589687 155.374125 
L 226.589687 155.374125 
L 226.589687 155.374125 
L 226.589687 155.374125 
L 226.589687 155.374125 
L 226.589687 155.374125 
L 226.589687 155.374125 
L 226.589687 155.374125 
L 226.589687 155.374125 
L 226.589687 155.374125 
L 226.589687 155.374125 
L 226.589687 155.374125 
L 226.589687 155.374125 
" style="fill:none;stroke:#9467bd;stroke-linecap:square;stroke-width:1.5;"/>
   </g>
   <g id="line2d_60">
    <path clip-path="url(#p876a571488)" d="M 226.589687 155.374125 
L 226.589687 155.374125 
L 226.589687 155.374125 
L 226.589687 155.374125 
L 226.589687 155.374125 
L 226.589687 155.374125 
L 226.589687 155.374125 
L 226.589687 155.374125 
L 226.589687 155.374125 
L 226.589687 155.374125 
L 226.589687 155.374125 
L 226.589687 155.374125 
L 226.589687 155.374125 
L 226.589687 155.374125 
L 226.589687 155.374125 
L 226.589687 155.374125 
L 226.589687 155.374125 
L 226.589687 155.374125 
L 226.589687 155.374125 
L 226.589687 155.374125 
" style="fill:none;stroke:#8c564b;stroke-linecap:square;stroke-width:1.5;"/>
   </g>
   <g id="patch_3">
    <path d="M 48.029688 288.430125 
L 48.029688 22.318125 
" style="fill:none;stroke:#000000;stroke-linecap:square;stroke-linejoin:miter;stroke-width:0.8;"/>
   </g>
   <g id="patch_4">
    <path d="M 405.149688 288.430125 
L 405.149688 22.318125 
" style="fill:none;stroke:#000000;stroke-linecap:square;stroke-linejoin:miter;stroke-width:0.8;"/>
   </g>
   <g id="patch_5">
    <path d="M 48.029687 288.430125 
L 405.149688 288.430125 
" style="fill:none;stroke:#000000;stroke-linecap:square;stroke-linejoin:miter;stroke-width:0.8;"/>
   </g>
   <g id="patch_6">
    <path d="M 48.029687 22.318125 
L 405.149688 22.318125 
" style="fill:none;stroke:#000000;stroke-linecap:square;stroke-linejoin:miter;stroke-width:0.8;"/>
   </g>
   <g id="text_15">
    <!-- hyang_7 -->
    <g transform="translate(201.13 16.318125)scale(0.12 -0.12)">
     <defs>
      <path d="M 54.890625 33.015625 
L 54.890625 0 
L 45.90625 0 
L 45.90625 32.71875 
Q 45.90625 40.484375 42.875 44.328125 
Q 39.84375 48.1875 33.796875 48.1875 
Q 26.515625 48.1875 22.3125 43.546875 
Q 18.109375 38.921875 18.109375 30.90625 
L 18.109375 0 
L 9.078125 0 
L 9.078125 75.984375 
L 18.109375 75.984375 
L 18.109375 46.1875 
Q 21.34375 51.125 25.703125 53.5625 
Q 30.078125 56 35.796875 56 
Q 45.21875 56 50.046875 50.171875 
Q 54.890625 44.34375 54.890625 33.015625 
z
" id="DejaVuSans-104"/>
      <path d="M 32.171875 -5.078125 
Q 28.375 -14.84375 24.75 -17.8125 
Q 21.140625 -20.796875 15.09375 -20.796875 
L 7.90625 -20.796875 
L 7.90625 -13.28125 
L 13.1875 -13.28125 
Q 16.890625 -13.28125 18.9375 -11.515625 
Q 21 -9.765625 23.484375 -3.21875 
L 25.09375 0.875 
L 2.984375 54.6875 
L 12.5 54.6875 
L 29.59375 11.921875 
L 46.6875 54.6875 
L 56.203125 54.6875 
z
" id="DejaVuSans-121"/>
      <path d="M 34.28125 27.484375 
Q 23.390625 27.484375 19.1875 25 
Q 14.984375 22.515625 14.984375 16.5 
Q 14.984375 11.71875 18.140625 8.90625 
Q 21.296875 6.109375 26.703125 6.109375 
Q 34.1875 6.109375 38.703125 11.40625 
Q 43.21875 16.703125 43.21875 25.484375 
L 43.21875 27.484375 
z
M 52.203125 31.203125 
L 52.203125 0 
L 43.21875 0 
L 43.21875 8.296875 
Q 40.140625 3.328125 35.546875 0.953125 
Q 30.953125 -1.421875 24.3125 -1.421875 
Q 15.921875 -1.421875 10.953125 3.296875 
Q 6 8.015625 6 15.921875 
Q 6 25.140625 12.171875 29.828125 
Q 18.359375 34.515625 30.609375 34.515625 
L 43.21875 34.515625 
L 43.21875 35.40625 
Q 43.21875 41.609375 39.140625 45 
Q 35.0625 48.390625 27.6875 48.390625 
Q 23 48.390625 18.546875 47.265625 
Q 14.109375 46.140625 10.015625 43.890625 
L 10.015625 52.203125 
Q 14.9375 54.109375 19.578125 55.046875 
Q 24.21875 56 28.609375 56 
Q 40.484375 56 46.34375 49.84375 
Q 52.203125 43.703125 52.203125 31.203125 
z
" id="DejaVuSans-97"/>
      <path d="M 54.890625 33.015625 
L 54.890625 0 
L 45.90625 0 
L 45.90625 32.71875 
Q 45.90625 40.484375 42.875 44.328125 
Q 39.84375 48.1875 33.796875 48.1875 
Q 26.515625 48.1875 22.3125 43.546875 
Q 18.109375 38.921875 18.109375 30.90625 
L 18.109375 0 
L 9.078125 0 
L 9.078125 54.6875 
L 18.109375 54.6875 
L 18.109375 46.1875 
Q 21.34375 51.125 25.703125 53.5625 
Q 30.078125 56 35.796875 56 
Q 45.21875 56 50.046875 50.171875 
Q 54.890625 44.34375 54.890625 33.015625 
z
" id="DejaVuSans-110"/>
      <path d="M 45.40625 27.984375 
Q 45.40625 37.75 41.375 43.109375 
Q 37.359375 48.484375 30.078125 48.484375 
Q 22.859375 48.484375 18.828125 43.109375 
Q 14.796875 37.75 14.796875 27.984375 
Q 14.796875 18.265625 18.828125 12.890625 
Q 22.859375 7.515625 30.078125 7.515625 
Q 37.359375 7.515625 41.375 12.890625 
Q 45.40625 18.265625 45.40625 27.984375 
z
M 54.390625 6.78125 
Q 54.390625 -7.171875 48.1875 -13.984375 
Q 42 -20.796875 29.203125 -20.796875 
Q 24.46875 -20.796875 20.265625 -20.09375 
Q 16.0625 -19.390625 12.109375 -17.921875 
L 12.109375 -9.1875 
Q 16.0625 -11.328125 19.921875 -12.34375 
Q 23.78125 -13.375 27.78125 -13.375 
Q 36.625 -13.375 41.015625 -8.765625 
Q 45.40625 -4.15625 45.40625 5.171875 
L 45.40625 9.625 
Q 42.625 4.78125 38.28125 2.390625 
Q 33.9375 0 27.875 0 
Q 17.828125 0 11.671875 7.65625 
Q 5.515625 15.328125 5.515625 27.984375 
Q 5.515625 40.671875 11.671875 48.328125 
Q 17.828125 56 27.875 56 
Q 33.9375 56 38.28125 53.609375 
Q 42.625 51.21875 45.40625 46.390625 
L 45.40625 54.6875 
L 54.390625 54.6875 
z
" id="DejaVuSans-103"/>
      <path d="M 50.984375 -16.609375 
L 50.984375 -23.578125 
L -0.984375 -23.578125 
L -0.984375 -16.609375 
z
" id="DejaVuSans-95"/>
      <path d="M 8.203125 72.90625 
L 55.078125 72.90625 
L 55.078125 68.703125 
L 28.609375 0 
L 18.3125 0 
L 43.21875 64.59375 
L 8.203125 64.59375 
z
" id="DejaVuSans-55"/>
     </defs>
     <use xlink:href="#DejaVuSans-104"/>
     <use x="63.378906" xlink:href="#DejaVuSans-121"/>
     <use x="122.558594" xlink:href="#DejaVuSans-97"/>
     <use x="183.837891" xlink:href="#DejaVuSans-110"/>
     <use x="247.216797" xlink:href="#DejaVuSans-103"/>
     <use x="310.693359" xlink:href="#DejaVuSans-95"/>
     <use x="360.693359" xlink:href="#DejaVuSans-55"/>
    </g>
   </g>
  </g>
 </g>
 <defs>
  <clipPath id="p876a571488">
   <rect height="266.112" width="357.12" x="48.029688" y="22.318125"/>
  </clipPath>
 </defs>
</svg>
