<?xml version="1.0" encoding="utf-8" standalone="no"?>
<!DOCTYPE svg PUBLIC "-//W3C//DTD SVG 1.1//EN"
  "http://www.w3.org/Graphics/SVG/1.1/DTD/svg11.dtd">
<!-- Created with matplotlib (https://matplotlib.org/) -->
<svg height="312.30825pt" version="1.1" viewBox="0 0 425.074687 312.30825" width="425.074687pt" xmlns="http://www.w3.org/2000/svg" xmlns:xlink="http://www.w3.org/1999/xlink">
 <metadata>
  <rdf:RDF xmlns:cc="http://creativecommons.org/ns#" xmlns:dc="http://purl.org/dc/elements/1.1/" xmlns:rdf="http://www.w3.org/1999/02/22-rdf-syntax-ns#">
   <cc:Work>
    <dc:type rdf:resource="http://purl.org/dc/dcmitype/StillImage"/>
    <dc:date>2023-10-16T01:55:59.032885</dc:date>
    <dc:format>image/svg+xml</dc:format>
    <dc:creator>
     <cc:Agent>
      <dc:title>Matplotlib v3.3.4, https://matplotlib.org/</dc:title>
     </cc:Agent>
    </dc:creator>
   </cc:Work>
  </rdf:RDF>
 </metadata>
 <defs>
  <style type="text/css">*{stroke-linecap:butt;stroke-linejoin:round;}</style>
 </defs>
 <g id="figure_1">
  <g id="patch_1">
   <path d="M 0 312.30825 
L 425.074687 312.30825 
L 425.074687 0 
L 0 0 
z
" style="fill:#ffffff;"/>
  </g>
  <g id="axes_1">
   <g id="patch_2">
    <path d="M 48.029688 288.430125 
L 405.149688 288.430125 
L 405.149688 22.318125 
L 48.029688 22.318125 
z
" style="fill:#ffffff;"/>
   </g>
   <g id="matplotlib.axis_1">
    <g id="xtick_1">
     <g id="line2d_1">
      <defs>
       <path d="M 0 0 
L 0 3.5 
" id="m5bec487370" style="stroke:#000000;stroke-width:0.8;"/>
      </defs>
      <g>
       <use style="stroke:#000000;stroke-width:0.8;" x="48.029687" xlink:href="#m5bec487370" y="288.430125"/>
      </g>
     </g>
     <g id="text_1">
      <!-- −1500 -->
      <g transform="translate(31.114844 303.028562)scale(0.1 -0.1)">
       <defs>
        <path d="M 10.59375 35.5 
L 73.1875 35.5 
L 73.1875 27.203125 
L 10.59375 27.203125 
z
" id="DejaVuSans-8722"/>
        <path d="M 12.40625 8.296875 
L 28.515625 8.296875 
L 28.515625 63.921875 
L 10.984375 60.40625 
L 10.984375 69.390625 
L 28.421875 72.90625 
L 38.28125 72.90625 
L 38.28125 8.296875 
L 54.390625 8.296875 
L 54.390625 0 
L 12.40625 0 
z
" id="DejaVuSans-49"/>
        <path d="M 10.796875 72.90625 
L 49.515625 72.90625 
L 49.515625 64.59375 
L 19.828125 64.59375 
L 19.828125 46.734375 
Q 21.96875 47.46875 24.109375 47.828125 
Q 26.265625 48.1875 28.421875 48.1875 
Q 40.625 48.1875 47.75 41.5 
Q 54.890625 34.8125 54.890625 23.390625 
Q 54.890625 11.625 47.5625 5.09375 
Q 40.234375 -1.421875 26.90625 -1.421875 
Q 22.3125 -1.421875 17.546875 -0.640625 
Q 12.796875 0.140625 7.71875 1.703125 
L 7.71875 11.625 
Q 12.109375 9.234375 16.796875 8.0625 
Q 21.484375 6.890625 26.703125 6.890625 
Q 35.15625 6.890625 40.078125 11.328125 
Q 45.015625 15.765625 45.015625 23.390625 
Q 45.015625 31 40.078125 35.4375 
Q 35.15625 39.890625 26.703125 39.890625 
Q 22.75 39.890625 18.8125 39.015625 
Q 14.890625 38.140625 10.796875 36.28125 
z
" id="DejaVuSans-53"/>
        <path d="M 31.78125 66.40625 
Q 24.171875 66.40625 20.328125 58.90625 
Q 16.5 51.421875 16.5 36.375 
Q 16.5 21.390625 20.328125 13.890625 
Q 24.171875 6.390625 31.78125 6.390625 
Q 39.453125 6.390625 43.28125 13.890625 
Q 47.125 21.390625 47.125 36.375 
Q 47.125 51.421875 43.28125 58.90625 
Q 39.453125 66.40625 31.78125 66.40625 
z
M 31.78125 74.21875 
Q 44.046875 74.21875 50.515625 64.515625 
Q 56.984375 54.828125 56.984375 36.375 
Q 56.984375 17.96875 50.515625 8.265625 
Q 44.046875 -1.421875 31.78125 -1.421875 
Q 19.53125 -1.421875 13.0625 8.265625 
Q 6.59375 17.96875 6.59375 36.375 
Q 6.59375 54.828125 13.0625 64.515625 
Q 19.53125 74.21875 31.78125 74.21875 
z
" id="DejaVuSans-48"/>
       </defs>
       <use xlink:href="#DejaVuSans-8722"/>
       <use x="83.789062" xlink:href="#DejaVuSans-49"/>
       <use x="147.412109" xlink:href="#DejaVuSans-53"/>
       <use x="211.035156" xlink:href="#DejaVuSans-48"/>
       <use x="274.658203" xlink:href="#DejaVuSans-48"/>
      </g>
     </g>
    </g>
    <g id="xtick_2">
     <g id="line2d_2">
      <g>
       <use style="stroke:#000000;stroke-width:0.8;" x="107.549688" xlink:href="#m5bec487370" y="288.430125"/>
      </g>
     </g>
     <g id="text_2">
      <!-- −1000 -->
      <g transform="translate(90.634844 303.028562)scale(0.1 -0.1)">
       <use xlink:href="#DejaVuSans-8722"/>
       <use x="83.789062" xlink:href="#DejaVuSans-49"/>
       <use x="147.412109" xlink:href="#DejaVuSans-48"/>
       <use x="211.035156" xlink:href="#DejaVuSans-48"/>
       <use x="274.658203" xlink:href="#DejaVuSans-48"/>
      </g>
     </g>
    </g>
    <g id="xtick_3">
     <g id="line2d_3">
      <g>
       <use style="stroke:#000000;stroke-width:0.8;" x="167.069687" xlink:href="#m5bec487370" y="288.430125"/>
      </g>
     </g>
     <g id="text_3">
      <!-- −500 -->
      <g transform="translate(153.336094 303.028562)scale(0.1 -0.1)">
       <use xlink:href="#DejaVuSans-8722"/>
       <use x="83.789062" xlink:href="#DejaVuSans-53"/>
       <use x="147.412109" xlink:href="#DejaVuSans-48"/>
       <use x="211.035156" xlink:href="#DejaVuSans-48"/>
      </g>
     </g>
    </g>
    <g id="xtick_4">
     <g id="line2d_4">
      <g>
       <use style="stroke:#000000;stroke-width:0.8;" x="226.589687" xlink:href="#m5bec487370" y="288.430125"/>
      </g>
     </g>
     <g id="text_4">
      <!-- 0 -->
      <g transform="translate(223.408437 303.028562)scale(0.1 -0.1)">
       <use xlink:href="#DejaVuSans-48"/>
      </g>
     </g>
    </g>
    <g id="xtick_5">
     <g id="line2d_5">
      <g>
       <use style="stroke:#000000;stroke-width:0.8;" x="286.109688" xlink:href="#m5bec487370" y="288.430125"/>
      </g>
     </g>
     <g id="text_5">
      <!-- 500 -->
      <g transform="translate(276.565938 303.028562)scale(0.1 -0.1)">
       <use xlink:href="#DejaVuSans-53"/>
       <use x="63.623047" xlink:href="#DejaVuSans-48"/>
       <use x="127.246094" xlink:href="#DejaVuSans-48"/>
      </g>
     </g>
    </g>
    <g id="xtick_6">
     <g id="line2d_6">
      <g>
       <use style="stroke:#000000;stroke-width:0.8;" x="345.629687" xlink:href="#m5bec487370" y="288.430125"/>
      </g>
     </g>
     <g id="text_6">
      <!-- 1000 -->
      <g transform="translate(332.904687 303.028562)scale(0.1 -0.1)">
       <use xlink:href="#DejaVuSans-49"/>
       <use x="63.623047" xlink:href="#DejaVuSans-48"/>
       <use x="127.246094" xlink:href="#DejaVuSans-48"/>
       <use x="190.869141" xlink:href="#DejaVuSans-48"/>
      </g>
     </g>
    </g>
    <g id="xtick_7">
     <g id="line2d_7">
      <g>
       <use style="stroke:#000000;stroke-width:0.8;" x="405.149688" xlink:href="#m5bec487370" y="288.430125"/>
      </g>
     </g>
     <g id="text_7">
      <!-- 1500 -->
      <g transform="translate(392.424688 303.028562)scale(0.1 -0.1)">
       <use xlink:href="#DejaVuSans-49"/>
       <use x="63.623047" xlink:href="#DejaVuSans-53"/>
       <use x="127.246094" xlink:href="#DejaVuSans-48"/>
       <use x="190.869141" xlink:href="#DejaVuSans-48"/>
      </g>
     </g>
    </g>
   </g>
   <g id="matplotlib.axis_2">
    <g id="ytick_1">
     <g id="line2d_8">
      <defs>
       <path d="M 0 0 
L -3.5 0 
" id="m8c838c01fe" style="stroke:#000000;stroke-width:0.8;"/>
      </defs>
      <g>
       <use style="stroke:#000000;stroke-width:0.8;" x="48.029688" xlink:href="#m8c838c01fe" y="288.430125"/>
      </g>
     </g>
     <g id="text_8">
      <!-- −1500 -->
      <g transform="translate(7.2 292.229344)scale(0.1 -0.1)">
       <use xlink:href="#DejaVuSans-8722"/>
       <use x="83.789062" xlink:href="#DejaVuSans-49"/>
       <use x="147.412109" xlink:href="#DejaVuSans-53"/>
       <use x="211.035156" xlink:href="#DejaVuSans-48"/>
       <use x="274.658203" xlink:href="#DejaVuSans-48"/>
      </g>
     </g>
    </g>
    <g id="ytick_2">
     <g id="line2d_9">
      <g>
       <use style="stroke:#000000;stroke-width:0.8;" x="48.029688" xlink:href="#m8c838c01fe" y="244.078125"/>
      </g>
     </g>
     <g id="text_9">
      <!-- −1000 -->
      <g transform="translate(7.2 247.877344)scale(0.1 -0.1)">
       <use xlink:href="#DejaVuSans-8722"/>
       <use x="83.789062" xlink:href="#DejaVuSans-49"/>
       <use x="147.412109" xlink:href="#DejaVuSans-48"/>
       <use x="211.035156" xlink:href="#DejaVuSans-48"/>
       <use x="274.658203" xlink:href="#DejaVuSans-48"/>
      </g>
     </g>
    </g>
    <g id="ytick_3">
     <g id="line2d_10">
      <g>
       <use style="stroke:#000000;stroke-width:0.8;" x="48.029688" xlink:href="#m8c838c01fe" y="199.726125"/>
      </g>
     </g>
     <g id="text_10">
      <!-- −500 -->
      <g transform="translate(13.5625 203.525344)scale(0.1 -0.1)">
       <use xlink:href="#DejaVuSans-8722"/>
       <use x="83.789062" xlink:href="#DejaVuSans-53"/>
       <use x="147.412109" xlink:href="#DejaVuSans-48"/>
       <use x="211.035156" xlink:href="#DejaVuSans-48"/>
      </g>
     </g>
    </g>
    <g id="ytick_4">
     <g id="line2d_11">
      <g>
       <use style="stroke:#000000;stroke-width:0.8;" x="48.029688" xlink:href="#m8c838c01fe" y="155.374125"/>
      </g>
     </g>
     <g id="text_11">
      <!-- 0 -->
      <g transform="translate(34.667187 159.173344)scale(0.1 -0.1)">
       <use xlink:href="#DejaVuSans-48"/>
      </g>
     </g>
    </g>
    <g id="ytick_5">
     <g id="line2d_12">
      <g>
       <use style="stroke:#000000;stroke-width:0.8;" x="48.029688" xlink:href="#m8c838c01fe" y="111.022125"/>
      </g>
     </g>
     <g id="text_12">
      <!-- 500 -->
      <g transform="translate(21.942187 114.821344)scale(0.1 -0.1)">
       <use xlink:href="#DejaVuSans-53"/>
       <use x="63.623047" xlink:href="#DejaVuSans-48"/>
       <use x="127.246094" xlink:href="#DejaVuSans-48"/>
      </g>
     </g>
    </g>
    <g id="ytick_6">
     <g id="line2d_13">
      <g>
       <use style="stroke:#000000;stroke-width:0.8;" x="48.029688" xlink:href="#m8c838c01fe" y="66.670125"/>
      </g>
     </g>
     <g id="text_13">
      <!-- 1000 -->
      <g transform="translate(15.579687 70.469344)scale(0.1 -0.1)">
       <use xlink:href="#DejaVuSans-49"/>
       <use x="63.623047" xlink:href="#DejaVuSans-48"/>
       <use x="127.246094" xlink:href="#DejaVuSans-48"/>
       <use x="190.869141" xlink:href="#DejaVuSans-48"/>
      </g>
     </g>
    </g>
    <g id="ytick_7">
     <g id="line2d_14">
      <g>
       <use style="stroke:#000000;stroke-width:0.8;" x="48.029688" xlink:href="#m8c838c01fe" y="22.318125"/>
      </g>
     </g>
     <g id="text_14">
      <!-- 1500 -->
      <g transform="translate(15.579687 26.117344)scale(0.1 -0.1)">
       <use xlink:href="#DejaVuSans-49"/>
       <use x="63.623047" xlink:href="#DejaVuSans-53"/>
       <use x="127.246094" xlink:href="#DejaVuSans-48"/>
       <use x="190.869141" xlink:href="#DejaVuSans-48"/>
      </g>
     </g>
    </g>
   </g>
   <g id="line2d_15">
    <path clip-path="url(#pc2ddb70f59)" d="M 226.589687 155.374125 
L 224.625528 155.374125 
L 222.423287 155.019309 
L 220.221047 155.019309 
L 218.256888 154.620141 
L 216.114168 154.620141 
L 213.911927 154.265325 
L 211.947767 154.265325 
L 209.745528 153.866157 
L 207.781367 153.866157 
L 205.579127 153.866157 
L 203.614968 153.866157 
L 201.650807 153.866157 
L 199.686647 153.866157 
L 197.484408 153.866157 
L 195.520248 153.866157 
L 193.556087 153.866157 
L 191.591927 153.866157 
L 189.627768 153.866157 
L 187.663608 153.866157 
" style="fill:none;stroke:#1f77b4;stroke-linecap:square;stroke-width:1.5;"/>
   </g>
   <g id="line2d_16">
    <path clip-path="url(#pc2ddb70f59)" d="M 226.589687 155.374125 
L 224.446967 155.374125 
L 222.244728 155.374125 
L 220.042487 155.374125 
L 217.899767 155.374125 
L 215.697528 155.374125 
L 213.495287 155.374125 
L 211.352567 155.374125 
L 209.150328 155.374125 
L 206.948087 155.374125 
L 204.745847 155.374125 
L 202.543608 155.374125 
L 200.400888 155.374125 
L 198.198647 155.374125 
L 195.996408 155.374125 
L 193.615608 155.374125 
L 191.413367 155.374125 
L 189.032567 155.374125 
L 186.592247 155.374125 
L 184.211447 155.374125 
" style="fill:none;stroke:#ff7f0e;stroke-linecap:square;stroke-width:1.5;"/>
   </g>
   <g id="line2d_17">
    <path clip-path="url(#pc2ddb70f59)" d="M 226.589687 155.374125 
L 224.804088 155.196717 
L 222.899448 155.196717 
L 220.994808 155.374125 
L 219.209207 155.196717 
L 217.304567 155.196717 
L 215.161847 155.374125 
L 212.721528 155.374125 
L 210.578807 155.374125 
L 208.138487 155.374125 
L 205.995767 155.374125 
L 203.555448 155.374125 
L 201.174647 155.374125 
L 198.972408 155.374125 
L 197.008248 155.374125 
L 195.282168 155.374125 
L 193.258488 155.019309 
L 191.532408 155.019309 
L 189.806328 154.664493 
L 187.366007 154.309677 
" style="fill:none;stroke:#2ca02c;stroke-linecap:square;stroke-width:1.5;"/>
   </g>
   <g id="line2d_18">
    <path clip-path="url(#pc2ddb70f59)" d="M 226.589687 155.374125 
L 223.732728 155.374125 
L 221.113847 155.728941 
L 218.494968 155.728941 
L 215.876087 155.728941 
L 213.257207 156.083757 
L 210.816888 156.083757 
L 208.198007 156.083757 
L 205.579127 156.438573 
L 203.138807 156.438573 
L 200.519927 156.438573 
L 197.901048 156.837741 
L 195.282168 156.837741 
L 192.901367 156.837741 
L 190.282488 157.192557 
L 187.663608 157.192557 
L 185.282807 157.192557 
L 182.604408 157.547373 
L 179.985527 157.547373 
L 177.366647 157.547373 
" style="fill:none;stroke:#d62728;stroke-linecap:square;stroke-width:1.5;"/>
   </g>
   <g id="line2d_19">
    <path clip-path="url(#pc2ddb70f59)" d="M 226.589687 155.374125 
L 232.720247 156.482925 
L 239.267448 156.482925 
L 246.052728 156.083757 
L 253.076087 156.083757 
L 259.861367 156.083757 
L 265.932408 156.482925 
L 272.479607 156.837741 
L 278.788727 156.837741 
L 286.585847 156.083757 
L 293.549688 156.083757 
L 299.263607 156.083757 
L 306.882167 155.728941 
L 314.381687 155.374125 
L 321.762167 155.019309 
L 328.309368 155.019309 
L 334.618488 154.664493 
L 341.225208 154.309677 
L 347.593847 153.954861 
L 354.141048 153.954861 
" style="fill:none;stroke:#9467bd;stroke-linecap:square;stroke-width:1.5;"/>
   </g>
   <g id="line2d_20">
    <path clip-path="url(#pc2ddb70f59)" d="M 226.589687 155.374125 
L 233.136888 155.374125 
L 239.207927 155.728941 
L 245.993207 156.615981 
L 252.421368 156.261165 
L 258.968568 156.083757 
L 265.575288 156.083757 
L 272.182007 155.728941 
L 278.907767 155.728941 
L 285.871607 155.728941 
L 292.656887 155.374125 
L 298.489847 155.196717 
L 305.275127 155.196717 
L 312.417528 155.196717 
L 321.464567 155.196717 
L 328.011768 155.196717 
L 334.320887 154.841901 
L 341.344247 154.841901 
L 349.438967 154.132269 
L 356.819448 154.132269 
" style="fill:none;stroke:#8c564b;stroke-linecap:square;stroke-width:1.5;"/>
   </g>
   <g id="line2d_21">
    <path clip-path="url(#pc2ddb70f59)" d="M 226.589687 155.374125 
L 226.351608 155.551533 
L 226.351608 155.551533 
L 226.351608 155.551533 
L 226.351608 155.551533 
L 226.351608 155.551533 
L 226.292088 155.551533 
L 226.292088 155.551533 
L 226.292088 155.551533 
L 226.292088 155.551533 
L 226.292088 155.551533 
L 226.292088 155.551533 
L 226.054007 155.551533 
L 226.054007 155.551533 
L 225.815927 155.551533 
L 225.637368 155.551533 
L 225.399287 155.551533 
L 225.399287 155.551533 
L 225.161207 155.374125 
L 224.982647 155.374125 
" style="fill:none;stroke:#e377c2;stroke-linecap:square;stroke-width:1.5;"/>
   </g>
   <g id="line2d_22">
    <path clip-path="url(#pc2ddb70f59)" d="M 226.589687 155.374125 
L 226.589687 155.374125 
L 226.351608 155.374125 
L 224.863608 155.374125 
L 222.125687 155.374125 
L 219.387767 155.374125 
L 216.649847 155.374125 
L 213.376248 155.374125 
L 209.209847 155.374125 
L 205.043448 155.019309 
L 200.877048 155.019309 
L 196.532087 154.664493 
L 192.365688 154.664493 
L 188.020727 154.309677 
L 183.437687 154.309677 
L 178.854647 154.309677 
L 174.033527 154.309677 
L 169.450488 154.309677 
L 164.629368 154.309677 
L 159.391608 154.664493 
" style="fill:none;stroke:#7f7f7f;stroke-linecap:square;stroke-width:1.5;"/>
   </g>
   <g id="line2d_23">
    <path clip-path="url(#pc2ddb70f59)" d="M 226.589687 155.374125 
L 220.518647 155.728941 
L 214.566647 156.083757 
L 208.019448 156.438573 
L 200.162807 156.438573 
L 193.198968 156.438573 
L 187.246967 156.438573 
L 180.521208 156.438573 
L 173.497848 156.438573 
L 166.534008 156.438573 
L 159.510648 156.438573 
L 152.963448 156.083757 
L 146.594808 155.374125 
L 138.083448 156.083757 
L 129.810168 156.438573 
L 122.132087 156.438573 
L 114.275447 156.438573 
L 107.490167 156.793389 
L 100.466808 157.503021 
L 92.610168 157.503021 
" style="fill:none;stroke:#bcbd22;stroke-linecap:square;stroke-width:1.5;"/>
   </g>
   <g id="line2d_24">
    <path clip-path="url(#pc2ddb70f59)" d="M 226.589687 155.374125 
L 220.042487 155.019309 
L 213.019127 155.019309 
L 205.995767 155.019309 
L 198.853367 155.019309 
L 190.937207 155.019309 
L 182.902007 154.664493 
L 174.985848 154.309677 
L 167.545848 154.309677 
L 160.343928 153.954861 
L 152.903928 153.600045 
L 145.285368 153.600045 
L 137.785847 153.245229 
L 130.167287 152.846061 
L 122.548727 152.846061 
L 114.454008 152.491245 
L 107.906807 152.491245 
L 101.359608 152.491245 
L 94.574328 153.600045 
L 88.860408 153.600045 
" style="fill:none;stroke:#17becf;stroke-linecap:square;stroke-width:1.5;"/>
   </g>
   <g id="line2d_25">
    <path clip-path="url(#pc2ddb70f59)" d="M 226.589687 155.374125 
L 227.125368 155.019309 
L 226.887287 155.019309 
L 226.887287 155.019309 
L 226.887287 154.620141 
L 226.887287 154.620141 
L 226.887287 154.265325 
L 226.827767 154.265325 
L 226.827767 154.265325 
L 226.827767 154.087917 
L 226.827767 154.087917 
L 227.661047 154.265325 
L 228.494327 155.019309 
L 229.803767 155.374125 
L 231.589368 155.728941 
L 233.374967 155.728941 
L 235.041528 156.083757 
L 237.065207 156.438573 
L 239.029368 156.837741 
L 240.993527 157.192557 
" style="fill:none;stroke:#1f77b4;stroke-linecap:square;stroke-width:1.5;"/>
   </g>
   <g id="line2d_26">
    <path clip-path="url(#pc2ddb70f59)" d="M 226.589687 155.374125 
L 233.970168 155.374125 
L 242.064887 155.019309 
L 249.683447 155.019309 
L 257.599607 155.019309 
L 265.039607 155.019309 
L 272.241528 155.019309 
L 279.443447 155.019309 
L 286.347767 155.374125 
L 295.097207 155.196717 
L 302.537208 155.551533 
L 309.501048 156.261165 
L 317.179127 156.261165 
L 324.559607 155.906349 
L 332.237687 155.551533 
L 339.677687 155.196717 
L 347.296247 155.196717 
L 359.557367 155.196717 
L 366.997367 155.196717 
L 372.770807 155.906349 
" style="fill:none;stroke:#ff7f0e;stroke-linecap:square;stroke-width:1.5;"/>
   </g>
   <g id="line2d_27">
    <path clip-path="url(#pc2ddb70f59)" d="M 226.589687 155.374125 
L 219.149687 155.374125 
L 211.709688 155.374125 
L 204.507767 155.374125 
L 197.067768 155.374125 
L 190.103927 155.728941 
L 182.842488 155.728941 
L 175.878647 156.083757 
L 168.855288 156.083757 
L 161.891447 156.083757 
L 155.522807 156.438573 
L 149.213687 156.793389 
L 142.845048 157.192557 
L 136.774007 157.547373 
L 130.405368 157.547373 
L 124.512888 158.123949 
L 118.739447 158.656173 
L 112.787447 159.188397 
L 106.894968 159.720621 
L 100.645368 160.075437 
" style="fill:none;stroke:#2ca02c;stroke-linecap:square;stroke-width:1.5;"/>
   </g>
   <g id="line2d_28">
    <path clip-path="url(#pc2ddb70f59)" d="M 226.589687 155.374125 
L 219.209207 155.374125 
L 211.947767 155.374125 
L 204.567287 155.019309 
L 197.305847 155.019309 
L 190.282488 155.019309 
L 183.497208 155.374125 
L 176.592887 155.728941 
L 169.569527 156.083757 
L 162.784247 156.083757 
L 155.522807 156.438573 
L 148.618488 156.793389 
L 141.357048 157.148205 
L 134.333687 157.503021 
L 127.191288 157.503021 
L 120.167928 157.503021 
L 113.144568 157.148205 
L 106.359288 156.793389 
L 99.335928 156.793389 
L 93.681528 156.793389 
" style="fill:none;stroke:#d62728;stroke-linecap:square;stroke-width:1.5;"/>
   </g>
   <g id="line2d_29">
    <path clip-path="url(#pc2ddb70f59)" d="M 226.589687 155.374125 
L 224.804088 155.374125 
L 223.078007 155.374125 
L 221.351927 155.374125 
L 218.733047 155.374125 
L 215.638007 155.374125 
L 212.364407 155.728941 
L 209.328888 155.728941 
L 206.233847 156.083757 
L 203.138807 156.438573 
L 199.924727 156.438573 
L 196.829688 156.793389 
L 193.734647 156.793389 
L 190.937207 157.148205 
L 188.734967 157.148205 
L 186.354167 157.148205 
L 184.151927 157.148205 
L 181.771128 157.503021 
L 179.568888 157.503021 
L 177.426167 157.503021 
" style="fill:none;stroke:#9467bd;stroke-linecap:square;stroke-width:1.5;"/>
   </g>
   <g id="line2d_30">
    <path clip-path="url(#pc2ddb70f59)" d="M 226.589687 155.374125 
L 233.136888 154.309677 
L 240.160247 153.954861 
L 245.814648 153.954861 
L 251.052407 153.600045 
L 258.968568 153.245229 
L 267.479927 152.890413 
L 276.229367 152.491245 
L 283.847927 153.245229 
L 292.180727 153.245229 
L 297.180408 153.954861 
L 303.727607 154.309677 
L 313.131768 154.309677 
L 322.535927 154.309677 
L 331.940088 154.664493 
L 341.344247 154.664493 
L 350.748407 154.664493 
L 358.843127 154.664493 
L 367.771127 154.664493 
L 375.330168 154.664493 
" style="fill:none;stroke:#8c564b;stroke-linecap:square;stroke-width:1.5;"/>
   </g>
   <g id="line2d_31">
    <path clip-path="url(#pc2ddb70f59)" d="M 226.589687 155.374125 
L 230.696567 154.309677 
L 238.077047 154.664493 
L 245.636088 154.664493 
L 253.195127 154.664493 
L 260.635128 154.664493 
L 267.658487 153.733101 
L 274.324727 152.668653 
L 282.181367 151.959021 
L 291.942648 150.894573 
L 300.037367 150.894573 
L 307.536887 150.894573 
L 314.917368 150.894573 
L 322.416887 150.894573 
L 329.797368 150.894573 
L 337.296888 150.894573 
L 344.677368 150.894573 
L 353.843447 151.604205 
L 363.723768 153.378285 
L 370.925687 153.378285 
" style="fill:none;stroke:#e377c2;stroke-linecap:square;stroke-width:1.5;"/>
   </g>
   <g id="line2d_32">
    <path clip-path="url(#pc2ddb70f59)" d="M 226.589687 155.374125 
L 218.554487 155.019309 
L 211.293048 155.019309 
L 204.031608 155.019309 
L 196.651128 155.374125 
L 189.032567 155.374125 
L 181.533048 155.374125 
L 173.914488 155.374125 
L 166.534008 155.728941 
L 159.510648 155.728941 
L 152.487288 156.083757 
L 145.463928 156.438573 
L 138.559607 156.438573 
L 132.131448 156.438573 
L 126.298488 156.438573 
L 120.584568 156.438573 
L 114.513528 156.083757 
L 108.323448 156.083757 
L 102.014328 156.083757 
L 95.705208 156.438573 
" style="fill:none;stroke:#7f7f7f;stroke-linecap:square;stroke-width:1.5;"/>
   </g>
   <g id="line2d_33">
    <path clip-path="url(#pc2ddb70f59)" d="M 226.589687 155.374125 
L 224.208888 155.019309 
L 222.839927 154.664493 
L 221.530487 154.309677 
L 220.221047 153.777453 
L 218.673528 153.777453 
L 217.364087 153.777453 
L 215.578487 153.777453 
L 214.150007 154.132269 
L 212.602487 154.132269 
L 211.054968 154.132269 
L 209.507448 154.132269 
L 207.959927 154.132269 
L 206.412408 154.132269 
L 204.864888 154.132269 
L 203.555448 154.132269 
L 202.126968 154.132269 
L 200.579447 154.132269 
L 199.031927 154.132269 
L 197.484408 154.132269 
" style="fill:none;stroke:#bcbd22;stroke-linecap:square;stroke-width:1.5;"/>
   </g>
   <g id="line2d_34">
    <path clip-path="url(#pc2ddb70f59)" d="M 226.589687 155.374125 
L 225.042168 155.374125 
L 223.494647 155.374125 
L 221.947127 155.374125 
L 220.518647 155.374125 
L 219.209207 155.374125 
L 217.661687 155.374125 
L 216.114168 155.374125 
L 214.566647 155.374125 
L 213.019127 155.374125 
L 211.709688 155.374125 
L 210.162168 155.374125 
L 208.614647 155.374125 
L 207.186168 155.374125 
L 205.638647 155.374125 
L 204.329207 155.374125 
L 202.781688 155.374125 
L 201.234168 155.374125 
L 199.686647 155.374125 
L 198.139128 155.374125 
" style="fill:none;stroke:#17becf;stroke-linecap:square;stroke-width:1.5;"/>
   </g>
   <g id="line2d_35">
    <path clip-path="url(#pc2ddb70f59)" d="M 226.589687 155.374125 
L 220.042487 155.374125 
L 212.364407 156.793389 
L 204.924408 157.857837 
L 197.960567 158.212653 
L 191.413367 157.857837 
L 184.806647 157.148205 
L 176.295288 157.503021 
L 167.783928 157.503021 
L 159.451127 157.503021 
L 150.939768 157.503021 
L 144.214008 157.503021 
L 137.607287 157.503021 
L 131.952888 157.503021 
L 126.060407 157.148205 
L 120.346488 157.148205 
L 112.727928 158.212653 
L 104.811768 159.676269 
L 97.847927 159.676269 
L 90.884087 159.676269 
" style="fill:none;stroke:#1f77b4;stroke-linecap:square;stroke-width:1.5;"/>
   </g>
   <g id="line2d_36">
    <path clip-path="url(#pc2ddb70f59)" d="M 226.589687 155.374125 
L 233.732088 155.728941 
L 240.279288 155.728941 
L 247.778807 155.728941 
L 254.921207 155.728941 
L 262.182647 155.728941 
L 269.206007 155.728941 
L 276.169848 155.728941 
L 283.133688 155.374125 
L 290.990327 155.374125 
L 298.668408 155.374125 
L 306.108407 155.374125 
L 313.726968 155.374125 
L 321.226487 155.374125 
L 328.606967 155.019309 
L 336.046967 155.019309 
L 343.486967 155.019309 
L 350.688887 155.019309 
L 357.652727 155.019309 
L 365.330807 155.019309 
" style="fill:none;stroke:#ff7f0e;stroke-linecap:square;stroke-width:1.5;"/>
   </g>
   <g id="line2d_37">
    <path clip-path="url(#pc2ddb70f59)" d="M 226.589687 155.374125 
L 220.042487 155.551533 
L 212.840567 155.196717 
L 205.638647 156.261165 
L 197.305847 157.015149 
L 190.103927 157.015149 
L 183.140087 157.015149 
L 176.116727 157.015149 
L 168.855288 157.015149 
L 161.891447 157.015149 
L 154.451448 157.015149 
L 147.070967 156.660333 
L 139.809528 156.261165 
L 133.024248 156.261165 
L 126.238968 156.261165 
L 119.691767 157.015149 
L 113.144568 157.369965 
L 105.942648 157.724781 
L 98.086007 157.724781 
L 90.884087 157.724781 
" style="fill:none;stroke:#2ca02c;stroke-linecap:square;stroke-width:1.5;"/>
   </g>
   <g id="line2d_38">
    <path clip-path="url(#pc2ddb70f59)" d="M 226.589687 155.374125 
L 234.446327 155.019309 
L 241.469687 155.019309 
L 248.254967 155.728941 
L 254.802167 156.083757 
L 262.004087 155.728941 
L 270.515447 154.309677 
L 278.134007 153.555693 
L 284.740727 154.664493 
L 291.526007 154.309677 
L 294.144887 153.954861 
L 299.799287 153.954861 
L 314.679287 155.019309 
L 323.845368 155.019309 
L 331.702007 154.664493 
L 339.558648 154.664493 
L 347.653368 154.664493 
L 355.510008 155.728941 
L 361.878647 155.728941 
L 369.080568 156.482925 
" style="fill:none;stroke:#d62728;stroke-linecap:square;stroke-width:1.5;"/>
   </g>
   <g id="line2d_39">
    <path clip-path="url(#pc2ddb70f59)" d="M 226.589687 155.374125 
L 228.910967 155.728941 
L 231.410808 155.906349 
L 233.910647 155.906349 
L 236.350967 156.083757 
L 238.731767 156.261165 
L 240.934008 156.261165 
L 242.005368 156.438573 
L 243.195767 156.615981 
L 244.386167 156.615981 
L 244.862327 155.374125 
L 245.040887 155.019309 
L 245.398008 155.019309 
L 245.695607 155.019309 
L 246.052728 155.019309 
L 246.171767 155.019309 
L 246.171767 155.019309 
L 246.171767 155.019309 
L 246.171767 155.019309 
L 246.171767 155.019309 
" style="fill:none;stroke:#9467bd;stroke-linecap:square;stroke-width:1.5;"/>
   </g>
   <g id="line2d_40">
    <path clip-path="url(#pc2ddb70f59)" d="M 226.589687 155.374125 
L 226.589687 155.374125 
L 226.589687 155.374125 
L 226.589687 155.374125 
L 226.589687 155.374125 
L 226.589687 155.374125 
L 226.589687 155.374125 
L 226.589687 155.374125 
L 226.589687 155.374125 
L 226.589687 155.374125 
L 226.589687 155.374125 
L 226.589687 155.374125 
L 226.589687 155.374125 
L 226.589687 155.374125 
L 226.589687 155.374125 
L 226.589687 155.374125 
L 226.589687 155.374125 
L 226.589687 155.374125 
L 226.589687 155.374125 
L 226.589687 155.374125 
" style="fill:none;stroke:#8c564b;stroke-linecap:square;stroke-width:1.5;"/>
   </g>
   <g id="line2d_41">
    <path clip-path="url(#pc2ddb70f59)" d="M 226.589687 155.374125 
L 226.589687 155.374125 
L 226.708728 155.374125 
L 226.708728 155.374125 
L 226.708728 155.374125 
L 226.768248 155.374125 
L 226.768248 155.374125 
L 226.768248 155.374125 
L 226.887287 155.196717 
L 226.887287 155.196717 
L 227.006327 155.374125 
L 227.006327 155.374125 
L 227.006327 155.374125 
L 227.125368 155.374125 
L 227.125368 155.374125 
L 227.125368 155.374125 
L 227.244407 155.196717 
L 227.244407 155.196717 
L 227.363448 155.196717 
L 227.363448 155.196717 
" style="fill:none;stroke:#e377c2;stroke-linecap:square;stroke-width:1.5;"/>
   </g>
   <g id="line2d_42">
    <path clip-path="url(#pc2ddb70f59)" d="M 226.589687 155.374125 
L 226.649207 155.551533 
L 226.649207 155.551533 
L 226.649207 155.551533 
L 226.768248 155.374125 
L 226.768248 155.374125 
L 226.887287 155.374125 
L 226.887287 155.374125 
L 226.887287 155.374125 
L 227.006327 155.374125 
L 227.006327 155.374125 
L 227.006327 155.374125 
L 227.899127 155.374125 
L 228.732407 155.551533 
L 229.625207 155.551533 
L 230.994168 155.196717 
L 233.672567 154.664493 
L 236.529528 154.664493 
L 240.219767 154.664493 
L 244.267127 154.841901 
" style="fill:none;stroke:#7f7f7f;stroke-linecap:square;stroke-width:1.5;"/>
   </g>
   <g id="line2d_43">
    <path clip-path="url(#pc2ddb70f59)" d="M 226.589687 155.374125 
L 230.934647 155.728941 
L 236.053368 155.728941 
L 241.350648 155.507181 
L 246.707448 155.507181 
L 252.183288 155.861997 
L 257.599607 156.571629 
L 262.658807 157.369965 
L 266.110968 157.369965 
L 269.622647 157.369965 
L 273.134327 157.369965 
L 277.062648 157.724781 
L 282.776567 157.724781 
L 288.430968 157.724781 
L 294.085367 157.724781 
L 300.037367 157.902189 
L 306.108407 157.902189 
L 309.203447 158.079597 
L 311.584248 158.079597 
L 314.262647 158.257005 
" style="fill:none;stroke:#bcbd22;stroke-linecap:square;stroke-width:1.5;"/>
   </g>
   <g id="line2d_44">
    <path clip-path="url(#pc2ddb70f59)" d="M 226.589687 155.374125 
L 220.399608 154.620141 
L 213.852407 155.374125 
L 207.543287 156.128109 
L 201.829367 156.482925 
L 196.353527 156.837741 
L 190.877688 156.837741 
L 185.639927 156.837741 
L 180.402167 156.482925 
L 175.164408 156.482925 
L 169.926648 156.128109 
L 164.688887 156.128109 
L 159.451127 156.128109 
L 153.975288 156.128109 
L 148.499448 156.128109 
L 143.737847 155.374125 
L 138.857208 155.374125 
L 133.619448 156.128109 
L 128.381687 156.837741 
L 122.667767 156.837741 
" style="fill:none;stroke:#17becf;stroke-linecap:square;stroke-width:1.5;"/>
   </g>
   <g id="line2d_45">
    <path clip-path="url(#pc2ddb70f59)" d="M 226.589687 155.374125 
L 231.886967 154.664493 
L 236.886647 153.954861 
L 243.255288 153.600045 
L 250.457207 153.600045 
L 257.659128 153.600045 
L 263.313527 152.446893 
L 269.206007 151.027629 
L 274.027128 151.027629 
L 278.193528 151.737261 
L 283.014648 152.092077 
L 289.561847 152.846061 
L 296.347127 153.245229 
L 302.656248 153.245229 
L 308.608248 152.846061 
L 315.155447 152.446893 
L 323.012088 152.446893 
L 330.868727 152.446893 
L 335.273208 152.446893 
L 338.070648 152.446893 
" style="fill:none;stroke:#1f77b4;stroke-linecap:square;stroke-width:1.5;"/>
   </g>
   <g id="line2d_46">
    <path clip-path="url(#pc2ddb70f59)" d="M 226.589687 155.374125 
L 233.613047 156.083757 
L 240.398327 156.793389 
L 246.945527 157.148205 
L 253.254648 156.083757 
L 259.801848 155.374125 
L 266.468088 155.019309 
L 273.789047 154.487085 
L 280.812408 153.777453 
L 288.430968 153.422637 
L 295.037688 153.023469 
L 302.418167 153.023469 
L 309.679607 152.668653 
L 317.060088 152.313837 
L 324.321528 152.313837 
L 331.702007 151.959021 
L 338.963447 151.559853 
L 346.403447 151.559853 
L 353.605367 151.205037 
L 361.045367 150.850221 
" style="fill:none;stroke:#ff7f0e;stroke-linecap:square;stroke-width:1.5;"/>
   </g>
   <g id="line2d_47">
    <path clip-path="url(#pc2ddb70f59)" d="M 226.589687 155.374125 
L 226.589687 155.374125 
L 226.589687 155.374125 
L 226.589687 155.374125 
L 226.589687 155.374125 
L 226.589687 155.374125 
L 226.589687 155.374125 
L 226.589687 155.374125 
L 226.589687 155.374125 
L 226.589687 155.374125 
L 226.589687 155.374125 
L 226.589687 155.374125 
L 226.589687 155.374125 
L 226.589687 155.374125 
L 226.589687 155.374125 
L 226.589687 155.374125 
L 226.589687 155.374125 
L 226.589687 155.374125 
L 226.589687 155.374125 
L 226.589687 155.374125 
" style="fill:none;stroke:#2ca02c;stroke-linecap:square;stroke-width:1.5;"/>
   </g>
   <g id="line2d_48">
    <path clip-path="url(#pc2ddb70f59)" d="M 226.589687 155.374125 
L 226.589687 155.374125 
L 226.589687 155.374125 
L 226.589687 155.374125 
L 226.589687 155.374125 
L 226.589687 155.374125 
L 226.589687 155.374125 
L 226.589687 155.374125 
L 226.589687 155.374125 
L 226.589687 155.374125 
L 226.589687 155.374125 
L 226.589687 155.374125 
L 226.589687 155.374125 
L 226.589687 155.374125 
L 226.589687 155.374125 
L 226.589687 155.374125 
L 226.589687 155.374125 
L 226.589687 155.374125 
L 226.589687 155.374125 
L 226.589687 155.374125 
" style="fill:none;stroke:#d62728;stroke-linecap:square;stroke-width:1.5;"/>
   </g>
   <g id="line2d_49">
    <path clip-path="url(#pc2ddb70f59)" d="M 226.589687 155.374125 
L 224.446967 155.728941 
L 222.423287 155.728941 
L 217.185528 154.664493 
L 211.531127 153.555693 
L 205.400567 154.087917 
L 199.091447 154.841901 
L 192.544247 155.196717 
L 186.235128 155.551533 
L 180.402167 155.906349 
L 174.926328 156.438573 
L 169.510008 156.970797 
L 164.034167 157.503021 
L 158.439288 158.212653 
L 152.844407 158.212653 
L 147.368567 158.212653 
L 141.714168 158.212653 
L 136.178808 158.212653 
L 130.583928 158.212653 
L 124.870007 158.212653 
" style="fill:none;stroke:#9467bd;stroke-linecap:square;stroke-width:1.5;"/>
   </g>
   <g id="line2d_50">
    <path clip-path="url(#pc2ddb70f59)" d="M 226.589687 155.374125 
L 232.363127 155.551533 
L 237.838967 156.128109 
L 244.981368 156.482925 
L 252.123767 156.482925 
L 259.206647 156.837741 
L 266.408568 156.837741 
L 273.550968 157.414317 
L 280.990968 157.059501 
L 288.252408 155.906349 
L 295.454327 156.305517 
L 303.549047 156.305517 
L 311.227127 156.660333 
L 319.024248 157.015149 
L 326.642808 157.015149 
L 334.499447 157.414317 
L 342.237048 157.414317 
L 350.688887 157.414317 
L 360.628727 157.414317 
L 368.247287 157.946541 
" style="fill:none;stroke:#8c564b;stroke-linecap:square;stroke-width:1.5;"/>
   </g>
   <g id="line2d_51">
    <path clip-path="url(#pc2ddb70f59)" d="M 226.589687 155.374125 
L 220.518647 155.374125 
L 214.328567 155.374125 
L 208.019448 155.374125 
L 201.948408 155.374125 
L 195.698807 155.374125 
L 189.568247 155.374125 
L 183.378167 155.374125 
L 177.128568 155.374125 
L 170.998007 155.374125 
L 164.926967 155.374125 
L 158.736887 155.374125 
L 152.427768 155.374125 
L 146.297208 155.374125 
L 140.166648 155.374125 
L 133.976567 155.374125 
L 127.846007 155.374125 
L 121.596407 155.374125 
L 115.406328 155.374125 
L 109.275768 155.374125 
" style="fill:none;stroke:#e377c2;stroke-linecap:square;stroke-width:1.5;"/>
   </g>
   <g id="line2d_52">
    <path clip-path="url(#pc2ddb70f59)" d="M 226.589687 155.374125 
L 231.529847 155.374125 
L 237.719927 155.019309 
L 243.850487 154.664493 
L 250.159607 154.309677 
L 256.290167 153.954861 
L 262.599288 153.245229 
L 268.848887 152.890413 
L 275.158007 152.313837 
L 281.824248 151.914669 
L 288.609528 151.914669 
L 295.394808 151.914669 
L 302.299127 151.914669 
L 309.203447 151.914669 
L 316.167287 151.914669 
L 322.952567 151.914669 
L 329.856887 151.914669 
L 336.761207 151.914669 
L 343.665527 151.914669 
L 350.391287 151.914669 
" style="fill:none;stroke:#7f7f7f;stroke-linecap:square;stroke-width:1.5;"/>
   </g>
   <g id="line2d_53">
    <path clip-path="url(#pc2ddb70f59)" d="M 226.589687 155.374125 
L 220.816248 155.551533 
L 214.626168 155.551533 
L 208.257528 155.196717 
L 202.126968 155.196717 
L 195.698807 155.196717 
L 188.615927 155.196717 
L 181.473527 155.196717 
L 174.271608 155.196717 
L 167.188727 155.374125 
L 160.046328 155.551533 
L 152.963448 155.551533 
L 145.761527 155.551533 
L 138.619127 155.728941 
L 131.536248 155.728941 
L 124.393848 155.728941 
L 117.430008 155.906349 
L 110.228088 156.083757 
L 103.085688 156.083757 
L 96.062328 156.083757 
" style="fill:none;stroke:#bcbd22;stroke-linecap:square;stroke-width:1.5;"/>
   </g>
   <g id="line2d_54">
    <path clip-path="url(#pc2ddb70f59)" d="M 226.589687 155.374125 
L 221.947127 155.019309 
L 217.423608 154.664493 
L 211.590647 154.664493 
L 204.448248 154.664493 
L 196.829688 155.019309 
L 189.092087 155.374125 
L 181.294967 155.374125 
L 174.093048 155.374125 
L 166.236407 155.728941 
L 158.141687 156.083757 
L 150.046967 156.083757 
L 142.190327 155.728941 
L 134.512248 155.019309 
L 126.893687 154.664493 
L 119.037047 154.664493 
L 112.013688 155.728941 
L 105.228408 156.793389 
L 98.026488 157.857837 
L 91.062647 157.148205 
" style="fill:none;stroke:#17becf;stroke-linecap:square;stroke-width:1.5;"/>
   </g>
   <g id="line2d_55">
    <path clip-path="url(#pc2ddb70f59)" d="M 226.589687 155.374125 
L 228.315767 156.438573 
L 230.934647 156.438573 
L 233.434487 156.793389 
L 235.458168 157.148205 
L 237.600887 157.148205 
L 239.862648 157.503021 
L 242.124407 157.857837 
L 246.290807 158.922285 
L 248.909687 159.277101 
L 251.945207 159.277101 
L 254.742648 159.631917 
L 257.837688 159.631917 
L 260.456568 159.631917 
L 263.075447 159.631917 
L 265.932408 159.631917 
L 268.551288 159.631917 
L 271.408248 159.631917 
L 274.027128 159.631917 
L 276.884087 159.631917 
" style="fill:none;stroke:#1f77b4;stroke-linecap:square;stroke-width:1.5;"/>
   </g>
   <g id="line2d_56">
    <path clip-path="url(#pc2ddb70f59)" d="M 226.589687 155.374125 
L 233.374967 154.797549 
L 240.160247 154.265325 
L 246.945527 153.910509 
L 253.730807 154.087917 
L 260.754167 154.442733 
L 267.301367 154.442733 
L 272.539128 154.442733 
L 278.967287 154.087917 
L 288.133367 153.378285 
L 297.120887 153.023469 
L 305.037047 153.733101 
L 312.893687 154.442733 
L 320.274167 154.797549 
L 327.535607 154.442733 
L 334.678007 153.733101 
L 341.701368 153.378285 
L 348.962807 152.624301 
L 356.105208 152.269485 
L 368.604407 153.023469 
" style="fill:none;stroke:#ff7f0e;stroke-linecap:square;stroke-width:1.5;"/>
   </g>
   <g id="line2d_57">
    <path clip-path="url(#pc2ddb70f59)" d="M 226.589687 155.374125 
L 229.208567 155.374125 
L 232.065528 155.374125 
L 234.922487 155.374125 
L 237.541368 155.374125 
L 240.398327 155.374125 
L 243.017207 155.374125 
L 245.874167 155.374125 
L 248.493047 155.374125 
L 251.350008 155.374125 
L 253.968887 155.374125 
L 256.825848 155.374125 
L 259.682807 155.374125 
L 262.301688 155.374125 
L 265.158647 155.374125 
L 267.777528 155.374125 
L 270.574968 155.374125 
L 273.372408 155.374125 
L 275.991287 155.374125 
L 278.610167 155.374125 
" style="fill:none;stroke:#2ca02c;stroke-linecap:square;stroke-width:1.5;"/>
   </g>
   <g id="line2d_58">
    <path clip-path="url(#pc2ddb70f59)" d="M 226.589687 155.374125 
L 229.268088 155.374125 
L 231.886967 155.374125 
L 234.505847 155.374125 
L 237.184247 154.974957 
L 239.803127 154.974957 
L 242.422008 154.974957 
L 245.040887 154.620141 
L 247.659767 154.620141 
L 250.278648 154.620141 
L 252.659447 154.620141 
L 255.278327 154.974957 
L 257.897207 155.374125 
L 260.278008 155.551533 
L 262.896887 155.551533 
L 265.515767 155.551533 
L 268.015607 155.551533 
L 270.574968 155.551533 
L 273.134327 155.551533 
L 275.753207 155.551533 
" style="fill:none;stroke:#d62728;stroke-linecap:square;stroke-width:1.5;"/>
   </g>
   <g id="line2d_59">
    <path clip-path="url(#pc2ddb70f59)" d="M 226.589687 155.374125 
L 226.589687 155.374125 
L 225.577847 155.374125 
L 223.673207 155.374125 
L 221.530487 155.374125 
L 219.625847 155.374125 
L 217.602168 155.374125 
L 215.697528 155.374125 
L 213.911927 155.374125 
L 212.364407 155.374125 
L 210.638328 155.374125 
L 208.912248 155.374125 
L 207.364727 155.374125 
L 205.579127 155.374125 
L 204.091127 155.374125 
L 202.365048 155.374125 
L 200.579447 155.374125 
L 199.031927 155.019309 
L 197.127287 155.019309 
L 195.341688 155.019309 
" style="fill:none;stroke:#9467bd;stroke-linecap:square;stroke-width:1.5;"/>
   </g>
   <g id="line2d_60">
    <path clip-path="url(#pc2ddb70f59)" d="M 226.589687 155.374125 
L 224.685047 155.374125 
L 222.899448 155.374125 
L 220.935287 155.374125 
L 219.209207 155.374125 
L 217.423608 155.374125 
L 215.280888 155.728941 
L 213.078647 156.083757 
L 210.638328 156.083757 
L 208.733688 156.438573 
L 206.948087 156.615981 
L 205.341048 156.793389 
L 203.674487 156.970797 
L 202.007927 157.148205 
L 200.222328 157.503021 
L 198.555768 157.680429 
L 196.889207 157.857837 
L 195.044087 157.857837 
L 193.079927 157.857837 
L 190.877688 157.503021 
" style="fill:none;stroke:#8c564b;stroke-linecap:square;stroke-width:1.5;"/>
   </g>
   <g id="line2d_61">
    <path clip-path="url(#pc2ddb70f59)" d="M 226.589687 155.374125 
L 224.625528 155.019309 
L 222.661367 155.019309 
L 220.459127 154.664493 
L 218.494968 154.664493 
L 216.530808 154.309677 
L 214.388087 154.309677 
L 212.185847 153.954861 
L 210.221688 153.954861 
L 208.019448 153.954861 
L 206.055287 153.600045 
L 203.853048 153.600045 
L 201.650807 153.600045 
L 199.746168 153.245229 
L 197.484408 153.245229 
L 195.579768 152.890413 
L 193.556087 152.535597 
L 191.830007 151.825965 
L 190.103927 151.116333 
L 188.139768 150.761517 
" style="fill:none;stroke:#e377c2;stroke-linecap:square;stroke-width:1.5;"/>
   </g>
   <g id="line2d_62">
    <path clip-path="url(#pc2ddb70f59)" d="M 226.589687 155.374125 
L 224.566007 154.664493 
L 222.839927 154.265325 
L 220.875767 153.555693 
L 219.090168 152.846061 
L 217.185528 152.136429 
L 215.399927 151.781613 
L 213.673847 151.071981 
L 211.709688 150.362349 
L 209.924087 150.007533 
L 208.019448 149.297901 
L 206.531448 148.189101 
L 205.460087 146.548077 
L 204.150647 145.128813 
L 203.079287 143.709549 
L 201.710328 142.290285 
L 200.519927 140.604909 
L 199.329527 139.185645 
L 198.020087 137.766381 
L 196.294007 136.701933 
" style="fill:none;stroke:#7f7f7f;stroke-linecap:square;stroke-width:1.5;"/>
   </g>
   <g id="line2d_63">
    <path clip-path="url(#pc2ddb70f59)" d="M 226.589687 155.374125 
L 218.733047 155.374125 
L 210.816888 155.374125 
L 202.960248 155.019309 
L 195.103608 155.019309 
L 187.246967 155.019309 
L 179.568888 154.664493 
L 172.009848 155.019309 
L 164.510328 155.019309 
L 157.010807 155.196717 
L 149.392247 155.551533 
L 141.892728 155.551533 
L 134.333687 155.728941 
L 126.834168 155.728941 
L 119.096568 156.083757 
L 111.597048 156.261165 
L 104.097527 156.261165 
L 96.181367 156.261165 
L 88.146168 155.906349 
L 80.765688 155.906349 
" style="fill:none;stroke:#bcbd22;stroke-linecap:square;stroke-width:1.5;"/>
   </g>
   <g id="line2d_64">
    <path clip-path="url(#pc2ddb70f59)" d="M 226.589687 155.374125 
L 220.042487 155.374125 
L 213.495287 155.374125 
L 207.126647 155.374125 
L 200.579447 155.374125 
L 194.032247 155.374125 
L 187.663608 155.374125 
L 181.592568 155.374125 
L 175.640568 155.019309 
L 169.748087 154.664493 
L 163.855607 154.664493 
L 157.963127 154.309677 
L 152.308728 154.309677 
L 146.356728 154.309677 
L 140.702327 154.309677 
L 134.809847 154.309677 
L 128.857847 154.309677 
L 123.203447 154.309677 
L 117.310968 154.309677 
L 111.597048 154.309677 
" style="fill:none;stroke:#17becf;stroke-linecap:square;stroke-width:1.5;"/>
   </g>
   <g id="line2d_65">
    <path clip-path="url(#pc2ddb70f59)" d="M 226.589687 155.374125 
L 231.291767 155.551533 
L 236.410487 156.660333 
L 242.124407 157.724781 
L 247.778807 157.724781 
L 254.147447 157.369965 
L 260.278008 156.660333 
L 265.515767 156.305517 
L 270.515447 155.906349 
L 277.717368 155.906349 
L 284.502647 155.551533 
L 290.395128 154.087917 
L 296.763767 155.019309 
L 302.894327 155.374125 
L 309.203447 155.728941 
L 315.572088 155.728941 
L 322.119287 156.482925 
L 328.249847 156.482925 
L 334.558967 156.482925 
L 341.344247 156.482925 
" style="fill:none;stroke:#1f77b4;stroke-linecap:square;stroke-width:1.5;"/>
   </g>
   <g id="line2d_66">
    <path clip-path="url(#pc2ddb70f59)" d="M 226.589687 155.374125 
L 228.791927 156.438573 
L 230.637047 157.325613 
L 232.184567 158.035245 
L 233.910647 159.498861 
L 235.636728 160.607661 
L 237.422327 162.026925 
L 239.326967 163.446189 
L 241.350648 164.865453 
L 243.314808 166.329069 
L 245.517047 167.792685 
L 247.421687 169.211949 
L 249.683447 169.921581 
L 251.826167 170.631213 
L 253.968887 171.340845 
L 256.230647 172.050477 
L 258.373367 172.760109 
L 260.575607 173.114925 
L 262.539767 173.913261 
L 264.682487 174.622893 
" style="fill:none;stroke:#ff7f0e;stroke-linecap:square;stroke-width:1.5;"/>
   </g>
   <g id="line2d_67">
    <path clip-path="url(#pc2ddb70f59)" d="M 226.589687 155.374125 
L 228.494327 156.083757 
L 230.756088 156.438573 
L 232.898808 156.793389 
L 235.041528 157.148205 
L 237.303288 157.503021 
L 239.922168 157.857837 
L 242.541047 157.857837 
L 245.398008 157.857837 
L 248.016887 157.857837 
L 250.873848 157.857837 
L 253.492728 158.212653 
L 256.111607 158.212653 
L 258.730487 158.567469 
L 261.349367 158.567469 
L 263.968248 158.922285 
L 266.349047 158.922285 
L 268.729848 159.277101 
L 271.110647 159.277101 
L 273.550968 159.277101 
" style="fill:none;stroke:#2ca02c;stroke-linecap:square;stroke-width:1.5;"/>
   </g>
   <g id="line2d_68">
    <path clip-path="url(#pc2ddb70f59)" d="M 226.589687 155.374125 
L 228.970487 155.374125 
L 231.113207 155.728941 
L 233.613047 155.728941 
L 235.874808 155.906349 
L 238.196088 155.950701 
L 240.457847 156.305517 
L 242.779127 156.482925 
L 245.398008 156.482925 
L 247.778807 156.837741 
L 250.397687 156.837741 
L 252.778487 156.837741 
L 255.159288 156.837741 
L 257.421047 156.837741 
L 259.801848 156.837741 
L 262.182647 156.482925 
L 264.384887 156.482925 
L 266.825207 156.482925 
L 268.967927 156.482925 
L 271.348727 156.482925 
" style="fill:none;stroke:#d62728;stroke-linecap:square;stroke-width:1.5;"/>
   </g>
   <g id="line2d_69">
    <path clip-path="url(#pc2ddb70f59)" d="M 226.589687 155.374125 
L 219.804407 155.728941 
L 213.019127 155.728941 
L 206.293367 156.083757 
L 199.686647 156.083757 
L 193.853688 156.083757 
L 188.139768 156.083757 
L 182.425848 156.083757 
L 176.950007 155.728941 
L 171.355128 155.728941 
L 165.641208 155.728941 
L 159.927288 155.728941 
L 154.094328 155.728941 
L 148.142328 156.083757 
L 142.428407 156.438573 
L 136.595448 156.793389 
L 131.119608 157.148205 
L 127.726968 157.148205 
L 124.274808 157.503021 
L 120.941688 157.503021 
" style="fill:none;stroke:#9467bd;stroke-linecap:square;stroke-width:1.5;"/>
   </g>
   <g id="line2d_70">
    <path clip-path="url(#pc2ddb70f59)" d="M 226.589687 155.374125 
L 233.374967 156.482925 
L 239.922168 157.192557 
L 246.707448 156.482925 
L 254.326008 156.482925 
L 261.825528 156.837741 
L 268.610807 157.192557 
L 275.158007 157.192557 
L 281.467128 157.192557 
L 288.252408 156.482925 
L 295.156727 155.152365 
L 299.918327 155.152365 
L 308.727287 154.797549 
L 317.417208 154.797549 
L 323.964407 154.442733 
L 329.916407 154.087917 
L 335.987447 153.733101 
L 342.118007 153.378285 
L 348.724727 153.378285 
L 355.867127 153.733101 
" style="fill:none;stroke:#8c564b;stroke-linecap:square;stroke-width:1.5;"/>
   </g>
   <g id="line2d_71">
    <path clip-path="url(#pc2ddb70f59)" d="M 226.589687 155.374125 
L 223.494647 155.374125 
L 220.459127 155.374125 
L 217.423608 155.374125 
L 214.328567 155.374125 
L 211.471608 155.019309 
L 208.198007 155.019309 
L 204.924408 155.019309 
L 201.650807 155.019309 
L 198.615287 155.019309 
L 195.341688 155.019309 
L 192.068087 154.664493 
L 189.449207 154.664493 
L 186.592247 154.664493 
L 183.973367 154.664493 
L 181.116408 154.664493 
L 178.497527 154.309677 
L 175.878647 154.309677 
L 173.259768 154.309677 
L 170.640887 154.309677 
" style="fill:none;stroke:#e377c2;stroke-linecap:square;stroke-width:1.5;"/>
   </g>
   <g id="line2d_72">
    <path clip-path="url(#pc2ddb70f59)" d="M 226.589687 155.374125 
L 223.554168 155.374125 
L 220.459127 155.374125 
L 217.423608 155.374125 
L 214.328567 155.374125 
L 211.293048 155.374125 
L 208.257528 155.374125 
L 204.924408 155.374125 
L 201.888888 155.374125 
L 198.853367 155.374125 
L 195.758328 155.374125 
L 192.722807 155.374125 
L 189.687287 155.374125 
L 186.592247 155.374125 
L 183.556727 155.374125 
L 180.461687 155.374125 
L 177.426167 155.374125 
L 174.331128 155.374125 
L 171.295608 155.374125 
L 168.260087 155.374125 
" style="fill:none;stroke:#7f7f7f;stroke-linecap:square;stroke-width:1.5;"/>
   </g>
   <g id="line2d_73">
    <path clip-path="url(#pc2ddb70f59)" d="M 226.589687 155.374125 
L 223.970808 155.374125 
L 221.351927 155.374125 
L 218.733047 155.374125 
L 216.292728 155.374125 
L 213.673847 155.374125 
L 211.054968 155.728941 
L 208.436087 155.728941 
L 205.817207 155.728941 
L 203.376888 155.728941 
L 200.758007 155.728941 
L 198.139128 155.728941 
L 195.520248 156.083757 
L 193.139447 156.083757 
L 190.520567 156.083757 
L 187.901688 156.083757 
L 185.282807 156.083757 
L 182.663927 156.083757 
L 180.045048 156.438573 
L 177.188087 156.438573 
" style="fill:none;stroke:#bcbd22;stroke-linecap:square;stroke-width:1.5;"/>
   </g>
   <g id="line2d_74">
    <path clip-path="url(#pc2ddb70f59)" d="M 226.589687 155.374125 
L 223.732728 155.374125 
L 220.875767 155.728941 
L 218.078328 155.728941 
L 215.221367 155.728941 
L 212.602487 156.128109 
L 209.745528 156.128109 
L 206.888567 156.128109 
L 204.091127 156.128109 
L 201.472248 156.482925 
L 198.615287 156.482925 
L 195.758328 156.482925 
L 193.258488 156.482925 
L 191.413367 155.551533 
L 189.449207 154.664493 
L 187.008888 155.196717 
L 184.390007 155.551533 
L 181.771128 156.261165 
L 179.152247 156.615981 
L 176.295288 156.615981 
" style="fill:none;stroke:#17becf;stroke-linecap:square;stroke-width:1.5;"/>
   </g>
   <g id="line2d_75">
    <path clip-path="url(#pc2ddb70f59)" d="M 226.589687 155.374125 
L 233.017847 155.374125 
L 239.803127 155.374125 
L 247.005047 155.374125 
L 254.445047 155.374125 
L 261.885047 155.374125 
L 269.503607 155.374125 
L 276.705528 155.374125 
L 283.966968 155.019309 
L 291.168887 155.019309 
L 298.608887 155.019309 
L 305.989367 155.019309 
L 313.429368 155.019309 
L 320.869368 155.019309 
L 328.309368 155.374125 
L 335.749368 155.374125 
L 343.189368 155.374125 
L 350.629368 155.728941 
L 358.009847 155.728941 
L 365.687928 155.728941 
" style="fill:none;stroke:#1f77b4;stroke-linecap:square;stroke-width:1.5;"/>
   </g>
   <g id="line2d_76">
    <path clip-path="url(#pc2ddb70f59)" d="M 226.589687 155.374125 
L 219.804407 155.551533 
L 212.781047 155.950701 
L 206.233847 155.950701 
L 200.162807 155.196717 
L 193.615608 155.551533 
L 187.187447 155.551533 
L 180.640247 155.950701 
L 174.093048 155.950701 
L 167.783928 156.660333 
L 161.831928 157.015149 
L 155.998967 157.015149 
L 150.404088 156.837741 
L 144.809208 156.660333 
L 139.214327 156.482925 
L 133.678967 156.261165 
L 128.143608 156.083757 
L 122.548727 155.906349 
L 116.834807 155.728941 
L 111.001847 155.728941 
" style="fill:none;stroke:#ff7f0e;stroke-linecap:square;stroke-width:1.5;"/>
   </g>
   <g id="line2d_77">
    <path clip-path="url(#pc2ddb70f59)" d="M 226.589687 155.374125 
L 216.828407 155.551533 
L 208.317048 155.728941 
L 199.805688 156.083757 
L 191.710967 156.261165 
L 183.854328 156.261165 
L 175.997687 156.261165 
L 168.081527 156.261165 
L 160.641527 156.261165 
L 153.856247 156.261165 
L 146.892407 156.261165 
L 139.928567 156.261165 
L 132.905208 156.261165 
L 126.596087 156.261165 
L 120.227447 156.261165 
L 114.096888 156.615981 
L 107.787768 156.970797 
L 101.657207 156.970797 
L 95.764727 156.970797 
L 90.288888 156.615981 
" style="fill:none;stroke:#2ca02c;stroke-linecap:square;stroke-width:1.5;"/>
   </g>
   <g id="line2d_78">
    <path clip-path="url(#pc2ddb70f59)" d="M 226.589687 155.374125 
L 219.863927 155.728941 
L 213.078647 156.438573 
L 206.710007 156.438573 
L 200.877048 156.083757 
L 194.091768 155.728941 
L 187.306488 155.728941 
L 180.521208 155.728941 
L 173.081208 155.374125 
L 166.117368 155.374125 
L 159.570167 155.374125 
L 152.784887 155.374125 
L 146.594808 155.374125 
L 140.285687 155.374125 
L 133.738488 155.374125 
L 127.191288 155.728941 
L 123.382008 156.083757 
L 116.715767 155.906349 
L 110.347127 156.615981 
L 104.454648 155.906349 
" style="fill:none;stroke:#d62728;stroke-linecap:square;stroke-width:1.5;"/>
   </g>
   <g id="line2d_79">
    <path clip-path="url(#pc2ddb70f59)" d="M 226.589687 155.374125 
L 229.922808 154.797549 
L 235.934327 154.974957 
L 242.541047 154.974957 
L 249.088247 154.974957 
L 255.873527 153.910509 
L 262.599288 152.846061 
L 270.039288 152.846061 
L 277.419767 153.200877 
L 284.919287 153.555693 
L 292.537847 153.910509 
L 300.156408 153.910509 
L 307.894007 154.265325 
L 315.274487 154.265325 
L 323.131127 154.265325 
L 331.225847 154.265325 
L 339.320567 154.265325 
L 346.343928 154.620141 
L 352.653047 154.974957 
L 358.962167 154.974957 
" style="fill:none;stroke:#9467bd;stroke-linecap:square;stroke-width:1.5;"/>
   </g>
   <g id="line2d_80">
    <path clip-path="url(#pc2ddb70f59)" d="M 226.589687 155.374125 
L 222.899448 155.019309 
L 219.863927 155.019309 
L 216.768888 154.664493 
L 214.150007 154.664493 
L 211.947767 154.664493 
L 209.566968 154.664493 
L 207.186168 154.664493 
L 204.983927 154.664493 
L 202.543608 154.664493 
L 200.162807 154.664493 
L 198.436727 154.664493 
L 196.472567 154.664493 
L 194.686968 154.664493 
L 192.722807 154.664493 
L 190.996727 154.664493 
L 189.211128 154.664493 
L 186.830328 154.664493 
L 184.449527 154.664493 
L 182.009208 154.664493 
" style="fill:none;stroke:#8c564b;stroke-linecap:square;stroke-width:1.5;"/>
   </g>
   <g id="line2d_81">
    <path clip-path="url(#pc2ddb70f59)" d="M 226.589687 155.374125 
L 224.149367 155.374125 
L 221.768567 155.374125 
L 219.387767 155.374125 
L 216.768888 155.374125 
L 214.328567 155.374125 
L 211.947767 155.551533 
L 209.507448 155.551533 
L 207.007608 155.728941 
L 204.507767 155.728941 
L 202.126968 155.728941 
L 199.686647 155.906349 
L 197.186807 155.906349 
L 194.746488 155.906349 
L 192.246647 156.083757 
L 189.865848 156.083757 
L 187.366007 156.305517 
L 184.985208 156.305517 
L 182.544888 156.305517 
L 180.045048 156.305517 
" style="fill:none;stroke:#e377c2;stroke-linecap:square;stroke-width:1.5;"/>
   </g>
   <g id="line2d_82">
    <path clip-path="url(#pc2ddb70f59)" d="M 226.589687 155.374125 
L 224.446967 155.374125 
L 222.482808 155.374125 
L 219.804407 155.374125 
L 217.423608 155.374125 
L 214.804727 155.374125 
L 212.423927 155.374125 
L 210.043127 155.374125 
L 207.424248 154.974957 
L 204.983927 154.974957 
L 202.543608 154.974957 
L 199.924727 154.974957 
L 197.543927 154.974957 
L 195.163128 154.620141 
L 192.544247 154.620141 
L 190.163447 154.620141 
L 187.723128 154.620141 
L 185.104247 154.620141 
L 183.140087 154.265325 
L 181.652087 154.620141 
" style="fill:none;stroke:#7f7f7f;stroke-linecap:square;stroke-width:1.5;"/>
   </g>
   <g id="line2d_83">
    <path clip-path="url(#pc2ddb70f59)" d="M 226.589687 155.374125 
L 230.518008 155.019309 
L 234.208247 154.309677 
L 238.136567 153.954861 
L 241.945847 153.600045 
L 244.921847 153.600045 
L 247.778807 153.600045 
L 250.873848 153.600045 
L 253.968887 153.600045 
L 256.766327 153.600045 
L 261.111288 155.374125 
L 265.515767 157.236909 
L 269.920248 158.656173 
L 274.443767 160.430253 
L 280.157688 160.430253 
L 285.871607 160.075437 
L 291.704567 160.075437 
L 297.180408 159.720621 
L 302.061047 159.365805 
L 307.060727 159.365805 
" style="fill:none;stroke:#bcbd22;stroke-linecap:square;stroke-width:1.5;"/>
   </g>
   <g id="line2d_84">
    <path clip-path="url(#pc2ddb70f59)" d="M 226.589687 155.374125 
L 219.387767 155.374125 
L 211.947767 156.083757 
L 204.924408 156.793389 
L 197.722487 157.547373 
L 190.044408 157.547373 
L 182.663927 157.547373 
L 174.985848 157.547373 
L 167.545848 157.547373 
L 160.343928 157.547373 
L 153.380088 157.369965 
L 146.356728 156.970797 
L 139.392888 156.793389 
L 132.369528 156.438573 
L 124.929528 156.793389 
L 117.727608 156.793389 
L 110.525688 157.148205 
L 103.085688 157.148205 
L 95.883768 157.148205 
L 89.098488 157.547373 
" style="fill:none;stroke:#17becf;stroke-linecap:square;stroke-width:1.5;"/>
   </g>
   <g id="line2d_85">
    <path clip-path="url(#pc2ddb70f59)" d="M 226.589687 155.374125 
L 228.137207 155.374125 
L 229.684728 155.728941 
L 231.232247 155.728941 
L 232.958327 155.728941 
L 234.684407 155.728941 
L 236.708088 155.728941 
L 238.612728 156.083757 
L 240.874487 156.438573 
L 242.779127 156.438573 
L 244.564728 156.438573 
L 246.112247 156.083757 
L 247.421687 156.083757 
L 248.731127 155.728941 
L 250.040568 155.374125 
L 251.588088 155.019309 
L 253.076087 154.620141 
L 255.873527 155.019309 
L 259.801848 156.083757 
L 260.754167 156.083757 
" style="fill:none;stroke:#1f77b4;stroke-linecap:square;stroke-width:1.5;"/>
   </g>
   <g id="line2d_86">
    <path clip-path="url(#pc2ddb70f59)" d="M 226.589687 155.374125 
L 234.208247 154.664493 
L 241.826808 153.600045 
L 248.850167 152.180781 
L 255.873527 150.406701 
L 262.837367 149.342253 
L 269.563128 148.543917 
L 276.348408 147.834285 
L 282.538487 147.124653 
L 290.633208 147.124653 
L 298.906488 147.124653 
L 306.822648 147.834285 
L 314.679287 148.189101 
L 322.535927 148.987437 
L 330.392567 149.342253 
L 338.249208 149.697069 
L 346.820087 149.697069 
L 355.033847 149.697069 
L 363.604727 149.342253 
L 370.628087 149.342253 
" style="fill:none;stroke:#ff7f0e;stroke-linecap:square;stroke-width:1.5;"/>
   </g>
   <g id="line2d_87">
    <path clip-path="url(#pc2ddb70f59)" d="M 226.589687 155.374125 
L 224.208888 155.374125 
L 221.828088 155.374125 
L 219.387767 155.374125 
L 217.066487 155.196717 
L 214.685688 155.196717 
L 212.304888 155.196717 
L 210.340727 155.196717 
L 210.221688 155.551533 
L 210.221688 155.551533 
L 210.162168 155.773293 
L 210.162168 155.773293 
L 210.162168 156.128109 
L 210.043127 156.128109 
L 210.043127 156.128109 
L 210.043127 156.305517 
L 209.924087 156.482925 
L 209.924087 156.660333 
L 209.805048 156.660333 
L 209.805048 156.660333 
" style="fill:none;stroke:#2ca02c;stroke-linecap:square;stroke-width:1.5;"/>
   </g>
   <g id="line2d_88">
    <path clip-path="url(#pc2ddb70f59)" d="M 226.589687 155.374125 
L 226.470647 155.374125 
L 226.470647 155.551533 
L 226.470647 155.551533 
L 226.351608 155.728941 
L 226.351608 155.906349 
L 226.351608 155.906349 
L 226.292088 156.083757 
L 226.292088 156.261165 
L 226.173047 156.261165 
L 226.173047 156.438573 
L 226.173047 156.438573 
L 226.708728 155.906349 
L 229.327607 156.261165 
L 231.946487 156.261165 
L 234.327287 155.906349 
L 235.874808 155.906349 
L 238.255607 156.261165 
L 241.350648 156.261165 
L 243.969527 155.906349 
" style="fill:none;stroke:#d62728;stroke-linecap:square;stroke-width:1.5;"/>
   </g>
   <g id="patch_3">
    <path d="M 48.029688 288.430125 
L 48.029688 22.318125 
" style="fill:none;stroke:#000000;stroke-linecap:square;stroke-linejoin:miter;stroke-width:0.8;"/>
   </g>
   <g id="patch_4">
    <path d="M 405.149688 288.430125 
L 405.149688 22.318125 
" style="fill:none;stroke:#000000;stroke-linecap:square;stroke-linejoin:miter;stroke-width:0.8;"/>
   </g>
   <g id="patch_5">
    <path d="M 48.029687 288.430125 
L 405.149688 288.430125 
" style="fill:none;stroke:#000000;stroke-linecap:square;stroke-linejoin:miter;stroke-width:0.8;"/>
   </g>
   <g id="patch_6">
    <path d="M 48.029687 22.318125 
L 405.149688 22.318125 
" style="fill:none;stroke:#000000;stroke-linecap:square;stroke-linejoin:miter;stroke-width:0.8;"/>
   </g>
   <g id="text_15">
    <!-- little_2 -->
    <g transform="translate(206.375313 16.318125)scale(0.12 -0.12)">
     <defs>
      <path d="M 9.421875 75.984375 
L 18.40625 75.984375 
L 18.40625 0 
L 9.421875 0 
z
" id="DejaVuSans-108"/>
      <path d="M 9.421875 54.6875 
L 18.40625 54.6875 
L 18.40625 0 
L 9.421875 0 
z
M 9.421875 75.984375 
L 18.40625 75.984375 
L 18.40625 64.59375 
L 9.421875 64.59375 
z
" id="DejaVuSans-105"/>
      <path d="M 18.3125 70.21875 
L 18.3125 54.6875 
L 36.8125 54.6875 
L 36.8125 47.703125 
L 18.3125 47.703125 
L 18.3125 18.015625 
Q 18.3125 11.328125 20.140625 9.421875 
Q 21.96875 7.515625 27.59375 7.515625 
L 36.8125 7.515625 
L 36.8125 0 
L 27.59375 0 
Q 17.1875 0 13.234375 3.875 
Q 9.28125 7.765625 9.28125 18.015625 
L 9.28125 47.703125 
L 2.6875 47.703125 
L 2.6875 54.6875 
L 9.28125 54.6875 
L 9.28125 70.21875 
z
" id="DejaVuSans-116"/>
      <path d="M 56.203125 29.59375 
L 56.203125 25.203125 
L 14.890625 25.203125 
Q 15.484375 15.921875 20.484375 11.0625 
Q 25.484375 6.203125 34.421875 6.203125 
Q 39.59375 6.203125 44.453125 7.46875 
Q 49.3125 8.734375 54.109375 11.28125 
L 54.109375 2.78125 
Q 49.265625 0.734375 44.1875 -0.34375 
Q 39.109375 -1.421875 33.890625 -1.421875 
Q 20.796875 -1.421875 13.15625 6.1875 
Q 5.515625 13.8125 5.515625 26.8125 
Q 5.515625 40.234375 12.765625 48.109375 
Q 20.015625 56 32.328125 56 
Q 43.359375 56 49.78125 48.890625 
Q 56.203125 41.796875 56.203125 29.59375 
z
M 47.21875 32.234375 
Q 47.125 39.59375 43.09375 43.984375 
Q 39.0625 48.390625 32.421875 48.390625 
Q 24.90625 48.390625 20.390625 44.140625 
Q 15.875 39.890625 15.1875 32.171875 
z
" id="DejaVuSans-101"/>
      <path d="M 50.984375 -16.609375 
L 50.984375 -23.578125 
L -0.984375 -23.578125 
L -0.984375 -16.609375 
z
" id="DejaVuSans-95"/>
      <path d="M 19.1875 8.296875 
L 53.609375 8.296875 
L 53.609375 0 
L 7.328125 0 
L 7.328125 8.296875 
Q 12.9375 14.109375 22.625 23.890625 
Q 32.328125 33.6875 34.8125 36.53125 
Q 39.546875 41.84375 41.421875 45.53125 
Q 43.3125 49.21875 43.3125 52.78125 
Q 43.3125 58.59375 39.234375 62.25 
Q 35.15625 65.921875 28.609375 65.921875 
Q 23.96875 65.921875 18.8125 64.3125 
Q 13.671875 62.703125 7.8125 59.421875 
L 7.8125 69.390625 
Q 13.765625 71.78125 18.9375 73 
Q 24.125 74.21875 28.421875 74.21875 
Q 39.75 74.21875 46.484375 68.546875 
Q 53.21875 62.890625 53.21875 53.421875 
Q 53.21875 48.921875 51.53125 44.890625 
Q 49.859375 40.875 45.40625 35.40625 
Q 44.1875 33.984375 37.640625 27.21875 
Q 31.109375 20.453125 19.1875 8.296875 
z
" id="DejaVuSans-50"/>
     </defs>
     <use xlink:href="#DejaVuSans-108"/>
     <use x="27.783203" xlink:href="#DejaVuSans-105"/>
     <use x="55.566406" xlink:href="#DejaVuSans-116"/>
     <use x="94.775391" xlink:href="#DejaVuSans-116"/>
     <use x="133.984375" xlink:href="#DejaVuSans-108"/>
     <use x="161.767578" xlink:href="#DejaVuSans-101"/>
     <use x="223.291016" xlink:href="#DejaVuSans-95"/>
     <use x="273.291016" xlink:href="#DejaVuSans-50"/>
    </g>
   </g>
  </g>
 </g>
 <defs>
  <clipPath id="pc2ddb70f59">
   <rect height="266.112" width="357.12" x="48.029688" y="22.318125"/>
  </clipPath>
 </defs>
</svg>
