<?xml version="1.0" encoding="utf-8" standalone="no"?>
<!DOCTYPE svg PUBLIC "-//W3C//DTD SVG 1.1//EN"
  "http://www.w3.org/Graphics/SVG/1.1/DTD/svg11.dtd">
<!-- Created with matplotlib (https://matplotlib.org/) -->
<svg height="312.30825pt" version="1.1" viewBox="0 0 425.074687 312.30825" width="425.074687pt" xmlns="http://www.w3.org/2000/svg" xmlns:xlink="http://www.w3.org/1999/xlink">
 <metadata>
  <rdf:RDF xmlns:cc="http://creativecommons.org/ns#" xmlns:dc="http://purl.org/dc/elements/1.1/" xmlns:rdf="http://www.w3.org/1999/02/22-rdf-syntax-ns#">
   <cc:Work>
    <dc:type rdf:resource="http://purl.org/dc/dcmitype/StillImage"/>
    <dc:date>2023-10-16T01:55:58.372438</dc:date>
    <dc:format>image/svg+xml</dc:format>
    <dc:creator>
     <cc:Agent>
      <dc:title>Matplotlib v3.3.4, https://matplotlib.org/</dc:title>
     </cc:Agent>
    </dc:creator>
   </cc:Work>
  </rdf:RDF>
 </metadata>
 <defs>
  <style type="text/css">*{stroke-linecap:butt;stroke-linejoin:round;}</style>
 </defs>
 <g id="figure_1">
  <g id="patch_1">
   <path d="M 0 312.30825 
L 425.074687 312.30825 
L 425.074687 0 
L 0 0 
z
" style="fill:#ffffff;"/>
  </g>
  <g id="axes_1">
   <g id="patch_2">
    <path d="M 48.029688 288.430125 
L 405.149688 288.430125 
L 405.149688 22.318125 
L 48.029688 22.318125 
z
" style="fill:#ffffff;"/>
   </g>
   <g id="matplotlib.axis_1">
    <g id="xtick_1">
     <g id="line2d_1">
      <defs>
       <path d="M 0 0 
L 0 3.5 
" id="md187591c4a" style="stroke:#000000;stroke-width:0.8;"/>
      </defs>
      <g>
       <use style="stroke:#000000;stroke-width:0.8;" x="48.029687" xlink:href="#md187591c4a" y="288.430125"/>
      </g>
     </g>
     <g id="text_1">
      <!-- −1500 -->
      <g transform="translate(31.114844 303.028562)scale(0.1 -0.1)">
       <defs>
        <path d="M 10.59375 35.5 
L 73.1875 35.5 
L 73.1875 27.203125 
L 10.59375 27.203125 
z
" id="DejaVuSans-8722"/>
        <path d="M 12.40625 8.296875 
L 28.515625 8.296875 
L 28.515625 63.921875 
L 10.984375 60.40625 
L 10.984375 69.390625 
L 28.421875 72.90625 
L 38.28125 72.90625 
L 38.28125 8.296875 
L 54.390625 8.296875 
L 54.390625 0 
L 12.40625 0 
z
" id="DejaVuSans-49"/>
        <path d="M 10.796875 72.90625 
L 49.515625 72.90625 
L 49.515625 64.59375 
L 19.828125 64.59375 
L 19.828125 46.734375 
Q 21.96875 47.46875 24.109375 47.828125 
Q 26.265625 48.1875 28.421875 48.1875 
Q 40.625 48.1875 47.75 41.5 
Q 54.890625 34.8125 54.890625 23.390625 
Q 54.890625 11.625 47.5625 5.09375 
Q 40.234375 -1.421875 26.90625 -1.421875 
Q 22.3125 -1.421875 17.546875 -0.640625 
Q 12.796875 0.140625 7.71875 1.703125 
L 7.71875 11.625 
Q 12.109375 9.234375 16.796875 8.0625 
Q 21.484375 6.890625 26.703125 6.890625 
Q 35.15625 6.890625 40.078125 11.328125 
Q 45.015625 15.765625 45.015625 23.390625 
Q 45.015625 31 40.078125 35.4375 
Q 35.15625 39.890625 26.703125 39.890625 
Q 22.75 39.890625 18.8125 39.015625 
Q 14.890625 38.140625 10.796875 36.28125 
z
" id="DejaVuSans-53"/>
        <path d="M 31.78125 66.40625 
Q 24.171875 66.40625 20.328125 58.90625 
Q 16.5 51.421875 16.5 36.375 
Q 16.5 21.390625 20.328125 13.890625 
Q 24.171875 6.390625 31.78125 6.390625 
Q 39.453125 6.390625 43.28125 13.890625 
Q 47.125 21.390625 47.125 36.375 
Q 47.125 51.421875 43.28125 58.90625 
Q 39.453125 66.40625 31.78125 66.40625 
z
M 31.78125 74.21875 
Q 44.046875 74.21875 50.515625 64.515625 
Q 56.984375 54.828125 56.984375 36.375 
Q 56.984375 17.96875 50.515625 8.265625 
Q 44.046875 -1.421875 31.78125 -1.421875 
Q 19.53125 -1.421875 13.0625 8.265625 
Q 6.59375 17.96875 6.59375 36.375 
Q 6.59375 54.828125 13.0625 64.515625 
Q 19.53125 74.21875 31.78125 74.21875 
z
" id="DejaVuSans-48"/>
       </defs>
       <use xlink:href="#DejaVuSans-8722"/>
       <use x="83.789062" xlink:href="#DejaVuSans-49"/>
       <use x="147.412109" xlink:href="#DejaVuSans-53"/>
       <use x="211.035156" xlink:href="#DejaVuSans-48"/>
       <use x="274.658203" xlink:href="#DejaVuSans-48"/>
      </g>
     </g>
    </g>
    <g id="xtick_2">
     <g id="line2d_2">
      <g>
       <use style="stroke:#000000;stroke-width:0.8;" x="107.549688" xlink:href="#md187591c4a" y="288.430125"/>
      </g>
     </g>
     <g id="text_2">
      <!-- −1000 -->
      <g transform="translate(90.634844 303.028562)scale(0.1 -0.1)">
       <use xlink:href="#DejaVuSans-8722"/>
       <use x="83.789062" xlink:href="#DejaVuSans-49"/>
       <use x="147.412109" xlink:href="#DejaVuSans-48"/>
       <use x="211.035156" xlink:href="#DejaVuSans-48"/>
       <use x="274.658203" xlink:href="#DejaVuSans-48"/>
      </g>
     </g>
    </g>
    <g id="xtick_3">
     <g id="line2d_3">
      <g>
       <use style="stroke:#000000;stroke-width:0.8;" x="167.069687" xlink:href="#md187591c4a" y="288.430125"/>
      </g>
     </g>
     <g id="text_3">
      <!-- −500 -->
      <g transform="translate(153.336094 303.028562)scale(0.1 -0.1)">
       <use xlink:href="#DejaVuSans-8722"/>
       <use x="83.789062" xlink:href="#DejaVuSans-53"/>
       <use x="147.412109" xlink:href="#DejaVuSans-48"/>
       <use x="211.035156" xlink:href="#DejaVuSans-48"/>
      </g>
     </g>
    </g>
    <g id="xtick_4">
     <g id="line2d_4">
      <g>
       <use style="stroke:#000000;stroke-width:0.8;" x="226.589687" xlink:href="#md187591c4a" y="288.430125"/>
      </g>
     </g>
     <g id="text_4">
      <!-- 0 -->
      <g transform="translate(223.408437 303.028562)scale(0.1 -0.1)">
       <use xlink:href="#DejaVuSans-48"/>
      </g>
     </g>
    </g>
    <g id="xtick_5">
     <g id="line2d_5">
      <g>
       <use style="stroke:#000000;stroke-width:0.8;" x="286.109688" xlink:href="#md187591c4a" y="288.430125"/>
      </g>
     </g>
     <g id="text_5">
      <!-- 500 -->
      <g transform="translate(276.565938 303.028562)scale(0.1 -0.1)">
       <use xlink:href="#DejaVuSans-53"/>
       <use x="63.623047" xlink:href="#DejaVuSans-48"/>
       <use x="127.246094" xlink:href="#DejaVuSans-48"/>
      </g>
     </g>
    </g>
    <g id="xtick_6">
     <g id="line2d_6">
      <g>
       <use style="stroke:#000000;stroke-width:0.8;" x="345.629687" xlink:href="#md187591c4a" y="288.430125"/>
      </g>
     </g>
     <g id="text_6">
      <!-- 1000 -->
      <g transform="translate(332.904687 303.028562)scale(0.1 -0.1)">
       <use xlink:href="#DejaVuSans-49"/>
       <use x="63.623047" xlink:href="#DejaVuSans-48"/>
       <use x="127.246094" xlink:href="#DejaVuSans-48"/>
       <use x="190.869141" xlink:href="#DejaVuSans-48"/>
      </g>
     </g>
    </g>
    <g id="xtick_7">
     <g id="line2d_7">
      <g>
       <use style="stroke:#000000;stroke-width:0.8;" x="405.149688" xlink:href="#md187591c4a" y="288.430125"/>
      </g>
     </g>
     <g id="text_7">
      <!-- 1500 -->
      <g transform="translate(392.424688 303.028562)scale(0.1 -0.1)">
       <use xlink:href="#DejaVuSans-49"/>
       <use x="63.623047" xlink:href="#DejaVuSans-53"/>
       <use x="127.246094" xlink:href="#DejaVuSans-48"/>
       <use x="190.869141" xlink:href="#DejaVuSans-48"/>
      </g>
     </g>
    </g>
   </g>
   <g id="matplotlib.axis_2">
    <g id="ytick_1">
     <g id="line2d_8">
      <defs>
       <path d="M 0 0 
L -3.5 0 
" id="m1c2398094f" style="stroke:#000000;stroke-width:0.8;"/>
      </defs>
      <g>
       <use style="stroke:#000000;stroke-width:0.8;" x="48.029688" xlink:href="#m1c2398094f" y="288.430125"/>
      </g>
     </g>
     <g id="text_8">
      <!-- −1500 -->
      <g transform="translate(7.2 292.229344)scale(0.1 -0.1)">
       <use xlink:href="#DejaVuSans-8722"/>
       <use x="83.789062" xlink:href="#DejaVuSans-49"/>
       <use x="147.412109" xlink:href="#DejaVuSans-53"/>
       <use x="211.035156" xlink:href="#DejaVuSans-48"/>
       <use x="274.658203" xlink:href="#DejaVuSans-48"/>
      </g>
     </g>
    </g>
    <g id="ytick_2">
     <g id="line2d_9">
      <g>
       <use style="stroke:#000000;stroke-width:0.8;" x="48.029688" xlink:href="#m1c2398094f" y="244.078125"/>
      </g>
     </g>
     <g id="text_9">
      <!-- −1000 -->
      <g transform="translate(7.2 247.877344)scale(0.1 -0.1)">
       <use xlink:href="#DejaVuSans-8722"/>
       <use x="83.789062" xlink:href="#DejaVuSans-49"/>
       <use x="147.412109" xlink:href="#DejaVuSans-48"/>
       <use x="211.035156" xlink:href="#DejaVuSans-48"/>
       <use x="274.658203" xlink:href="#DejaVuSans-48"/>
      </g>
     </g>
    </g>
    <g id="ytick_3">
     <g id="line2d_10">
      <g>
       <use style="stroke:#000000;stroke-width:0.8;" x="48.029688" xlink:href="#m1c2398094f" y="199.726125"/>
      </g>
     </g>
     <g id="text_10">
      <!-- −500 -->
      <g transform="translate(13.5625 203.525344)scale(0.1 -0.1)">
       <use xlink:href="#DejaVuSans-8722"/>
       <use x="83.789062" xlink:href="#DejaVuSans-53"/>
       <use x="147.412109" xlink:href="#DejaVuSans-48"/>
       <use x="211.035156" xlink:href="#DejaVuSans-48"/>
      </g>
     </g>
    </g>
    <g id="ytick_4">
     <g id="line2d_11">
      <g>
       <use style="stroke:#000000;stroke-width:0.8;" x="48.029688" xlink:href="#m1c2398094f" y="155.374125"/>
      </g>
     </g>
     <g id="text_11">
      <!-- 0 -->
      <g transform="translate(34.667187 159.173344)scale(0.1 -0.1)">
       <use xlink:href="#DejaVuSans-48"/>
      </g>
     </g>
    </g>
    <g id="ytick_5">
     <g id="line2d_12">
      <g>
       <use style="stroke:#000000;stroke-width:0.8;" x="48.029688" xlink:href="#m1c2398094f" y="111.022125"/>
      </g>
     </g>
     <g id="text_12">
      <!-- 500 -->
      <g transform="translate(21.942187 114.821344)scale(0.1 -0.1)">
       <use xlink:href="#DejaVuSans-53"/>
       <use x="63.623047" xlink:href="#DejaVuSans-48"/>
       <use x="127.246094" xlink:href="#DejaVuSans-48"/>
      </g>
     </g>
    </g>
    <g id="ytick_6">
     <g id="line2d_13">
      <g>
       <use style="stroke:#000000;stroke-width:0.8;" x="48.029688" xlink:href="#m1c2398094f" y="66.670125"/>
      </g>
     </g>
     <g id="text_13">
      <!-- 1000 -->
      <g transform="translate(15.579687 70.469344)scale(0.1 -0.1)">
       <use xlink:href="#DejaVuSans-49"/>
       <use x="63.623047" xlink:href="#DejaVuSans-48"/>
       <use x="127.246094" xlink:href="#DejaVuSans-48"/>
       <use x="190.869141" xlink:href="#DejaVuSans-48"/>
      </g>
     </g>
    </g>
    <g id="ytick_7">
     <g id="line2d_14">
      <g>
       <use style="stroke:#000000;stroke-width:0.8;" x="48.029688" xlink:href="#m1c2398094f" y="22.318125"/>
      </g>
     </g>
     <g id="text_14">
      <!-- 1500 -->
      <g transform="translate(15.579687 26.117344)scale(0.1 -0.1)">
       <use xlink:href="#DejaVuSans-49"/>
       <use x="63.623047" xlink:href="#DejaVuSans-53"/>
       <use x="127.246094" xlink:href="#DejaVuSans-48"/>
       <use x="190.869141" xlink:href="#DejaVuSans-48"/>
      </g>
     </g>
    </g>
   </g>
   <g id="line2d_15">
    <path clip-path="url(#p220f29fd59)" d="M 226.589687 155.374125 
L 226.292088 157.902189 
L 225.934967 160.385901 
L 225.696888 162.692205 
L 225.399287 165.264621 
L 225.161207 167.393517 
L 223.851767 169.522413 
L 222.542327 171.740013 
L 221.232888 173.514093 
L 219.923448 175.642989 
L 218.614007 177.860589 
L 217.542647 179.634669 
L 216.411767 181.408749 
L 215.102328 183.182829 
L 214.030968 185.045613 
L 212.900087 186.819693 
L 211.412087 188.593773 
L 209.864567 190.190445 
L 208.495608 191.875821 
L 206.948087 193.472493 
" style="fill:none;stroke:#1f77b4;stroke-linecap:square;stroke-width:1.5;"/>
   </g>
   <g id="line2d_16">
    <path clip-path="url(#p220f29fd59)" d="M 226.589687 155.374125 
L 223.970808 157.148205 
L 221.590007 158.611821 
L 219.030647 160.430253 
L 216.590328 162.204333 
L 213.971448 163.978413 
L 222.780407 157.902189 
L 209.745528 166.373421 
L 207.424248 167.792685 
L 205.281528 169.566765 
L 203.079287 170.986029 
L 200.996087 173.203629 
L 198.853367 174.977709 
L 196.591608 177.106605 
L 194.567927 179.279853 
L 192.425207 181.098285 
L 189.806328 185.001261 
L 186.830328 190.057389 
L 183.973367 194.758701 
L 183.973367 194.758701 
" style="fill:none;stroke:#ff7f0e;stroke-linecap:square;stroke-width:1.5;"/>
   </g>
   <g id="line2d_17">
    <path clip-path="url(#p220f29fd59)" d="M 226.589687 155.374125 
L 226.589687 155.374125 
L 226.589687 155.374125 
L 226.589687 155.374125 
L 226.589687 155.374125 
L 226.589687 155.374125 
L 226.589687 155.374125 
L 226.589687 155.374125 
L 226.589687 155.374125 
L 226.589687 155.374125 
L 226.589687 155.374125 
L 226.589687 155.374125 
L 226.589687 155.374125 
L 226.589687 155.374125 
L 226.589687 155.374125 
L 226.589687 155.374125 
L 226.589687 155.374125 
L 226.589687 155.374125 
L 226.589687 155.374125 
L 226.589687 155.374125 
" style="fill:none;stroke:#2ca02c;stroke-linecap:square;stroke-width:1.5;"/>
   </g>
   <g id="line2d_18">
    <path clip-path="url(#p220f29fd59)" d="M 226.589687 155.374125 
L 225.518327 154.841901 
L 224.327927 154.309677 
L 223.197047 153.777453 
L 222.066168 153.378285 
L 220.994808 152.668653 
L 219.804407 152.313837 
L 218.494968 151.914669 
L 217.185528 151.914669 
L 215.876087 151.914669 
L 214.566647 151.914669 
L 213.257207 151.914669 
L 212.185847 151.914669 
L 211.114487 151.914669 
L 209.924087 151.559853 
L 208.852727 151.559853 
L 207.781367 151.205037 
L 206.710007 151.205037 
L 205.400567 150.850221 
L 204.329207 150.850221 
" style="fill:none;stroke:#d62728;stroke-linecap:square;stroke-width:1.5;"/>
   </g>
   <g id="line2d_19">
    <path clip-path="url(#p220f29fd59)" d="M 226.589687 155.374125 
L 225.458808 155.374125 
L 224.387448 155.019309 
L 223.316088 155.019309 
L 222.244728 155.019309 
L 221.173367 154.664493 
L 219.982968 154.664493 
L 218.911608 154.309677 
L 217.840248 154.309677 
L 216.768888 154.309677 
L 215.697528 154.309677 
L 214.745207 154.309677 
L 213.911927 154.309677 
L 212.840567 154.664493 
L 211.947767 154.664493 
L 210.816888 154.664493 
L 209.983608 154.664493 
L 209.150328 154.664493 
L 208.436087 155.019309 
L 207.900408 155.196717 
" style="fill:none;stroke:#9467bd;stroke-linecap:square;stroke-width:1.5;"/>
   </g>
   <g id="line2d_20">
    <path clip-path="url(#p220f29fd59)" d="M 226.589687 155.374125 
L 225.934967 155.551533 
L 225.399287 155.906349 
L 224.863608 156.083757 
L 224.149367 156.261165 
L 223.673207 156.438573 
L 223.078007 156.615981 
L 222.839927 156.970797 
L 222.601847 156.970797 
L 222.482808 157.369965 
L 222.244728 157.369965 
L 222.006647 157.724781 
L 221.768567 157.724781 
L 221.530487 158.079597 
L 221.292407 158.079597 
L 221.232888 158.478765 
L 221.054327 158.478765 
L 221.054327 158.478765 
L 221.054327 158.478765 
L 221.054327 158.478765 
" style="fill:none;stroke:#8c564b;stroke-linecap:square;stroke-width:1.5;"/>
   </g>
   <g id="line2d_21">
    <path clip-path="url(#p220f29fd59)" d="M 226.589687 155.374125 
L 226.589687 155.374125 
L 226.589687 155.374125 
L 226.589687 155.374125 
L 226.589687 155.374125 
L 226.589687 155.374125 
L 226.589687 155.374125 
L 226.589687 155.374125 
L 226.589687 155.374125 
L 226.589687 155.374125 
L 226.589687 155.374125 
L 226.589687 155.374125 
L 226.589687 155.374125 
L 226.589687 155.374125 
L 226.589687 155.374125 
L 226.589687 155.374125 
L 226.589687 155.374125 
L 226.589687 155.374125 
L 226.589687 155.374125 
L 226.351608 155.374125 
" style="fill:none;stroke:#e377c2;stroke-linecap:square;stroke-width:1.5;"/>
   </g>
   <g id="line2d_22">
    <path clip-path="url(#p220f29fd59)" d="M 226.589687 155.374125 
L 226.173047 155.374125 
L 225.756407 155.374125 
L 225.161207 155.374125 
L 224.744567 155.374125 
L 224.327927 155.152365 
L 223.851767 155.152365 
L 223.316088 154.974957 
L 222.899448 154.974957 
L 222.482808 154.974957 
L 221.887608 154.797549 
L 221.470968 154.797549 
L 221.173367 154.797549 
L 220.578168 154.797549 
L 220.221047 154.797549 
L 219.744888 154.797549 
L 220.578168 154.442733 
L 221.887608 154.442733 
L 222.958967 154.442733 
L 224.149367 154.442733 
" style="fill:none;stroke:#7f7f7f;stroke-linecap:square;stroke-width:1.5;"/>
   </g>
   <g id="line2d_23">
    <path clip-path="url(#p220f29fd59)" d="M 226.589687 155.374125 
L 227.661047 155.374125 
L 228.732407 155.374125 
L 228.018168 155.374125 
L 226.946808 155.374125 
L 225.637368 155.374125 
L 224.566007 155.374125 
L 223.256567 155.728941 
L 222.185207 155.728941 
L 220.875767 155.728941 
L 219.804407 155.728941 
L 218.494968 155.728941 
L 217.364087 156.083757 
L 216.054647 156.083757 
L 214.923767 156.083757 
L 213.614328 156.083757 
L 212.304888 156.482925 
L 211.233528 156.482925 
L 209.924087 156.482925 
L 208.852727 156.482925 
" style="fill:none;stroke:#bcbd22;stroke-linecap:square;stroke-width:1.5;"/>
   </g>
   <g id="line2d_24">
    <path clip-path="url(#p220f29fd59)" d="M 226.589687 155.374125 
L 225.399287 155.551533 
L 224.089847 155.551533 
L 222.780407 155.551533 
L 221.590007 155.374125 
L 220.221047 155.374125 
L 218.792567 155.196717 
L 217.483127 155.196717 
L 216.292728 155.196717 
L 214.983287 155.019309 
L 213.673847 155.019309 
L 212.364407 155.019309 
L 211.054968 154.841901 
L 209.745528 154.841901 
L 208.555127 154.620141 
L 207.245688 154.620141 
L 205.817207 154.620141 
L 204.507767 154.442733 
L 203.317367 154.442733 
L 202.007927 154.442733 
" style="fill:none;stroke:#17becf;stroke-linecap:square;stroke-width:1.5;"/>
   </g>
   <g id="line2d_25">
    <path clip-path="url(#p220f29fd59)" d="M 226.589687 155.374125 
L 225.220728 155.374125 
L 223.911287 155.374125 
L 222.601847 155.196717 
L 221.292407 155.196717 
L 220.102007 155.019309 
L 218.673528 155.019309 
L 217.364087 155.019309 
L 216.173687 154.841901 
L 214.864248 154.841901 
L 213.554808 154.841901 
L 212.245367 154.664493 
L 210.935927 154.664493 
L 209.626487 154.487085 
L 208.317048 154.487085 
L 207.126647 154.487085 
L 205.757688 154.309677 
L 204.329207 154.309677 
L 203.138807 154.309677 
L 201.829367 154.132269 
" style="fill:none;stroke:#1f77b4;stroke-linecap:square;stroke-width:1.5;"/>
   </g>
   <g id="line2d_26">
    <path clip-path="url(#p220f29fd59)" d="M 226.589687 155.374125 
L 225.280248 155.374125 
L 225.161207 155.196717 
L 223.018487 155.906349 
L 221.054327 156.615981 
L 218.852088 157.192557 
L 217.185528 157.547373 
L 215.697528 157.547373 
L 214.209528 157.547373 
L 212.662007 157.547373 
L 211.114487 157.547373 
L 209.566968 157.547373 
L 208.257528 157.547373 
L 207.067127 157.547373 
L 205.876727 157.192557 
L 204.686328 156.793389 
L 203.436408 156.793389 
L 202.246007 156.394221 
L 201.055608 156.394221 
L 200.341367 156.039405 
" style="fill:none;stroke:#ff7f0e;stroke-linecap:square;stroke-width:1.5;"/>
   </g>
   <g id="line2d_27">
    <path clip-path="url(#p220f29fd59)" d="M 226.589687 155.374125 
L 229.208567 155.374125 
L 231.886967 155.374125 
L 234.505847 155.374125 
L 237.124728 155.019309 
L 240.160247 155.019309 
L 243.255288 154.620141 
L 246.290807 154.620141 
L 248.909687 154.265325 
L 251.528568 154.265325 
L 254.206967 154.265325 
L 256.825848 154.265325 
L 259.444727 154.265325 
L 262.063607 154.265325 
L 264.682487 154.265325 
L 267.301367 154.265325 
L 269.920248 154.265325 
L 272.301047 154.797549 
L 274.860408 155.374125 
L 277.479287 155.595885 
" style="fill:none;stroke:#2ca02c;stroke-linecap:square;stroke-width:1.5;"/>
   </g>
   <g id="line2d_28">
    <path clip-path="url(#p220f29fd59)" d="M 226.589687 155.374125 
L 229.208567 155.374125 
L 232.065528 155.374125 
L 234.684407 155.374125 
L 237.303288 155.374125 
L 239.922168 155.374125 
L 242.541047 155.728941 
L 244.921847 155.728941 
L 247.302648 156.083757 
L 249.504887 156.438573 
L 252.183288 156.438573 
L 254.802167 156.793389 
L 257.182968 156.793389 
L 259.801848 157.148205 
L 262.420727 157.148205 
L 264.801528 157.148205 
L 267.420408 156.793389 
L 269.801207 156.438573 
L 272.241528 156.083757 
L 274.681848 156.083757 
" style="fill:none;stroke:#d62728;stroke-linecap:square;stroke-width:1.5;"/>
   </g>
   <g id="line2d_29">
    <path clip-path="url(#p220f29fd59)" d="M 226.589687 155.374125 
L 228.970487 155.019309 
L 231.351287 154.575789 
L 233.970168 154.575789 
L 236.589047 154.220973 
L 239.207927 154.220973 
L 241.826808 153.866157 
L 244.445687 153.866157 
L 247.064568 153.511341 
L 249.683447 153.156525 
L 252.302327 152.446893 
L 254.921207 152.092077 
L 257.540087 151.382445 
L 260.218487 151.027629 
L 262.837367 150.317997 
L 264.146808 148.898733 
L 265.456248 147.390765 
L 266.825207 145.971501 
L 268.253688 144.197421 
L 269.265528 143.310381 
" style="fill:none;stroke:#9467bd;stroke-linecap:square;stroke-width:1.5;"/>
   </g>
   <g id="line2d_30">
    <path clip-path="url(#p220f29fd59)" d="M 226.589687 155.374125 
L 223.256567 156.083757 
L 220.161528 156.438573 
L 217.542647 156.793389 
L 214.923767 157.503021 
L 212.542968 157.857837 
L 210.400248 158.212653 
L 208.138487 158.567469 
L 205.519608 158.922285 
L 202.543608 159.277101 
L 199.448567 159.277101 
L 196.591608 159.631917 
L 193.496567 159.986733 
L 190.699128 160.385901 
L 187.663608 160.385901 
L 184.806647 160.740717 
L 181.711608 160.740717 
L 178.616568 160.740717 
L 175.521527 160.740717 
L 172.783608 161.450349 
" style="fill:none;stroke:#8c564b;stroke-linecap:square;stroke-width:1.5;"/>
   </g>
   <g id="line2d_31">
    <path clip-path="url(#p220f29fd59)" d="M 226.589687 155.374125 
L 220.042487 156.438573 
L 212.483448 156.438573 
L 205.281528 156.083757 
L 197.960567 155.906349 
L 190.699128 155.728941 
L 183.437687 155.551533 
L 175.878647 155.374125 
L 168.438648 155.019309 
L 160.820087 155.019309 
L 153.142008 154.664493 
L 145.523448 154.664493 
L 137.845368 154.664493 
L 129.988727 154.664493 
L 122.370168 154.664493 
L 114.454008 154.664493 
L 106.597368 154.664493 
L 98.740728 154.664493 
L 90.884087 154.664493 
L 83.860727 155.196717 
" style="fill:none;stroke:#e377c2;stroke-linecap:square;stroke-width:1.5;"/>
   </g>
   <g id="line2d_32">
    <path clip-path="url(#p220f29fd59)" d="M 226.589687 155.374125 
L 219.566327 155.019309 
L 212.126328 154.664493 
L 204.269688 153.954861 
L 196.413048 153.600045 
L 188.556408 153.600045 
L 180.640247 153.600045 
L 172.783608 153.600045 
L 164.926967 153.600045 
L 156.832247 154.309677 
L 148.737527 155.019309 
L 140.880888 155.374125 
L 133.024248 155.374125 
L 125.108087 155.374125 
L 117.489528 155.374125 
L 109.870968 155.019309 
L 101.954808 155.019309 
L 94.098168 155.019309 
L 86.241528 155.019309 
L 79.337208 155.019309 
" style="fill:none;stroke:#7f7f7f;stroke-linecap:square;stroke-width:1.5;"/>
   </g>
   <g id="line2d_33">
    <path clip-path="url(#p220f29fd59)" d="M 226.589687 155.374125 
L 219.209207 155.728941 
L 211.947767 155.728941 
L 203.614968 155.728941 
L 195.520248 155.374125 
L 187.366007 155.196717 
L 179.271287 154.841901 
L 171.414648 154.664493 
L 163.736568 154.664493 
L 156.118008 154.309677 
L 148.499448 154.309677 
L 140.821368 153.954861 
L 133.143287 153.600045 
L 125.762808 153.954861 
L 118.263288 153.954861 
L 110.882807 153.954861 
L 103.442808 153.954861 
L 96.002808 153.954861 
L 91.657848 153.954861 
L 87.372408 153.954861 
" style="fill:none;stroke:#bcbd22;stroke-linecap:square;stroke-width:1.5;"/>
   </g>
   <g id="line2d_34">
    <path clip-path="url(#p220f29fd59)" d="M 226.589687 155.374125 
L 223.970808 155.728941 
L 221.351927 155.728941 
L 219.685367 155.728941 
L 217.661687 155.728941 
L 215.042808 156.438573 
L 212.423927 157.192557 
L 209.805048 157.591725 
L 207.186168 157.591725 
L 204.567287 157.192557 
L 201.948408 157.192557 
L 199.329527 156.793389 
L 196.710647 156.793389 
L 194.091768 156.793389 
L 191.472888 156.793389 
L 188.854007 156.793389 
L 186.235128 156.793389 
L 183.378167 156.793389 
L 180.521208 156.793389 
L 177.426167 156.793389 
" style="fill:none;stroke:#17becf;stroke-linecap:square;stroke-width:1.5;"/>
   </g>
   <g id="line2d_35">
    <path clip-path="url(#p220f29fd59)" d="M 226.589687 155.374125 
L 223.970808 155.374125 
L 221.351927 155.374125 
L 218.494968 155.374125 
L 215.876087 155.374125 
L 213.257207 155.374125 
L 210.638328 155.374125 
L 208.019448 155.773293 
L 206.114807 155.773293 
L 204.091127 155.773293 
L 202.186487 155.773293 
L 198.853367 155.773293 
L 195.401207 155.773293 
L 192.782328 155.773293 
L 190.401527 156.172461 
L 187.901688 156.172461 
L 185.520888 156.172461 
L 182.902007 156.172461 
L 180.283128 155.773293 
L 177.664247 155.773293 
" style="fill:none;stroke:#1f77b4;stroke-linecap:square;stroke-width:1.5;"/>
   </g>
   <g id="line2d_36">
    <path clip-path="url(#p220f29fd59)" d="M 226.589687 155.374125 
L 224.446967 156.438573 
L 222.244728 157.148205 
L 220.042487 158.212653 
L 218.078328 158.966637 
L 215.876087 159.676269 
L 213.733367 160.740717 
L 211.769207 161.494701 
L 209.566968 162.559149 
L 207.364727 163.268781 
L 204.745847 163.623597 
L 202.126968 163.623597 
L 199.508087 163.623597 
L 196.889207 163.623597 
L 194.032247 163.623597 
L 191.413367 163.623597 
L 188.794488 163.623597 
L 186.175608 163.623597 
L 183.318647 163.623597 
L 180.699768 163.623597 
" style="fill:none;stroke:#ff7f0e;stroke-linecap:square;stroke-width:1.5;"/>
   </g>
   <g id="line2d_37">
    <path clip-path="url(#p220f29fd59)" d="M 226.589687 155.374125 
L 223.970808 155.374125 
L 221.173367 155.374125 
L 218.494968 155.374125 
L 215.876087 155.374125 
L 213.257207 155.374125 
L 210.459767 155.374125 
L 207.840888 155.374125 
L 205.162487 155.374125 
L 202.543608 155.374125 
L 199.924727 155.374125 
L 196.532087 155.196717 
L 193.377527 155.019309 
L 190.163447 154.664493 
L 188.377848 154.841901 
L 187.068408 155.196717 
L 185.758967 155.595885 
L 184.687608 155.950701 
L 183.378167 156.305517 
L 182.068727 156.660333 
" style="fill:none;stroke:#2ca02c;stroke-linecap:square;stroke-width:1.5;"/>
   </g>
   <g id="line2d_38">
    <path clip-path="url(#p220f29fd59)" d="M 226.589687 155.374125 
L 229.208567 155.196717 
L 231.827448 154.841901 
L 234.029687 155.019309 
L 236.172407 155.374125 
L 238.374648 155.728941 
L 240.576887 156.261165 
L 242.898167 156.438573 
L 245.755127 156.438573 
L 248.493047 156.438573 
L 251.588088 156.083757 
L 254.445047 156.083757 
L 256.825848 156.083757 
L 258.611447 156.438573 
L 260.516088 156.438573 
L 262.777848 156.438573 
L 264.920568 156.261165 
L 267.182327 156.083757 
L 269.444088 155.906349 
L 271.824887 155.551533 
" style="fill:none;stroke:#d62728;stroke-linecap:square;stroke-width:1.5;"/>
   </g>
   <g id="line2d_39">
    <path clip-path="url(#p220f29fd59)" d="M 226.589687 155.374125 
L 228.494327 155.374125 
L 230.279927 155.374125 
L 232.184567 155.019309 
L 234.446327 155.019309 
L 236.589047 155.019309 
L 238.612728 155.019309 
L 240.755448 155.019309 
L 242.898167 155.019309 
L 244.921847 154.664493 
L 247.064568 154.664493 
L 249.504887 154.309677 
L 252.123767 154.309677 
L 254.742648 154.309677 
L 257.182968 154.664493 
L 259.801848 154.664493 
L 262.420727 154.664493 
L 264.801528 155.019309 
L 267.420408 155.019309 
L 270.039288 155.019309 
" style="fill:none;stroke:#9467bd;stroke-linecap:square;stroke-width:1.5;"/>
   </g>
   <g id="line2d_40">
    <path clip-path="url(#p220f29fd59)" d="M 226.589687 155.374125 
L 227.899127 155.374125 
L 228.970487 155.374125 
L 230.994168 155.374125 
L 233.374967 155.374125 
L 235.993847 155.374125 
L 238.077047 155.906349 
L 239.981687 156.083757 
L 241.826808 156.615981 
L 243.731448 156.615981 
L 245.993207 156.615981 
L 247.897847 156.615981 
L 250.159607 156.615981 
L 252.064247 156.615981 
L 254.266487 156.615981 
L 256.468727 156.615981 
L 258.373367 156.615981 
L 260.635128 156.615981 
L 262.777848 156.615981 
L 264.980087 156.615981 
" style="fill:none;stroke:#8c564b;stroke-linecap:square;stroke-width:1.5;"/>
   </g>
   <g id="line2d_41">
    <path clip-path="url(#p220f29fd59)" d="M 226.589687 155.374125 
L 234.029687 154.664493 
L 241.231607 153.954861 
L 248.671607 153.245229 
L 255.873527 152.180781 
L 263.313527 151.471149 
L 270.753528 150.717165 
L 277.955447 149.963181 
L 285.395447 149.253549 
L 292.597368 148.189101 
L 300.037367 147.479469 
L 307.239287 146.769837 
L 314.679287 146.060205 
L 323.012088 146.415021 
L 331.404407 147.124653 
L 339.915768 147.834285 
L 348.248567 148.543917 
L 356.759928 148.898733 
L 365.271287 149.608365 
L 373.723127 150.317997 
" style="fill:none;stroke:#e377c2;stroke-linecap:square;stroke-width:1.5;"/>
   </g>
   <g id="line2d_42">
    <path clip-path="url(#p220f29fd59)" d="M 226.589687 155.374125 
L 232.363127 154.487085 
L 239.624567 154.487085 
L 248.135927 154.487085 
L 256.230647 153.777453 
L 264.503927 154.132269 
L 272.360568 154.132269 
L 280.931447 154.841901 
L 289.859447 155.196717 
L 298.192248 155.196717 
L 306.048887 154.841901 
L 313.905528 155.551533 
L 321.405048 155.551533 
L 328.785528 155.196717 
L 338.189687 155.551533 
L 345.451127 155.196717 
L 352.593527 154.841901 
L 360.688247 155.906349 
L 367.711608 156.261165 
L 372.413687 156.261165 
" style="fill:none;stroke:#7f7f7f;stroke-linecap:square;stroke-width:1.5;"/>
   </g>
   <g id="line2d_43">
    <path clip-path="url(#p220f29fd59)" d="M 226.589687 155.374125 
L 227.899127 155.374125 
L 229.208567 155.374125 
L 230.518008 155.728941 
L 231.589368 156.083757 
L 233.553528 156.083757 
L 235.577207 156.083757 
L 236.231927 156.083757 
L 236.231927 156.083757 
L 236.648567 156.438573 
L 239.505527 156.793389 
L 240.338808 156.793389 
L 240.993527 157.148205 
L 241.648247 157.148205 
L 242.302967 157.503021 
L 243.612407 157.857837 
L 244.921847 158.212653 
L 246.290807 158.567469 
L 247.243127 159.676269 
L 248.254967 160.430253 
" style="fill:none;stroke:#bcbd22;stroke-linecap:square;stroke-width:1.5;"/>
   </g>
   <g id="line2d_44">
    <path clip-path="url(#p220f29fd59)" d="M 226.589687 155.374125 
L 228.137207 156.083757 
L 229.565687 156.793389 
L 230.994168 157.680429 
L 232.541687 158.567469 
L 234.089207 159.277101 
L 235.577207 160.252845 
L 237.005687 160.962477 
L 238.553207 161.672109 
L 240.041207 162.736557 
L 241.588728 163.446189 
L 243.017207 164.155821 
L 244.445687 164.865453 
L 246.171767 164.865453 
L 247.719288 164.865453 
L 249.266807 164.865453 
L 250.754807 164.865453 
L 252.302327 165.220269 
L 253.849848 165.220269 
L 255.397368 165.220269 
" style="fill:none;stroke:#17becf;stroke-linecap:square;stroke-width:1.5;"/>
   </g>
   <g id="line2d_45">
    <path clip-path="url(#p220f29fd59)" d="M 226.589687 155.374125 
L 226.054007 157.192557 
L 225.577847 159.010989 
L 225.101687 160.607661 
L 224.506487 162.381741 
L 224.089847 164.200173 
L 223.435127 166.018605 
L 222.899448 167.970093 
L 222.244728 169.921581 
L 221.590007 171.961773 
L 220.280567 174.800301 
L 219.447287 176.929197 
L 218.494968 177.683181 
L 217.661687 178.037997 
L 214.328567 179.501613 
L 213.733367 182.340141 
L 212.423927 183.759405 
L 211.352567 185.622189 
L 210.043127 187.041453 
L 208.852727 188.105901 
" style="fill:none;stroke:#1f77b4;stroke-linecap:square;stroke-width:1.5;"/>
   </g>
   <g id="line2d_46">
    <path clip-path="url(#p220f29fd59)" d="M 226.589687 155.374125 
L 223.494647 156.083757 
L 221.530487 157.148205 
L 219.328248 158.257005 
L 216.471287 159.010989 
L 213.852407 158.656173 
L 212.185847 160.075437 
L 210.400248 161.139885 
L 208.852727 162.204333 
L 207.305207 162.913965 
L 205.757688 163.978413 
L 204.448248 165.486381 
L 203.853048 168.324909 
L 202.900727 170.808621 
L 201.829367 173.735853 
L 200.996087 175.509933 
L 200.162807 176.929197 
L 198.972408 178.037997 
L 197.662968 179.501613 
L 196.353527 181.275693 
" style="fill:none;stroke:#ff7f0e;stroke-linecap:square;stroke-width:1.5;"/>
   </g>
   <g id="line2d_47">
    <path clip-path="url(#p220f29fd59)" d="M 226.589687 155.374125 
L 220.459127 155.374125 
L 214.745207 155.019309 
L 208.198007 154.620141 
L 202.126968 154.620141 
L 195.103608 153.910509 
L 187.901688 153.156525 
L 180.223608 152.801709 
L 173.081208 152.446893 
L 166.295928 152.801709 
L 159.272567 152.801709 
L 153.201527 152.446893 
L 144.154488 151.737261 
L 137.845368 153.156525 
L 131.536248 153.511341 
L 125.346168 152.801709 
L 118.560888 152.446893 
L 116.894328 153.378285 
L 110.109048 151.959021 
L 103.799928 151.959021 
" style="fill:none;stroke:#2ca02c;stroke-linecap:square;stroke-width:1.5;"/>
   </g>
   <g id="line2d_48">
    <path clip-path="url(#p220f29fd59)" d="M 226.589687 155.374125 
L 225.518327 153.555693 
L 224.208888 152.092077 
L 222.661367 150.672813 
L 221.232888 149.253549 
L 219.804407 147.789933 
L 218.256888 146.370669 
L 216.887927 144.907053 
L 215.518968 143.665197 
L 214.030968 142.245933 
L 212.662007 140.782317 
L 211.233528 139.363053 
L 209.686007 137.899437 
L 208.376567 136.480173 
L 206.829048 135.060909 
L 205.281528 133.597293 
L 203.436408 132.133677 
L 201.472248 130.714413 
L 199.508087 129.295149 
L 197.782007 127.831533 
" style="fill:none;stroke:#d62728;stroke-linecap:square;stroke-width:1.5;"/>
   </g>
   <g id="line2d_49">
    <path clip-path="url(#p220f29fd59)" d="M 226.589687 155.374125 
L 224.685047 153.910509 
L 222.958967 152.846061 
L 221.649528 152.136429 
L 220.340088 151.071981 
L 218.792567 150.362349 
L 217.483127 149.608365 
L 216.173687 148.543917 
L 213.971448 148.189101 
L 211.590647 148.189101 
L 209.209847 148.189101 
L 206.710007 147.834285 
L 204.269688 147.834285 
L 201.829367 147.834285 
L 199.448567 147.435117 
L 197.067768 147.435117 
L 194.567927 147.435117 
L 192.187128 147.080301 
L 189.627768 147.080301 
L 187.187447 147.080301 
" style="fill:none;stroke:#9467bd;stroke-linecap:square;stroke-width:1.5;"/>
   </g>
   <g id="line2d_50">
    <path clip-path="url(#p220f29fd59)" d="M 226.589687 155.374125 
L 224.089847 155.374125 
L 221.709047 155.374125 
L 219.209207 155.196717 
L 216.411767 154.841901 
L 213.673847 154.664493 
L 210.995448 154.487085 
L 208.376567 154.309677 
L 205.638647 154.132269 
L 203.138807 153.954861 
L 200.877048 153.600045 
L 198.496248 153.245229 
L 196.115447 153.245229 
L 193.734647 152.890413 
L 191.353848 152.890413 
L 188.854007 152.890413 
L 186.473208 152.890413 
L 184.092408 152.890413 
L 181.949687 153.245229 
L 179.449848 153.245229 
" style="fill:none;stroke:#8c564b;stroke-linecap:square;stroke-width:1.5;"/>
   </g>
   <g id="line2d_51">
    <path clip-path="url(#p220f29fd59)" d="M 226.589687 155.374125 
L 226.411127 155.374125 
L 226.173047 155.374125 
L 225.756407 155.374125 
L 225.518327 155.374125 
L 225.280248 155.374125 
L 225.280248 155.019309 
L 225.280248 155.019309 
L 225.280248 155.019309 
L 225.280248 155.019309 
L 225.280248 155.019309 
L 225.280248 155.019309 
L 225.280248 155.019309 
L 225.280248 155.019309 
L 225.280248 155.019309 
L 225.280248 155.019309 
L 225.280248 155.019309 
L 225.280248 155.019309 
L 225.280248 155.019309 
L 225.280248 155.019309 
" style="fill:none;stroke:#e377c2;stroke-linecap:square;stroke-width:1.5;"/>
   </g>
   <g id="line2d_52">
    <path clip-path="url(#p220f29fd59)" d="M 226.589687 155.374125 
L 226.589687 155.374125 
L 226.589687 155.374125 
L 226.589687 155.374125 
L 226.589687 155.374125 
L 226.589687 155.374125 
L 226.589687 155.374125 
L 226.411127 155.551533 
L 226.411127 155.551533 
L 226.411127 155.551533 
L 226.411127 155.551533 
L 226.292088 155.551533 
L 226.292088 155.551533 
L 226.292088 155.551533 
L 226.292088 155.551533 
L 226.173047 155.551533 
L 226.173047 155.551533 
L 226.173047 155.374125 
L 226.173047 155.374125 
L 226.054007 155.374125 
" style="fill:none;stroke:#7f7f7f;stroke-linecap:square;stroke-width:1.5;"/>
   </g>
   <g id="line2d_53">
    <path clip-path="url(#p220f29fd59)" d="M 226.589687 155.374125 
L 226.589687 155.374125 
L 226.589687 155.374125 
L 226.470647 155.374125 
L 226.470647 155.374125 
L 226.470647 155.374125 
L 226.470647 155.374125 
L 226.351608 155.196717 
L 226.351608 155.196717 
L 226.351608 155.196717 
L 226.351608 155.196717 
L 226.351608 155.196717 
L 226.292088 155.196717 
L 226.292088 155.196717 
L 226.292088 155.374125 
L 226.292088 155.374125 
L 226.173047 155.374125 
L 226.173047 155.374125 
L 226.173047 155.196717 
L 226.173047 155.196717 
" style="fill:none;stroke:#bcbd22;stroke-linecap:square;stroke-width:1.5;"/>
   </g>
   <g id="line2d_54">
    <path clip-path="url(#p220f29fd59)" d="M 226.589687 155.374125 
L 229.684728 153.910509 
L 237.422327 153.555693 
L 244.802808 153.200877 
L 252.421368 152.491245 
L 260.158968 151.781613 
L 267.777528 151.071981 
L 274.324727 151.071981 
L 280.633848 151.071981 
L 287.181047 151.426797 
L 293.966327 151.781613 
L 300.513528 152.136429 
L 307.774968 152.491245 
L 314.976887 152.846061 
L 322.416887 153.200877 
L 329.618808 153.555693 
L 337.058808 153.733101 
L 342.713208 153.378285 
L 348.427127 152.668653 
L 354.141048 151.959021 
" style="fill:none;stroke:#17becf;stroke-linecap:square;stroke-width:1.5;"/>
   </g>
   <g id="line2d_55">
    <path clip-path="url(#p220f29fd59)" d="M 226.589687 155.374125 
L 226.470647 157.148205 
L 226.351608 158.966637 
L 226.232567 160.785069 
L 226.173047 162.559149 
L 226.173047 164.333229 
L 226.054007 166.373421 
L 225.339767 168.147501 
L 224.923127 169.921581 
L 224.268407 171.740013 
L 223.613687 173.558445 
L 222.482808 174.977709 
L 220.994808 176.042157 
L 219.506808 177.461421 
L 217.959287 178.570221 
L 216.411767 180.033837 
L 214.864248 181.098285 
L 213.316727 182.517549 
L 211.769207 183.581997 
L 209.864567 184.291629 
" style="fill:none;stroke:#1f77b4;stroke-linecap:square;stroke-width:1.5;"/>
   </g>
   <g id="line2d_56">
    <path clip-path="url(#p220f29fd59)" d="M 226.589687 155.374125 
L 224.685047 156.083757 
L 222.661367 156.793389 
L 220.756728 157.902189 
L 218.971127 158.966637 
L 217.006968 160.031085 
L 215.280888 161.450349 
L 213.495287 162.559149 
L 212.066808 164.377581 
L 210.757367 165.974253 
L 209.447927 167.570925 
L 208.138487 169.167597 
L 206.829048 170.675565 
L 205.281528 172.272237 
L 203.734007 173.691501 
L 202.305527 175.110765 
L 200.758007 176.175213 
L 199.210487 177.683181 
L 197.424888 179.102445 
L 195.877367 180.521709 
" style="fill:none;stroke:#ff7f0e;stroke-linecap:square;stroke-width:1.5;"/>
   </g>
   <g id="line2d_57">
    <path clip-path="url(#p220f29fd59)" d="M 226.589687 155.374125 
L 224.804088 156.837741 
L 223.078007 158.301357 
L 221.411448 159.720621 
L 219.506808 161.139885 
L 217.959287 162.559149 
L 216.173687 164.022765 
L 214.507127 165.264621 
L 212.364407 166.018605 
L 210.400248 166.728237 
L 208.376567 167.437869 
L 206.471927 168.147501 
L 204.448248 168.857133 
L 202.305527 169.965933 
L 200.103287 171.030381 
L 198.139128 172.094829 
L 195.936888 173.203629 
L 193.972727 174.268077 
L 191.353848 175.332525 
L 188.973048 176.042157 
" style="fill:none;stroke:#2ca02c;stroke-linecap:square;stroke-width:1.5;"/>
   </g>
   <g id="line2d_58">
    <path clip-path="url(#p220f29fd59)" d="M 226.589687 155.374125 
L 224.804088 156.793389 
L 223.078007 157.902189 
L 221.292407 159.321453 
L 219.387767 160.385901 
L 217.185528 161.494701 
L 215.638007 162.559149 
L 214.328567 163.623597 
L 212.781047 164.732397 
L 211.471608 166.861293 
L 210.162168 170.453805 
L 209.983608 171.163437 
L 209.983608 171.163437 
L 209.983608 171.163437 
L 209.983608 171.163437 
L 209.983608 171.163437 
L 209.983608 171.163437 
L 209.983608 171.163437 
L 209.983608 171.163437 
L 209.983608 171.163437 
" style="fill:none;stroke:#d62728;stroke-linecap:square;stroke-width:1.5;"/>
   </g>
   <g id="line2d_59">
    <path clip-path="url(#p220f29fd59)" d="M 226.589687 155.374125 
L 229.684728 155.374125 
L 232.482168 155.019309 
L 235.458168 155.019309 
L 238.434168 154.841901 
L 241.410168 154.664493 
L 244.326648 154.487085 
L 247.124088 154.309677 
L 250.219127 154.132269 
L 253.076087 153.954861 
L 256.052087 153.954861 
L 258.968568 153.777453 
L 261.885047 153.600045 
L 264.861047 153.378285 
L 267.837047 153.200877 
L 270.753528 153.023469 
L 273.670007 152.846061 
L 276.526968 152.668653 
L 279.622007 152.668653 
L 282.478968 152.313837 
" style="fill:none;stroke:#9467bd;stroke-linecap:square;stroke-width:1.5;"/>
   </g>
   <g id="line2d_60">
    <path clip-path="url(#p220f29fd59)" d="M 226.589687 155.374125 
L 229.208567 155.374125 
L 231.827448 155.374125 
L 234.446327 155.728941 
L 237.065207 155.728941 
L 239.684088 155.728941 
L 242.302967 156.128109 
L 244.921847 156.128109 
L 247.302648 156.128109 
L 249.921527 156.482925 
L 252.540407 156.482925 
L 255.159288 156.482925 
L 257.778167 156.482925 
L 260.397047 156.837741 
L 263.015927 156.837741 
L 265.634807 156.837741 
L 268.015607 156.837741 
L 270.277367 156.837741 
L 272.658167 156.837741 
L 275.038968 156.837741 
" style="fill:none;stroke:#8c564b;stroke-linecap:square;stroke-width:1.5;"/>
   </g>
   <g id="line2d_61">
    <path clip-path="url(#p220f29fd59)" d="M 226.589687 155.374125 
L 229.089528 155.374125 
L 231.470327 155.019309 
L 232.779767 155.019309 
L 234.327287 154.664493 
L 235.815288 154.664493 
L 237.303288 154.265325 
L 238.850808 154.265325 
L 240.398327 153.910509 
L 241.945847 153.910509 
L 243.493368 153.555693 
L 245.398008 153.023469 
L 247.540728 152.313837 
L 249.504887 151.604205 
L 251.528568 151.071981 
L 253.552247 150.362349 
L 255.575928 149.652717 
L 257.540087 148.898733 
L 259.742327 148.543917 
L 262.361207 148.189101 
" style="fill:none;stroke:#e377c2;stroke-linecap:square;stroke-width:1.5;"/>
   </g>
   <g id="line2d_62">
    <path clip-path="url(#p220f29fd59)" d="M 226.589687 155.374125 
L 229.208567 155.019309 
L 231.827448 154.664493 
L 234.446327 154.309677 
L 237.065207 153.954861 
L 239.684088 153.600045 
L 242.302967 153.245229 
L 244.921847 153.245229 
L 247.540728 152.890413 
L 250.159607 152.890413 
L 252.778487 152.890413 
L 255.159288 153.245229 
L 257.778167 153.600045 
L 260.397047 153.600045 
L 263.015927 153.245229 
L 265.872887 152.535597 
L 268.491767 152.180781 
L 270.932087 152.535597 
L 273.134327 152.890413 
L 275.515128 152.890413 
" style="fill:none;stroke:#7f7f7f;stroke-linecap:square;stroke-width:1.5;"/>
   </g>
   <g id="line2d_63">
    <path clip-path="url(#p220f29fd59)" d="M 226.589687 155.374125 
L 223.554168 155.374125 
L 220.459127 155.374125 
L 217.661687 155.019309 
L 214.566647 155.019309 
L 211.769207 155.019309 
L 208.674168 154.664493 
L 205.817207 154.664493 
L 202.781688 154.664493 
L 199.924727 154.664493 
L 196.889207 154.664493 
L 194.032247 154.664493 
L 190.996727 154.664493 
L 188.139768 154.664493 
L 185.104247 154.664493 
L 182.247287 154.664493 
L 179.152247 154.664493 
L 176.295288 154.664493 
L 173.259768 154.664493 
L 170.224247 154.664493 
" style="fill:none;stroke:#bcbd22;stroke-linecap:square;stroke-width:1.5;"/>
   </g>
   <g id="line2d_64">
    <path clip-path="url(#p220f29fd59)" d="M 226.589687 155.374125 
L 223.554168 155.374125 
L 220.697207 155.374125 
L 217.661687 155.374125 
L 214.566647 155.019309 
L 211.709688 155.019309 
L 208.674168 155.019309 
L 205.638647 155.019309 
L 202.781688 155.019309 
L 199.686647 155.019309 
L 196.889207 155.019309 
L 194.032247 155.019309 
L 191.175287 155.019309 
L 188.318328 155.019309 
L 185.520888 155.019309 
L 183.437687 155.019309 
L 181.533048 155.019309 
L 179.628408 155.019309 
L 177.723768 155.019309 
L 177.009527 156.083757 
" style="fill:none;stroke:#17becf;stroke-linecap:square;stroke-width:1.5;"/>
   </g>
   <g id="line2d_65">
    <path clip-path="url(#p220f29fd59)" d="M 226.589687 155.374125 
L 234.624887 155.374125 
L 242.957687 155.374125 
L 250.933368 155.374125 
L 258.909047 155.374125 
L 266.765688 155.374125 
L 275.336568 155.019309 
L 283.669368 154.664493 
L 291.764087 154.309677 
L 299.620727 154.132269 
L 307.001207 153.954861 
L 314.500727 153.954861 
L 321.524088 153.954861 
L 328.309368 153.954861 
L 335.570808 153.954861 
L 344.498807 153.954861 
L 351.700727 153.600045 
L 358.902648 153.600045 
L 364.199928 153.245229 
L 366.997367 152.890413 
" style="fill:none;stroke:#1f77b4;stroke-linecap:square;stroke-width:1.5;"/>
   </g>
   <g id="line2d_66">
    <path clip-path="url(#p220f29fd59)" d="M 226.589687 155.374125 
L 227.482487 155.019309 
L 228.672888 155.196717 
L 230.398967 155.374125 
L 232.898808 155.374125 
L 235.041528 155.551533 
L 237.481847 155.374125 
L 239.862648 155.196717 
L 242.183927 155.196717 
L 244.624247 155.019309 
L 247.005047 154.841901 
L 249.504887 155.019309 
L 252.123767 155.374125 
L 254.742648 156.083757 
L 257.361527 156.438573 
L 259.980408 156.793389 
L 261.944568 156.438573 
L 263.968248 156.083757 
L 266.110968 155.728941 
L 268.075128 155.019309 
" style="fill:none;stroke:#ff7f0e;stroke-linecap:square;stroke-width:1.5;"/>
   </g>
   <g id="line2d_67">
    <path clip-path="url(#p220f29fd59)" d="M 226.589687 155.374125 
L 229.030008 155.374125 
L 231.410808 155.728941 
L 233.851127 156.083757 
L 236.231927 156.438573 
L 238.434168 156.793389 
L 240.814967 156.793389 
L 243.017207 156.793389 
L 245.159927 156.793389 
L 247.600247 156.793389 
L 249.802487 156.793389 
L 252.183288 156.793389 
L 254.802167 156.438573 
L 257.421047 155.728941 
L 260.039927 155.374125 
L 262.658807 155.019309 
L 265.277688 154.309677 
L 267.718007 154.309677 
L 270.098808 154.309677 
L 272.539128 154.664493 
" style="fill:none;stroke:#2ca02c;stroke-linecap:square;stroke-width:1.5;"/>
   </g>
   <g id="line2d_68">
    <path clip-path="url(#p220f29fd59)" d="M 226.589687 155.374125 
L 228.970487 155.374125 
L 231.410808 155.728941 
L 233.553528 156.083757 
L 235.993847 156.083757 
L 238.374648 156.438573 
L 240.874487 156.615981 
L 243.552887 156.793389 
L 246.052728 156.970797 
L 248.731127 157.148205 
L 251.290487 157.325613 
L 253.552247 157.148205 
L 255.754487 157.148205 
L 257.956727 157.148205 
L 259.920887 157.148205 
L 262.301688 156.793389 
L 264.503927 156.793389 
L 266.884727 156.438573 
L 269.325047 156.438573 
L 271.943927 156.083757 
" style="fill:none;stroke:#d62728;stroke-linecap:square;stroke-width:1.5;"/>
   </g>
   <g id="line2d_69">
    <path clip-path="url(#p220f29fd59)" d="M 226.589687 155.374125 
L 223.970808 154.664493 
L 220.102007 155.196717 
L 216.947448 155.551533 
L 215.042808 155.374125 
L 213.019127 155.374125 
L 210.578807 155.374125 
L 208.436087 155.728941 
L 205.757688 155.728941 
L 203.138807 155.728941 
L 200.341367 155.728941 
L 197.246328 156.438573 
L 194.627447 156.438573 
L 192.127608 156.083757 
L 189.508727 155.728941 
L 187.306488 155.374125 
L 184.687608 155.728941 
L 181.949687 155.728941 
L 179.211768 155.728941 
L 176.592887 155.728941 
" style="fill:none;stroke:#9467bd;stroke-linecap:square;stroke-width:1.5;"/>
   </g>
   <g id="line2d_70">
    <path clip-path="url(#p220f29fd59)" d="M 226.589687 155.374125 
L 224.625528 155.374125 
L 222.423287 155.374125 
L 220.221047 155.374125 
L 218.256888 155.374125 
L 216.292728 155.374125 
L 213.911927 155.551533 
L 211.471608 155.950701 
L 208.852727 156.128109 
L 205.995767 156.128109 
L 203.734007 156.482925 
L 202.067447 156.482925 
L 199.924727 156.482925 
L 196.829688 156.482925 
L 193.794168 156.482925 
L 190.937207 156.482925 
L 188.675447 156.482925 
L 186.235128 156.482925 
L 183.437687 156.482925 
L 180.342647 156.482925 
" style="fill:none;stroke:#8c564b;stroke-linecap:square;stroke-width:1.5;"/>
   </g>
   <g id="line2d_71">
    <path clip-path="url(#p220f29fd59)" d="M 226.589687 155.374125 
L 224.446967 154.974957 
L 222.661367 154.620141 
L 220.756728 155.374125 
L 218.316407 155.551533 
L 215.995127 155.551533 
L 213.733367 155.728941 
L 211.471608 155.728941 
L 209.150328 155.728941 
L 206.829048 155.507181 
L 204.448248 155.507181 
L 202.007927 155.507181 
L 199.627128 155.507181 
L 197.424888 155.507181 
L 195.044087 155.507181 
L 192.603768 155.507181 
L 190.461048 155.507181 
L 188.258807 155.507181 
L 186.056567 155.507181 
L 183.556727 155.507181 
" style="fill:none;stroke:#e377c2;stroke-linecap:square;stroke-width:1.5;"/>
   </g>
   <g id="line2d_72">
    <path clip-path="url(#p220f29fd59)" d="M 226.589687 155.374125 
L 224.208888 155.374125 
L 221.828088 155.374125 
L 219.387767 155.374125 
L 216.947448 155.374125 
L 214.566647 155.374125 
L 212.185847 155.374125 
L 209.805048 155.374125 
L 207.364727 155.374125 
L 205.162487 155.374125 
L 202.781688 155.374125 
L 200.579447 155.374125 
L 198.198647 155.374125 
L 195.758328 155.019309 
L 193.139447 155.019309 
L 190.520567 155.019309 
L 187.901688 155.019309 
L 185.282807 155.374125 
L 182.663927 155.374125 
L 180.045048 155.374125 
" style="fill:none;stroke:#7f7f7f;stroke-linecap:square;stroke-width:1.5;"/>
   </g>
   <g id="line2d_73">
    <path clip-path="url(#p220f29fd59)" d="M 226.589687 155.374125 
L 223.970808 155.374125 
L 221.351927 155.374125 
L 218.733047 155.374125 
L 216.352248 155.374125 
L 213.911927 155.374125 
L 211.471608 155.374125 
L 209.328888 155.019309 
L 206.948087 155.019309 
L 204.507767 155.019309 
L 202.067447 154.664493 
L 199.686647 154.664493 
L 197.305847 154.664493 
L 194.686968 154.664493 
L 192.306168 154.664493 
L 189.865848 154.664493 
L 187.246967 155.019309 
L 184.628087 155.374125 
L 181.890167 155.196717 
L 179.271287 154.664493 
" style="fill:none;stroke:#bcbd22;stroke-linecap:square;stroke-width:1.5;"/>
   </g>
   <g id="line2d_74">
    <path clip-path="url(#p220f29fd59)" d="M 226.589687 155.374125 
L 223.970808 156.083757 
L 221.590007 157.148205 
L 218.971127 157.325613 
L 216.233207 157.148205 
L 213.554808 156.970797 
L 210.816888 156.793389 
L 208.198007 156.970797 
L 205.579127 157.325613 
L 203.198328 157.680429 
L 200.579447 158.035245 
L 197.960567 158.035245 
L 195.103608 158.035245 
L 192.484727 158.035245 
L 189.627768 158.035245 
L 187.008888 158.035245 
L 184.390007 157.680429 
L 182.009208 156.970797 
L 179.568888 156.261165 
L 176.950007 155.906349 
" style="fill:none;stroke:#17becf;stroke-linecap:square;stroke-width:1.5;"/>
   </g>
   <g id="line2d_75">
    <path clip-path="url(#p220f29fd59)" d="M 226.589687 155.374125 
L 238.731767 156.083757 
L 250.576247 155.551533 
L 262.361207 155.019309 
L 274.146167 154.309677 
L 285.990648 153.555693 
L 298.013688 152.846061 
L 309.977207 152.668653 
L 322.000248 152.668653 
L 333.963768 152.668653 
L 345.272567 152.668653 
L 354.379127 151.559853 
L 363.545207 150.495405 
L 366.759288 149.785773 
L 366.759288 149.785773 
L 366.759288 149.785773 
L 366.759288 149.785773 
L 366.759288 149.785773 
L 366.759288 149.785773 
L 366.759288 149.785773 
" style="fill:none;stroke:#1f77b4;stroke-linecap:square;stroke-width:1.5;"/>
   </g>
   <g id="line2d_76">
    <path clip-path="url(#p220f29fd59)" d="M 226.589687 155.374125 
L 233.136888 155.196717 
L 240.457847 154.487085 
L 247.897847 153.733101 
L 254.861687 154.487085 
L 261.885047 154.487085 
L 268.670327 154.487085 
L 275.217528 154.487085 
L 282.657528 154.841901 
L 289.621368 155.196717 
L 295.990007 155.196717 
L 302.537208 154.841901 
L 309.322487 154.087917 
L 316.762488 153.378285 
L 323.071607 153.378285 
L 329.202167 153.023469 
L 335.094648 153.023469 
L 342.296567 153.023469 
L 350.629368 152.668653 
L 356.759928 153.378285 
" style="fill:none;stroke:#ff7f0e;stroke-linecap:square;stroke-width:1.5;"/>
   </g>
   <g id="line2d_77">
    <path clip-path="url(#p220f29fd59)" d="M 226.589687 155.374125 
L 230.637047 153.245229 
L 238.791288 153.245229 
L 247.362167 153.600045 
L 255.814008 154.309677 
L 264.384887 154.309677 
L 272.896248 153.600045 
L 281.169528 153.245229 
L 289.978487 153.245229 
L 298.489847 153.245229 
L 307.001207 153.245229 
L 315.512567 153.245229 
L 323.785847 153.245229 
L 332.773368 153.600045 
L 341.522807 153.954861 
L 350.272247 153.954861 
L 358.545527 153.600045 
L 366.878327 153.600045 
L 375.211127 152.491245 
L 379.496567 153.245229 
" style="fill:none;stroke:#2ca02c;stroke-linecap:square;stroke-width:1.5;"/>
   </g>
   <g id="line2d_78">
    <path clip-path="url(#p220f29fd59)" d="M 226.589687 155.374125 
L 220.102007 155.374125 
L 212.126328 155.196717 
L 203.853048 155.196717 
L 195.520248 155.019309 
L 186.592247 154.309677 
L 177.783288 153.954861 
L 168.855288 153.156525 
L 159.927288 153.156525 
L 151.118328 152.801709 
L 141.952247 152.446893 
L 132.548088 152.446893 
L 123.143928 152.092077 
L 113.739767 151.737261 
L 104.335608 151.382445 
L 94.574328 151.027629 
L 84.694007 151.027629 
L 75.527928 151.737261 
L 72.611447 151.027629 
L 72.611447 151.027629 
" style="fill:none;stroke:#d62728;stroke-linecap:square;stroke-width:1.5;"/>
   </g>
   <g id="line2d_79">
    <path clip-path="url(#p220f29fd59)" d="M 226.589687 155.374125 
L 219.149687 155.019309 
L 211.709688 154.487085 
L 203.972087 154.309677 
L 196.174968 154.176621 
L 188.556408 153.999213 
L 180.818807 153.821805 
L 173.259768 153.644397 
L 165.581687 153.289581 
L 157.963127 152.890413 
L 150.344567 152.535597 
L 142.666488 152.180781 
L 135.226488 151.781613 
L 127.131768 151.781613 
L 119.275127 151.781613 
L 111.180408 151.781613 
L 103.323768 151.781613 
L 95.467128 151.781613 
L 91.836408 152.535597 
L 88.503287 153.289581 
" style="fill:none;stroke:#9467bd;stroke-linecap:square;stroke-width:1.5;"/>
   </g>
   <g id="line2d_80">
    <path clip-path="url(#p220f29fd59)" d="M 226.589687 155.374125 
L 223.970808 155.374125 
L 221.530487 155.374125 
L 219.149687 155.374125 
L 216.768888 155.374125 
L 214.328567 155.374125 
L 211.709688 155.551533 
L 209.328888 155.551533 
L 206.888567 155.551533 
L 204.507767 155.728941 
L 202.126968 155.728941 
L 199.508087 155.906349 
L 197.067768 155.906349 
L 194.686968 155.906349 
L 192.246647 155.906349 
L 189.865848 155.906349 
L 187.246967 156.083757 
L 184.866167 156.083757 
L 182.425848 156.261165 
L 179.985527 156.261165 
" style="fill:none;stroke:#8c564b;stroke-linecap:square;stroke-width:1.5;"/>
   </g>
   <g id="line2d_81">
    <path clip-path="url(#p220f29fd59)" d="M 226.589687 155.374125 
L 224.208888 155.374125 
L 221.828088 155.551533 
L 219.447287 155.551533 
L 217.006968 155.551533 
L 214.388087 155.551533 
L 211.947767 155.551533 
L 209.566968 155.551533 
L 206.948087 155.551533 
L 204.329207 155.374125 
L 201.710328 155.374125 
L 199.091447 155.374125 
L 196.472567 155.196717 
L 193.853688 155.196717 
L 191.234807 155.019309 
L 188.615927 154.841901 
L 185.997048 154.841901 
L 183.497208 154.664493 
L 180.878328 154.664493 
L 178.259447 154.664493 
" style="fill:none;stroke:#e377c2;stroke-linecap:square;stroke-width:1.5;"/>
   </g>
   <g id="line2d_82">
    <path clip-path="url(#p220f29fd59)" d="M 226.589687 155.374125 
L 223.911287 155.196717 
L 221.292407 155.196717 
L 218.673528 155.019309 
L 216.054647 155.019309 
L 213.376248 154.841901 
L 210.757367 154.841901 
L 208.138487 154.841901 
L 206.471927 154.841901 
L 204.924408 154.841901 
L 203.614968 154.841901 
L 202.305527 154.841901 
L 200.758007 154.841901 
L 199.448567 154.841901 
L 197.246328 154.841901 
L 193.318007 154.841901 
L 189.449207 154.841901 
L 185.758967 154.841901 
L 181.949687 154.841901 
L 178.021367 154.841901 
" style="fill:none;stroke:#7f7f7f;stroke-linecap:square;stroke-width:1.5;"/>
   </g>
   <g id="line2d_83">
    <path clip-path="url(#p220f29fd59)" d="M 226.589687 155.374125 
L 227.363448 155.374125 
L 229.089528 155.374125 
L 231.708407 155.374125 
L 234.327287 155.374125 
L 236.946168 156.083757 
L 239.803127 156.793389 
L 242.422008 156.793389 
L 245.040887 156.793389 
L 247.659767 156.793389 
L 250.100088 156.438573 
L 252.718967 155.906349 
L 255.337848 155.906349 
L 257.956727 156.261165 
L 260.575607 156.261165 
L 262.539767 155.906349 
L 264.742007 155.374125 
L 267.122808 155.374125 
L 269.503607 155.551533 
L 271.884408 155.551533 
" style="fill:none;stroke:#bcbd22;stroke-linecap:square;stroke-width:1.5;"/>
   </g>
   <g id="line2d_84">
    <path clip-path="url(#p220f29fd59)" d="M 226.589687 155.374125 
L 229.089528 155.374125 
L 231.410808 155.728941 
L 233.970168 155.728941 
L 236.231927 155.551533 
L 238.374648 155.551533 
L 240.814967 155.551533 
L 243.017207 155.551533 
L 245.159927 155.196717 
L 247.540728 155.196717 
L 249.802487 155.196717 
L 251.945207 155.196717 
L 254.564087 155.196717 
L 257.421047 155.196717 
L 260.278008 155.196717 
L 263.134968 155.196717 
L 265.991927 155.196717 
L 268.372727 155.551533 
L 270.515447 155.551533 
L 272.896248 155.551533 
" style="fill:none;stroke:#17becf;stroke-linecap:square;stroke-width:1.5;"/>
   </g>
   <g id="line2d_85">
    <path clip-path="url(#p220f29fd59)" d="M 226.589687 155.374125 
L 228.732407 155.374125 
L 230.934647 155.374125 
L 233.374967 155.374125 
L 235.517687 155.728941 
L 237.898487 155.728941 
L 240.160247 156.083757 
L 242.541047 156.083757 
L 244.683767 156.438573 
L 247.064568 156.438573 
L 249.564407 156.438573 
L 251.707127 156.083757 
L 254.087928 156.083757 
L 256.290167 155.728941 
L 258.730487 155.374125 
L 261.111288 155.374125 
L 262.896887 155.019309 
L 264.801528 155.019309 
L 266.706167 154.664493 
L 268.729848 154.309677 
" style="fill:none;stroke:#1f77b4;stroke-linecap:square;stroke-width:1.5;"/>
   </g>
   <g id="line2d_86">
    <path clip-path="url(#p220f29fd59)" d="M 226.589687 155.374125 
L 228.315767 155.374125 
L 230.279927 155.374125 
L 232.482168 155.019309 
L 235.339127 155.019309 
L 238.196088 155.019309 
L 240.814967 155.374125 
L 242.957687 155.551533 
L 245.338487 155.374125 
L 247.719288 155.196717 
L 250.219127 155.196717 
L 252.480887 155.019309 
L 254.861687 154.841901 
L 257.242487 154.664493 
L 259.920887 154.664493 
L 262.301688 154.664493 
L 264.980087 154.664493 
L 267.360887 154.664493 
L 269.979767 154.664493 
L 272.360568 154.664493 
" style="fill:none;stroke:#ff7f0e;stroke-linecap:square;stroke-width:1.5;"/>
   </g>
   <g id="line2d_87">
    <path clip-path="url(#p220f29fd59)" d="M 226.589687 155.374125 
L 228.970487 155.728941 
L 231.410808 155.728941 
L 233.613047 155.728941 
L 235.993847 156.083757 
L 238.196088 156.083757 
L 240.576887 156.083757 
L 242.779127 156.438573 
L 245.159927 156.438573 
L 247.362167 156.438573 
L 249.981047 156.438573 
L 252.421368 156.438573 
L 255.040247 156.438573 
L 257.421047 156.083757 
L 260.039927 156.083757 
L 262.420727 156.083757 
L 265.039607 155.728941 
L 267.479927 155.728941 
L 270.098808 155.728941 
L 272.301047 155.374125 
" style="fill:none;stroke:#2ca02c;stroke-linecap:square;stroke-width:1.5;"/>
   </g>
   <g id="line2d_88">
    <path clip-path="url(#p220f29fd59)" d="M 226.589687 155.374125 
L 221.292407 154.309677 
L 214.983287 153.733101 
L 208.198007 153.378285 
L 201.650807 153.733101 
L 195.103608 154.132269 
L 188.496888 154.487085 
L 182.187768 155.019309 
L 175.640568 155.551533 
L 169.271928 155.728941 
L 162.724728 156.261165 
L 156.177527 156.793389 
L 149.630328 156.793389 
L 143.083127 156.793389 
L 136.476407 156.793389 
L 129.929208 156.793389 
L 123.382008 156.793389 
L 116.834807 156.793389 
L 110.287608 156.793389 
L 103.740408 156.793389 
" style="fill:none;stroke:#d62728;stroke-linecap:square;stroke-width:1.5;"/>
   </g>
   <g id="line2d_89">
    <path clip-path="url(#p220f29fd59)" d="M 226.589687 155.374125 
L 229.089528 155.374125 
L 231.470327 155.374125 
L 233.851127 155.728941 
L 235.815288 156.482925 
L 237.541368 156.482925 
L 239.148407 156.837741 
L 241.410168 156.482925 
L 243.790967 156.083757 
L 246.647927 155.728941 
L 249.504887 155.728941 
L 252.302327 156.083757 
L 254.980728 156.482925 
L 256.885367 156.482925 
L 257.361527 156.482925 
L 259.266167 156.482925 
L 262.123128 156.482925 
L 264.980087 156.083757 
L 267.837047 156.083757 
L 270.455927 156.083757 
" style="fill:none;stroke:#9467bd;stroke-linecap:square;stroke-width:1.5;"/>
   </g>
   <g id="line2d_90">
    <path clip-path="url(#p220f29fd59)" d="M 226.589687 155.374125 
L 228.494327 155.773293 
L 230.279927 155.773293 
L 232.006008 155.773293 
L 233.494008 155.374125 
L 235.041528 155.374125 
L 237.065207 155.019309 
L 239.446008 155.019309 
L 241.826808 155.019309 
L 244.207607 155.019309 
L 246.588407 155.019309 
L 248.969207 155.019309 
L 251.111928 155.019309 
L 253.314167 155.019309 
L 255.516407 155.019309 
L 257.897207 155.019309 
L 260.516088 155.019309 
L 263.373047 155.019309 
L 266.230007 155.019309 
L 269.086968 155.019309 
" style="fill:none;stroke:#8c564b;stroke-linecap:square;stroke-width:1.5;"/>
   </g>
   <g id="line2d_91">
    <path clip-path="url(#p220f29fd59)" d="M 226.589687 155.374125 
L 227.899127 155.374125 
L 228.970487 155.374125 
L 230.756088 156.083757 
L 232.660728 156.482925 
L 234.208247 156.837741 
L 235.874808 156.837741 
L 238.434168 156.482925 
L 240.874487 156.305517 
L 243.552887 156.128109 
L 245.695607 156.128109 
L 247.838327 156.128109 
L 249.862008 156.128109 
L 252.004728 156.128109 
L 254.028407 156.128109 
L 255.933047 156.128109 
L 258.194808 156.128109 
L 260.337527 156.482925 
L 262.539767 156.482925 
L 264.742007 156.482925 
" style="fill:none;stroke:#e377c2;stroke-linecap:square;stroke-width:1.5;"/>
   </g>
   <g id="line2d_92">
    <path clip-path="url(#p220f29fd59)" d="M 226.589687 155.374125 
L 231.470327 155.551533 
L 238.255607 154.841901 
L 245.636088 154.664493 
L 253.968887 155.019309 
L 262.301688 155.374125 
L 270.396408 155.728941 
L 278.491128 156.083757 
L 286.347767 156.438573 
L 294.204408 156.793389 
L 302.061047 157.148205 
L 309.679607 157.503021 
L 317.536248 157.857837 
L 325.273847 158.212653 
L 333.130487 158.567469 
L 340.987127 158.567469 
L 348.843768 158.212653 
L 356.938487 157.857837 
L 365.271287 157.503021 
L 373.127927 157.148205 
" style="fill:none;stroke:#7f7f7f;stroke-linecap:square;stroke-width:1.5;"/>
   </g>
   <g id="line2d_93">
    <path clip-path="url(#p220f29fd59)" d="M 226.589687 155.374125 
L 226.768248 156.438573 
L 227.065847 157.148205 
L 227.303927 157.857837 
L 227.542007 158.744877 
L 227.780088 159.676269 
L 228.018168 160.563309 
L 228.256248 161.272941 
L 228.375287 162.204333 
L 228.613368 163.091373 
L 228.851448 163.801005 
L 230.398967 164.155821 
L 231.827448 164.333229 
L 233.374967 164.688045 
L 234.803448 164.865453 
L 236.231927 165.042861 
L 237.779448 165.397677 
L 239.207927 165.575085 
L 240.755448 165.929901 
L 242.302967 166.107309 
" style="fill:none;stroke:#bcbd22;stroke-linecap:square;stroke-width:1.5;"/>
   </g>
   <g id="line2d_94">
    <path clip-path="url(#p220f29fd59)" d="M 226.589687 155.374125 
L 228.315767 155.019309 
L 230.279927 154.664493 
L 232.244088 153.910509 
L 234.029687 153.555693 
L 235.934327 153.200877 
L 237.958008 152.491245 
L 240.100728 152.491245 
L 242.302967 152.491245 
L 244.505207 152.136429 
L 246.647927 152.136429 
L 248.909687 152.136429 
L 251.290487 151.959021 
L 254.445047 152.313837 
L 257.480568 152.668653 
L 260.694647 153.067821 
L 263.908727 153.600045 
L 267.837047 153.600045 
L 271.765368 153.600045 
L 275.753207 153.600045 
" style="fill:none;stroke:#17becf;stroke-linecap:square;stroke-width:1.5;"/>
   </g>
   <g id="line2d_95">
    <path clip-path="url(#p220f29fd59)" d="M 226.589687 155.374125 
L 230.518008 155.374125 
L 234.446327 155.374125 
L 237.660407 155.374125 
L 240.279288 155.374125 
L 242.898167 155.196717 
L 245.517047 155.196717 
L 247.957368 155.196717 
L 250.159607 155.196717 
L 252.302327 155.551533 
L 254.683127 155.551533 
L 256.944887 155.906349 
L 259.087607 156.261165 
L 261.706487 156.261165 
L 264.087288 156.615981 
L 266.587128 156.615981 
L 269.206007 156.970797 
L 271.586807 156.970797 
L 273.967607 156.970797 
L 276.348408 156.970797 
" style="fill:none;stroke:#1f77b4;stroke-linecap:square;stroke-width:1.5;"/>
   </g>
   <g id="line2d_96">
    <path clip-path="url(#p220f29fd59)" d="M 226.589687 155.374125 
L 228.970487 155.374125 
L 231.470327 155.374125 
L 233.851127 155.374125 
L 236.470008 155.374125 
L 238.850808 155.374125 
L 241.231607 155.374125 
L 243.612407 155.374125 
L 246.112247 155.374125 
L 248.493047 155.728941 
L 251.111928 155.728941 
L 253.492728 156.083757 
L 255.873527 156.438573 
L 258.254327 156.438573 
L 260.397047 156.615981 
L 262.361207 156.615981 
L 264.503927 156.615981 
L 266.527607 156.615981 
L 268.491767 156.615981 
L 270.515447 156.615981 
" style="fill:none;stroke:#ff7f0e;stroke-linecap:square;stroke-width:1.5;"/>
   </g>
   <g id="line2d_97">
    <path clip-path="url(#p220f29fd59)" d="M 226.589687 155.374125 
L 225.518327 155.728941 
L 224.446967 155.728941 
L 223.435127 155.728941 
L 222.482808 155.728941 
L 221.470968 155.906349 
L 220.399608 155.906349 
L 219.506808 155.906349 
L 218.435448 155.906349 
L 217.304567 155.906349 
L 216.233207 155.906349 
L 215.161847 155.906349 
L 214.269047 155.906349 
L 213.197688 155.906349 
L 212.066808 155.906349 
L 210.995448 155.906349 
L 209.864567 155.906349 
L 208.793207 155.906349 
L 207.721847 155.906349 
L 206.590968 155.906349 
" style="fill:none;stroke:#2ca02c;stroke-linecap:square;stroke-width:1.5;"/>
   </g>
   <g id="line2d_98">
    <path clip-path="url(#p220f29fd59)" d="M 226.589687 155.374125 
L 225.458808 155.019309 
L 225.042168 155.019309 
L 224.625528 155.019309 
L 224.149367 155.019309 
L 223.732728 155.019309 
L 223.316088 155.019309 
L 222.839927 155.019309 
L 222.423287 155.019309 
L 222.006647 155.019309 
L 221.530487 155.019309 
L 221.113847 155.019309 
L 220.697207 155.019309 
L 220.221047 155.019309 
L 219.387767 155.019309 
L 218.078328 155.019309 
L 216.768888 155.019309 
L 215.399927 155.019309 
L 214.090487 154.664493 
L 212.781047 154.664493 
" style="fill:none;stroke:#d62728;stroke-linecap:square;stroke-width:1.5;"/>
   </g>
   <g id="line2d_99">
    <path clip-path="url(#p220f29fd59)" d="M 226.589687 155.374125 
L 225.280248 155.374125 
L 223.851767 155.019309 
L 222.542327 155.019309 
L 221.113847 155.019309 
L 219.804407 155.019309 
L 218.375927 155.019309 
L 217.185528 155.019309 
L 215.816567 155.019309 
L 214.507127 155.019309 
L 213.078647 155.019309 
L 211.769207 155.019309 
L 210.459767 155.019309 
L 209.031287 155.019309 
L 207.662328 155.019309 
L 206.352888 155.019309 
L 204.924408 155.019309 
L 199.567608 154.841901 
L 192.068087 154.487085 
L 191.591927 154.487085 
" style="fill:none;stroke:#9467bd;stroke-linecap:square;stroke-width:1.5;"/>
   </g>
   <g id="line2d_100">
    <path clip-path="url(#p220f29fd59)" d="M 226.589687 155.374125 
L 226.827767 155.728941 
L 226.827767 156.083757 
L 227.065847 156.438573 
L 227.065847 156.793389 
L 227.303927 156.793389 
L 227.303927 157.148205 
L 226.232567 157.148205 
L 224.685047 157.148205 
L 223.137528 157.148205 
L 221.828088 157.148205 
L 220.280567 157.148205 
L 218.733047 157.148205 
L 217.185528 157.148205 
L 215.876087 157.148205 
L 214.447608 157.148205 
L 212.900087 157.148205 
L 211.352567 157.148205 
L 210.043127 157.148205 
L 208.495608 157.148205 
" style="fill:none;stroke:#8c564b;stroke-linecap:square;stroke-width:1.5;"/>
   </g>
   <g id="line2d_101">
    <path clip-path="url(#p220f29fd59)" d="M 226.589687 155.374125 
L 225.280248 155.728941 
L 223.732728 155.728941 
L 222.661367 156.083757 
L 221.709047 156.083757 
L 220.578168 156.083757 
L 219.625847 156.083757 
L 218.614007 156.083757 
L 217.661687 156.083757 
L 216.530808 155.374125 
L 215.697528 154.664493 
L 214.566647 154.309677 
L 213.733367 153.600045 
L 212.423927 152.890413 
L 211.114487 152.890413 
L 209.745528 152.890413 
L 208.257528 152.890413 
L 206.948087 152.890413 
L 205.638647 152.890413 
L 204.091127 152.890413 
" style="fill:none;stroke:#e377c2;stroke-linecap:square;stroke-width:1.5;"/>
   </g>
   <g id="line2d_102">
    <path clip-path="url(#p220f29fd59)" d="M 226.589687 155.374125 
L 225.399287 155.374125 
L 224.268407 155.374125 
L 223.078007 155.374125 
L 222.006647 155.374125 
L 220.816248 155.374125 
L 219.744888 155.019309 
L 218.614007 155.019309 
L 217.721207 155.019309 
L 216.887927 154.664493 
L 215.995127 154.664493 
L 215.102328 154.309677 
L 214.269047 154.309677 
L 213.316727 154.309677 
L 212.483448 154.664493 
L 211.293048 155.019309 
L 210.221688 155.196717 
L 209.150328 155.374125 
L 208.019448 155.551533 
L 206.888567 155.728941 
" style="fill:none;stroke:#7f7f7f;stroke-linecap:square;stroke-width:1.5;"/>
   </g>
   <g id="line2d_103">
    <path clip-path="url(#p220f29fd59)" d="M 226.589687 155.374125 
L 225.637368 155.374125 
L 224.387448 155.551533 
L 223.554168 155.551533 
L 222.661367 155.551533 
L 221.530487 155.551533 
L 220.697207 155.196717 
L 219.863927 155.196717 
L 218.911608 155.196717 
L 218.078328 154.841901 
L 217.245047 154.841901 
L 216.114168 154.841901 
L 215.221367 154.487085 
L 214.388087 154.487085 
L 213.495287 154.487085 
L 212.602487 154.087917 
L 212.185847 154.087917 
L 211.531127 154.087917 
L 211.054968 154.087917 
L 210.638328 154.087917 
" style="fill:none;stroke:#bcbd22;stroke-linecap:square;stroke-width:1.5;"/>
   </g>
   <g id="line2d_104">
    <path clip-path="url(#p220f29fd59)" d="M 226.589687 155.374125 
L 226.173047 155.374125 
L 225.518327 155.374125 
L 225.042168 155.374125 
L 224.625528 155.374125 
L 223.970808 155.374125 
L 223.494647 155.374125 
L 222.899448 155.374125 
L 222.006647 155.374125 
L 220.697207 155.374125 
L 219.566327 155.374125 
L 218.256888 155.374125 
L 217.185528 155.019309 
L 215.876087 155.019309 
L 214.804727 155.019309 
L 213.495287 155.019309 
L 212.423927 154.664493 
L 211.114487 154.664493 
L 209.864567 154.664493 
L 208.674168 154.664493 
" style="fill:none;stroke:#17becf;stroke-linecap:square;stroke-width:1.5;"/>
   </g>
   <g id="line2d_105">
    <path clip-path="url(#p220f29fd59)" d="M 226.589687 155.374125 
L 225.399287 155.374125 
L 224.089847 155.374125 
L 222.958967 155.019309 
L 221.768567 155.019309 
L 220.459127 155.019309 
L 219.209207 155.019309 
L 218.018808 155.019309 
L 216.828407 155.019309 
L 215.638007 155.019309 
L 214.328567 155.019309 
L 208.436087 154.309677 
L 199.924727 153.200877 
L 199.210487 153.200877 
L 199.448567 153.555693 
L 199.686647 153.555693 
L 199.924727 153.954861 
L 200.162807 154.309677 
L 200.400888 154.309677 
L 200.519927 154.664493 
" style="fill:none;stroke:#1f77b4;stroke-linecap:square;stroke-width:1.5;"/>
   </g>
   <g id="line2d_106">
    <path clip-path="url(#p220f29fd59)" d="M 226.589687 155.374125 
L 225.518327 155.728941 
L 223.970808 155.728941 
L 222.661367 155.728941 
L 221.113847 156.083757 
L 219.625847 156.083757 
L 218.137847 156.438573 
L 216.828407 156.438573 
L 215.280888 156.438573 
L 213.733367 156.793389 
L 212.423927 156.793389 
L 210.876407 156.793389 
L 209.328888 157.192557 
L 208.019448 157.192557 
L 206.471927 157.192557 
L 204.924408 157.547373 
L 203.495927 157.547373 
L 202.186487 157.547373 
L 200.936567 157.192557 
L 199.984248 156.305517 
" style="fill:none;stroke:#ff7f0e;stroke-linecap:square;stroke-width:1.5;"/>
   </g>
   <g id="line2d_107">
    <path clip-path="url(#p220f29fd59)" d="M 226.589687 155.374125 
L 225.994487 155.728941 
L 225.280248 155.728941 
L 224.863608 156.083757 
L 224.208888 156.083757 
L 223.792248 156.438573 
L 223.137528 156.438573 
L 222.661367 156.793389 
L 222.066168 156.793389 
L 221.351927 157.148205 
L 220.637687 157.325613 
L 219.804407 157.325613 
L 218.971127 157.503021 
L 218.197367 157.503021 
L 217.423608 157.680429 
L 216.649847 157.857837 
L 215.935608 157.857837 
L 215.102328 158.035245 
L 214.388087 158.257005 
L 213.614328 158.257005 
" style="fill:none;stroke:#2ca02c;stroke-linecap:square;stroke-width:1.5;"/>
   </g>
   <g id="line2d_108">
    <path clip-path="url(#p220f29fd59)" d="M 226.589687 155.374125 
L 225.756407 155.551533 
L 225.042168 155.551533 
L 224.149367 155.728941 
L 223.375608 155.728941 
L 222.601847 155.906349 
L 221.649528 155.906349 
L 220.340088 155.906349 
L 219.030647 155.551533 
L 217.721207 155.551533 
L 216.411767 155.196717 
L 215.102328 154.841901 
L 213.792888 154.841901 
L 212.483448 154.487085 
L 211.174007 154.487085 
L 209.864567 154.087917 
L 208.555127 154.087917 
L 207.186168 154.087917 
L 205.876727 154.087917 
L 204.567287 154.087917 
" style="fill:none;stroke:#d62728;stroke-linecap:square;stroke-width:1.5;"/>
   </g>
   <g id="line2d_109">
    <path clip-path="url(#p220f29fd59)" d="M 226.589687 155.374125 
L 225.280248 155.374125 
L 223.970808 155.374125 
L 222.661367 155.374125 
L 221.351927 155.374125 
L 220.042487 155.374125 
L 218.733047 155.374125 
L 217.423608 155.374125 
L 216.114168 155.374125 
L 214.804727 155.374125 
L 213.614328 155.374125 
L 212.602487 155.374125 
L 211.769207 155.196717 
L 210.876407 155.196717 
L 209.983608 155.019309 
L 209.150328 154.664493 
L 208.198007 154.664493 
L 207.364727 154.487085 
L 206.412408 154.309677 
L 205.341048 154.309677 
" style="fill:none;stroke:#9467bd;stroke-linecap:square;stroke-width:1.5;"/>
   </g>
   <g id="line2d_110">
    <path clip-path="url(#p220f29fd59)" d="M 226.589687 155.374125 
L 225.518327 155.374125 
L 224.446967 155.374125 
L 223.375608 155.374125 
L 222.304248 155.374125 
L 221.828088 155.728941 
L 221.351927 155.728941 
L 220.994808 155.728941 
L 220.756728 155.728941 
L 220.280567 155.728941 
L 219.923448 155.728941 
L 219.447287 155.728941 
L 218.971127 155.728941 
L 218.554487 155.728941 
L 217.899767 155.728941 
L 217.245047 155.728941 
L 216.471287 155.551533 
L 215.876087 155.374125 
L 215.042808 155.374125 
L 214.447608 155.196717 
" style="fill:none;stroke:#8c564b;stroke-linecap:square;stroke-width:1.5;"/>
   </g>
   <g id="line2d_111">
    <path clip-path="url(#p220f29fd59)" d="M 226.589687 155.374125 
L 225.994487 155.196717 
L 225.161207 155.196717 
L 224.566007 155.196717 
L 223.851767 154.841901 
L 223.256567 154.841901 
L 222.542327 154.841901 
L 221.709047 154.841901 
L 220.399608 154.841901 
L 219.090168 155.196717 
L 217.780728 155.196717 
L 216.471287 155.551533 
L 215.161847 155.551533 
L 213.495287 155.551533 
L 211.947767 155.551533 
L 210.221688 155.551533 
L 208.555127 155.551533 
L 206.888567 155.551533 
L 205.281528 155.551533 
L 203.734007 155.551533 
" style="fill:none;stroke:#e377c2;stroke-linecap:square;stroke-width:1.5;"/>
   </g>
   <g id="line2d_112">
    <path clip-path="url(#p220f29fd59)" d="M 226.589687 155.374125 
L 224.982647 155.374125 
L 223.316088 155.374125 
L 221.649528 155.374125 
L 219.923448 155.374125 
L 218.375927 155.374125 
L 216.709367 155.374125 
L 211.174007 154.664493 
L 203.555448 153.954861 
L 203.734007 154.309677 
L 204.388727 155.019309 
L 205.281528 155.374125 
L 206.174328 156.083757 
L 206.769528 156.438573 
L 207.721847 157.148205 
L 208.555127 157.547373 
L 206.174328 156.793389 
L 204.626807 156.438573 
L 203.079287 156.438573 
L 201.769847 156.438573 
" style="fill:none;stroke:#7f7f7f;stroke-linecap:square;stroke-width:1.5;"/>
   </g>
   <g id="line2d_113">
    <path clip-path="url(#p220f29fd59)" d="M 226.589687 155.374125 
L 225.280248 155.374125 
L 223.792248 155.374125 
L 222.423287 155.374125 
L 220.935287 155.374125 
L 219.387767 155.374125 
L 218.078328 155.374125 
L 216.590328 155.374125 
L 215.280888 155.374125 
L 213.733367 155.374125 
L 212.185847 155.374125 
L 210.876407 155.374125 
L 209.328888 155.374125 
L 208.019448 155.374125 
L 206.412408 155.374125 
L 204.745847 154.841901 
L 203.019768 154.664493 
L 201.829367 154.664493 
L 201.353207 154.664493 
L 201.055608 154.664493 
" style="fill:none;stroke:#bcbd22;stroke-linecap:square;stroke-width:1.5;"/>
   </g>
   <g id="line2d_114">
    <path clip-path="url(#p220f29fd59)" d="M 226.589687 155.374125 
L 224.625528 155.019309 
L 222.661367 155.019309 
L 220.280567 155.019309 
L 217.423608 155.374125 
L 214.804727 155.374125 
L 211.293048 155.551533 
L 208.138487 155.551533 
L 204.924408 155.374125 
L 201.948408 155.196717 
L 198.615287 155.019309 
L 195.460727 155.019309 
L 192.425207 155.019309 
L 189.211128 154.841901 
L 186.175608 154.664493 
L 183.021048 154.664493 
L 179.866488 154.487085 
L 176.533367 154.664493 
L 172.843128 154.664493 
L 168.914807 155.019309 
" style="fill:none;stroke:#17becf;stroke-linecap:square;stroke-width:1.5;"/>
   </g>
   <g id="line2d_115">
    <path clip-path="url(#p220f29fd59)" d="M 226.589687 155.374125 
L 221.828088 154.664493 
L 216.828407 153.954861 
L 214.804727 153.954861 
L 213.257207 154.309677 
L 211.531127 154.309677 
L 209.805048 154.664493 
L 208.257528 154.664493 
L 206.531448 155.019309 
L 204.805367 155.019309 
L 202.186487 155.019309 
L 198.853367 155.019309 
L 195.817847 155.019309 
L 192.544247 155.019309 
L 189.449207 155.019309 
L 186.175608 155.019309 
L 183.140087 155.019309 
L 179.866488 155.019309 
L 176.830967 155.019309 
L 173.497848 155.019309 
" style="fill:none;stroke:#1f77b4;stroke-linecap:square;stroke-width:1.5;"/>
   </g>
   <g id="line2d_116">
    <path clip-path="url(#p220f29fd59)" d="M 226.589687 155.374125 
L 219.625847 154.841901 
L 212.364407 154.442733 
L 205.222007 154.043565 
L 197.960567 153.688749 
L 190.580087 153.688749 
L 183.080568 153.688749 
L 175.938167 153.688749 
L 168.200568 153.688749 
L 160.820087 153.688749 
L 153.201527 154.043565 
L 145.523448 154.043565 
L 138.083448 154.043565 
L 130.643448 154.043565 
L 123.203447 154.043565 
L 115.822968 154.442733 
L 108.323448 154.841901 
L 100.704887 154.841901 
L 93.264888 155.196717 
L 85.586807 155.196717 
" style="fill:none;stroke:#ff7f0e;stroke-linecap:square;stroke-width:1.5;"/>
   </g>
   <g id="line2d_117">
    <path clip-path="url(#p220f29fd59)" d="M 226.589687 155.374125 
L 223.851767 153.555693 
L 220.994808 153.910509 
L 218.137847 154.265325 
L 215.518968 154.664493 
L 212.900087 154.664493 
L 210.400248 154.664493 
L 208.019448 154.664493 
L 205.400567 154.664493 
L 203.019768 154.664493 
L 200.579447 154.664493 
L 197.960567 154.664493 
L 195.520248 154.664493 
L 192.901367 154.265325 
L 190.282488 153.910509 
L 187.246967 153.910509 
L 183.973367 153.910509 
L 180.878328 153.200877 
L 178.259447 152.491245 
L 176.950007 152.491245 
" style="fill:none;stroke:#2ca02c;stroke-linecap:square;stroke-width:1.5;"/>
   </g>
   <g id="line2d_118">
    <path clip-path="url(#p220f29fd59)" d="M 226.589687 155.374125 
L 224.625528 155.374125 
L 222.423287 155.728941 
L 220.280567 155.728941 
L 218.018808 156.083757 
L 216.114168 156.083757 
L 213.911927 156.083757 
L 211.947767 156.083757 
L 209.983608 155.728941 
L 208.019448 155.374125 
L 205.995767 155.019309 
L 204.091127 155.019309 
L 201.888888 155.019309 
L 199.924727 155.019309 
L 197.782007 155.019309 
L 195.163128 154.664493 
L 192.663287 154.265325 
L 190.282488 154.265325 
L 187.663608 153.910509 
L 185.758967 153.511341 
" style="fill:none;stroke:#d62728;stroke-linecap:square;stroke-width:1.5;"/>
   </g>
   <g id="line2d_119">
    <path clip-path="url(#p220f29fd59)" d="M 226.589687 155.374125 
L 224.685047 155.374125 
L 222.423287 155.019309 
L 220.280567 155.019309 
L 218.078328 155.019309 
L 216.114168 155.019309 
L 214.328567 155.019309 
L 212.662007 155.019309 
L 210.638328 155.019309 
L 208.257528 155.019309 
L 205.876727 155.019309 
L 203.614968 155.019309 
L 201.591287 156.083757 
L 199.270007 156.305517 
L 196.889207 156.482925 
L 194.925048 155.773293 
L 193.079927 155.063661 
L 190.996727 154.708845 
L 188.556408 155.063661 
L 186.413688 155.773293 
" style="fill:none;stroke:#9467bd;stroke-linecap:square;stroke-width:1.5;"/>
   </g>
   <g id="line2d_120">
    <path clip-path="url(#p220f29fd59)" d="M 226.589687 155.374125 
L 224.208888 155.374125 
L 222.006647 155.374125 
L 219.625847 155.728941 
L 217.840248 156.083757 
L 215.876087 156.083757 
L 214.150007 156.438573 
L 212.185847 156.793389 
L 210.459767 157.148205 
L 208.257528 157.503021 
L 205.638647 157.857837 
L 202.960248 157.857837 
L 200.817527 157.503021 
L 198.853367 157.148205 
L 196.651128 156.438573 
L 194.508408 156.083757 
L 192.306168 155.374125 
L 189.865848 154.664493 
L 187.901688 154.664493 
L 185.937527 154.664493 
" style="fill:none;stroke:#8c564b;stroke-linecap:square;stroke-width:1.5;"/>
   </g>
   <g id="line2d_121">
    <path clip-path="url(#p220f29fd59)" d="M 226.589687 155.374125 
L 220.518647 155.374125 
L 214.388087 155.374125 
L 207.662328 155.374125 
L 200.877048 155.374125 
L 193.377527 155.374125 
L 185.878007 155.728941 
L 177.783288 155.906349 
L 169.748087 155.329773 
L 161.831928 153.910509 
L 153.915768 152.491245 
L 147.130488 152.846061 
L 140.404728 153.200877 
L 132.488567 154.620141 
L 124.631928 156.438573 
L 116.775288 156.793389 
L 108.918648 156.793389 
L 101.716728 158.257005 
L 94.514808 158.611821 
L 86.182007 157.503021 
" style="fill:none;stroke:#e377c2;stroke-linecap:square;stroke-width:1.5;"/>
   </g>
   <g id="line2d_122">
    <path clip-path="url(#p220f29fd59)" d="M 226.589687 155.374125 
L 230.875127 154.309677 
L 235.874808 155.019309 
L 241.231607 155.728941 
L 245.993207 155.374125 
L 250.159607 154.309677 
L 251.707127 155.019309 
L 256.230647 155.906349 
L 261.468408 155.906349 
L 266.587128 156.793389 
L 271.467767 158.257005 
L 278.014968 158.611821 
L 285.216887 159.010989 
L 289.323767 159.365805 
L 294.799607 159.365805 
L 301.822968 159.365805 
L 308.132088 159.010989 
L 313.191287 159.010989 
L 318.250487 159.010989 
L 323.607287 159.365805 
" style="fill:none;stroke:#7f7f7f;stroke-linecap:square;stroke-width:1.5;"/>
   </g>
   <g id="line2d_123">
    <path clip-path="url(#p220f29fd59)" d="M 226.589687 155.374125 
L 228.137207 156.083757 
L 229.684728 156.793389 
L 231.232247 157.503021 
L 232.720247 158.212653 
L 234.922487 158.567469 
L 236.827127 158.922285 
L 238.850808 159.277101 
L 240.398327 159.986733 
L 241.469687 161.450349 
L 242.541047 162.559149 
L 243.850487 163.978413 
L 245.398008 165.042861 
L 246.707448 166.107309 
L 248.254967 167.171757 
L 249.802487 168.280557 
L 251.290487 169.389357 
L 252.659447 170.453805 
L 254.087928 171.518253 
L 255.397368 172.937517 
" style="fill:none;stroke:#bcbd22;stroke-linecap:square;stroke-width:1.5;"/>
   </g>
   <g id="line2d_124">
    <path clip-path="url(#p220f29fd59)" d="M 226.589687 155.374125 
L 228.613368 156.083757 
L 230.279927 156.837741 
L 232.303607 157.591725 
L 234.208247 158.301357 
L 235.755767 159.010989 
L 237.065207 159.720621 
L 238.374648 160.785069 
L 239.446008 161.494701 
L 240.755448 162.559149 
L 242.124407 163.268781 
L 243.850487 164.067117 
L 245.636088 165.131565 
L 246.945527 165.841197 
L 248.493047 166.196013 
L 249.802487 166.550829 
L 251.588088 167.260461 
L 253.671288 167.792685 
L 255.694967 168.502317 
L 257.778167 169.211949 
" style="fill:none;stroke:#17becf;stroke-linecap:square;stroke-width:1.5;"/>
   </g>
   <g id="line2d_125">
    <path clip-path="url(#p220f29fd59)" d="M 226.589687 155.374125 
L 228.375287 155.374125 
L 230.160888 155.374125 
L 231.767927 155.374125 
L 233.732088 155.728941 
L 235.696247 155.728941 
L 237.898487 155.728941 
L 239.862648 155.728941 
L 241.826808 155.728941 
L 243.790967 155.374125 
L 245.755127 156.083757 
L 247.957368 156.438573 
L 249.921527 157.192557 
L 251.588088 157.192557 
L 253.076087 156.793389 
L 254.683127 156.438573 
L 256.230647 156.083757 
L 258.016248 156.083757 
L 260.397047 156.083757 
L 262.956408 156.438573 
" style="fill:none;stroke:#1f77b4;stroke-linecap:square;stroke-width:1.5;"/>
   </g>
   <g id="line2d_126">
    <path clip-path="url(#p220f29fd59)" d="M 226.589687 155.374125 
L 229.149047 155.374125 
L 230.696567 155.374125 
L 232.244088 155.374125 
L 233.791607 155.374125 
L 235.339127 155.374125 
L 237.065207 155.773293 
L 238.791288 155.773293 
L 240.576887 155.773293 
L 242.302967 155.773293 
L 244.029047 155.773293 
L 245.695607 155.374125 
L 247.243127 155.019309 
L 248.790648 154.664493 
L 250.933368 154.309677 
L 253.076087 153.954861 
L 255.278327 153.954861 
L 257.599607 154.132269 
L 259.920887 154.487085 
L 262.063607 154.487085 
" style="fill:none;stroke:#ff7f0e;stroke-linecap:square;stroke-width:1.5;"/>
   </g>
   <g id="line2d_127">
    <path clip-path="url(#p220f29fd59)" d="M 226.589687 155.374125 
L 221.470968 155.374125 
L 215.816567 156.261165 
L 209.805048 156.793389 
L 202.781688 156.793389 
L 197.127287 157.148205 
L 191.889527 157.857837 
L 186.294647 157.857837 
L 180.640247 157.503021 
L 174.271608 158.212653 
L 167.724407 158.922285 
L 161.653368 159.099693 
L 155.284728 159.277101 
L 148.916088 158.922285 
L 142.368887 158.567469 
L 137.607287 158.922285 
L 132.726648 159.631917 
L 126.893687 160.031085 
L 119.632248 160.031085 
L 112.846968 160.031085 
" style="fill:none;stroke:#2ca02c;stroke-linecap:square;stroke-width:1.5;"/>
   </g>
   <g id="line2d_128">
    <path clip-path="url(#p220f29fd59)" d="M 226.589687 155.374125 
L 233.553528 155.374125 
L 240.576887 155.728941 
L 247.838327 156.083757 
L 254.742648 156.083757 
L 261.766008 156.438573 
L 268.551288 156.438573 
L 274.681848 156.083757 
L 281.050487 155.374125 
L 287.121528 154.974957 
L 293.252088 154.620141 
L 299.858808 154.620141 
L 306.167928 154.620141 
L 312.715127 154.974957 
L 319.024248 154.974957 
L 325.392887 155.374125 
L 331.285368 155.728941 
L 337.237368 156.438573 
L 341.760887 156.438573 
L 345.927287 155.728941 
" style="fill:none;stroke:#d62728;stroke-linecap:square;stroke-width:1.5;"/>
   </g>
   <g id="line2d_129">
    <path clip-path="url(#p220f29fd59)" d="M 226.589687 155.374125 
L 227.720567 155.196717 
L 228.851448 154.841901 
L 230.756088 154.132269 
L 232.898808 154.132269 
L 235.339127 154.132269 
L 237.719927 154.132269 
L 240.160247 154.487085 
L 242.541047 154.487085 
L 245.159927 154.487085 
L 247.540728 154.841901 
L 250.159607 154.841901 
L 252.778487 154.841901 
L 255.456887 154.841901 
L 257.599607 155.196717 
L 259.801848 155.196717 
L 261.825528 155.728941 
L 263.730167 156.083757 
L 265.813367 156.615981 
L 267.896568 156.970797 
" style="fill:none;stroke:#9467bd;stroke-linecap:square;stroke-width:1.5;"/>
   </g>
   <g id="line2d_130">
    <path clip-path="url(#p220f29fd59)" d="M 226.589687 155.374125 
L 228.672888 155.728941 
L 230.518008 156.615981 
L 232.244088 158.079597 
L 233.791607 159.853677 
L 235.577207 161.317293 
L 237.124728 162.736557 
L 238.196088 164.200173 
L 239.267448 165.619437 
L 240.338808 167.038701 
L 241.410168 168.502317 
L 242.719607 169.921581 
L 244.029047 171.740013 
L 245.576568 173.159277 
L 247.124088 174.977709 
L 248.433527 176.396973 
L 249.981047 178.215405 
L 251.528568 179.634669 
L 253.254648 181.098285 
L 254.980728 182.517549 
" style="fill:none;stroke:#8c564b;stroke-linecap:square;stroke-width:1.5;"/>
   </g>
   <g id="line2d_131">
    <path clip-path="url(#p220f29fd59)" d="M 226.589687 155.374125 
L 228.375287 156.837741 
L 230.279927 157.902189 
L 232.482168 158.257005 
L 234.922487 158.966637 
L 237.065207 159.365805 
L 239.446008 159.720621 
L 241.707767 160.430253 
L 243.850487 160.785069 
L 245.993207 161.139885 
L 248.254967 161.494701 
L 250.397687 162.204333 
L 252.540407 162.559149 
L 254.802167 162.913965 
L 256.706807 163.313133 
L 258.968568 163.667949 
L 261.111288 164.377581 
L 263.194487 164.554989 
L 265.456248 164.554989 
L 267.718007 164.732397 
" style="fill:none;stroke:#e377c2;stroke-linecap:square;stroke-width:1.5;"/>
   </g>
   <g id="line2d_132">
    <path clip-path="url(#p220f29fd59)" d="M 226.589687 155.374125 
L 221.113847 155.019309 
L 215.638007 154.487085 
L 210.043127 153.954861 
L 204.626807 153.600045 
L 198.912888 153.422637 
L 192.782328 154.132269 
L 186.830328 154.841901 
L 180.640247 155.551533 
L 174.569208 155.551533 
L 168.557687 155.551533 
L 162.427127 155.551533 
L 156.296567 155.551533 
L 149.511287 155.551533 
L 142.785528 155.196717 
L 136.000248 155.196717 
L 129.453047 155.196717 
L 123.322488 155.196717 
L 116.953848 155.196717 
L 110.823288 155.196717 
" style="fill:none;stroke:#7f7f7f;stroke-linecap:square;stroke-width:1.5;"/>
   </g>
   <g id="line2d_133">
    <path clip-path="url(#p220f29fd59)" d="M 226.589687 155.374125 
L 221.113847 155.374125 
L 215.459448 155.019309 
L 209.983608 154.664493 
L 203.436408 155.019309 
L 196.829688 155.196717 
L 190.282488 155.196717 
L 183.735287 155.374125 
L 177.188087 155.374125 
L 171.295608 155.019309 
L 165.403128 155.019309 
L 159.451127 154.664493 
L 153.142008 155.728941 
L 146.594808 157.325613 
L 139.928567 157.503021 
L 133.381368 157.148205 
L 126.834168 156.793389 
L 120.644087 156.793389 
L 114.334968 156.793389 
L 107.192568 156.615981 
" style="fill:none;stroke:#bcbd22;stroke-linecap:square;stroke-width:1.5;"/>
   </g>
   <g id="line2d_134">
    <path clip-path="url(#p220f29fd59)" d="M 226.589687 155.374125 
L 226.589687 155.374125 
L 226.589687 155.374125 
L 226.589687 155.019309 
L 226.351608 155.019309 
L 226.351608 154.664493 
L 226.351608 154.664493 
L 226.351608 154.664493 
L 226.351608 154.309677 
L 226.113528 154.309677 
L 226.113528 154.309677 
L 226.113528 153.954861 
L 226.113528 153.954861 
L 225.875448 153.555693 
L 225.875448 153.555693 
L 225.875448 153.555693 
L 225.875448 153.200877 
L 225.637368 153.200877 
L 225.637368 153.200877 
L 225.637368 152.846061 
" style="fill:none;stroke:#17becf;stroke-linecap:square;stroke-width:1.5;"/>
   </g>
   <g id="line2d_135">
    <path clip-path="url(#p220f29fd59)" d="M 226.589687 155.374125 
L 226.589687 155.019309 
L 226.411127 155.019309 
L 226.411127 155.019309 
L 226.411127 154.664493 
L 226.411127 154.664493 
L 226.232567 154.664493 
L 226.232567 154.265325 
L 226.232567 154.265325 
L 226.232567 153.910509 
L 225.994487 153.910509 
L 225.994487 153.910509 
L 225.994487 153.555693 
L 225.994487 153.555693 
L 225.994487 153.555693 
L 224.685047 152.491245 
L 222.899448 151.426797 
L 221.173367 150.007533 
L 219.447287 148.898733 
L 217.661687 147.834285 
" style="fill:none;stroke:#1f77b4;stroke-linecap:square;stroke-width:1.5;"/>
   </g>
   <g id="line2d_136">
    <path clip-path="url(#p220f29fd59)" d="M 226.589687 155.374125 
L 226.589687 156.660333 
L 226.589687 158.079597 
L 226.589687 159.144045 
L 226.887287 160.031085 
L 227.303927 160.740717 
L 227.780088 161.095533 
L 229.922808 162.204333 
L 232.184567 162.958317 
L 234.089207 163.667949 
L 235.398647 164.022765 
L 236.708088 164.377581 
L 238.255607 164.732397 
L 240.041207 165.087213 
L 241.767288 165.442029 
L 243.731448 165.796845 
L 245.517047 166.151661 
L 247.183607 166.151661 
L 247.421687 166.151661 
L 247.659767 166.151661 
" style="fill:none;stroke:#ff7f0e;stroke-linecap:square;stroke-width:1.5;"/>
   </g>
   <g id="line2d_137">
    <path clip-path="url(#p220f29fd59)" d="M 226.589687 155.374125 
L 224.327927 155.374125 
L 221.113847 155.196717 
L 217.423608 154.487085 
L 213.852407 153.954861 
L 211.828727 153.245229 
L 209.924087 153.245229 
L 207.543287 153.954861 
L 204.805367 153.954861 
L 201.948408 153.600045 
L 199.924727 153.600045 
L 198.020087 153.600045 
L 195.520248 153.954861 
L 192.841848 154.664493 
L 190.222967 154.664493 
L 187.782647 154.309677 
L 185.639927 153.600045 
L 183.021048 153.954861 
L 180.640247 153.954861 
L 178.199928 153.954861 
" style="fill:none;stroke:#2ca02c;stroke-linecap:square;stroke-width:1.5;"/>
   </g>
   <g id="line2d_138">
    <path clip-path="url(#p220f29fd59)" d="M 226.589687 155.374125 
L 224.446967 155.019309 
L 222.542327 155.374125 
L 220.042487 155.374125 
L 217.899767 155.728941 
L 215.280888 155.728941 
L 212.662007 155.374125 
L 210.281207 155.374125 
L 208.019448 155.728941 
L 205.400567 155.728941 
L 202.424567 155.728941 
L 199.567608 155.728941 
L 197.782007 155.728941 
L 196.234488 155.374125 
L 193.615608 155.019309 
L 190.401527 154.664493 
L 187.068408 154.664493 
L 184.449527 155.019309 
L 181.830647 155.374125 
L 179.449848 155.374125 
" style="fill:none;stroke:#d62728;stroke-linecap:square;stroke-width:1.5;"/>
   </g>
   <g id="line2d_139">
    <path clip-path="url(#p220f29fd59)" d="M 226.589687 155.374125 
L 224.089847 155.374125 
L 221.709047 155.019309 
L 219.328248 154.664493 
L 217.185528 155.196717 
L 215.161847 155.551533 
L 213.078647 155.906349 
L 211.174007 156.261165 
L 209.090807 156.438573 
L 207.067127 156.615981 
L 204.924408 156.615981 
L 202.543608 156.615981 
L 200.281847 156.261165 
L 198.139128 156.261165 
L 195.936888 156.261165 
L 193.318007 156.261165 
L 190.699128 156.615981 
L 188.080247 156.615981 
L 185.461367 156.615981 
L 183.259128 156.615981 
" style="fill:none;stroke:#9467bd;stroke-linecap:square;stroke-width:1.5;"/>
   </g>
   <g id="line2d_140">
    <path clip-path="url(#p220f29fd59)" d="M 226.589687 155.374125 
L 219.149687 155.374125 
L 211.888248 155.374125 
L 204.448248 155.374125 
L 197.067768 155.374125 
L 189.389688 155.374125 
L 181.771128 155.374125 
L 174.331128 155.019309 
L 166.891128 155.019309 
L 159.213048 155.019309 
L 151.832567 155.019309 
L 144.392567 155.019309 
L 137.190648 155.019309 
L 129.750648 155.019309 
L 121.834488 154.664493 
L 113.977848 154.309677 
L 106.121207 154.309677 
L 98.502647 154.664493 
L 90.586488 155.019309 
L 83.622647 154.664493 
" style="fill:none;stroke:#8c564b;stroke-linecap:square;stroke-width:1.5;"/>
   </g>
   <g id="line2d_141">
    <path clip-path="url(#p220f29fd59)" d="M 226.589687 155.374125 
L 219.566327 156.438573 
L 212.126328 155.728941 
L 204.269688 153.954861 
L 197.067768 153.954861 
L 189.389688 153.954861 
L 181.354488 153.954861 
L 173.914488 153.200877 
L 166.712568 152.491245 
L 158.617847 153.200877 
L 150.761208 153.200877 
L 142.845048 152.491245 
L 134.988407 151.382445 
L 127.369848 150.317997 
L 119.691767 151.027629 
L 112.073208 151.781613 
L 104.395128 152.491245 
L 97.728888 152.846061 
L 91.479287 153.555693 
L 85.170167 153.910509 
" style="fill:none;stroke:#e377c2;stroke-linecap:square;stroke-width:1.5;"/>
   </g>
   <g id="line2d_142">
    <path clip-path="url(#p220f29fd59)" d="M 226.589687 155.374125 
L 228.137207 155.374125 
L 229.625207 155.374125 
L 234.684407 155.196717 
L 244.088568 155.196717 
L 245.576568 155.196717 
L 253.254648 154.841901 
L 262.837367 154.132269 
L 272.479607 153.422637 
L 283.193207 152.713005 
L 295.454327 152.313837 
L 305.275127 152.713005 
L 314.679287 153.777453 
L 322.535927 154.132269 
L 326.285687 153.777453 
L 331.940088 153.422637 
L 337.773047 153.777453 
L 341.463287 153.422637 
L 345.391607 153.422637 
L 350.629368 153.422637 
" style="fill:none;stroke:#7f7f7f;stroke-linecap:square;stroke-width:1.5;"/>
   </g>
   <g id="line2d_143">
    <path clip-path="url(#p220f29fd59)" d="M 226.589687 155.374125 
L 224.208888 155.374125 
L 222.006647 155.019309 
L 219.804407 155.019309 
L 217.423608 154.664493 
L 215.280888 154.664493 
L 212.781047 154.265325 
L 210.638328 154.265325 
L 207.781367 154.265325 
L 204.924408 154.265325 
L 201.948408 154.265325 
L 198.853367 154.664493 
L 195.996408 154.664493 
L 192.901367 154.664493 
L 189.925367 154.664493 
L 187.068408 155.019309 
L 183.973367 155.019309 
L 180.878328 155.019309 
L 178.021367 155.019309 
L 174.807288 155.019309 
" style="fill:none;stroke:#bcbd22;stroke-linecap:square;stroke-width:1.5;"/>
   </g>
   <g id="line2d_144">
    <path clip-path="url(#p220f29fd59)" d="M 226.589687 155.374125 
L 223.375608 155.374125 
L 220.042487 155.374125 
L 216.828407 155.374125 
L 213.495287 155.374125 
L 210.281207 155.374125 
L 206.948087 155.374125 
L 203.734007 155.374125 
L 200.400888 155.374125 
L 197.067768 155.374125 
L 193.853688 155.374125 
L 190.520567 155.019309 
L 186.592247 155.019309 
L 182.663927 155.019309 
L 178.735608 155.019309 
L 174.807288 155.019309 
L 171.593208 155.019309 
L 169.450488 155.019309 
L 167.426807 155.019309 
L 165.224568 155.019309 
" style="fill:none;stroke:#17becf;stroke-linecap:square;stroke-width:1.5;"/>
   </g>
   <g id="line2d_145">
    <path clip-path="url(#p220f29fd59)" d="M 226.589687 155.374125 
L 233.553528 155.374125 
L 240.755448 155.374125 
L 247.778807 155.374125 
L 254.980728 155.374125 
L 262.182647 155.374125 
L 268.967927 155.728941 
L 275.336568 155.728941 
L 281.645688 155.728941 
L 287.954808 155.728941 
L 294.323447 155.728941 
L 300.692087 155.728941 
L 307.239287 155.728941 
L 313.310327 155.728941 
L 319.262327 155.728941 
L 325.154808 155.374125 
L 331.047287 155.019309 
L 336.939768 155.019309 
L 342.832247 154.664493 
L 348.724727 154.664493 
" style="fill:none;stroke:#1f77b4;stroke-linecap:square;stroke-width:1.5;"/>
   </g>
   <g id="patch_3">
    <path d="M 48.029688 288.430125 
L 48.029688 22.318125 
" style="fill:none;stroke:#000000;stroke-linecap:square;stroke-linejoin:miter;stroke-width:0.8;"/>
   </g>
   <g id="patch_4">
    <path d="M 405.149688 288.430125 
L 405.149688 22.318125 
" style="fill:none;stroke:#000000;stroke-linecap:square;stroke-linejoin:miter;stroke-width:0.8;"/>
   </g>
   <g id="patch_5">
    <path d="M 48.029687 288.430125 
L 405.149688 288.430125 
" style="fill:none;stroke:#000000;stroke-linecap:square;stroke-linejoin:miter;stroke-width:0.8;"/>
   </g>
   <g id="patch_6">
    <path d="M 48.029687 22.318125 
L 405.149688 22.318125 
" style="fill:none;stroke:#000000;stroke-linecap:square;stroke-linejoin:miter;stroke-width:0.8;"/>
   </g>
   <g id="text_15">
    <!-- little_1 -->
    <g transform="translate(206.375313 16.318125)scale(0.12 -0.12)">
     <defs>
      <path d="M 9.421875 75.984375 
L 18.40625 75.984375 
L 18.40625 0 
L 9.421875 0 
z
" id="DejaVuSans-108"/>
      <path d="M 9.421875 54.6875 
L 18.40625 54.6875 
L 18.40625 0 
L 9.421875 0 
z
M 9.421875 75.984375 
L 18.40625 75.984375 
L 18.40625 64.59375 
L 9.421875 64.59375 
z
" id="DejaVuSans-105"/>
      <path d="M 18.3125 70.21875 
L 18.3125 54.6875 
L 36.8125 54.6875 
L 36.8125 47.703125 
L 18.3125 47.703125 
L 18.3125 18.015625 
Q 18.3125 11.328125 20.140625 9.421875 
Q 21.96875 7.515625 27.59375 7.515625 
L 36.8125 7.515625 
L 36.8125 0 
L 27.59375 0 
Q 17.1875 0 13.234375 3.875 
Q 9.28125 7.765625 9.28125 18.015625 
L 9.28125 47.703125 
L 2.6875 47.703125 
L 2.6875 54.6875 
L 9.28125 54.6875 
L 9.28125 70.21875 
z
" id="DejaVuSans-116"/>
      <path d="M 56.203125 29.59375 
L 56.203125 25.203125 
L 14.890625 25.203125 
Q 15.484375 15.921875 20.484375 11.0625 
Q 25.484375 6.203125 34.421875 6.203125 
Q 39.59375 6.203125 44.453125 7.46875 
Q 49.3125 8.734375 54.109375 11.28125 
L 54.109375 2.78125 
Q 49.265625 0.734375 44.1875 -0.34375 
Q 39.109375 -1.421875 33.890625 -1.421875 
Q 20.796875 -1.421875 13.15625 6.1875 
Q 5.515625 13.8125 5.515625 26.8125 
Q 5.515625 40.234375 12.765625 48.109375 
Q 20.015625 56 32.328125 56 
Q 43.359375 56 49.78125 48.890625 
Q 56.203125 41.796875 56.203125 29.59375 
z
M 47.21875 32.234375 
Q 47.125 39.59375 43.09375 43.984375 
Q 39.0625 48.390625 32.421875 48.390625 
Q 24.90625 48.390625 20.390625 44.140625 
Q 15.875 39.890625 15.1875 32.171875 
z
" id="DejaVuSans-101"/>
      <path d="M 50.984375 -16.609375 
L 50.984375 -23.578125 
L -0.984375 -23.578125 
L -0.984375 -16.609375 
z
" id="DejaVuSans-95"/>
     </defs>
     <use xlink:href="#DejaVuSans-108"/>
     <use x="27.783203" xlink:href="#DejaVuSans-105"/>
     <use x="55.566406" xlink:href="#DejaVuSans-116"/>
     <use x="94.775391" xlink:href="#DejaVuSans-116"/>
     <use x="133.984375" xlink:href="#DejaVuSans-108"/>
     <use x="161.767578" xlink:href="#DejaVuSans-101"/>
     <use x="223.291016" xlink:href="#DejaVuSans-95"/>
     <use x="273.291016" xlink:href="#DejaVuSans-49"/>
    </g>
   </g>
  </g>
 </g>
 <defs>
  <clipPath id="p220f29fd59">
   <rect height="266.112" width="357.12" x="48.029688" y="22.318125"/>
  </clipPath>
 </defs>
</svg>
