<?xml version="1.0" encoding="utf-8" standalone="no"?>
<!DOCTYPE svg PUBLIC "-//W3C//DTD SVG 1.1//EN"
  "http://www.w3.org/Graphics/SVG/1.1/DTD/svg11.dtd">
<!-- Created with matplotlib (https://matplotlib.org/) -->
<svg height="312.30825pt" version="1.1" viewBox="0 0 425.074687 312.30825" width="425.074687pt" xmlns="http://www.w3.org/2000/svg" xmlns:xlink="http://www.w3.org/1999/xlink">
 <metadata>
  <rdf:RDF xmlns:cc="http://creativecommons.org/ns#" xmlns:dc="http://purl.org/dc/elements/1.1/" xmlns:rdf="http://www.w3.org/1999/02/22-rdf-syntax-ns#">
   <cc:Work>
    <dc:type rdf:resource="http://purl.org/dc/dcmitype/StillImage"/>
    <dc:date>2023-10-16T01:55:57.428884</dc:date>
    <dc:format>image/svg+xml</dc:format>
    <dc:creator>
     <cc:Agent>
      <dc:title>Matplotlib v3.3.4, https://matplotlib.org/</dc:title>
     </cc:Agent>
    </dc:creator>
   </cc:Work>
  </rdf:RDF>
 </metadata>
 <defs>
  <style type="text/css">*{stroke-linecap:butt;stroke-linejoin:round;}</style>
 </defs>
 <g id="figure_1">
  <g id="patch_1">
   <path d="M 0 312.30825 
L 425.074687 312.30825 
L 425.074687 0 
L 0 0 
z
" style="fill:#ffffff;"/>
  </g>
  <g id="axes_1">
   <g id="patch_2">
    <path d="M 48.029688 288.430125 
L 405.149688 288.430125 
L 405.149688 22.318125 
L 48.029688 22.318125 
z
" style="fill:#ffffff;"/>
   </g>
   <g id="matplotlib.axis_1">
    <g id="xtick_1">
     <g id="line2d_1">
      <defs>
       <path d="M 0 0 
L 0 3.5 
" id="maff1a6f433" style="stroke:#000000;stroke-width:0.8;"/>
      </defs>
      <g>
       <use style="stroke:#000000;stroke-width:0.8;" x="48.029687" xlink:href="#maff1a6f433" y="288.430125"/>
      </g>
     </g>
     <g id="text_1">
      <!-- −1500 -->
      <g transform="translate(31.114844 303.028562)scale(0.1 -0.1)">
       <defs>
        <path d="M 10.59375 35.5 
L 73.1875 35.5 
L 73.1875 27.203125 
L 10.59375 27.203125 
z
" id="DejaVuSans-8722"/>
        <path d="M 12.40625 8.296875 
L 28.515625 8.296875 
L 28.515625 63.921875 
L 10.984375 60.40625 
L 10.984375 69.390625 
L 28.421875 72.90625 
L 38.28125 72.90625 
L 38.28125 8.296875 
L 54.390625 8.296875 
L 54.390625 0 
L 12.40625 0 
z
" id="DejaVuSans-49"/>
        <path d="M 10.796875 72.90625 
L 49.515625 72.90625 
L 49.515625 64.59375 
L 19.828125 64.59375 
L 19.828125 46.734375 
Q 21.96875 47.46875 24.109375 47.828125 
Q 26.265625 48.1875 28.421875 48.1875 
Q 40.625 48.1875 47.75 41.5 
Q 54.890625 34.8125 54.890625 23.390625 
Q 54.890625 11.625 47.5625 5.09375 
Q 40.234375 -1.421875 26.90625 -1.421875 
Q 22.3125 -1.421875 17.546875 -0.640625 
Q 12.796875 0.140625 7.71875 1.703125 
L 7.71875 11.625 
Q 12.109375 9.234375 16.796875 8.0625 
Q 21.484375 6.890625 26.703125 6.890625 
Q 35.15625 6.890625 40.078125 11.328125 
Q 45.015625 15.765625 45.015625 23.390625 
Q 45.015625 31 40.078125 35.4375 
Q 35.15625 39.890625 26.703125 39.890625 
Q 22.75 39.890625 18.8125 39.015625 
Q 14.890625 38.140625 10.796875 36.28125 
z
" id="DejaVuSans-53"/>
        <path d="M 31.78125 66.40625 
Q 24.171875 66.40625 20.328125 58.90625 
Q 16.5 51.421875 16.5 36.375 
Q 16.5 21.390625 20.328125 13.890625 
Q 24.171875 6.390625 31.78125 6.390625 
Q 39.453125 6.390625 43.28125 13.890625 
Q 47.125 21.390625 47.125 36.375 
Q 47.125 51.421875 43.28125 58.90625 
Q 39.453125 66.40625 31.78125 66.40625 
z
M 31.78125 74.21875 
Q 44.046875 74.21875 50.515625 64.515625 
Q 56.984375 54.828125 56.984375 36.375 
Q 56.984375 17.96875 50.515625 8.265625 
Q 44.046875 -1.421875 31.78125 -1.421875 
Q 19.53125 -1.421875 13.0625 8.265625 
Q 6.59375 17.96875 6.59375 36.375 
Q 6.59375 54.828125 13.0625 64.515625 
Q 19.53125 74.21875 31.78125 74.21875 
z
" id="DejaVuSans-48"/>
       </defs>
       <use xlink:href="#DejaVuSans-8722"/>
       <use x="83.789062" xlink:href="#DejaVuSans-49"/>
       <use x="147.412109" xlink:href="#DejaVuSans-53"/>
       <use x="211.035156" xlink:href="#DejaVuSans-48"/>
       <use x="274.658203" xlink:href="#DejaVuSans-48"/>
      </g>
     </g>
    </g>
    <g id="xtick_2">
     <g id="line2d_2">
      <g>
       <use style="stroke:#000000;stroke-width:0.8;" x="107.549688" xlink:href="#maff1a6f433" y="288.430125"/>
      </g>
     </g>
     <g id="text_2">
      <!-- −1000 -->
      <g transform="translate(90.634844 303.028562)scale(0.1 -0.1)">
       <use xlink:href="#DejaVuSans-8722"/>
       <use x="83.789062" xlink:href="#DejaVuSans-49"/>
       <use x="147.412109" xlink:href="#DejaVuSans-48"/>
       <use x="211.035156" xlink:href="#DejaVuSans-48"/>
       <use x="274.658203" xlink:href="#DejaVuSans-48"/>
      </g>
     </g>
    </g>
    <g id="xtick_3">
     <g id="line2d_3">
      <g>
       <use style="stroke:#000000;stroke-width:0.8;" x="167.069687" xlink:href="#maff1a6f433" y="288.430125"/>
      </g>
     </g>
     <g id="text_3">
      <!-- −500 -->
      <g transform="translate(153.336094 303.028562)scale(0.1 -0.1)">
       <use xlink:href="#DejaVuSans-8722"/>
       <use x="83.789062" xlink:href="#DejaVuSans-53"/>
       <use x="147.412109" xlink:href="#DejaVuSans-48"/>
       <use x="211.035156" xlink:href="#DejaVuSans-48"/>
      </g>
     </g>
    </g>
    <g id="xtick_4">
     <g id="line2d_4">
      <g>
       <use style="stroke:#000000;stroke-width:0.8;" x="226.589687" xlink:href="#maff1a6f433" y="288.430125"/>
      </g>
     </g>
     <g id="text_4">
      <!-- 0 -->
      <g transform="translate(223.408437 303.028562)scale(0.1 -0.1)">
       <use xlink:href="#DejaVuSans-48"/>
      </g>
     </g>
    </g>
    <g id="xtick_5">
     <g id="line2d_5">
      <g>
       <use style="stroke:#000000;stroke-width:0.8;" x="286.109688" xlink:href="#maff1a6f433" y="288.430125"/>
      </g>
     </g>
     <g id="text_5">
      <!-- 500 -->
      <g transform="translate(276.565938 303.028562)scale(0.1 -0.1)">
       <use xlink:href="#DejaVuSans-53"/>
       <use x="63.623047" xlink:href="#DejaVuSans-48"/>
       <use x="127.246094" xlink:href="#DejaVuSans-48"/>
      </g>
     </g>
    </g>
    <g id="xtick_6">
     <g id="line2d_6">
      <g>
       <use style="stroke:#000000;stroke-width:0.8;" x="345.629687" xlink:href="#maff1a6f433" y="288.430125"/>
      </g>
     </g>
     <g id="text_6">
      <!-- 1000 -->
      <g transform="translate(332.904687 303.028562)scale(0.1 -0.1)">
       <use xlink:href="#DejaVuSans-49"/>
       <use x="63.623047" xlink:href="#DejaVuSans-48"/>
       <use x="127.246094" xlink:href="#DejaVuSans-48"/>
       <use x="190.869141" xlink:href="#DejaVuSans-48"/>
      </g>
     </g>
    </g>
    <g id="xtick_7">
     <g id="line2d_7">
      <g>
       <use style="stroke:#000000;stroke-width:0.8;" x="405.149688" xlink:href="#maff1a6f433" y="288.430125"/>
      </g>
     </g>
     <g id="text_7">
      <!-- 1500 -->
      <g transform="translate(392.424688 303.028562)scale(0.1 -0.1)">
       <use xlink:href="#DejaVuSans-49"/>
       <use x="63.623047" xlink:href="#DejaVuSans-53"/>
       <use x="127.246094" xlink:href="#DejaVuSans-48"/>
       <use x="190.869141" xlink:href="#DejaVuSans-48"/>
      </g>
     </g>
    </g>
   </g>
   <g id="matplotlib.axis_2">
    <g id="ytick_1">
     <g id="line2d_8">
      <defs>
       <path d="M 0 0 
L -3.5 0 
" id="mcbfe045e00" style="stroke:#000000;stroke-width:0.8;"/>
      </defs>
      <g>
       <use style="stroke:#000000;stroke-width:0.8;" x="48.029688" xlink:href="#mcbfe045e00" y="288.430125"/>
      </g>
     </g>
     <g id="text_8">
      <!-- −1500 -->
      <g transform="translate(7.2 292.229344)scale(0.1 -0.1)">
       <use xlink:href="#DejaVuSans-8722"/>
       <use x="83.789062" xlink:href="#DejaVuSans-49"/>
       <use x="147.412109" xlink:href="#DejaVuSans-53"/>
       <use x="211.035156" xlink:href="#DejaVuSans-48"/>
       <use x="274.658203" xlink:href="#DejaVuSans-48"/>
      </g>
     </g>
    </g>
    <g id="ytick_2">
     <g id="line2d_9">
      <g>
       <use style="stroke:#000000;stroke-width:0.8;" x="48.029688" xlink:href="#mcbfe045e00" y="244.078125"/>
      </g>
     </g>
     <g id="text_9">
      <!-- −1000 -->
      <g transform="translate(7.2 247.877344)scale(0.1 -0.1)">
       <use xlink:href="#DejaVuSans-8722"/>
       <use x="83.789062" xlink:href="#DejaVuSans-49"/>
       <use x="147.412109" xlink:href="#DejaVuSans-48"/>
       <use x="211.035156" xlink:href="#DejaVuSans-48"/>
       <use x="274.658203" xlink:href="#DejaVuSans-48"/>
      </g>
     </g>
    </g>
    <g id="ytick_3">
     <g id="line2d_10">
      <g>
       <use style="stroke:#000000;stroke-width:0.8;" x="48.029688" xlink:href="#mcbfe045e00" y="199.726125"/>
      </g>
     </g>
     <g id="text_10">
      <!-- −500 -->
      <g transform="translate(13.5625 203.525344)scale(0.1 -0.1)">
       <use xlink:href="#DejaVuSans-8722"/>
       <use x="83.789062" xlink:href="#DejaVuSans-53"/>
       <use x="147.412109" xlink:href="#DejaVuSans-48"/>
       <use x="211.035156" xlink:href="#DejaVuSans-48"/>
      </g>
     </g>
    </g>
    <g id="ytick_4">
     <g id="line2d_11">
      <g>
       <use style="stroke:#000000;stroke-width:0.8;" x="48.029688" xlink:href="#mcbfe045e00" y="155.374125"/>
      </g>
     </g>
     <g id="text_11">
      <!-- 0 -->
      <g transform="translate(34.667187 159.173344)scale(0.1 -0.1)">
       <use xlink:href="#DejaVuSans-48"/>
      </g>
     </g>
    </g>
    <g id="ytick_5">
     <g id="line2d_12">
      <g>
       <use style="stroke:#000000;stroke-width:0.8;" x="48.029688" xlink:href="#mcbfe045e00" y="111.022125"/>
      </g>
     </g>
     <g id="text_12">
      <!-- 500 -->
      <g transform="translate(21.942187 114.821344)scale(0.1 -0.1)">
       <use xlink:href="#DejaVuSans-53"/>
       <use x="63.623047" xlink:href="#DejaVuSans-48"/>
       <use x="127.246094" xlink:href="#DejaVuSans-48"/>
      </g>
     </g>
    </g>
    <g id="ytick_6">
     <g id="line2d_13">
      <g>
       <use style="stroke:#000000;stroke-width:0.8;" x="48.029688" xlink:href="#mcbfe045e00" y="66.670125"/>
      </g>
     </g>
     <g id="text_13">
      <!-- 1000 -->
      <g transform="translate(15.579687 70.469344)scale(0.1 -0.1)">
       <use xlink:href="#DejaVuSans-49"/>
       <use x="63.623047" xlink:href="#DejaVuSans-48"/>
       <use x="127.246094" xlink:href="#DejaVuSans-48"/>
       <use x="190.869141" xlink:href="#DejaVuSans-48"/>
      </g>
     </g>
    </g>
    <g id="ytick_7">
     <g id="line2d_14">
      <g>
       <use style="stroke:#000000;stroke-width:0.8;" x="48.029688" xlink:href="#mcbfe045e00" y="22.318125"/>
      </g>
     </g>
     <g id="text_14">
      <!-- 1500 -->
      <g transform="translate(15.579687 26.117344)scale(0.1 -0.1)">
       <use xlink:href="#DejaVuSans-49"/>
       <use x="63.623047" xlink:href="#DejaVuSans-53"/>
       <use x="127.246094" xlink:href="#DejaVuSans-48"/>
       <use x="190.869141" xlink:href="#DejaVuSans-48"/>
      </g>
     </g>
    </g>
   </g>
   <g id="line2d_15">
    <path clip-path="url(#p3fc1e155bb)" d="M 226.589687 155.374125 
L 226.768248 156.882093 
L 227.006327 158.345709 
L 227.244407 159.853677 
L 227.482487 161.317293 
L 227.720567 162.647853 
L 228.196728 164.155821 
L 228.434808 165.663789 
L 228.672888 167.127405 
L 228.672888 168.413613 
L 228.434808 169.566765 
L 228.077687 170.852973 
L 227.839607 171.784365 
L 227.482487 173.070573 
L 227.482487 174.578541 
L 227.482487 176.086509 
L 227.244407 177.949293 
L 227.244407 179.457261 
L 227.244407 180.920877 
L 227.244407 182.428845 
" style="fill:none;stroke:#1f77b4;stroke-linecap:square;stroke-width:1.5;"/>
   </g>
   <g id="line2d_16">
    <path clip-path="url(#p3fc1e155bb)" d="M 226.589687 155.374125 
L 226.827767 157.236909 
L 227.065847 159.099693 
L 227.065847 161.317293 
L 227.303927 163.180077 
L 227.303927 165.042861 
L 227.542007 166.905645 
L 227.780088 168.413613 
L 227.780088 170.276397 
L 227.780088 172.139181 
L 227.780088 174.356781 
L 227.780088 175.864749 
L 228.018168 177.727533 
L 228.256248 179.235501 
L 228.494327 180.743469 
L 228.970487 182.207085 
L 229.446647 183.670701 
L 229.922808 185.178669 
L 230.398967 186.686637 
L 230.398967 188.194605 
" style="fill:none;stroke:#ff7f0e;stroke-linecap:square;stroke-width:1.5;"/>
   </g>
   <g id="line2d_17">
    <path clip-path="url(#p3fc1e155bb)" d="M 226.589687 155.374125 
L 226.589687 156.882093 
L 226.589687 158.345709 
L 226.589687 160.607661 
L 226.589687 162.869613 
L 226.113528 164.333229 
L 225.637368 165.087213 
L 225.399287 166.196013 
L 225.399287 167.703981 
L 225.399287 168.812781 
L 225.161207 170.320749 
L 225.399287 172.893165 
L 225.161207 175.155117 
L 224.923127 177.017901 
L 224.446967 178.880685 
L 224.208888 180.743469 
L 223.732728 182.606253 
L 223.256567 184.469037 
L 223.018487 185.622189 
L 222.780407 185.977005 
" style="fill:none;stroke:#2ca02c;stroke-linecap:square;stroke-width:1.5;"/>
   </g>
   <g id="line2d_18">
    <path clip-path="url(#p3fc1e155bb)" d="M 226.589687 155.374125 
L 226.351608 155.728941 
L 226.173047 156.083757 
L 225.934967 156.083757 
L 225.696888 156.083757 
L 225.220728 156.083757 
L 224.982647 155.728941 
L 224.744567 155.728941 
L 224.268407 155.374125 
L 224.030327 155.374125 
L 223.613687 155.019309 
L 220.994808 154.664493 
L 218.435448 154.220973 
L 216.114168 154.220973 
L 213.495287 153.866157 
L 210.935927 153.511341 
L 209.090807 153.156525 
L 206.948087 153.156525 
L 205.043448 153.156525 
L 202.960248 153.156525 
" style="fill:none;stroke:#d62728;stroke-linecap:square;stroke-width:1.5;"/>
   </g>
   <g id="line2d_19">
    <path clip-path="url(#p3fc1e155bb)" d="M 226.589687 155.374125 
L 233.851127 155.773293 
L 241.053047 155.773293 
L 247.897847 155.374125 
L 254.683127 154.265325 
L 261.706487 153.156525 
L 268.491767 152.801709 
L 275.515128 152.801709 
L 282.538487 153.156525 
L 288.609528 153.156525 
L 294.204408 153.156525 
L 301.942007 152.801709 
L 307.298808 152.402541 
L 307.298808 152.402541 
L 307.298808 152.402541 
L 329.142648 155.374125 
L 336.285048 156.527277 
L 342.891768 156.527277 
L 349.915127 156.882093 
L 356.938487 157.636077 
" style="fill:none;stroke:#9467bd;stroke-linecap:square;stroke-width:1.5;"/>
   </g>
   <g id="line2d_20">
    <path clip-path="url(#p3fc1e155bb)" d="M 226.589687 155.374125 
L 234.505847 154.664493 
L 244.802808 155.019309 
L 253.016568 154.664493 
L 260.516088 153.866157 
L 268.729848 153.511341 
L 277.181688 152.801709 
L 285.812087 153.156525 
L 294.502007 153.866157 
L 302.894327 154.664493 
L 310.155768 154.664493 
L 317.655287 155.019309 
L 326.107127 156.882093 
L 334.558967 158.744877 
L 343.248888 158.744877 
L 351.879287 158.744877 
L 360.093048 158.744877 
L 368.306807 158.744877 
L 376.461047 158.744877 
L 384.912888 159.099693 
" style="fill:none;stroke:#8c564b;stroke-linecap:square;stroke-width:1.5;"/>
   </g>
   <g id="line2d_21">
    <path clip-path="url(#p3fc1e155bb)" d="M 226.589687 155.374125 
L 226.589687 150.894573 
L 227.542007 145.661037 
L 228.196728 141.225837 
L 227.958647 137.855085 
L 227.720567 133.375533 
L 227.720567 128.541165 
L 227.720567 123.662445 
L 227.958647 119.582061 
L 227.958647 115.856493 
L 228.196728 111.731757 
L 227.542007 107.252205 
L 226.351608 102.373485 
L 225.458808 97.938285 
L 222.839927 94.212717 
L 218.614007 91.196781 
L 214.388087 88.225197 
L 210.221688 85.253613 
L 205.043448 82.636845 
L 197.782007 81.528045 
" style="fill:none;stroke:#e377c2;stroke-linecap:square;stroke-width:1.5;"/>
   </g>
   <g id="line2d_22">
    <path clip-path="url(#p3fc1e155bb)" d="M 226.589687 155.374125 
L 229.922808 155.374125 
L 234.327287 155.019309 
L 238.315127 154.664493 
L 241.350648 155.374125 
L 244.445687 156.882093 
L 246.945527 158.390061 
L 249.088247 160.962477 
L 251.469047 163.623597 
L 254.206967 166.550829 
L 256.587767 168.857133 
L 258.968568 171.429549 
L 259.623288 175.509933 
L 260.754167 179.235501 
L 261.944568 183.005421 
L 262.658807 185.977005 
L 263.134968 188.638125 
L 264.563447 190.500909 
L 265.991927 191.920173 
L 267.598968 193.827309 
" style="fill:none;stroke:#7f7f7f;stroke-linecap:square;stroke-width:1.5;"/>
   </g>
   <g id="line2d_23">
    <path clip-path="url(#p3fc1e155bb)" d="M 226.589687 155.374125 
L 226.589687 155.374125 
L 226.589687 155.374125 
L 226.589687 155.374125 
L 226.589687 155.374125 
L 226.589687 155.374125 
L 226.589687 155.374125 
L 226.589687 155.374125 
L 226.589687 155.374125 
L 226.589687 155.374125 
L 226.589687 155.374125 
L 226.589687 155.374125 
L 226.589687 155.374125 
L 226.589687 155.374125 
L 226.589687 155.374125 
L 226.589687 155.374125 
L 226.589687 155.374125 
L 226.589687 155.374125 
L 226.589687 155.374125 
L 226.589687 155.374125 
" style="fill:none;stroke:#bcbd22;stroke-linecap:square;stroke-width:1.5;"/>
   </g>
   <g id="line2d_24">
    <path clip-path="url(#p3fc1e155bb)" d="M 226.589687 155.374125 
L 226.589687 155.374125 
L 226.589687 155.374125 
L 226.589687 155.374125 
L 226.589687 155.374125 
L 226.589687 155.374125 
L 226.589687 155.374125 
L 226.589687 155.374125 
L 226.589687 155.374125 
L 226.589687 155.374125 
L 226.589687 155.374125 
L 226.589687 155.374125 
L 226.589687 155.374125 
L 226.589687 155.374125 
L 226.589687 155.374125 
L 226.589687 155.374125 
L 226.589687 155.374125 
L 226.589687 155.374125 
L 226.589687 155.374125 
L 226.589687 155.374125 
" style="fill:none;stroke:#17becf;stroke-linecap:square;stroke-width:1.5;"/>
   </g>
   <g id="line2d_25">
    <path clip-path="url(#p3fc1e155bb)" d="M 226.589687 155.374125 
L 226.589687 155.374125 
L 226.351608 155.551533 
L 226.351608 155.551533 
L 226.351608 155.551533 
L 226.351608 155.551533 
L 226.232567 155.551533 
L 226.232567 155.551533 
L 226.232567 155.551533 
L 226.232567 155.551533 
L 226.113528 155.551533 
L 226.113528 155.551533 
L 226.113528 155.551533 
L 226.113528 155.728941 
L 225.994487 155.728941 
L 225.994487 155.728941 
L 225.994487 155.551533 
L 225.875448 155.551533 
L 225.875448 155.551533 
L 225.875448 155.551533 
" style="fill:none;stroke:#1f77b4;stroke-linecap:square;stroke-width:1.5;"/>
   </g>
   <g id="line2d_26">
    <path clip-path="url(#p3fc1e155bb)" d="M 226.589687 155.374125 
L 226.470647 155.374125 
L 226.470647 155.374125 
L 226.470647 155.551533 
L 226.470647 155.551533 
L 226.351608 155.551533 
L 226.351608 155.551533 
L 226.351608 155.551533 
L 226.351608 155.551533 
L 226.232567 155.551533 
L 226.232567 155.374125 
L 226.232567 155.374125 
L 226.113528 155.374125 
L 226.113528 155.595885 
L 226.113528 155.595885 
L 226.113528 155.595885 
L 226.054007 155.595885 
L 226.054007 155.595885 
L 226.054007 155.595885 
L 226.054007 155.595885 
" style="fill:none;stroke:#ff7f0e;stroke-linecap:square;stroke-width:1.5;"/>
   </g>
   <g id="line2d_27">
    <path clip-path="url(#p3fc1e155bb)" d="M 226.589687 155.374125 
L 226.589687 155.374125 
L 226.589687 155.374125 
L 226.589687 155.374125 
L 226.351608 155.551533 
L 226.351608 155.551533 
L 226.351608 155.551533 
L 226.351608 155.728941 
L 226.351608 155.728941 
L 226.351608 156.083757 
L 226.351608 156.083757 
L 226.351608 156.083757 
L 226.351608 156.261165 
L 226.351608 156.261165 
L 226.351608 156.438573 
L 226.351608 156.660333 
L 226.351608 156.660333 
L 226.351608 156.837741 
L 226.351608 157.015149 
L 226.351608 157.015149 
" style="fill:none;stroke:#2ca02c;stroke-linecap:square;stroke-width:1.5;"/>
   </g>
   <g id="line2d_28">
    <path clip-path="url(#p3fc1e155bb)" d="M 226.589687 155.374125 
L 226.589687 155.374125 
L 226.589687 155.374125 
L 226.589687 155.728941 
L 226.589687 155.728941 
L 226.589687 155.728941 
L 226.589687 155.950701 
L 226.589687 155.950701 
L 226.589687 156.349869 
L 226.589687 156.704685 
L 226.589687 157.414317 
L 226.589687 157.813485 
L 226.827767 158.567469 
L 226.827767 158.922285 
L 226.827767 159.277101 
L 226.827767 160.075437 
L 226.827767 160.430253 
L 227.482487 161.583405 
L 227.958647 162.293037 
L 228.434808 163.446189 
" style="fill:none;stroke:#d62728;stroke-linecap:square;stroke-width:1.5;"/>
   </g>
   <g id="line2d_29">
    <path clip-path="url(#p3fc1e155bb)" d="M 226.589687 155.374125 
L 226.589687 159.099693 
L 226.351608 162.470445 
L 226.113528 165.796845 
L 225.934967 169.167597 
L 225.696888 172.538349 
L 225.220728 175.909101 
L 224.982647 179.235501 
L 224.744567 182.606253 
L 224.506487 185.977005 
L 224.506487 189.303405 
L 225.458808 192.319341 
L 226.351608 195.290925 
L 227.542007 198.262509 
L 228.494327 201.278445 
L 230.637047 203.141229 
L 233.613047 203.895213 
L 236.708088 205.004013 
L 239.743607 205.757997 
L 243.017207 206.866797 
" style="fill:none;stroke:#9467bd;stroke-linecap:square;stroke-width:1.5;"/>
   </g>
   <g id="line2d_30">
    <path clip-path="url(#p3fc1e155bb)" d="M 226.589687 155.374125 
L 226.589687 157.236909 
L 226.589687 159.144045 
L 226.589687 161.006829 
L 226.351608 162.470445 
L 226.351608 163.978413 
L 226.351608 165.264621 
L 226.589687 166.949997 
L 226.827767 168.457965 
L 226.827767 170.320749 
L 227.065847 171.828717 
L 227.542007 174.046317 
L 227.780088 176.263917 
L 228.256248 178.525869 
L 228.256248 180.388653 
L 228.494327 181.896621 
L 228.732407 183.759405 
L 229.208567 185.223021 
L 229.625207 186.730989 
L 229.208567 188.948589 
" style="fill:none;stroke:#8c564b;stroke-linecap:square;stroke-width:1.5;"/>
   </g>
   <g id="line2d_31">
    <path clip-path="url(#p3fc1e155bb)" d="M 226.589687 155.374125 
L 226.827767 156.882093 
L 227.244407 158.035245 
L 227.958647 159.498861 
L 228.434808 160.607661 
L 228.434808 162.869613 
L 228.434808 164.732397 
L 228.434808 166.196013 
L 228.672888 167.349165 
L 228.910967 169.211949 
L 229.149047 171.074733 
L 229.149047 172.937517 
L 228.910967 174.800301 
L 229.149047 175.953453 
L 229.625207 177.417069 
L 230.101368 178.880685 
L 230.577528 180.388653 
L 230.815607 181.896621 
L 231.232247 183.404589 
L 231.232247 184.868205 
" style="fill:none;stroke:#e377c2;stroke-linecap:square;stroke-width:1.5;"/>
   </g>
   <g id="line2d_32">
    <path clip-path="url(#p3fc1e155bb)" d="M 226.589687 155.374125 
L 227.065847 157.236909 
L 227.303927 159.498861 
L 227.303927 161.139885 
L 227.303927 163.180077 
L 227.303927 164.865453 
L 227.303927 166.905645 
L 227.303927 168.768429 
L 227.542007 170.453805 
L 227.542007 172.316589 
L 227.780088 173.824557 
L 227.780088 175.687341 
L 228.018168 177.550125 
L 228.018168 179.058093 
L 228.256248 180.920877 
L 228.494327 182.428845 
L 228.494327 184.291629 
L 228.732407 186.154413 
L 228.732407 187.662381 
L 228.732407 189.125997 
" style="fill:none;stroke:#7f7f7f;stroke-linecap:square;stroke-width:1.5;"/>
   </g>
   <g id="line2d_33">
    <path clip-path="url(#p3fc1e155bb)" d="M 226.589687 155.374125 
L 226.827767 155.595885 
L 227.065847 155.595885 
L 227.303927 155.595885 
L 227.542007 155.595885 
L 227.780088 155.595885 
L 228.018168 155.595885 
L 228.256248 155.595885 
L 228.494327 155.595885 
L 228.732407 155.595885 
L 228.970487 155.595885 
L 229.208567 155.595885 
L 229.446647 155.595885 
L 229.684728 155.595885 
L 230.160888 157.059501 
L 230.637047 158.922285 
L 230.875127 160.829421 
L 231.351287 162.692205 
L 231.827448 164.554989 
L 232.244088 166.417773 
" style="fill:none;stroke:#bcbd22;stroke-linecap:square;stroke-width:1.5;"/>
   </g>
   <g id="line2d_34">
    <path clip-path="url(#p3fc1e155bb)" d="M 226.589687 155.374125 
L 227.065847 157.236909 
L 227.482487 159.099693 
L 227.720567 160.962477 
L 228.196728 162.825261 
L 228.672888 164.688045 
L 229.149047 166.550829 
L 229.625207 168.413613 
L 230.101368 170.276397 
L 230.577528 172.139181 
L 231.053687 174.001965 
L 231.291767 175.864749 
L 231.767927 177.727533 
L 232.006008 179.590317 
L 232.482168 181.453101 
L 232.958327 182.961069 
L 232.958327 184.823853 
L 232.958327 186.686637 
L 233.196407 188.549421 
L 233.196407 190.412205 
" style="fill:none;stroke:#17becf;stroke-linecap:square;stroke-width:1.5;"/>
   </g>
   <g id="line2d_35">
    <path clip-path="url(#p3fc1e155bb)" d="M 226.589687 155.374125 
L 226.589687 157.236909 
L 226.708728 158.744877 
L 226.589687 159.898029 
L 226.470647 160.962477 
L 226.470647 162.115629 
L 226.232567 163.224429 
L 226.113528 164.688045 
L 226.113528 166.595181 
L 226.113528 168.457965 
L 226.113528 169.921581 
L 226.113528 171.784365 
L 226.351608 174.046317 
L 226.589687 175.909101 
L 226.827767 177.771885 
L 227.303927 179.634669 
L 227.542007 181.497453 
L 227.542007 183.404589 
L 227.780088 184.868205 
L 228.018168 186.730989 
" style="fill:none;stroke:#1f77b4;stroke-linecap:square;stroke-width:1.5;"/>
   </g>
   <g id="line2d_36">
    <path clip-path="url(#p3fc1e155bb)" d="M 226.589687 155.374125 
L 226.827767 156.882093 
L 226.827767 159.099693 
L 227.006327 161.361645 
L 227.720567 162.869613 
L 228.434808 164.333229 
L 228.434808 166.196013 
L 228.434808 168.058797 
L 228.434808 169.921581 
L 228.434808 170.320749 
L 228.434808 170.320749 
L 228.434808 170.320749 
L 228.910967 172.183533 
L 230.339448 176.618733 
L 230.339448 179.634669 
L 230.101368 181.497453 
L 230.577528 183.005421 
L 231.053687 184.469037 
L 231.232247 185.977005 
L 231.708407 187.839789 
" style="fill:none;stroke:#ff7f0e;stroke-linecap:square;stroke-width:1.5;"/>
   </g>
   <g id="line2d_37">
    <path clip-path="url(#p3fc1e155bb)" d="M 226.589687 155.374125 
L 226.589687 156.882093 
L 226.589687 158.390061 
L 226.589687 159.853677 
L 226.470647 161.938221 
L 226.470647 163.801005 
L 226.351608 165.442029 
L 226.232567 167.304813 
L 226.232567 169.167597 
L 226.351608 170.852973 
L 226.589687 172.360941 
L 226.827767 173.868909 
L 226.827767 175.332525 
L 227.065847 176.840493 
L 227.303927 178.348461 
L 227.542007 179.812077 
L 227.780088 181.497453 
L 227.780088 183.360237 
L 227.780088 185.223021 
L 228.018168 187.085805 
" style="fill:none;stroke:#2ca02c;stroke-linecap:square;stroke-width:1.5;"/>
   </g>
   <g id="line2d_38">
    <path clip-path="url(#p3fc1e155bb)" d="M 226.589687 155.374125 
L 232.303607 154.664493 
L 239.565047 153.511341 
L 247.064568 152.047725 
L 254.802167 151.648557 
L 261.825528 151.293741 
L 268.610807 150.938925 
L 275.991287 150.761517 
L 281.110007 149.963181 
L 286.347767 149.253549 
L 291.942648 147.035949 
L 297.537528 145.882797 
L 302.477688 145.882797 
L 306.227447 144.729645 
L 312.298487 145.882797 
L 318.369528 147.035949 
L 323.607287 148.100397 
L 328.249847 149.608365 
L 332.892407 150.761517 
L 337.177847 152.624301 
" style="fill:none;stroke:#d62728;stroke-linecap:square;stroke-width:1.5;"/>
   </g>
   <g id="line2d_39">
    <path clip-path="url(#p3fc1e155bb)" d="M 226.589687 155.374125 
L 226.827767 161.361645 
L 227.065847 167.304813 
L 227.303927 172.893165 
L 227.780088 178.880685 
L 228.018168 184.646445 
L 228.256248 190.456557 
L 228.494327 196.222317 
L 228.970487 201.988077 
L 229.149047 207.798189 
L 229.387127 213.741357 
L 229.625207 219.374061 
L 229.863287 225.317229 
L 229.744248 230.195949 
L 229.506168 235.385133 
L 229.387127 240.263853 
L 229.387127 245.098221 
L 229.387127 249.577773 
L 229.387127 253.702509 
L 229.625207 258.004653 
" style="fill:none;stroke:#9467bd;stroke-linecap:square;stroke-width:1.5;"/>
   </g>
   <g id="line2d_40">
    <path clip-path="url(#p3fc1e155bb)" d="M 226.589687 155.374125 
L 226.827767 159.454509 
L 226.827767 163.801005 
L 226.827767 166.373421 
L 226.827767 167.083053 
L 226.827767 167.881389 
L 226.827767 168.591021 
L 226.827767 169.389357 
L 226.827767 170.098989 
L 226.827767 170.453805 
L 226.827767 171.252141 
L 226.827767 171.961773 
L 226.827767 172.760109 
L 226.827767 173.469741 
L 227.065847 173.647149 
L 227.601528 173.469741 
L 228.077687 173.469741 
L 227.839607 176.263917 
L 227.601528 179.989485 
L 227.184888 183.360237 
" style="fill:none;stroke:#8c564b;stroke-linecap:square;stroke-width:1.5;"/>
   </g>
   <g id="line2d_41">
    <path clip-path="url(#p3fc1e155bb)" d="M 226.589687 155.374125 
L 232.660728 154.220973 
L 239.207927 153.333933 
L 246.588407 152.934765 
L 254.802167 152.579949 
L 262.301688 152.579949 
L 270.039288 153.333933 
L 279.145848 152.934765 
L 286.645368 151.071981 
L 294.144887 149.608365 
L 302.358647 149.608365 
L 310.572407 149.963181 
L 317.595767 151.071981 
L 324.619127 152.579949 
L 331.880567 152.934765 
L 339.142007 152.934765 
L 346.165368 152.934765 
L 353.426807 152.934765 
L 360.688247 154.043565 
L 368.425847 156.305517 
" style="fill:none;stroke:#e377c2;stroke-linecap:square;stroke-width:1.5;"/>
   </g>
   <g id="line2d_42">
    <path clip-path="url(#p3fc1e155bb)" d="M 226.589687 155.374125 
L 228.018168 154.575789 
L 229.565687 153.866157 
L 231.172728 153.112173 
L 233.077368 151.604205 
L 234.684407 150.495405 
L 236.112887 150.495405 
L 237.243767 150.140589 
L 238.434168 148.987437 
L 239.624567 147.878637 
L 240.576887 146.769837 
L 241.707767 145.261869 
L 243.136247 144.153069 
L 244.088568 142.689453 
L 244.981368 140.782317 
L 244.981368 139.318701 
L 245.219448 137.810733 
L 245.933687 136.701933 
L 246.647927 135.193965 
L 247.362167 133.331181 
" style="fill:none;stroke:#7f7f7f;stroke-linecap:square;stroke-width:1.5;"/>
   </g>
   <g id="line2d_43">
    <path clip-path="url(#p3fc1e155bb)" d="M 226.589687 155.374125 
L 227.244407 154.220973 
L 227.839607 152.934765 
L 228.196728 150.894573 
L 228.553847 149.209197 
L 228.910967 147.169005 
L 229.208567 145.483629 
L 230.041847 143.975661 
L 230.994168 142.866861 
L 231.946487 141.358893 
L 232.898808 139.895277 
L 233.851127 138.742125 
L 234.327287 137.278509 
L 234.089207 135.770541 
L 233.613047 134.661741 
L 233.613047 133.153773 
L 233.851127 132.044973 
L 233.851127 131.290989 
L 234.089207 130.182189 
L 234.327287 129.073389 
" style="fill:none;stroke:#bcbd22;stroke-linecap:square;stroke-width:1.5;"/>
   </g>
   <g id="line2d_44">
    <path clip-path="url(#p3fc1e155bb)" d="M 226.589687 155.374125 
L 227.303927 150.850221 
L 228.018168 146.415021 
L 229.327607 141.891117 
L 230.994168 137.278509 
L 232.779767 132.577197 
L 232.898808 127.565421 
L 232.660728 122.331885 
L 232.422647 117.098349 
L 231.708407 113.017965 
L 231.053687 109.292397 
L 230.398967 105.566829 
L 229.684728 101.841261 
L 227.542007 98.115693 
L 223.316088 93.591789 
L 218.852088 89.156589 
L 214.447608 84.987501 
L 207.424248 84.277869 
L 200.400888 83.124717 
L 193.377527 82.415085 
" style="fill:none;stroke:#17becf;stroke-linecap:square;stroke-width:1.5;"/>
   </g>
   <g id="line2d_45">
    <path clip-path="url(#p3fc1e155bb)" d="M 226.589687 155.374125 
L 227.542007 158.390061 
L 228.494327 161.317293 
L 229.387127 164.333229 
L 230.279927 167.304813 
L 231.470327 170.276397 
L 232.422647 173.292333 
L 232.422647 176.263917 
L 230.518008 179.634669 
L 228.672888 182.606253 
L 226.827767 185.622189 
L 224.923127 188.593773 
L 222.780407 191.920173 
L 220.994808 194.936109 
L 219.090168 197.907693 
L 217.185528 201.278445 
L 214.626168 203.895213 
L 207.781367 205.403181 
L 200.996087 206.467629 
L 194.686968 207.265965 
" style="fill:none;stroke:#1f77b4;stroke-linecap:square;stroke-width:1.5;"/>
   </g>
   <g id="line2d_46">
    <path clip-path="url(#p3fc1e155bb)" d="M 226.589687 155.374125 
L 227.780088 156.128109 
L 229.208567 156.527277 
L 230.637047 156.882093 
L 232.065528 157.236909 
L 233.494008 157.636077 
L 234.803448 157.990893 
L 236.231927 158.390061 
L 237.660407 158.744877 
L 239.326967 159.099693 
L 241.231607 159.099693 
L 243.017207 159.099693 
L 244.921847 159.099693 
L 247.064568 159.099693 
L 248.909687 159.099693 
L 250.754807 159.099693 
L 252.659447 159.099693 
L 254.564087 159.099693 
L 256.409207 159.099693 
L 258.254327 159.099693 
" style="fill:none;stroke:#ff7f0e;stroke-linecap:square;stroke-width:1.5;"/>
   </g>
   <g id="line2d_47">
    <path clip-path="url(#p3fc1e155bb)" d="M 226.589687 155.374125 
L 226.113528 157.236909 
L 225.637368 158.744877 
L 225.220728 160.607661 
L 224.744567 162.115629 
L 224.268407 163.801005 
L 223.851767 165.486381 
L 223.375608 167.171757 
L 222.899448 168.679725 
L 222.423287 170.542509 
L 221.947127 172.006125 
L 221.470968 173.691501 
L 220.994808 175.376877 
L 220.518647 176.840493 
L 220.042487 178.525869 
L 219.566327 180.211245 
L 219.090168 181.896621 
L 218.614007 183.404589 
L 218.494968 185.267373 
L 218.494968 186.730989 
" style="fill:none;stroke:#2ca02c;stroke-linecap:square;stroke-width:1.5;"/>
   </g>
   <g id="line2d_48">
    <path clip-path="url(#p3fc1e155bb)" d="M 226.589687 155.374125 
L 226.589687 156.882093 
L 226.589687 158.744877 
L 226.589687 160.208493 
L 226.589687 161.716461 
L 226.589687 163.579245 
L 226.589687 165.087213 
L 226.589687 166.595181 
L 226.589687 168.058797 
L 226.589687 169.921581 
L 226.589687 171.429549 
L 226.589687 172.937517 
L 226.589687 174.046317 
L 226.351608 175.155117 
L 226.351608 176.263917 
L 226.113528 177.372717 
L 225.934967 178.525869 
L 225.934967 179.634669 
L 225.696888 180.743469 
L 225.696888 181.852269 
" style="fill:none;stroke:#d62728;stroke-linecap:square;stroke-width:1.5;"/>
   </g>
   <g id="line2d_49">
    <path clip-path="url(#p3fc1e155bb)" d="M 226.589687 155.374125 
L 218.375927 155.374125 
L 210.400248 155.773293 
L 202.246007 155.773293 
L 194.984567 155.773293 
L 190.758647 155.773293 
L 186.532727 155.019309 
L 182.306807 154.664493 
L 178.318967 153.910509 
L 174.093048 153.511341 
L 170.878967 152.446893 
L 168.736247 150.938925 
L 166.593527 149.785773 
L 164.510328 148.322157 
L 162.546167 146.814189 
L 160.403447 145.350573 
L 158.558328 141.979821 
L 156.653687 135.992301 
L 155.046648 130.004781 
L 153.142008 124.416429 
" style="fill:none;stroke:#9467bd;stroke-linecap:square;stroke-width:1.5;"/>
   </g>
   <g id="line2d_50">
    <path clip-path="url(#p3fc1e155bb)" d="M 226.589687 155.374125 
L 219.447287 155.374125 
L 212.185847 155.374125 
L 205.043448 155.374125 
L 197.782007 155.374125 
L 191.234807 154.974957 
L 186.294647 154.265325 
L 181.354488 153.910509 
L 176.473848 153.112173 
L 171.533687 152.757357 
L 167.069687 151.648557 
L 164.034167 149.741421 
L 160.998648 147.878637 
L 157.903608 145.661037 
L 154.689527 143.798253 
L 151.594488 141.935469 
L 148.558967 140.072685 
L 147.190008 137.455917 
L 146.951928 134.129517 
L 146.475768 130.758765 
" style="fill:none;stroke:#8c564b;stroke-linecap:square;stroke-width:1.5;"/>
   </g>
   <g id="line2d_51">
    <path clip-path="url(#p3fc1e155bb)" d="M 226.589687 155.374125 
L 234.565368 155.374125 
L 242.660088 155.374125 
L 250.635767 155.374125 
L 257.659128 155.019309 
L 264.563447 153.866157 
L 271.348727 152.801709 
L 278.134007 152.003373 
L 283.490808 149.430957 
L 287.776248 145.705389 
L 291.942648 141.625005 
L 292.894968 136.391469 
L 293.371128 131.157933 
L 294.085367 125.569581 
L 294.561528 120.336045 
L 294.323447 114.747693 
L 293.609208 109.159341 
L 293.133047 103.526637 
L 292.418808 97.893933 
L 292.299767 93.059565 
" style="fill:none;stroke:#e377c2;stroke-linecap:square;stroke-width:1.5;"/>
   </g>
   <g id="line2d_52">
    <path clip-path="url(#p3fc1e155bb)" d="M 226.589687 155.374125 
L 224.744567 156.882093 
L 223.078007 158.035245 
L 221.232888 159.454509 
L 219.328248 160.607661 
L 217.423608 162.115629 
L 215.816567 163.224429 
L 213.971448 164.688045 
L 212.066808 165.841197 
L 210.400248 166.550829 
L 208.793207 167.349165 
L 207.186168 168.413613 
L 205.281528 169.211949 
L 203.614968 169.921581 
L 202.007927 171.074733 
L 200.400888 171.784365 
L 198.496248 172.582701 
L 196.829688 173.292333 
L 195.222647 174.445485 
L 194.032247 175.509933 
" style="fill:none;stroke:#7f7f7f;stroke-linecap:square;stroke-width:1.5;"/>
   </g>
   <g id="line2d_53">
    <path clip-path="url(#p3fc1e155bb)" d="M 226.589687 155.374125 
L 225.399287 156.882093 
L 224.208888 157.946541 
L 223.256567 159.099693 
L 222.304248 160.252845 
L 221.530487 161.317293 
L 220.816248 162.470445 
L 219.923448 163.357485 
L 219.090168 164.510637 
L 218.375927 165.619437 
L 218.137847 165.619437 
L 218.137847 165.619437 
L 218.137847 165.619437 
L 218.137847 165.619437 
L 218.137847 165.619437 
L 218.137847 165.619437 
L 218.137847 165.619437 
L 218.137847 165.619437 
L 218.137847 165.619437 
L 218.137847 165.619437 
" style="fill:none;stroke:#bcbd22;stroke-linecap:square;stroke-width:1.5;"/>
   </g>
   <g id="line2d_54">
    <path clip-path="url(#p3fc1e155bb)" d="M 226.589687 155.374125 
L 226.351608 160.962477 
L 226.113528 166.772589 
L 225.875448 172.360941 
L 225.875448 177.949293 
L 225.875448 182.828013 
L 226.113528 187.662381 
L 226.351608 192.496749 
L 226.589687 197.375469 
L 226.827767 202.209837 
L 227.065847 207.044205 
L 230.756088 211.168941 
L 234.565368 215.293677 
L 238.255607 219.019245 
L 242.064887 223.099629 
L 251.469047 226.825197 
L 260.754167 230.195949 
L 265.277688 230.550765 
L 272.301047 229.441965 
L 279.324408 227.978349 
" style="fill:none;stroke:#17becf;stroke-linecap:square;stroke-width:1.5;"/>
   </g>
   <g id="line2d_55">
    <path clip-path="url(#p3fc1e155bb)" d="M 226.589687 155.374125 
L 226.827767 161.361645 
L 227.303927 166.550829 
L 228.018168 170.276397 
L 228.732407 175.110765 
L 229.863287 180.743469 
L 230.101368 184.868205 
L 230.101368 188.593773 
L 229.863287 193.428141 
L 229.625207 197.730285 
L 229.863287 201.455853 
L 229.982327 205.358829 
L 230.934647 209.483565 
L 231.589368 213.918765 
L 232.303607 218.442669 
L 233.017847 222.877869 
L 233.494008 227.401773 
L 233.255927 231.836973 
L 233.017847 236.715693 
L 229.506168 240.441261 
" style="fill:none;stroke:#1f77b4;stroke-linecap:square;stroke-width:1.5;"/>
   </g>
   <g id="line2d_56">
    <path clip-path="url(#p3fc1e155bb)" d="M 226.589687 155.374125 
L 226.708728 160.563309 
L 226.946808 165.087213 
L 226.946808 169.167597 
L 226.946808 173.247981 
L 227.184888 177.771885 
L 227.422967 182.428845 
L 227.601528 186.908397 
L 228.077687 191.387949 
L 228.910967 196.222317 
L 230.220407 200.701869 
L 231.291767 205.181421 
L 235.934327 210.060141 
L 240.636407 215.249325 
L 245.814648 219.374061 
L 252.361848 220.882029 
L 258.670968 221.946477 
L 267.837047 222.744813 
L 277.419767 223.099629 
L 287.716727 224.208429 
" style="fill:none;stroke:#ff7f0e;stroke-linecap:square;stroke-width:1.5;"/>
   </g>
   <g id="line2d_57">
    <path clip-path="url(#p3fc1e155bb)" d="M 226.589687 155.374125 
L 226.827767 156.837741 
L 227.244407 158.345709 
L 227.482487 160.031085 
L 227.958647 162.248685 
L 228.196728 164.333229 
L 228.196728 165.841197 
L 228.434808 168.058797 
L 228.434808 171.030381 
L 228.434808 173.292333 
L 228.434808 174.223725 
L 228.434808 174.933357 
L 228.434808 176.796141 
L 228.672888 178.703277 
L 228.672888 180.920877 
L 228.672888 183.182829 
L 228.910967 187.618029 
L 229.149047 192.496749 
L 229.149047 194.714349 
L 229.149047 196.577133 
" style="fill:none;stroke:#2ca02c;stroke-linecap:square;stroke-width:1.5;"/>
   </g>
   <g id="line2d_58">
    <path clip-path="url(#p3fc1e155bb)" d="M 226.589687 155.374125 
L 226.470647 155.374125 
L 226.351608 155.551533 
L 226.232567 155.551533 
L 226.232567 156.438573 
L 226.708728 158.301357 
L 227.184888 160.164141 
L 226.946808 161.672109 
L 226.708728 163.180077 
L 226.708728 164.288877 
L 226.946808 165.796845 
L 227.303927 166.905645 
L 227.542007 168.413613 
L 228.494327 170.631213 
L 229.208567 172.848813 
L 229.863287 174.356781 
L 230.577528 175.509933 
L 231.291767 176.973549 
L 231.708407 178.481517 
L 232.184567 180.344301 
" style="fill:none;stroke:#d62728;stroke-linecap:square;stroke-width:1.5;"/>
   </g>
   <g id="line2d_59">
    <path clip-path="url(#p3fc1e155bb)" d="M 226.589687 155.374125 
L 227.542007 156.482925 
L 228.732407 157.990893 
L 229.446647 159.099693 
L 229.922808 160.208493 
L 230.815607 161.539053 
L 232.006008 163.224429 
L 233.255927 164.909805 
L 234.446327 166.373421 
L 235.636728 168.236205 
L 236.946168 169.921581 
L 238.136567 171.562605 
L 239.267448 173.247981 
L 240.279288 174.755949 
L 241.469687 176.263917 
L 242.422008 177.771885 
L 243.374327 178.836333 
L 244.564728 180.344301 
L 245.755127 181.497453 
L 247.540728 182.606253 
" style="fill:none;stroke:#9467bd;stroke-linecap:square;stroke-width:1.5;"/>
   </g>
   <g id="line2d_60">
    <path clip-path="url(#p3fc1e155bb)" d="M 226.589687 155.374125 
L 233.970168 154.220973 
L 241.469687 153.466989 
L 249.088247 152.890413 
L 256.468727 152.890413 
L 264.206327 153.289581 
L 272.658167 152.180781 
L 278.967287 150.672813 
L 285.514487 149.164845 
L 293.014007 148.455213 
L 300.751607 148.100397 
L 308.013047 148.810029 
L 315.274487 149.963181 
L 322.535927 150.317997 
L 329.797368 150.672813 
L 337.058808 151.027629 
L 344.796407 151.426797 
L 353.248247 152.180781 
L 360.926327 153.289581 
L 367.533047 154.930605 
" style="fill:none;stroke:#8c564b;stroke-linecap:square;stroke-width:1.5;"/>
   </g>
   <g id="line2d_61">
    <path clip-path="url(#p3fc1e155bb)" d="M 226.589687 155.374125 
L 232.898808 154.930605 
L 239.446008 154.575789 
L 245.993207 154.220973 
L 252.302327 154.220973 
L 259.087607 153.067821 
L 265.634807 152.003373 
L 272.479607 150.850221 
L 279.086327 149.741421 
L 285.871607 148.277805 
L 291.228408 148.632621 
L 296.823287 148.632621 
L 302.418167 148.987437 
L 308.132088 148.987437 
L 316.762488 150.850221 
L 324.440567 152.003373 
L 330.392567 152.713005 
L 336.463607 153.466989 
L 342.772727 153.466989 
L 349.081847 153.466989 
" style="fill:none;stroke:#e377c2;stroke-linecap:square;stroke-width:1.5;"/>
   </g>
   <g id="line2d_62">
    <path clip-path="url(#p3fc1e155bb)" d="M 226.589687 155.374125 
L 219.328248 155.374125 
L 211.233528 155.906349 
L 203.495927 156.482925 
L 195.877367 157.059501 
L 188.139768 157.414317 
L 180.402167 158.168301 
L 172.664568 158.744877 
L 165.046008 159.099693 
L 157.189368 159.454509 
L 149.511287 159.099693 
L 141.773687 158.345709 
L 134.036088 157.946541 
L 126.298488 157.591725 
L 118.560888 157.591725 
L 110.585208 157.591725 
L 102.907128 157.591725 
L 94.931447 157.236909 
L 86.955768 157.236909 
L 78.980087 156.882093 
" style="fill:none;stroke:#7f7f7f;stroke-linecap:square;stroke-width:1.5;"/>
   </g>
   <g id="line2d_63">
    <path clip-path="url(#p3fc1e155bb)" d="M 226.589687 155.374125 
L 226.470647 161.405997 
L 226.708728 164.732397 
L 226.946808 169.566765 
L 227.125368 174.800301 
L 227.363448 179.324205 
L 227.363448 179.324205 
L 227.363448 186.376173 
L 228.077687 195.335277 
L 229.506168 199.460013 
L 231.172728 203.895213 
L 232.541687 208.419117 
L 233.970168 212.854317 
L 234.327287 216.934701 
L 233.851127 221.281197 
L 233.494008 225.538989 
L 233.136888 229.663725 
L 231.529847 233.921517 
L 223.792248 237.647085 
L 216.530808 238.800237 
" style="fill:none;stroke:#bcbd22;stroke-linecap:square;stroke-width:1.5;"/>
   </g>
   <g id="line2d_64">
    <path clip-path="url(#p3fc1e155bb)" d="M 226.589687 155.374125 
L 222.720888 157.414317 
L 221.351927 157.236909 
L 219.923448 156.837741 
L 218.494968 156.438573 
L 216.828407 156.083757 
L 215.459448 155.906349 
L 214.090487 155.551533 
L 212.900087 155.196717 
L 212.185847 155.196717 
L 211.233528 154.974957 
L 210.281207 154.974957 
L 209.566968 154.974957 
L 208.614647 154.797549 
L 207.959927 154.797549 
L 207.067127 154.797549 
L 207.067127 154.797549 
L 206.829048 155.152365 
L 206.590968 155.329773 
L 206.471927 155.551533 
" style="fill:none;stroke:#17becf;stroke-linecap:square;stroke-width:1.5;"/>
   </g>
   <g id="line2d_65">
    <path clip-path="url(#p3fc1e155bb)" d="M 226.589687 155.374125 
L 224.923127 155.019309 
L 223.018487 154.664493 
L 221.411448 154.664493 
L 219.744888 154.309677 
L 218.137847 153.910509 
L 216.471287 153.511341 
L 214.626168 153.511341 
L 212.959608 153.511341 
L 211.114487 153.511341 
L 209.447927 153.511341 
L 208.019448 153.511341 
L 207.364727 153.511341 
L 206.888567 153.511341 
L 206.174328 153.511341 
L 205.698168 153.511341 
L 204.983927 153.511341 
L 204.567287 153.511341 
L 203.853048 153.511341 
L 203.614968 153.511341 
" style="fill:none;stroke:#1f77b4;stroke-linecap:square;stroke-width:1.5;"/>
   </g>
   <g id="line2d_66">
    <path clip-path="url(#p3fc1e155bb)" d="M 226.589687 155.374125 
L 236.172407 155.019309 
L 246.052728 154.664493 
L 255.694967 154.309677 
L 263.611128 153.511341 
L 270.455927 152.446893 
L 277.241207 151.293741 
L 283.431287 147.568173 
L 287.478647 141.048429 
L 290.573688 136.524525 
L 291.764087 130.936173 
L 292.478327 125.702637 
L 292.478327 120.469101 
L 292.478327 115.324269 
L 292.002167 110.090733 
L 292.240248 104.857197 
L 292.240248 99.978477 
L 291.764087 94.744941 
L 291.526007 89.511405 
L 291.287928 83.923053 
" style="fill:none;stroke:#ff7f0e;stroke-linecap:square;stroke-width:1.5;"/>
   </g>
   <g id="line2d_67">
    <path clip-path="url(#p3fc1e155bb)" d="M 226.589687 155.374125 
L 235.041528 155.374125 
L 243.493368 154.930605 
L 251.885687 154.930605 
L 260.337527 153.466989 
L 268.729848 152.003373 
L 277.181688 150.495405 
L 285.633528 148.632621 
L 290.871287 144.552237 
L 293.728248 138.919533 
L 296.287607 133.109421 
L 296.168567 128.851629 
L 296.049528 124.150317 
L 296.049528 119.360301 
L 295.811447 114.836397 
L 295.811447 108.893229 
L 295.454327 103.083117 
L 295.930488 97.849581 
L 295.811447 92.482989 
L 296.049528 85.031853 
" style="fill:none;stroke:#2ca02c;stroke-linecap:square;stroke-width:1.5;"/>
   </g>
   <g id="line2d_68">
    <path clip-path="url(#p3fc1e155bb)" d="M 226.589687 155.374125 
L 225.637368 160.962477 
L 224.685047 166.949997 
L 223.732728 172.538349 
L 222.780407 178.126701 
L 222.185207 183.715053 
L 222.661367 188.593773 
L 223.137528 193.782957 
L 223.613687 199.016493 
L 224.089847 203.895213 
L 224.804088 208.729581 
L 225.994487 212.277741 
L 227.422967 216.003309 
L 228.613368 219.551469 
L 230.398967 223.099629 
L 236.291448 225.716397 
L 242.660088 227.357421 
L 248.493047 229.220205 
L 255.992568 229.220205 
L 262.301688 229.441965 
" style="fill:none;stroke:#d62728;stroke-linecap:square;stroke-width:1.5;"/>
   </g>
   <g id="line2d_69">
    <path clip-path="url(#p3fc1e155bb)" d="M 226.589687 155.374125 
L 235.517687 154.398381 
L 244.326648 154.043565 
L 253.492728 153.688749 
L 262.420727 153.688749 
L 271.348727 153.333933 
L 278.848248 149.963181 
L 285.871607 145.439277 
L 290.990327 140.649261 
L 294.978167 135.415725 
L 298.966007 130.182189 
L 299.442167 124.948653 
L 300.156408 119.360301 
L 300.870648 113.771949 
L 301.346808 108.183597 
L 299.442167 103.304877 
L 297.537528 98.071341 
L 295.870968 92.837805 
L 294.799607 87.959085 
L 293.847287 82.814253 
" style="fill:none;stroke:#9467bd;stroke-linecap:square;stroke-width:1.5;"/>
   </g>
   <g id="line2d_70">
    <path clip-path="url(#p3fc1e155bb)" d="M 226.589687 155.374125 
L 233.851127 155.374125 
L 241.231607 155.817645 
L 248.731127 155.817645 
L 256.468727 154.664493 
L 264.206327 153.954861 
L 271.884408 153.156525 
L 277.062648 150.406701 
L 282.002808 147.568173 
L 286.645368 144.773997 
L 291.585528 141.979821 
L 293.014007 136.923693 
L 293.490167 131.335341 
L 293.728248 125.347821 
L 293.490167 120.158637 
L 292.775927 115.324269 
L 292.061688 110.445549 
L 291.347447 105.611181 
L 291.109367 100.155885 
L 290.811767 93.680493 
" style="fill:none;stroke:#8c564b;stroke-linecap:square;stroke-width:1.5;"/>
   </g>
   <g id="line2d_71">
    <path clip-path="url(#p3fc1e155bb)" d="M 226.589687 155.374125 
L 227.065847 150.140589 
L 227.780088 145.306221 
L 228.434808 140.427501 
L 229.149047 135.593133 
L 228.672888 130.004781 
L 228.018168 124.017261 
L 227.542007 118.074093 
L 226.827767 112.263981 
L 225.399287 107.074797 
L 223.970808 101.619501 
L 222.780407 96.430317 
L 222.304248 90.841965 
L 222.304248 85.209261 
L 222.780407 79.221741 
L 223.732728 74.032557 
L 224.685047 68.799021 
L 225.637368 63.210669 
L 226.113528 58.376301 
L 226.589687 54.251565 
" style="fill:none;stroke:#e377c2;stroke-linecap:square;stroke-width:1.5;"/>
   </g>
   <g id="line2d_72">
    <path clip-path="url(#p3fc1e155bb)" d="M 226.589687 155.374125 
L 226.827767 156.527277 
L 226.827767 158.035245 
L 226.827767 159.099693 
L 227.065847 160.607661 
L 227.065847 161.760813 
L 227.303927 162.825261 
L 227.303927 163.978413 
L 227.303927 165.131565 
L 227.065847 166.196013 
L 226.827767 167.349165 
L 226.827767 168.058797 
L 226.589687 169.211949 
L 226.351608 170.320749 
L 226.351608 171.429549 
L 225.875448 172.582701 
L 225.399287 173.292333 
L 224.744567 174.445485 
L 224.268407 175.155117 
L 224.030327 176.308269 
" style="fill:none;stroke:#7f7f7f;stroke-linecap:square;stroke-width:1.5;"/>
   </g>
   <g id="line2d_73">
    <path clip-path="url(#p3fc1e155bb)" d="M 226.589687 155.374125 
L 226.351608 156.527277 
L 225.875448 157.680429 
L 224.685047 158.744877 
L 223.554168 159.898029 
L 222.363767 160.607661 
L 221.411448 161.405997 
L 220.518647 162.115629 
L 219.566327 162.913965 
L 218.614007 163.623597 
L 217.661687 164.333229 
L 216.530808 165.131565 
L 215.340407 165.841197 
L 214.269047 166.018605 
L 213.495287 166.018605 
L 212.781047 166.240365 
L 212.185847 166.240365 
L 211.471608 166.240365 
L 210.519287 166.994349 
L 209.447927 167.349165 
" style="fill:none;stroke:#bcbd22;stroke-linecap:square;stroke-width:1.5;"/>
   </g>
   <g id="line2d_74">
    <path clip-path="url(#p3fc1e155bb)" d="M 226.589687 155.374125 
L 227.720567 149.785773 
L 228.553847 144.552237 
L 228.553847 140.072685 
L 229.565687 134.306925 
L 230.518008 128.718573 
L 230.756088 123.839853 
L 230.518008 120.114285 
L 230.518008 114.171117 
L 229.149047 108.183597 
L 228.018168 102.595245 
L 226.827767 98.470509 
L 225.637368 94.035309 
L 224.208888 89.156589 
L 223.494647 83.923053 
L 223.256567 78.689517 
L 223.494647 73.855149 
L 222.780407 68.665965 
L 222.780407 63.787245 
L 223.256567 57.844077 
" style="fill:none;stroke:#17becf;stroke-linecap:square;stroke-width:1.5;"/>
   </g>
   <g id="line2d_75">
    <path clip-path="url(#p3fc1e155bb)" d="M 226.589687 155.374125 
L 226.411127 153.866157 
L 226.173047 152.003373 
L 225.934967 150.140589 
L 225.696888 148.632621 
L 225.458808 146.769837 
L 225.220728 144.907053 
L 224.982647 143.443437 
L 224.744567 141.536301 
L 224.506487 139.673517 
L 224.268407 137.810733 
L 224.030327 136.391469 
L 223.554168 134.484333 
L 223.078007 132.621549 
L 222.601847 130.758765 
L 222.125687 128.851629 
L 221.649528 127.210605 
L 221.173367 125.569581 
L 220.459127 123.706797 
L 220.042487 121.799661 
" style="fill:none;stroke:#1f77b4;stroke-linecap:square;stroke-width:1.5;"/>
   </g>
   <g id="line2d_76">
    <path clip-path="url(#p3fc1e155bb)" d="M 226.589687 155.374125 
L 226.173047 153.688749 
L 225.696888 151.825965 
L 225.220728 149.963181 
L 224.744567 148.322157 
L 224.268407 146.459373 
L 223.792248 144.729645 
L 223.316088 142.866861 
L 222.601847 141.004077 
L 222.125687 139.141293 
L 221.649528 137.500269 
L 221.411448 135.814893 
L 221.411448 135.016557 
L 221.411448 133.907757 
L 221.411448 132.044973 
L 221.411448 130.581357 
L 221.411448 128.718573 
L 221.411448 126.855789 
L 221.649528 125.347821 
L 221.649528 123.485037 
" style="fill:none;stroke:#ff7f0e;stroke-linecap:square;stroke-width:1.5;"/>
   </g>
   <g id="line2d_77">
    <path clip-path="url(#p3fc1e155bb)" d="M 226.589687 155.374125 
L 226.351608 157.281261 
L 226.351608 159.144045 
L 226.351608 159.498861 
L 226.589687 160.252845 
L 226.827767 161.006829 
L 226.827767 162.115629 
L 226.827767 162.869613 
L 227.065847 164.333229 
L 227.065847 165.486381 
L 227.303927 166.994349 
L 227.303927 168.058797 
L 227.303927 169.389357 
L 227.065847 170.542509 
L 227.065847 171.252141 
L 227.065847 171.252141 
L 226.827767 173.469741 
L 226.827767 174.977709 
L 226.589687 176.130861 
L 226.232567 177.417069 
" style="fill:none;stroke:#2ca02c;stroke-linecap:square;stroke-width:1.5;"/>
   </g>
   <g id="line2d_78">
    <path clip-path="url(#p3fc1e155bb)" d="M 226.589687 155.374125 
L 228.434808 157.236909 
L 230.339448 158.656173 
L 232.482168 160.518957 
L 234.327287 162.426093 
L 234.803448 162.825261 
L 235.220088 163.180077 
L 235.458168 163.534893 
L 235.934327 163.534893 
L 236.410487 163.889709 
L 236.886647 164.688045 
L 238.077047 166.196013 
L 239.267448 167.615277 
L 241.112567 168.768429 
L 242.957687 169.921581 
L 244.862327 171.340845 
L 246.766967 172.493997 
L 249.088247 173.247981 
L 252.123767 173.647149 
L 254.921207 174.001965 
" style="fill:none;stroke:#d62728;stroke-linecap:square;stroke-width:1.5;"/>
   </g>
   <g id="line2d_79">
    <path clip-path="url(#p3fc1e155bb)" d="M 226.589687 155.374125 
L 226.470647 154.442733 
L 226.232567 153.333933 
L 225.994487 152.225133 
L 225.756407 151.293741 
L 225.518327 150.140589 
L 223.435127 149.430957 
L 221.530487 148.277805 
L 219.685367 147.169005 
L 218.018808 146.415021 
L 216.411767 145.306221 
L 214.983287 144.197421 
L 213.316727 143.443437 
L 211.709688 142.689453 
L 209.805048 142.689453 
L 208.198007 142.689453 
L 206.174328 142.866861 
L 204.329207 142.512045 
L 202.365048 142.290285 
L 199.984248 142.290285 
" style="fill:none;stroke:#9467bd;stroke-linecap:square;stroke-width:1.5;"/>
   </g>
   <g id="line2d_80">
    <path clip-path="url(#p3fc1e155bb)" d="M 226.589687 155.374125 
L 227.065847 157.236909 
L 227.303927 159.099693 
L 227.720567 160.962477 
L 227.958647 163.224429 
L 228.196728 165.087213 
L 228.613368 166.949997 
L 228.851448 168.812781 
L 229.327607 170.675565 
L 229.565687 172.538349 
L 230.041847 174.401133 
L 230.279927 176.263917 
L 230.756088 178.171053 
L 230.994168 180.033837 
L 231.232247 181.896621 
L 231.708407 183.759405 
L 231.708407 185.622189 
L 231.708407 187.839789 
L 231.946487 189.702573 
L 231.946487 191.565357 
" style="fill:none;stroke:#8c564b;stroke-linecap:square;stroke-width:1.5;"/>
   </g>
   <g id="line2d_81">
    <path clip-path="url(#p3fc1e155bb)" d="M 226.589687 155.374125 
L 226.589687 157.236909 
L 226.351608 158.700525 
L 226.113528 160.563309 
L 226.113528 162.071277 
L 225.875448 163.934061 
L 225.875448 165.442029 
L 225.875448 167.304813 
L 226.113528 169.522413 
L 226.351608 171.385197 
L 226.589687 173.247981 
L 226.827767 175.110765 
L 227.244407 177.372717 
L 227.482487 179.235501 
L 228.077687 179.989485 
L 229.149047 181.098285 
L 229.922808 182.606253 
L 230.160888 184.469037 
L 230.637047 186.730989 
L 230.875127 188.593773 
" style="fill:none;stroke:#e377c2;stroke-linecap:square;stroke-width:1.5;"/>
   </g>
   <g id="line2d_82">
    <path clip-path="url(#p3fc1e155bb)" d="M 226.589687 155.374125 
L 226.827767 157.591725 
L 227.303927 159.454509 
L 227.542007 161.317293 
L 228.018168 163.534893 
L 227.780088 165.042861 
L 227.303927 166.196013 
L 226.827767 167.304813 
L 226.113528 168.413613 
L 226.113528 170.276397 
L 226.827767 172.493997 
L 227.303927 174.001965 
L 227.303927 175.155117 
L 227.303927 177.017901 
L 227.542007 178.880685 
L 228.018168 180.344301 
L 228.970487 181.453101 
L 229.863287 182.606253 
L 232.006008 185.577837 
L 233.374967 187.440621 
" style="fill:none;stroke:#7f7f7f;stroke-linecap:square;stroke-width:1.5;"/>
   </g>
   <g id="line2d_83">
    <path clip-path="url(#p3fc1e155bb)" d="M 226.589687 155.374125 
L 226.589687 156.083757 
L 226.589687 156.438573 
L 226.589687 157.591725 
L 228.018168 161.672109 
L 228.732407 164.688045 
L 228.732407 166.196013 
L 228.732407 167.659629 
L 228.018168 170.276397 
L 227.303927 172.493997 
L 226.589687 175.155117 
L 225.875448 177.727533 
L 225.339767 179.945133 
L 225.339767 182.207085 
L 225.339767 184.469037 
L 225.339767 185.932653 
L 224.744567 187.618029 
L 224.268407 189.480813 
L 223.792248 191.343597 
L 223.554168 193.605549 
" style="fill:none;stroke:#bcbd22;stroke-linecap:square;stroke-width:1.5;"/>
   </g>
   <g id="line2d_84">
    <path clip-path="url(#p3fc1e155bb)" d="M 226.589687 155.374125 
L 226.351608 157.236909 
L 225.875448 159.099693 
L 225.875448 161.317293 
L 225.875448 163.180077 
L 225.875448 165.442029 
L 225.875448 167.304813 
L 225.875448 169.522413 
L 226.113528 171.429549 
L 226.113528 172.538349 
L 226.113528 173.647149 
L 226.113528 174.755949 
L 226.113528 175.864749 
L 226.113528 177.017901 
L 226.113528 178.126701 
L 225.875448 179.235501 
L 225.696888 181.497453 
L 225.458808 183.715053 
L 225.458808 186.331821 
L 225.220728 188.549421 
" style="fill:none;stroke:#17becf;stroke-linecap:square;stroke-width:1.5;"/>
   </g>
   <g id="line2d_85">
    <path clip-path="url(#p3fc1e155bb)" d="M 226.589687 155.374125 
L 226.589687 157.236909 
L 226.351608 158.744877 
L 226.351608 160.208493 
L 226.113528 161.716461 
L 226.113528 163.357485 
L 225.934967 165.042861 
L 225.696888 166.550829 
L 225.696888 168.236205 
L 225.458808 169.744173 
L 225.458808 171.429549 
L 225.220728 172.893165 
L 225.220728 174.578541 
L 224.982647 176.042157 
L 224.982647 177.550125 
L 224.744567 179.235501 
L 224.744567 180.920877 
L 224.506487 182.428845 
L 224.506487 183.936813 
L 224.268407 185.799597 
" style="fill:none;stroke:#1f77b4;stroke-linecap:square;stroke-width:1.5;"/>
   </g>
   <g id="line2d_86">
    <path clip-path="url(#p3fc1e155bb)" d="M 226.589687 155.374125 
L 226.827767 156.837741 
L 227.065847 158.345709 
L 227.542007 160.208493 
L 228.018168 161.716461 
L 228.256248 163.579245 
L 228.672888 165.087213 
L 228.910967 166.595181 
L 229.387127 168.457965 
L 229.863287 169.921581 
L 230.101368 171.385197 
L 230.815607 172.893165 
L 231.291767 174.401133 
L 232.006008 175.909101 
L 232.720247 177.017901 
L 233.374967 178.481517 
L 234.089207 179.634669 
L 234.803448 181.142637 
L 235.279607 182.650605 
L 235.934327 184.291629 
" style="fill:none;stroke:#ff7f0e;stroke-linecap:square;stroke-width:1.5;"/>
   </g>
   <g id="line2d_87">
    <path clip-path="url(#p3fc1e155bb)" d="M 226.589687 155.374125 
L 227.065847 157.281261 
L 227.780088 159.144045 
L 228.256248 161.006829 
L 228.732407 162.869613 
L 229.208567 164.732397 
L 229.922808 166.196013 
L 229.446647 168.058797 
L 228.970487 169.965933 
L 228.732407 171.429549 
L 228.256248 173.292333 
L 228.018168 174.800301 
L 227.422967 176.663085 
L 226.946808 178.126701 
L 226.470647 179.634669 
L 225.994487 181.142637 
L 225.518327 182.650605 
L 225.101687 184.513389 
L 224.625528 185.977005 
L 224.268407 187.484973 
" style="fill:none;stroke:#2ca02c;stroke-linecap:square;stroke-width:1.5;"/>
   </g>
   <g id="line2d_88">
    <path clip-path="url(#p3fc1e155bb)" d="M 226.589687 155.374125 
L 226.589687 156.482925 
L 226.589687 157.636077 
L 226.589687 158.700525 
L 226.589687 160.208493 
L 226.827767 161.361645 
L 227.065847 162.869613 
L 227.303927 164.288877 
L 227.542007 165.796845 
L 227.780088 167.304813 
L 228.018168 168.812781 
L 228.494327 170.320749 
L 228.732407 171.828717 
L 228.732407 173.247981 
L 228.732407 174.755949 
L 228.970487 176.263917 
L 228.970487 177.771885 
L 229.387127 179.634669 
L 229.625207 181.852269 
L 230.101368 184.069869 
" style="fill:none;stroke:#d62728;stroke-linecap:square;stroke-width:1.5;"/>
   </g>
   <g id="line2d_89">
    <path clip-path="url(#p3fc1e155bb)" d="M 226.589687 155.374125 
L 226.351608 156.837741 
L 226.351608 158.345709 
L 226.589687 160.208493 
L 226.827767 161.716461 
L 226.827767 163.135725 
L 227.065847 164.643693 
L 227.303927 166.506477 
L 227.303927 168.014445 
L 227.542007 169.522413 
L 227.780088 171.030381 
L 227.542007 172.893165 
L 227.542007 174.401133 
L 227.542007 175.820397 
L 227.303927 177.328365 
L 227.303927 178.836333 
L 227.303927 180.344301 
L 227.303927 181.852269 
L 227.065847 183.360237 
L 227.065847 184.779501 
" style="fill:none;stroke:#9467bd;stroke-linecap:square;stroke-width:1.5;"/>
   </g>
   <g id="line2d_90">
    <path clip-path="url(#p3fc1e155bb)" d="M 226.589687 155.374125 
L 226.589687 156.882093 
L 226.589687 158.390061 
L 227.065847 160.252845 
L 227.303927 161.760813 
L 227.542007 163.268781 
L 227.780088 164.688045 
L 228.018168 166.196013 
L 228.494327 168.058797 
L 228.732407 169.566765 
L 228.910967 171.074733 
L 228.910967 172.937517 
L 228.910967 174.800301 
L 228.910967 176.663085 
L 228.910967 178.880685 
L 228.732407 180.743469 
L 228.732407 182.606253 
L 228.732407 184.469037 
L 228.732407 186.331821 
L 228.018168 187.839789 
" style="fill:none;stroke:#8c564b;stroke-linecap:square;stroke-width:1.5;"/>
   </g>
   <g id="line2d_91">
    <path clip-path="url(#p3fc1e155bb)" d="M 226.589687 155.374125 
L 232.720247 155.374125 
L 238.791288 155.374125 
L 244.386167 154.620141 
L 249.564407 153.866157 
L 254.504568 153.112173 
L 258.909047 152.003373 
L 263.373047 151.604205 
L 268.075128 151.249389 
L 272.301047 149.741421 
L 276.526968 147.878637 
L 280.931447 146.015853 
L 284.264567 140.826669 
L 287.538167 135.193965 
L 287.776248 130.758765 
L 287.300088 126.634029 
L 287.062007 122.509293 
L 286.585847 118.074093 
L 285.514487 114.304173 
L 284.264567 110.578605 
" style="fill:none;stroke:#e377c2;stroke-linecap:square;stroke-width:1.5;"/>
   </g>
   <g id="patch_3">
    <path d="M 48.029688 288.430125 
L 48.029688 22.318125 
" style="fill:none;stroke:#000000;stroke-linecap:square;stroke-linejoin:miter;stroke-width:0.8;"/>
   </g>
   <g id="patch_4">
    <path d="M 405.149688 288.430125 
L 405.149688 22.318125 
" style="fill:none;stroke:#000000;stroke-linecap:square;stroke-linejoin:miter;stroke-width:0.8;"/>
   </g>
   <g id="patch_5">
    <path d="M 48.029687 288.430125 
L 405.149688 288.430125 
" style="fill:none;stroke:#000000;stroke-linecap:square;stroke-linejoin:miter;stroke-width:0.8;"/>
   </g>
   <g id="patch_6">
    <path d="M 48.029687 22.318125 
L 405.149688 22.318125 
" style="fill:none;stroke:#000000;stroke-linecap:square;stroke-linejoin:miter;stroke-width:0.8;"/>
   </g>
   <g id="text_15">
    <!-- little_0 -->
    <g transform="translate(206.375313 16.318125)scale(0.12 -0.12)">
     <defs>
      <path d="M 9.421875 75.984375 
L 18.40625 75.984375 
L 18.40625 0 
L 9.421875 0 
z
" id="DejaVuSans-108"/>
      <path d="M 9.421875 54.6875 
L 18.40625 54.6875 
L 18.40625 0 
L 9.421875 0 
z
M 9.421875 75.984375 
L 18.40625 75.984375 
L 18.40625 64.59375 
L 9.421875 64.59375 
z
" id="DejaVuSans-105"/>
      <path d="M 18.3125 70.21875 
L 18.3125 54.6875 
L 36.8125 54.6875 
L 36.8125 47.703125 
L 18.3125 47.703125 
L 18.3125 18.015625 
Q 18.3125 11.328125 20.140625 9.421875 
Q 21.96875 7.515625 27.59375 7.515625 
L 36.8125 7.515625 
L 36.8125 0 
L 27.59375 0 
Q 17.1875 0 13.234375 3.875 
Q 9.28125 7.765625 9.28125 18.015625 
L 9.28125 47.703125 
L 2.6875 47.703125 
L 2.6875 54.6875 
L 9.28125 54.6875 
L 9.28125 70.21875 
z
" id="DejaVuSans-116"/>
      <path d="M 56.203125 29.59375 
L 56.203125 25.203125 
L 14.890625 25.203125 
Q 15.484375 15.921875 20.484375 11.0625 
Q 25.484375 6.203125 34.421875 6.203125 
Q 39.59375 6.203125 44.453125 7.46875 
Q 49.3125 8.734375 54.109375 11.28125 
L 54.109375 2.78125 
Q 49.265625 0.734375 44.1875 -0.34375 
Q 39.109375 -1.421875 33.890625 -1.421875 
Q 20.796875 -1.421875 13.15625 6.1875 
Q 5.515625 13.8125 5.515625 26.8125 
Q 5.515625 40.234375 12.765625 48.109375 
Q 20.015625 56 32.328125 56 
Q 43.359375 56 49.78125 48.890625 
Q 56.203125 41.796875 56.203125 29.59375 
z
M 47.21875 32.234375 
Q 47.125 39.59375 43.09375 43.984375 
Q 39.0625 48.390625 32.421875 48.390625 
Q 24.90625 48.390625 20.390625 44.140625 
Q 15.875 39.890625 15.1875 32.171875 
z
" id="DejaVuSans-101"/>
      <path d="M 50.984375 -16.609375 
L 50.984375 -23.578125 
L -0.984375 -23.578125 
L -0.984375 -16.609375 
z
" id="DejaVuSans-95"/>
     </defs>
     <use xlink:href="#DejaVuSans-108"/>
     <use x="27.783203" xlink:href="#DejaVuSans-105"/>
     <use x="55.566406" xlink:href="#DejaVuSans-116"/>
     <use x="94.775391" xlink:href="#DejaVuSans-116"/>
     <use x="133.984375" xlink:href="#DejaVuSans-108"/>
     <use x="161.767578" xlink:href="#DejaVuSans-101"/>
     <use x="223.291016" xlink:href="#DejaVuSans-95"/>
     <use x="273.291016" xlink:href="#DejaVuSans-48"/>
    </g>
   </g>
  </g>
 </g>
 <defs>
  <clipPath id="p3fc1e155bb">
   <rect height="266.112" width="357.12" x="48.029688" y="22.318125"/>
  </clipPath>
 </defs>
</svg>
