<?xml version="1.0" encoding="utf-8" standalone="no"?>
<!DOCTYPE svg PUBLIC "-//W3C//DTD SVG 1.1//EN"
  "http://www.w3.org/Graphics/SVG/1.1/DTD/svg11.dtd">
<!-- Created with matplotlib (https://matplotlib.org/) -->
<svg height="312.096375pt" version="1.1" viewBox="0 0 425.074687 312.096375" width="425.074687pt" xmlns="http://www.w3.org/2000/svg" xmlns:xlink="http://www.w3.org/1999/xlink">
 <metadata>
  <rdf:RDF xmlns:cc="http://creativecommons.org/ns#" xmlns:dc="http://purl.org/dc/elements/1.1/" xmlns:rdf="http://www.w3.org/1999/02/22-rdf-syntax-ns#">
   <cc:Work>
    <dc:type rdf:resource="http://purl.org/dc/dcmitype/StillImage"/>
    <dc:date>2023-10-16T01:56:09.417099</dc:date>
    <dc:format>image/svg+xml</dc:format>
    <dc:creator>
     <cc:Agent>
      <dc:title>Matplotlib v3.3.4, https://matplotlib.org/</dc:title>
     </cc:Agent>
    </dc:creator>
   </cc:Work>
  </rdf:RDF>
 </metadata>
 <defs>
  <style type="text/css">*{stroke-linecap:butt;stroke-linejoin:round;}</style>
 </defs>
 <g id="figure_1">
  <g id="patch_1">
   <path d="M 0 312.096375 
L 425.074687 312.096375 
L 425.074687 0 
L 0 0 
z
" style="fill:#ffffff;"/>
  </g>
  <g id="axes_1">
   <g id="patch_2">
    <path d="M 48.029688 288.21825 
L 405.149688 288.21825 
L 405.149688 22.10625 
L 48.029688 22.10625 
z
" style="fill:#ffffff;"/>
   </g>
   <g id="matplotlib.axis_1">
    <g id="xtick_1">
     <g id="line2d_1">
      <defs>
       <path d="M 0 0 
L 0 3.5 
" id="mae25069d72" style="stroke:#000000;stroke-width:0.8;"/>
      </defs>
      <g>
       <use style="stroke:#000000;stroke-width:0.8;" x="48.029687" xlink:href="#mae25069d72" y="288.21825"/>
      </g>
     </g>
     <g id="text_1">
      <!-- −1500 -->
      <g transform="translate(31.114844 302.816687)scale(0.1 -0.1)">
       <defs>
        <path d="M 10.59375 35.5 
L 73.1875 35.5 
L 73.1875 27.203125 
L 10.59375 27.203125 
z
" id="DejaVuSans-8722"/>
        <path d="M 12.40625 8.296875 
L 28.515625 8.296875 
L 28.515625 63.921875 
L 10.984375 60.40625 
L 10.984375 69.390625 
L 28.421875 72.90625 
L 38.28125 72.90625 
L 38.28125 8.296875 
L 54.390625 8.296875 
L 54.390625 0 
L 12.40625 0 
z
" id="DejaVuSans-49"/>
        <path d="M 10.796875 72.90625 
L 49.515625 72.90625 
L 49.515625 64.59375 
L 19.828125 64.59375 
L 19.828125 46.734375 
Q 21.96875 47.46875 24.109375 47.828125 
Q 26.265625 48.1875 28.421875 48.1875 
Q 40.625 48.1875 47.75 41.5 
Q 54.890625 34.8125 54.890625 23.390625 
Q 54.890625 11.625 47.5625 5.09375 
Q 40.234375 -1.421875 26.90625 -1.421875 
Q 22.3125 -1.421875 17.546875 -0.640625 
Q 12.796875 0.140625 7.71875 1.703125 
L 7.71875 11.625 
Q 12.109375 9.234375 16.796875 8.0625 
Q 21.484375 6.890625 26.703125 6.890625 
Q 35.15625 6.890625 40.078125 11.328125 
Q 45.015625 15.765625 45.015625 23.390625 
Q 45.015625 31 40.078125 35.4375 
Q 35.15625 39.890625 26.703125 39.890625 
Q 22.75 39.890625 18.8125 39.015625 
Q 14.890625 38.140625 10.796875 36.28125 
z
" id="DejaVuSans-53"/>
        <path d="M 31.78125 66.40625 
Q 24.171875 66.40625 20.328125 58.90625 
Q 16.5 51.421875 16.5 36.375 
Q 16.5 21.390625 20.328125 13.890625 
Q 24.171875 6.390625 31.78125 6.390625 
Q 39.453125 6.390625 43.28125 13.890625 
Q 47.125 21.390625 47.125 36.375 
Q 47.125 51.421875 43.28125 58.90625 
Q 39.453125 66.40625 31.78125 66.40625 
z
M 31.78125 74.21875 
Q 44.046875 74.21875 50.515625 64.515625 
Q 56.984375 54.828125 56.984375 36.375 
Q 56.984375 17.96875 50.515625 8.265625 
Q 44.046875 -1.421875 31.78125 -1.421875 
Q 19.53125 -1.421875 13.0625 8.265625 
Q 6.59375 17.96875 6.59375 36.375 
Q 6.59375 54.828125 13.0625 64.515625 
Q 19.53125 74.21875 31.78125 74.21875 
z
" id="DejaVuSans-48"/>
       </defs>
       <use xlink:href="#DejaVuSans-8722"/>
       <use x="83.789062" xlink:href="#DejaVuSans-49"/>
       <use x="147.412109" xlink:href="#DejaVuSans-53"/>
       <use x="211.035156" xlink:href="#DejaVuSans-48"/>
       <use x="274.658203" xlink:href="#DejaVuSans-48"/>
      </g>
     </g>
    </g>
    <g id="xtick_2">
     <g id="line2d_2">
      <g>
       <use style="stroke:#000000;stroke-width:0.8;" x="107.549688" xlink:href="#mae25069d72" y="288.21825"/>
      </g>
     </g>
     <g id="text_2">
      <!-- −1000 -->
      <g transform="translate(90.634844 302.816687)scale(0.1 -0.1)">
       <use xlink:href="#DejaVuSans-8722"/>
       <use x="83.789062" xlink:href="#DejaVuSans-49"/>
       <use x="147.412109" xlink:href="#DejaVuSans-48"/>
       <use x="211.035156" xlink:href="#DejaVuSans-48"/>
       <use x="274.658203" xlink:href="#DejaVuSans-48"/>
      </g>
     </g>
    </g>
    <g id="xtick_3">
     <g id="line2d_3">
      <g>
       <use style="stroke:#000000;stroke-width:0.8;" x="167.069687" xlink:href="#mae25069d72" y="288.21825"/>
      </g>
     </g>
     <g id="text_3">
      <!-- −500 -->
      <g transform="translate(153.336094 302.816687)scale(0.1 -0.1)">
       <use xlink:href="#DejaVuSans-8722"/>
       <use x="83.789062" xlink:href="#DejaVuSans-53"/>
       <use x="147.412109" xlink:href="#DejaVuSans-48"/>
       <use x="211.035156" xlink:href="#DejaVuSans-48"/>
      </g>
     </g>
    </g>
    <g id="xtick_4">
     <g id="line2d_4">
      <g>
       <use style="stroke:#000000;stroke-width:0.8;" x="226.589687" xlink:href="#mae25069d72" y="288.21825"/>
      </g>
     </g>
     <g id="text_4">
      <!-- 0 -->
      <g transform="translate(223.408437 302.816687)scale(0.1 -0.1)">
       <use xlink:href="#DejaVuSans-48"/>
      </g>
     </g>
    </g>
    <g id="xtick_5">
     <g id="line2d_5">
      <g>
       <use style="stroke:#000000;stroke-width:0.8;" x="286.109688" xlink:href="#mae25069d72" y="288.21825"/>
      </g>
     </g>
     <g id="text_5">
      <!-- 500 -->
      <g transform="translate(276.565938 302.816687)scale(0.1 -0.1)">
       <use xlink:href="#DejaVuSans-53"/>
       <use x="63.623047" xlink:href="#DejaVuSans-48"/>
       <use x="127.246094" xlink:href="#DejaVuSans-48"/>
      </g>
     </g>
    </g>
    <g id="xtick_6">
     <g id="line2d_6">
      <g>
       <use style="stroke:#000000;stroke-width:0.8;" x="345.629687" xlink:href="#mae25069d72" y="288.21825"/>
      </g>
     </g>
     <g id="text_6">
      <!-- 1000 -->
      <g transform="translate(332.904687 302.816687)scale(0.1 -0.1)">
       <use xlink:href="#DejaVuSans-49"/>
       <use x="63.623047" xlink:href="#DejaVuSans-48"/>
       <use x="127.246094" xlink:href="#DejaVuSans-48"/>
       <use x="190.869141" xlink:href="#DejaVuSans-48"/>
      </g>
     </g>
    </g>
    <g id="xtick_7">
     <g id="line2d_7">
      <g>
       <use style="stroke:#000000;stroke-width:0.8;" x="405.149688" xlink:href="#mae25069d72" y="288.21825"/>
      </g>
     </g>
     <g id="text_7">
      <!-- 1500 -->
      <g transform="translate(392.424688 302.816687)scale(0.1 -0.1)">
       <use xlink:href="#DejaVuSans-49"/>
       <use x="63.623047" xlink:href="#DejaVuSans-53"/>
       <use x="127.246094" xlink:href="#DejaVuSans-48"/>
       <use x="190.869141" xlink:href="#DejaVuSans-48"/>
      </g>
     </g>
    </g>
   </g>
   <g id="matplotlib.axis_2">
    <g id="ytick_1">
     <g id="line2d_8">
      <defs>
       <path d="M 0 0 
L -3.5 0 
" id="mba1e8feb61" style="stroke:#000000;stroke-width:0.8;"/>
      </defs>
      <g>
       <use style="stroke:#000000;stroke-width:0.8;" x="48.029688" xlink:href="#mba1e8feb61" y="288.21825"/>
      </g>
     </g>
     <g id="text_8">
      <!-- −1500 -->
      <g transform="translate(7.2 292.017469)scale(0.1 -0.1)">
       <use xlink:href="#DejaVuSans-8722"/>
       <use x="83.789062" xlink:href="#DejaVuSans-49"/>
       <use x="147.412109" xlink:href="#DejaVuSans-53"/>
       <use x="211.035156" xlink:href="#DejaVuSans-48"/>
       <use x="274.658203" xlink:href="#DejaVuSans-48"/>
      </g>
     </g>
    </g>
    <g id="ytick_2">
     <g id="line2d_9">
      <g>
       <use style="stroke:#000000;stroke-width:0.8;" x="48.029688" xlink:href="#mba1e8feb61" y="243.86625"/>
      </g>
     </g>
     <g id="text_9">
      <!-- −1000 -->
      <g transform="translate(7.2 247.665469)scale(0.1 -0.1)">
       <use xlink:href="#DejaVuSans-8722"/>
       <use x="83.789062" xlink:href="#DejaVuSans-49"/>
       <use x="147.412109" xlink:href="#DejaVuSans-48"/>
       <use x="211.035156" xlink:href="#DejaVuSans-48"/>
       <use x="274.658203" xlink:href="#DejaVuSans-48"/>
      </g>
     </g>
    </g>
    <g id="ytick_3">
     <g id="line2d_10">
      <g>
       <use style="stroke:#000000;stroke-width:0.8;" x="48.029688" xlink:href="#mba1e8feb61" y="199.51425"/>
      </g>
     </g>
     <g id="text_10">
      <!-- −500 -->
      <g transform="translate(13.5625 203.313469)scale(0.1 -0.1)">
       <use xlink:href="#DejaVuSans-8722"/>
       <use x="83.789062" xlink:href="#DejaVuSans-53"/>
       <use x="147.412109" xlink:href="#DejaVuSans-48"/>
       <use x="211.035156" xlink:href="#DejaVuSans-48"/>
      </g>
     </g>
    </g>
    <g id="ytick_4">
     <g id="line2d_11">
      <g>
       <use style="stroke:#000000;stroke-width:0.8;" x="48.029688" xlink:href="#mba1e8feb61" y="155.16225"/>
      </g>
     </g>
     <g id="text_11">
      <!-- 0 -->
      <g transform="translate(34.667187 158.961469)scale(0.1 -0.1)">
       <use xlink:href="#DejaVuSans-48"/>
      </g>
     </g>
    </g>
    <g id="ytick_5">
     <g id="line2d_12">
      <g>
       <use style="stroke:#000000;stroke-width:0.8;" x="48.029688" xlink:href="#mba1e8feb61" y="110.81025"/>
      </g>
     </g>
     <g id="text_12">
      <!-- 500 -->
      <g transform="translate(21.942187 114.609469)scale(0.1 -0.1)">
       <use xlink:href="#DejaVuSans-53"/>
       <use x="63.623047" xlink:href="#DejaVuSans-48"/>
       <use x="127.246094" xlink:href="#DejaVuSans-48"/>
      </g>
     </g>
    </g>
    <g id="ytick_6">
     <g id="line2d_13">
      <g>
       <use style="stroke:#000000;stroke-width:0.8;" x="48.029688" xlink:href="#mba1e8feb61" y="66.45825"/>
      </g>
     </g>
     <g id="text_13">
      <!-- 1000 -->
      <g transform="translate(15.579687 70.257469)scale(0.1 -0.1)">
       <use xlink:href="#DejaVuSans-49"/>
       <use x="63.623047" xlink:href="#DejaVuSans-48"/>
       <use x="127.246094" xlink:href="#DejaVuSans-48"/>
       <use x="190.869141" xlink:href="#DejaVuSans-48"/>
      </g>
     </g>
    </g>
    <g id="ytick_7">
     <g id="line2d_14">
      <g>
       <use style="stroke:#000000;stroke-width:0.8;" x="48.029688" xlink:href="#mba1e8feb61" y="22.10625"/>
      </g>
     </g>
     <g id="text_14">
      <!-- 1500 -->
      <g transform="translate(15.579687 25.905469)scale(0.1 -0.1)">
       <use xlink:href="#DejaVuSans-49"/>
       <use x="63.623047" xlink:href="#DejaVuSans-53"/>
       <use x="127.246094" xlink:href="#DejaVuSans-48"/>
       <use x="190.869141" xlink:href="#DejaVuSans-48"/>
      </g>
     </g>
    </g>
   </g>
   <g id="line2d_15">
    <path clip-path="url(#p6316607a9b)" d="M 226.589687 155.16225 
L 225.994487 154.49697 
L 225.220728 153.876042 
L 223.435127 153.521226 
L 218.316407 154.186506 
L 216.649847 153.876042 
L 217.185528 152.900298 
L 217.780728 152.235018 
L 217.364087 151.569738 
L 216.173687 150.94881 
L 215.459448 150.593994 
L 215.459448 150.593994 
L 215.459448 150.593994 
L 214.864248 149.61825 
L 214.447608 148.332042 
L 213.911927 147.356298 
L 212.721528 146.691018 
L 211.709688 146.07009 
L 213.316727 145.094346 
L 215.459448 143.63073 
" style="fill:none;stroke:#1f77b4;stroke-linecap:square;stroke-width:1.5;"/>
   </g>
   <g id="line2d_16">
    <path clip-path="url(#p6316607a9b)" d="M 226.589687 155.16225 
L 228.970487 154.896138 
L 231.470327 154.541322 
L 233.851127 154.186506 
L 236.112887 153.920394 
L 237.541368 153.565578 
L 238.850808 153.210762 
L 240.041207 153.210762 
L 241.469687 152.94465 
L 242.660088 152.94465 
L 243.969527 152.589834 
L 245.398008 152.235018 
L 246.707448 152.94465 
L 248.254967 153.565578 
L 249.445368 153.920394 
L 250.635767 154.186506 
L 251.826167 154.186506 
L 253.016568 154.541322 
L 254.206967 154.541322 
L 255.397368 154.896138 
" style="fill:none;stroke:#ff7f0e;stroke-linecap:square;stroke-width:1.5;"/>
   </g>
   <g id="line2d_17">
    <path clip-path="url(#p6316607a9b)" d="M 226.589687 155.16225 
L 227.184888 155.16225 
L 228.018168 155.16225 
L 228.732407 155.16225 
L 229.565687 154.807434 
L 230.279927 154.807434 
L 231.113207 154.807434 
L 231.827448 154.807434 
L 234.922487 155.295306 
L 239.267448 156.27105 
L 240.874487 155.16225 
L 241.826808 155.428362 
L 242.898167 155.428362 
L 243.850487 155.428362 
L 244.802808 155.428362 
L 245.755127 155.428362 
L 246.826487 155.783178 
L 248.016887 155.783178 
L 249.207288 155.783178 
L 250.397687 155.783178 
" style="fill:none;stroke:#2ca02c;stroke-linecap:square;stroke-width:1.5;"/>
   </g>
   <g id="line2d_18">
    <path clip-path="url(#p6316607a9b)" d="M 226.589687 155.16225 
L 227.720567 155.16225 
L 229.030008 155.16225 
L 230.220407 155.16225 
L 231.351287 155.16225 
L 232.541687 155.16225 
L 233.672567 155.16225 
L 234.982008 155.16225 
L 236.172407 155.16225 
L 237.362808 155.16225 
L 237.958008 155.783178 
L 236.291448 156.758922 
L 231.648888 156.758922 
L 227.006327 156.758922 
L 224.387448 156.49281 
L 222.482808 156.49281 
L 220.340088 156.758922 
L 217.364087 156.758922 
L 214.626168 156.758922 
L 215.221367 156.49281 
" style="fill:none;stroke:#d62728;stroke-linecap:square;stroke-width:1.5;"/>
   </g>
   <g id="line2d_19">
    <path clip-path="url(#p6316607a9b)" d="M 226.589687 155.16225 
L 228.256248 154.807434 
L 228.613368 154.807434 
L 228.375287 155.16225 
L 228.256248 155.783178 
L 228.018168 156.137994 
L 228.018168 156.49281 
L 228.375287 157.113738 
L 228.672888 157.60161 
L 229.089528 158.089482 
L 229.446647 158.577354 
L 229.744248 159.242634 
L 230.160888 159.553098 
L 230.637047 159.553098 
L 231.232247 159.553098 
L 231.708407 159.553098 
L 232.601207 159.37569 
L 234.327287 159.198282 
L 236.648567 159.065226 
L 242.481527 158.089482 
" style="fill:none;stroke:#9467bd;stroke-linecap:square;stroke-width:1.5;"/>
   </g>
   <g id="line2d_20">
    <path clip-path="url(#p6316607a9b)" d="M 226.589687 155.16225 
L 221.709047 155.783178 
L 213.495287 155.783178 
L 208.793207 155.783178 
L 201.948408 155.16225 
L 198.377207 155.783178 
L 194.329847 155.650122 
L 189.508727 155.472714 
L 184.806647 155.472714 
L 184.092408 155.472714 
L 184.092408 155.295306 
L 184.092408 155.16225 
L 183.140087 155.16225 
L 181.830647 155.472714 
L 180.402167 155.783178 
L 178.854647 156.137994 
L 177.426167 156.758922 
L 176.116727 157.113738 
L 174.569208 157.424202 
L 173.140727 157.734666 
" style="fill:none;stroke:#8c564b;stroke-linecap:square;stroke-width:1.5;"/>
   </g>
   <g id="line2d_21">
    <path clip-path="url(#p6316607a9b)" d="M 226.589687 155.16225 
L 221.530487 157.60161 
L 213.495287 158.577354 
L 209.090807 157.912074 
L 202.246007 157.60161 
L 198.734328 158.222538 
L 194.329847 158.222538 
L 189.389688 157.734666 
L 185.758967 158.577354 
L 184.687608 158.754762 
L 184.211447 158.754762 
L 183.854328 158.754762 
L 182.723447 158.887818 
L 181.414007 158.887818 
L 179.985527 158.887818 
L 178.438007 159.242634 
L 177.128568 159.242634 
L 175.700087 159.242634 
L 174.152568 159.553098 
L 172.783608 159.553098 
" style="fill:none;stroke:#e377c2;stroke-linecap:square;stroke-width:1.5;"/>
   </g>
   <g id="line2d_22">
    <path clip-path="url(#p6316607a9b)" d="M 226.589687 155.16225 
L 220.756728 155.472714 
L 212.721528 155.16225 
L 206.829048 155.16225 
L 201.174647 155.472714 
L 197.246328 155.16225 
L 193.377527 154.851786 
L 188.615927 154.49697 
L 183.973367 154.49697 
L 182.544888 154.49697 
L 181.949687 154.49697 
L 181.235447 154.49697 
L 179.806967 154.49697 
L 178.080888 154.49697 
L 176.116727 154.49697 
L 174.331128 154.49697 
L 172.605048 154.49697 
L 171.414648 154.851786 
L 170.045687 154.851786 
L 168.676727 155.16225 
" style="fill:none;stroke:#7f7f7f;stroke-linecap:square;stroke-width:1.5;"/>
   </g>
   <g id="line2d_23">
    <path clip-path="url(#p6316607a9b)" d="M 226.589687 155.16225 
L 227.780088 155.517066 
L 229.149047 155.517066 
L 230.339448 155.517066 
L 231.648888 155.82753 
L 233.077368 155.82753 
L 234.267767 155.82753 
L 235.577207 156.137994 
L 237.005687 156.137994 
L 238.136567 156.137994 
L 239.505527 156.49281 
L 240.874487 156.49281 
L 242.064887 156.49281 
L 243.433847 156.803274 
L 244.802808 156.803274 
L 245.933687 156.803274 
L 247.362167 157.113738 
L 248.731127 157.113738 
L 249.862008 157.113738 
L 251.290487 157.468554 
" style="fill:none;stroke:#bcbd22;stroke-linecap:square;stroke-width:1.5;"/>
   </g>
   <g id="line2d_24">
    <path clip-path="url(#p6316607a9b)" d="M 226.589687 155.16225 
L 227.958647 155.16225 
L 229.327607 155.472714 
L 230.518008 155.472714 
L 231.886967 155.472714 
L 233.255927 155.650122 
L 234.565368 155.650122 
L 235.874808 155.650122 
L 237.303288 155.650122 
L 238.493687 155.650122 
L 239.922168 155.650122 
L 241.350648 155.650122 
L 242.779127 155.650122 
L 244.029047 155.650122 
L 245.398008 155.650122 
L 246.826487 156.093642 
L 248.314487 156.625866 
L 249.802487 157.113738 
L 251.350008 157.557258 
L 251.588088 157.291146 
" style="fill:none;stroke:#17becf;stroke-linecap:square;stroke-width:1.5;"/>
   </g>
   <g id="line2d_25">
    <path clip-path="url(#p6316607a9b)" d="M 226.589687 155.16225 
L 226.589687 154.541322 
L 226.589687 154.186506 
L 225.756407 153.83169 
L 224.804088 153.83169 
L 223.851767 153.83169 
L 222.839927 153.565578 
L 223.256567 153.565578 
L 223.851767 153.210762 
L 224.387448 153.210762 
L 226.173047 151.61409 
L 227.363448 151.259274 
L 227.720567 152.235018 
L 227.899127 153.210762 
L 228.137207 154.186506 
L 228.315767 155.16225 
L 229.922808 155.517066 
L 230.458487 155.16225 
L 231.053687 153.83169 
L 232.065528 154.186506 
" style="fill:none;stroke:#1f77b4;stroke-linecap:square;stroke-width:1.5;"/>
   </g>
   <g id="line2d_26">
    <path clip-path="url(#p6316607a9b)" d="M 226.589687 155.16225 
L 228.851448 155.16225 
L 230.756088 155.16225 
L 232.898808 155.16225 
L 234.446327 155.517066 
L 235.636728 155.517066 
L 237.065207 155.517066 
L 238.374648 155.517066 
L 239.803127 155.783178 
L 241.112567 155.783178 
L 242.541047 155.783178 
L 243.850487 155.783178 
L 245.040887 155.783178 
L 246.231288 155.783178 
L 247.421687 155.517066 
L 248.612088 155.517066 
L 249.742967 155.16225 
L 250.873848 155.16225 
L 252.064247 154.807434 
L 253.254648 154.807434 
" style="fill:none;stroke:#ff7f0e;stroke-linecap:square;stroke-width:1.5;"/>
   </g>
   <g id="line2d_27">
    <path clip-path="url(#p6316607a9b)" d="M 226.589687 155.16225 
L 227.542007 155.16225 
L 228.732407 155.16225 
L 229.684728 155.16225 
L 230.875127 155.16225 
L 231.827448 155.16225 
L 233.017847 155.16225 
L 234.208247 155.16225 
L 236.231927 156.404106 
L 238.791288 157.912074 
L 240.160247 157.912074 
L 241.350648 157.912074 
L 242.541047 157.734666 
L 243.731448 157.734666 
L 245.159927 157.734666 
L 246.350327 157.734666 
L 247.600247 158.089482 
L 248.671607 158.222538 
L 249.862008 158.222538 
L 250.933368 158.533002 
" style="fill:none;stroke:#2ca02c;stroke-linecap:square;stroke-width:1.5;"/>
   </g>
   <g id="line2d_28">
    <path clip-path="url(#p6316607a9b)" d="M 226.589687 155.16225 
L 227.839607 155.472714 
L 229.268088 156.137994 
L 230.815607 156.625866 
L 232.006008 156.803274 
L 233.196407 156.980682 
L 234.267767 157.113738 
L 235.458168 157.424202 
L 236.648567 157.779018 
L 238.196088 157.779018 
L 239.624567 157.113738 
L 238.434168 157.113738 
L 237.005687 157.424202 
L 235.874808 157.424202 
L 234.267767 157.424202 
L 232.363127 157.424202 
L 230.994168 157.424202 
L 230.398967 157.424202 
L 229.803767 157.424202 
L 229.387127 157.424202 
" style="fill:none;stroke:#d62728;stroke-linecap:square;stroke-width:1.5;"/>
   </g>
   <g id="line2d_29">
    <path clip-path="url(#p6316607a9b)" d="M 226.589687 155.16225 
L 225.994487 155.82753 
L 225.161207 156.137994 
L 224.387448 156.49281 
L 223.851767 156.803274 
L 223.018487 157.468554 
L 221.828088 158.089482 
L 220.280567 158.089482 
L 219.506808 157.779018 
L 217.899767 158.089482 
L 215.757047 158.444298 
L 214.804727 158.444298 
L 214.566647 158.089482 
L 214.447608 158.089482 
L 214.209528 157.779018 
L 214.209528 157.468554 
L 214.030968 157.113738 
L 213.852407 157.113738 
L 214.804727 156.625866 
L 216.173687 156.004938 
" style="fill:none;stroke:#9467bd;stroke-linecap:square;stroke-width:1.5;"/>
   </g>
   <g id="line2d_30">
    <path clip-path="url(#p6316607a9b)" d="M 226.589687 155.16225 
L 227.780088 155.472714 
L 229.089528 155.472714 
L 230.279927 155.472714 
L 231.648888 155.472714 
L 232.839287 155.472714 
L 234.208247 155.472714 
L 235.398647 155.472714 
L 236.708088 155.472714 
L 238.136567 155.783178 
L 239.326967 155.783178 
L 240.636407 155.783178 
L 241.826808 155.783178 
L 243.255288 155.783178 
L 244.386167 155.783178 
L 245.755127 155.783178 
L 247.124088 155.783178 
L 248.254967 156.137994 
L 249.683447 156.137994 
L 250.873848 156.137994 
" style="fill:none;stroke:#8c564b;stroke-linecap:square;stroke-width:1.5;"/>
   </g>
   <g id="line2d_31">
    <path clip-path="url(#p6316607a9b)" d="M 226.589687 155.16225 
L 227.780088 155.16225 
L 229.208567 155.16225 
L 230.518008 155.16225 
L 231.708407 155.16225 
L 233.077368 155.16225 
L 234.327287 155.16225 
L 235.815288 154.984842 
L 237.184247 154.984842 
L 238.434168 154.851786 
L 239.922168 154.851786 
L 241.291127 154.674378 
L 242.660088 154.674378 
L 244.088568 154.49697 
L 245.398008 154.49697 
L 246.945527 154.807434 
L 248.374008 155.16225 
L 249.921527 155.783178 
L 251.469047 156.137994 
L 251.230967 156.137994 
" style="fill:none;stroke:#e377c2;stroke-linecap:square;stroke-width:1.5;"/>
   </g>
   <g id="line2d_32">
    <path clip-path="url(#p6316607a9b)" d="M 226.589687 155.16225 
L 226.411127 154.851786 
L 225.994487 154.851786 
L 225.042168 154.541322 
L 223.673207 154.541322 
L 222.304248 154.541322 
L 220.875767 154.541322 
L 221.709047 154.541322 
L 222.542327 154.541322 
L 223.494647 154.541322 
L 224.208888 154.541322 
L 224.804088 154.541322 
L 225.637368 154.851786 
L 226.232567 154.851786 
L 226.946808 155.16225 
L 227.542007 155.16225 
L 228.375287 155.517066 
L 229.208567 155.517066 
L 229.922808 156.137994 
L 230.875127 156.49281 
" style="fill:none;stroke:#7f7f7f;stroke-linecap:square;stroke-width:1.5;"/>
   </g>
   <g id="line2d_33">
    <path clip-path="url(#p6316607a9b)" d="M 226.589687 155.16225 
L 226.589687 155.472714 
L 226.589687 156.137994 
L 226.589687 156.758922 
L 226.589687 157.113738 
L 226.589687 157.734666 
L 226.232567 158.399946 
L 225.280248 159.37569 
L 223.494647 160.04097 
L 222.542327 160.04097 
L 221.590007 160.04097 
L 220.518647 160.04097 
L 219.804407 160.04097 
L 218.852088 160.04097 
L 217.780728 160.04097 
L 217.066487 160.04097 
L 215.280888 160.04097 
L 213.733367 160.04097 
L 212.185847 160.04097 
L 210.638328 160.04097 
" style="fill:none;stroke:#bcbd22;stroke-linecap:square;stroke-width:1.5;"/>
   </g>
   <g id="line2d_34">
    <path clip-path="url(#p6316607a9b)" d="M 226.589687 155.16225 
L 225.042168 155.16225 
L 223.494647 155.16225 
L 224.685047 155.472714 
L 227.780088 155.472714 
L 226.827767 155.472714 
L 225.518327 155.16225 
L 224.089847 155.16225 
L 222.780407 154.807434 
L 221.113847 154.807434 
L 219.804407 154.49697 
L 218.375927 154.49697 
L 217.126007 154.49697 
L 215.757047 154.49697 
L 214.388087 154.49697 
L 213.019127 154.674378 
L 211.769207 154.807434 
L 210.400248 154.807434 
L 209.031287 154.984842 
L 207.602807 154.984842 
" style="fill:none;stroke:#17becf;stroke-linecap:square;stroke-width:1.5;"/>
   </g>
   <g id="line2d_35">
    <path clip-path="url(#p6316607a9b)" d="M 226.589687 155.16225 
L 225.220728 155.339658 
L 223.851767 155.472714 
L 222.482808 155.472714 
L 221.173367 155.472714 
L 219.625847 155.82753 
L 215.340407 155.82753 
L 210.816888 156.137994 
L 206.531448 156.137994 
L 202.781688 156.137994 
L 199.508087 156.137994 
L 196.532087 156.448458 
L 193.794168 156.803274 
L 191.234807 157.113738 
L 189.092087 157.113738 
L 188.318328 156.803274 
L 187.485048 156.137994 
L 186.354167 156.137994 
L 184.985208 156.137994 
L 183.616247 156.448458 
" style="fill:none;stroke:#1f77b4;stroke-linecap:square;stroke-width:1.5;"/>
   </g>
   <g id="line2d_36">
    <path clip-path="url(#p6316607a9b)" d="M 226.589687 155.16225 
L 226.768248 156.137994 
L 227.006327 157.113738 
L 227.125368 158.444298 
L 227.363448 159.37569 
L 227.720567 160.661898 
L 227.958647 161.637642 
L 228.196728 162.968202 
L 228.196728 163.943946 
L 228.196728 164.91969 
L 227.958647 165.895434 
L 227.958647 167.13729 
L 227.958647 168.822666 
L 227.958647 170.064522 
L 228.196728 171.749898 
L 228.196728 173.34657 
L 228.196728 174.67713 
L 228.196728 176.273802 
L 228.256248 177.737418 
L 228.137207 179.201034 
" style="fill:none;stroke:#ff7f0e;stroke-linecap:square;stroke-width:1.5;"/>
   </g>
   <g id="line2d_37">
    <path clip-path="url(#p6316607a9b)" d="M 226.589687 155.16225 
L 225.577847 155.472714 
L 224.863608 155.783178 
L 224.030327 155.783178 
L 223.256567 156.137994 
L 222.482808 156.448458 
L 220.102007 158.399946 
L 217.959287 160.351434 
L 215.578487 162.302922 
L 213.316727 164.25441 
L 210.697847 166.205898 
L 208.376567 168.157386 
L 206.650487 169.443594 
L 206.233847 169.443594 
L 205.638647 169.79841 
L 204.269688 171.395082 
L 203.079287 173.036106 
L 203.079287 173.34657 
L 203.317367 173.701386 
L 203.317367 174.01185 
" style="fill:none;stroke:#2ca02c;stroke-linecap:square;stroke-width:1.5;"/>
   </g>
   <g id="line2d_38">
    <path clip-path="url(#p6316607a9b)" d="M 226.589687 155.16225 
L 227.184888 155.517066 
L 227.720567 155.871882 
L 228.732407 156.49281 
L 229.922808 157.468554 
L 230.041847 158.444298 
L 229.684728 159.065226 
L 229.327607 159.774858 
L 228.375287 160.573194 
L 227.422967 161.37153 
L 226.232567 162.347274 
L 225.280248 163.012554 
L 224.089847 163.633482 
L 222.899448 164.609226 
L 221.947127 165.274506 
L 220.756728 166.25025 
L 219.804407 167.225994 
L 218.435448 167.891274 
L 217.245047 168.512202 
L 216.114168 169.177482 
" style="fill:none;stroke:#d62728;stroke-linecap:square;stroke-width:1.5;"/>
   </g>
   <g id="line2d_39">
    <path clip-path="url(#p6316607a9b)" d="M 226.589687 155.16225 
L 225.815927 155.82753 
L 224.625528 156.448458 
L 223.078007 157.424202 
L 221.530487 158.089482 
L 219.923448 158.754762 
L 218.375927 159.37569 
L 217.006968 160.04097 
L 215.816567 161.016714 
L 214.626168 161.681994 
L 213.435767 162.302922 
L 212.304888 163.278666 
L 210.935927 163.943946 
L 209.745528 164.564874 
L 208.376567 164.91969 
L 207.007608 165.540618 
L 205.817207 166.072842 
L 204.626807 166.383306 
L 203.376888 166.826826 
L 201.829367 167.536458 
" style="fill:none;stroke:#9467bd;stroke-linecap:square;stroke-width:1.5;"/>
   </g>
   <g id="line2d_40">
    <path clip-path="url(#p6316607a9b)" d="M 226.589687 155.16225 
L 225.220728 156.137994 
L 223.673207 156.758922 
L 222.244728 157.424202 
L 221.113847 158.089482 
L 220.340088 158.089482 
L 219.149687 158.71041 
L 217.780728 159.37569 
L 216.173687 160.04097 
L 214.864248 160.661898 
L 213.435767 161.637642 
L 211.888248 162.613386 
L 210.340727 163.58913 
L 208.793207 164.564874 
L 207.602807 164.91969 
L 206.412408 164.91969 
L 205.222007 165.407562 
L 203.674487 166.205898 
L 202.126968 167.181642 
L 200.698487 168.290442 
" style="fill:none;stroke:#8c564b;stroke-linecap:square;stroke-width:1.5;"/>
   </g>
   <g id="line2d_41">
    <path clip-path="url(#p6316607a9b)" d="M 226.589687 155.16225 
L 226.232567 156.137994 
L 225.637368 157.424202 
L 225.280248 158.399946 
L 224.685047 159.37569 
L 224.327927 160.351434 
L 223.732728 161.327178 
L 223.256567 162.302922 
L 222.899448 163.278666 
L 222.899448 164.91969 
L 222.899448 166.205898 
L 222.899448 167.536458 
L 222.899448 168.822666 
L 222.899448 170.108874 
L 222.899448 171.439434 
L 222.899448 172.725642 
L 222.899448 174.01185 
L 222.899448 175.34241 
L 222.601847 177.426954 
L 222.482808 179.688906 
" style="fill:none;stroke:#e377c2;stroke-linecap:square;stroke-width:1.5;"/>
   </g>
   <g id="line2d_42">
    <path clip-path="url(#p6316607a9b)" d="M 226.589687 155.16225 
L 222.423287 155.16225 
L 215.995127 155.517066 
L 209.686007 155.82753 
L 204.448248 155.517066 
L 199.329527 156.137994 
L 195.401207 156.137994 
L 191.472888 155.517066 
L 188.973048 155.82753 
L 188.199287 154.541322 
L 186.830328 155.517066 
L 185.818488 153.210762 
L 184.449527 153.565578 
L 182.544888 154.186506 
L 180.521208 154.541322 
L 178.795128 154.851786 
L 177.426167 154.541322 
L 176.057208 153.876042 
L 174.688247 153.210762 
L 173.735928 153.210762 
" style="fill:none;stroke:#7f7f7f;stroke-linecap:square;stroke-width:1.5;"/>
   </g>
   <g id="line2d_43">
    <path clip-path="url(#p6316607a9b)" d="M 226.589687 155.16225 
L 229.803767 155.472714 
L 232.839287 155.82753 
L 235.993847 156.137994 
L 239.088887 156.448458 
L 240.874487 155.960586 
L 242.064887 155.650122 
L 241.707767 155.650122 
L 241.291127 155.650122 
L 240.874487 155.650122 
L 240.517368 155.650122 
L 240.160247 155.960586 
L 239.684088 155.960586 
L 239.326967 155.960586 
L 238.969847 155.960586 
L 238.553207 155.960586 
L 238.136567 156.27105 
L 237.779448 156.27105 
L 237.422327 156.27105 
L 236.946168 156.27105 
" style="fill:none;stroke:#bcbd22;stroke-linecap:square;stroke-width:1.5;"/>
   </g>
   <g id="line2d_44">
    <path clip-path="url(#p6316607a9b)" d="M 226.589687 155.16225 
L 225.637368 155.517066 
L 224.685047 155.517066 
L 223.613687 155.517066 
L 222.661367 155.517066 
L 221.709047 155.517066 
L 220.756728 155.517066 
L 219.923448 155.517066 
L 221.113847 155.82753 
L 223.613687 155.82753 
L 223.256567 155.82753 
L 222.661367 155.82753 
L 222.066168 155.82753 
L 221.351927 155.82753 
L 220.756728 155.82753 
L 220.161528 155.82753 
L 219.566327 155.82753 
L 218.971127 155.82753 
L 218.375927 155.82753 
L 217.780728 155.650122 
" style="fill:none;stroke:#17becf;stroke-linecap:square;stroke-width:1.5;"/>
   </g>
   <g id="line2d_45">
    <path clip-path="url(#p6316607a9b)" d="M 226.589687 155.16225 
L 225.994487 155.16225 
L 225.399287 154.984842 
L 224.804088 154.851786 
L 224.446967 154.851786 
L 223.851767 154.71873 
L 223.256567 154.71873 
L 222.720888 154.541322 
L 222.185207 154.541322 
L 221.590007 154.541322 
L 219.625847 154.186506 
L 215.935608 153.876042 
L 212.007287 153.876042 
L 208.317048 153.565578 
L 204.983927 153.210762 
L 202.246007 152.900298 
L 199.865207 152.900298 
L 197.484408 152.900298 
L 195.163128 152.900298 
L 193.198968 153.210762 
" style="fill:none;stroke:#1f77b4;stroke-linecap:square;stroke-width:1.5;"/>
   </g>
   <g id="line2d_46">
    <path clip-path="url(#p6316607a9b)" d="M 226.589687 155.16225 
L 225.815927 155.517066 
L 224.982647 155.517066 
L 224.030327 155.82753 
L 223.256567 155.82753 
L 222.482808 156.137994 
L 221.649528 156.137994 
L 220.935287 156.49281 
L 219.923448 156.49281 
L 219.506808 156.49281 
L 219.149687 156.49281 
L 218.792567 156.49281 
L 218.554487 156.49281 
L 218.197367 156.49281 
L 217.959287 156.49281 
L 217.602168 156.49281 
L 217.364087 156.49281 
L 217.006968 156.49281 
L 217.006968 156.315402 
L 217.185528 155.82753 
" style="fill:none;stroke:#ff7f0e;stroke-linecap:square;stroke-width:1.5;"/>
   </g>
   <g id="line2d_47">
    <path clip-path="url(#p6316607a9b)" d="M 226.589687 155.16225 
L 229.744248 154.807434 
L 232.839287 154.541322 
L 236.172407 154.186506 
L 239.326967 154.186506 
L 240.934008 154.186506 
L 241.886327 154.186506 
L 241.469687 154.186506 
L 240.934008 154.186506 
L 240.517368 154.186506 
L 240.100728 154.186506 
L 239.505527 154.186506 
L 239.148407 154.186506 
L 238.731767 154.186506 
L 238.196088 154.186506 
L 237.779448 154.186506 
L 237.362808 154.186506 
L 236.767607 154.186506 
L 236.410487 154.186506 
L 235.993847 154.186506 
" style="fill:none;stroke:#2ca02c;stroke-linecap:square;stroke-width:1.5;"/>
   </g>
   <g id="line2d_48">
    <path clip-path="url(#p6316607a9b)" d="M 226.589687 155.16225 
L 225.637368 155.517066 
L 224.685047 155.517066 
L 223.673207 155.871882 
L 222.899448 155.871882 
L 221.947127 156.137994 
L 220.935287 156.137994 
L 219.982968 156.137994 
L 221.530487 156.803274 
L 224.744567 157.291146 
L 224.446967 157.291146 
L 223.792248 156.980682 
L 223.197047 156.625866 
L 222.542327 156.49281 
L 221.947127 156.182346 
L 221.351927 156.004938 
L 220.518647 155.82753 
L 219.982968 155.82753 
L 219.328248 155.82753 
L 218.614007 155.82753 
" style="fill:none;stroke:#d62728;stroke-linecap:square;stroke-width:1.5;"/>
   </g>
   <g id="line2d_49">
    <path clip-path="url(#p6316607a9b)" d="M 226.589687 155.16225 
L 225.875448 154.984842 
L 225.280248 154.984842 
L 224.566007 154.984842 
L 223.970808 154.984842 
L 223.256567 154.851786 
L 222.542327 154.851786 
L 221.887608 154.851786 
L 221.292407 154.851786 
L 220.637687 154.851786 
L 218.733047 155.029194 
L 215.399927 155.029194 
L 212.066808 155.029194 
L 208.733688 155.029194 
L 205.460087 154.674378 
L 201.710328 153.698634 
L 198.615287 153.38817 
L 196.234488 153.698634 
L 193.913207 154.05345 
L 191.710967 154.363914 
" style="fill:none;stroke:#9467bd;stroke-linecap:square;stroke-width:1.5;"/>
   </g>
   <g id="line2d_50">
    <path clip-path="url(#p6316607a9b)" d="M 226.589687 155.16225 
L 225.637368 155.472714 
L 224.863608 155.82753 
L 223.851767 155.82753 
L 223.078007 156.137994 
L 222.125687 156.137994 
L 221.292407 156.448458 
L 220.340088 156.803274 
L 219.387767 156.803274 
L 218.971127 156.803274 
L 218.792567 156.803274 
L 218.554487 156.803274 
L 218.554487 156.803274 
L 218.375927 156.803274 
L 218.197367 156.803274 
L 217.959287 156.803274 
L 217.959287 156.803274 
L 217.780728 156.803274 
L 218.078328 157.291146 
L 218.673528 157.60161 
" style="fill:none;stroke:#8c564b;stroke-linecap:square;stroke-width:1.5;"/>
   </g>
   <g id="line2d_51">
    <path clip-path="url(#p6316607a9b)" d="M 226.589687 155.16225 
L 227.780088 155.517066 
L 229.149047 155.517066 
L 230.339448 155.517066 
L 231.708407 155.517066 
L 233.077368 155.82753 
L 234.267767 155.82753 
L 235.636728 155.82753 
L 236.767607 155.82753 
L 238.136567 155.82753 
L 239.505527 156.137994 
L 240.695927 156.137994 
L 242.064887 156.137994 
L 243.255288 156.137994 
L 244.624247 156.137994 
L 245.993207 156.49281 
L 247.183607 156.49281 
L 248.552568 156.49281 
L 249.683447 156.49281 
L 251.052407 156.49281 
" style="fill:none;stroke:#e377c2;stroke-linecap:square;stroke-width:1.5;"/>
   </g>
   <g id="line2d_52">
    <path clip-path="url(#p6316607a9b)" d="M 226.589687 155.16225 
L 227.780088 155.16225 
L 229.149047 155.16225 
L 230.339448 155.16225 
L 231.708407 155.16225 
L 233.077368 155.16225 
L 234.327287 155.16225 
L 235.636728 155.16225 
L 237.005687 154.984842 
L 238.255607 154.984842 
L 239.565047 154.807434 
L 240.874487 154.807434 
L 242.183927 154.674378 
L 243.552887 154.674378 
L 244.862327 154.674378 
L 246.409847 154.984842 
L 248.195448 155.339658 
L 249.742967 155.960586 
L 251.528568 156.315402 
L 251.528568 155.960586 
" style="fill:none;stroke:#7f7f7f;stroke-linecap:square;stroke-width:1.5;"/>
   </g>
   <g id="line2d_53">
    <path clip-path="url(#p6316607a9b)" d="M 226.589687 155.16225 
L 226.351608 154.49697 
L 226.351608 154.186506 
L 225.518327 153.876042 
L 224.566007 153.876042 
L 223.613687 153.876042 
L 222.780407 153.521226 
L 223.256567 153.210762 
L 223.613687 152.900298 
L 223.970808 152.545482 
L 225.518327 152.545482 
L 226.946808 152.900298 
L 227.601528 153.210762 
L 228.434808 153.521226 
L 229.149047 153.876042 
L 229.863287 154.05345 
L 229.208567 154.186506 
L 230.637047 154.851786 
L 230.398967 153.876042 
L 231.470327 154.49697 
" style="fill:none;stroke:#bcbd22;stroke-linecap:square;stroke-width:1.5;"/>
   </g>
   <g id="line2d_54">
    <path clip-path="url(#p6316607a9b)" d="M 226.589687 155.16225 
L 227.780088 155.517066 
L 229.089528 155.517066 
L 230.279927 155.517066 
L 231.708407 155.517066 
L 233.017847 155.517066 
L 234.208247 155.517066 
L 235.577207 155.517066 
L 236.708088 155.517066 
L 238.136567 155.517066 
L 239.505527 155.517066 
L 240.636407 155.517066 
L 242.064887 155.517066 
L 243.255288 155.517066 
L 244.564728 155.517066 
L 245.993207 155.517066 
L 247.124088 155.517066 
L 248.493047 155.517066 
L 249.683447 155.517066 
L 251.052407 155.517066 
" style="fill:none;stroke:#17becf;stroke-linecap:square;stroke-width:1.5;"/>
   </g>
   <g id="line2d_55">
    <path clip-path="url(#p6316607a9b)" d="M 226.589687 155.16225 
L 227.780088 155.16225 
L 229.089528 155.16225 
L 230.279927 155.16225 
L 231.708407 155.16225 
L 233.017847 155.472714 
L 234.505847 155.472714 
L 235.993847 155.472714 
L 237.481847 155.783178 
L 238.910327 155.783178 
L 240.517368 155.783178 
L 241.945847 156.137994 
L 243.433847 156.137994 
L 244.862327 156.137994 
L 246.350327 156.137994 
L 247.719288 156.137994 
L 249.266807 156.137994 
L 250.695288 155.783178 
L 252.242807 155.783178 
L 251.826167 155.472714 
" style="fill:none;stroke:#1f77b4;stroke-linecap:square;stroke-width:1.5;"/>
   </g>
   <g id="line2d_56">
    <path clip-path="url(#p6316607a9b)" d="M 226.589687 155.16225 
L 226.232567 155.16225 
L 225.637368 155.16225 
L 224.863608 155.472714 
L 223.673207 155.472714 
L 222.542327 155.82753 
L 221.411448 155.82753 
L 221.828088 155.82753 
L 222.423287 155.472714 
L 222.899448 155.472714 
L 223.673207 155.472714 
L 224.446967 155.82753 
L 225.280248 155.82753 
L 226.054007 156.137994 
L 226.827767 156.448458 
L 227.601528 156.803274 
L 228.375287 156.803274 
L 229.387127 155.82753 
L 230.160888 156.448458 
L 231.113207 156.803274 
" style="fill:none;stroke:#ff7f0e;stroke-linecap:square;stroke-width:1.5;"/>
   </g>
   <g id="line2d_57">
    <path clip-path="url(#p6316607a9b)" d="M 226.589687 155.16225 
L 229.863287 154.71873 
L 233.017847 154.05345 
L 236.172407 153.521226 
L 239.326967 153.077706 
L 239.326967 152.72289 
L 239.148407 152.72289 
L 238.910327 152.72289 
L 238.553207 152.72289 
L 238.374648 152.72289 
L 238.136567 152.72289 
L 236.589047 153.077706 
L 235.041528 153.38817 
L 233.851127 153.38817 
L 232.839287 153.38817 
L 231.886967 153.38817 
L 230.875127 153.077706 
L 229.744248 153.077706 
L 228.732407 153.077706 
L 227.780088 153.077706 
" style="fill:none;stroke:#2ca02c;stroke-linecap:square;stroke-width:1.5;"/>
   </g>
   <g id="line2d_58">
    <path clip-path="url(#p6316607a9b)" d="M 226.589687 155.16225 
L 225.458808 155.517066 
L 224.387448 155.694474 
L 223.316088 155.960586 
L 222.244728 156.137994 
L 219.625847 156.137994 
L 217.483127 156.004938 
L 216.768888 156.004938 
L 217.483127 156.625866 
L 219.863927 157.291146 
L 218.494968 157.291146 
L 216.887927 157.291146 
L 215.578487 157.291146 
L 214.388087 157.291146 
L 213.197688 157.291146 
L 212.007287 157.291146 
L 210.816888 157.60161 
L 209.507448 157.60161 
L 208.078968 157.956426 
L 206.769528 158.089482 
" style="fill:none;stroke:#d62728;stroke-linecap:square;stroke-width:1.5;"/>
   </g>
   <g id="line2d_59">
    <path clip-path="url(#p6316607a9b)" d="M 226.589687 155.16225 
L 225.280248 155.339658 
L 223.792248 155.650122 
L 222.423287 155.650122 
L 221.054327 155.960586 
L 219.685367 156.137994 
L 218.316407 156.315402 
L 216.947448 156.49281 
L 215.578487 156.625866 
L 214.209528 156.758922 
L 211.828727 156.758922 
L 208.495608 156.758922 
L 205.162487 156.758922 
L 201.650807 156.758922 
L 198.734328 156.758922 
L 195.996408 156.758922 
L 192.841848 156.49281 
L 189.330168 155.517066 
L 187.366007 155.517066 
L 186.175608 155.517066 
" style="fill:none;stroke:#9467bd;stroke-linecap:square;stroke-width:1.5;"/>
   </g>
   <g id="line2d_60">
    <path clip-path="url(#p6316607a9b)" d="M 226.589687 155.16225 
L 225.577847 155.16225 
L 224.208888 155.428362 
L 222.482808 155.428362 
L 221.113847 155.428362 
L 220.102007 155.428362 
L 219.149687 156.137994 
L 217.304567 156.27105 
L 217.006968 156.27105 
L 215.995127 154.807434 
L 215.221367 154.807434 
L 214.209528 155.16225 
L 213.435767 155.16225 
L 212.662007 155.16225 
L 211.471608 155.16225 
L 210.102647 155.16225 
L 208.971767 155.428362 
L 207.959927 156.137994 
L 207.007608 156.27105 
L 206.412408 156.27105 
" style="fill:none;stroke:#8c564b;stroke-linecap:square;stroke-width:1.5;"/>
   </g>
   <g id="line2d_61">
    <path clip-path="url(#p6316607a9b)" d="M 226.589687 155.16225 
L 229.565687 154.49697 
L 232.422647 153.83169 
L 235.398647 153.210762 
L 238.136567 152.855946 
L 238.434168 152.545482 
L 238.434168 152.545482 
L 238.434168 152.545482 
L 238.434168 152.412426 
L 238.434168 152.412426 
L 238.434168 152.412426 
L 236.470008 152.545482 
L 234.505847 153.033354 
L 233.374967 153.033354 
L 232.363127 153.033354 
L 231.351287 153.033354 
L 230.398967 153.033354 
L 229.208567 153.033354 
L 228.256248 153.033354 
L 227.303927 153.033354 
" style="fill:none;stroke:#e377c2;stroke-linecap:square;stroke-width:1.5;"/>
   </g>
   <g id="line2d_62">
    <path clip-path="url(#p6316607a9b)" d="M 226.589687 155.16225 
L 225.042168 155.517066 
L 223.435127 155.517066 
L 222.125687 155.517066 
L 220.518647 155.517066 
L 218.971127 155.16225 
L 217.364087 155.16225 
L 216.054647 155.783178 
L 217.185528 156.49281 
L 219.923448 156.758922 
L 218.971127 156.758922 
L 217.364087 156.758922 
L 215.816567 156.49281 
L 214.447608 156.49281 
L 212.900087 156.49281 
L 211.531127 156.49281 
L 209.983608 156.758922 
L 208.793207 156.758922 
L 207.602807 156.758922 
L 206.412408 156.758922 
" style="fill:none;stroke:#7f7f7f;stroke-linecap:square;stroke-width:1.5;"/>
   </g>
   <g id="line2d_63">
    <path clip-path="url(#p6316607a9b)" d="M 226.589687 155.16225 
L 225.458808 155.339658 
L 224.089847 155.339658 
L 222.899448 155.339658 
L 221.709047 155.339658 
L 220.518647 155.517066 
L 219.387767 155.517066 
L 218.018808 155.517066 
L 216.828407 155.517066 
L 215.638007 155.517066 
L 213.733367 155.82753 
L 210.400248 155.82753 
L 207.245688 155.82753 
L 203.912567 155.82753 
L 200.996087 156.182346 
L 198.436727 156.182346 
L 195.103608 156.182346 
L 190.401527 156.182346 
L 187.782647 157.468554 
L 186.592247 156.803274 
" style="fill:none;stroke:#bcbd22;stroke-linecap:square;stroke-width:1.5;"/>
   </g>
   <g id="line2d_64">
    <path clip-path="url(#p6316607a9b)" d="M 226.589687 155.16225 
L 225.815927 155.16225 
L 224.625528 155.472714 
L 223.078007 155.472714 
L 221.887608 155.472714 
L 221.411448 155.16225 
L 218.911608 155.16225 
L 218.256888 155.960586 
L 217.483127 156.93633 
L 216.352248 156.93633 
L 215.340407 156.27105 
L 214.328567 155.650122 
L 213.614328 155.650122 
L 212.602487 155.472714 
L 212.185847 155.472714 
L 211.054968 155.16225 
L 209.686007 155.472714 
L 208.674168 155.472714 
L 207.840888 155.783178 
L 207.245688 155.60577 
" style="fill:none;stroke:#17becf;stroke-linecap:square;stroke-width:1.5;"/>
   </g>
   <g id="line2d_65">
    <path clip-path="url(#p6316607a9b)" d="M 226.589687 155.16225 
L 227.363448 154.851786 
L 228.375287 154.541322 
L 229.149047 154.186506 
L 230.101368 153.876042 
L 230.875127 153.565578 
L 231.886967 153.210762 
L 232.660728 152.900298 
L 233.613047 152.589834 
L 233.851127 152.235018 
L 233.851127 152.235018 
L 233.851127 152.235018 
L 233.851127 152.235018 
L 233.851127 152.235018 
L 233.851127 152.235018 
L 233.851127 152.235018 
L 233.851127 152.235018 
L 233.851127 152.235018 
L 233.851127 152.235018 
L 233.851127 152.235018 
" style="fill:none;stroke:#1f77b4;stroke-linecap:square;stroke-width:1.5;"/>
   </g>
   <g id="line2d_66">
    <path clip-path="url(#p6316607a9b)" d="M 226.589687 155.16225 
L 227.184888 154.186506 
L 227.958647 152.855946 
L 228.732407 151.61409 
L 230.101368 150.904458 
L 231.648888 149.928714 
L 232.660728 149.928714 
L 233.613047 149.662602 
L 234.565368 149.307786 
L 235.577207 148.686858 
L 236.589047 147.977226 
L 237.541368 147.356298 
L 238.731767 146.380554 
L 239.684088 145.40481 
L 240.457847 144.783882 
L 241.231607 144.429066 
L 242.064887 143.808138 
L 243.195767 143.098506 
L 244.207607 142.477578 
L 245.398008 142.122762 
" style="fill:none;stroke:#ff7f0e;stroke-linecap:square;stroke-width:1.5;"/>
   </g>
   <g id="line2d_67">
    <path clip-path="url(#p6316607a9b)" d="M 226.589687 155.16225 
L 225.280248 155.472714 
L 223.851767 155.472714 
L 222.661367 155.472714 
L 221.530487 155.472714 
L 220.161528 155.16225 
L 218.971127 155.16225 
L 217.780728 155.16225 
L 216.471287 155.16225 
L 215.280888 155.16225 
L 213.852407 155.472714 
L 212.721528 155.472714 
L 211.352567 155.783178 
L 210.162168 155.783178 
L 208.971767 155.783178 
L 207.662328 156.137994 
L 206.471927 156.137994 
L 204.924408 156.448458 
L 203.317367 156.448458 
L 201.710328 156.758922 
" style="fill:none;stroke:#2ca02c;stroke-linecap:square;stroke-width:1.5;"/>
   </g>
   <g id="line2d_68">
    <path clip-path="url(#p6316607a9b)" d="M 226.589687 155.16225 
L 227.542007 153.876042 
L 228.494327 152.545482 
L 229.446647 151.569738 
L 230.279927 150.593994 
L 231.053687 149.973066 
L 232.065528 148.997322 
L 232.720247 148.332042 
L 233.434487 147.977226 
L 234.148728 147.533706 
L 235.160567 146.868426 
L 236.350967 145.892682 
L 237.481847 144.916938 
L 238.910327 143.941194 
L 240.041207 142.96545 
L 241.231607 141.989706 
L 242.422008 141.013962 
L 243.374327 140.038218 
L 244.564728 139.062474 
L 245.517047 137.776266 
" style="fill:none;stroke:#d62728;stroke-linecap:square;stroke-width:1.5;"/>
   </g>
   <g id="line2d_69">
    <path clip-path="url(#p6316607a9b)" d="M 226.589687 155.16225 
L 226.946808 153.83169 
L 227.184888 152.589834 
L 227.542007 151.259274 
L 227.780088 149.928714 
L 228.018168 148.686858 
L 228.018168 147.001482 
L 228.137207 145.759626 
L 228.137207 144.429066 
L 228.375287 142.832394 
L 228.375287 141.501834 
L 228.553847 139.905162 
L 228.553847 138.929418 
L 228.553847 137.953674 
L 228.553847 136.97793 
L 228.553847 136.002186 
L 228.553847 135.026442 
L 228.732407 134.050698 
L 228.732407 133.074954 
L 228.732407 132.09921 
" style="fill:none;stroke:#9467bd;stroke-linecap:square;stroke-width:1.5;"/>
   </g>
   <g id="line2d_70">
    <path clip-path="url(#p6316607a9b)" d="M 226.589687 155.16225 
L 226.589687 154.186506 
L 226.827767 153.210762 
L 226.827767 152.235018 
L 226.827767 151.259274 
L 226.827767 150.28353 
L 226.827767 149.307786 
L 226.827767 148.332042 
L 226.827767 147.001482 
L 226.827767 146.025738 
L 226.827767 145.049994 
L 226.827767 144.07425 
L 226.827767 143.098506 
L 226.827767 142.122762 
L 226.827767 141.147018 
L 226.827767 140.171274 
L 226.589687 139.372938 
L 226.351608 138.397194 
L 226.113528 137.42145 
L 225.815927 136.445706 
" style="fill:none;stroke:#8c564b;stroke-linecap:square;stroke-width:1.5;"/>
   </g>
   <g id="line2d_71">
    <path clip-path="url(#p6316607a9b)" d="M 226.589687 155.16225 
L 227.720567 155.029194 
L 229.030008 154.851786 
L 230.279927 154.674378 
L 231.470327 154.541322 
L 231.648888 154.71873 
L 231.291767 154.71873 
L 230.279927 154.71873 
L 229.268088 154.71873 
L 228.137207 154.71873 
L 227.125368 154.71873 
L 226.173047 155.029194 
L 225.220728 155.339658 
L 224.208888 155.339658 
L 222.839927 155.339658 
L 221.649528 155.339658 
L 220.340088 155.339658 
L 219.149687 155.339658 
L 217.721207 155.339658 
L 217.185528 156.670218 
" style="fill:none;stroke:#e377c2;stroke-linecap:square;stroke-width:1.5;"/>
   </g>
   <g id="line2d_72">
    <path clip-path="url(#p6316607a9b)" d="M 226.589687 155.16225 
L 225.220728 153.876042 
L 223.851767 153.876042 
L 222.304248 153.876042 
L 220.935287 153.876042 
L 219.566327 153.876042 
L 218.197367 153.876042 
L 216.828407 155.16225 
L 216.411767 155.472714 
L 216.411767 155.16225 
L 215.638007 155.472714 
L 214.864248 155.82753 
L 213.257207 155.472714 
L 211.114487 154.851786 
L 209.805048 154.851786 
L 208.376567 155.16225 
L 207.007608 155.472714 
L 205.876727 155.650122 
L 204.567287 156.004938 
L 203.436408 156.137994 
" style="fill:none;stroke:#7f7f7f;stroke-linecap:square;stroke-width:1.5;"/>
   </g>
   <g id="line2d_73">
    <path clip-path="url(#p6316607a9b)" d="M 226.589687 155.16225 
L 225.280248 155.517066 
L 224.089847 155.694474 
L 222.780407 156.004938 
L 221.590007 156.004938 
L 220.399608 156.004938 
L 219.268728 156.004938 
L 218.078328 156.004938 
L 216.887927 156.004938 
L 215.757047 156.004938 
L 213.971448 156.004938 
L 212.007287 155.694474 
L 210.281207 155.339658 
L 208.495608 155.339658 
L 206.710007 155.029194 
L 204.983927 154.71873 
L 203.376888 154.363914 
L 201.829367 154.05345 
L 200.460408 153.742986 
L 198.912888 153.38817 
" style="fill:none;stroke:#bcbd22;stroke-linecap:square;stroke-width:1.5;"/>
   </g>
   <g id="line2d_74">
    <path clip-path="url(#p6316607a9b)" d="M 226.589687 155.16225 
L 227.780088 155.16225 
L 228.791927 155.472714 
L 229.922808 155.472714 
L 231.113207 155.472714 
L 231.351287 155.472714 
L 231.113207 155.472714 
L 230.160888 155.472714 
L 229.149047 155.783178 
L 228.018168 155.783178 
L 227.006327 155.783178 
L 226.232567 155.783178 
L 225.458808 155.783178 
L 224.863608 155.783178 
L 223.673207 156.137994 
L 222.542327 156.448458 
L 221.351927 156.758922 
L 220.340088 157.113738 
L 219.209207 157.424202 
L 218.018808 157.734666 
" style="fill:none;stroke:#17becf;stroke-linecap:square;stroke-width:1.5;"/>
   </g>
   <g id="line2d_75">
    <path clip-path="url(#p6316607a9b)" d="M 226.589687 155.16225 
L 225.161207 155.517066 
L 223.851767 155.82753 
L 222.423287 155.82753 
L 221.054327 156.137994 
L 219.685367 156.137994 
L 218.316407 156.49281 
L 216.947448 156.49281 
L 215.995127 156.803274 
L 215.399927 156.803274 
L 214.626168 156.803274 
L 214.030968 156.803274 
L 213.019127 156.803274 
L 211.471608 156.803274 
L 209.924087 156.803274 
L 208.376567 156.803274 
L 206.769528 156.803274 
L 205.638647 157.113738 
L 204.210168 157.468554 
L 203.019768 157.468554 
" style="fill:none;stroke:#1f77b4;stroke-linecap:square;stroke-width:1.5;"/>
   </g>
   <g id="line2d_76">
    <path clip-path="url(#p6316607a9b)" d="M 226.589687 155.16225 
L 225.339767 155.472714 
L 224.089847 155.82753 
L 222.661367 156.137994 
L 221.470968 156.137994 
L 220.518647 155.82753 
L 219.566327 155.82753 
L 218.375927 155.472714 
L 217.423608 155.16225 
L 216.471287 155.16225 
L 214.685688 154.851786 
L 212.900087 154.49697 
L 211.114487 154.186506 
L 209.328888 154.186506 
L 207.424248 153.876042 
L 205.638647 153.521226 
L 203.734007 153.210762 
L 201.948408 152.900298 
L 200.162807 152.545482 
L 198.377207 152.235018 
" style="fill:none;stroke:#ff7f0e;stroke-linecap:square;stroke-width:1.5;"/>
   </g>
   <g id="line2d_77">
    <path clip-path="url(#p6316607a9b)" d="M 226.589687 155.16225 
L 228.137207 155.16225 
L 229.922808 154.807434 
L 231.470327 154.49697 
L 233.255927 154.49697 
L 232.898808 154.186506 
L 232.303607 154.186506 
L 231.708407 154.186506 
L 231.291767 154.186506 
L 230.756088 154.186506 
L 230.160888 154.186506 
L 227.422967 155.16225 
L 225.994487 154.807434 
L 224.804088 154.49697 
L 223.613687 154.807434 
L 222.482808 154.807434 
L 221.351927 154.807434 
L 220.340088 155.16225 
L 219.209207 155.16225 
L 218.018808 155.16225 
" style="fill:none;stroke:#2ca02c;stroke-linecap:square;stroke-width:1.5;"/>
   </g>
   <g id="line2d_78">
    <path clip-path="url(#p6316607a9b)" d="M 226.589687 155.16225 
L 224.982647 155.472714 
L 223.673207 155.472714 
L 222.244728 155.472714 
L 220.935287 155.472714 
L 219.387767 155.472714 
L 217.959287 155.472714 
L 216.649847 155.472714 
L 215.578487 155.783178 
L 215.042808 155.783178 
L 214.269047 156.137994 
L 213.673847 156.137994 
L 212.721528 156.137994 
L 211.174007 156.137994 
L 209.507448 156.137994 
L 208.198007 156.137994 
L 206.650487 156.137994 
L 205.162487 155.960586 
L 203.853048 155.960586 
L 202.424567 155.82753 
" style="fill:none;stroke:#d62728;stroke-linecap:square;stroke-width:1.5;"/>
   </g>
   <g id="line2d_79">
    <path clip-path="url(#p6316607a9b)" d="M 226.589687 155.16225 
L 225.161207 154.984842 
L 223.673207 154.984842 
L 222.363767 154.851786 
L 220.816248 154.674378 
L 219.625847 154.49697 
L 217.602168 154.807434 
L 215.876087 154.807434 
L 214.090487 155.16225 
L 212.364407 155.16225 
L 210.400248 155.16225 
L 208.614647 155.16225 
L 206.650487 155.16225 
L 204.745847 155.16225 
L 202.543608 155.16225 
L 200.579447 154.807434 
L 198.436727 154.49697 
L 196.294007 154.49697 
L 194.329847 154.49697 
L 192.365688 154.49697 
" style="fill:none;stroke:#9467bd;stroke-linecap:square;stroke-width:1.5;"/>
   </g>
   <g id="line2d_80">
    <path clip-path="url(#p6316607a9b)" d="M 226.589687 155.16225 
L 227.780088 155.16225 
L 228.910967 155.16225 
L 230.101368 155.16225 
L 231.291767 155.472714 
L 232.482168 155.650122 
L 233.672567 155.783178 
L 234.803448 155.960586 
L 235.993847 156.093642 
L 237.124728 156.448458 
L 238.434168 156.625866 
L 239.624567 156.803274 
L 240.755448 156.93633 
L 242.064887 157.246794 
L 243.195767 157.424202 
L 244.505207 157.424202 
L 245.636088 157.734666 
L 246.826487 157.912074 
L 247.064568 157.912074 
L 245.874167 157.912074 
" style="fill:none;stroke:#8c564b;stroke-linecap:square;stroke-width:1.5;"/>
   </g>
   <g id="line2d_81">
    <path clip-path="url(#p6316607a9b)" d="M 226.589687 155.16225 
L 225.399287 155.16225 
L 224.030327 155.16225 
L 222.482808 155.16225 
L 221.292407 155.16225 
L 220.697207 155.16225 
L 220.102007 155.16225 
L 219.625847 155.16225 
L 219.625847 155.16225 
L 219.804407 155.16225 
L 220.221047 155.16225 
L 220.637687 155.16225 
L 220.994808 155.16225 
L 221.232888 155.16225 
L 221.590007 155.16225 
L 221.947127 155.16225 
L 222.363767 155.16225 
L 222.958967 155.16225 
L 223.732728 155.16225 
L 224.566007 155.16225 
" style="fill:none;stroke:#e377c2;stroke-linecap:square;stroke-width:1.5;"/>
   </g>
   <g id="line2d_82">
    <path clip-path="url(#p6316607a9b)" d="M 226.589687 155.16225 
L 228.315767 155.16225 
L 227.958647 155.16225 
L 227.363448 155.16225 
L 227.006327 155.16225 
L 226.530168 154.984842 
L 225.994487 155.117898 
L 225.577847 155.117898 
L 225.101687 154.984842 
L 224.625528 154.984842 
L 224.149367 154.984842 
L 223.792248 155.16225 
L 223.256567 154.984842 
L 222.720888 154.984842 
L 222.363767 154.984842 
L 222.006647 154.807434 
L 221.054327 155.16225 
L 220.221047 155.472714 
L 219.387767 155.472714 
L 218.673528 155.783178 
" style="fill:none;stroke:#7f7f7f;stroke-linecap:square;stroke-width:1.5;"/>
   </g>
   <g id="line2d_83">
    <path clip-path="url(#p6316607a9b)" d="M 226.589687 155.16225 
L 225.875448 155.517066 
L 225.042168 155.517066 
L 226.470647 155.82753 
L 228.970487 156.137994 
L 228.613368 156.137994 
L 228.018168 155.82753 
L 227.184888 155.517066 
L 226.589687 155.16225 
L 225.875448 154.851786 
L 225.280248 154.541322 
L 224.685047 154.541322 
L 224.089847 154.541322 
L 223.494647 154.541322 
L 223.018487 154.541322 
L 222.423287 154.851786 
L 221.828088 154.851786 
L 221.351927 154.851786 
L 220.756728 155.16225 
L 220.280567 155.16225 
" style="fill:none;stroke:#bcbd22;stroke-linecap:square;stroke-width:1.5;"/>
   </g>
   <g id="line2d_84">
    <path clip-path="url(#p6316607a9b)" d="M 226.589687 155.16225 
L 225.994487 155.16225 
L 225.399287 155.517066 
L 224.923127 155.517066 
L 224.327927 155.517066 
L 222.423287 155.517066 
L 218.733047 155.517066 
L 214.923767 155.517066 
L 211.233528 155.517066 
L 207.900408 155.16225 
L 204.983927 154.186506 
L 202.424567 153.876042 
L 200.043768 153.876042 
L 197.782007 154.186506 
L 195.639287 154.541322 
L 194.806007 154.541322 
L 193.853688 154.851786 
L 192.901367 155.16225 
L 192.068087 155.16225 
L 191.115768 155.517066 
" style="fill:none;stroke:#17becf;stroke-linecap:square;stroke-width:1.5;"/>
   </g>
   <g id="line2d_85">
    <path clip-path="url(#p6316607a9b)" d="M 226.589687 155.16225 
L 222.542327 155.16225 
L 218.614007 155.16225 
L 214.685688 155.16225 
L 210.578807 155.16225 
L 206.650487 155.16225 
L 203.734007 155.16225 
L 202.900727 155.16225 
L 201.948408 155.16225 
L 201.174647 155.16225 
L 200.400888 155.16225 
L 199.389048 155.517066 
L 198.615287 155.517066 
L 197.841527 155.517066 
L 196.829688 155.517066 
L 196.115447 155.783178 
L 195.103608 155.783178 
L 194.329847 155.783178 
L 193.496567 155.783178 
L 192.960888 155.783178 
" style="fill:none;stroke:#1f77b4;stroke-linecap:square;stroke-width:1.5;"/>
   </g>
   <g id="patch_3">
    <path d="M 48.029688 288.21825 
L 48.029688 22.10625 
" style="fill:none;stroke:#000000;stroke-linecap:square;stroke-linejoin:miter;stroke-width:0.8;"/>
   </g>
   <g id="patch_4">
    <path d="M 405.149688 288.21825 
L 405.149688 22.10625 
" style="fill:none;stroke:#000000;stroke-linecap:square;stroke-linejoin:miter;stroke-width:0.8;"/>
   </g>
   <g id="patch_5">
    <path d="M 48.029687 288.21825 
L 405.149688 288.21825 
" style="fill:none;stroke:#000000;stroke-linecap:square;stroke-linejoin:miter;stroke-width:0.8;"/>
   </g>
   <g id="patch_6">
    <path d="M 48.029687 22.10625 
L 405.149688 22.10625 
" style="fill:none;stroke:#000000;stroke-linecap:square;stroke-linejoin:miter;stroke-width:0.8;"/>
   </g>
   <g id="text_15">
    <!-- nexus_3 -->
    <g transform="translate(201.903437 16.10625)scale(0.12 -0.12)">
     <defs>
      <path d="M 54.890625 33.015625 
L 54.890625 0 
L 45.90625 0 
L 45.90625 32.71875 
Q 45.90625 40.484375 42.875 44.328125 
Q 39.84375 48.1875 33.796875 48.1875 
Q 26.515625 48.1875 22.3125 43.546875 
Q 18.109375 38.921875 18.109375 30.90625 
L 18.109375 0 
L 9.078125 0 
L 9.078125 54.6875 
L 18.109375 54.6875 
L 18.109375 46.1875 
Q 21.34375 51.125 25.703125 53.5625 
Q 30.078125 56 35.796875 56 
Q 45.21875 56 50.046875 50.171875 
Q 54.890625 44.34375 54.890625 33.015625 
z
" id="DejaVuSans-110"/>
      <path d="M 56.203125 29.59375 
L 56.203125 25.203125 
L 14.890625 25.203125 
Q 15.484375 15.921875 20.484375 11.0625 
Q 25.484375 6.203125 34.421875 6.203125 
Q 39.59375 6.203125 44.453125 7.46875 
Q 49.3125 8.734375 54.109375 11.28125 
L 54.109375 2.78125 
Q 49.265625 0.734375 44.1875 -0.34375 
Q 39.109375 -1.421875 33.890625 -1.421875 
Q 20.796875 -1.421875 13.15625 6.1875 
Q 5.515625 13.8125 5.515625 26.8125 
Q 5.515625 40.234375 12.765625 48.109375 
Q 20.015625 56 32.328125 56 
Q 43.359375 56 49.78125 48.890625 
Q 56.203125 41.796875 56.203125 29.59375 
z
M 47.21875 32.234375 
Q 47.125 39.59375 43.09375 43.984375 
Q 39.0625 48.390625 32.421875 48.390625 
Q 24.90625 48.390625 20.390625 44.140625 
Q 15.875 39.890625 15.1875 32.171875 
z
" id="DejaVuSans-101"/>
      <path d="M 54.890625 54.6875 
L 35.109375 28.078125 
L 55.90625 0 
L 45.3125 0 
L 29.390625 21.484375 
L 13.484375 0 
L 2.875 0 
L 24.125 28.609375 
L 4.6875 54.6875 
L 15.28125 54.6875 
L 29.78125 35.203125 
L 44.28125 54.6875 
z
" id="DejaVuSans-120"/>
      <path d="M 8.5 21.578125 
L 8.5 54.6875 
L 17.484375 54.6875 
L 17.484375 21.921875 
Q 17.484375 14.15625 20.5 10.265625 
Q 23.53125 6.390625 29.59375 6.390625 
Q 36.859375 6.390625 41.078125 11.03125 
Q 45.3125 15.671875 45.3125 23.6875 
L 45.3125 54.6875 
L 54.296875 54.6875 
L 54.296875 0 
L 45.3125 0 
L 45.3125 8.40625 
Q 42.046875 3.421875 37.71875 1 
Q 33.40625 -1.421875 27.6875 -1.421875 
Q 18.265625 -1.421875 13.375 4.4375 
Q 8.5 10.296875 8.5 21.578125 
z
M 31.109375 56 
z
" id="DejaVuSans-117"/>
      <path d="M 44.28125 53.078125 
L 44.28125 44.578125 
Q 40.484375 46.53125 36.375 47.5 
Q 32.28125 48.484375 27.875 48.484375 
Q 21.1875 48.484375 17.84375 46.4375 
Q 14.5 44.390625 14.5 40.28125 
Q 14.5 37.15625 16.890625 35.375 
Q 19.28125 33.59375 26.515625 31.984375 
L 29.59375 31.296875 
Q 39.15625 29.25 43.1875 25.515625 
Q 47.21875 21.78125 47.21875 15.09375 
Q 47.21875 7.46875 41.1875 3.015625 
Q 35.15625 -1.421875 24.609375 -1.421875 
Q 20.21875 -1.421875 15.453125 -0.5625 
Q 10.6875 0.296875 5.421875 2 
L 5.421875 11.28125 
Q 10.40625 8.6875 15.234375 7.390625 
Q 20.0625 6.109375 24.8125 6.109375 
Q 31.15625 6.109375 34.5625 8.28125 
Q 37.984375 10.453125 37.984375 14.40625 
Q 37.984375 18.0625 35.515625 20.015625 
Q 33.0625 21.96875 24.703125 23.78125 
L 21.578125 24.515625 
Q 13.234375 26.265625 9.515625 29.90625 
Q 5.8125 33.546875 5.8125 39.890625 
Q 5.8125 47.609375 11.28125 51.796875 
Q 16.75 56 26.8125 56 
Q 31.78125 56 36.171875 55.265625 
Q 40.578125 54.546875 44.28125 53.078125 
z
" id="DejaVuSans-115"/>
      <path d="M 50.984375 -16.609375 
L 50.984375 -23.578125 
L -0.984375 -23.578125 
L -0.984375 -16.609375 
z
" id="DejaVuSans-95"/>
      <path d="M 40.578125 39.3125 
Q 47.65625 37.796875 51.625 33 
Q 55.609375 28.21875 55.609375 21.1875 
Q 55.609375 10.40625 48.1875 4.484375 
Q 40.765625 -1.421875 27.09375 -1.421875 
Q 22.515625 -1.421875 17.65625 -0.515625 
Q 12.796875 0.390625 7.625 2.203125 
L 7.625 11.71875 
Q 11.71875 9.328125 16.59375 8.109375 
Q 21.484375 6.890625 26.8125 6.890625 
Q 36.078125 6.890625 40.9375 10.546875 
Q 45.796875 14.203125 45.796875 21.1875 
Q 45.796875 27.640625 41.28125 31.265625 
Q 36.765625 34.90625 28.71875 34.90625 
L 20.21875 34.90625 
L 20.21875 43.015625 
L 29.109375 43.015625 
Q 36.375 43.015625 40.234375 45.921875 
Q 44.09375 48.828125 44.09375 54.296875 
Q 44.09375 59.90625 40.109375 62.90625 
Q 36.140625 65.921875 28.71875 65.921875 
Q 24.65625 65.921875 20.015625 65.03125 
Q 15.375 64.15625 9.8125 62.3125 
L 9.8125 71.09375 
Q 15.4375 72.65625 20.34375 73.4375 
Q 25.25 74.21875 29.59375 74.21875 
Q 40.828125 74.21875 47.359375 69.109375 
Q 53.90625 64.015625 53.90625 55.328125 
Q 53.90625 49.265625 50.4375 45.09375 
Q 46.96875 40.921875 40.578125 39.3125 
z
" id="DejaVuSans-51"/>
     </defs>
     <use xlink:href="#DejaVuSans-110"/>
     <use x="63.378906" xlink:href="#DejaVuSans-101"/>
     <use x="123.152344" xlink:href="#DejaVuSans-120"/>
     <use x="182.332031" xlink:href="#DejaVuSans-117"/>
     <use x="245.710938" xlink:href="#DejaVuSans-115"/>
     <use x="297.810547" xlink:href="#DejaVuSans-95"/>
     <use x="347.810547" xlink:href="#DejaVuSans-51"/>
    </g>
   </g>
  </g>
 </g>
 <defs>
  <clipPath id="p6316607a9b">
   <rect height="266.112" width="357.12" x="48.029688" y="22.10625"/>
  </clipPath>
 </defs>
</svg>
