<?xml version="1.0" encoding="utf-8" standalone="no"?>
<!DOCTYPE svg PUBLIC "-//W3C//DTD SVG 1.1//EN"
  "http://www.w3.org/Graphics/SVG/1.1/DTD/svg11.dtd">
<!-- Created with matplotlib (https://matplotlib.org/) -->
<svg height="311.9745pt" version="1.1" viewBox="0 0 425.074687 311.9745" width="425.074687pt" xmlns="http://www.w3.org/2000/svg" xmlns:xlink="http://www.w3.org/1999/xlink">
 <metadata>
  <rdf:RDF xmlns:cc="http://creativecommons.org/ns#" xmlns:dc="http://purl.org/dc/elements/1.1/" xmlns:rdf="http://www.w3.org/1999/02/22-rdf-syntax-ns#">
   <cc:Work>
    <dc:type rdf:resource="http://purl.org/dc/dcmitype/StillImage"/>
    <dc:date>2023-10-16T01:56:10.721208</dc:date>
    <dc:format>image/svg+xml</dc:format>
    <dc:creator>
     <cc:Agent>
      <dc:title>Matplotlib v3.3.4, https://matplotlib.org/</dc:title>
     </cc:Agent>
    </dc:creator>
   </cc:Work>
  </rdf:RDF>
 </metadata>
 <defs>
  <style type="text/css">*{stroke-linecap:butt;stroke-linejoin:round;}</style>
 </defs>
 <g id="figure_1">
  <g id="patch_1">
   <path d="M 0 311.9745 
L 425.074687 311.9745 
L 425.074687 0 
L 0 0 
z
" style="fill:#ffffff;"/>
  </g>
  <g id="axes_1">
   <g id="patch_2">
    <path d="M 48.029688 288.096375 
L 405.149688 288.096375 
L 405.149688 21.984375 
L 48.029688 21.984375 
z
" style="fill:#ffffff;"/>
   </g>
   <g id="matplotlib.axis_1">
    <g id="xtick_1">
     <g id="line2d_1">
      <defs>
       <path d="M 0 0 
L 0 3.5 
" id="m83d94d5924" style="stroke:#000000;stroke-width:0.8;"/>
      </defs>
      <g>
       <use style="stroke:#000000;stroke-width:0.8;" x="48.029687" xlink:href="#m83d94d5924" y="288.096375"/>
      </g>
     </g>
     <g id="text_1">
      <!-- −1500 -->
      <g transform="translate(31.114844 302.694812)scale(0.1 -0.1)">
       <defs>
        <path d="M 10.59375 35.5 
L 73.1875 35.5 
L 73.1875 27.203125 
L 10.59375 27.203125 
z
" id="DejaVuSans-8722"/>
        <path d="M 12.40625 8.296875 
L 28.515625 8.296875 
L 28.515625 63.921875 
L 10.984375 60.40625 
L 10.984375 69.390625 
L 28.421875 72.90625 
L 38.28125 72.90625 
L 38.28125 8.296875 
L 54.390625 8.296875 
L 54.390625 0 
L 12.40625 0 
z
" id="DejaVuSans-49"/>
        <path d="M 10.796875 72.90625 
L 49.515625 72.90625 
L 49.515625 64.59375 
L 19.828125 64.59375 
L 19.828125 46.734375 
Q 21.96875 47.46875 24.109375 47.828125 
Q 26.265625 48.1875 28.421875 48.1875 
Q 40.625 48.1875 47.75 41.5 
Q 54.890625 34.8125 54.890625 23.390625 
Q 54.890625 11.625 47.5625 5.09375 
Q 40.234375 -1.421875 26.90625 -1.421875 
Q 22.3125 -1.421875 17.546875 -0.640625 
Q 12.796875 0.140625 7.71875 1.703125 
L 7.71875 11.625 
Q 12.109375 9.234375 16.796875 8.0625 
Q 21.484375 6.890625 26.703125 6.890625 
Q 35.15625 6.890625 40.078125 11.328125 
Q 45.015625 15.765625 45.015625 23.390625 
Q 45.015625 31 40.078125 35.4375 
Q 35.15625 39.890625 26.703125 39.890625 
Q 22.75 39.890625 18.8125 39.015625 
Q 14.890625 38.140625 10.796875 36.28125 
z
" id="DejaVuSans-53"/>
        <path d="M 31.78125 66.40625 
Q 24.171875 66.40625 20.328125 58.90625 
Q 16.5 51.421875 16.5 36.375 
Q 16.5 21.390625 20.328125 13.890625 
Q 24.171875 6.390625 31.78125 6.390625 
Q 39.453125 6.390625 43.28125 13.890625 
Q 47.125 21.390625 47.125 36.375 
Q 47.125 51.421875 43.28125 58.90625 
Q 39.453125 66.40625 31.78125 66.40625 
z
M 31.78125 74.21875 
Q 44.046875 74.21875 50.515625 64.515625 
Q 56.984375 54.828125 56.984375 36.375 
Q 56.984375 17.96875 50.515625 8.265625 
Q 44.046875 -1.421875 31.78125 -1.421875 
Q 19.53125 -1.421875 13.0625 8.265625 
Q 6.59375 17.96875 6.59375 36.375 
Q 6.59375 54.828125 13.0625 64.515625 
Q 19.53125 74.21875 31.78125 74.21875 
z
" id="DejaVuSans-48"/>
       </defs>
       <use xlink:href="#DejaVuSans-8722"/>
       <use x="83.789062" xlink:href="#DejaVuSans-49"/>
       <use x="147.412109" xlink:href="#DejaVuSans-53"/>
       <use x="211.035156" xlink:href="#DejaVuSans-48"/>
       <use x="274.658203" xlink:href="#DejaVuSans-48"/>
      </g>
     </g>
    </g>
    <g id="xtick_2">
     <g id="line2d_2">
      <g>
       <use style="stroke:#000000;stroke-width:0.8;" x="107.549688" xlink:href="#m83d94d5924" y="288.096375"/>
      </g>
     </g>
     <g id="text_2">
      <!-- −1000 -->
      <g transform="translate(90.634844 302.694812)scale(0.1 -0.1)">
       <use xlink:href="#DejaVuSans-8722"/>
       <use x="83.789062" xlink:href="#DejaVuSans-49"/>
       <use x="147.412109" xlink:href="#DejaVuSans-48"/>
       <use x="211.035156" xlink:href="#DejaVuSans-48"/>
       <use x="274.658203" xlink:href="#DejaVuSans-48"/>
      </g>
     </g>
    </g>
    <g id="xtick_3">
     <g id="line2d_3">
      <g>
       <use style="stroke:#000000;stroke-width:0.8;" x="167.069687" xlink:href="#m83d94d5924" y="288.096375"/>
      </g>
     </g>
     <g id="text_3">
      <!-- −500 -->
      <g transform="translate(153.336094 302.694812)scale(0.1 -0.1)">
       <use xlink:href="#DejaVuSans-8722"/>
       <use x="83.789062" xlink:href="#DejaVuSans-53"/>
       <use x="147.412109" xlink:href="#DejaVuSans-48"/>
       <use x="211.035156" xlink:href="#DejaVuSans-48"/>
      </g>
     </g>
    </g>
    <g id="xtick_4">
     <g id="line2d_4">
      <g>
       <use style="stroke:#000000;stroke-width:0.8;" x="226.589687" xlink:href="#m83d94d5924" y="288.096375"/>
      </g>
     </g>
     <g id="text_4">
      <!-- 0 -->
      <g transform="translate(223.408437 302.694812)scale(0.1 -0.1)">
       <use xlink:href="#DejaVuSans-48"/>
      </g>
     </g>
    </g>
    <g id="xtick_5">
     <g id="line2d_5">
      <g>
       <use style="stroke:#000000;stroke-width:0.8;" x="286.109688" xlink:href="#m83d94d5924" y="288.096375"/>
      </g>
     </g>
     <g id="text_5">
      <!-- 500 -->
      <g transform="translate(276.565938 302.694812)scale(0.1 -0.1)">
       <use xlink:href="#DejaVuSans-53"/>
       <use x="63.623047" xlink:href="#DejaVuSans-48"/>
       <use x="127.246094" xlink:href="#DejaVuSans-48"/>
      </g>
     </g>
    </g>
    <g id="xtick_6">
     <g id="line2d_6">
      <g>
       <use style="stroke:#000000;stroke-width:0.8;" x="345.629687" xlink:href="#m83d94d5924" y="288.096375"/>
      </g>
     </g>
     <g id="text_6">
      <!-- 1000 -->
      <g transform="translate(332.904687 302.694812)scale(0.1 -0.1)">
       <use xlink:href="#DejaVuSans-49"/>
       <use x="63.623047" xlink:href="#DejaVuSans-48"/>
       <use x="127.246094" xlink:href="#DejaVuSans-48"/>
       <use x="190.869141" xlink:href="#DejaVuSans-48"/>
      </g>
     </g>
    </g>
    <g id="xtick_7">
     <g id="line2d_7">
      <g>
       <use style="stroke:#000000;stroke-width:0.8;" x="405.149688" xlink:href="#m83d94d5924" y="288.096375"/>
      </g>
     </g>
     <g id="text_7">
      <!-- 1500 -->
      <g transform="translate(392.424688 302.694812)scale(0.1 -0.1)">
       <use xlink:href="#DejaVuSans-49"/>
       <use x="63.623047" xlink:href="#DejaVuSans-53"/>
       <use x="127.246094" xlink:href="#DejaVuSans-48"/>
       <use x="190.869141" xlink:href="#DejaVuSans-48"/>
      </g>
     </g>
    </g>
   </g>
   <g id="matplotlib.axis_2">
    <g id="ytick_1">
     <g id="line2d_8">
      <defs>
       <path d="M 0 0 
L -3.5 0 
" id="me8bb6acb0b" style="stroke:#000000;stroke-width:0.8;"/>
      </defs>
      <g>
       <use style="stroke:#000000;stroke-width:0.8;" x="48.029688" xlink:href="#me8bb6acb0b" y="288.096375"/>
      </g>
     </g>
     <g id="text_8">
      <!-- −1500 -->
      <g transform="translate(7.2 291.895594)scale(0.1 -0.1)">
       <use xlink:href="#DejaVuSans-8722"/>
       <use x="83.789062" xlink:href="#DejaVuSans-49"/>
       <use x="147.412109" xlink:href="#DejaVuSans-53"/>
       <use x="211.035156" xlink:href="#DejaVuSans-48"/>
       <use x="274.658203" xlink:href="#DejaVuSans-48"/>
      </g>
     </g>
    </g>
    <g id="ytick_2">
     <g id="line2d_9">
      <g>
       <use style="stroke:#000000;stroke-width:0.8;" x="48.029688" xlink:href="#me8bb6acb0b" y="243.744375"/>
      </g>
     </g>
     <g id="text_9">
      <!-- −1000 -->
      <g transform="translate(7.2 247.543594)scale(0.1 -0.1)">
       <use xlink:href="#DejaVuSans-8722"/>
       <use x="83.789062" xlink:href="#DejaVuSans-49"/>
       <use x="147.412109" xlink:href="#DejaVuSans-48"/>
       <use x="211.035156" xlink:href="#DejaVuSans-48"/>
       <use x="274.658203" xlink:href="#DejaVuSans-48"/>
      </g>
     </g>
    </g>
    <g id="ytick_3">
     <g id="line2d_10">
      <g>
       <use style="stroke:#000000;stroke-width:0.8;" x="48.029688" xlink:href="#me8bb6acb0b" y="199.392375"/>
      </g>
     </g>
     <g id="text_10">
      <!-- −500 -->
      <g transform="translate(13.5625 203.191594)scale(0.1 -0.1)">
       <use xlink:href="#DejaVuSans-8722"/>
       <use x="83.789062" xlink:href="#DejaVuSans-53"/>
       <use x="147.412109" xlink:href="#DejaVuSans-48"/>
       <use x="211.035156" xlink:href="#DejaVuSans-48"/>
      </g>
     </g>
    </g>
    <g id="ytick_4">
     <g id="line2d_11">
      <g>
       <use style="stroke:#000000;stroke-width:0.8;" x="48.029688" xlink:href="#me8bb6acb0b" y="155.040375"/>
      </g>
     </g>
     <g id="text_11">
      <!-- 0 -->
      <g transform="translate(34.667187 158.839594)scale(0.1 -0.1)">
       <use xlink:href="#DejaVuSans-48"/>
      </g>
     </g>
    </g>
    <g id="ytick_5">
     <g id="line2d_12">
      <g>
       <use style="stroke:#000000;stroke-width:0.8;" x="48.029688" xlink:href="#me8bb6acb0b" y="110.688375"/>
      </g>
     </g>
     <g id="text_12">
      <!-- 500 -->
      <g transform="translate(21.942187 114.487594)scale(0.1 -0.1)">
       <use xlink:href="#DejaVuSans-53"/>
       <use x="63.623047" xlink:href="#DejaVuSans-48"/>
       <use x="127.246094" xlink:href="#DejaVuSans-48"/>
      </g>
     </g>
    </g>
    <g id="ytick_6">
     <g id="line2d_13">
      <g>
       <use style="stroke:#000000;stroke-width:0.8;" x="48.029688" xlink:href="#me8bb6acb0b" y="66.336375"/>
      </g>
     </g>
     <g id="text_13">
      <!-- 1000 -->
      <g transform="translate(15.579687 70.135594)scale(0.1 -0.1)">
       <use xlink:href="#DejaVuSans-49"/>
       <use x="63.623047" xlink:href="#DejaVuSans-48"/>
       <use x="127.246094" xlink:href="#DejaVuSans-48"/>
       <use x="190.869141" xlink:href="#DejaVuSans-48"/>
      </g>
     </g>
    </g>
    <g id="ytick_7">
     <g id="line2d_14">
      <g>
       <use style="stroke:#000000;stroke-width:0.8;" x="48.029688" xlink:href="#me8bb6acb0b" y="21.984375"/>
      </g>
     </g>
     <g id="text_14">
      <!-- 1500 -->
      <g transform="translate(15.579687 25.783594)scale(0.1 -0.1)">
       <use xlink:href="#DejaVuSans-49"/>
       <use x="63.623047" xlink:href="#DejaVuSans-53"/>
       <use x="127.246094" xlink:href="#DejaVuSans-48"/>
       <use x="190.869141" xlink:href="#DejaVuSans-48"/>
      </g>
     </g>
    </g>
   </g>
   <g id="line2d_15">
    <path clip-path="url(#pd19620f2ae)" d="M 226.589687 155.040375 
L 226.351608 155.040375 
L 226.292088 155.040375 
L 226.054007 155.040375 
L 225.875448 154.729911 
L 225.696888 154.729911 
L 225.458808 154.729911 
L 225.339767 154.729911 
L 225.220728 154.375095 
L 224.982647 154.375095 
L 224.804088 154.375095 
L 224.625528 154.064631 
L 224.506487 154.064631 
L 224.327927 154.064631 
L 224.149367 154.064631 
L 226.649207 153.754167 
L 233.494008 153.088887 
L 242.124407 152.423607 
L 248.374008 152.423607 
L 253.671288 152.423607 
" style="fill:none;stroke:#1f77b4;stroke-linecap:square;stroke-width:1.5;"/>
   </g>
   <g id="line2d_16">
    <path clip-path="url(#pd19620f2ae)" d="M 226.589687 155.040375 
L 232.660728 155.350839 
L 235.398647 155.350839 
L 236.410487 155.705655 
L 237.184247 155.705655 
L 235.993847 155.350839 
L 234.803448 155.040375 
L 233.672567 154.729911 
L 230.934647 153.754167 
L 230.756088 153.088887 
L 230.756088 152.423607 
L 230.756088 151.802679 
L 229.922808 151.447863 
L 228.791927 151.447863 
L 227.780088 151.137399 
L 225.994487 151.137399 
L 224.685047 151.802679 
L 226.589687 151.802679 
L 224.268407 152.778423 
L 229.149047 152.113143 
" style="fill:none;stroke:#ff7f0e;stroke-linecap:square;stroke-width:1.5;"/>
   </g>
   <g id="line2d_17">
    <path clip-path="url(#pd19620f2ae)" d="M 226.589687 155.040375 
L 233.017847 155.306487 
L 238.969847 156.282231 
L 243.969527 156.637047 
L 250.040568 156.991863 
L 252.778487 157.257975 
L 253.373687 157.257975 
L 253.849848 157.257975 
L 252.421368 156.991863 
L 251.230967 156.282231 
L 249.921527 156.016119 
L 247.897847 155.661303 
L 247.540728 155.306487 
L 247.302648 154.330743 
L 246.945527 153.709815 
L 245.993207 153.354999 
L 244.445687 153.354999 
L 242.838648 153.088887 
L 241.469687 152.734071 
L 241.826808 152.734071 
" style="fill:none;stroke:#2ca02c;stroke-linecap:square;stroke-width:1.5;"/>
   </g>
   <g id="line2d_18">
    <path clip-path="url(#pd19620f2ae)" d="M 226.589687 155.040375 
L 232.482168 155.040375 
L 238.196088 155.040375 
L 243.433847 156.016119 
L 249.742967 155.395191 
L 252.838008 155.395191 
L 253.790327 155.395191 
L 254.623607 155.395191 
L 253.076087 154.685559 
L 251.647607 153.709815 
L 250.100088 152.734071 
L 248.552568 152.113143 
L 247.719288 151.758327 
L 247.124088 151.758327 
L 246.528887 151.758327 
L 245.457527 151.492215 
L 243.790967 151.137399 
L 242.243448 150.516471 
L 240.695927 150.516471 
L 240.695927 150.516471 
" style="fill:none;stroke:#d62728;stroke-linecap:square;stroke-width:1.5;"/>
   </g>
   <g id="line2d_19">
    <path clip-path="url(#pd19620f2ae)" d="M 226.589687 155.040375 
L 226.589687 155.040375 
L 226.411127 155.040375 
L 226.411127 155.040375 
L 226.232567 154.907319 
L 226.232567 154.907319 
L 225.994487 154.907319 
L 225.994487 154.907319 
L 225.815927 154.552503 
L 225.815927 154.552503 
L 225.637368 154.552503 
L 225.399287 154.375095 
L 225.399287 154.375095 
L 225.220728 154.375095 
L 225.220728 154.375095 
L 227.780088 154.108983 
L 235.815288 153.931575 
L 240.100728 153.133239 
L 255.754487 152.778423 
L 258.313848 153.754167 
" style="fill:none;stroke:#9467bd;stroke-linecap:square;stroke-width:1.5;"/>
   </g>
   <g id="line2d_20">
    <path clip-path="url(#pd19620f2ae)" d="M 226.589687 155.040375 
L 237.600887 156.326583 
L 240.874487 156.681399 
L 241.469687 156.991863 
L 242.064887 156.991863 
L 241.469687 156.016119 
L 240.874487 155.040375 
L 240.338808 153.754167 
L 237.779448 153.399351 
L 237.005687 153.399351 
L 236.410487 153.399351 
L 235.993847 153.399351 
L 235.398647 153.399351 
L 234.803448 153.399351 
L 234.029687 153.088887 
L 231.708407 152.955831 
L 229.922808 152.601015 
L 228.970487 152.601015 
L 228.196728 152.467959 
L 227.363448 152.467959 
" style="fill:none;stroke:#8c564b;stroke-linecap:square;stroke-width:1.5;"/>
   </g>
   <g id="line2d_21">
    <path clip-path="url(#pd19620f2ae)" d="M 226.589687 155.040375 
L 226.589687 155.040375 
L 226.470647 155.040375 
L 226.232567 155.040375 
L 226.232567 155.040375 
L 225.994487 155.040375 
L 225.875448 155.040375 
L 225.875448 155.040375 
L 225.637368 155.040375 
L 225.399287 155.040375 
L 225.399287 155.040375 
L 225.280248 155.040375 
L 225.042168 155.040375 
L 225.042168 155.040375 
L 224.804088 155.040375 
L 227.422967 154.685559 
L 235.041528 154.197687 
L 240.755448 153.576759 
L 255.040247 153.221943 
L 258.730487 153.887223 
" style="fill:none;stroke:#e377c2;stroke-linecap:square;stroke-width:1.5;"/>
   </g>
   <g id="line2d_22">
    <path clip-path="url(#pd19620f2ae)" d="M 226.589687 155.040375 
L 237.422327 156.370935 
L 240.874487 156.991863 
L 241.945847 156.991863 
L 242.660088 156.991863 
L 241.707767 156.193527 
L 240.874487 155.217783 
L 239.922168 154.108983 
L 238.136567 153.931575 
L 237.422327 153.754167 
L 236.470008 153.754167 
L 235.636728 153.621111 
L 234.862967 153.621111 
L 233.851127 153.621111 
L 233.136888 153.443703 
L 230.756088 153.266295 
L 228.970487 152.778423 
L 228.256248 152.778423 
L 227.422967 152.601015 
L 226.589687 152.601015 
" style="fill:none;stroke:#7f7f7f;stroke-linecap:square;stroke-width:1.5;"/>
   </g>
   <g id="line2d_23">
    <path clip-path="url(#pd19620f2ae)" d="M 226.589687 155.040375 
L 226.589687 155.040375 
L 226.589687 155.040375 
L 226.470647 154.729911 
L 226.470647 154.729911 
L 226.470647 154.552503 
L 226.411127 154.375095 
L 226.411127 154.375095 
L 226.411127 154.242039 
L 226.292088 154.064631 
L 226.292088 153.887223 
L 226.292088 153.887223 
L 226.173047 153.754167 
L 226.173047 153.576759 
L 226.173047 153.576759 
L 227.899127 153.266295 
L 233.494008 152.778423 
L 238.493687 152.467959 
L 253.373687 152.601015 
L 257.897207 153.576759 
" style="fill:none;stroke:#bcbd22;stroke-linecap:square;stroke-width:1.5;"/>
   </g>
   <g id="line2d_24">
    <path clip-path="url(#pd19620f2ae)" d="M 226.589687 155.040375 
L 232.482168 156.016119 
L 235.398647 156.991863 
L 236.350967 156.991863 
L 237.184247 156.681399 
L 235.993847 156.016119 
L 234.684407 155.040375 
L 233.494008 154.064631 
L 231.886967 153.576759 
L 230.875127 153.443703 
L 230.160888 153.443703 
L 229.327607 153.266295 
L 228.375287 153.266295 
L 227.542007 153.266295 
L 226.411127 153.088887 
L 223.851767 152.955831 
L 222.066168 152.423607 
L 221.530487 152.423607 
L 220.935287 152.423607 
L 220.340088 152.423607 
" style="fill:none;stroke:#17becf;stroke-linecap:square;stroke-width:1.5;"/>
   </g>
   <g id="line2d_25">
    <path clip-path="url(#pd19620f2ae)" d="M 226.589687 155.040375 
L 230.279927 155.395191 
L 231.589368 155.661303 
L 232.779767 155.661303 
L 231.470327 154.862967 
L 230.279927 153.887223 
L 228.851448 153.088887 
L 225.994487 152.601015 
L 224.923127 152.467959 
L 224.208888 152.290551 
L 223.375608 152.113143 
L 222.423287 151.980087 
L 221.590007 151.802679 
L 220.637687 151.447863 
L 217.780728 151.314807 
L 215.578487 151.137399 
L 214.804727 151.137399 
L 213.971448 151.137399 
L 213.257207 151.137399 
L 212.423927 151.137399 
" style="fill:none;stroke:#1f77b4;stroke-linecap:square;stroke-width:1.5;"/>
   </g>
   <g id="line2d_26">
    <path clip-path="url(#pd19620f2ae)" d="M 226.589687 155.040375 
L 230.518008 155.040375 
L 232.779767 156.016119 
L 243.612407 156.681399 
L 247.540728 157.346679 
L 248.850167 157.346679 
L 249.862008 157.346679 
L 247.897847 156.681399 
L 246.112247 155.705655 
L 244.386167 154.729911 
L 242.779127 153.931575 
L 241.945847 153.754167 
L 241.053047 153.621111 
L 240.279288 153.443703 
L 239.386487 153.266295 
L 238.493687 153.133239 
L 237.422327 152.778423 
L 234.386808 152.778423 
L 232.244088 152.778423 
L 231.648888 152.778423 
" style="fill:none;stroke:#ff7f0e;stroke-linecap:square;stroke-width:1.5;"/>
   </g>
   <g id="line2d_27">
    <path clip-path="url(#pd19620f2ae)" d="M 226.589687 155.040375 
L 228.375287 155.040375 
L 230.160888 155.040375 
L 231.827448 155.040375 
L 233.494008 155.040375 
L 235.041528 155.040375 
L 236.589047 155.040375 
L 238.374648 155.395191 
L 240.279288 155.661303 
L 242.302967 155.661303 
L 243.969527 156.016119 
L 245.755127 156.016119 
L 247.302648 155.395191 
L 248.850167 155.040375 
L 250.278648 154.685559 
L 251.647607 154.419447 
L 256.706807 154.064631 
L 263.015927 153.088887 
L 265.991927 152.467959 
L 267.896568 152.113143 
" style="fill:none;stroke:#2ca02c;stroke-linecap:square;stroke-width:1.5;"/>
   </g>
   <g id="line2d_28">
    <path clip-path="url(#pd19620f2ae)" d="M 226.589687 155.040375 
L 225.220728 155.040375 
L 223.673207 155.040375 
L 222.304248 155.040375 
L 220.756728 155.040375 
L 219.328248 155.040375 
L 218.018808 155.040375 
L 216.411767 155.040375 
L 215.042808 155.040375 
L 213.495287 155.040375 
L 211.947767 154.729911 
L 210.340727 154.729911 
L 208.793207 154.375095 
L 207.186168 154.375095 
L 205.460087 154.064631 
L 201.948408 154.064631 
L 201.948408 153.088887 
L 205.043448 150.161655 
L 206.055287 149.851191 
L 206.590968 149.851191 
" style="fill:none;stroke:#d62728;stroke-linecap:square;stroke-width:1.5;"/>
   </g>
   <g id="line2d_29">
    <path clip-path="url(#pd19620f2ae)" d="M 226.589687 155.040375 
L 227.422967 154.729911 
L 226.708728 154.729911 
L 226.113528 154.729911 
L 225.280248 154.729911 
L 223.732728 154.729911 
L 221.590007 154.419447 
L 218.018808 154.064631 
L 214.328567 154.064631 
L 212.423927 153.754167 
L 210.400248 153.443703 
L 208.614647 153.443703 
L 206.352888 153.088887 
L 203.734007 153.088887 
L 201.234168 153.088887 
L 199.448567 153.088887 
L 197.901048 153.088887 
L 196.532087 152.778423 
L 195.401207 152.778423 
L 194.210807 152.778423 
" style="fill:none;stroke:#9467bd;stroke-linecap:square;stroke-width:1.5;"/>
   </g>
   <g id="line2d_30">
    <path clip-path="url(#pd19620f2ae)" d="M 226.589687 155.040375 
L 224.804088 155.040375 
L 223.256567 155.040375 
L 221.470968 154.729911 
L 219.685367 154.729911 
L 218.137847 154.729911 
L 216.233207 155.040375 
L 214.447608 155.395191 
L 212.483448 156.016119 
L 210.519287 156.016119 
L 208.138487 155.705655 
L 205.876727 155.395191 
L 203.674487 154.729911 
L 201.710328 154.729911 
L 199.865207 154.729911 
L 198.198647 154.729911 
L 198.139128 153.088887 
L 199.270007 151.137399 
L 200.281847 149.540727 
L 199.746168 149.185911 
" style="fill:none;stroke:#8c564b;stroke-linecap:square;stroke-width:1.5;"/>
   </g>
   <g id="line2d_31">
    <path clip-path="url(#pd19620f2ae)" d="M 226.589687 155.040375 
L 226.589687 154.375095 
L 226.589687 153.399351 
L 226.589687 152.423607 
L 226.589687 151.758327 
L 226.589687 150.782583 
L 226.946808 149.806839 
L 227.542007 148.831095 
L 227.958647 148.210167 
L 228.553847 147.234423 
L 228.970487 146.258679 
L 229.922808 145.282935 
L 232.303607 144.307191 
L 234.803448 142.976631 
L 237.184247 142.000887 
L 240.279288 141.379959 
L 243.969527 140.714679 
L 247.897847 140.404215 
L 251.230967 140.049399 
L 254.206967 139.738935 
" style="fill:none;stroke:#e377c2;stroke-linecap:square;stroke-width:1.5;"/>
   </g>
   <g id="line2d_32">
    <path clip-path="url(#pd19620f2ae)" d="M 226.589687 155.040375 
L 225.815927 155.040375 
L 224.923127 155.040375 
L 224.030327 155.040375 
L 223.256567 155.040375 
L 222.423287 155.040375 
L 221.590007 155.040375 
L 220.637687 155.350839 
L 219.447287 156.016119 
L 218.494968 156.637047 
L 217.483127 156.991863 
L 216.471287 157.967607 
L 216.114168 158.943351 
L 215.518968 159.919095 
L 215.161847 161.205303 
L 214.566647 162.181047 
L 213.614328 163.822071 
L 213.019127 164.797815 
L 212.602487 164.132535 
L 212.185847 163.467255 
" style="fill:none;stroke:#7f7f7f;stroke-linecap:square;stroke-width:1.5;"/>
   </g>
   <g id="line2d_33">
    <path clip-path="url(#pd19620f2ae)" d="M 226.589687 155.040375 
L 226.411127 156.326583 
L 226.173047 157.302327 
L 225.458808 157.967607 
L 224.625528 158.278071 
L 223.673207 158.943351 
L 223.673207 159.919095 
L 223.435127 161.205303 
L 222.839927 161.870583 
L 221.530487 162.846327 
L 220.340088 163.467255 
L 219.506808 163.822071 
L 218.554487 164.132535 
L 217.780728 164.442999 
L 217.245047 164.797815 
L 216.173687 165.108279 
L 215.042808 166.084023 
L 213.911927 166.749303 
L 212.900087 166.749303 
L 212.126328 166.749303 
" style="fill:none;stroke:#bcbd22;stroke-linecap:square;stroke-width:1.5;"/>
   </g>
   <g id="line2d_34">
    <path clip-path="url(#pd19620f2ae)" d="M 226.589687 155.040375 
L 222.839927 155.040375 
L 219.149687 155.040375 
L 216.768888 154.729911 
L 215.578487 153.399351 
L 214.269047 152.113143 
L 211.114487 150.826935 
L 209.150328 150.161655 
L 207.781367 149.185911 
L 205.817207 148.520631 
L 202.900727 147.544887 
L 199.984248 146.923959 
L 196.413048 146.569143 
L 192.722807 146.258679 
L 189.032567 145.948215 
L 185.461367 145.948215 
L 181.949687 146.569143 
L 177.485687 146.923959 
L 172.545527 146.923959 
L 167.843447 146.923959 
" style="fill:none;stroke:#17becf;stroke-linecap:square;stroke-width:1.5;"/>
   </g>
   <g id="line2d_35">
    <path clip-path="url(#pd19620f2ae)" d="M 226.589687 155.040375 
L 232.660728 154.419447 
L 238.910327 153.443703 
L 245.159927 152.778423 
L 251.469047 152.467959 
L 257.897207 153.088887 
L 263.611128 153.088887 
L 268.253688 153.088887 
L 273.015287 152.778423 
L 276.884087 153.754167 
L 280.990968 154.419447 
L 285.097848 155.040375 
L 288.430968 155.395191 
L 290.157047 154.729911 
L 295.870968 154.064631 
L 301.584887 153.754167 
L 305.513208 153.754167 
L 310.155768 153.754167 
L 314.857847 153.754167 
L 318.607607 153.754167 
" style="fill:none;stroke:#1f77b4;stroke-linecap:square;stroke-width:1.5;"/>
   </g>
   <g id="line2d_36">
    <path clip-path="url(#pd19620f2ae)" d="M 226.589687 155.040375 
L 227.006327 155.040375 
L 227.422967 155.040375 
L 227.780088 155.040375 
L 228.196728 154.862967 
L 228.553847 154.862967 
L 228.970487 154.862967 
L 229.327607 154.862967 
L 229.744248 154.685559 
L 230.160888 154.685559 
L 230.518008 154.685559 
L 230.934647 154.685559 
L 231.291767 154.552503 
L 231.708407 154.552503 
L 232.065528 154.552503 
L 232.482168 154.552503 
L 235.636728 154.020279 
L 245.159927 155.173431 
L 254.326008 155.173431 
L 258.968568 156.459639 
" style="fill:none;stroke:#ff7f0e;stroke-linecap:square;stroke-width:1.5;"/>
   </g>
   <g id="line2d_37">
    <path clip-path="url(#pd19620f2ae)" d="M 226.589687 155.040375 
L 232.065528 156.016119 
L 234.208247 156.991863 
L 234.446327 156.370935 
L 234.565368 156.016119 
L 234.803448 155.705655 
L 235.041528 155.040375 
L 235.160567 154.729911 
L 235.041528 154.419447 
L 234.803448 154.242039 
L 234.446327 154.064631 
L 234.208247 153.754167 
L 233.851127 153.576759 
L 233.613047 153.399351 
L 233.255927 153.133239 
L 231.470327 153.133239 
L 229.922808 152.955831 
L 228.137207 152.955831 
L 226.351608 152.955831 
L 231.589368 152.290551 
" style="fill:none;stroke:#2ca02c;stroke-linecap:square;stroke-width:1.5;"/>
   </g>
   <g id="line2d_38">
    <path clip-path="url(#pd19620f2ae)" d="M 226.589687 155.040375 
L 227.184888 155.040375 
L 227.601528 155.040375 
L 227.958647 155.040375 
L 228.375287 154.685559 
L 228.970487 154.685559 
L 229.327607 154.685559 
L 229.744248 154.685559 
L 230.101368 154.330743 
L 230.696567 154.330743 
L 231.113207 154.330743 
L 231.529847 154.330743 
L 232.065528 154.064631 
L 232.482168 154.064631 
L 232.839287 154.064631 
L 233.255927 154.064631 
L 236.410487 154.330743 
L 244.624247 154.330743 
L 253.433207 155.040375 
L 256.944887 155.661303 
" style="fill:none;stroke:#d62728;stroke-linecap:square;stroke-width:1.5;"/>
   </g>
   <g id="line2d_39">
    <path clip-path="url(#pd19620f2ae)" d="M 226.589687 155.040375 
L 232.839287 155.750007 
L 235.815288 155.395191 
L 235.815288 155.395191 
L 235.815288 155.395191 
L 235.815288 155.395191 
L 235.815288 155.395191 
L 235.815288 155.395191 
L 235.815288 155.395191 
L 235.220088 155.040375 
L 234.624887 154.774263 
L 234.208247 154.419447 
L 233.791607 153.798519 
L 233.434487 152.822775 
L 233.077368 151.847031 
L 230.518008 150.871287 
L 229.149047 150.161655 
L 230.101368 152.822775 
L 227.601528 153.443703 
L 231.648888 151.137399 
" style="fill:none;stroke:#9467bd;stroke-linecap:square;stroke-width:1.5;"/>
   </g>
   <g id="line2d_40">
    <path clip-path="url(#pd19620f2ae)" d="M 226.589687 155.040375 
L 231.648888 155.661303 
L 237.481847 155.661303 
L 243.969527 156.016119 
L 246.707448 156.016119 
L 247.659767 156.016119 
L 248.493047 156.016119 
L 246.707448 155.350839 
L 245.159927 154.375095 
L 243.552887 153.399351 
L 241.410168 152.734071 
L 240.993527 152.290551 
L 240.814967 151.935735 
L 240.517368 151.580919 
L 239.326967 151.314807 
L 237.422327 150.959991 
L 235.636728 150.605175 
L 233.732088 150.605175 
L 233.732088 150.605175 
L 235.398647 149.984247 
" style="fill:none;stroke:#8c564b;stroke-linecap:square;stroke-width:1.5;"/>
   </g>
   <g id="line2d_41">
    <path clip-path="url(#pd19620f2ae)" d="M 226.589687 155.040375 
L 225.994487 155.661303 
L 225.577847 156.637047 
L 224.982647 157.346679 
L 224.387448 158.322423 
L 223.851767 158.943351 
L 223.435127 159.919095 
L 222.839927 160.540023 
L 222.244728 161.515767 
L 221.887608 162.225399 
L 220.875767 162.846327 
L 219.923448 163.467255 
L 219.149687 164.176887 
L 218.137847 164.797815 
L 217.364087 165.152631 
L 220.697207 165.152631 
L 223.613687 164.797815 
L 224.030327 164.797815 
L 224.625528 164.797815 
L 224.982647 164.797815 
" style="fill:none;stroke:#e377c2;stroke-linecap:square;stroke-width:1.5;"/>
   </g>
   <g id="line2d_42">
    <path clip-path="url(#pd19620f2ae)" d="M 226.589687 155.040375 
L 226.768248 155.040375 
L 225.637368 155.040375 
L 224.625528 155.040375 
L 223.435127 155.040375 
L 222.482808 155.040375 
L 221.113847 155.040375 
L 219.566327 155.040375 
L 217.959287 155.040375 
L 216.411767 155.040375 
L 215.042808 155.040375 
L 213.257207 155.040375 
L 211.709688 155.040375 
L 210.162168 155.040375 
L 208.376567 155.040375 
L 206.829048 155.040375 
L 205.281528 155.040375 
L 203.495927 155.395191 
L 201.948408 155.395191 
L 200.341367 155.395191 
" style="fill:none;stroke:#7f7f7f;stroke-linecap:square;stroke-width:1.5;"/>
   </g>
   <g id="line2d_43">
    <path clip-path="url(#pd19620f2ae)" d="M 226.589687 155.040375 
L 225.994487 154.064631 
L 225.637368 153.443703 
L 225.042168 152.467959 
L 224.685047 151.802679 
L 224.089847 150.826935 
L 223.673207 150.161655 
L 222.899448 149.540727 
L 221.709047 148.875447 
L 220.518647 148.564983 
L 219.328248 147.899703 
L 218.197367 147.234423 
L 217.066487 146.923959 
L 215.280888 146.258679 
L 213.495287 145.637751 
L 211.590647 144.307191 
L 214.090487 142.355703 
L 216.828407 141.379959 
L 218.018808 140.093751 
L 218.792567 139.428471 
" style="fill:none;stroke:#bcbd22;stroke-linecap:square;stroke-width:1.5;"/>
   </g>
   <g id="line2d_44">
    <path clip-path="url(#pd19620f2ae)" d="M 226.589687 155.040375 
L 227.184888 154.375095 
L 227.184888 153.709815 
L 226.470647 153.399351 
L 225.875448 153.399351 
L 225.042168 153.088887 
L 224.089847 152.734071 
L 222.720888 152.113143 
L 221.351927 151.758327 
L 220.161528 151.137399 
L 218.614007 151.137399 
L 217.066487 150.782583 
L 215.638007 150.472119 
L 214.090487 150.161655 
L 212.542968 150.161655 
L 210.995448 149.806839 
L 209.209847 149.806839 
L 207.662328 149.496375 
L 206.114807 149.185911 
L 204.091127 149.185911 
" style="fill:none;stroke:#17becf;stroke-linecap:square;stroke-width:1.5;"/>
   </g>
   <g id="line2d_45">
    <path clip-path="url(#pd19620f2ae)" d="M 226.589687 155.040375 
L 227.006327 154.419447 
L 227.184888 153.754167 
L 227.601528 152.778423 
L 228.196728 152.467959 
L 228.970487 152.113143 
L 229.744248 151.492215 
L 230.518008 150.826935 
L 231.351287 150.161655 
L 232.065528 149.540727 
L 233.077368 148.875447 
L 233.672567 147.899703 
L 234.446327 146.923959 
L 235.041528 145.948215 
L 235.636728 144.662007 
L 236.589047 143.686263 
L 237.779448 143.020983 
L 238.969847 142.045239 
L 239.326967 141.734775 
L 240.041207 141.734775 
" style="fill:none;stroke:#1f77b4;stroke-linecap:square;stroke-width:1.5;"/>
   </g>
   <g id="line2d_46">
    <path clip-path="url(#pd19620f2ae)" d="M 226.589687 155.040375 
L 226.827767 155.040375 
L 227.184888 154.774263 
L 227.661047 154.419447 
L 228.256248 153.798519 
L 229.208567 153.088887 
L 230.160888 152.113143 
L 230.994168 151.137399 
L 231.351287 150.516471 
L 231.946487 149.540727 
L 232.541687 148.919799 
L 233.494008 147.944055 
L 234.446327 147.234423 
L 235.636728 146.258679 
L 236.589047 145.282935 
L 237.303288 144.484599 
L 237.779448 143.686263 
L 238.255607 142.710519 
L 238.850808 141.867831 
L 239.446008 141.246903 
" style="fill:none;stroke:#ff7f0e;stroke-linecap:square;stroke-width:1.5;"/>
   </g>
   <g id="line2d_47">
    <path clip-path="url(#pd19620f2ae)" d="M 226.589687 155.040375 
L 226.589687 155.040375 
L 226.649207 154.685559 
L 226.708728 154.419447 
L 226.827767 154.419447 
L 226.946808 154.064631 
L 227.006327 153.709815 
L 227.065847 153.709815 
L 227.184888 153.443703 
L 227.184888 153.088887 
L 227.303927 153.088887 
L 227.422967 152.778423 
L 227.542007 152.467959 
L 227.601528 152.467959 
L 227.661047 152.113143 
L 227.780088 151.802679 
L 227.780088 151.802679 
L 232.303607 151.181751 
L 239.505527 149.851191 
L 241.886327 149.230263 
" style="fill:none;stroke:#2ca02c;stroke-linecap:square;stroke-width:1.5;"/>
   </g>
   <g id="line2d_48">
    <path clip-path="url(#pd19620f2ae)" d="M 226.589687 155.040375 
L 224.685047 154.685559 
L 224.208888 155.661303 
L 225.637368 155.661303 
L 228.732407 155.040375 
L 227.780088 154.419447 
L 226.827767 153.443703 
L 225.756407 152.734071 
L 225.042168 152.467959 
L 224.208888 152.113143 
L 223.494647 152.113143 
L 222.661367 151.758327 
L 221.351927 151.137399 
L 219.685367 150.516471 
L 218.018808 150.161655 
L 217.661687 150.161655 
L 217.304567 150.516471 
L 216.887927 150.782583 
L 216.411767 151.137399 
L 216.054647 151.492215 
" style="fill:none;stroke:#d62728;stroke-linecap:square;stroke-width:1.5;"/>
   </g>
   <g id="line2d_49">
    <path clip-path="url(#pd19620f2ae)" d="M 226.589687 155.040375 
L 226.351608 155.040375 
L 226.113528 155.040375 
L 225.994487 155.040375 
L 225.518327 155.040375 
L 225.399287 155.040375 
L 225.161207 155.040375 
L 224.923127 155.040375 
L 224.804088 154.729911 
L 224.327927 154.729911 
L 224.208888 154.729911 
L 223.970808 154.729911 
L 223.851767 154.729911 
L 223.613687 154.729911 
L 223.256567 154.729911 
L 224.327927 153.754167 
L 228.851448 151.802679 
L 235.755767 152.157495 
L 241.945847 149.540727 
L 244.326648 149.851191 
" style="fill:none;stroke:#9467bd;stroke-linecap:square;stroke-width:1.5;"/>
   </g>
   <g id="line2d_50">
    <path clip-path="url(#pd19620f2ae)" d="M 226.589687 155.040375 
L 219.090168 154.064631 
L 219.328248 153.399351 
L 220.875767 153.399351 
L 223.613687 153.399351 
L 221.828088 152.778423 
L 220.042487 151.802679 
L 218.494968 151.137399 
L 217.542647 151.137399 
L 216.709367 151.137399 
L 215.995127 151.137399 
L 215.161847 151.137399 
L 213.971448 150.826935 
L 212.662007 150.161655 
L 211.233528 149.496375 
L 210.043127 148.875447 
L 210.281207 148.875447 
L 212.066808 150.472119 
L 211.471608 151.447863 
L 211.709688 149.496375 
" style="fill:none;stroke:#8c564b;stroke-linecap:square;stroke-width:1.5;"/>
   </g>
   <g id="line2d_51">
    <path clip-path="url(#pd19620f2ae)" d="M 226.589687 155.040375 
L 226.411127 155.040375 
L 226.173047 155.040375 
L 226.054007 155.040375 
L 225.815927 155.040375 
L 225.458808 155.040375 
L 225.220728 155.040375 
L 225.042168 155.040375 
L 224.863608 155.040375 
L 224.625528 155.040375 
L 224.446967 155.040375 
L 224.268407 155.040375 
L 224.030327 155.040375 
L 223.673207 155.040375 
L 223.435127 155.040375 
L 225.042168 154.419447 
L 229.922808 153.088887 
L 237.005687 151.137399 
L 242.838648 151.492215 
L 244.802808 151.137399 
" style="fill:none;stroke:#e377c2;stroke-linecap:square;stroke-width:1.5;"/>
   </g>
   <g id="line2d_52">
    <path clip-path="url(#pd19620f2ae)" d="M 226.589687 155.040375 
L 226.113528 154.197687 
L 227.065847 154.508151 
L 228.375287 154.508151 
L 230.160888 154.862967 
L 229.208567 154.508151 
L 228.018168 153.887223 
L 227.065847 153.532407 
L 225.637368 153.221943 
L 224.327927 153.221943 
L 223.970808 152.911479 
L 223.494647 152.556663 
L 222.899448 152.246199 
L 222.542327 151.935735 
L 221.947127 151.580919 
L 219.804407 151.935735 
L 219.804407 151.935735 
L 222.185207 151.580919 
L 219.447287 153.532407 
L 222.185207 152.246199 
" style="fill:none;stroke:#7f7f7f;stroke-linecap:square;stroke-width:1.5;"/>
   </g>
   <g id="line2d_53">
    <path clip-path="url(#pd19620f2ae)" d="M 226.589687 155.040375 
L 226.589687 155.040375 
L 226.351608 155.040375 
L 226.232567 155.040375 
L 226.232567 155.040375 
L 225.994487 155.040375 
L 225.756407 155.040375 
L 225.756407 155.040375 
L 225.637368 155.040375 
L 225.399287 155.040375 
L 225.399287 155.040375 
L 225.220728 155.040375 
L 225.042168 155.040375 
L 225.042168 155.040375 
L 224.804088 155.040375 
L 225.994487 153.443703 
L 230.101368 151.181751 
L 236.350967 151.181751 
L 243.255288 150.516471 
L 244.981368 150.516471 
" style="fill:none;stroke:#bcbd22;stroke-linecap:square;stroke-width:1.5;"/>
   </g>
   <g id="line2d_54">
    <path clip-path="url(#pd19620f2ae)" d="M 226.589687 155.040375 
L 224.089847 154.375095 
L 225.042168 154.685559 
L 225.815927 154.685559 
L 227.184888 154.685559 
L 226.351608 153.709815 
L 225.399287 152.734071 
L 224.625528 151.758327 
L 223.851767 151.447863 
L 223.256567 151.447863 
L 222.899448 151.447863 
L 222.304248 151.447863 
L 221.470968 151.137399 
L 220.756728 150.472119 
L 219.744888 149.806839 
L 218.733047 150.472119 
L 218.971127 150.782583 
L 220.280567 150.782583 
L 218.137847 152.734071 
L 220.875767 152.113143 
" style="fill:none;stroke:#17becf;stroke-linecap:square;stroke-width:1.5;"/>
   </g>
   <g id="line2d_55">
    <path clip-path="url(#pd19620f2ae)" d="M 226.589687 155.040375 
L 226.589687 155.040375 
L 226.411127 155.040375 
L 226.411127 154.685559 
L 226.232567 154.685559 
L 225.994487 154.375095 
L 225.994487 154.375095 
L 225.815927 154.375095 
L 225.815927 154.064631 
L 225.637368 154.064631 
L 225.399287 153.709815 
L 225.399287 153.709815 
L 225.280248 153.709815 
L 225.280248 153.399351 
L 225.042168 153.399351 
L 225.815927 152.423607 
L 229.149047 151.137399 
L 236.231927 151.758327 
L 241.707767 149.806839 
L 244.445687 150.161655 
" style="fill:none;stroke:#1f77b4;stroke-linecap:square;stroke-width:1.5;"/>
   </g>
   <g id="line2d_56">
    <path clip-path="url(#pd19620f2ae)" d="M 226.589687 155.040375 
L 220.518647 155.395191 
L 220.697207 155.395191 
L 221.649528 154.685559 
L 223.673207 154.064631 
L 223.078007 154.064631 
L 222.244728 154.064631 
L 221.530487 154.064631 
L 221.113847 154.064631 
L 220.935287 153.709815 
L 220.697207 153.709815 
L 220.340088 153.443703 
L 219.923448 152.734071 
L 219.149687 152.113143 
L 218.375927 151.758327 
L 216.173687 152.113143 
L 216.054647 151.492215 
L 217.780728 152.734071 
L 215.221367 153.088887 
L 217.602168 151.492215 
" style="fill:none;stroke:#ff7f0e;stroke-linecap:square;stroke-width:1.5;"/>
   </g>
   <g id="line2d_57">
    <path clip-path="url(#pd19620f2ae)" d="M 226.589687 155.040375 
L 226.589687 155.040375 
L 226.589687 155.040375 
L 226.411127 155.040375 
L 226.411127 155.040375 
L 226.173047 155.040375 
L 226.173047 155.040375 
L 226.173047 155.040375 
L 225.994487 154.729911 
L 225.994487 154.729911 
L 225.815927 154.729911 
L 225.815927 154.729911 
L 225.815927 154.729911 
L 225.577847 154.729911 
L 225.577847 154.729911 
L 226.768248 153.754167 
L 230.875127 152.113143 
L 238.136567 153.754167 
L 242.064887 151.802679 
L 245.159927 151.181751 
" style="fill:none;stroke:#2ca02c;stroke-linecap:square;stroke-width:1.5;"/>
   </g>
   <g id="line2d_58">
    <path clip-path="url(#pd19620f2ae)" d="M 226.589687 155.040375 
L 225.399287 154.685559 
L 226.411127 154.330743 
L 227.006327 154.330743 
L 228.137207 154.064631 
L 227.542007 154.064631 
L 227.006327 154.330743 
L 226.173047 154.330743 
L 225.994487 154.064631 
L 225.994487 153.709815 
L 225.994487 153.088887 
L 225.815927 152.734071 
L 225.815927 152.113143 
L 225.815927 151.758327 
L 225.577847 151.403511 
L 224.030327 154.064631 
L 223.256567 154.064631 
L 224.030327 153.354999 
L 221.887608 154.330743 
L 224.625528 154.064631 
" style="fill:none;stroke:#d62728;stroke-linecap:square;stroke-width:1.5;"/>
   </g>
   <g id="line2d_59">
    <path clip-path="url(#pd19620f2ae)" d="M 226.589687 155.040375 
L 226.589687 155.040375 
L 226.351608 155.040375 
L 226.351608 155.040375 
L 226.173047 155.040375 
L 225.994487 155.040375 
L 225.994487 155.040375 
L 225.756407 155.040375 
L 225.756407 155.040375 
L 225.577847 155.040375 
L 225.399287 155.040375 
L 225.399287 155.040375 
L 225.161207 155.040375 
L 225.161207 155.040375 
L 224.982647 155.040375 
L 226.173047 154.774263 
L 230.637047 153.443703 
L 236.946168 153.443703 
L 241.469687 151.492215 
L 243.790967 151.847031 
" style="fill:none;stroke:#9467bd;stroke-linecap:square;stroke-width:1.5;"/>
   </g>
   <g id="line2d_60">
    <path clip-path="url(#pd19620f2ae)" d="M 226.589687 155.040375 
L 222.958967 154.907319 
L 223.554168 154.242039 
L 224.327927 154.242039 
L 225.339767 154.552503 
L 225.101687 154.242039 
L 224.923127 153.576759 
L 224.744567 152.955831 
L 224.327927 152.955831 
L 224.149367 152.955831 
L 223.792248 152.955831 
L 223.554168 152.955831 
L 223.197047 152.955831 
L 222.958967 152.955831 
L 222.601847 153.266295 
L 220.816248 153.576759 
L 221.411448 153.266295 
L 222.006647 152.955831 
L 219.625847 152.601015 
L 222.780407 152.601015 
" style="fill:none;stroke:#8c564b;stroke-linecap:square;stroke-width:1.5;"/>
   </g>
   <g id="line2d_61">
    <path clip-path="url(#pd19620f2ae)" d="M 226.589687 155.040375 
L 226.589687 155.040375 
L 226.589687 155.040375 
L 226.470647 155.040375 
L 226.470647 155.040375 
L 226.232567 155.040375 
L 226.232567 155.040375 
L 226.232567 155.040375 
L 226.054007 155.350839 
L 226.054007 155.350839 
L 225.875448 155.350839 
L 225.875448 155.350839 
L 225.875448 155.350839 
L 225.637368 155.350839 
L 225.637368 155.350839 
L 226.827767 155.350839 
L 230.756088 154.375095 
L 236.231927 152.778423 
L 242.660088 152.778423 
L 244.088568 152.778423 
" style="fill:none;stroke:#e377c2;stroke-linecap:square;stroke-width:1.5;"/>
   </g>
   <g id="line2d_62">
    <path clip-path="url(#pd19620f2ae)" d="M 226.589687 155.040375 
L 225.815927 154.419447 
L 227.125368 154.064631 
L 227.125368 154.064631 
L 227.125368 154.064631 
L 227.125368 153.709815 
L 227.125368 153.709815 
L 227.125368 153.709815 
L 227.006327 153.443703 
L 226.768248 153.443703 
L 226.589687 153.443703 
L 226.589687 153.443703 
L 226.411127 153.443703 
L 226.173047 153.443703 
L 225.994487 153.088887 
L 225.458808 152.467959 
L 224.387448 152.467959 
L 225.220728 152.467959 
L 223.256567 153.443703 
L 227.006327 152.734071 
" style="fill:none;stroke:#7f7f7f;stroke-linecap:square;stroke-width:1.5;"/>
   </g>
   <g id="line2d_63">
    <path clip-path="url(#pd19620f2ae)" d="M 226.589687 155.040375 
L 226.589687 155.040375 
L 226.589687 155.040375 
L 226.589687 155.040375 
L 226.589687 155.040375 
L 226.589687 155.040375 
L 226.589687 155.040375 
L 226.589687 155.040375 
L 226.411127 155.040375 
L 226.411127 155.040375 
L 226.411127 155.040375 
L 226.411127 155.040375 
L 226.411127 155.040375 
L 226.411127 155.040375 
L 226.411127 155.040375 
L 227.601528 154.729911 
L 230.934647 154.064631 
L 235.993847 152.778423 
L 240.874487 152.467959 
L 240.517368 152.467959 
" style="fill:none;stroke:#bcbd22;stroke-linecap:square;stroke-width:1.5;"/>
   </g>
   <g id="line2d_64">
    <path clip-path="url(#pd19620f2ae)" d="M 226.589687 155.040375 
L 223.435127 154.330743 
L 225.042168 154.330743 
L 225.042168 154.330743 
L 225.042168 154.064631 
L 225.042168 154.064631 
L 225.042168 153.709815 
L 225.042168 153.709815 
L 225.220728 153.354999 
L 225.220728 153.354999 
L 225.220728 153.088887 
L 225.220728 153.088887 
L 225.220728 152.734071 
L 225.220728 152.734071 
L 225.042168 152.734071 
L 223.256567 153.709815 
L 223.435127 153.709815 
L 223.613687 153.709815 
L 220.875767 154.330743 
L 225.815927 153.088887 
" style="fill:none;stroke:#17becf;stroke-linecap:square;stroke-width:1.5;"/>
   </g>
   <g id="line2d_65">
    <path clip-path="url(#pd19620f2ae)" d="M 226.589687 155.040375 
L 226.827767 155.040375 
L 227.065847 154.729911 
L 227.422967 154.729911 
L 227.661047 154.729911 
L 227.780088 154.419447 
L 228.256248 154.419447 
L 228.375287 154.064631 
L 228.613368 154.064631 
L 228.732407 153.754167 
L 229.208567 153.754167 
L 229.327607 153.443703 
L 229.565687 153.443703 
L 229.803767 153.443703 
L 230.160888 153.088887 
L 230.398967 153.088887 
L 232.303607 152.778423 
L 237.422327 153.754167 
L 240.338808 151.802679 
L 240.755448 152.778423 
" style="fill:none;stroke:#1f77b4;stroke-linecap:square;stroke-width:1.5;"/>
   </g>
   <g id="line2d_66">
    <path clip-path="url(#pd19620f2ae)" d="M 226.589687 155.040375 
L 225.399287 154.729911 
L 226.946808 154.729911 
L 227.303927 154.729911 
L 227.899127 154.729911 
L 227.899127 154.729911 
L 227.899127 154.729911 
L 228.137207 154.729911 
L 228.137207 154.729911 
L 228.256248 154.729911 
L 228.256248 154.729911 
L 228.256248 154.729911 
L 228.494327 154.729911 
L 228.494327 154.729911 
L 228.256248 155.040375 
L 226.113528 155.040375 
L 225.399287 155.040375 
L 224.566007 155.040375 
L 223.851767 155.040375 
L 228.732407 154.729911 
" style="fill:none;stroke:#ff7f0e;stroke-linecap:square;stroke-width:1.5;"/>
   </g>
   <g id="line2d_67">
    <path clip-path="url(#pd19620f2ae)" d="M 226.589687 155.040375 
L 226.589687 155.040375 
L 226.589687 155.040375 
L 226.589687 155.040375 
L 226.589687 154.729911 
L 226.589687 154.729911 
L 226.589687 154.729911 
L 226.589687 154.729911 
L 226.589687 154.419447 
L 226.589687 154.419447 
L 226.589687 154.419447 
L 226.589687 154.064631 
L 226.589687 154.064631 
L 226.589687 154.064631 
L 226.589687 154.064631 
L 228.018168 154.064631 
L 231.351287 153.088887 
L 236.231927 152.467959 
L 239.565047 151.492215 
L 239.922168 152.778423 
" style="fill:none;stroke:#2ca02c;stroke-linecap:square;stroke-width:1.5;"/>
   </g>
   <g id="line2d_68">
    <path clip-path="url(#pd19620f2ae)" d="M 226.589687 155.040375 
L 226.768248 154.375095 
L 228.137207 153.754167 
L 228.553847 153.754167 
L 229.149047 153.399351 
L 229.149047 153.399351 
L 229.327607 153.399351 
L 229.327607 153.088887 
L 229.506168 153.088887 
L 229.684728 152.778423 
L 229.684728 152.778423 
L 229.922808 152.778423 
L 229.922808 152.423607 
L 230.101368 152.423607 
L 229.922808 152.423607 
L 227.780088 154.729911 
L 226.946808 154.729911 
L 226.173047 154.729911 
L 225.637368 154.729911 
L 229.506168 153.754167 
" style="fill:none;stroke:#d62728;stroke-linecap:square;stroke-width:1.5;"/>
   </g>
   <g id="line2d_69">
    <path clip-path="url(#pd19620f2ae)" d="M 226.589687 155.040375 
L 226.946808 155.040375 
L 227.184888 155.040375 
L 227.542007 154.907319 
L 227.958647 154.729911 
L 228.256248 154.729911 
L 228.553847 154.552503 
L 228.970487 154.552503 
L 229.208567 154.419447 
L 229.565687 154.419447 
L 229.803767 154.242039 
L 230.220407 154.242039 
L 230.637047 154.064631 
L 230.815607 153.931575 
L 231.232247 153.931575 
L 231.589368 153.931575 
L 233.553528 153.266295 
L 241.231607 153.576759 
L 248.612088 152.601015 
L 251.350008 154.242039 
" style="fill:none;stroke:#9467bd;stroke-linecap:square;stroke-width:1.5;"/>
   </g>
   <g id="line2d_70">
    <path clip-path="url(#pd19620f2ae)" d="M 226.589687 155.040375 
L 231.232247 155.040375 
L 233.613047 155.040375 
L 233.374967 154.729911 
L 233.255927 154.419447 
L 233.255927 154.064631 
L 233.017847 153.754167 
L 232.779767 153.443703 
L 232.660728 153.088887 
L 232.422647 152.778423 
L 232.422647 152.467959 
L 232.184567 152.113143 
L 232.065528 151.802679 
L 231.827448 151.492215 
L 231.470327 151.137399 
L 228.732407 151.137399 
L 227.899127 151.802679 
L 226.946808 152.778423 
L 226.113528 153.443703 
L 232.422647 152.113143 
" style="fill:none;stroke:#8c564b;stroke-linecap:square;stroke-width:1.5;"/>
   </g>
   <g id="patch_3">
    <path d="M 48.029688 288.096375 
L 48.029688 21.984375 
" style="fill:none;stroke:#000000;stroke-linecap:square;stroke-linejoin:miter;stroke-width:0.8;"/>
   </g>
   <g id="patch_4">
    <path d="M 405.149688 288.096375 
L 405.149688 21.984375 
" style="fill:none;stroke:#000000;stroke-linecap:square;stroke-linejoin:miter;stroke-width:0.8;"/>
   </g>
   <g id="patch_5">
    <path d="M 48.029687 288.096375 
L 405.149688 288.096375 
" style="fill:none;stroke:#000000;stroke-linecap:square;stroke-linejoin:miter;stroke-width:0.8;"/>
   </g>
   <g id="patch_6">
    <path d="M 48.029687 21.984375 
L 405.149688 21.984375 
" style="fill:none;stroke:#000000;stroke-linecap:square;stroke-linejoin:miter;stroke-width:0.8;"/>
   </g>
   <g id="text_15">
    <!-- nexus_5 -->
    <g transform="translate(201.903437 15.984375)scale(0.12 -0.12)">
     <defs>
      <path d="M 54.890625 33.015625 
L 54.890625 0 
L 45.90625 0 
L 45.90625 32.71875 
Q 45.90625 40.484375 42.875 44.328125 
Q 39.84375 48.1875 33.796875 48.1875 
Q 26.515625 48.1875 22.3125 43.546875 
Q 18.109375 38.921875 18.109375 30.90625 
L 18.109375 0 
L 9.078125 0 
L 9.078125 54.6875 
L 18.109375 54.6875 
L 18.109375 46.1875 
Q 21.34375 51.125 25.703125 53.5625 
Q 30.078125 56 35.796875 56 
Q 45.21875 56 50.046875 50.171875 
Q 54.890625 44.34375 54.890625 33.015625 
z
" id="DejaVuSans-110"/>
      <path d="M 56.203125 29.59375 
L 56.203125 25.203125 
L 14.890625 25.203125 
Q 15.484375 15.921875 20.484375 11.0625 
Q 25.484375 6.203125 34.421875 6.203125 
Q 39.59375 6.203125 44.453125 7.46875 
Q 49.3125 8.734375 54.109375 11.28125 
L 54.109375 2.78125 
Q 49.265625 0.734375 44.1875 -0.34375 
Q 39.109375 -1.421875 33.890625 -1.421875 
Q 20.796875 -1.421875 13.15625 6.1875 
Q 5.515625 13.8125 5.515625 26.8125 
Q 5.515625 40.234375 12.765625 48.109375 
Q 20.015625 56 32.328125 56 
Q 43.359375 56 49.78125 48.890625 
Q 56.203125 41.796875 56.203125 29.59375 
z
M 47.21875 32.234375 
Q 47.125 39.59375 43.09375 43.984375 
Q 39.0625 48.390625 32.421875 48.390625 
Q 24.90625 48.390625 20.390625 44.140625 
Q 15.875 39.890625 15.1875 32.171875 
z
" id="DejaVuSans-101"/>
      <path d="M 54.890625 54.6875 
L 35.109375 28.078125 
L 55.90625 0 
L 45.3125 0 
L 29.390625 21.484375 
L 13.484375 0 
L 2.875 0 
L 24.125 28.609375 
L 4.6875 54.6875 
L 15.28125 54.6875 
L 29.78125 35.203125 
L 44.28125 54.6875 
z
" id="DejaVuSans-120"/>
      <path d="M 8.5 21.578125 
L 8.5 54.6875 
L 17.484375 54.6875 
L 17.484375 21.921875 
Q 17.484375 14.15625 20.5 10.265625 
Q 23.53125 6.390625 29.59375 6.390625 
Q 36.859375 6.390625 41.078125 11.03125 
Q 45.3125 15.671875 45.3125 23.6875 
L 45.3125 54.6875 
L 54.296875 54.6875 
L 54.296875 0 
L 45.3125 0 
L 45.3125 8.40625 
Q 42.046875 3.421875 37.71875 1 
Q 33.40625 -1.421875 27.6875 -1.421875 
Q 18.265625 -1.421875 13.375 4.4375 
Q 8.5 10.296875 8.5 21.578125 
z
M 31.109375 56 
z
" id="DejaVuSans-117"/>
      <path d="M 44.28125 53.078125 
L 44.28125 44.578125 
Q 40.484375 46.53125 36.375 47.5 
Q 32.28125 48.484375 27.875 48.484375 
Q 21.1875 48.484375 17.84375 46.4375 
Q 14.5 44.390625 14.5 40.28125 
Q 14.5 37.15625 16.890625 35.375 
Q 19.28125 33.59375 26.515625 31.984375 
L 29.59375 31.296875 
Q 39.15625 29.25 43.1875 25.515625 
Q 47.21875 21.78125 47.21875 15.09375 
Q 47.21875 7.46875 41.1875 3.015625 
Q 35.15625 -1.421875 24.609375 -1.421875 
Q 20.21875 -1.421875 15.453125 -0.5625 
Q 10.6875 0.296875 5.421875 2 
L 5.421875 11.28125 
Q 10.40625 8.6875 15.234375 7.390625 
Q 20.0625 6.109375 24.8125 6.109375 
Q 31.15625 6.109375 34.5625 8.28125 
Q 37.984375 10.453125 37.984375 14.40625 
Q 37.984375 18.0625 35.515625 20.015625 
Q 33.0625 21.96875 24.703125 23.78125 
L 21.578125 24.515625 
Q 13.234375 26.265625 9.515625 29.90625 
Q 5.8125 33.546875 5.8125 39.890625 
Q 5.8125 47.609375 11.28125 51.796875 
Q 16.75 56 26.8125 56 
Q 31.78125 56 36.171875 55.265625 
Q 40.578125 54.546875 44.28125 53.078125 
z
" id="DejaVuSans-115"/>
      <path d="M 50.984375 -16.609375 
L 50.984375 -23.578125 
L -0.984375 -23.578125 
L -0.984375 -16.609375 
z
" id="DejaVuSans-95"/>
     </defs>
     <use xlink:href="#DejaVuSans-110"/>
     <use x="63.378906" xlink:href="#DejaVuSans-101"/>
     <use x="123.152344" xlink:href="#DejaVuSans-120"/>
     <use x="182.332031" xlink:href="#DejaVuSans-117"/>
     <use x="245.710938" xlink:href="#DejaVuSans-115"/>
     <use x="297.810547" xlink:href="#DejaVuSans-95"/>
     <use x="347.810547" xlink:href="#DejaVuSans-53"/>
    </g>
   </g>
  </g>
 </g>
 <defs>
  <clipPath id="pd19620f2ae">
   <rect height="266.112" width="357.12" x="48.029688" y="21.984375"/>
  </clipPath>
 </defs>
</svg>
