<?xml version="1.0" encoding="utf-8" standalone="no"?>
<!DOCTYPE svg PUBLIC "-//W3C//DTD SVG 1.1//EN"
  "http://www.w3.org/Graphics/SVG/1.1/DTD/svg11.dtd">
<!-- Created with matplotlib (https://matplotlib.org/) -->
<svg height="311.9745pt" version="1.1" viewBox="0 0 425.074687 311.9745" width="425.074687pt" xmlns="http://www.w3.org/2000/svg" xmlns:xlink="http://www.w3.org/1999/xlink">
 <metadata>
  <rdf:RDF xmlns:cc="http://creativecommons.org/ns#" xmlns:dc="http://purl.org/dc/elements/1.1/" xmlns:rdf="http://www.w3.org/1999/02/22-rdf-syntax-ns#">
   <cc:Work>
    <dc:type rdf:resource="http://purl.org/dc/dcmitype/StillImage"/>
    <dc:date>2023-10-16T01:56:10.102835</dc:date>
    <dc:format>image/svg+xml</dc:format>
    <dc:creator>
     <cc:Agent>
      <dc:title>Matplotlib v3.3.4, https://matplotlib.org/</dc:title>
     </cc:Agent>
    </dc:creator>
   </cc:Work>
  </rdf:RDF>
 </metadata>
 <defs>
  <style type="text/css">*{stroke-linecap:butt;stroke-linejoin:round;}</style>
 </defs>
 <g id="figure_1">
  <g id="patch_1">
   <path d="M 0 311.9745 
L 425.074687 311.9745 
L 425.074687 0 
L 0 0 
z
" style="fill:#ffffff;"/>
  </g>
  <g id="axes_1">
   <g id="patch_2">
    <path d="M 48.029688 288.096375 
L 405.149688 288.096375 
L 405.149688 21.984375 
L 48.029688 21.984375 
z
" style="fill:#ffffff;"/>
   </g>
   <g id="matplotlib.axis_1">
    <g id="xtick_1">
     <g id="line2d_1">
      <defs>
       <path d="M 0 0 
L 0 3.5 
" id="m727560c78a" style="stroke:#000000;stroke-width:0.8;"/>
      </defs>
      <g>
       <use style="stroke:#000000;stroke-width:0.8;" x="48.029687" xlink:href="#m727560c78a" y="288.096375"/>
      </g>
     </g>
     <g id="text_1">
      <!-- −1500 -->
      <g transform="translate(31.114844 302.694812)scale(0.1 -0.1)">
       <defs>
        <path d="M 10.59375 35.5 
L 73.1875 35.5 
L 73.1875 27.203125 
L 10.59375 27.203125 
z
" id="DejaVuSans-8722"/>
        <path d="M 12.40625 8.296875 
L 28.515625 8.296875 
L 28.515625 63.921875 
L 10.984375 60.40625 
L 10.984375 69.390625 
L 28.421875 72.90625 
L 38.28125 72.90625 
L 38.28125 8.296875 
L 54.390625 8.296875 
L 54.390625 0 
L 12.40625 0 
z
" id="DejaVuSans-49"/>
        <path d="M 10.796875 72.90625 
L 49.515625 72.90625 
L 49.515625 64.59375 
L 19.828125 64.59375 
L 19.828125 46.734375 
Q 21.96875 47.46875 24.109375 47.828125 
Q 26.265625 48.1875 28.421875 48.1875 
Q 40.625 48.1875 47.75 41.5 
Q 54.890625 34.8125 54.890625 23.390625 
Q 54.890625 11.625 47.5625 5.09375 
Q 40.234375 -1.421875 26.90625 -1.421875 
Q 22.3125 -1.421875 17.546875 -0.640625 
Q 12.796875 0.140625 7.71875 1.703125 
L 7.71875 11.625 
Q 12.109375 9.234375 16.796875 8.0625 
Q 21.484375 6.890625 26.703125 6.890625 
Q 35.15625 6.890625 40.078125 11.328125 
Q 45.015625 15.765625 45.015625 23.390625 
Q 45.015625 31 40.078125 35.4375 
Q 35.15625 39.890625 26.703125 39.890625 
Q 22.75 39.890625 18.8125 39.015625 
Q 14.890625 38.140625 10.796875 36.28125 
z
" id="DejaVuSans-53"/>
        <path d="M 31.78125 66.40625 
Q 24.171875 66.40625 20.328125 58.90625 
Q 16.5 51.421875 16.5 36.375 
Q 16.5 21.390625 20.328125 13.890625 
Q 24.171875 6.390625 31.78125 6.390625 
Q 39.453125 6.390625 43.28125 13.890625 
Q 47.125 21.390625 47.125 36.375 
Q 47.125 51.421875 43.28125 58.90625 
Q 39.453125 66.40625 31.78125 66.40625 
z
M 31.78125 74.21875 
Q 44.046875 74.21875 50.515625 64.515625 
Q 56.984375 54.828125 56.984375 36.375 
Q 56.984375 17.96875 50.515625 8.265625 
Q 44.046875 -1.421875 31.78125 -1.421875 
Q 19.53125 -1.421875 13.0625 8.265625 
Q 6.59375 17.96875 6.59375 36.375 
Q 6.59375 54.828125 13.0625 64.515625 
Q 19.53125 74.21875 31.78125 74.21875 
z
" id="DejaVuSans-48"/>
       </defs>
       <use xlink:href="#DejaVuSans-8722"/>
       <use x="83.789062" xlink:href="#DejaVuSans-49"/>
       <use x="147.412109" xlink:href="#DejaVuSans-53"/>
       <use x="211.035156" xlink:href="#DejaVuSans-48"/>
       <use x="274.658203" xlink:href="#DejaVuSans-48"/>
      </g>
     </g>
    </g>
    <g id="xtick_2">
     <g id="line2d_2">
      <g>
       <use style="stroke:#000000;stroke-width:0.8;" x="107.549688" xlink:href="#m727560c78a" y="288.096375"/>
      </g>
     </g>
     <g id="text_2">
      <!-- −1000 -->
      <g transform="translate(90.634844 302.694812)scale(0.1 -0.1)">
       <use xlink:href="#DejaVuSans-8722"/>
       <use x="83.789062" xlink:href="#DejaVuSans-49"/>
       <use x="147.412109" xlink:href="#DejaVuSans-48"/>
       <use x="211.035156" xlink:href="#DejaVuSans-48"/>
       <use x="274.658203" xlink:href="#DejaVuSans-48"/>
      </g>
     </g>
    </g>
    <g id="xtick_3">
     <g id="line2d_3">
      <g>
       <use style="stroke:#000000;stroke-width:0.8;" x="167.069687" xlink:href="#m727560c78a" y="288.096375"/>
      </g>
     </g>
     <g id="text_3">
      <!-- −500 -->
      <g transform="translate(153.336094 302.694812)scale(0.1 -0.1)">
       <use xlink:href="#DejaVuSans-8722"/>
       <use x="83.789062" xlink:href="#DejaVuSans-53"/>
       <use x="147.412109" xlink:href="#DejaVuSans-48"/>
       <use x="211.035156" xlink:href="#DejaVuSans-48"/>
      </g>
     </g>
    </g>
    <g id="xtick_4">
     <g id="line2d_4">
      <g>
       <use style="stroke:#000000;stroke-width:0.8;" x="226.589687" xlink:href="#m727560c78a" y="288.096375"/>
      </g>
     </g>
     <g id="text_4">
      <!-- 0 -->
      <g transform="translate(223.408437 302.694812)scale(0.1 -0.1)">
       <use xlink:href="#DejaVuSans-48"/>
      </g>
     </g>
    </g>
    <g id="xtick_5">
     <g id="line2d_5">
      <g>
       <use style="stroke:#000000;stroke-width:0.8;" x="286.109688" xlink:href="#m727560c78a" y="288.096375"/>
      </g>
     </g>
     <g id="text_5">
      <!-- 500 -->
      <g transform="translate(276.565938 302.694812)scale(0.1 -0.1)">
       <use xlink:href="#DejaVuSans-53"/>
       <use x="63.623047" xlink:href="#DejaVuSans-48"/>
       <use x="127.246094" xlink:href="#DejaVuSans-48"/>
      </g>
     </g>
    </g>
    <g id="xtick_6">
     <g id="line2d_6">
      <g>
       <use style="stroke:#000000;stroke-width:0.8;" x="345.629687" xlink:href="#m727560c78a" y="288.096375"/>
      </g>
     </g>
     <g id="text_6">
      <!-- 1000 -->
      <g transform="translate(332.904687 302.694812)scale(0.1 -0.1)">
       <use xlink:href="#DejaVuSans-49"/>
       <use x="63.623047" xlink:href="#DejaVuSans-48"/>
       <use x="127.246094" xlink:href="#DejaVuSans-48"/>
       <use x="190.869141" xlink:href="#DejaVuSans-48"/>
      </g>
     </g>
    </g>
    <g id="xtick_7">
     <g id="line2d_7">
      <g>
       <use style="stroke:#000000;stroke-width:0.8;" x="405.149688" xlink:href="#m727560c78a" y="288.096375"/>
      </g>
     </g>
     <g id="text_7">
      <!-- 1500 -->
      <g transform="translate(392.424688 302.694812)scale(0.1 -0.1)">
       <use xlink:href="#DejaVuSans-49"/>
       <use x="63.623047" xlink:href="#DejaVuSans-53"/>
       <use x="127.246094" xlink:href="#DejaVuSans-48"/>
       <use x="190.869141" xlink:href="#DejaVuSans-48"/>
      </g>
     </g>
    </g>
   </g>
   <g id="matplotlib.axis_2">
    <g id="ytick_1">
     <g id="line2d_8">
      <defs>
       <path d="M 0 0 
L -3.5 0 
" id="mbf41e90e99" style="stroke:#000000;stroke-width:0.8;"/>
      </defs>
      <g>
       <use style="stroke:#000000;stroke-width:0.8;" x="48.029688" xlink:href="#mbf41e90e99" y="288.096375"/>
      </g>
     </g>
     <g id="text_8">
      <!-- −1500 -->
      <g transform="translate(7.2 291.895594)scale(0.1 -0.1)">
       <use xlink:href="#DejaVuSans-8722"/>
       <use x="83.789062" xlink:href="#DejaVuSans-49"/>
       <use x="147.412109" xlink:href="#DejaVuSans-53"/>
       <use x="211.035156" xlink:href="#DejaVuSans-48"/>
       <use x="274.658203" xlink:href="#DejaVuSans-48"/>
      </g>
     </g>
    </g>
    <g id="ytick_2">
     <g id="line2d_9">
      <g>
       <use style="stroke:#000000;stroke-width:0.8;" x="48.029688" xlink:href="#mbf41e90e99" y="243.744375"/>
      </g>
     </g>
     <g id="text_9">
      <!-- −1000 -->
      <g transform="translate(7.2 247.543594)scale(0.1 -0.1)">
       <use xlink:href="#DejaVuSans-8722"/>
       <use x="83.789062" xlink:href="#DejaVuSans-49"/>
       <use x="147.412109" xlink:href="#DejaVuSans-48"/>
       <use x="211.035156" xlink:href="#DejaVuSans-48"/>
       <use x="274.658203" xlink:href="#DejaVuSans-48"/>
      </g>
     </g>
    </g>
    <g id="ytick_3">
     <g id="line2d_10">
      <g>
       <use style="stroke:#000000;stroke-width:0.8;" x="48.029688" xlink:href="#mbf41e90e99" y="199.392375"/>
      </g>
     </g>
     <g id="text_10">
      <!-- −500 -->
      <g transform="translate(13.5625 203.191594)scale(0.1 -0.1)">
       <use xlink:href="#DejaVuSans-8722"/>
       <use x="83.789062" xlink:href="#DejaVuSans-53"/>
       <use x="147.412109" xlink:href="#DejaVuSans-48"/>
       <use x="211.035156" xlink:href="#DejaVuSans-48"/>
      </g>
     </g>
    </g>
    <g id="ytick_4">
     <g id="line2d_11">
      <g>
       <use style="stroke:#000000;stroke-width:0.8;" x="48.029688" xlink:href="#mbf41e90e99" y="155.040375"/>
      </g>
     </g>
     <g id="text_11">
      <!-- 0 -->
      <g transform="translate(34.667187 158.839594)scale(0.1 -0.1)">
       <use xlink:href="#DejaVuSans-48"/>
      </g>
     </g>
    </g>
    <g id="ytick_5">
     <g id="line2d_12">
      <g>
       <use style="stroke:#000000;stroke-width:0.8;" x="48.029688" xlink:href="#mbf41e90e99" y="110.688375"/>
      </g>
     </g>
     <g id="text_12">
      <!-- 500 -->
      <g transform="translate(21.942187 114.487594)scale(0.1 -0.1)">
       <use xlink:href="#DejaVuSans-53"/>
       <use x="63.623047" xlink:href="#DejaVuSans-48"/>
       <use x="127.246094" xlink:href="#DejaVuSans-48"/>
      </g>
     </g>
    </g>
    <g id="ytick_6">
     <g id="line2d_13">
      <g>
       <use style="stroke:#000000;stroke-width:0.8;" x="48.029688" xlink:href="#mbf41e90e99" y="66.336375"/>
      </g>
     </g>
     <g id="text_13">
      <!-- 1000 -->
      <g transform="translate(15.579687 70.135594)scale(0.1 -0.1)">
       <use xlink:href="#DejaVuSans-49"/>
       <use x="63.623047" xlink:href="#DejaVuSans-48"/>
       <use x="127.246094" xlink:href="#DejaVuSans-48"/>
       <use x="190.869141" xlink:href="#DejaVuSans-48"/>
      </g>
     </g>
    </g>
    <g id="ytick_7">
     <g id="line2d_14">
      <g>
       <use style="stroke:#000000;stroke-width:0.8;" x="48.029688" xlink:href="#mbf41e90e99" y="21.984375"/>
      </g>
     </g>
     <g id="text_14">
      <!-- 1500 -->
      <g transform="translate(15.579687 25.783594)scale(0.1 -0.1)">
       <use xlink:href="#DejaVuSans-49"/>
       <use x="63.623047" xlink:href="#DejaVuSans-53"/>
       <use x="127.246094" xlink:href="#DejaVuSans-48"/>
       <use x="190.869141" xlink:href="#DejaVuSans-48"/>
      </g>
     </g>
    </g>
   </g>
   <g id="line2d_15">
    <path clip-path="url(#pa0bbdf46a4)" d="M 226.589687 155.040375 
L 226.946808 154.552503 
L 227.184888 154.242039 
L 227.244407 154.862967 
L 227.482487 155.661303 
L 227.720567 156.637047 
L 227.958647 157.346679 
L 227.958647 158.322423 
L 227.184888 158.588535 
L 226.470647 159.298167 
L 226.232567 161.249655 
L 222.839927 161.249655 
L 225.934967 164.797815 
L 222.601847 165.152631 
L 220.102007 165.418743 
L 217.066487 165.596151 
L 214.030968 165.596151 
L 210.995448 165.640503 
L 207.959927 165.463095 
L 204.983927 165.463095 
" style="fill:none;stroke:#1f77b4;stroke-linecap:square;stroke-width:1.5;"/>
   </g>
   <g id="line2d_16">
    <path clip-path="url(#pa0bbdf46a4)" d="M 226.589687 155.040375 
L 222.363767 155.350839 
L 215.757047 155.040375 
L 210.638328 155.040375 
L 206.114807 156.016119 
L 202.543608 157.302327 
L 201.234168 157.302327 
L 199.746168 157.302327 
L 198.496248 157.302327 
L 197.662968 157.612791 
L 197.662968 157.612791 
L 197.662968 157.612791 
L 197.662968 157.967607 
L 197.662968 157.967607 
L 197.662968 157.967607 
L 197.662968 158.278071 
L 197.424888 158.278071 
L 197.424888 158.588535 
L 197.424888 158.588535 
L 197.424888 158.588535 
" style="fill:none;stroke:#ff7f0e;stroke-linecap:square;stroke-width:1.5;"/>
   </g>
   <g id="line2d_17">
    <path clip-path="url(#pa0bbdf46a4)" d="M 226.589687 155.040375 
L 226.589687 155.040375 
L 226.589687 155.040375 
L 226.351608 155.350839 
L 226.351608 155.350839 
L 226.351608 155.350839 
L 226.351608 155.350839 
L 226.351608 155.350839 
L 226.351608 155.350839 
L 225.518327 155.661303 
L 223.494647 156.016119 
L 221.351927 156.016119 
L 221.173367 156.991863 
L 220.994808 157.612791 
L 220.875767 157.612791 
L 220.756728 157.612791 
L 220.637687 157.302327 
L 220.637687 157.302327 
L 220.637687 156.637047 
L 220.578168 156.503991 
" style="fill:none;stroke:#2ca02c;stroke-linecap:square;stroke-width:1.5;"/>
   </g>
   <g id="line2d_18">
    <path clip-path="url(#pa0bbdf46a4)" d="M 226.589687 155.040375 
L 226.530168 155.040375 
L 226.530168 154.996023 
L 226.351608 155.173431 
L 226.351608 155.350839 
L 226.232567 155.483895 
L 226.232567 155.306487 
L 226.232567 155.483895 
L 225.994487 155.661303 
L 226.113528 155.528247 
L 226.113528 155.528247 
L 226.232567 155.528247 
L 226.232567 155.350839 
L 225.994487 154.996023 
L 226.887287 154.996023 
L 230.458487 154.375095 
L 235.160567 154.330743 
L 239.386487 153.399351 
L 240.636407 153.044535 
L 242.660088 153.399351 
" style="fill:none;stroke:#d62728;stroke-linecap:square;stroke-width:1.5;"/>
   </g>
   <g id="line2d_19">
    <path clip-path="url(#pa0bbdf46a4)" d="M 226.589687 155.040375 
L 227.839607 155.750007 
L 228.077687 155.750007 
L 228.077687 155.750007 
L 228.077687 155.750007 
L 228.077687 155.750007 
L 228.077687 155.395191 
L 228.077687 155.395191 
L 228.077687 155.395191 
L 228.018168 155.395191 
L 228.018168 155.395191 
L 228.018168 155.040375 
L 228.018168 155.040375 
L 228.018168 155.040375 
L 228.018168 155.040375 
L 228.018168 155.040375 
L 226.827767 155.040375 
L 224.863608 155.395191 
L 229.744248 155.395191 
L 228.256248 155.750007 
" style="fill:none;stroke:#9467bd;stroke-linecap:square;stroke-width:1.5;"/>
   </g>
   <g id="line2d_20">
    <path clip-path="url(#pa0bbdf46a4)" d="M 226.589687 155.040375 
L 229.922808 154.242039 
L 233.553528 153.266295 
L 235.636728 154.064631 
L 238.255607 153.621111 
L 240.517368 152.645367 
L 241.588728 152.645367 
L 241.826808 152.911479 
L 241.826808 152.911479 
L 241.826808 152.911479 
L 241.826808 152.911479 
L 241.826808 152.911479 
L 241.826808 152.911479 
L 241.826808 152.911479 
L 241.826808 152.911479 
L 241.826808 152.911479 
L 241.826808 152.911479 
L 241.826808 152.911479 
L 241.826808 152.911479 
L 241.826808 153.266295 
" style="fill:none;stroke:#8c564b;stroke-linecap:square;stroke-width:1.5;"/>
   </g>
   <g id="line2d_21">
    <path clip-path="url(#pa0bbdf46a4)" d="M 226.589687 155.040375 
L 227.661047 155.483895 
L 229.268088 155.306487 
L 230.279927 155.040375 
L 230.696567 155.306487 
L 231.172728 155.306487 
L 231.172728 155.306487 
L 230.934647 155.306487 
L 230.934647 155.306487 
L 230.696567 155.306487 
L 230.696567 155.306487 
L 230.518008 155.306487 
L 230.518008 155.306487 
L 230.279927 155.306487 
L 230.279927 155.306487 
L 230.101368 155.306487 
L 230.101368 155.306487 
L 230.101368 155.040375 
L 230.101368 155.040375 
L 228.494327 154.685559 
" style="fill:none;stroke:#e377c2;stroke-linecap:square;stroke-width:1.5;"/>
   </g>
   <g id="line2d_22">
    <path clip-path="url(#pa0bbdf46a4)" d="M 226.589687 155.040375 
L 225.518327 155.040375 
L 224.685047 155.350839 
L 223.851767 155.350839 
L 223.197047 155.661303 
L 223.197047 155.661303 
L 223.018487 155.661303 
L 223.018487 155.661303 
L 222.780407 155.661303 
L 222.780407 155.661303 
L 222.542327 155.661303 
L 222.542327 155.661303 
L 222.542327 155.661303 
L 222.363767 155.661303 
L 222.363767 155.661303 
L 222.125687 155.661303 
L 222.125687 155.661303 
L 221.947127 155.661303 
L 221.947127 155.661303 
L 222.125687 155.661303 
" style="fill:none;stroke:#7f7f7f;stroke-linecap:square;stroke-width:1.5;"/>
   </g>
   <g id="line2d_23">
    <path clip-path="url(#pa0bbdf46a4)" d="M 226.589687 155.040375 
L 227.184888 155.040375 
L 227.839607 155.040375 
L 227.422967 155.040375 
L 225.518327 156.016119 
L 223.494647 156.814455 
L 223.256567 156.814455 
L 223.256567 156.814455 
L 223.256567 156.814455 
L 223.256567 156.814455 
L 223.256567 156.814455 
L 223.256567 156.814455 
L 223.256567 156.814455 
L 223.256567 157.169271 
L 223.970808 157.169271 
L 224.327927 157.169271 
L 224.804088 157.169271 
L 225.280248 157.169271 
L 225.875448 157.169271 
L 226.232567 157.169271 
" style="fill:none;stroke:#bcbd22;stroke-linecap:square;stroke-width:1.5;"/>
   </g>
   <g id="line2d_24">
    <path clip-path="url(#pa0bbdf46a4)" d="M 226.589687 155.040375 
L 227.065847 155.040375 
L 227.542007 155.040375 
L 228.018168 155.217783 
L 228.613368 155.217783 
L 228.970487 155.217783 
L 229.565687 155.217783 
L 229.922808 155.217783 
L 230.577528 155.217783 
L 230.994168 155.217783 
L 231.470327 155.217783 
L 232.065528 155.217783 
L 232.541687 155.217783 
L 233.136888 155.217783 
L 233.970168 155.217783 
L 235.041528 155.217783 
L 235.279607 155.217783 
L 235.458168 155.217783 
L 235.696247 155.217783 
L 235.874808 155.217783 
" style="fill:none;stroke:#17becf;stroke-linecap:square;stroke-width:1.5;"/>
   </g>
   <g id="line2d_25">
    <path clip-path="url(#pa0bbdf46a4)" d="M 226.589687 155.040375 
L 226.708728 155.040375 
L 226.946808 155.040375 
L 227.125368 155.040375 
L 227.303927 155.040375 
L 227.542007 155.040375 
L 227.780088 154.862967 
L 228.375287 155.173431 
L 228.613368 155.173431 
L 228.018168 155.173431 
L 226.946808 155.528247 
L 225.637368 155.838711 
L 229.030008 155.528247 
L 228.375287 155.528247 
L 227.780088 155.173431 
L 227.125368 155.173431 
L 226.530168 154.996023 
L 225.756407 154.729911 
L 224.982647 154.552503 
L 224.149367 154.375095 
" style="fill:none;stroke:#1f77b4;stroke-linecap:square;stroke-width:1.5;"/>
   </g>
   <g id="line2d_26">
    <path clip-path="url(#pa0bbdf46a4)" d="M 226.589687 155.040375 
L 229.803767 154.375095 
L 232.898808 153.399351 
L 235.874808 152.911479 
L 238.374648 152.911479 
L 240.695927 152.911479 
L 243.136247 152.911479 
L 245.040887 153.266295 
L 246.647927 153.266295 
L 248.135927 153.266295 
L 249.802487 153.576759 
L 251.290487 153.576759 
L 252.897527 153.576759 
L 254.564087 153.576759 
L 256.111607 153.576759 
L 257.361527 153.576759 
L 258.849528 153.266295 
L 260.337527 153.266295 
L 261.587447 152.911479 
L 263.075447 152.911479 
" style="fill:none;stroke:#ff7f0e;stroke-linecap:square;stroke-width:1.5;"/>
   </g>
   <g id="line2d_27">
    <path clip-path="url(#pa0bbdf46a4)" d="M 226.589687 155.040375 
L 227.601528 154.862967 
L 229.506168 154.596855 
L 233.910647 153.621111 
L 238.315127 152.645367 
L 242.838648 151.802679 
L 245.874167 151.802679 
L 248.850167 151.802679 
L 251.230967 152.113143 
L 253.314167 152.113143 
L 255.397368 152.467959 
L 257.302008 152.467959 
L 259.444727 152.778423 
L 261.587447 152.778423 
L 263.730167 152.778423 
L 265.396727 153.088887 
L 266.825207 153.443703 
L 268.253688 153.443703 
L 269.801207 153.754167 
L 271.110647 153.754167 
" style="fill:none;stroke:#2ca02c;stroke-linecap:square;stroke-width:1.5;"/>
   </g>
   <g id="line2d_28">
    <path clip-path="url(#pa0bbdf46a4)" d="M 226.589687 155.040375 
L 228.494327 154.685559 
L 230.398967 154.330743 
L 231.232247 154.330743 
L 232.065528 154.685559 
L 232.958327 155.040375 
L 233.851127 155.306487 
L 234.862967 155.306487 
L 235.755767 155.661303 
L 236.589047 156.016119 
L 237.422327 156.016119 
L 239.565047 156.016119 
L 241.767288 156.016119 
L 242.779127 156.016119 
L 241.945847 156.637047 
L 242.660088 157.257975 
L 243.612407 157.967607 
L 244.624247 157.967607 
L 245.874167 157.967607 
L 246.945527 157.967607 
" style="fill:none;stroke:#d62728;stroke-linecap:square;stroke-width:1.5;"/>
   </g>
   <g id="line2d_29">
    <path clip-path="url(#pa0bbdf46a4)" d="M 226.589687 155.040375 
L 227.661047 155.173431 
L 228.910967 155.306487 
L 230.160888 155.306487 
L 231.470327 155.306487 
L 232.779767 155.306487 
L 234.089207 155.306487 
L 235.398647 155.483895 
L 236.767607 155.483895 
L 238.017527 155.483895 
L 239.446008 155.483895 
L 240.695927 155.661303 
L 242.422008 155.661303 
L 243.850487 155.661303 
L 245.576568 155.661303 
L 247.064568 155.661303 
L 248.731127 155.661303 
L 250.278648 155.661303 
L 251.945207 155.661303 
L 255.992568 155.173431 
" style="fill:none;stroke:#9467bd;stroke-linecap:square;stroke-width:1.5;"/>
   </g>
   <g id="line2d_30">
    <path clip-path="url(#pa0bbdf46a4)" d="M 226.589687 155.040375 
L 228.315767 154.685559 
L 230.041847 154.375095 
L 231.708407 154.064631 
L 233.494008 153.709815 
L 235.160567 153.399351 
L 236.946168 153.399351 
L 238.612728 153.088887 
L 240.398327 152.734071 
L 241.707767 152.734071 
L 242.779127 152.734071 
L 243.850487 152.734071 
L 244.862327 153.088887 
L 245.933687 153.088887 
L 247.183607 153.088887 
L 248.254967 153.399351 
L 249.326327 153.399351 
L 250.397687 153.399351 
L 251.469047 153.709815 
L 252.421368 154.064631 
" style="fill:none;stroke:#8c564b;stroke-linecap:square;stroke-width:1.5;"/>
   </g>
   <g id="line2d_31">
    <path clip-path="url(#pa0bbdf46a4)" d="M 226.589687 155.040375 
L 227.006327 153.399351 
L 227.482487 151.447863 
L 227.661047 149.806839 
L 228.077687 148.210167 
L 228.494327 146.569143 
L 228.494327 145.903863 
L 228.494327 144.928119 
L 228.672888 143.952375 
L 228.672888 143.331447 
L 228.910967 142.355703 
L 228.910967 141.379959 
L 229.149047 140.714679 
L 229.149047 139.738935 
L 229.387127 138.763191 
L 229.387127 138.097911 
L 229.387127 136.811703 
L 229.387127 135.037623 
L 229.149047 133.396599 
L 228.910967 132.110391 
" style="fill:none;stroke:#e377c2;stroke-linecap:square;stroke-width:1.5;"/>
   </g>
   <g id="line2d_32">
    <path clip-path="url(#pa0bbdf46a4)" d="M 226.589687 155.040375 
L 226.589687 153.709815 
L 226.589687 152.734071 
L 226.589687 151.758327 
L 226.589687 150.782583 
L 226.589687 149.496375 
L 226.589687 148.520631 
L 226.589687 147.544887 
L 226.589687 146.569143 
L 226.589687 145.282935 
L 226.589687 144.307191 
L 226.589687 143.331447 
L 226.589687 142.000887 
L 226.589687 141.025143 
L 226.589687 140.049399 
L 226.589687 139.118007 
L 226.470647 137.964855 
L 226.589687 137.299575 
L 226.649207 136.501239 
L 226.589687 135.835959 
" style="fill:none;stroke:#7f7f7f;stroke-linecap:square;stroke-width:1.5;"/>
   </g>
   <g id="line2d_33">
    <path clip-path="url(#pa0bbdf46a4)" d="M 226.589687 155.040375 
L 226.232567 154.064631 
L 225.518327 153.088887 
L 224.923127 152.113143 
L 224.327927 151.447863 
L 223.256567 150.782583 
L 221.947127 150.161655 
L 220.875767 149.496375 
L 219.804407 148.831095 
L 218.971127 147.855351 
L 218.375927 146.569143 
L 217.483127 145.593399 
L 216.828407 144.307191 
L 216.114168 143.331447 
L 215.280888 142.000887 
L 214.447608 140.714679 
L 213.614328 139.738935 
L 213.376248 138.452727 
L 213.019127 137.476983 
L 212.662007 136.501239 
" style="fill:none;stroke:#bcbd22;stroke-linecap:square;stroke-width:1.5;"/>
   </g>
   <g id="line2d_34">
    <path clip-path="url(#pa0bbdf46a4)" d="M 226.589687 155.040375 
L 226.232567 153.709815 
L 225.994487 152.734071 
L 225.815927 151.758327 
L 225.399287 150.782583 
L 224.923127 149.806839 
L 224.089847 148.831095 
L 223.494647 148.210167 
L 222.661367 147.411831 
L 221.768567 146.569143 
L 220.935287 145.726455 
L 220.042487 145.105527 
L 219.209207 144.307191 
L 218.614007 143.508855 
L 217.780728 142.799223 
L 217.780728 142.178295 
L 217.959287 141.690423 
L 217.780728 140.714679 
L 217.423608 139.738935 
L 217.006968 138.630135 
" style="fill:none;stroke:#17becf;stroke-linecap:square;stroke-width:1.5;"/>
   </g>
   <g id="line2d_35">
    <path clip-path="url(#pa0bbdf46a4)" d="M 226.589687 155.040375 
L 225.280248 155.395191 
L 223.851767 156.016119 
L 222.542327 156.503991 
L 221.232888 157.169271 
L 220.042487 157.834551 
L 218.733047 158.810295 
L 217.661687 159.431223 
L 216.590328 160.406967 
L 215.280888 161.072247 
L 214.328567 162.047991 
L 213.257207 163.023735 
L 212.542968 164.309943 
L 211.947767 165.640503 
L 211.114487 166.926711 
L 210.400248 168.212919 
L 209.805048 169.543479 
L 209.566968 170.829687 
L 209.566968 172.115895 
L 209.566968 173.091639 
" style="fill:none;stroke:#1f77b4;stroke-linecap:square;stroke-width:1.5;"/>
   </g>
   <g id="line2d_36">
    <path clip-path="url(#pa0bbdf46a4)" d="M 226.589687 155.040375 
L 228.315767 155.040375 
L 229.982327 155.040375 
L 231.648888 155.040375 
L 232.958327 155.040375 
L 234.208247 155.040375 
L 235.458168 155.040375 
L 236.767607 155.173431 
L 238.077047 155.173431 
L 239.326967 155.173431 
L 240.695927 155.173431 
L 241.648247 156.149175 
L 242.719607 156.991863 
L 243.314808 158.278071 
L 243.552887 159.608631 
L 243.910008 160.850487 
L 244.088568 162.181047 
L 244.267127 163.511607 
L 244.267127 164.753463 
L 244.267127 166.084023 
" style="fill:none;stroke:#ff7f0e;stroke-linecap:square;stroke-width:1.5;"/>
   </g>
   <g id="line2d_37">
    <path clip-path="url(#pa0bbdf46a4)" d="M 226.589687 155.040375 
L 228.137207 155.040375 
L 229.565687 155.217783 
L 230.875127 155.395191 
L 232.303607 155.705655 
L 233.851127 155.705655 
L 235.220088 155.705655 
L 236.589047 155.705655 
L 238.077047 156.016119 
L 239.446008 156.016119 
L 240.993527 156.016119 
L 242.422008 156.016119 
L 243.731448 156.370935 
L 245.159927 156.370935 
L 246.707448 156.370935 
L 248.135927 156.370935 
L 249.445368 156.370935 
L 250.873848 156.370935 
L 252.421368 156.370935 
L 253.730807 156.370935 
" style="fill:none;stroke:#2ca02c;stroke-linecap:square;stroke-width:1.5;"/>
   </g>
   <g id="line2d_38">
    <path clip-path="url(#pa0bbdf46a4)" d="M 226.589687 155.040375 
L 227.303927 155.350839 
L 227.899127 156.016119 
L 228.375287 156.681399 
L 228.970487 156.991863 
L 229.565687 157.657143 
L 230.398967 157.967607 
L 231.946487 157.967607 
L 233.374967 157.967607 
L 234.922487 157.967607 
L 236.350967 157.967607 
L 237.898487 157.967607 
L 239.326967 157.967607 
L 240.874487 157.967607 
L 242.302967 157.967607 
L 243.850487 157.967607 
L 245.278967 157.967607 
L 246.826487 157.967607 
L 248.254967 157.967607 
L 249.802487 157.967607 
" style="fill:none;stroke:#d62728;stroke-linecap:square;stroke-width:1.5;"/>
   </g>
   <g id="line2d_39">
    <path clip-path="url(#pa0bbdf46a4)" d="M 226.589687 155.040375 
L 228.137207 155.040375 
L 229.565687 155.040375 
L 231.113207 155.040375 
L 232.660728 154.729911 
L 235.220088 154.375095 
L 237.838967 154.064631 
L 240.398327 153.754167 
L 242.541047 153.399351 
L 244.624247 153.088887 
L 246.707448 152.778423 
L 248.493047 152.778423 
L 249.802487 152.778423 
L 250.992887 153.088887 
L 252.302327 153.399351 
L 253.611767 153.399351 
L 254.802167 153.754167 
L 256.349688 153.754167 
L 257.599607 154.064631 
L 258.849528 154.375095 
" style="fill:none;stroke:#9467bd;stroke-linecap:square;stroke-width:1.5;"/>
   </g>
   <g id="line2d_40">
    <path clip-path="url(#pa0bbdf46a4)" d="M 226.589687 155.040375 
L 227.303927 155.350839 
L 228.137207 155.705655 
L 228.732407 155.705655 
L 229.565687 156.016119 
L 230.458487 156.016119 
L 231.113207 156.326583 
L 231.946487 156.326583 
L 233.017847 156.326583 
L 233.851127 156.326583 
L 234.684407 156.681399 
L 235.517687 156.681399 
L 236.350967 156.681399 
L 237.422327 156.681399 
L 238.315127 156.991863 
L 239.207927 156.991863 
L 240.041207 156.991863 
L 240.874487 156.991863 
L 241.945847 157.302327 
L 242.779127 157.302327 
" style="fill:none;stroke:#8c564b;stroke-linecap:square;stroke-width:1.5;"/>
   </g>
   <g id="line2d_41">
    <path clip-path="url(#pa0bbdf46a4)" d="M 226.589687 155.040375 
L 227.542007 155.395191 
L 228.494327 155.395191 
L 229.446647 155.395191 
L 230.518008 155.705655 
L 231.351287 155.705655 
L 232.422647 155.705655 
L 233.374967 156.016119 
L 234.327287 156.016119 
L 235.279607 156.370935 
L 236.350967 156.370935 
L 237.184247 156.370935 
L 238.315127 156.681399 
L 239.624567 156.681399 
L 240.934008 156.814455 
L 242.183927 156.991863 
L 243.433847 157.169271 
L 244.743288 157.169271 
L 245.993207 157.524087 
L 247.243127 157.524087 
" style="fill:none;stroke:#e377c2;stroke-linecap:square;stroke-width:1.5;"/>
   </g>
   <g id="line2d_42">
    <path clip-path="url(#pa0bbdf46a4)" d="M 226.589687 155.040375 
L 227.839607 155.040375 
L 229.149047 155.217783 
L 230.398967 155.395191 
L 231.648888 155.572599 
L 233.077368 155.572599 
L 234.505847 155.217783 
L 236.053368 154.596855 
L 237.958008 154.064631 
L 240.457847 153.443703 
L 243.076728 152.645367 
L 244.267127 152.645367 
L 245.576568 152.645367 
L 246.886008 152.467959 
L 248.076407 152.467959 
L 249.623927 152.157495 
L 250.933368 152.467959 
L 252.123767 152.778423 
L 253.433207 152.778423 
L 254.742648 153.133239 
" style="fill:none;stroke:#7f7f7f;stroke-linecap:square;stroke-width:1.5;"/>
   </g>
   <g id="line2d_43">
    <path clip-path="url(#pa0bbdf46a4)" d="M 226.589687 155.040375 
L 227.244407 155.395191 
L 227.839607 155.705655 
L 228.553847 156.016119 
L 229.268088 156.016119 
L 229.863287 156.370935 
L 230.577528 156.681399 
L 231.529847 156.681399 
L 232.482168 156.681399 
L 233.315448 156.681399 
L 234.148728 156.991863 
L 235.220088 156.991863 
L 236.053368 156.991863 
L 236.886647 156.991863 
L 237.958008 157.346679 
L 238.791288 157.346679 
L 239.624567 157.346679 
L 240.457847 157.346679 
L 241.529207 157.657143 
L 242.362487 157.657143 
" style="fill:none;stroke:#bcbd22;stroke-linecap:square;stroke-width:1.5;"/>
   </g>
   <g id="line2d_44">
    <path clip-path="url(#pa0bbdf46a4)" d="M 226.589687 155.040375 
L 227.422967 155.350839 
L 228.494327 155.350839 
L 229.387127 155.350839 
L 230.279927 155.705655 
L 231.351287 155.705655 
L 232.184567 155.705655 
L 233.255927 156.016119 
L 234.089207 156.016119 
L 235.160567 156.326583 
L 235.993847 156.326583 
L 237.065207 156.326583 
L 238.017527 156.681399 
L 239.267448 156.681399 
L 240.517368 156.991863 
L 241.826808 156.991863 
L 243.076728 157.169271 
L 244.445687 157.479735 
L 245.755127 157.479735 
L 247.005047 157.790199 
" style="fill:none;stroke:#17becf;stroke-linecap:square;stroke-width:1.5;"/>
   </g>
   <g id="line2d_45">
    <path clip-path="url(#pa0bbdf46a4)" d="M 226.589687 155.040375 
L 228.018168 155.395191 
L 229.268088 155.572599 
L 230.577528 155.705655 
L 231.827448 155.838711 
L 233.196407 155.838711 
L 234.505847 155.572599 
L 235.934327 154.862967 
L 237.958008 154.242039 
L 240.517368 153.621111 
L 243.195767 152.911479 
L 244.445687 152.911479 
L 245.874167 152.911479 
L 247.302648 152.645367 
L 248.731127 152.645367 
L 250.159607 152.290551 
L 251.469047 152.645367 
L 252.778487 152.911479 
L 253.968887 153.266295 
L 255.278327 153.621111 
" style="fill:none;stroke:#1f77b4;stroke-linecap:square;stroke-width:1.5;"/>
   </g>
   <g id="line2d_46">
    <path clip-path="url(#pa0bbdf46a4)" d="M 226.589687 155.040375 
L 227.661047 155.040375 
L 228.732407 155.217783 
L 229.922808 155.217783 
L 230.994168 155.528247 
L 232.065528 155.528247 
L 233.136888 155.705655 
L 234.208247 155.705655 
L 235.398647 156.016119 
L 236.708088 156.016119 
L 238.017527 156.016119 
L 239.267448 156.326583 
L 240.517368 156.326583 
L 241.826808 156.326583 
L 243.255288 156.326583 
L 244.802808 156.326583 
L 246.052728 156.326583 
L 247.540728 156.326583 
L 248.850167 156.326583 
L 250.040568 156.681399 
" style="fill:none;stroke:#ff7f0e;stroke-linecap:square;stroke-width:1.5;"/>
   </g>
   <g id="line2d_47">
    <path clip-path="url(#pa0bbdf46a4)" d="M 226.589687 155.040375 
L 227.661047 155.040375 
L 228.732407 155.040375 
L 229.744248 155.040375 
L 230.815607 155.040375 
L 231.886967 155.040375 
L 232.958327 155.040375 
L 234.029687 155.040375 
L 235.339127 155.306487 
L 236.589047 155.306487 
L 238.077047 155.306487 
L 239.326967 155.661303 
L 240.814967 155.661303 
L 242.124407 155.661303 
L 243.374327 156.016119 
L 244.386167 156.016119 
L 245.457527 156.016119 
L 246.528887 156.016119 
L 247.600247 156.016119 
L 248.909687 156.282231 
" style="fill:none;stroke:#2ca02c;stroke-linecap:square;stroke-width:1.5;"/>
   </g>
   <g id="line2d_48">
    <path clip-path="url(#pa0bbdf46a4)" d="M 226.589687 155.040375 
L 227.661047 155.040375 
L 228.732407 155.040375 
L 229.803767 155.040375 
L 230.875127 155.350839 
L 231.946487 155.350839 
L 233.017847 155.350839 
L 234.089207 155.350839 
L 235.279607 155.705655 
L 236.589047 155.705655 
L 237.898487 156.016119 
L 239.088887 156.016119 
L 240.398327 156.326583 
L 241.707767 156.326583 
L 243.017207 156.326583 
L 243.969527 156.326583 
L 245.278967 156.326583 
L 246.350327 156.326583 
L 247.659767 156.326583 
L 248.909687 156.681399 
" style="fill:none;stroke:#d62728;stroke-linecap:square;stroke-width:1.5;"/>
   </g>
   <g id="line2d_49">
    <path clip-path="url(#pa0bbdf46a4)" d="M 226.589687 155.040375 
L 224.923127 154.729911 
L 223.375608 154.419447 
L 222.185207 154.419447 
L 220.875767 154.729911 
L 219.804407 154.729911 
L 218.494968 155.040375 
L 217.304567 155.040375 
L 215.995127 155.395191 
L 214.923767 155.705655 
L 213.614328 155.705655 
L 212.423927 156.016119 
L 211.114487 156.016119 
L 210.043127 156.370935 
L 208.733688 156.681399 
L 207.543287 156.681399 
L 206.233847 156.991863 
L 205.162487 156.991863 
L 203.853048 157.346679 
L 202.662647 157.657143 
" style="fill:none;stroke:#9467bd;stroke-linecap:square;stroke-width:1.5;"/>
   </g>
   <g id="line2d_50">
    <path clip-path="url(#pa0bbdf46a4)" d="M 226.589687 155.040375 
L 223.911287 147.855351 
L 221.530487 144.617655 
L 219.268728 143.331447 
L 216.887927 142.355703 
L 214.150007 142.045239 
L 212.483448 141.690423 
L 211.590647 141.690423 
L 210.935927 141.690423 
L 210.102647 141.690423 
L 209.864567 141.379959 
L 209.686007 141.069495 
L 209.507448 140.714679 
L 209.269367 140.404215 
L 209.031287 140.581623 
L 209.031287 140.581623 
L 208.793207 140.581623 
L 208.793207 140.581623 
L 208.614647 140.404215 
L 208.614647 140.404215 
" style="fill:none;stroke:#8c564b;stroke-linecap:square;stroke-width:1.5;"/>
   </g>
   <g id="line2d_51">
    <path clip-path="url(#pa0bbdf46a4)" d="M 226.589687 155.040375 
L 226.411127 155.040375 
L 226.411127 155.040375 
L 226.173047 154.907319 
L 226.173047 154.907319 
L 225.934967 154.907319 
L 225.934967 154.907319 
L 225.934967 154.907319 
L 226.173047 154.729911 
L 227.482487 154.729911 
L 228.077687 154.729911 
L 226.589687 154.729911 
L 225.220728 154.862967 
L 223.732728 154.862967 
L 222.482808 154.862967 
L 222.006647 154.862967 
L 221.590007 154.862967 
L 221.411448 154.862967 
L 221.173367 154.862967 
L 220.994808 154.862967 
" style="fill:none;stroke:#e377c2;stroke-linecap:square;stroke-width:1.5;"/>
   </g>
   <g id="line2d_52">
    <path clip-path="url(#pa0bbdf46a4)" d="M 226.589687 155.040375 
L 226.708728 155.040375 
L 226.827767 155.040375 
L 226.946808 155.040375 
L 227.065847 155.040375 
L 227.184888 155.040375 
L 227.303927 155.040375 
L 227.363448 155.040375 
L 227.363448 155.040375 
L 227.601528 155.350839 
L 227.601528 155.350839 
L 227.601528 155.350839 
L 227.601528 155.350839 
L 227.601528 155.350839 
L 227.601528 155.350839 
L 227.601528 155.350839 
L 227.601528 155.350839 
L 227.780088 155.350839 
L 227.780088 155.350839 
L 227.780088 155.350839 
" style="fill:none;stroke:#7f7f7f;stroke-linecap:square;stroke-width:1.5;"/>
   </g>
   <g id="line2d_53">
    <path clip-path="url(#pa0bbdf46a4)" d="M 226.589687 155.040375 
L 220.042487 155.350839 
L 215.161847 155.705655 
L 211.531127 156.326583 
L 207.721847 156.326583 
L 203.853048 156.193527 
L 203.019768 156.503991 
L 202.484087 156.814455 
L 202.007927 157.169271 
L 201.710328 157.435383 
L 201.710328 157.435383 
L 201.710328 157.435383 
L 201.710328 157.612791 
L 201.710328 157.790199 
L 201.710328 157.790199 
L 201.710328 157.790199 
L 201.591287 157.967607 
L 201.591287 157.967607 
L 201.591287 158.145015 
L 201.591287 158.278071 
" style="fill:none;stroke:#bcbd22;stroke-linecap:square;stroke-width:1.5;"/>
   </g>
   <g id="line2d_54">
    <path clip-path="url(#pa0bbdf46a4)" d="M 226.589687 155.040375 
L 225.875448 154.729911 
L 225.042168 154.729911 
L 224.685047 154.729911 
L 224.685047 154.729911 
L 224.685047 154.729911 
L 224.446967 154.729911 
L 224.446967 154.729911 
L 224.446967 154.729911 
L 224.208888 154.729911 
L 224.208888 154.729911 
L 224.208888 155.040375 
L 224.208888 155.040375 
L 223.970808 155.040375 
L 223.970808 155.040375 
L 223.970808 155.040375 
L 223.851767 155.040375 
L 223.851767 155.040375 
L 223.851767 155.040375 
L 223.851767 155.350839 
" style="fill:none;stroke:#17becf;stroke-linecap:square;stroke-width:1.5;"/>
   </g>
   <g id="line2d_55">
    <path clip-path="url(#pa0bbdf46a4)" d="M 226.589687 155.040375 
L 227.065847 155.040375 
L 227.303927 155.350839 
L 226.589687 155.661303 
L 224.923127 156.016119 
L 223.256567 156.326583 
L 223.018487 156.326583 
L 222.780407 156.326583 
L 222.601847 156.326583 
L 222.423287 156.326583 
L 222.423287 156.016119 
L 222.423287 156.016119 
L 222.423287 156.149175 
L 222.899448 156.149175 
L 223.494647 156.149175 
L 223.851767 156.149175 
L 224.327927 156.326583 
L 224.804088 156.326583 
L 225.280248 156.326583 
L 225.637368 156.503991 
" style="fill:none;stroke:#1f77b4;stroke-linecap:square;stroke-width:1.5;"/>
   </g>
   <g id="line2d_56">
    <path clip-path="url(#pa0bbdf46a4)" d="M 226.589687 155.040375 
L 227.184888 155.040375 
L 227.661047 155.173431 
L 228.077687 155.173431 
L 228.494327 155.173431 
L 229.030008 155.173431 
L 229.446647 155.350839 
L 229.863287 155.350839 
L 230.398967 155.350839 
L 230.934647 155.528247 
L 231.351287 155.528247 
L 231.767927 155.528247 
L 232.422647 155.661303 
L 233.255927 155.661303 
L 234.327287 155.661303 
L 234.565368 155.838711 
L 234.743927 155.838711 
L 234.743927 155.838711 
L 234.982008 155.838711 
L 235.101047 155.838711 
" style="fill:none;stroke:#ff7f0e;stroke-linecap:square;stroke-width:1.5;"/>
   </g>
   <g id="line2d_57">
    <path clip-path="url(#pa0bbdf46a4)" d="M 226.589687 155.040375 
L 225.518327 156.016119 
L 224.446967 156.991863 
L 223.375608 157.967607 
L 222.780407 158.632887 
L 222.066168 159.298167 
L 221.470968 159.919095 
L 220.816248 160.584375 
L 220.161528 161.249655 
L 219.328248 161.870583 
L 218.494968 162.846327 
L 217.661687 163.822071 
L 216.828407 164.487351 
L 216.352248 165.773559 
L 216.114168 166.749303 
L 215.935608 168.079863 
L 215.280888 169.055607 
L 214.209528 169.676535 
L 213.197688 170.652279 
L 212.126328 171.317559 
" style="fill:none;stroke:#2ca02c;stroke-linecap:square;stroke-width:1.5;"/>
   </g>
   <g id="line2d_58">
    <path clip-path="url(#pa0bbdf46a4)" d="M 226.589687 155.040375 
L 225.339767 155.661303 
L 224.030327 156.326583 
L 222.780407 157.302327 
L 221.292407 157.967607 
L 219.982968 158.278071 
L 218.733047 158.588535 
L 217.364087 158.943351 
L 216.114168 159.253815 
L 214.804727 159.564279 
L 213.316727 159.874743 
L 212.066808 160.229559 
L 210.757367 160.540023 
L 209.388407 160.850487 
L 208.138487 161.205303 
L 206.829048 161.515767 
L 205.995767 161.826231 
L 205.579127 162.181047 
L 205.162487 162.181047 
L 204.745847 162.491511 
" style="fill:none;stroke:#d62728;stroke-linecap:square;stroke-width:1.5;"/>
   </g>
   <g id="line2d_59">
    <path clip-path="url(#pa0bbdf46a4)" d="M 226.589687 155.040375 
L 227.899127 155.395191 
L 229.149047 155.395191 
L 228.970487 156.016119 
L 228.732407 156.681399 
L 228.494327 157.346679 
L 228.315767 157.967607 
L 228.196728 158.322423 
L 227.184888 158.632887 
L 226.292088 158.943351 
L 225.399287 159.298167 
L 224.566007 159.608631 
L 223.732728 159.919095 
L 222.899448 160.273911 
L 221.828088 160.273911 
L 220.518647 160.273911 
L 219.328248 160.273911 
L 218.018808 159.919095 
L 216.709367 159.919095 
L 215.459448 159.919095 
" style="fill:none;stroke:#9467bd;stroke-linecap:square;stroke-width:1.5;"/>
   </g>
   <g id="line2d_60">
    <path clip-path="url(#pa0bbdf46a4)" d="M 226.589687 155.040375 
L 226.113528 156.681399 
L 225.934967 157.967607 
L 225.518327 159.608631 
L 225.280248 160.894839 
L 225.042168 162.491511 
L 224.685047 163.822071 
L 224.446967 165.108279 
L 224.208888 166.084023 
L 224.030327 167.059767 
L 223.792248 168.035511 
L 223.613687 169.011255 
L 223.375608 169.986999 
L 223.137528 170.962743 
L 222.958967 171.938487 
L 222.958967 172.603767 
L 222.542327 173.889975 
L 222.125687 175.176183 
L 221.709047 176.506743 
L 221.232888 177.482487 
" style="fill:none;stroke:#8c564b;stroke-linecap:square;stroke-width:1.5;"/>
   </g>
   <g id="line2d_61">
    <path clip-path="url(#pa0bbdf46a4)" d="M 226.589687 155.040375 
L 227.482487 155.705655 
L 228.553847 156.016119 
L 229.387127 156.370935 
L 230.458487 156.681399 
L 231.708407 156.681399 
L 233.196407 156.681399 
L 234.446327 156.681399 
L 235.993847 156.370935 
L 237.243767 156.370935 
L 238.731767 156.370935 
L 239.981687 156.016119 
L 241.053047 156.016119 
L 242.302967 155.838711 
L 243.374327 155.838711 
L 244.029047 156.193527 
L 244.683767 156.814455 
L 245.278967 157.524087 
L 246.350327 157.524087 
L 247.421687 157.790199 
" style="fill:none;stroke:#e377c2;stroke-linecap:square;stroke-width:1.5;"/>
   </g>
   <g id="line2d_62">
    <path clip-path="url(#pa0bbdf46a4)" d="M 226.589687 155.040375 
L 227.780088 155.040375 
L 229.089528 155.040375 
L 230.577528 155.040375 
L 231.827448 155.350839 
L 233.136888 155.350839 
L 234.446327 155.350839 
L 235.636728 155.350839 
L 236.946168 155.350839 
L 238.255607 155.661303 
L 239.684088 155.661303 
L 240.993527 155.661303 
L 242.302967 155.661303 
L 242.898167 156.016119 
L 242.302967 156.637047 
L 242.660088 156.991863 
L 243.493368 157.302327 
L 244.326648 157.612791 
L 245.398008 157.967607 
L 246.588407 157.967607 
" style="fill:none;stroke:#7f7f7f;stroke-linecap:square;stroke-width:1.5;"/>
   </g>
   <g id="line2d_63">
    <path clip-path="url(#pa0bbdf46a4)" d="M 226.589687 155.040375 
L 227.839607 155.040375 
L 229.089528 155.040375 
L 230.398967 155.040375 
L 231.767927 155.040375 
L 233.017847 155.040375 
L 234.386808 155.040375 
L 235.696247 154.862967 
L 237.124728 154.862967 
L 238.315127 154.862967 
L 239.743607 154.862967 
L 241.053047 154.508151 
L 242.719607 154.508151 
L 244.386167 154.508151 
L 245.993207 154.508151 
L 247.600247 154.197687 
L 249.266807 154.197687 
L 250.933368 154.197687 
L 252.599928 154.197687 
L 255.456887 153.887223 
" style="fill:none;stroke:#bcbd22;stroke-linecap:square;stroke-width:1.5;"/>
   </g>
   <g id="line2d_64">
    <path clip-path="url(#pa0bbdf46a4)" d="M 226.589687 155.040375 
L 228.315767 154.685559 
L 230.220407 154.375095 
L 231.886967 154.064631 
L 233.672567 153.709815 
L 235.458168 153.399351 
L 237.362808 153.399351 
L 239.029368 153.088887 
L 240.934008 152.734071 
L 242.243448 152.734071 
L 243.433847 152.734071 
L 244.505207 153.088887 
L 245.814648 153.088887 
L 246.886008 153.399351 
L 248.135927 153.709815 
L 249.385848 153.709815 
L 250.457207 154.064631 
L 251.766648 154.064631 
L 252.838008 154.375095 
L 253.671288 154.375095 
" style="fill:none;stroke:#17becf;stroke-linecap:square;stroke-width:1.5;"/>
   </g>
   <g id="line2d_65">
    <path clip-path="url(#pa0bbdf46a4)" d="M 226.589687 155.040375 
L 231.708407 155.661303 
L 236.827127 156.326583 
L 241.945847 156.637047 
L 247.838327 157.967607 
L 253.790327 158.588535 
L 258.849528 158.278071 
L 263.968248 157.612791 
L 269.086968 157.302327 
L 273.134327 154.685559 
L 276.943607 152.113143 
L 279.919607 149.496375 
L 282.657528 146.879607 
L 285.633528 144.972471 
L 288.609528 143.641911 
L 292.002167 142.355703 
L 296.228088 141.690423 
L 300.751607 141.069495 
L 305.156088 140.404215 
L 309.441528 139.783287 
" style="fill:none;stroke:#1f77b4;stroke-linecap:square;stroke-width:1.5;"/>
   </g>
   <g id="line2d_66">
    <path clip-path="url(#pa0bbdf46a4)" d="M 226.589687 155.040375 
L 226.946808 154.330743 
L 227.661047 153.354999 
L 228.256248 152.379255 
L 228.851448 151.758327 
L 229.565687 150.782583 
L 230.160888 149.806839 
L 230.756088 149.185911 
L 231.470327 148.210167 
L 232.065528 147.234423 
L 232.660728 146.524791 
L 233.374967 145.549047 
L 233.970168 144.573303 
L 234.565368 143.952375 
L 235.279607 142.976631 
L 235.874808 142.000887 
L 236.470008 141.379959 
L 237.184247 140.404215 
L 237.779448 139.428471 
L 238.374648 138.452727 
" style="fill:none;stroke:#ff7f0e;stroke-linecap:square;stroke-width:1.5;"/>
   </g>
   <g id="line2d_67">
    <path clip-path="url(#pa0bbdf46a4)" d="M 226.589687 155.040375 
L 227.184888 154.064631 
L 227.899127 153.088887 
L 228.494327 152.113143 
L 228.970487 151.137399 
L 229.565687 150.161655 
L 230.160888 149.185911 
L 231.053687 148.831095 
L 232.006008 148.032759 
L 232.958327 147.190071 
L 234.029687 146.391735 
L 234.982008 145.593399 
L 235.934327 144.928119 
L 236.886647 144.085431 
L 237.958008 143.287095 
L 238.910327 142.666167 
L 239.862648 141.823479 
L 240.814967 141.202551 
L 241.886327 140.226807 
L 242.779127 139.428471 
" style="fill:none;stroke:#2ca02c;stroke-linecap:square;stroke-width:1.5;"/>
   </g>
   <g id="line2d_68">
    <path clip-path="url(#pa0bbdf46a4)" d="M 226.589687 155.040375 
L 225.696888 155.040375 
L 224.863608 155.040375 
L 224.030327 155.217783 
L 223.197047 155.395191 
L 222.363767 155.572599 
L 221.470968 155.572599 
L 220.637687 155.572599 
L 219.566327 155.883063 
L 218.554487 155.883063 
L 217.483127 155.883063 
L 216.411767 155.883063 
L 215.340407 155.883063 
L 214.269047 155.883063 
L 213.435767 156.193527 
L 212.602487 156.193527 
L 211.709688 156.193527 
L 210.876407 156.193527 
L 209.983608 156.193527 
L 209.269367 156.193527 
" style="fill:none;stroke:#d62728;stroke-linecap:square;stroke-width:1.5;"/>
   </g>
   <g id="line2d_69">
    <path clip-path="url(#pa0bbdf46a4)" d="M 226.589687 155.040375 
L 225.518327 155.395191 
L 224.446967 155.395191 
L 223.375608 155.705655 
L 222.304248 156.016119 
L 221.232888 156.016119 
L 220.042487 156.370935 
L 218.971127 156.681399 
L 217.899767 156.681399 
L 216.828407 156.991863 
L 215.757047 157.346679 
L 214.923767 157.657143 
L 213.852407 157.967607 
L 212.781047 157.967607 
L 211.709688 158.322423 
L 210.638328 158.632887 
L 209.686007 159.298167 
L 209.090807 160.096503 
L 208.555127 160.939191 
L 207.959927 161.737527 
" style="fill:none;stroke:#9467bd;stroke-linecap:square;stroke-width:1.5;"/>
   </g>
   <g id="line2d_70">
    <path clip-path="url(#pa0bbdf46a4)" d="M 226.589687 155.040375 
L 225.696888 155.040375 
L 224.863608 155.040375 
L 224.268407 155.395191 
L 223.435127 155.395191 
L 222.720888 155.661303 
L 221.887608 155.661303 
L 221.054327 155.661303 
L 220.221047 156.016119 
L 219.149687 156.016119 
L 218.316407 156.370935 
L 217.245047 156.370935 
L 216.411767 156.637047 
L 215.340407 156.637047 
L 214.507127 156.991863 
L 213.435767 156.991863 
L 212.602487 156.991863 
L 211.769207 156.991863 
L 210.876407 156.991863 
L 209.864567 156.991863 
" style="fill:none;stroke:#8c564b;stroke-linecap:square;stroke-width:1.5;"/>
   </g>
   <g id="line2d_71">
    <path clip-path="url(#pa0bbdf46a4)" d="M 226.589687 155.040375 
L 225.577847 155.395191 
L 224.566007 155.395191 
L 223.494647 155.395191 
L 222.423287 155.661303 
L 221.351927 155.661303 
L 220.280567 156.016119 
L 219.209207 156.016119 
L 218.137847 156.016119 
L 217.066487 156.370935 
L 216.233207 156.637047 
L 215.161847 156.991863 
L 214.090487 157.346679 
L 213.257207 157.479735 
L 212.185847 157.790199 
L 211.114487 158.145015 
L 210.281207 158.455479 
L 209.805048 158.765943 
L 209.328888 159.253815 
L 208.793207 159.608631 
" style="fill:none;stroke:#e377c2;stroke-linecap:square;stroke-width:1.5;"/>
   </g>
   <g id="line2d_72">
    <path clip-path="url(#pa0bbdf46a4)" d="M 226.589687 155.040375 
L 225.339767 155.395191 
L 223.851767 156.016119 
L 222.542327 156.370935 
L 221.292407 156.370935 
L 220.042487 156.370935 
L 218.554487 156.370935 
L 217.245047 156.370935 
L 215.995127 156.548343 
L 214.507127 156.814455 
L 212.781047 157.169271 
L 211.293048 157.169271 
L 209.626487 157.169271 
L 208.019448 157.169271 
L 206.293367 157.169271 
L 204.626807 157.346679 
L 202.841207 157.657143 
L 202.067447 157.790199 
L 200.758007 157.967607 
L 198.912888 157.967607 
" style="fill:none;stroke:#7f7f7f;stroke-linecap:square;stroke-width:1.5;"/>
   </g>
   <g id="line2d_73">
    <path clip-path="url(#pa0bbdf46a4)" d="M 226.589687 155.040375 
L 225.161207 155.040375 
L 223.554168 155.395191 
L 222.304248 155.395191 
L 220.994808 155.572599 
L 219.685367 155.705655 
L 218.375927 155.838711 
L 217.066487 156.193527 
L 215.757047 156.193527 
L 214.566647 156.370935 
L 213.257207 156.548343 
L 211.947767 156.681399 
L 210.757367 156.681399 
L 209.864567 156.681399 
L 209.209847 156.548343 
L 208.614647 156.370935 
L 207.900408 156.370935 
L 207.067127 156.370935 
L 206.471927 156.548343 
L 205.638647 156.681399 
" style="fill:none;stroke:#bcbd22;stroke-linecap:square;stroke-width:1.5;"/>
   </g>
   <g id="line2d_74">
    <path clip-path="url(#pa0bbdf46a4)" d="M 226.589687 155.040375 
L 226.351608 156.370935 
L 226.173047 157.346679 
L 225.934967 158.322423 
L 225.934967 159.298167 
L 225.934967 160.273911 
L 225.934967 161.560119 
L 225.934967 162.535863 
L 225.934967 163.511607 
L 225.934967 164.487351 
L 225.934967 165.463095 
L 225.934967 166.749303 
L 225.934967 167.725047 
L 226.054007 168.878199 
L 226.173047 169.853943 
L 226.292088 171.007095 
L 226.411127 172.115895 
L 226.411127 173.269047 
L 226.470647 174.422199 
L 226.649207 175.397943 
" style="fill:none;stroke:#17becf;stroke-linecap:square;stroke-width:1.5;"/>
   </g>
   <g id="line2d_75">
    <path clip-path="url(#pa0bbdf46a4)" d="M 226.589687 155.040375 
L 224.685047 156.016119 
L 222.780407 156.991863 
L 220.875767 158.322423 
L 218.971127 159.652983 
L 216.828407 161.249655 
L 214.923767 162.580215 
L 213.019127 163.822071 
L 210.697847 165.507447 
L 208.376567 166.749303 
L 205.995767 168.434679 
L 203.912567 169.676535 
L 201.591287 171.007095 
L 199.448567 172.337655 
L 197.543927 173.934327 
L 195.639287 175.885815 
L 193.734647 177.837303 
L 191.353848 179.433975 
L 188.854007 181.385463 
L 187.306488 183.336951 
" style="fill:none;stroke:#1f77b4;stroke-linecap:square;stroke-width:1.5;"/>
   </g>
   <g id="line2d_76">
    <path clip-path="url(#pa0bbdf46a4)" d="M 226.589687 155.040375 
L 225.042168 157.346679 
L 223.613687 159.253815 
L 221.054327 162.181047 
L 218.078328 165.418743 
L 215.102328 168.700791 
L 212.959608 170.918391 
L 210.638328 173.579511 
L 208.495608 175.797111 
L 204.924408 177.482487 
L 200.638968 179.079159 
L 196.651128 180.675831 
L 192.603768 182.006391 
L 188.675447 183.603063 
L 184.866167 185.288439 
L 180.937848 187.062519 
L 177.009527 187.372983 
L 172.724087 188.038263 
L 168.498167 188.348727 
L 164.034167 188.348727 
" style="fill:none;stroke:#ff7f0e;stroke-linecap:square;stroke-width:1.5;"/>
   </g>
   <g id="line2d_77">
    <path clip-path="url(#pa0bbdf46a4)" d="M 226.589687 155.040375 
L 226.589687 154.064631 
L 226.589687 153.088887 
L 226.589687 152.290551 
L 226.589687 151.447863 
L 226.589687 150.605175 
L 226.589687 149.629431 
L 226.589687 148.387575 
L 226.589687 147.057015 
L 227.006327 146.702199 
L 227.422967 146.081271 
L 228.077687 145.460343 
L 228.494327 144.750711 
L 229.149047 144.129783 
L 229.565687 143.774967 
L 229.982327 143.154039 
L 230.398967 142.178295 
L 230.815607 141.202551 
L 231.291767 140.581623 
L 231.470327 139.605879 
" style="fill:none;stroke:#2ca02c;stroke-linecap:square;stroke-width:1.5;"/>
   </g>
   <g id="line2d_78">
    <path clip-path="url(#pa0bbdf46a4)" d="M 226.589687 155.040375 
L 226.827767 154.419447 
L 227.006327 153.798519 
L 227.244407 153.088887 
L 227.422967 152.467959 
L 227.661047 151.847031 
L 227.661047 151.492215 
L 227.661047 151.492215 
L 227.422967 151.492215 
L 227.422967 151.492215 
L 227.244407 151.492215 
L 227.244407 151.847031 
L 227.006327 151.847031 
L 226.827767 151.847031 
L 226.827767 151.847031 
L 226.827767 152.113143 
L 226.827767 152.113143 
L 226.827767 152.113143 
L 226.827767 152.113143 
L 226.827767 152.113143 
" style="fill:none;stroke:#d62728;stroke-linecap:square;stroke-width:1.5;"/>
   </g>
   <g id="line2d_79">
    <path clip-path="url(#pa0bbdf46a4)" d="M 226.589687 155.040375 
L 226.589687 155.040375 
L 226.589687 155.040375 
L 226.768248 155.217783 
L 226.768248 155.395191 
L 226.768248 155.395191 
L 226.768248 155.395191 
L 226.768248 155.395191 
L 226.768248 155.395191 
L 226.768248 155.528247 
L 226.768248 155.528247 
L 227.006327 155.705655 
L 227.006327 155.705655 
L 227.006327 155.883063 
L 227.006327 155.883063 
L 227.006327 155.883063 
L 227.006327 155.883063 
L 227.006327 156.060471 
L 227.006327 156.060471 
L 227.184888 156.193527 
" style="fill:none;stroke:#9467bd;stroke-linecap:square;stroke-width:1.5;"/>
   </g>
   <g id="line2d_80">
    <path clip-path="url(#pa0bbdf46a4)" d="M 226.589687 155.040375 
L 226.768248 155.040375 
L 226.887287 155.040375 
L 227.006327 155.173431 
L 227.244407 155.173431 
L 227.422967 155.173431 
L 227.542007 155.173431 
L 227.720567 155.350839 
L 227.958647 155.350839 
L 228.196728 155.350839 
L 228.256248 155.528247 
L 228.375287 155.528247 
L 228.613368 155.528247 
L 228.791927 155.661303 
L 228.910967 155.661303 
L 229.089528 155.661303 
L 229.803767 155.838711 
L 231.232247 156.326583 
L 232.720247 156.637047 
L 233.970168 156.991863 
" style="fill:none;stroke:#8c564b;stroke-linecap:square;stroke-width:1.5;"/>
   </g>
   <g id="line2d_81">
    <path clip-path="url(#pa0bbdf46a4)" d="M 226.589687 155.040375 
L 227.422967 155.350839 
L 227.661047 155.528247 
L 227.839607 155.528247 
L 227.899127 155.705655 
L 228.137207 155.838711 
L 228.613368 155.838711 
L 228.970487 155.838711 
L 229.446647 155.838711 
L 229.803767 155.838711 
L 230.279927 155.838711 
L 230.756088 155.838711 
L 230.875127 155.838711 
L 231.351287 155.838711 
L 230.875127 155.705655 
L 230.756088 155.350839 
L 231.113207 155.528247 
L 232.065528 156.193527 
L 233.136888 156.814455 
L 233.791607 157.302327 
" style="fill:none;stroke:#e377c2;stroke-linecap:square;stroke-width:1.5;"/>
   </g>
   <g id="line2d_82">
    <path clip-path="url(#pa0bbdf46a4)" d="M 226.589687 155.040375 
L 227.661047 155.040375 
L 228.732407 155.217783 
L 229.803767 155.395191 
L 230.815607 155.528247 
L 231.708407 155.705655 
L 232.720247 155.883063 
L 233.791607 155.883063 
L 235.101047 156.193527 
L 236.589047 156.503991 
L 237.838967 156.858807 
L 239.326967 157.169271 
L 240.814967 157.169271 
L 242.064887 157.479735 
L 243.374327 157.479735 
L 244.624247 157.479735 
L 245.933687 157.479735 
L 247.183607 157.479735 
L 248.433527 157.479735 
L 249.742967 157.479735 
" style="fill:none;stroke:#7f7f7f;stroke-linecap:square;stroke-width:1.5;"/>
   </g>
   <g id="line2d_83">
    <path clip-path="url(#pa0bbdf46a4)" d="M 226.589687 155.040375 
L 227.184888 155.040375 
L 227.780088 155.040375 
L 228.494327 155.040375 
L 229.089528 155.040375 
L 229.684728 155.040375 
L 230.398967 155.306487 
L 231.470327 155.306487 
L 232.303607 155.306487 
L 233.136888 155.661303 
L 234.208247 155.661303 
L 235.041528 156.016119 
L 235.874808 156.016119 
L 236.946168 156.282231 
L 237.779448 156.282231 
L 238.850808 156.282231 
L 239.684088 156.637047 
L 240.517368 156.637047 
L 241.588728 156.991863 
L 242.422008 156.991863 
" style="fill:none;stroke:#bcbd22;stroke-linecap:square;stroke-width:1.5;"/>
   </g>
   <g id="line2d_84">
    <path clip-path="url(#pa0bbdf46a4)" d="M 226.589687 155.040375 
L 227.422967 155.040375 
L 228.494327 155.040375 
L 229.327607 155.395191 
L 230.279927 155.395191 
L 231.232247 155.750007 
L 232.184567 155.750007 
L 233.255927 156.016119 
L 234.089207 156.016119 
L 235.160567 156.016119 
L 235.993847 156.370935 
L 237.065207 156.370935 
L 237.898487 156.725751 
L 239.088887 156.725751 
L 240.398327 156.858807 
L 241.707767 156.858807 
L 242.898167 156.991863 
L 243.969527 157.169271 
L 245.278967 157.169271 
L 246.469368 157.524087 
" style="fill:none;stroke:#17becf;stroke-linecap:square;stroke-width:1.5;"/>
   </g>
   <g id="line2d_85">
    <path clip-path="url(#pa0bbdf46a4)" d="M 226.589687 155.040375 
L 227.720567 155.173431 
L 228.851448 155.350839 
L 230.160888 155.528247 
L 231.470327 155.528247 
L 232.720247 155.528247 
L 234.208247 155.040375 
L 235.636728 154.375095 
L 237.779448 153.887223 
L 240.338808 153.532407 
L 242.898167 153.266295 
L 244.207607 153.266295 
L 245.457527 153.266295 
L 246.707448 152.911479 
L 248.016887 152.911479 
L 249.445368 152.556663 
L 250.754807 152.911479 
L 252.064247 153.088887 
L 253.314167 153.399351 
L 254.564087 153.576759 
" style="fill:none;stroke:#1f77b4;stroke-linecap:square;stroke-width:1.5;"/>
   </g>
   <g id="line2d_86">
    <path clip-path="url(#pa0bbdf46a4)" d="M 226.589687 155.040375 
L 224.804088 154.729911 
L 222.958967 154.375095 
L 221.113847 154.064631 
L 219.447287 153.754167 
L 217.542647 153.399351 
L 215.876087 153.088887 
L 215.042808 153.088887 
L 213.971448 153.088887 
L 213.078647 153.088887 
L 212.245367 153.088887 
L 211.174007 153.088887 
L 210.340727 153.088887 
L 209.269367 153.088887 
L 208.376567 153.088887 
L 207.364727 153.399351 
L 206.293367 153.399351 
L 205.222007 153.399351 
L 204.210168 153.399351 
L 203.138807 153.399351 
" style="fill:none;stroke:#ff7f0e;stroke-linecap:square;stroke-width:1.5;"/>
   </g>
   <g id="line2d_87">
    <path clip-path="url(#pa0bbdf46a4)" d="M 226.589687 155.040375 
L 224.923127 154.419447 
L 223.197047 154.064631 
L 221.590007 153.621111 
L 219.923448 153.088887 
L 218.197367 152.645367 
L 216.530808 152.290551 
L 215.459448 152.290551 
L 214.507127 152.467959 
L 213.435767 152.467959 
L 212.483448 152.645367 
L 211.412087 152.955831 
L 210.459767 152.955831 
L 209.447927 153.133239 
L 208.376567 153.133239 
L 207.305207 153.443703 
L 206.233847 153.443703 
L 205.400567 153.443703 
L 204.329207 153.443703 
L 203.257847 153.754167 
" style="fill:none;stroke:#2ca02c;stroke-linecap:square;stroke-width:1.5;"/>
   </g>
   <g id="line2d_88">
    <path clip-path="url(#pa0bbdf46a4)" d="M 226.589687 155.040375 
L 224.685047 156.681399 
L 222.780407 158.322423 
L 220.875767 159.919095 
L 219.923448 160.894839 
L 219.863927 161.560119 
L 219.447287 162.225399 
L 219.030647 162.846327 
L 218.733047 163.511607 
L 218.375927 163.999479 
L 217.959287 164.487351 
L 217.661687 165.152631 
L 217.304567 165.596151 
L 216.887927 166.305783 
L 216.590328 166.749303 
L 216.114168 167.414583 
L 215.876087 167.902455 
L 215.518968 168.523383 
L 215.042808 169.055607 
L 214.923767 169.499127 
" style="fill:none;stroke:#d62728;stroke-linecap:square;stroke-width:1.5;"/>
   </g>
   <g id="patch_3">
    <path d="M 48.029688 288.096375 
L 48.029688 21.984375 
" style="fill:none;stroke:#000000;stroke-linecap:square;stroke-linejoin:miter;stroke-width:0.8;"/>
   </g>
   <g id="patch_4">
    <path d="M 405.149688 288.096375 
L 405.149688 21.984375 
" style="fill:none;stroke:#000000;stroke-linecap:square;stroke-linejoin:miter;stroke-width:0.8;"/>
   </g>
   <g id="patch_5">
    <path d="M 48.029687 288.096375 
L 405.149688 288.096375 
" style="fill:none;stroke:#000000;stroke-linecap:square;stroke-linejoin:miter;stroke-width:0.8;"/>
   </g>
   <g id="patch_6">
    <path d="M 48.029687 21.984375 
L 405.149688 21.984375 
" style="fill:none;stroke:#000000;stroke-linecap:square;stroke-linejoin:miter;stroke-width:0.8;"/>
   </g>
   <g id="text_15">
    <!-- nexus_4 -->
    <g transform="translate(201.903437 15.984375)scale(0.12 -0.12)">
     <defs>
      <path d="M 54.890625 33.015625 
L 54.890625 0 
L 45.90625 0 
L 45.90625 32.71875 
Q 45.90625 40.484375 42.875 44.328125 
Q 39.84375 48.1875 33.796875 48.1875 
Q 26.515625 48.1875 22.3125 43.546875 
Q 18.109375 38.921875 18.109375 30.90625 
L 18.109375 0 
L 9.078125 0 
L 9.078125 54.6875 
L 18.109375 54.6875 
L 18.109375 46.1875 
Q 21.34375 51.125 25.703125 53.5625 
Q 30.078125 56 35.796875 56 
Q 45.21875 56 50.046875 50.171875 
Q 54.890625 44.34375 54.890625 33.015625 
z
" id="DejaVuSans-110"/>
      <path d="M 56.203125 29.59375 
L 56.203125 25.203125 
L 14.890625 25.203125 
Q 15.484375 15.921875 20.484375 11.0625 
Q 25.484375 6.203125 34.421875 6.203125 
Q 39.59375 6.203125 44.453125 7.46875 
Q 49.3125 8.734375 54.109375 11.28125 
L 54.109375 2.78125 
Q 49.265625 0.734375 44.1875 -0.34375 
Q 39.109375 -1.421875 33.890625 -1.421875 
Q 20.796875 -1.421875 13.15625 6.1875 
Q 5.515625 13.8125 5.515625 26.8125 
Q 5.515625 40.234375 12.765625 48.109375 
Q 20.015625 56 32.328125 56 
Q 43.359375 56 49.78125 48.890625 
Q 56.203125 41.796875 56.203125 29.59375 
z
M 47.21875 32.234375 
Q 47.125 39.59375 43.09375 43.984375 
Q 39.0625 48.390625 32.421875 48.390625 
Q 24.90625 48.390625 20.390625 44.140625 
Q 15.875 39.890625 15.1875 32.171875 
z
" id="DejaVuSans-101"/>
      <path d="M 54.890625 54.6875 
L 35.109375 28.078125 
L 55.90625 0 
L 45.3125 0 
L 29.390625 21.484375 
L 13.484375 0 
L 2.875 0 
L 24.125 28.609375 
L 4.6875 54.6875 
L 15.28125 54.6875 
L 29.78125 35.203125 
L 44.28125 54.6875 
z
" id="DejaVuSans-120"/>
      <path d="M 8.5 21.578125 
L 8.5 54.6875 
L 17.484375 54.6875 
L 17.484375 21.921875 
Q 17.484375 14.15625 20.5 10.265625 
Q 23.53125 6.390625 29.59375 6.390625 
Q 36.859375 6.390625 41.078125 11.03125 
Q 45.3125 15.671875 45.3125 23.6875 
L 45.3125 54.6875 
L 54.296875 54.6875 
L 54.296875 0 
L 45.3125 0 
L 45.3125 8.40625 
Q 42.046875 3.421875 37.71875 1 
Q 33.40625 -1.421875 27.6875 -1.421875 
Q 18.265625 -1.421875 13.375 4.4375 
Q 8.5 10.296875 8.5 21.578125 
z
M 31.109375 56 
z
" id="DejaVuSans-117"/>
      <path d="M 44.28125 53.078125 
L 44.28125 44.578125 
Q 40.484375 46.53125 36.375 47.5 
Q 32.28125 48.484375 27.875 48.484375 
Q 21.1875 48.484375 17.84375 46.4375 
Q 14.5 44.390625 14.5 40.28125 
Q 14.5 37.15625 16.890625 35.375 
Q 19.28125 33.59375 26.515625 31.984375 
L 29.59375 31.296875 
Q 39.15625 29.25 43.1875 25.515625 
Q 47.21875 21.78125 47.21875 15.09375 
Q 47.21875 7.46875 41.1875 3.015625 
Q 35.15625 -1.421875 24.609375 -1.421875 
Q 20.21875 -1.421875 15.453125 -0.5625 
Q 10.6875 0.296875 5.421875 2 
L 5.421875 11.28125 
Q 10.40625 8.6875 15.234375 7.390625 
Q 20.0625 6.109375 24.8125 6.109375 
Q 31.15625 6.109375 34.5625 8.28125 
Q 37.984375 10.453125 37.984375 14.40625 
Q 37.984375 18.0625 35.515625 20.015625 
Q 33.0625 21.96875 24.703125 23.78125 
L 21.578125 24.515625 
Q 13.234375 26.265625 9.515625 29.90625 
Q 5.8125 33.546875 5.8125 39.890625 
Q 5.8125 47.609375 11.28125 51.796875 
Q 16.75 56 26.8125 56 
Q 31.78125 56 36.171875 55.265625 
Q 40.578125 54.546875 44.28125 53.078125 
z
" id="DejaVuSans-115"/>
      <path d="M 50.984375 -16.609375 
L 50.984375 -23.578125 
L -0.984375 -23.578125 
L -0.984375 -16.609375 
z
" id="DejaVuSans-95"/>
      <path d="M 37.796875 64.3125 
L 12.890625 25.390625 
L 37.796875 25.390625 
z
M 35.203125 72.90625 
L 47.609375 72.90625 
L 47.609375 25.390625 
L 58.015625 25.390625 
L 58.015625 17.1875 
L 47.609375 17.1875 
L 47.609375 0 
L 37.796875 0 
L 37.796875 17.1875 
L 4.890625 17.1875 
L 4.890625 26.703125 
z
" id="DejaVuSans-52"/>
     </defs>
     <use xlink:href="#DejaVuSans-110"/>
     <use x="63.378906" xlink:href="#DejaVuSans-101"/>
     <use x="123.152344" xlink:href="#DejaVuSans-120"/>
     <use x="182.332031" xlink:href="#DejaVuSans-117"/>
     <use x="245.710938" xlink:href="#DejaVuSans-115"/>
     <use x="297.810547" xlink:href="#DejaVuSans-95"/>
     <use x="347.810547" xlink:href="#DejaVuSans-52"/>
    </g>
   </g>
  </g>
 </g>
 <defs>
  <clipPath id="pa0bbdf46a4">
   <rect height="266.112" width="357.12" x="48.029688" y="21.984375"/>
  </clipPath>
 </defs>
</svg>
