<?xml version="1.0" encoding="utf-8" standalone="no"?>
<!DOCTYPE svg PUBLIC "-//W3C//DTD SVG 1.1//EN"
  "http://www.w3.org/Graphics/SVG/1.1/DTD/svg11.dtd">
<!-- Created with matplotlib (https://matplotlib.org/) -->
<svg height="312.30825pt" version="1.1" viewBox="0 0 425.074687 312.30825" width="425.074687pt" xmlns="http://www.w3.org/2000/svg" xmlns:xlink="http://www.w3.org/1999/xlink">
 <metadata>
  <rdf:RDF xmlns:cc="http://creativecommons.org/ns#" xmlns:dc="http://purl.org/dc/elements/1.1/" xmlns:rdf="http://www.w3.org/1999/02/22-rdf-syntax-ns#">
   <cc:Work>
    <dc:type rdf:resource="http://purl.org/dc/dcmitype/StillImage"/>
    <dc:date>2023-10-16T01:56:23.970223</dc:date>
    <dc:format>image/svg+xml</dc:format>
    <dc:creator>
     <cc:Agent>
      <dc:title>Matplotlib v3.3.4, https://matplotlib.org/</dc:title>
     </cc:Agent>
    </dc:creator>
   </cc:Work>
  </rdf:RDF>
 </metadata>
 <defs>
  <style type="text/css">*{stroke-linecap:butt;stroke-linejoin:round;}</style>
 </defs>
 <g id="figure_1">
  <g id="patch_1">
   <path d="M 0 312.30825 
L 425.074687 312.30825 
L 425.074687 0 
L 0 0 
z
" style="fill:#ffffff;"/>
  </g>
  <g id="axes_1">
   <g id="patch_2">
    <path d="M 48.029688 288.430125 
L 405.149688 288.430125 
L 405.149688 22.318125 
L 48.029688 22.318125 
z
" style="fill:#ffffff;"/>
   </g>
   <g id="matplotlib.axis_1">
    <g id="xtick_1">
     <g id="line2d_1">
      <defs>
       <path d="M 0 0 
L 0 3.5 
" id="md8481e446c" style="stroke:#000000;stroke-width:0.8;"/>
      </defs>
      <g>
       <use style="stroke:#000000;stroke-width:0.8;" x="48.029687" xlink:href="#md8481e446c" y="288.430125"/>
      </g>
     </g>
     <g id="text_1">
      <!-- −1500 -->
      <g transform="translate(31.114844 303.028562)scale(0.1 -0.1)">
       <defs>
        <path d="M 10.59375 35.5 
L 73.1875 35.5 
L 73.1875 27.203125 
L 10.59375 27.203125 
z
" id="DejaVuSans-8722"/>
        <path d="M 12.40625 8.296875 
L 28.515625 8.296875 
L 28.515625 63.921875 
L 10.984375 60.40625 
L 10.984375 69.390625 
L 28.421875 72.90625 
L 38.28125 72.90625 
L 38.28125 8.296875 
L 54.390625 8.296875 
L 54.390625 0 
L 12.40625 0 
z
" id="DejaVuSans-49"/>
        <path d="M 10.796875 72.90625 
L 49.515625 72.90625 
L 49.515625 64.59375 
L 19.828125 64.59375 
L 19.828125 46.734375 
Q 21.96875 47.46875 24.109375 47.828125 
Q 26.265625 48.1875 28.421875 48.1875 
Q 40.625 48.1875 47.75 41.5 
Q 54.890625 34.8125 54.890625 23.390625 
Q 54.890625 11.625 47.5625 5.09375 
Q 40.234375 -1.421875 26.90625 -1.421875 
Q 22.3125 -1.421875 17.546875 -0.640625 
Q 12.796875 0.140625 7.71875 1.703125 
L 7.71875 11.625 
Q 12.109375 9.234375 16.796875 8.0625 
Q 21.484375 6.890625 26.703125 6.890625 
Q 35.15625 6.890625 40.078125 11.328125 
Q 45.015625 15.765625 45.015625 23.390625 
Q 45.015625 31 40.078125 35.4375 
Q 35.15625 39.890625 26.703125 39.890625 
Q 22.75 39.890625 18.8125 39.015625 
Q 14.890625 38.140625 10.796875 36.28125 
z
" id="DejaVuSans-53"/>
        <path d="M 31.78125 66.40625 
Q 24.171875 66.40625 20.328125 58.90625 
Q 16.5 51.421875 16.5 36.375 
Q 16.5 21.390625 20.328125 13.890625 
Q 24.171875 6.390625 31.78125 6.390625 
Q 39.453125 6.390625 43.28125 13.890625 
Q 47.125 21.390625 47.125 36.375 
Q 47.125 51.421875 43.28125 58.90625 
Q 39.453125 66.40625 31.78125 66.40625 
z
M 31.78125 74.21875 
Q 44.046875 74.21875 50.515625 64.515625 
Q 56.984375 54.828125 56.984375 36.375 
Q 56.984375 17.96875 50.515625 8.265625 
Q 44.046875 -1.421875 31.78125 -1.421875 
Q 19.53125 -1.421875 13.0625 8.265625 
Q 6.59375 17.96875 6.59375 36.375 
Q 6.59375 54.828125 13.0625 64.515625 
Q 19.53125 74.21875 31.78125 74.21875 
z
" id="DejaVuSans-48"/>
       </defs>
       <use xlink:href="#DejaVuSans-8722"/>
       <use x="83.789062" xlink:href="#DejaVuSans-49"/>
       <use x="147.412109" xlink:href="#DejaVuSans-53"/>
       <use x="211.035156" xlink:href="#DejaVuSans-48"/>
       <use x="274.658203" xlink:href="#DejaVuSans-48"/>
      </g>
     </g>
    </g>
    <g id="xtick_2">
     <g id="line2d_2">
      <g>
       <use style="stroke:#000000;stroke-width:0.8;" x="107.549688" xlink:href="#md8481e446c" y="288.430125"/>
      </g>
     </g>
     <g id="text_2">
      <!-- −1000 -->
      <g transform="translate(90.634844 303.028562)scale(0.1 -0.1)">
       <use xlink:href="#DejaVuSans-8722"/>
       <use x="83.789062" xlink:href="#DejaVuSans-49"/>
       <use x="147.412109" xlink:href="#DejaVuSans-48"/>
       <use x="211.035156" xlink:href="#DejaVuSans-48"/>
       <use x="274.658203" xlink:href="#DejaVuSans-48"/>
      </g>
     </g>
    </g>
    <g id="xtick_3">
     <g id="line2d_3">
      <g>
       <use style="stroke:#000000;stroke-width:0.8;" x="167.069687" xlink:href="#md8481e446c" y="288.430125"/>
      </g>
     </g>
     <g id="text_3">
      <!-- −500 -->
      <g transform="translate(153.336094 303.028562)scale(0.1 -0.1)">
       <use xlink:href="#DejaVuSans-8722"/>
       <use x="83.789062" xlink:href="#DejaVuSans-53"/>
       <use x="147.412109" xlink:href="#DejaVuSans-48"/>
       <use x="211.035156" xlink:href="#DejaVuSans-48"/>
      </g>
     </g>
    </g>
    <g id="xtick_4">
     <g id="line2d_4">
      <g>
       <use style="stroke:#000000;stroke-width:0.8;" x="226.589687" xlink:href="#md8481e446c" y="288.430125"/>
      </g>
     </g>
     <g id="text_4">
      <!-- 0 -->
      <g transform="translate(223.408437 303.028562)scale(0.1 -0.1)">
       <use xlink:href="#DejaVuSans-48"/>
      </g>
     </g>
    </g>
    <g id="xtick_5">
     <g id="line2d_5">
      <g>
       <use style="stroke:#000000;stroke-width:0.8;" x="286.109688" xlink:href="#md8481e446c" y="288.430125"/>
      </g>
     </g>
     <g id="text_5">
      <!-- 500 -->
      <g transform="translate(276.565938 303.028562)scale(0.1 -0.1)">
       <use xlink:href="#DejaVuSans-53"/>
       <use x="63.623047" xlink:href="#DejaVuSans-48"/>
       <use x="127.246094" xlink:href="#DejaVuSans-48"/>
      </g>
     </g>
    </g>
    <g id="xtick_6">
     <g id="line2d_6">
      <g>
       <use style="stroke:#000000;stroke-width:0.8;" x="345.629687" xlink:href="#md8481e446c" y="288.430125"/>
      </g>
     </g>
     <g id="text_6">
      <!-- 1000 -->
      <g transform="translate(332.904687 303.028562)scale(0.1 -0.1)">
       <use xlink:href="#DejaVuSans-49"/>
       <use x="63.623047" xlink:href="#DejaVuSans-48"/>
       <use x="127.246094" xlink:href="#DejaVuSans-48"/>
       <use x="190.869141" xlink:href="#DejaVuSans-48"/>
      </g>
     </g>
    </g>
    <g id="xtick_7">
     <g id="line2d_7">
      <g>
       <use style="stroke:#000000;stroke-width:0.8;" x="405.149688" xlink:href="#md8481e446c" y="288.430125"/>
      </g>
     </g>
     <g id="text_7">
      <!-- 1500 -->
      <g transform="translate(392.424688 303.028562)scale(0.1 -0.1)">
       <use xlink:href="#DejaVuSans-49"/>
       <use x="63.623047" xlink:href="#DejaVuSans-53"/>
       <use x="127.246094" xlink:href="#DejaVuSans-48"/>
       <use x="190.869141" xlink:href="#DejaVuSans-48"/>
      </g>
     </g>
    </g>
   </g>
   <g id="matplotlib.axis_2">
    <g id="ytick_1">
     <g id="line2d_8">
      <defs>
       <path d="M 0 0 
L -3.5 0 
" id="m70e79fc2e4" style="stroke:#000000;stroke-width:0.8;"/>
      </defs>
      <g>
       <use style="stroke:#000000;stroke-width:0.8;" x="48.029688" xlink:href="#m70e79fc2e4" y="288.430125"/>
      </g>
     </g>
     <g id="text_8">
      <!-- −1500 -->
      <g transform="translate(7.2 292.229344)scale(0.1 -0.1)">
       <use xlink:href="#DejaVuSans-8722"/>
       <use x="83.789062" xlink:href="#DejaVuSans-49"/>
       <use x="147.412109" xlink:href="#DejaVuSans-53"/>
       <use x="211.035156" xlink:href="#DejaVuSans-48"/>
       <use x="274.658203" xlink:href="#DejaVuSans-48"/>
      </g>
     </g>
    </g>
    <g id="ytick_2">
     <g id="line2d_9">
      <g>
       <use style="stroke:#000000;stroke-width:0.8;" x="48.029688" xlink:href="#m70e79fc2e4" y="244.078125"/>
      </g>
     </g>
     <g id="text_9">
      <!-- −1000 -->
      <g transform="translate(7.2 247.877344)scale(0.1 -0.1)">
       <use xlink:href="#DejaVuSans-8722"/>
       <use x="83.789062" xlink:href="#DejaVuSans-49"/>
       <use x="147.412109" xlink:href="#DejaVuSans-48"/>
       <use x="211.035156" xlink:href="#DejaVuSans-48"/>
       <use x="274.658203" xlink:href="#DejaVuSans-48"/>
      </g>
     </g>
    </g>
    <g id="ytick_3">
     <g id="line2d_10">
      <g>
       <use style="stroke:#000000;stroke-width:0.8;" x="48.029688" xlink:href="#m70e79fc2e4" y="199.726125"/>
      </g>
     </g>
     <g id="text_10">
      <!-- −500 -->
      <g transform="translate(13.5625 203.525344)scale(0.1 -0.1)">
       <use xlink:href="#DejaVuSans-8722"/>
       <use x="83.789062" xlink:href="#DejaVuSans-53"/>
       <use x="147.412109" xlink:href="#DejaVuSans-48"/>
       <use x="211.035156" xlink:href="#DejaVuSans-48"/>
      </g>
     </g>
    </g>
    <g id="ytick_4">
     <g id="line2d_11">
      <g>
       <use style="stroke:#000000;stroke-width:0.8;" x="48.029688" xlink:href="#m70e79fc2e4" y="155.374125"/>
      </g>
     </g>
     <g id="text_11">
      <!-- 0 -->
      <g transform="translate(34.667187 159.173344)scale(0.1 -0.1)">
       <use xlink:href="#DejaVuSans-48"/>
      </g>
     </g>
    </g>
    <g id="ytick_5">
     <g id="line2d_12">
      <g>
       <use style="stroke:#000000;stroke-width:0.8;" x="48.029688" xlink:href="#m70e79fc2e4" y="111.022125"/>
      </g>
     </g>
     <g id="text_12">
      <!-- 500 -->
      <g transform="translate(21.942187 114.821344)scale(0.1 -0.1)">
       <use xlink:href="#DejaVuSans-53"/>
       <use x="63.623047" xlink:href="#DejaVuSans-48"/>
       <use x="127.246094" xlink:href="#DejaVuSans-48"/>
      </g>
     </g>
    </g>
    <g id="ytick_6">
     <g id="line2d_13">
      <g>
       <use style="stroke:#000000;stroke-width:0.8;" x="48.029688" xlink:href="#m70e79fc2e4" y="66.670125"/>
      </g>
     </g>
     <g id="text_13">
      <!-- 1000 -->
      <g transform="translate(15.579687 70.469344)scale(0.1 -0.1)">
       <use xlink:href="#DejaVuSans-49"/>
       <use x="63.623047" xlink:href="#DejaVuSans-48"/>
       <use x="127.246094" xlink:href="#DejaVuSans-48"/>
       <use x="190.869141" xlink:href="#DejaVuSans-48"/>
      </g>
     </g>
    </g>
    <g id="ytick_7">
     <g id="line2d_14">
      <g>
       <use style="stroke:#000000;stroke-width:0.8;" x="48.029688" xlink:href="#m70e79fc2e4" y="22.318125"/>
      </g>
     </g>
     <g id="text_14">
      <!-- 1500 -->
      <g transform="translate(15.579687 26.117344)scale(0.1 -0.1)">
       <use xlink:href="#DejaVuSans-49"/>
       <use x="63.623047" xlink:href="#DejaVuSans-53"/>
       <use x="127.246094" xlink:href="#DejaVuSans-48"/>
       <use x="190.869141" xlink:href="#DejaVuSans-48"/>
      </g>
     </g>
    </g>
   </g>
   <g id="line2d_15">
    <path clip-path="url(#pa4215ee23a)" d="M 226.589687 155.374125 
L 228.018168 155.152365 
L 229.684728 154.753197 
L 231.351287 154.354029 
L 232.958327 154.043565 
L 234.624887 153.688749 
L 236.231927 153.378285 
L 237.898487 152.934765 
L 239.505527 152.624301 
L 241.172088 152.269485 
L 242.779127 151.825965 
L 244.088568 151.648557 
L 245.398008 151.249389 
L 246.707448 151.027629 
L 248.016887 150.672813 
L 249.326327 150.451053 
L 250.635767 150.051885 
L 251.945207 149.830125 
L 253.314167 149.430957 
L 255.278327 149.031789 
" style="fill:none;stroke:#1f77b4;stroke-linecap:square;stroke-width:1.5;"/>
   </g>
   <g id="line2d_16">
    <path clip-path="url(#pa4215ee23a)" d="M 226.589687 155.374125 
L 228.256248 155.019309 
L 229.863287 154.575789 
L 231.529847 154.398381 
L 233.494008 153.999213 
L 234.803448 153.378285 
L 236.410487 152.979117 
L 237.719927 152.358189 
L 239.386487 151.781613 
L 240.695927 151.205037 
L 242.005368 150.761517 
L 243.671927 150.140589 
L 244.981368 149.564013 
L 246.290807 148.987437 
L 247.600247 148.366509 
L 248.552568 147.745581 
L 249.564407 146.947245 
L 250.873848 146.326317 
L 251.826167 145.572333 
L 252.838008 144.862701 
" style="fill:none;stroke:#ff7f0e;stroke-linecap:square;stroke-width:1.5;"/>
   </g>
   <g id="line2d_17">
    <path clip-path="url(#pa4215ee23a)" d="M 226.589687 155.374125 
L 225.280248 155.595885 
L 223.970808 155.773293 
L 222.661367 155.950701 
L 221.709047 156.216813 
L 220.399608 156.394221 
L 219.090168 156.571629 
L 217.899767 156.749037 
L 216.709367 157.015149 
L 215.399927 157.192557 
L 214.269047 157.369965 
L 212.959608 157.369965 
L 211.828727 157.547373 
L 210.697847 157.813485 
L 209.388407 157.990893 
L 208.078968 158.168301 
L 207.067127 158.390061 
L 205.757688 158.390061 
L 204.150647 158.390061 
L 202.484087 158.390061 
" style="fill:none;stroke:#2ca02c;stroke-linecap:square;stroke-width:1.5;"/>
   </g>
   <g id="line2d_18">
    <path clip-path="url(#pa4215ee23a)" d="M 226.589687 155.374125 
L 225.280248 155.374125 
L 223.613687 155.551533 
L 222.304248 155.551533 
L 220.994808 155.728941 
L 219.685367 155.728941 
L 218.078328 155.995053 
L 216.768888 156.172461 
L 215.459448 156.172461 
L 214.150007 156.349869 
L 212.840567 156.527277 
L 211.174007 156.527277 
L 209.864567 156.527277 
L 208.555127 156.527277 
L 207.245688 156.438573 
L 205.936248 156.438573 
L 204.626807 156.438573 
L 203.317367 156.261165 
L 201.650807 156.438573 
L 200.341367 156.660333 
" style="fill:none;stroke:#d62728;stroke-linecap:square;stroke-width:1.5;"/>
   </g>
   <g id="line2d_19">
    <path clip-path="url(#pa4215ee23a)" d="M 226.589687 155.374125 
L 225.280248 156.394221 
L 223.970808 157.192557 
L 222.661367 157.990893 
L 221.649528 158.833581 
L 220.340088 159.631917 
L 219.030647 160.430253 
L 218.018808 161.405997 
L 216.709367 162.204333 
L 215.399927 163.002669 
L 214.447608 163.801005 
L 213.138168 164.599341 
L 212.185847 165.442029 
L 210.876407 166.240365 
L 209.566968 167.038701 
L 208.495608 167.881389 
L 207.186168 168.679725 
L 205.876727 169.256301 
L 204.567287 170.054637 
L 203.257847 170.897325 
" style="fill:none;stroke:#9467bd;stroke-linecap:square;stroke-width:1.5;"/>
   </g>
   <g id="line2d_20">
    <path clip-path="url(#pa4215ee23a)" d="M 226.589687 155.374125 
L 225.280248 156.172461 
L 223.970808 156.749037 
L 222.661367 157.547373 
L 221.351927 158.168301 
L 220.042487 158.966637 
L 218.733047 159.764973 
L 217.423608 160.385901 
L 216.114168 161.184237 
L 214.804727 161.982573 
L 213.852407 162.603501 
L 212.542968 163.401837 
L 211.233528 164.200173 
L 209.924087 164.821101 
L 208.614647 165.619437 
L 207.305207 166.417773 
L 206.293367 167.216109 
L 204.983927 168.014445 
L 203.674487 168.812781 
L 202.365048 169.611117 
" style="fill:none;stroke:#8c564b;stroke-linecap:square;stroke-width:1.5;"/>
   </g>
   <g id="line2d_21">
    <path clip-path="url(#pa4215ee23a)" d="M 226.589687 155.374125 
L 224.625528 156.216813 
L 222.661367 157.015149 
L 220.994808 157.591725 
L 219.030647 158.390061 
L 217.245047 159.010989 
L 215.399927 159.809325 
L 213.614328 160.385901 
L 211.650168 161.184237 
L 210.043127 161.805165 
L 208.078968 162.825261 
L 206.412408 163.623597 
L 204.805367 164.421933 
L 203.138807 165.264621 
L 201.531768 166.062957 
L 199.865207 166.861293 
L 198.198647 167.837037 
L 196.591608 168.635373 
L 194.925048 169.433709 
L 193.318007 170.232045 
" style="fill:none;stroke:#e377c2;stroke-linecap:square;stroke-width:1.5;"/>
   </g>
   <g id="line2d_22">
    <path clip-path="url(#pa4215ee23a)" d="M 226.589687 155.374125 
L 224.982647 156.172461 
L 223.316088 157.192557 
L 221.709047 157.990893 
L 220.042487 158.789229 
L 218.078328 159.587565 
L 216.471287 160.563309 
L 214.804727 161.405997 
L 212.840567 162.204333 
L 211.174007 163.002669 
L 209.566968 164.022765 
L 207.602807 164.821101 
L 205.936248 165.619437 
L 204.329207 166.595181 
L 202.365048 167.437869 
L 200.698487 168.236205 
L 198.734328 169.256301 
L 197.067768 170.054637 
L 195.103608 171.030381 
L 193.139447 172.050477 
" style="fill:none;stroke:#7f7f7f;stroke-linecap:square;stroke-width:1.5;"/>
   </g>
   <g id="line2d_23">
    <path clip-path="url(#pa4215ee23a)" d="M 226.589687 155.374125 
L 230.815607 155.152365 
L 235.398647 154.930605 
L 239.684088 154.753197 
L 244.267127 154.575789 
L 248.493047 154.354029 
L 252.421368 153.954861 
L 256.349688 153.511341 
L 260.278008 153.156525 
L 264.265848 152.713005 
L 268.194167 152.358189 
L 272.122487 151.737261 
L 276.110327 151.559853 
L 280.038648 151.116333 
L 284.264567 150.717165 
L 288.192887 150.495405 
L 292.418808 150.140589 
L 296.347127 149.697069 
L 300.632567 149.519661 
L 304.560887 149.120493 
" style="fill:none;stroke:#bcbd22;stroke-linecap:square;stroke-width:1.5;"/>
   </g>
   <g id="line2d_24">
    <path clip-path="url(#pa4215ee23a)" d="M 226.589687 155.374125 
L 230.518008 154.753197 
L 234.446327 154.132269 
L 238.553207 153.555693 
L 242.481527 152.979117 
L 246.588407 152.535597 
L 250.695288 151.959021 
L 254.623607 151.338093 
L 258.551927 150.761517 
L 262.480248 150.140589 
L 266.765688 149.963181 
L 270.991607 149.741421 
L 274.979447 149.519661 
L 279.205367 149.342253 
L 283.490808 149.164845 
L 287.419128 148.943085 
L 291.645047 148.721325 
L 295.573368 148.721325 
L 299.561208 148.943085 
L 303.489528 148.943085 
" style="fill:none;stroke:#17becf;stroke-linecap:square;stroke-width:1.5;"/>
   </g>
   <g id="line2d_25">
    <path clip-path="url(#pa4215ee23a)" d="M 226.589687 155.374125 
L 227.899127 155.152365 
L 229.565687 154.974957 
L 231.172728 154.797549 
L 232.839287 154.575789 
L 234.446327 154.176621 
L 235.755767 153.999213 
L 237.422327 153.777453 
L 239.088887 153.555693 
L 240.695927 153.200877 
L 242.302967 152.979117 
L 243.612407 152.757357 
L 245.278967 152.579949 
L 246.588407 152.358189 
L 248.254967 152.358189 
L 249.564407 152.136429 
L 250.873848 151.959021 
L 252.183288 151.781613 
L 253.849848 151.559853 
L 255.159288 151.559853 
" style="fill:none;stroke:#1f77b4;stroke-linecap:square;stroke-width:1.5;"/>
   </g>
   <g id="line2d_26">
    <path clip-path="url(#pa4215ee23a)" d="M 226.589687 155.374125 
L 228.196728 155.196717 
L 229.506168 155.019309 
L 230.815607 155.019309 
L 232.125047 154.797549 
L 233.732088 154.575789 
L 235.041528 154.575789 
L 236.410487 154.398381 
L 238.017527 154.398381 
L 239.326967 154.220973 
L 240.636407 154.220973 
L 241.945847 153.999213 
L 243.612407 153.999213 
L 244.921847 153.777453 
L 246.231288 153.600045 
L 247.540728 153.378285 
L 249.207288 153.156525 
L 250.516728 153.156525 
L 251.826167 152.979117 
L 253.135607 152.801709 
" style="fill:none;stroke:#ff7f0e;stroke-linecap:square;stroke-width:1.5;"/>
   </g>
   <g id="line2d_27">
    <path clip-path="url(#pa4215ee23a)" d="M 226.589687 155.374125 
L 230.875127 153.954861 
L 235.339127 152.535597 
L 239.624567 151.116333 
L 244.148088 149.697069 
L 248.433527 148.322157 
L 252.838008 146.681133 
L 257.123447 145.306221 
L 261.706487 144.108717 
L 265.991927 142.866861 
L 270.217848 141.891117 
L 274.146167 140.915373 
L 278.431607 139.850925 
L 282.538487 139.052589 
L 286.585847 138.254253 
L 290.395128 137.633325 
L 294.144887 136.834989 
L 294.144887 136.834989 
L 294.144887 136.834989 
L 294.144887 136.834989 
" style="fill:none;stroke:#2ca02c;stroke-linecap:square;stroke-width:1.5;"/>
   </g>
   <g id="line2d_28">
    <path clip-path="url(#pa4215ee23a)" d="M 226.589687 155.374125 
L 227.899127 155.773293 
L 229.327607 155.995053 
L 230.637047 156.172461 
L 232.125047 156.349869 
L 233.613047 156.660333 
L 235.101047 156.882093 
L 236.410487 157.103853 
L 237.362808 157.103853 
L 238.077047 156.882093 
L 238.672247 156.660333 
L 239.743607 156.261165 
L 239.981687 156.083757 
L 240.338808 155.861997 
L 241.053047 155.684589 
L 241.291127 155.462829 
L 242.005368 155.241069 
L 242.362487 155.241069 
L 242.957687 155.063661 
L 243.314808 154.886253 
" style="fill:none;stroke:#d62728;stroke-linecap:square;stroke-width:1.5;"/>
   </g>
   <g id="line2d_29">
    <path clip-path="url(#pa4215ee23a)" d="M 226.589687 155.374125 
L 226.946808 155.374125 
L 227.899127 155.152365 
L 228.613368 155.152365 
L 229.565687 154.974957 
L 230.279927 154.974957 
L 231.232247 154.797549 
L 231.827448 154.797549 
L 232.898808 154.797549 
L 233.494008 154.797549 
L 234.208247 154.797549 
L 235.160567 154.974957 
L 235.815288 154.974957 
L 236.470008 155.152365 
L 237.124728 155.152365 
L 238.136567 155.152365 
L 238.731767 155.152365 
L 239.803127 155.152365 
L 240.398327 155.152365 
L 241.112567 155.152365 
" style="fill:none;stroke:#9467bd;stroke-linecap:square;stroke-width:1.5;"/>
   </g>
   <g id="line2d_30">
    <path clip-path="url(#pa4215ee23a)" d="M 226.589687 155.374125 
L 226.946808 155.773293 
L 227.601528 156.216813 
L 228.256248 156.571629 
L 228.910967 157.015149 
L 229.565687 157.192557 
L 229.863287 157.015149 
L 230.518008 156.793389 
L 230.875127 156.571629 
L 231.529847 156.394221 
L 231.827448 156.216813 
L 232.184567 155.995053 
L 232.839287 155.773293 
L 233.196407 155.595885 
L 233.791607 155.196717 
L 234.803448 154.797549 
L 235.815288 154.398381 
L 236.767607 153.999213 
L 237.779448 153.555693 
L 238.434168 153.200877 
" style="fill:none;stroke:#8c564b;stroke-linecap:square;stroke-width:1.5;"/>
   </g>
   <g id="line2d_31">
    <path clip-path="url(#pa4215ee23a)" d="M 226.589687 155.374125 
L 227.601528 155.196717 
L 228.553847 154.797549 
L 229.565687 154.575789 
L 230.518008 154.176621 
L 231.529847 153.999213 
L 232.482168 153.600045 
L 233.494008 153.156525 
L 234.148728 152.979117 
L 234.803448 152.579949 
L 235.458168 152.180781 
L 236.410487 151.959021 
L 237.065207 151.559853 
L 237.719927 151.160685 
L 238.374648 150.983277 
L 238.731767 150.584109 
L 239.386487 150.362349 
L 239.684088 149.785773 
L 240.041207 149.164845 
L 240.398327 148.543917 
" style="fill:none;stroke:#e377c2;stroke-linecap:square;stroke-width:1.5;"/>
   </g>
   <g id="line2d_32">
    <path clip-path="url(#pa4215ee23a)" d="M 226.589687 155.374125 
L 227.184888 155.374125 
L 227.899127 155.196717 
L 228.494327 155.019309 
L 229.208567 154.797549 
L 229.803767 154.575789 
L 230.518008 154.398381 
L 231.113207 154.220973 
L 232.065528 153.999213 
L 232.779767 153.777453 
L 233.374967 153.600045 
L 234.089207 153.422637 
L 234.684407 153.156525 
L 235.398647 152.979117 
L 235.993847 152.801709 
L 236.708088 152.579949 
L 237.660407 152.358189 
L 238.374648 152.180781 
L 238.969847 152.003373 
L 239.684088 152.003373 
" style="fill:none;stroke:#7f7f7f;stroke-linecap:square;stroke-width:1.5;"/>
   </g>
   <g id="line2d_33">
    <path clip-path="url(#pa4215ee23a)" d="M 226.589687 155.374125 
L 227.661047 155.374125 
L 228.256248 155.374125 
L 228.970487 155.374125 
L 229.565687 155.152365 
L 230.518008 155.152365 
L 231.232247 155.152365 
L 231.827448 155.152365 
L 232.541687 155.152365 
L 233.494008 154.930605 
L 234.208247 154.930605 
L 234.803448 154.930605 
L 235.517687 154.930605 
L 236.470008 154.930605 
L 237.065207 154.753197 
L 237.779448 154.753197 
L 238.374648 154.753197 
L 239.446008 154.753197 
L 240.041207 154.753197 
L 240.755448 154.753197 
" style="fill:none;stroke:#bcbd22;stroke-linecap:square;stroke-width:1.5;"/>
   </g>
   <g id="line2d_34">
    <path clip-path="url(#pa4215ee23a)" d="M 226.589687 155.374125 
L 226.351608 155.374125 
L 226.351608 155.374125 
L 226.351608 155.374125 
L 226.351608 155.374125 
L 226.351608 155.374125 
L 226.351608 155.374125 
L 226.351608 155.374125 
L 226.173047 155.285421 
L 226.173047 155.285421 
L 226.173047 155.285421 
L 226.173047 155.285421 
L 225.994487 155.196717 
L 225.994487 155.196717 
L 225.994487 155.196717 
L 225.994487 155.108013 
L 225.815927 155.108013 
L 225.815927 155.108013 
L 225.815927 155.108013 
L 225.815927 155.108013 
" style="fill:none;stroke:#17becf;stroke-linecap:square;stroke-width:1.5;"/>
   </g>
   <g id="line2d_35">
    <path clip-path="url(#pa4215ee23a)" d="M 226.589687 155.374125 
L 226.589687 155.374125 
L 226.589687 155.374125 
L 226.589687 155.152365 
L 226.589687 155.152365 
L 226.589687 155.152365 
L 226.589687 155.152365 
L 226.589687 155.152365 
L 226.589687 155.152365 
L 226.589687 155.152365 
L 226.589687 155.152365 
L 226.589687 155.152365 
L 226.589687 154.974957 
L 226.946808 154.354029 
L 226.946808 153.777453 
L 227.244407 153.156525 
L 227.899127 152.757357 
L 228.613368 152.535597 
L 229.208567 152.358189 
L 229.922808 152.136429 
" style="fill:none;stroke:#1f77b4;stroke-linecap:square;stroke-width:1.5;"/>
   </g>
   <g id="line2d_36">
    <path clip-path="url(#pa4215ee23a)" d="M 226.589687 155.374125 
L 227.542007 155.196717 
L 228.851448 155.019309 
L 230.160888 154.797549 
L 231.291767 154.487085 
L 232.601207 154.176621 
L 233.732088 153.999213 
L 234.922487 153.688749 
L 236.231927 153.466989 
L 237.541368 153.289581 
L 238.493687 153.112173 
L 239.505527 152.668653 
L 240.457847 152.491245 
L 241.767288 152.269485 
L 242.779127 152.092077 
L 243.790967 151.870317 
L 244.743288 151.692909 
L 245.755127 151.471149 
L 246.707448 151.249389 
L 248.016887 151.071981 
" style="fill:none;stroke:#ff7f0e;stroke-linecap:square;stroke-width:1.5;"/>
   </g>
   <g id="line2d_37">
    <path clip-path="url(#pa4215ee23a)" d="M 226.589687 155.374125 
L 227.542007 155.152365 
L 228.553847 154.797549 
L 229.506168 154.354029 
L 230.518008 153.954861 
L 231.172728 153.555693 
L 232.125047 153.156525 
L 233.136888 152.934765 
L 234.089207 152.579949 
L 235.101047 152.136429 
L 236.053368 151.959021 
L 237.065207 151.559853 
L 238.017527 151.338093 
L 239.029368 150.938925 
L 239.684088 150.761517 
L 240.695927 150.539757 
L 241.648247 150.140589 
L 242.660088 149.918829 
L 243.612407 149.564013 
L 244.921847 149.342253 
" style="fill:none;stroke:#2ca02c;stroke-linecap:square;stroke-width:1.5;"/>
   </g>
   <g id="patch_3">
    <path d="M 48.029688 288.430125 
L 48.029688 22.318125 
" style="fill:none;stroke:#000000;stroke-linecap:square;stroke-linejoin:miter;stroke-width:0.8;"/>
   </g>
   <g id="patch_4">
    <path d="M 405.149688 288.430125 
L 405.149688 22.318125 
" style="fill:none;stroke:#000000;stroke-linecap:square;stroke-linejoin:miter;stroke-width:0.8;"/>
   </g>
   <g id="patch_5">
    <path d="M 48.029687 288.430125 
L 405.149688 288.430125 
" style="fill:none;stroke:#000000;stroke-linecap:square;stroke-linejoin:miter;stroke-width:0.8;"/>
   </g>
   <g id="patch_6">
    <path d="M 48.029687 22.318125 
L 405.149688 22.318125 
" style="fill:none;stroke:#000000;stroke-linecap:square;stroke-linejoin:miter;stroke-width:0.8;"/>
   </g>
   <g id="text_15">
    <!-- quad_1 -->
    <g transform="translate(204.674688 16.318125)scale(0.12 -0.12)">
     <defs>
      <path d="M 14.796875 27.296875 
Q 14.796875 17.390625 18.875 11.75 
Q 22.953125 6.109375 30.078125 6.109375 
Q 37.203125 6.109375 41.296875 11.75 
Q 45.40625 17.390625 45.40625 27.296875 
Q 45.40625 37.203125 41.296875 42.84375 
Q 37.203125 48.484375 30.078125 48.484375 
Q 22.953125 48.484375 18.875 42.84375 
Q 14.796875 37.203125 14.796875 27.296875 
z
M 45.40625 8.203125 
Q 42.578125 3.328125 38.25 0.953125 
Q 33.9375 -1.421875 27.875 -1.421875 
Q 17.96875 -1.421875 11.734375 6.484375 
Q 5.515625 14.40625 5.515625 27.296875 
Q 5.515625 40.1875 11.734375 48.09375 
Q 17.96875 56 27.875 56 
Q 33.9375 56 38.25 53.625 
Q 42.578125 51.265625 45.40625 46.390625 
L 45.40625 54.6875 
L 54.390625 54.6875 
L 54.390625 -20.796875 
L 45.40625 -20.796875 
z
" id="DejaVuSans-113"/>
      <path d="M 8.5 21.578125 
L 8.5 54.6875 
L 17.484375 54.6875 
L 17.484375 21.921875 
Q 17.484375 14.15625 20.5 10.265625 
Q 23.53125 6.390625 29.59375 6.390625 
Q 36.859375 6.390625 41.078125 11.03125 
Q 45.3125 15.671875 45.3125 23.6875 
L 45.3125 54.6875 
L 54.296875 54.6875 
L 54.296875 0 
L 45.3125 0 
L 45.3125 8.40625 
Q 42.046875 3.421875 37.71875 1 
Q 33.40625 -1.421875 27.6875 -1.421875 
Q 18.265625 -1.421875 13.375 4.4375 
Q 8.5 10.296875 8.5 21.578125 
z
M 31.109375 56 
z
" id="DejaVuSans-117"/>
      <path d="M 34.28125 27.484375 
Q 23.390625 27.484375 19.1875 25 
Q 14.984375 22.515625 14.984375 16.5 
Q 14.984375 11.71875 18.140625 8.90625 
Q 21.296875 6.109375 26.703125 6.109375 
Q 34.1875 6.109375 38.703125 11.40625 
Q 43.21875 16.703125 43.21875 25.484375 
L 43.21875 27.484375 
z
M 52.203125 31.203125 
L 52.203125 0 
L 43.21875 0 
L 43.21875 8.296875 
Q 40.140625 3.328125 35.546875 0.953125 
Q 30.953125 -1.421875 24.3125 -1.421875 
Q 15.921875 -1.421875 10.953125 3.296875 
Q 6 8.015625 6 15.921875 
Q 6 25.140625 12.171875 29.828125 
Q 18.359375 34.515625 30.609375 34.515625 
L 43.21875 34.515625 
L 43.21875 35.40625 
Q 43.21875 41.609375 39.140625 45 
Q 35.0625 48.390625 27.6875 48.390625 
Q 23 48.390625 18.546875 47.265625 
Q 14.109375 46.140625 10.015625 43.890625 
L 10.015625 52.203125 
Q 14.9375 54.109375 19.578125 55.046875 
Q 24.21875 56 28.609375 56 
Q 40.484375 56 46.34375 49.84375 
Q 52.203125 43.703125 52.203125 31.203125 
z
" id="DejaVuSans-97"/>
      <path d="M 45.40625 46.390625 
L 45.40625 75.984375 
L 54.390625 75.984375 
L 54.390625 0 
L 45.40625 0 
L 45.40625 8.203125 
Q 42.578125 3.328125 38.25 0.953125 
Q 33.9375 -1.421875 27.875 -1.421875 
Q 17.96875 -1.421875 11.734375 6.484375 
Q 5.515625 14.40625 5.515625 27.296875 
Q 5.515625 40.1875 11.734375 48.09375 
Q 17.96875 56 27.875 56 
Q 33.9375 56 38.25 53.625 
Q 42.578125 51.265625 45.40625 46.390625 
z
M 14.796875 27.296875 
Q 14.796875 17.390625 18.875 11.75 
Q 22.953125 6.109375 30.078125 6.109375 
Q 37.203125 6.109375 41.296875 11.75 
Q 45.40625 17.390625 45.40625 27.296875 
Q 45.40625 37.203125 41.296875 42.84375 
Q 37.203125 48.484375 30.078125 48.484375 
Q 22.953125 48.484375 18.875 42.84375 
Q 14.796875 37.203125 14.796875 27.296875 
z
" id="DejaVuSans-100"/>
      <path d="M 50.984375 -16.609375 
L 50.984375 -23.578125 
L -0.984375 -23.578125 
L -0.984375 -16.609375 
z
" id="DejaVuSans-95"/>
     </defs>
     <use xlink:href="#DejaVuSans-113"/>
     <use x="63.476562" xlink:href="#DejaVuSans-117"/>
     <use x="126.855469" xlink:href="#DejaVuSans-97"/>
     <use x="188.134766" xlink:href="#DejaVuSans-100"/>
     <use x="251.611328" xlink:href="#DejaVuSans-95"/>
     <use x="301.611328" xlink:href="#DejaVuSans-49"/>
    </g>
   </g>
  </g>
 </g>
 <defs>
  <clipPath id="pa4215ee23a">
   <rect height="266.112" width="357.12" x="48.029688" y="22.318125"/>
  </clipPath>
 </defs>
</svg>
